*%FSLAX23Y23*%
*%MOIN*%
G01*
%ADD11C,0.000*%
%ADD12C,0.001*%
%ADD13C,0.002*%
%ADD14C,0.006*%
%ADD15C,0.007*%
%ADD16C,0.007*%
%ADD17C,0.008*%
%ADD18C,0.010*%
%ADD19C,0.012*%
%ADD20C,0.015*%
%ADD21C,0.018*%
%ADD22C,0.022*%
%ADD23C,0.024*%
%ADD24C,0.025*%
%ADD25C,0.029*%
%ADD26C,0.031*%
%ADD27C,0.031*%
%ADD28C,0.035*%
%ADD29C,0.035*%
%ADD30C,0.039*%
%ADD31C,0.039*%
%ADD32C,0.046*%
%ADD33C,0.047*%
%ADD34C,0.050*%
%ADD35C,0.051*%
%ADD36C,0.051*%
%ADD37C,0.054*%
%ADD38C,0.055*%
%ADD39C,0.058*%
%ADD40C,0.059*%
%ADD41C,0.059*%
%ADD42C,0.062*%
%ADD43C,0.067*%
%ADD44C,0.070*%
%ADD45C,0.074*%
%ADD46C,0.115*%
%ADD47C,0.135*%
%ADD48C,0.138*%
%ADD49C,0.138*%
%ADD50C,0.158*%
%ADD51C,0.158*%
%ADD52C,0.190*%
%ADD53C,0.194*%
%ADD54C,0.236*%
%ADD55C,0.240*%
%ADD56R,0.011X0.030*%
%ADD57R,0.012X0.030*%
%ADD58R,0.014X0.033*%
%ADD59R,0.014X0.037*%
%ADD60R,0.015X0.034*%
%ADD61R,0.016X0.034*%
%ADD62R,0.018X0.037*%
%ADD63R,0.018X0.041*%
%ADD64R,0.020X0.025*%
%ADD65R,0.021X0.021*%
%ADD66R,0.024X0.029*%
%ADD67R,0.025X0.020*%
%ADD68R,0.029X0.024*%
%ADD69R,0.030X0.011*%
%ADD70R,0.030X0.030*%
%ADD71R,0.031X0.031*%
%ADD72R,0.033X0.014*%
%ADD73R,0.034X0.015*%
%ADD74R,0.034X0.034*%
%ADD75R,0.035X0.035*%
%ADD76R,0.037X0.014*%
%ADD77R,0.037X0.018*%
%ADD78R,0.039X0.055*%
%ADD79R,0.039X0.014*%
%ADD80R,0.040X0.083*%
%ADD81R,0.041X0.018*%
%ADD82R,0.043X0.059*%
%ADD83R,0.043X0.018*%
%ADD84R,0.044X0.087*%
%ADD85R,0.047X0.055*%
%ADD86R,0.048X0.024*%
%ADD87R,0.050X0.023*%
%ADD88R,0.050X0.060*%
%ADD89R,0.051X0.071*%
%ADD90R,0.051X0.059*%
%ADD91R,0.052X0.028*%
%ADD92R,0.054X0.027*%
%ADD93R,0.054X0.064*%
%ADD94R,0.055X0.039*%
%ADD95R,0.055X0.075*%
%ADD96R,0.057X0.012*%
%ADD97R,0.057X0.067*%
%ADD98R,0.059X0.043*%
%ADD99R,0.060X0.060*%
%ADD100R,0.061X0.024*%
%ADD101R,0.061X0.051*%
%ADD102R,0.061X0.016*%
%ADD103R,0.061X0.071*%
%ADD104R,0.063X0.039*%
%ADD105R,0.064X0.064*%
%ADD106R,0.065X0.028*%
%ADD107R,0.065X0.055*%
%ADD108R,0.067X0.043*%
%ADD109R,0.085X0.030*%
%ADD110R,0.089X0.034*%
%ADD111R,0.094X0.030*%
%ADD112R,0.098X0.034*%
%ADD113R,0.104X0.104*%
%ADD114R,0.108X0.108*%
%ADD115R,0.116X0.138*%
%ADD116R,0.120X0.142*%
%ADD117R,0.134X0.059*%
%ADD118R,0.138X0.039*%
%ADD119R,0.138X0.063*%
%ADD120R,0.142X0.043*%
%ADD121R,0.169X0.169*%
%ADD122R,0.173X0.173*%
%ADD123R,0.250X0.250*%
D14*
X9747Y8564D02*
Y8599D01*
Y8564D02*
X9764D01*
X9770Y8570D01*
Y8582D01*
X9764Y8587D01*
X9747D01*
X9759D02*
X9770Y8599D01*
X9788D02*
X9799D01*
X9788D02*
X9782Y8593D01*
Y8582D01*
X9788Y8576D01*
X9799D01*
X9805Y8582D01*
Y8587D01*
X9782D01*
X9817Y8576D02*
X9829Y8599D01*
X9840Y8576D01*
X9887D02*
Y8599D01*
Y8576D02*
X9899Y8564D01*
X9910Y8576D01*
Y8599D01*
Y8582D01*
X9887D01*
X9922Y8599D02*
X9934D01*
X9928D01*
Y8564D01*
X9929D01*
X9928D02*
X9922Y8570D01*
X8644Y8039D02*
X8632D01*
X8638D02*
X8644D01*
X8638D02*
Y8004D01*
X8639D01*
X8638D02*
X8632Y8010D01*
X8661D02*
X8667Y8004D01*
X8679D01*
X8684Y8010D01*
Y8033D01*
X8679Y8039D01*
X8667D01*
X8661Y8033D01*
Y8010D01*
X8952Y8033D02*
X8958Y8039D01*
X8969D01*
X8975Y8033D01*
Y8010D01*
X8969Y8004D01*
X8958D01*
X8952Y8010D01*
Y8016D01*
X8958Y8022D01*
X8975D01*
X10884Y8769D02*
X10890Y8775D01*
X10884Y8769D02*
X10873D01*
X10867Y8775D01*
Y8798D01*
X10873Y8804D01*
X10884D01*
X10890Y8798D01*
X10902Y8804D02*
Y8769D01*
Y8787D02*
Y8804D01*
Y8787D02*
X10908Y8781D01*
X10919D01*
X10925Y8787D01*
Y8804D01*
X10943Y8781D02*
X10954D01*
X10960Y8787D01*
Y8804D01*
X10943D01*
X10937Y8798D01*
X10943Y8792D01*
X10960D01*
X10972Y8781D02*
Y8804D01*
Y8792D01*
X10978Y8787D01*
X10984Y8781D01*
X10989D01*
X11019Y8816D02*
X11024D01*
X11030Y8810D01*
Y8781D01*
X11013D01*
X11007Y8787D01*
Y8798D01*
X11013Y8804D01*
X11030D01*
X11042D02*
X11054D01*
X11048D01*
Y8781D01*
X11042D01*
X11048Y8769D02*
X11049D01*
X11071Y8781D02*
Y8804D01*
Y8781D02*
X11089D01*
X11094Y8787D01*
Y8804D01*
X11118Y8816D02*
X11124D01*
X11129Y8810D01*
Y8781D01*
X11112D01*
X11106Y8787D01*
Y8798D01*
X11112Y8804D01*
X11129D01*
X10921Y7078D02*
Y7043D01*
Y7078D02*
X10944D01*
X10962D02*
X10973D01*
X10979Y7072D01*
Y7061D01*
X10973Y7055D01*
X10962D01*
X10956Y7061D01*
Y7072D01*
X10962Y7078D01*
X10991Y7072D02*
Y7055D01*
Y7072D02*
X10997Y7078D01*
X11003Y7072D01*
X11008Y7078D01*
X11014Y7072D01*
Y7055D01*
X11061Y7043D02*
Y7078D01*
X11078D01*
X11084Y7072D01*
Y7066D01*
X11078Y7061D01*
X11061D01*
X11062D01*
X11061D02*
X11062D01*
X11061D02*
X11062D01*
X11061D02*
X11078D01*
X11084Y7055D01*
Y7049D01*
X11078Y7043D01*
X11061D01*
X11102Y7055D02*
X11113D01*
X11119Y7061D01*
Y7078D01*
X11102D01*
X11096Y7072D01*
X11102Y7066D01*
X11119D01*
X11137Y7055D02*
Y7049D01*
Y7055D02*
X11131D01*
X11143D01*
X11137D01*
Y7072D01*
X11143Y7078D01*
X11166Y7055D02*
Y7049D01*
Y7055D02*
X11160D01*
X11172D01*
X11166D01*
Y7072D01*
X11172Y7078D01*
X8978Y8268D02*
X8966D01*
X8972D02*
X8978D01*
X8972D02*
Y8233D01*
X8973D01*
X8972D02*
X8966Y8239D01*
X8664Y8268D02*
X8641D01*
X8664Y8245D01*
Y8239D01*
X8658Y8233D01*
X8647D01*
X8641Y8239D01*
X9631Y8468D02*
X9661D01*
X9631D02*
Y8513D01*
X9661D01*
X9646Y8491D02*
X9631D01*
X9676Y8483D02*
X9706Y8513D01*
X9691Y8498D01*
X9706Y8483D01*
X9676Y8513D01*
X9721Y8528D02*
Y8483D01*
X9743D01*
X9751Y8491D01*
Y8506D01*
X9743Y8513D01*
X9721D01*
X9766D02*
X9781D01*
X9773D01*
Y8468D01*
X9766D01*
X9811Y8513D02*
X9826D01*
X9833Y8506D01*
Y8491D01*
X9826Y8483D01*
X9811D01*
X9803Y8491D01*
Y8506D01*
X9811Y8513D01*
X9848D02*
Y8483D01*
Y8498D02*
Y8513D01*
Y8498D02*
X9856Y8491D01*
X9863Y8483D01*
X9871D01*
X9901Y8513D02*
X9916D01*
X9901D02*
X9893Y8506D01*
Y8491D01*
X9901Y8483D01*
X9916D01*
X9923Y8491D01*
Y8498D01*
X9893D01*
X9938Y8483D02*
Y8513D01*
Y8498D01*
X9946Y8491D01*
X9953Y8483D01*
X9961D01*
X10028Y8468D02*
Y8513D01*
Y8491D01*
X10058D01*
Y8468D01*
Y8513D01*
X10073D02*
Y8483D01*
X10088Y8468D01*
X10103Y8483D01*
Y8513D01*
Y8491D01*
X10073D01*
X10118Y8468D02*
X10148D01*
X10133D01*
Y8513D01*
X9953Y7378D02*
X9941D01*
X9947D02*
X9953D01*
X9947D02*
Y7343D01*
X9948D01*
X9947D02*
X9941Y7349D01*
X10248Y7343D02*
Y7378D01*
X10231Y7361D02*
X10248Y7343D01*
X10254Y7361D02*
X10231D01*
X9982Y8659D02*
Y8694D01*
X9994Y8682D01*
X10005Y8694D01*
Y8659D01*
X10017Y8671D02*
Y8694D01*
Y8682D01*
X10023Y8677D01*
X10029Y8671D01*
X10034D01*
X10052Y8694D02*
X10064D01*
X10058D01*
Y8671D01*
X10052D01*
X10058Y8659D02*
X10059D01*
X10087Y8665D02*
Y8671D01*
X10081D01*
X10093D01*
X10087D01*
Y8688D01*
X10093Y8694D01*
X10116D02*
X10128D01*
X10116D02*
X10110Y8688D01*
Y8677D01*
X10116Y8671D01*
X10128D01*
X10134Y8677D01*
Y8682D01*
X10110D01*
X10180Y8659D02*
X10204D01*
X10180D02*
Y8694D01*
X10204D01*
X10192Y8677D02*
X10180D01*
X10215Y8659D02*
X10239D01*
X10215D02*
Y8694D01*
X10239D01*
X10227Y8677D02*
X10215D01*
X10250Y8694D02*
Y8659D01*
X10268D01*
X10274Y8665D01*
Y8677D01*
X10268Y8682D01*
X10250D01*
X10285Y8694D02*
Y8659D01*
X10303D01*
X10309Y8665D01*
Y8677D01*
X10303Y8682D01*
X10285D01*
X10297D02*
X10309Y8694D01*
X10320D02*
Y8659D01*
X10332Y8671D01*
X10344Y8659D01*
Y8694D01*
X11067Y8274D02*
Y8239D01*
Y8274D02*
X11084D01*
X11090Y8268D01*
Y8262D01*
X11084Y8257D01*
X11067D01*
X11068D01*
X11067D02*
X11068D01*
X11067D02*
X11068D01*
X11067D02*
X11084D01*
X11090Y8251D01*
Y8245D01*
X11084Y8239D01*
X11067D01*
X11108Y8251D02*
X11119D01*
X11125Y8257D01*
Y8274D01*
X11108D01*
X11102Y8268D01*
X11108Y8262D01*
X11125D01*
X11143Y8251D02*
Y8245D01*
Y8251D02*
X11137D01*
X11149D01*
X11143D01*
Y8268D01*
X11149Y8274D01*
X11172Y8251D02*
Y8245D01*
Y8251D02*
X11166D01*
X11178D01*
X11172D01*
Y8268D01*
X11178Y8274D01*
X11145Y7935D02*
X11139Y7929D01*
X11128D01*
X11122Y7935D01*
Y7941D01*
X11128Y7947D01*
X11139D01*
X11145Y7952D01*
Y7958D01*
X11139Y7964D01*
X11128D01*
X11122Y7958D01*
X11157Y7964D02*
Y7929D01*
X11169Y7952D02*
X11157Y7964D01*
X11169Y7952D02*
X11180Y7964D01*
Y7929D01*
X11102Y7894D02*
Y7859D01*
X11119D01*
X11125Y7865D01*
Y7877D01*
X11119Y7882D01*
X11102D01*
X11137Y7894D02*
Y7859D01*
X11149Y7882D02*
X11137Y7894D01*
X11149Y7882D02*
X11160Y7894D01*
Y7859D01*
X11172D02*
Y7894D01*
Y7859D02*
X11189D01*
X11195Y7865D01*
Y7877D01*
X11189Y7882D01*
X11172D01*
X11184D02*
X11195Y7894D01*
X11149Y7789D02*
X11138D01*
X11132Y7795D01*
Y7818D01*
X11138Y7824D01*
X11149D01*
X11155Y7818D01*
Y7795D01*
X11149Y7789D01*
X11167D02*
Y7824D01*
X11190D02*
X11167Y7789D01*
X11190D02*
Y7824D01*
X11134Y8009D02*
X11123D01*
X11117Y8015D01*
Y8038D01*
X11123Y8044D01*
X11134D01*
X11140Y8038D01*
Y8015D01*
X11134Y8009D01*
X11152D02*
X11175D01*
X11152D02*
Y8027D01*
X11164D01*
X11152D01*
Y8044D01*
X11187Y8009D02*
X11210D01*
X11187D02*
Y8027D01*
X11199D01*
X11187D01*
Y8044D01*
X8639Y8118D02*
X8628D01*
X8633D01*
Y8147D01*
X8628Y8153D01*
X8622D01*
X8616Y8147D01*
X8651Y8124D02*
X8657Y8118D01*
X8668D01*
X8674Y8124D01*
Y8130D01*
X8675D01*
X8674D02*
X8675D01*
X8674D02*
X8675D01*
X8674D02*
X8668Y8136D01*
X8663D01*
X8668D01*
X8674Y8141D01*
Y8147D01*
X8668Y8153D01*
X8657D01*
X8651Y8147D01*
X9334Y8254D02*
X9340Y8260D01*
X9334Y8254D02*
X9323D01*
X9317Y8260D01*
Y8283D01*
X9323Y8289D01*
X9334D01*
X9340Y8283D01*
X9352Y8289D02*
X9364D01*
X9358D01*
Y8254D01*
X9359D01*
X9358D02*
X9352Y8260D01*
X9381D02*
X9387Y8254D01*
X9399D01*
X9404Y8260D01*
Y8266D01*
X9399Y8272D01*
X9404Y8277D01*
Y8283D01*
X9399Y8289D01*
X9387D01*
X9381Y8283D01*
Y8277D01*
X9387Y8272D01*
X9381Y8266D01*
Y8260D01*
X9387Y8272D02*
X9399D01*
X9335Y8125D02*
X9329Y8119D01*
X9318D01*
X9312Y8125D01*
Y8148D01*
X9318Y8154D01*
X9329D01*
X9335Y8148D01*
X9347Y8154D02*
X9359D01*
X9353D01*
Y8119D01*
X9354D01*
X9353D02*
X9347Y8125D01*
X9376D02*
X9382Y8119D01*
X9394D01*
X9399Y8125D01*
Y8131D01*
X9400D01*
X9399D02*
X9400D01*
X9399D02*
X9400D01*
X9399D02*
X9394Y8137D01*
X9388D01*
X9394D01*
X9399Y8142D01*
Y8148D01*
X9394Y8154D01*
X9382D01*
X9376Y8148D01*
X9316Y8037D02*
Y8008D01*
Y8037D02*
X9322Y8043D01*
X9333D01*
X9339Y8037D01*
Y8008D01*
X9351D02*
X9374D01*
X9351D02*
Y8026D01*
X9363Y8020D01*
X9368D01*
X9374Y8026D01*
Y8037D01*
X9368Y8043D01*
X9357D01*
X9351Y8037D01*
X9579Y7599D02*
X9573Y7593D01*
X9562D01*
X9556Y7599D01*
Y7622D01*
X9562Y7628D01*
X9573D01*
X9579Y7622D01*
X9591Y7628D02*
X9603D01*
X9597D01*
Y7593D01*
X9598D01*
X9597D02*
X9591Y7599D01*
X9620Y7593D02*
X9643D01*
X9620D02*
Y7611D01*
X9632Y7605D01*
X9638D01*
X9643Y7611D01*
Y7622D01*
X9638Y7628D01*
X9626D01*
X9620Y7622D01*
X10392Y7369D02*
Y7334D01*
Y7369D02*
X10409D01*
X10415Y7363D01*
Y7340D01*
X10409Y7334D01*
X10392D01*
X10427Y7369D02*
X10450D01*
X10427D02*
X10450Y7346D01*
Y7340D01*
X10444Y7334D01*
X10433D01*
X10427Y7340D01*
X10464Y7479D02*
X10470Y7485D01*
X10464Y7479D02*
X10453D01*
X10447Y7485D01*
Y7491D01*
X10453Y7497D01*
X10464D01*
X10470Y7502D01*
Y7508D01*
X10464Y7514D01*
X10453D01*
X10447Y7508D01*
X10482Y7514D02*
Y7479D01*
X10494Y7502D02*
X10482Y7514D01*
X10494Y7502D02*
X10505Y7514D01*
Y7479D01*
X10517Y7514D02*
X10540D01*
X10517D02*
X10540Y7491D01*
Y7485D01*
X10534Y7479D01*
X10523D01*
X10517Y7485D01*
X10084Y7352D02*
X10073D01*
X10078D01*
Y7381D01*
X10073Y7387D01*
X10067D01*
X10061Y7381D01*
X10113Y7387D02*
Y7352D01*
X10096Y7370D01*
X10119D01*
X10001Y8158D02*
X9989D01*
X9995D01*
Y8187D01*
X9989Y8193D01*
X9983D01*
X9977Y8187D01*
X10012Y8158D02*
X10036D01*
X10012D02*
Y8176D01*
X10024Y8170D01*
X10030D01*
X10036Y8176D01*
Y8187D01*
X10030Y8193D01*
X10018D01*
X10012Y8187D01*
X10397Y8214D02*
Y8249D01*
X10414D01*
X10420Y8243D01*
Y8220D01*
X10414Y8214D01*
X10397D01*
X10432Y8249D02*
X10444D01*
X10438D01*
Y8214D01*
X10439D01*
X10438D02*
X10432Y8220D01*
X10500Y8060D02*
X10494Y8054D01*
X10483D01*
X10477Y8060D01*
Y8066D01*
X10483Y8072D01*
X10494D01*
X10500Y8077D01*
Y8083D01*
X10494Y8089D01*
X10483D01*
X10477Y8083D01*
X10512Y8089D02*
Y8054D01*
X10524Y8077D02*
X10512Y8089D01*
X10524Y8077D02*
X10535Y8089D01*
Y8054D01*
X10547Y8060D02*
X10553Y8054D01*
X10564D01*
X10570Y8060D01*
Y8066D01*
X10571D01*
X10570D02*
X10571D01*
X10570D02*
X10571D01*
X10570D02*
X10564Y8072D01*
X10559D01*
X10564D01*
X10570Y8077D01*
Y8083D01*
X10564Y8089D01*
X10553D01*
X10547Y8083D01*
X10440Y7850D02*
X10434Y7844D01*
X10423D01*
X10417Y7850D01*
Y7873D01*
X10423Y7879D01*
X10434D01*
X10440Y7873D01*
X10452Y7879D02*
X10475D01*
X10452D02*
X10475Y7856D01*
Y7850D01*
X10469Y7844D01*
X10458D01*
X10452Y7850D01*
X10487D02*
X10493Y7844D01*
X10504D01*
X10510Y7850D01*
Y7856D01*
X10504Y7862D01*
X10510Y7867D01*
Y7873D01*
X10504Y7879D01*
X10493D01*
X10487Y7873D01*
Y7867D01*
X10493Y7862D01*
X10487Y7856D01*
Y7850D01*
X10493Y7862D02*
X10504D01*
X10172Y8049D02*
Y8078D01*
X10178Y8084D01*
X10189D01*
X10195Y8078D01*
Y8049D01*
X10207Y8084D02*
X10219D01*
X10213D01*
Y8049D01*
X10214D01*
X10213D02*
X10207Y8055D01*
X10236Y8084D02*
X10248D01*
X10242D01*
Y8049D01*
X10243D01*
X10242D02*
X10236Y8055D01*
X9819Y8009D02*
X9813Y8003D01*
X9802D01*
X9796Y8009D01*
Y8032D01*
X9802Y8038D01*
X9813D01*
X9819Y8032D01*
X9831Y8038D02*
X9843D01*
X9837D01*
Y8003D01*
X9838D01*
X9837D02*
X9831Y8009D01*
X9860Y8038D02*
X9883D01*
X9860D02*
X9883Y8015D01*
Y8009D01*
X9878Y8003D01*
X9866D01*
X9860Y8009D01*
X9869Y7854D02*
X9863Y7848D01*
X9852D01*
X9846Y7854D01*
Y7877D01*
X9852Y7883D01*
X9863D01*
X9869Y7877D01*
X9881Y7883D02*
X9904D01*
X9881D02*
X9904Y7860D01*
Y7854D01*
X9898Y7848D01*
X9887D01*
X9881Y7854D01*
X9916D02*
X9922Y7848D01*
X9933D01*
X9939Y7854D01*
Y7860D01*
X9940D01*
X9939D02*
X9940D01*
X9939D02*
X9940D01*
X9939D02*
X9933Y7866D01*
X9928D01*
X9933D01*
X9939Y7871D01*
Y7877D01*
X9933Y7883D01*
X9922D01*
X9916Y7877D01*
X9839Y7663D02*
X9816Y7628D01*
X9839D02*
X9816Y7663D01*
X9851D02*
X9863D01*
X9857D01*
Y7628D01*
X9858D01*
X9857D02*
X9851Y7634D01*
X9913Y7728D02*
X9919Y7734D01*
X9913Y7728D02*
X9902D01*
X9896Y7734D01*
Y7757D01*
X9902Y7763D01*
X9913D01*
X9919Y7757D01*
X9943Y7734D02*
X9954Y7728D01*
X9943Y7734D02*
X9931Y7746D01*
Y7757D01*
X9937Y7763D01*
X9948D01*
X9954Y7757D01*
Y7751D01*
X9948Y7746D01*
X9931D01*
X9744Y7539D02*
X9738Y7533D01*
X9727D01*
X9721Y7539D01*
Y7562D01*
X9727Y7568D01*
X9738D01*
X9744Y7562D01*
X9756Y7533D02*
X9779D01*
Y7539D01*
X9756Y7562D01*
Y7568D01*
X9566Y7493D02*
Y7458D01*
Y7493D02*
X9589D01*
X9601Y7464D02*
X9607Y7458D01*
X9618D01*
X9624Y7464D01*
Y7470D01*
X9625D01*
X9624D02*
X9625D01*
X9624D02*
X9625D01*
X9624D02*
X9618Y7476D01*
X9613D01*
X9618D01*
X9624Y7481D01*
Y7487D01*
X9618Y7493D01*
X9607D01*
X9601Y7487D01*
X9027Y7521D02*
Y7544D01*
Y7521D02*
X9039Y7509D01*
X9050Y7521D01*
Y7544D01*
Y7527D01*
X9027D01*
X9062Y7544D02*
X9074D01*
X9068D01*
Y7509D01*
X9069D01*
X9068D02*
X9062Y7515D01*
X9239Y7529D02*
X9245Y7535D01*
X9239Y7529D02*
X9228D01*
X9222Y7535D01*
Y7558D01*
X9228Y7564D01*
X9239D01*
X9245Y7558D01*
X9257Y7564D02*
X9280D01*
X9257D02*
X9280Y7541D01*
Y7535D01*
X9274Y7529D01*
X9263D01*
X9257Y7535D01*
X9292D02*
X9298Y7529D01*
X9309D01*
X9315Y7535D01*
Y7558D01*
X9309Y7564D01*
X9298D01*
X9292Y7558D01*
Y7535D01*
X9312Y7634D02*
Y7669D01*
X9335D01*
X9347D02*
X9370D01*
X9347D02*
X9370Y7646D01*
Y7640D01*
X9364Y7634D01*
X9353D01*
X9347Y7640D01*
X9477Y7634D02*
Y7663D01*
X9483Y7669D01*
X9494D01*
X9500Y7663D01*
Y7634D01*
X9524Y7640D02*
X9535Y7634D01*
X9524Y7640D02*
X9512Y7652D01*
Y7663D01*
X9518Y7669D01*
X9529D01*
X9535Y7663D01*
Y7657D01*
X9529Y7652D01*
X9512D01*
X9239Y7699D02*
X9233Y7693D01*
X9222D01*
X9216Y7699D01*
Y7722D01*
X9222Y7728D01*
X9233D01*
X9239Y7722D01*
X9251Y7728D02*
X9263D01*
X9257D01*
Y7693D01*
X9258D01*
X9257D02*
X9251Y7699D01*
X9298Y7693D02*
Y7728D01*
X9280Y7711D02*
X9298Y7693D01*
X9303Y7711D02*
X9280D01*
X9146Y7833D02*
Y7868D01*
Y7833D02*
X9163D01*
X9169Y7839D01*
Y7851D01*
X9163Y7856D01*
X9146D01*
X9158D02*
X9169Y7868D01*
X9181D02*
X9193D01*
X9187D01*
Y7833D01*
X9188D01*
X9187D02*
X9181Y7839D01*
X9222D02*
X9233Y7833D01*
X9222Y7839D02*
X9210Y7851D01*
Y7862D01*
X9216Y7868D01*
X9228D01*
X9233Y7862D01*
Y7856D01*
X9228Y7851D01*
X9210D01*
X9283Y7948D02*
X9289Y7954D01*
X9283Y7948D02*
X9272D01*
X9266Y7954D01*
Y7977D01*
X9272Y7983D01*
X9283D01*
X9289Y7977D01*
X9301Y7983D02*
X9313D01*
X9307D01*
Y7948D01*
X9308D01*
X9307D02*
X9301Y7954D01*
X9330Y7977D02*
X9336Y7983D01*
X9348D01*
X9353Y7977D01*
Y7954D01*
X9348Y7948D01*
X9336D01*
X9330Y7954D01*
Y7960D01*
X9336Y7966D01*
X9353D01*
X8966Y7828D02*
Y7793D01*
X8983D01*
X8989Y7799D01*
Y7811D01*
X8983Y7816D01*
X8966D01*
X8978D02*
X8989Y7828D01*
X9001D02*
X9013D01*
X9007D01*
Y7793D01*
X9008D01*
X9007D02*
X9001Y7799D01*
X9048Y7793D02*
Y7828D01*
X9030Y7811D02*
X9048Y7793D01*
X9053Y7811D02*
X9030D01*
X8836Y7958D02*
Y7993D01*
Y7958D02*
X8853D01*
X8859Y7964D01*
Y7976D01*
X8853Y7981D01*
X8836D01*
X8848D02*
X8859Y7993D01*
X8871D02*
X8883D01*
X8877D01*
Y7958D01*
X8878D01*
X8877D02*
X8871Y7964D01*
X8900Y7958D02*
X8923D01*
X8900D02*
Y7976D01*
X8912Y7970D01*
X8918D01*
X8923Y7976D01*
Y7987D01*
X8918Y7993D01*
X8906D01*
X8900Y7987D01*
X8611Y7938D02*
Y7903D01*
Y7938D02*
X8628D01*
X8634Y7932D01*
Y7909D01*
X8628Y7903D01*
X8611D01*
X8663D02*
Y7938D01*
X8646Y7921D02*
X8663Y7903D01*
X8669Y7921D02*
X8646D01*
X8611Y7868D02*
Y7833D01*
Y7868D02*
X8628D01*
X8634Y7862D01*
Y7839D01*
X8628Y7833D01*
X8611D01*
X8646Y7839D02*
X8652Y7833D01*
X8663D01*
X8669Y7839D01*
Y7845D01*
X8670D01*
X8669D02*
X8670D01*
X8669D02*
X8670D01*
X8669D02*
X8663Y7851D01*
X8658D01*
X8663D01*
X8669Y7856D01*
Y7862D01*
X8663Y7868D01*
X8652D01*
X8646Y7862D01*
D17*
X10296Y7328D02*
Y7228D01*
X9896D02*
Y7328D01*
X10296D01*
Y7228D02*
X9896D01*
X9800Y7814D02*
X9791Y7824D01*
X9800Y7814D02*
X9800Y7670D01*
X9673D02*
Y7824D01*
Y7670D02*
X9800D01*
X9791Y7824D02*
X9673D01*
D18*
X10767Y7874D02*
Y7924D01*
X10792D01*
X10800Y7916D01*
Y7882D01*
X10792Y7874D01*
X10767D01*
X10825Y7924D02*
X10842D01*
X10850Y7916D01*
Y7899D01*
X10842Y7891D01*
X10825D01*
X10817Y7899D01*
Y7916D01*
X10825Y7924D01*
X10867Y7916D02*
Y7891D01*
Y7916D02*
X10875Y7924D01*
X10884Y7916D01*
X10892Y7924D01*
X10900Y7916D01*
Y7891D01*
X10917D02*
Y7924D01*
Y7891D02*
X10942D01*
X10950Y7899D01*
Y7924D01*
X10836Y7180D02*
Y7138D01*
Y7180D02*
X10844Y7188D01*
X10861D01*
X10869Y7180D01*
Y7138D01*
X10886Y7155D02*
Y7205D01*
Y7155D02*
X10911D01*
X10919Y7163D01*
Y7180D01*
X10911Y7188D01*
X10886D01*
X9702Y8399D02*
X9685D01*
X9677Y8407D01*
Y8441D01*
X9685Y8449D01*
X9702D01*
X9710Y8441D01*
Y8407D01*
X9702Y8399D01*
X9727Y8416D02*
Y8466D01*
Y8416D02*
X9752D01*
X9760Y8424D01*
Y8441D01*
X9752Y8449D01*
X9727D01*
X9785D02*
X9802D01*
X9785D02*
X9777Y8441D01*
Y8424D01*
X9785Y8416D01*
X9802D01*
X9810Y8424D01*
Y8432D01*
X9777D01*
X9827Y8449D02*
Y8416D01*
X9852D01*
X9860Y8424D01*
Y8449D01*
X9927D02*
Y8416D01*
X9944Y8399D01*
X9960Y8416D01*
Y8449D01*
Y8424D01*
X9927D01*
X9977Y8449D02*
Y8399D01*
X10002D01*
X10010Y8407D01*
Y8424D01*
X10002Y8432D01*
X9977D01*
X10052Y8399D02*
X10060Y8407D01*
X10052Y8399D02*
X10035D01*
X10027Y8407D01*
Y8416D01*
X10035Y8424D01*
X10052D01*
X10060Y8432D01*
Y8441D01*
X10052Y8449D01*
X10035D01*
X10027Y8441D01*
X11117Y8194D02*
X11150D01*
X11134Y8211D02*
Y8177D01*
X11117Y8324D02*
X11150D01*
X9413Y8063D02*
X9396Y8045D01*
X9396Y7848D02*
Y7828D01*
X9631D02*
Y7848D01*
Y8043D02*
Y8063D01*
X9416Y7828D02*
X9396D01*
X9611Y8063D02*
X9631D01*
Y7828D02*
X9611D01*
X11171Y7143D02*
Y7093D01*
X11046D02*
Y7143D01*
X11156D02*
Y7093D01*
X11051Y7143D02*
X11046D01*
Y7093D02*
X11156D01*
Y7143D02*
X11051D01*
X10731Y7299D02*
Y7410D01*
X10998D02*
Y7299D01*
X10982Y7474D02*
X10747D01*
Y7234D02*
X10982D01*
X9922Y8713D02*
Y8783D01*
X10071D02*
Y8713D01*
X9922D01*
Y8783D02*
X10071D01*
X11142Y8734D02*
Y8684D01*
X11017D02*
Y8734D01*
X11127D02*
Y8684D01*
X11022Y8734D02*
X11017D01*
Y8684D02*
X11127D01*
Y8734D02*
X11022D01*
X10730Y8164D02*
Y8053D01*
X10997D02*
Y8164D01*
X10981Y8228D02*
X10746D01*
Y7988D02*
X10981D01*
X9502Y7469D02*
Y7461D01*
X9510D01*
Y7469D01*
X9502D01*
X8727Y7365D02*
Y7129D01*
X9489Y7127D02*
Y7363D01*
X9155Y7040D02*
X9017D01*
X9014Y7449D02*
X9155D01*
X9485Y7733D02*
X9491D01*
X9485D02*
Y7727D01*
X9491D01*
Y7733D01*
X9536Y7713D02*
X9441D01*
Y7798D02*
X9536D01*
X8681Y7898D02*
Y7948D01*
X8806D02*
Y7898D01*
X8696D02*
Y7948D01*
X8801Y7898D02*
X8806D01*
Y7948D02*
X8696D01*
Y7898D02*
X8801D01*
X8681Y7878D02*
Y7828D01*
X8806D02*
Y7878D01*
X8696D02*
Y7828D01*
X8801D02*
X8806D01*
Y7878D02*
X8696D01*
Y7828D02*
X8801D01*
D19*
X9422Y8289D02*
Y8334D01*
X9492D02*
Y8289D01*
Y8259D02*
Y8209D01*
X9422D02*
Y8259D01*
Y8334D02*
X9492D01*
Y8209D02*
X9422D01*
X9486Y8133D02*
Y8088D01*
X9426D02*
Y8133D01*
Y8163D02*
Y8205D01*
X9486D02*
Y8163D01*
Y8088D02*
X9426D01*
Y8205D02*
X9486D01*
X9626Y7775D02*
Y7733D01*
X9566D02*
Y7775D01*
Y7703D02*
Y7658D01*
X9626D02*
Y7703D01*
Y7775D02*
X9566D01*
Y7658D02*
X9626D01*
X10427Y7984D02*
Y8029D01*
X10497D02*
Y7984D01*
Y7954D02*
Y7904D01*
X10427D02*
Y7954D01*
Y8029D02*
X10497D01*
Y7904D02*
X10427D01*
X10367Y8074D02*
Y8089D01*
X10347Y8029D02*
X10317D01*
Y8134D02*
X10347D01*
X9773Y8053D02*
Y7993D01*
X9656D02*
Y8053D01*
X9728D02*
X9773D01*
Y7993D02*
X9728D01*
X9698D02*
X9656D01*
Y8053D02*
X9698D01*
X9828Y7898D02*
Y7838D01*
X9711D02*
Y7898D01*
X9786Y7838D02*
X9828D01*
Y7898D02*
X9786D01*
X9756D02*
X9711D01*
Y7838D02*
X9756D01*
X9876Y7743D02*
Y7698D01*
X9816D02*
Y7743D01*
Y7773D02*
Y7815D01*
X9876D02*
Y7773D01*
Y7698D02*
X9816D01*
Y7815D02*
X9876D01*
X9676Y7653D02*
Y7593D01*
X9793D02*
Y7653D01*
X9721Y7593D02*
X9676D01*
Y7653D02*
X9721D01*
X9751D02*
X9793D01*
Y7593D02*
X9751D01*
X9509Y7443D02*
Y7383D01*
X9626D02*
Y7443D01*
X9551D02*
X9509D01*
Y7383D02*
X9551D01*
X9581D02*
X9626D01*
Y7443D02*
X9581D01*
X9337Y7472D02*
Y7514D01*
X9397D02*
Y7472D01*
Y7544D02*
Y7589D01*
X9337D02*
Y7544D01*
Y7472D02*
X9397D01*
Y7589D02*
X9337D01*
X9392Y7592D02*
Y7634D01*
X9452D02*
Y7592D01*
Y7664D02*
Y7709D01*
X9392D02*
Y7664D01*
Y7592D02*
X9452D01*
Y7709D02*
X9392D01*
X9246Y7743D02*
Y7803D01*
X9363D02*
Y7743D01*
X9288Y7803D02*
X9246D01*
Y7743D02*
X9288D01*
X9318D02*
X9363D01*
Y7803D02*
X9318D01*
X9366D02*
Y7863D01*
X9249D02*
Y7803D01*
X9321Y7863D02*
X9366D01*
Y7803D02*
X9321D01*
X9291D02*
X9249D01*
Y7863D02*
X9291D01*
X9366Y7873D02*
Y7933D01*
X9249D02*
Y7873D01*
X9321Y7933D02*
X9366D01*
Y7873D02*
X9321D01*
X9291D02*
X9249D01*
Y7933D02*
X9291D01*
X8821Y7878D02*
Y7808D01*
X8946D02*
Y7878D01*
X8871D02*
X8821D01*
Y7808D02*
X8871D01*
X8901D02*
X8946D01*
Y7878D02*
X8901D01*
X8821D02*
Y7948D01*
X8946D02*
Y7878D01*
X8871Y7948D02*
X8821D01*
Y7878D02*
X8871D01*
X8901D02*
X8946D01*
Y7948D02*
X8901D01*
D02*
M02*
