*%FSLAX23Y23*%
*%MOIN*%
G01*
%ADD11C,0.000*%
%ADD12C,0.001*%
%ADD13C,0.002*%
%ADD14C,0.006*%
%ADD15C,0.007*%
%ADD16C,0.007*%
%ADD17C,0.008*%
%ADD18C,0.010*%
%ADD19C,0.012*%
%ADD20C,0.015*%
%ADD21C,0.018*%
%ADD22C,0.022*%
%ADD23C,0.024*%
%ADD24C,0.025*%
%ADD25C,0.029*%
%ADD26C,0.031*%
%ADD27C,0.031*%
%ADD28C,0.035*%
%ADD29C,0.035*%
%ADD30C,0.039*%
%ADD31C,0.039*%
%ADD32C,0.046*%
%ADD33C,0.047*%
%ADD34C,0.050*%
%ADD35C,0.051*%
%ADD36C,0.051*%
%ADD37C,0.054*%
%ADD38C,0.055*%
%ADD39C,0.058*%
%ADD40C,0.059*%
%ADD41C,0.059*%
%ADD42C,0.062*%
%ADD43C,0.067*%
%ADD44C,0.070*%
%ADD45C,0.074*%
%ADD46C,0.115*%
%ADD47C,0.135*%
%ADD48C,0.138*%
%ADD49C,0.138*%
%ADD50C,0.158*%
%ADD51C,0.158*%
%ADD52C,0.190*%
%ADD53C,0.194*%
%ADD54C,0.236*%
%ADD55C,0.240*%
%ADD56R,0.011X0.030*%
%ADD57R,0.012X0.030*%
%ADD58R,0.014X0.033*%
%ADD59R,0.014X0.037*%
%ADD60R,0.015X0.034*%
%ADD61R,0.016X0.034*%
%ADD62R,0.018X0.037*%
%ADD63R,0.018X0.041*%
%ADD64R,0.020X0.025*%
%ADD65R,0.021X0.021*%
%ADD66R,0.024X0.029*%
%ADD67R,0.025X0.020*%
%ADD68R,0.029X0.024*%
%ADD69R,0.030X0.011*%
%ADD70R,0.030X0.030*%
%ADD71R,0.031X0.031*%
%ADD72R,0.033X0.014*%
%ADD73R,0.034X0.015*%
%ADD74R,0.034X0.034*%
%ADD75R,0.035X0.035*%
%ADD76R,0.037X0.014*%
%ADD77R,0.037X0.018*%
%ADD78R,0.039X0.055*%
%ADD79R,0.039X0.014*%
%ADD80R,0.040X0.083*%
%ADD81R,0.041X0.018*%
%ADD82R,0.043X0.059*%
%ADD83R,0.043X0.018*%
%ADD84R,0.044X0.087*%
%ADD85R,0.047X0.055*%
%ADD86R,0.048X0.024*%
%ADD87R,0.050X0.023*%
%ADD88R,0.050X0.060*%
%ADD89R,0.051X0.071*%
%ADD90R,0.051X0.059*%
%ADD91R,0.052X0.028*%
%ADD92R,0.054X0.027*%
%ADD93R,0.054X0.064*%
%ADD94R,0.055X0.039*%
%ADD95R,0.055X0.075*%
%ADD96R,0.057X0.012*%
%ADD97R,0.057X0.067*%
%ADD98R,0.059X0.043*%
%ADD99R,0.060X0.060*%
%ADD100R,0.061X0.024*%
%ADD101R,0.061X0.051*%
%ADD102R,0.061X0.016*%
%ADD103R,0.061X0.071*%
%ADD104R,0.063X0.039*%
%ADD105R,0.064X0.064*%
%ADD106R,0.065X0.028*%
%ADD107R,0.065X0.055*%
%ADD108R,0.067X0.043*%
%ADD109R,0.085X0.030*%
%ADD110R,0.089X0.034*%
%ADD111R,0.094X0.030*%
%ADD112R,0.098X0.034*%
%ADD113R,0.104X0.104*%
%ADD114R,0.108X0.108*%
%ADD115R,0.116X0.138*%
%ADD116R,0.120X0.142*%
%ADD117R,0.134X0.059*%
%ADD118R,0.138X0.039*%
%ADD119R,0.138X0.063*%
%ADD120R,0.142X0.043*%
%ADD121R,0.169X0.169*%
%ADD122R,0.173X0.173*%
%ADD123R,0.250X0.250*%
D22*
X10821Y8274D02*
D03*
Y8234D02*
D03*
X10806Y8254D02*
D03*
X10792Y8274D02*
D03*
Y8234D02*
D03*
X10172Y7734D02*
D03*
Y7784D02*
D03*
X10137Y7734D02*
D03*
Y7784D02*
D03*
X10097Y7734D02*
D03*
Y7784D02*
D03*
D25*
X11157Y8434D02*
D03*
X11207Y8469D02*
D03*
Y8434D02*
D03*
X11172Y7914D02*
D03*
X11207Y8084D02*
D03*
X11042Y8669D02*
D03*
X10977Y8759D02*
D03*
X11042Y8754D02*
D03*
X10947Y8339D02*
D03*
X11032Y8134D02*
D03*
X11102Y7729D02*
D03*
X11097Y7404D02*
D03*
Y7334D02*
D03*
X11006Y7118D02*
D03*
X10977Y7229D02*
D03*
X11022Y8074D02*
D03*
X10796Y8103D02*
D03*
X10852Y8679D02*
D03*
Y8744D02*
D03*
X10752Y8759D02*
D03*
X10857Y8259D02*
D03*
X10937Y8134D02*
D03*
X10907Y8404D02*
D03*
X10896Y7053D02*
D03*
X10932Y7329D02*
D03*
X10796Y7053D02*
D03*
X10832Y7769D02*
D03*
X10792Y7454D02*
D03*
X10777Y7539D02*
D03*
X10792Y7374D02*
D03*
X10942Y7829D02*
D03*
X10922Y7804D02*
D03*
X10746Y8238D02*
D03*
Y8278D02*
D03*
X10587Y8759D02*
D03*
X10732Y8729D02*
D03*
X10587Y8539D02*
D03*
X10612Y8314D02*
D03*
X10672Y8244D02*
D03*
X10642Y8539D02*
D03*
X10602Y7599D02*
D03*
X10572Y7149D02*
D03*
X10726Y8073D02*
D03*
X10706Y7598D02*
D03*
X10696Y7053D02*
D03*
X10596D02*
D03*
X10577Y7539D02*
D03*
X10437Y8384D02*
D03*
Y8539D02*
D03*
X10487D02*
D03*
X10447Y8054D02*
D03*
X10507Y7124D02*
D03*
X10496Y7053D02*
D03*
X10542Y7414D02*
D03*
Y7449D02*
D03*
X10432Y7414D02*
D03*
Y7449D02*
D03*
X10392Y8209D02*
D03*
Y8344D02*
D03*
X10361Y8013D02*
D03*
X10396Y7053D02*
D03*
X10397Y7229D02*
D03*
X10402Y7414D02*
D03*
Y7449D02*
D03*
X10397Y7994D02*
D03*
X10227Y8129D02*
D03*
X10187Y8759D02*
D03*
X10337D02*
D03*
X10187Y8539D02*
D03*
X10287D02*
D03*
X10237D02*
D03*
X10317Y7229D02*
D03*
X10227Y7884D02*
D03*
X10187D02*
D03*
X10196Y7053D02*
D03*
X10296D02*
D03*
X10227Y7999D02*
D03*
X10066Y8218D02*
D03*
X10082Y8739D02*
D03*
X10137Y8729D02*
D03*
Y8539D02*
D03*
X9997Y7424D02*
D03*
X9977Y7569D02*
D03*
X10142Y7884D02*
D03*
X10102Y7459D02*
D03*
X9996Y7053D02*
D03*
X10096D02*
D03*
X10032Y7094D02*
D03*
X9837Y8384D02*
D03*
X9887Y8759D02*
D03*
X9922Y8344D02*
D03*
X9937Y8674D02*
D03*
X9787Y8539D02*
D03*
X9887D02*
D03*
X9837D02*
D03*
X9822Y7579D02*
D03*
X9947Y7494D02*
D03*
X9877Y7984D02*
D03*
X9946Y7908D02*
D03*
X9801Y7978D02*
D03*
X9826Y7953D02*
D03*
X9786Y7908D02*
D03*
X9776Y8053D02*
D03*
X9846Y7683D02*
D03*
X9826Y7833D02*
D03*
X9796Y7053D02*
D03*
X9896D02*
D03*
X9892Y7094D02*
D03*
X9777Y7194D02*
D03*
X9877Y7354D02*
D03*
X9966Y8023D02*
D03*
X9737Y8385D02*
D03*
X9637Y8649D02*
D03*
X9687Y8539D02*
D03*
X9737D02*
D03*
Y8729D02*
D03*
X9727Y8344D02*
D03*
X9742Y7959D02*
D03*
X9746Y7588D02*
D03*
X9707Y7959D02*
D03*
X9646Y7413D02*
D03*
X9631Y7838D02*
D03*
Y7718D02*
D03*
X9596Y7648D02*
D03*
Y7053D02*
D03*
X9696D02*
D03*
X9411Y8173D02*
D03*
X9387Y8759D02*
D03*
X9497Y8344D02*
D03*
X9437Y8674D02*
D03*
Y8379D02*
D03*
X9472Y8539D02*
D03*
X9507D02*
D03*
X9537Y8419D02*
D03*
Y8759D02*
D03*
X9522Y7689D02*
D03*
X9566Y8003D02*
D03*
Y7943D02*
D03*
Y7888D02*
D03*
X9531Y7368D02*
D03*
Y7168D02*
D03*
Y7068D02*
D03*
X9466Y8003D02*
D03*
Y7943D02*
D03*
Y7888D02*
D03*
X9396Y7758D02*
D03*
X9516Y8003D02*
D03*
Y7888D02*
D03*
Y7943D02*
D03*
X9432Y7494D02*
D03*
X9531Y7493D02*
D03*
X9186Y8113D02*
D03*
X9276Y8253D02*
D03*
X9187Y8759D02*
D03*
X9277Y8344D02*
D03*
X9337Y8699D02*
D03*
Y8379D02*
D03*
X9237Y8649D02*
D03*
X9197Y8284D02*
D03*
X9227Y8309D02*
D03*
X9371Y8063D02*
D03*
X9336Y8088D02*
D03*
X9341Y7863D02*
D03*
X9366Y7883D02*
D03*
X9326Y7733D02*
D03*
X9186Y7898D02*
D03*
X9236Y7773D02*
D03*
Y7813D02*
D03*
X9196Y7493D02*
D03*
X9302Y7494D02*
D03*
X9151Y8148D02*
D03*
X8992Y8304D02*
D03*
X9037Y8624D02*
D03*
X9137Y8584D02*
D03*
X9087Y8544D02*
D03*
X9137Y8729D02*
D03*
X9112Y8284D02*
D03*
X9077Y8309D02*
D03*
X9002Y8544D02*
D03*
X9126Y7878D02*
D03*
Y7978D02*
D03*
X9151Y8008D02*
D03*
X8992Y8064D02*
D03*
X9051Y7953D02*
D03*
Y7903D02*
D03*
X9021Y7978D02*
D03*
Y7928D02*
D03*
X9051Y7848D02*
D03*
X9101Y7823D02*
D03*
X8996Y7493D02*
D03*
X9096D02*
D03*
X8917Y8344D02*
D03*
X8896Y8008D02*
D03*
Y7493D02*
D03*
X8821Y8173D02*
D03*
X8811Y8268D02*
D03*
X8822Y8389D02*
D03*
X8796Y7493D02*
D03*
X8746Y8293D02*
D03*
X8701Y8328D02*
D03*
X8631Y8293D02*
D03*
X8696Y7493D02*
D03*
X8591Y8168D02*
D03*
Y8268D02*
D03*
Y8368D02*
D03*
Y7768D02*
D03*
Y7868D02*
D03*
Y7968D02*
D03*
Y8068D02*
D03*
X8592Y7494D02*
D03*
D34*
X11071Y8052D02*
D03*
X11071Y7784D02*
D03*
D37*
X8819Y8221D02*
D03*
X8819Y8071D02*
D03*
X10036Y8748D02*
D03*
X9957D02*
D03*
D42*
X8937Y8539D02*
D03*
X10737Y8539D02*
D03*
D45*
X9946Y7278D02*
D03*
X10046D02*
D03*
X10146D02*
D03*
X10246D02*
D03*
D53*
X10561Y8204D02*
D03*
Y7291D02*
D03*
X9624Y8204D02*
D03*
Y7291D02*
D03*
D55*
X10978Y8538D02*
D03*
Y7633D02*
D03*
X8695Y8538D02*
D03*
Y7633D02*
D03*
D61*
X10776Y8312D02*
D03*
X10796D02*
D03*
X10815D02*
D03*
X10835D02*
D03*
Y8198D02*
D03*
X10815D02*
D03*
X10796D02*
D03*
X10776Y8198D02*
D03*
D62*
X10173Y7680D02*
D03*
X10147D02*
D03*
X10121D02*
D03*
X10096D02*
D03*
Y7835D02*
D03*
X10121D02*
D03*
X10147D02*
D03*
X10173D02*
D03*
D63*
X10342Y8084D02*
D03*
Y8164D02*
D03*
X10392D02*
D03*
Y8084D02*
D03*
X10367D02*
D03*
D68*
X9286Y7908D02*
D03*
X9236D02*
D03*
X9286Y7848D02*
D03*
X9236D02*
D03*
D74*
X8731Y8178D02*
D03*
Y8233D02*
D03*
X8756Y8328D02*
D03*
X8811D02*
D03*
X8916Y8203D02*
D03*
Y8258D02*
D03*
X9226Y8198D02*
D03*
Y8253D02*
D03*
X9321Y8198D02*
D03*
Y8253D02*
D03*
X9787Y7499D02*
D03*
Y7554D02*
D03*
X11152Y7594D02*
D03*
Y7649D02*
D03*
X11167Y7274D02*
D03*
Y7329D02*
D03*
X10932Y7184D02*
D03*
X10877D02*
D03*
X10932Y7114D02*
D03*
X10877D02*
D03*
X11127Y7169D02*
D03*
Y7114D02*
D03*
X11057Y7169D02*
D03*
Y7114D02*
D03*
X10732Y7379D02*
D03*
Y7434D02*
D03*
X10102Y7139D02*
D03*
Y7194D02*
D03*
X10032Y7139D02*
D03*
Y7194D02*
D03*
X9822Y7139D02*
D03*
Y7194D02*
D03*
X9892Y7139D02*
D03*
Y7194D02*
D03*
X9962Y7139D02*
D03*
Y7194D02*
D03*
X9972Y7389D02*
D03*
X10027D02*
D03*
X10087Y7559D02*
D03*
Y7614D02*
D03*
X10157Y7559D02*
D03*
Y7614D02*
D03*
X10227Y7544D02*
D03*
X10282D02*
D03*
X9912Y7859D02*
D03*
Y7804D02*
D03*
X9997D02*
D03*
Y7859D02*
D03*
Y7929D02*
D03*
X10052D02*
D03*
X10232Y8779D02*
D03*
X10287D02*
D03*
X10387D02*
D03*
X10442D02*
D03*
X11087Y8749D02*
D03*
Y8694D02*
D03*
X10662Y8314D02*
D03*
X10717D02*
D03*
X10716Y8143D02*
D03*
Y8198D02*
D03*
X10907Y8004D02*
D03*
Y8059D02*
D03*
X10836Y8058D02*
D03*
Y8003D02*
D03*
X10766Y8058D02*
D03*
Y8003D02*
D03*
X10516Y8048D02*
D03*
Y7993D02*
D03*
X10272Y8059D02*
D03*
Y8114D02*
D03*
X10347Y8229D02*
D03*
Y8284D02*
D03*
X10186Y8158D02*
D03*
Y8103D02*
D03*
X10151Y8253D02*
D03*
X10096D02*
D03*
X10151Y8323D02*
D03*
X10096D02*
D03*
X10021D02*
D03*
X9966D02*
D03*
Y8253D02*
D03*
X10021D02*
D03*
X9881D02*
D03*
Y8308D02*
D03*
X9782Y7814D02*
D03*
Y7869D02*
D03*
X9877Y7714D02*
D03*
X9932D02*
D03*
X9687Y7614D02*
D03*
Y7559D02*
D03*
D77*
X10056Y7719D02*
D03*
Y7745D02*
D03*
Y7770D02*
D03*
Y7796D02*
D03*
X10212D02*
D03*
Y7770D02*
D03*
Y7745D02*
D03*
X10212Y7719D02*
D03*
D81*
X9862Y7644D02*
D03*
X9942D02*
D03*
Y7594D02*
D03*
X9862D02*
D03*
Y7619D02*
D03*
D82*
X10629Y8081D02*
D03*
X10667Y7994D02*
D03*
X10592D02*
D03*
D84*
X10787Y8662D02*
D03*
X10687D02*
D03*
X10587D02*
D03*
X10487D02*
D03*
X10387D02*
D03*
X10287D02*
D03*
X10187D02*
D03*
X10087D02*
D03*
X9987D02*
D03*
X9887D02*
D03*
X9787D02*
D03*
X9686D02*
D03*
X9587D02*
D03*
X9487D02*
D03*
X9386D02*
D03*
X9287D02*
D03*
X9186D02*
D03*
X9087D02*
D03*
X8987D02*
D03*
X8886D02*
D03*
X10787Y8417D02*
D03*
X10687D02*
D03*
X10587D02*
D03*
X10487D02*
D03*
X10387D02*
D03*
X10287D02*
D03*
X10187D02*
D03*
X10087D02*
D03*
X9987D02*
D03*
X9887D02*
D03*
X9787D02*
D03*
X9687D02*
D03*
X9587D02*
D03*
X9487D02*
D03*
X9387D02*
D03*
X9287D02*
D03*
X9187D02*
D03*
X9087D02*
D03*
X8987D02*
D03*
X8887D02*
D03*
D91*
X10590Y7489D02*
D03*
Y7414D02*
D03*
X10487Y7452D02*
D03*
Y7414D02*
D03*
Y7489D02*
D03*
D92*
X10877Y7474D02*
D03*
Y7399D02*
D03*
Y7437D02*
D03*
X10977Y7474D02*
D03*
Y7399D02*
D03*
X9967Y7459D02*
D03*
Y7534D02*
D03*
X9867Y7497D02*
D03*
Y7459D02*
D03*
Y7534D02*
D03*
D93*
X11157Y8499D02*
D03*
Y8589D02*
D03*
X10267Y8199D02*
D03*
Y8289D02*
D03*
X9782Y7639D02*
D03*
Y7729D02*
D03*
D98*
X11095Y7456D02*
D03*
X11182Y7494D02*
D03*
Y7419D02*
D03*
X10804Y7137D02*
D03*
X10717Y7099D02*
D03*
Y7174D02*
D03*
X10907Y8754D02*
D03*
Y8679D02*
D03*
X10994Y8717D02*
D03*
D102*
X10854Y7249D02*
D03*
Y7268D02*
D03*
Y7288D02*
D03*
Y7308D02*
D03*
Y7327D02*
D03*
X11027D02*
D03*
X11027Y7308D02*
D03*
Y7288D02*
D03*
X11027Y7268D02*
D03*
X11027Y7249D02*
D03*
D103*
X10806Y8255D02*
D03*
D105*
X10312Y7459D02*
D03*
X10177D02*
D03*
X10302Y7709D02*
D03*
Y7844D02*
D03*
X10662Y8769D02*
D03*
X10527D02*
D03*
D106*
X10098Y8022D02*
D03*
Y8072D02*
D03*
Y8122D02*
D03*
Y8172D02*
D03*
X9886Y8022D02*
D03*
Y8072D02*
D03*
Y8122D02*
D03*
Y8172D02*
D03*
D108*
X11117Y8016D02*
D03*
X11070D02*
D03*
X11023D02*
D03*
X11117Y7918D02*
D03*
X11066D02*
D03*
X11023D02*
D03*
X11117Y7819D02*
D03*
X11071D02*
D03*
X11023D02*
D03*
D114*
X10134Y7758D02*
D03*
D116*
X10633Y7762D02*
D03*
X10419D02*
D03*
D119*
X11166Y8135D02*
D03*
Y8371D02*
D03*
D120*
X10947Y8215D02*
D03*
Y8293D02*
D03*
M02*
