*%FSLAX23Y23*%
*%MOIN*%
G01*
%ADD11C,0.000*%
%ADD12C,0.001*%
%ADD13C,0.002*%
%ADD14C,0.006*%
%ADD15C,0.007*%
%ADD16C,0.007*%
%ADD17C,0.008*%
%ADD18C,0.010*%
%ADD19C,0.012*%
%ADD20C,0.015*%
%ADD21C,0.018*%
%ADD22C,0.022*%
%ADD23C,0.024*%
%ADD24C,0.025*%
%ADD25C,0.029*%
%ADD26C,0.031*%
%ADD27C,0.031*%
%ADD28C,0.035*%
%ADD29C,0.035*%
%ADD30C,0.039*%
%ADD31C,0.039*%
%ADD32C,0.046*%
%ADD33C,0.047*%
%ADD34C,0.050*%
%ADD35C,0.051*%
%ADD36C,0.051*%
%ADD37C,0.054*%
%ADD38C,0.055*%
%ADD39C,0.058*%
%ADD40C,0.059*%
%ADD41C,0.059*%
%ADD42C,0.062*%
%ADD43C,0.067*%
%ADD44C,0.070*%
%ADD45C,0.074*%
%ADD46C,0.115*%
%ADD47C,0.135*%
%ADD48C,0.138*%
%ADD49C,0.138*%
%ADD50C,0.158*%
%ADD51C,0.158*%
%ADD52C,0.190*%
%ADD53C,0.194*%
%ADD54C,0.236*%
%ADD55C,0.240*%
%ADD56R,0.011X0.030*%
%ADD57R,0.012X0.030*%
%ADD58R,0.014X0.033*%
%ADD59R,0.014X0.037*%
%ADD60R,0.015X0.034*%
%ADD61R,0.016X0.034*%
%ADD62R,0.018X0.037*%
%ADD63R,0.018X0.041*%
%ADD64R,0.020X0.025*%
%ADD65R,0.021X0.021*%
%ADD66R,0.024X0.029*%
%ADD67R,0.025X0.020*%
%ADD68R,0.029X0.024*%
%ADD69R,0.030X0.011*%
%ADD70R,0.030X0.030*%
%ADD71R,0.031X0.031*%
%ADD72R,0.033X0.014*%
%ADD73R,0.034X0.015*%
%ADD74R,0.034X0.034*%
%ADD75R,0.035X0.035*%
%ADD76R,0.037X0.014*%
%ADD77R,0.037X0.018*%
%ADD78R,0.039X0.055*%
%ADD79R,0.039X0.014*%
%ADD80R,0.040X0.083*%
%ADD81R,0.041X0.018*%
%ADD82R,0.043X0.059*%
%ADD83R,0.043X0.018*%
%ADD84R,0.044X0.087*%
%ADD85R,0.047X0.055*%
%ADD86R,0.048X0.024*%
%ADD87R,0.050X0.023*%
%ADD88R,0.050X0.060*%
%ADD89R,0.051X0.071*%
%ADD90R,0.051X0.059*%
%ADD91R,0.052X0.028*%
%ADD92R,0.054X0.027*%
%ADD93R,0.054X0.064*%
%ADD94R,0.055X0.039*%
%ADD95R,0.055X0.075*%
%ADD96R,0.057X0.012*%
%ADD97R,0.057X0.067*%
%ADD98R,0.059X0.043*%
%ADD99R,0.060X0.060*%
%ADD100R,0.061X0.024*%
%ADD101R,0.061X0.051*%
%ADD102R,0.061X0.016*%
%ADD103R,0.061X0.071*%
%ADD104R,0.063X0.039*%
%ADD105R,0.064X0.064*%
%ADD106R,0.065X0.028*%
%ADD107R,0.065X0.055*%
%ADD108R,0.067X0.043*%
%ADD109R,0.085X0.030*%
%ADD110R,0.089X0.034*%
%ADD111R,0.094X0.030*%
%ADD112R,0.098X0.034*%
%ADD113R,0.104X0.104*%
%ADD114R,0.108X0.108*%
%ADD115R,0.116X0.138*%
%ADD116R,0.120X0.142*%
%ADD117R,0.134X0.059*%
%ADD118R,0.138X0.039*%
%ADD119R,0.138X0.063*%
%ADD120R,0.142X0.043*%
%ADD121R,0.169X0.169*%
%ADD122R,0.173X0.173*%
%ADD123R,0.250X0.250*%
D11*
X10546Y8204D02*
X10576D01*
X10561Y8189D02*
Y8219D01*
X10963Y8538D02*
X10993D01*
X10978Y8523D02*
Y8553D01*
X10576Y7291D02*
X10546D01*
X10561Y7276D02*
Y7306D01*
X10963Y7633D02*
X10993D01*
X10978Y7618D02*
Y7648D01*
X9639Y8204D02*
X9609D01*
X9624Y8189D02*
Y8219D01*
X9609Y7291D02*
X9639D01*
X9624Y7276D02*
Y7306D01*
X8710Y8538D02*
X8680D01*
X8695Y8523D02*
Y8553D01*
X8680Y7633D02*
X8710D01*
X8695Y7618D02*
Y7648D01*
X11147Y8434D02*
X11167D01*
X11157Y8424D02*
Y8444D01*
X11197Y8469D02*
X11217D01*
X11207Y8459D02*
Y8479D01*
X11197Y8434D02*
X11217D01*
X11207Y8424D02*
Y8444D01*
X11182Y7914D02*
X11162D01*
X11172Y7904D02*
Y7924D01*
X11197Y8084D02*
X11217D01*
X11207Y8074D02*
Y8094D01*
X11052Y8669D02*
X11032D01*
X11042Y8659D02*
Y8679D01*
X10987Y8759D02*
X10967D01*
X10977Y8749D02*
Y8769D01*
X11032Y8754D02*
X11052D01*
X11042Y8744D02*
Y8764D01*
X10957Y8339D02*
X10937D01*
X10947Y8329D02*
Y8349D01*
X11022Y8134D02*
X11042D01*
X11032Y8124D02*
Y8144D01*
X11092Y7729D02*
X11112D01*
X11102Y7719D02*
Y7739D01*
X11107Y7404D02*
X11087D01*
X11097Y7394D02*
Y7414D01*
X11087Y7334D02*
X11107D01*
X11097Y7324D02*
Y7344D01*
X11016Y7118D02*
X10996D01*
X11006Y7108D02*
Y7128D01*
X10987Y7229D02*
X10967D01*
X10977Y7219D02*
Y7239D01*
X11012Y8074D02*
X11032D01*
X11022Y8064D02*
Y8084D01*
X10806Y8103D02*
X10786D01*
X10796Y8093D02*
Y8113D01*
X10811Y8274D02*
X10831D01*
X10821Y8264D02*
Y8284D01*
X10811Y8234D02*
X10831D01*
X10821Y8224D02*
Y8244D01*
X10816Y8254D02*
X10796D01*
X10806Y8244D02*
Y8264D01*
X10802Y8274D02*
X10782D01*
X10792Y8264D02*
Y8284D01*
X10782Y8234D02*
X10802D01*
X10792Y8224D02*
Y8244D01*
X10842Y8679D02*
X10862D01*
X10852Y8669D02*
Y8689D01*
X10842Y8744D02*
X10862D01*
X10852Y8734D02*
Y8754D01*
X10762Y8759D02*
X10742D01*
X10752Y8749D02*
Y8769D01*
X10847Y8259D02*
X10867D01*
X10857Y8249D02*
Y8269D01*
X10927Y8134D02*
X10947D01*
X10937Y8124D02*
Y8144D01*
X10917Y8404D02*
X10897D01*
X10907Y8394D02*
Y8414D01*
X10906Y7053D02*
X10886D01*
X10896Y7043D02*
Y7063D01*
X10922Y7329D02*
X10942D01*
X10932Y7319D02*
Y7339D01*
X10806Y7053D02*
X10786D01*
X10796Y7043D02*
Y7063D01*
X10822Y7769D02*
X10842D01*
X10832Y7759D02*
Y7779D01*
X10802Y7454D02*
X10782D01*
X10792Y7444D02*
Y7464D01*
X10787Y7539D02*
X10767D01*
X10777Y7529D02*
Y7549D01*
X10782Y7374D02*
X10802D01*
X10792Y7364D02*
Y7384D01*
X10932Y7829D02*
X10952D01*
X10942Y7819D02*
Y7839D01*
X10932Y7804D02*
X10912D01*
X10922Y7794D02*
Y7814D01*
X10756Y8238D02*
X10736D01*
X10746Y8228D02*
Y8248D01*
X10736Y8278D02*
X10756D01*
X10746Y8268D02*
Y8288D01*
X10597Y8759D02*
X10577D01*
X10587Y8749D02*
Y8769D01*
X10722Y8729D02*
X10742D01*
X10732Y8719D02*
Y8739D01*
X10597Y8539D02*
X10577D01*
X10587Y8529D02*
Y8549D01*
X10602Y8314D02*
X10622D01*
X10612Y8304D02*
Y8324D01*
X10662Y8244D02*
X10682D01*
X10672Y8234D02*
Y8254D01*
X10652Y8539D02*
X10632D01*
X10642Y8529D02*
Y8549D01*
X10612Y7599D02*
X10592D01*
X10602Y7589D02*
Y7609D01*
X10582Y7149D02*
X10562D01*
X10572Y7139D02*
Y7159D01*
X10716Y8073D02*
X10736D01*
X10726Y8063D02*
Y8083D01*
X10716Y7598D02*
X10696D01*
X10706Y7588D02*
Y7608D01*
Y7053D02*
X10686D01*
X10696Y7043D02*
Y7063D01*
X10606Y7053D02*
X10586D01*
X10596Y7043D02*
Y7063D01*
X10587Y7539D02*
X10567D01*
X10577Y7529D02*
Y7549D01*
X10447Y8384D02*
X10427D01*
X10437Y8374D02*
Y8394D01*
X10427Y8539D02*
X10447D01*
X10437Y8529D02*
Y8549D01*
X10477Y8539D02*
X10497D01*
X10487Y8529D02*
Y8549D01*
X10457Y8054D02*
X10437D01*
X10447Y8044D02*
Y8064D01*
X10497Y7124D02*
X10517D01*
X10507Y7114D02*
Y7134D01*
X10506Y7053D02*
X10486D01*
X10496Y7043D02*
Y7063D01*
X10532Y7414D02*
X10552D01*
X10542Y7404D02*
Y7424D01*
X10532Y7449D02*
X10552D01*
X10542Y7439D02*
Y7459D01*
X10442Y7414D02*
X10422D01*
X10432Y7404D02*
Y7424D01*
X10422Y7449D02*
X10442D01*
X10432Y7439D02*
Y7459D01*
X10402Y8209D02*
X10382D01*
X10392Y8199D02*
Y8219D01*
X10382Y8344D02*
X10402D01*
X10392Y8334D02*
Y8354D01*
X10371Y8013D02*
X10351D01*
X10361Y8003D02*
Y8023D01*
X10386Y7053D02*
X10406D01*
X10396Y7043D02*
Y7063D01*
X10387Y7229D02*
X10407D01*
X10397Y7219D02*
Y7239D01*
X10392Y7414D02*
X10412D01*
X10402Y7404D02*
Y7424D01*
X10392Y7449D02*
X10412D01*
X10402Y7439D02*
Y7459D01*
X10407Y7994D02*
X10387D01*
X10397Y7984D02*
Y8004D01*
X10237Y8129D02*
X10217D01*
X10227Y8119D02*
Y8139D01*
X10197Y8759D02*
X10177D01*
X10187Y8749D02*
Y8769D01*
X10327Y8759D02*
X10347D01*
X10337Y8749D02*
Y8769D01*
X10197Y8539D02*
X10177D01*
X10187Y8529D02*
Y8549D01*
X10277Y8539D02*
X10297D01*
X10287Y8529D02*
Y8549D01*
X10247Y8539D02*
X10227D01*
X10237Y8529D02*
Y8549D01*
X10307Y7229D02*
X10327D01*
X10317Y7219D02*
Y7239D01*
X10237Y7884D02*
X10217D01*
X10227Y7874D02*
Y7894D01*
X10197Y7884D02*
X10177D01*
X10187Y7874D02*
Y7894D01*
X10182Y7734D02*
X10162D01*
X10172Y7724D02*
Y7744D01*
X10162Y7784D02*
X10182D01*
X10172Y7774D02*
Y7794D01*
X10186Y7053D02*
X10206D01*
X10196Y7043D02*
Y7063D01*
X10286Y7053D02*
X10306D01*
X10296Y7043D02*
Y7063D01*
X10237Y7999D02*
X10217D01*
X10227Y7989D02*
Y8009D01*
X10076Y8218D02*
X10056D01*
X10066Y8208D02*
Y8228D01*
X10072Y8739D02*
X10092D01*
X10082Y8729D02*
Y8749D01*
X10127Y8729D02*
X10147D01*
X10137Y8719D02*
Y8739D01*
X10127Y8539D02*
X10147D01*
X10137Y8529D02*
Y8549D01*
X10007Y7424D02*
X9987D01*
X9997Y7414D02*
Y7434D01*
X9987Y7569D02*
X9967D01*
X9977Y7559D02*
Y7579D01*
X10127Y7734D02*
X10147D01*
X10137Y7724D02*
Y7744D01*
X10127Y7784D02*
X10147D01*
X10137Y7774D02*
Y7794D01*
X10132Y7884D02*
X10152D01*
X10142Y7874D02*
Y7894D01*
X10107Y7734D02*
X10087D01*
X10097Y7724D02*
Y7744D01*
X10087Y7784D02*
X10107D01*
X10097Y7774D02*
Y7794D01*
X10092Y7459D02*
X10112D01*
X10102Y7449D02*
Y7469D01*
X10006Y7053D02*
X9986D01*
X9996Y7043D02*
Y7063D01*
X10086Y7053D02*
X10106D01*
X10096Y7043D02*
Y7063D01*
X10042Y7094D02*
X10022D01*
X10032Y7084D02*
Y7104D01*
X9847Y8384D02*
X9827D01*
X9837Y8374D02*
Y8394D01*
X9877Y8759D02*
X9897D01*
X9887Y8749D02*
Y8769D01*
X9912Y8344D02*
X9932D01*
X9922Y8334D02*
Y8354D01*
X9927Y8674D02*
X9947D01*
X9937Y8664D02*
Y8684D01*
X9797Y8539D02*
X9777D01*
X9787Y8529D02*
Y8549D01*
X9877Y8539D02*
X9897D01*
X9887Y8529D02*
Y8549D01*
X9847Y8539D02*
X9827D01*
X9837Y8529D02*
Y8549D01*
X9832Y7579D02*
X9812D01*
X9822Y7569D02*
Y7589D01*
X9937Y7494D02*
X9957D01*
X9947Y7484D02*
Y7504D01*
X9887Y7984D02*
X9867D01*
X9877Y7974D02*
Y7994D01*
X9936Y7908D02*
X9956D01*
X9946Y7898D02*
Y7918D01*
X9811Y7978D02*
X9791D01*
X9801Y7968D02*
Y7988D01*
X9816Y7953D02*
X9836D01*
X9826Y7943D02*
Y7963D01*
X9796Y7908D02*
X9776D01*
X9786Y7898D02*
Y7918D01*
Y8053D02*
X9766D01*
X9776Y8043D02*
Y8063D01*
X9836Y7683D02*
X9856D01*
X9846Y7673D02*
Y7693D01*
X9836Y7833D02*
X9816D01*
X9826Y7823D02*
Y7843D01*
X9806Y7053D02*
X9786D01*
X9796Y7043D02*
Y7063D01*
X9886Y7053D02*
X9906D01*
X9896Y7043D02*
Y7063D01*
X9902Y7094D02*
X9882D01*
X9892Y7084D02*
Y7104D01*
X9787Y7194D02*
X9767D01*
X9777Y7184D02*
Y7204D01*
X9867Y7354D02*
X9887D01*
X9877Y7344D02*
Y7364D01*
X9956Y8023D02*
X9976D01*
X9966Y8013D02*
Y8033D01*
X9747Y8385D02*
X9727D01*
X9737Y8375D02*
Y8395D01*
X9647Y8649D02*
X9627D01*
X9637Y8639D02*
Y8659D01*
X9677Y8539D02*
X9697D01*
X9687Y8529D02*
Y8549D01*
X9727Y8539D02*
X9747D01*
X9737Y8529D02*
Y8549D01*
X9727Y8729D02*
X9747D01*
X9737Y8719D02*
Y8739D01*
Y8344D02*
X9717D01*
X9727Y8334D02*
Y8354D01*
X9732Y7959D02*
X9752D01*
X9742Y7949D02*
Y7969D01*
X9736Y7588D02*
X9756D01*
X9746Y7578D02*
Y7598D01*
X9717Y7959D02*
X9697D01*
X9707Y7949D02*
Y7969D01*
X9656Y7413D02*
X9636D01*
X9646Y7403D02*
Y7423D01*
X9641Y7838D02*
X9621D01*
X9631Y7828D02*
Y7848D01*
X9621Y7718D02*
X9641D01*
X9631Y7708D02*
Y7728D01*
X9606Y7648D02*
X9586D01*
X9596Y7638D02*
Y7658D01*
X9586Y7053D02*
X9606D01*
X9596Y7043D02*
Y7063D01*
X9686Y7053D02*
X9706D01*
X9696Y7043D02*
Y7063D01*
X9421Y8173D02*
X9401D01*
X9411Y8163D02*
Y8183D01*
X9397Y8759D02*
X9377D01*
X9387Y8749D02*
Y8769D01*
X9487Y8344D02*
X9507D01*
X9497Y8334D02*
Y8354D01*
X9447Y8674D02*
X9427D01*
X9437Y8664D02*
Y8684D01*
X9427Y8379D02*
X9447D01*
X9437Y8369D02*
Y8389D01*
X9462Y8539D02*
X9482D01*
X9472Y8529D02*
Y8549D01*
X9497Y8539D02*
X9517D01*
X9507Y8529D02*
Y8549D01*
X9527Y8419D02*
X9547D01*
X9537Y8409D02*
Y8429D01*
X9527Y8759D02*
X9547D01*
X9537Y8749D02*
Y8769D01*
X9532Y7689D02*
X9512D01*
X9522Y7679D02*
Y7699D01*
X9556Y8003D02*
X9576D01*
X9566Y7993D02*
Y8013D01*
X9556Y7943D02*
X9576D01*
X9566Y7933D02*
Y7953D01*
X9556Y7888D02*
X9576D01*
X9566Y7878D02*
Y7898D01*
X9541Y7368D02*
X9521D01*
X9531Y7358D02*
Y7378D01*
X9521Y7168D02*
X9541D01*
X9531Y7158D02*
Y7178D01*
X9521Y7068D02*
X9541D01*
X9531Y7058D02*
Y7078D01*
X9476Y8003D02*
X9456D01*
X9466Y7993D02*
Y8013D01*
X9456Y7943D02*
X9476D01*
X9466Y7933D02*
Y7953D01*
X9456Y7888D02*
X9476D01*
X9466Y7878D02*
Y7898D01*
X9406Y7758D02*
X9386D01*
X9396Y7748D02*
Y7768D01*
X9506Y8003D02*
X9526D01*
X9516Y7993D02*
Y8013D01*
X9506Y7888D02*
X9526D01*
X9516Y7878D02*
Y7898D01*
X9506Y7943D02*
X9526D01*
X9516Y7933D02*
Y7953D01*
X9442Y7494D02*
X9422D01*
X9432Y7484D02*
Y7504D01*
X9521Y7493D02*
X9541D01*
X9531Y7483D02*
Y7503D01*
X9196Y8113D02*
X9176D01*
X9186Y8103D02*
Y8123D01*
X9266Y8253D02*
X9286D01*
X9276Y8243D02*
Y8263D01*
X9197Y8759D02*
X9177D01*
X9187Y8749D02*
Y8769D01*
X9267Y8344D02*
X9287D01*
X9277Y8334D02*
Y8354D01*
X9327Y8699D02*
X9347D01*
X9337Y8689D02*
Y8709D01*
X9327Y8379D02*
X9347D01*
X9337Y8369D02*
Y8389D01*
X9247Y8649D02*
X9227D01*
X9237Y8639D02*
Y8659D01*
X9207Y8284D02*
X9187D01*
X9197Y8274D02*
Y8294D01*
X9217Y8309D02*
X9237D01*
X9227Y8299D02*
Y8319D01*
X9361Y8063D02*
X9381D01*
X9371Y8053D02*
Y8073D01*
X9346Y8088D02*
X9326D01*
X9336Y8078D02*
Y8098D01*
X9331Y7863D02*
X9351D01*
X9341Y7853D02*
Y7873D01*
X9356Y7883D02*
X9376D01*
X9366Y7873D02*
Y7893D01*
X9336Y7733D02*
X9316D01*
X9326Y7723D02*
Y7743D01*
X9196Y7898D02*
X9176D01*
X9186Y7888D02*
Y7908D01*
X9226Y7773D02*
X9246D01*
X9236Y7763D02*
Y7783D01*
X9226Y7813D02*
X9246D01*
X9236Y7803D02*
Y7823D01*
X9206Y7493D02*
X9186D01*
X9196Y7483D02*
Y7503D01*
X9292Y7494D02*
X9312D01*
X9302Y7484D02*
Y7504D01*
X9161Y8148D02*
X9141D01*
X9151Y8138D02*
Y8158D01*
X9002Y8304D02*
X8982D01*
X8992Y8294D02*
Y8314D01*
X9027Y8624D02*
X9047D01*
X9037Y8614D02*
Y8634D01*
X9127Y8584D02*
X9147D01*
X9137Y8574D02*
Y8594D01*
X9097Y8544D02*
X9077D01*
X9087Y8534D02*
Y8554D01*
X9127Y8729D02*
X9147D01*
X9137Y8719D02*
Y8739D01*
X9122Y8284D02*
X9102D01*
X9112Y8274D02*
Y8294D01*
X9087Y8309D02*
X9067D01*
X9077Y8299D02*
Y8319D01*
X9012Y8544D02*
X8992D01*
X9002Y8534D02*
Y8554D01*
X9116Y7878D02*
X9136D01*
X9126Y7868D02*
Y7888D01*
X9116Y7978D02*
X9136D01*
X9126Y7968D02*
Y7988D01*
X9141Y8008D02*
X9161D01*
X9151Y7998D02*
Y8018D01*
X9002Y8064D02*
X8982D01*
X8992Y8054D02*
Y8074D01*
X9041Y7953D02*
X9061D01*
X9051Y7943D02*
Y7963D01*
X9041Y7903D02*
X9061D01*
X9051Y7893D02*
Y7913D01*
X9031Y7978D02*
X9011D01*
X9021Y7968D02*
Y7988D01*
X9011Y7928D02*
X9031D01*
X9021Y7918D02*
Y7938D01*
X9041Y7848D02*
X9061D01*
X9051Y7838D02*
Y7858D01*
X9091Y7823D02*
X9111D01*
X9101Y7813D02*
Y7833D01*
X9006Y7493D02*
X8986D01*
X8996Y7483D02*
Y7503D01*
X9086Y7493D02*
X9106D01*
X9096Y7483D02*
Y7503D01*
X8927Y8344D02*
X8907D01*
X8917Y8334D02*
Y8354D01*
X8906Y8008D02*
X8886D01*
X8896Y7998D02*
Y8018D01*
X8886Y7493D02*
X8906D01*
X8896Y7483D02*
Y7503D01*
X8831Y8173D02*
X8811D01*
X8821Y8163D02*
Y8183D01*
Y8268D02*
X8801D01*
X8811Y8258D02*
Y8278D01*
X8812Y8389D02*
X8832D01*
X8822Y8379D02*
Y8399D01*
X8806Y7493D02*
X8786D01*
X8796Y7483D02*
Y7503D01*
X8756Y8293D02*
X8736D01*
X8746Y8283D02*
Y8303D01*
X8711Y8328D02*
X8691D01*
X8701Y8318D02*
Y8338D01*
X8641Y8293D02*
X8621D01*
X8631Y8283D02*
Y8303D01*
X8686Y7493D02*
X8706D01*
X8696Y7483D02*
Y7503D01*
X8601Y8168D02*
X8581D01*
X8591Y8158D02*
Y8178D01*
X8581Y8268D02*
X8601D01*
X8591Y8258D02*
Y8278D01*
X8581Y8368D02*
X8601D01*
X8591Y8358D02*
Y8378D01*
X8581Y7768D02*
X8601D01*
X8591Y7758D02*
Y7778D01*
X8581Y7868D02*
X8601D01*
X8591Y7858D02*
Y7878D01*
X8581Y7968D02*
X8601D01*
X8591Y7958D02*
Y7978D01*
X8581Y8068D02*
X8601D01*
X8591Y8058D02*
Y8078D01*
X8582Y7494D02*
X8602D01*
X8592Y7484D02*
Y7504D01*
X8804Y8221D02*
X8834D01*
X8819Y8206D02*
Y8236D01*
X8804Y8071D02*
X8834D01*
X8819Y8056D02*
Y8086D01*
X11056Y8052D02*
X11086D01*
X11071Y8037D02*
Y8067D01*
X11086Y7784D02*
X11056D01*
X11071Y7769D02*
Y7799D01*
X9961Y7278D02*
X9931D01*
X9946Y7263D02*
Y7293D01*
X10031Y7278D02*
X10061D01*
X10046Y7263D02*
Y7293D01*
X10131Y7278D02*
X10161D01*
X10146Y7263D02*
Y7293D01*
X10231Y7278D02*
X10261D01*
X10246Y7263D02*
Y7293D01*
X10051Y8748D02*
X10021D01*
X10036Y8733D02*
Y8763D01*
X9972Y8748D02*
X9942D01*
X9957Y8733D02*
Y8763D01*
X8952Y8539D02*
X8922D01*
X8937Y8524D02*
Y8554D01*
X10722Y8539D02*
X10752D01*
X10737Y8524D02*
Y8554D01*
D02*
M02*
