*%FSLAX23Y23*%
*%MOIN*%
G01*
%ADD11C,0.000*%
%ADD12C,0.001*%
%ADD13C,0.002*%
%ADD14C,0.006*%
%ADD15C,0.007*%
%ADD16C,0.007*%
%ADD17C,0.008*%
%ADD18C,0.010*%
%ADD19C,0.012*%
%ADD20C,0.015*%
%ADD21C,0.015*%
%ADD22C,0.018*%
%ADD23C,0.022*%
%ADD24C,0.024*%
%ADD25C,0.025*%
%ADD26C,0.029*%
%ADD27C,0.031*%
%ADD28C,0.031*%
%ADD29C,0.035*%
%ADD30C,0.035*%
%ADD31C,0.039*%
%ADD32C,0.039*%
%ADD33C,0.046*%
%ADD34C,0.050*%
%ADD35C,0.051*%
%ADD36C,0.051*%
%ADD37C,0.054*%
%ADD38C,0.055*%
%ADD39C,0.059*%
%ADD40C,0.059*%
%ADD41C,0.070*%
%ADD42C,0.074*%
%ADD43C,0.115*%
%ADD44C,0.135*%
%ADD45C,0.138*%
%ADD46C,0.138*%
%ADD47C,0.158*%
%ADD48C,0.158*%
%ADD49C,0.190*%
%ADD50C,0.194*%
%ADD51C,0.236*%
%ADD52C,0.240*%
%ADD53R,0.011X0.030*%
%ADD54R,0.012X0.030*%
%ADD55R,0.014X0.033*%
%ADD56R,0.014X0.037*%
%ADD57R,0.015X0.034*%
%ADD58R,0.016X0.034*%
%ADD59R,0.018X0.037*%
%ADD60R,0.018X0.041*%
%ADD61R,0.020X0.025*%
%ADD62R,0.021X0.021*%
%ADD63R,0.024X0.029*%
%ADD64R,0.025X0.020*%
%ADD65R,0.029X0.024*%
%ADD66R,0.030X0.011*%
%ADD67R,0.030X0.030*%
%ADD68R,0.031X0.031*%
%ADD69R,0.033X0.014*%
%ADD70R,0.034X0.015*%
%ADD71R,0.034X0.034*%
%ADD72R,0.035X0.035*%
%ADD73R,0.037X0.014*%
%ADD74R,0.037X0.018*%
%ADD75R,0.039X0.055*%
%ADD76R,0.039X0.014*%
%ADD77R,0.041X0.018*%
%ADD78R,0.043X0.059*%
%ADD79R,0.043X0.018*%
%ADD80R,0.047X0.055*%
%ADD81R,0.048X0.024*%
%ADD82R,0.050X0.023*%
%ADD83R,0.050X0.060*%
%ADD84R,0.050X0.135*%
%ADD85R,0.051X0.071*%
%ADD86R,0.051X0.059*%
%ADD87R,0.052X0.028*%
%ADD88R,0.054X0.027*%
%ADD89R,0.054X0.064*%
%ADD90R,0.054X0.139*%
%ADD91R,0.055X0.039*%
%ADD92R,0.055X0.075*%
%ADD93R,0.057X0.012*%
%ADD94R,0.057X0.067*%
%ADD95R,0.059X0.043*%
%ADD96R,0.060X0.060*%
%ADD97R,0.061X0.024*%
%ADD98R,0.061X0.051*%
%ADD99R,0.061X0.016*%
%ADD100R,0.061X0.071*%
%ADD101R,0.063X0.039*%
%ADD102R,0.064X0.064*%
%ADD103R,0.065X0.028*%
%ADD104R,0.065X0.055*%
%ADD105R,0.067X0.043*%
%ADD106R,0.085X0.030*%
%ADD107R,0.089X0.034*%
%ADD108R,0.094X0.030*%
%ADD109R,0.098X0.034*%
%ADD110R,0.104X0.104*%
%ADD111R,0.108X0.108*%
%ADD112R,0.116X0.138*%
%ADD113R,0.120X0.142*%
%ADD114R,0.134X0.059*%
%ADD115R,0.138X0.039*%
%ADD116R,0.138X0.063*%
%ADD117R,0.142X0.043*%
%ADD118R,0.169X0.169*%
%ADD119R,0.173X0.173*%
%ADD120R,0.250X0.250*%
D25*
X10397Y7994D02*
D03*
D33*
X11066Y8389D02*
D03*
X11066Y8121D02*
D03*
D34*
X8819Y8221D02*
D03*
X8819Y8071D02*
D03*
X10036Y8748D02*
D03*
X9957D02*
D03*
D41*
X9946Y7278D02*
D03*
X10046D02*
D03*
X10146D02*
D03*
X10246D02*
D03*
D49*
X10561Y8204D02*
D03*
Y7291D02*
D03*
X9624Y8204D02*
D03*
Y7291D02*
D03*
D51*
X10978Y8538D02*
D03*
Y7633D02*
D03*
X8695Y8538D02*
D03*
Y7633D02*
D03*
D54*
X10776Y8312D02*
D03*
X10796D02*
D03*
X10815D02*
D03*
X10835D02*
D03*
Y8198D02*
D03*
X10815D02*
D03*
X10796D02*
D03*
X10776Y8198D02*
D03*
D55*
X10173Y7680D02*
D03*
X10147D02*
D03*
X10121D02*
D03*
X10096D02*
D03*
Y7835D02*
D03*
X10121D02*
D03*
X10147D02*
D03*
X10173D02*
D03*
D56*
X10342Y8084D02*
D03*
Y8164D02*
D03*
X10392D02*
D03*
Y8084D02*
D03*
X10367D02*
D03*
D64*
X9286Y7908D02*
D03*
X9236D02*
D03*
X9286Y7848D02*
D03*
X9236D02*
D03*
D67*
X10932Y7184D02*
D03*
X10877D02*
D03*
X10932Y7114D02*
D03*
X10877D02*
D03*
X11057Y7169D02*
D03*
Y7114D02*
D03*
X11127Y7169D02*
D03*
Y7114D02*
D03*
X11152Y7594D02*
D03*
Y7649D02*
D03*
X11167Y7274D02*
D03*
Y7329D02*
D03*
X10732Y7379D02*
D03*
Y7434D02*
D03*
X9822Y7139D02*
D03*
Y7194D02*
D03*
X9892Y7139D02*
D03*
Y7194D02*
D03*
X10102Y7139D02*
D03*
Y7194D02*
D03*
X10032Y7139D02*
D03*
Y7194D02*
D03*
X9962Y7139D02*
D03*
Y7194D02*
D03*
X10087Y7559D02*
D03*
Y7614D02*
D03*
X10157Y7559D02*
D03*
Y7614D02*
D03*
X10227Y7544D02*
D03*
X10282D02*
D03*
X8731Y8178D02*
D03*
Y8233D02*
D03*
X8756Y8328D02*
D03*
X8811D02*
D03*
X8916Y8203D02*
D03*
Y8258D02*
D03*
X9226Y8198D02*
D03*
Y8253D02*
D03*
X9321Y8198D02*
D03*
Y8253D02*
D03*
X9912Y7859D02*
D03*
Y7804D02*
D03*
X9997D02*
D03*
Y7859D02*
D03*
Y7929D02*
D03*
X10052D02*
D03*
X10232Y8779D02*
D03*
X10287D02*
D03*
X10387D02*
D03*
X10442D02*
D03*
X11087Y8749D02*
D03*
Y8694D02*
D03*
X10662Y8314D02*
D03*
X10717D02*
D03*
X10716Y8143D02*
D03*
Y8198D02*
D03*
X10901Y8143D02*
D03*
Y8198D02*
D03*
X10836Y8058D02*
D03*
Y8003D02*
D03*
X10766Y8058D02*
D03*
Y8003D02*
D03*
X10516Y8048D02*
D03*
Y7993D02*
D03*
X10272Y8059D02*
D03*
Y8114D02*
D03*
X10347Y8229D02*
D03*
Y8284D02*
D03*
X10186Y8158D02*
D03*
Y8103D02*
D03*
X10151Y8253D02*
D03*
X10096D02*
D03*
X10151Y8323D02*
D03*
X10096D02*
D03*
X10021D02*
D03*
X9966D02*
D03*
Y8253D02*
D03*
X10021D02*
D03*
X9881D02*
D03*
Y8308D02*
D03*
X9782Y7814D02*
D03*
Y7869D02*
D03*
X9877Y7714D02*
D03*
X9932D02*
D03*
X9787Y7499D02*
D03*
Y7554D02*
D03*
D69*
X10056Y7719D02*
D03*
Y7745D02*
D03*
Y7770D02*
D03*
Y7796D02*
D03*
X10212D02*
D03*
Y7770D02*
D03*
Y7745D02*
D03*
X10212Y7719D02*
D03*
D73*
X9862Y7644D02*
D03*
X9942D02*
D03*
Y7594D02*
D03*
X9862D02*
D03*
Y7619D02*
D03*
D75*
X10629Y8081D02*
D03*
X10667Y7994D02*
D03*
X10592D02*
D03*
D81*
X10590Y7489D02*
D03*
Y7414D02*
D03*
X10487Y7452D02*
D03*
Y7414D02*
D03*
Y7489D02*
D03*
D82*
X10877Y7474D02*
D03*
Y7399D02*
D03*
Y7437D02*
D03*
X10977Y7474D02*
D03*
Y7399D02*
D03*
D83*
X11157Y8499D02*
D03*
Y8589D02*
D03*
X10267Y8199D02*
D03*
Y8289D02*
D03*
X9782Y7639D02*
D03*
Y7729D02*
D03*
D84*
X8887Y8434D02*
D03*
X8987D02*
D03*
X9087D02*
D03*
X9187D02*
D03*
X9287D02*
D03*
X9387D02*
D03*
X9487D02*
D03*
X9587D02*
D03*
X9687D02*
D03*
X9787D02*
D03*
X9887D02*
D03*
X9987D02*
D03*
X10087D02*
D03*
X10187D02*
D03*
X10287D02*
D03*
X10387D02*
D03*
X10487D02*
D03*
X10587D02*
D03*
X10687D02*
D03*
X8887Y8644D02*
D03*
X8987D02*
D03*
X9087D02*
D03*
X9187D02*
D03*
X9287D02*
D03*
X9387D02*
D03*
X9487D02*
D03*
X9587D02*
D03*
X9687D02*
D03*
X9787D02*
D03*
X9887D02*
D03*
X9987D02*
D03*
X10087D02*
D03*
X10187D02*
D03*
X10287D02*
D03*
X10387D02*
D03*
X10487D02*
D03*
X10587D02*
D03*
X10687D02*
D03*
X10787D02*
D03*
X10787Y8434D02*
D03*
D91*
X11095Y7456D02*
D03*
X11182Y7494D02*
D03*
Y7419D02*
D03*
X10804Y7137D02*
D03*
X10717Y7099D02*
D03*
Y7174D02*
D03*
X10907Y8754D02*
D03*
Y8679D02*
D03*
X10994Y8717D02*
D03*
D93*
X10854Y7249D02*
D03*
Y7268D02*
D03*
Y7288D02*
D03*
Y7308D02*
D03*
Y7327D02*
D03*
X11027D02*
D03*
X11027Y7308D02*
D03*
Y7288D02*
D03*
X11027Y7268D02*
D03*
X11027Y7249D02*
D03*
D94*
X10806Y8255D02*
D03*
D96*
X10312Y7459D02*
D03*
X10177D02*
D03*
X10302Y7709D02*
D03*
Y7844D02*
D03*
X10662Y8769D02*
D03*
X10527D02*
D03*
D97*
X10098Y8022D02*
D03*
Y8072D02*
D03*
Y8122D02*
D03*
Y8172D02*
D03*
X9886Y8022D02*
D03*
Y8072D02*
D03*
Y8122D02*
D03*
Y8172D02*
D03*
D101*
X11112Y8353D02*
D03*
X11065D02*
D03*
X11018D02*
D03*
X11112Y8255D02*
D03*
X11061D02*
D03*
X11018D02*
D03*
X11112Y8157D02*
D03*
X11066D02*
D03*
X11018D02*
D03*
D110*
X10134Y7758D02*
D03*
D112*
X10633Y7762D02*
D03*
X10419D02*
D03*
D114*
X11161Y7790D02*
D03*
Y8026D02*
D03*
D115*
X10942Y7870D02*
D03*
Y7948D02*
D03*
M02*
