*%FSLAX23Y23*%
*%MOIN*%
G01*
%ADD11C,0.000*%
%ADD12C,0.001*%
%ADD13C,0.002*%
%ADD14C,0.006*%
%ADD15C,0.007*%
%ADD16C,0.007*%
%ADD17C,0.008*%
%ADD18C,0.010*%
%ADD19C,0.012*%
%ADD20C,0.015*%
%ADD21C,0.015*%
%ADD22C,0.018*%
%ADD23C,0.022*%
%ADD24C,0.024*%
%ADD25C,0.025*%
%ADD26C,0.029*%
%ADD27C,0.031*%
%ADD28C,0.031*%
%ADD29C,0.035*%
%ADD30C,0.035*%
%ADD31C,0.039*%
%ADD32C,0.039*%
%ADD33C,0.046*%
%ADD34C,0.050*%
%ADD35C,0.051*%
%ADD36C,0.051*%
%ADD37C,0.054*%
%ADD38C,0.055*%
%ADD39C,0.059*%
%ADD40C,0.059*%
%ADD41C,0.070*%
%ADD42C,0.074*%
%ADD43C,0.115*%
%ADD44C,0.135*%
%ADD45C,0.138*%
%ADD46C,0.138*%
%ADD47C,0.158*%
%ADD48C,0.158*%
%ADD49C,0.190*%
%ADD50C,0.194*%
%ADD51C,0.236*%
%ADD52C,0.240*%
%ADD53R,0.011X0.030*%
%ADD54R,0.012X0.030*%
%ADD55R,0.014X0.033*%
%ADD56R,0.014X0.037*%
%ADD57R,0.015X0.034*%
%ADD58R,0.016X0.034*%
%ADD59R,0.018X0.037*%
%ADD60R,0.018X0.041*%
%ADD61R,0.020X0.025*%
%ADD62R,0.021X0.021*%
%ADD63R,0.024X0.029*%
%ADD64R,0.025X0.020*%
%ADD65R,0.029X0.024*%
%ADD66R,0.030X0.011*%
%ADD67R,0.030X0.030*%
%ADD68R,0.031X0.031*%
%ADD69R,0.033X0.014*%
%ADD70R,0.034X0.015*%
%ADD71R,0.034X0.034*%
%ADD72R,0.035X0.035*%
%ADD73R,0.037X0.014*%
%ADD74R,0.037X0.018*%
%ADD75R,0.039X0.055*%
%ADD76R,0.039X0.014*%
%ADD77R,0.041X0.018*%
%ADD78R,0.043X0.059*%
%ADD79R,0.043X0.018*%
%ADD80R,0.047X0.055*%
%ADD81R,0.048X0.024*%
%ADD82R,0.050X0.023*%
%ADD83R,0.050X0.060*%
%ADD84R,0.050X0.135*%
%ADD85R,0.051X0.071*%
%ADD86R,0.051X0.059*%
%ADD87R,0.052X0.028*%
%ADD88R,0.054X0.027*%
%ADD89R,0.054X0.064*%
%ADD90R,0.054X0.139*%
%ADD91R,0.055X0.039*%
%ADD92R,0.055X0.075*%
%ADD93R,0.057X0.012*%
%ADD94R,0.057X0.067*%
%ADD95R,0.059X0.043*%
%ADD96R,0.060X0.060*%
%ADD97R,0.061X0.024*%
%ADD98R,0.061X0.051*%
%ADD99R,0.061X0.016*%
%ADD100R,0.061X0.071*%
%ADD101R,0.063X0.039*%
%ADD102R,0.064X0.064*%
%ADD103R,0.065X0.028*%
%ADD104R,0.065X0.055*%
%ADD105R,0.067X0.043*%
%ADD106R,0.085X0.030*%
%ADD107R,0.089X0.034*%
%ADD108R,0.094X0.030*%
%ADD109R,0.098X0.034*%
%ADD110R,0.104X0.104*%
%ADD111R,0.108X0.108*%
%ADD112R,0.116X0.138*%
%ADD113R,0.120X0.142*%
%ADD114R,0.134X0.059*%
%ADD115R,0.138X0.039*%
%ADD116R,0.138X0.063*%
%ADD117R,0.142X0.043*%
%ADD118R,0.169X0.169*%
%ADD119R,0.173X0.173*%
%ADD120R,0.250X0.250*%
D14*
X8997Y7594D02*
Y7639D01*
Y7609D02*
Y7594D01*
Y7609D02*
X9027Y7639D01*
X9004Y7616D01*
X9027Y7594D01*
X9049D02*
X9064D01*
X9049D02*
X9042Y7601D01*
Y7616D01*
X9049Y7624D01*
X9064D01*
X9072Y7616D01*
Y7609D01*
X9042D01*
X9087Y7594D02*
X9102D01*
X9094D01*
Y7639D01*
X9087D01*
X9124Y7594D02*
X9139D01*
X9132D01*
Y7639D01*
X9124D01*
X9162Y7624D02*
Y7601D01*
X9169Y7594D01*
X9192D01*
Y7587D01*
X9184Y7579D01*
X9177D01*
X9192Y7594D02*
Y7624D01*
X9252Y7639D02*
Y7594D01*
X9274D01*
X9282Y7601D01*
Y7631D01*
X9274Y7639D01*
X9252D01*
X9304Y7594D02*
X9319D01*
X9304D02*
X9297Y7601D01*
Y7616D01*
X9304Y7624D01*
X9319D01*
X9327Y7616D01*
Y7609D01*
X9297D01*
X9342Y7594D02*
X9364D01*
X9372Y7601D01*
X9364Y7609D01*
X9349D01*
X9342Y7616D01*
X9349Y7624D01*
X9372D01*
X9387Y7594D02*
X9402D01*
X9394D01*
Y7624D01*
X9387D01*
X9394Y7639D02*
X9395D01*
X9439Y7579D02*
X9447D01*
X9454Y7587D01*
Y7624D01*
X9432D01*
X9424Y7616D01*
Y7601D01*
X9432Y7594D01*
X9454D01*
X9469D02*
Y7624D01*
X9492D01*
X9499Y7616D01*
Y7594D01*
X9514D02*
X9537D01*
X9544Y7601D01*
X9537Y7609D01*
X9522D01*
X9514Y7616D01*
X9522Y7624D01*
X9544D01*
X8774Y8654D02*
Y8689D01*
X8757Y8671D01*
X8780D01*
X8792Y8683D02*
X8798Y8689D01*
X8809D01*
X8815Y8683D01*
Y8660D01*
X8809Y8654D01*
X8798D01*
X8792Y8660D01*
Y8683D01*
X8768Y8439D02*
X8762Y8433D01*
X8768Y8439D02*
X8779D01*
X8785Y8433D01*
Y8427D01*
X8786D01*
X8785D02*
X8786D01*
X8785D02*
X8786D01*
X8785D02*
X8779Y8421D01*
X8774D01*
X8779D01*
X8785Y8416D01*
Y8410D01*
X8779Y8404D01*
X8768D01*
X8762Y8410D01*
X8797D02*
X8803Y8404D01*
X8814D01*
X8820Y8410D01*
Y8433D01*
X8814Y8439D01*
X8803D01*
X8797Y8433D01*
Y8427D01*
X8803Y8421D01*
X8820D01*
X10852Y8619D02*
X10875D01*
X10852D02*
X10875Y8642D01*
Y8648D01*
X10869Y8654D01*
X10858D01*
X10852Y8648D01*
X10857Y8409D02*
X10869D01*
X10863D01*
Y8444D01*
X10864D01*
X10863D02*
X10857Y8438D01*
X11176Y8350D02*
Y8339D01*
X11182Y8333D01*
X11205D01*
X11211Y8339D01*
Y8350D01*
X11205Y8356D01*
X11182D01*
X11176Y8350D01*
Y8368D02*
Y8391D01*
Y8368D02*
X11194D01*
Y8380D01*
Y8368D01*
X11211D01*
X11176Y8403D02*
Y8426D01*
Y8403D02*
X11194D01*
Y8415D01*
Y8403D01*
X11211D01*
X11176Y8135D02*
Y8124D01*
X11182Y8118D01*
X11205D01*
X11211Y8124D01*
Y8135D01*
X11205Y8141D01*
X11182D01*
X11176Y8135D01*
Y8153D02*
X11211D01*
Y8176D02*
X11176Y8153D01*
Y8176D02*
X11211D01*
X10304Y7324D02*
Y7289D01*
X10287Y7306D02*
X10304Y7324D01*
X10310Y7306D02*
X10287D01*
X9914Y7304D02*
X9902D01*
X9908D02*
X9914D01*
X9908D02*
Y7339D01*
X9909D01*
X9908D02*
X9902Y7333D01*
X10769Y7239D02*
X10775Y7233D01*
X10769Y7239D02*
X10758D01*
X10752Y7233D01*
Y7210D01*
X10758Y7204D01*
X10769D01*
X10775Y7210D01*
X10787Y7239D02*
X10810D01*
X10787D02*
Y7221D01*
X10799Y7227D01*
X10804D01*
X10810Y7221D01*
Y7210D01*
X10804Y7204D01*
X10793D01*
X10787Y7210D01*
X10917Y7069D02*
Y7034D01*
Y7069D02*
X10934D01*
X10940Y7063D01*
Y7051D01*
X10934Y7046D01*
X10917D01*
X10929D02*
X10940Y7034D01*
X10952D02*
X10964D01*
X10958D01*
Y7069D01*
X10959D01*
X10958D02*
X10952Y7063D01*
X10981D02*
X10987Y7069D01*
X10999D01*
X11004Y7063D01*
Y7040D01*
X10999Y7034D01*
X10987D01*
X10981Y7040D01*
Y7063D01*
X11027Y7069D02*
Y7034D01*
Y7069D02*
X11044D01*
X11050Y7063D01*
Y7051D01*
X11044Y7046D01*
X11027D01*
X11039D02*
X11050Y7034D01*
X11062Y7063D02*
X11068Y7069D01*
X11079D01*
X11085Y7063D01*
Y7057D01*
X11086D01*
X11085D02*
X11086D01*
X11085D02*
X11086D01*
X11085D02*
X11079Y7051D01*
X11074D01*
X11079D01*
X11085Y7046D01*
Y7040D01*
X11079Y7034D01*
X11068D01*
X11062Y7040D01*
X11097Y7034D02*
X11120D01*
X11097D02*
X11120Y7057D01*
Y7063D01*
X11114Y7069D01*
X11103D01*
X11097Y7063D01*
X11177Y7119D02*
X11212D01*
X11177D02*
Y7136D01*
X11183Y7142D01*
X11195D01*
X11200Y7136D01*
Y7119D01*
Y7131D02*
X11212Y7142D01*
Y7154D02*
Y7177D01*
Y7154D02*
X11189Y7177D01*
X11183D01*
X11177Y7171D01*
Y7160D01*
X11183Y7154D01*
X11177Y7189D02*
Y7212D01*
X11183D01*
X11206Y7189D01*
X11212D01*
X10937Y8321D02*
X10943Y8327D01*
X10937Y8321D02*
Y8310D01*
X10943Y8304D01*
X10949D01*
X10955Y8310D01*
Y8321D01*
X10960Y8327D01*
X10966D01*
X10972Y8321D01*
Y8310D01*
X10966Y8304D01*
X10972Y8339D02*
X10937D01*
X10960Y8351D02*
X10972Y8339D01*
X10960Y8351D02*
X10972Y8362D01*
X10937D01*
X10972Y8374D02*
Y8386D01*
Y8380D01*
X10937D01*
X10938D01*
X10937D02*
X10943Y8374D01*
X10825Y7904D02*
X10814D01*
X10819D01*
Y7875D01*
X10814Y7869D01*
X10808D01*
X10802Y7875D01*
X10837Y7869D02*
X10860D01*
X10837D02*
X10860Y7892D01*
Y7898D01*
X10854Y7904D01*
X10843D01*
X10837Y7898D01*
X11127Y7734D02*
Y7699D01*
Y7734D02*
X11144D01*
X11150Y7728D01*
Y7716D01*
X11144Y7711D01*
X11127D01*
X11139D02*
X11150Y7699D01*
X11162D02*
X11185D01*
X11162D02*
X11185Y7722D01*
Y7728D01*
X11179Y7734D01*
X11168D01*
X11162Y7728D01*
X11214Y7734D02*
Y7699D01*
X11197Y7716D02*
X11214Y7734D01*
X11220Y7716D02*
X11197D01*
X11035Y7423D02*
Y7400D01*
Y7423D02*
X11029Y7429D01*
X11018D01*
X11012Y7423D01*
Y7400D01*
X11018Y7394D01*
X11029D01*
X11035D02*
X11024Y7406D01*
X11029Y7394D02*
X11035Y7400D01*
X11064Y7394D02*
Y7429D01*
X11047Y7411D01*
X11070D01*
X11082Y7219D02*
X11117D01*
X11082D02*
Y7236D01*
X11088Y7242D01*
X11100D01*
X11105Y7236D01*
Y7219D01*
Y7231D02*
X11117Y7242D01*
Y7254D02*
Y7277D01*
Y7254D02*
X11094Y7277D01*
X11088D01*
X11082Y7271D01*
Y7260D01*
X11088Y7254D01*
Y7301D02*
X11082Y7312D01*
X11088Y7301D02*
X11100Y7289D01*
X11111D01*
X11117Y7295D01*
Y7306D01*
X11111Y7312D01*
X11105D01*
X11100Y7306D01*
Y7289D01*
X10752Y7299D02*
Y7270D01*
X10758Y7264D01*
X10769D01*
X10775Y7270D01*
Y7299D01*
X10787Y7293D02*
X10793Y7299D01*
X10804D01*
X10810Y7293D01*
Y7287D01*
X10811D01*
X10810D02*
X10811D01*
X10810D02*
X10811D01*
X10810D02*
X10804Y7281D01*
X10799D01*
X10804D01*
X10810Y7276D01*
Y7270D01*
X10804Y7264D01*
X10793D01*
X10787Y7270D01*
X10807Y7505D02*
Y7534D01*
Y7505D02*
X10813Y7499D01*
X10824D01*
X10830Y7505D01*
Y7534D01*
X10842Y7499D02*
X10854D01*
X10848D01*
Y7534D01*
X10849D01*
X10848D02*
X10842Y7528D01*
X10871D02*
X10877Y7534D01*
X10889D01*
X10894Y7528D01*
Y7505D01*
X10889Y7499D01*
X10877D01*
X10871Y7505D01*
Y7528D01*
X10648Y7402D02*
X10642Y7396D01*
Y7385D01*
X10648Y7379D01*
X10671D01*
X10677Y7385D01*
Y7396D01*
X10671Y7402D01*
X10677Y7414D02*
Y7437D01*
Y7414D02*
X10654Y7437D01*
X10648D01*
X10642Y7431D01*
Y7420D01*
X10648Y7414D01*
X10642Y7449D02*
Y7472D01*
X10648D01*
X10671Y7449D01*
X10677D01*
X10640Y7153D02*
Y7130D01*
Y7153D02*
X10634Y7159D01*
X10623D01*
X10617Y7153D01*
Y7130D01*
X10623Y7124D01*
X10634D01*
X10640D02*
X10629Y7136D01*
X10634Y7124D02*
X10640Y7130D01*
X10652Y7124D02*
X10675D01*
X10652D02*
X10675Y7147D01*
Y7153D01*
X10669Y7159D01*
X10658D01*
X10652Y7153D01*
X9700Y7163D02*
X9694Y7169D01*
X9683D01*
X9677Y7163D01*
Y7140D01*
X9683Y7134D01*
X9694D01*
X9700Y7140D01*
X9712Y7134D02*
X9735D01*
X9712D02*
X9735Y7157D01*
Y7163D01*
X9729Y7169D01*
X9718D01*
X9712Y7163D01*
X9764Y7169D02*
Y7134D01*
X9747Y7151D02*
X9764Y7169D01*
X9770Y7151D02*
X9747D01*
X9852Y7249D02*
X9887D01*
X9852D02*
Y7266D01*
X9858Y7272D01*
X9870D01*
X9875Y7266D01*
Y7249D01*
Y7261D02*
X9887Y7272D01*
X9858Y7284D02*
X9852Y7290D01*
Y7301D01*
X9858Y7307D01*
X9864D01*
X9865D01*
X9864D02*
X9865D01*
X9864D02*
X9865D01*
X9864D02*
X9870Y7301D01*
Y7296D01*
Y7301D01*
X9875Y7307D01*
X9881D01*
X9887Y7301D01*
Y7290D01*
X9881Y7284D01*
X9887Y7319D02*
Y7331D01*
Y7325D01*
X9852D01*
X9853D01*
X9852D02*
X9858Y7319D01*
X10152Y7124D02*
X10187D01*
X10152D02*
Y7141D01*
X10158Y7147D01*
X10170D01*
X10175Y7141D01*
Y7124D01*
Y7136D02*
X10187Y7147D01*
Y7159D02*
Y7182D01*
Y7159D02*
X10164Y7182D01*
X10158D01*
X10152Y7176D01*
Y7165D01*
X10158Y7159D01*
Y7194D02*
X10152Y7200D01*
Y7211D01*
X10158Y7217D01*
X10164D01*
X10170Y7211D01*
X10175Y7217D01*
X10181D01*
X10187Y7211D01*
Y7200D01*
X10181Y7194D01*
X10175D01*
X10170Y7200D01*
X10164Y7194D01*
X10158D01*
X10170Y7200D02*
Y7211D01*
X10042Y7319D02*
X10007D01*
Y7336D01*
X10013Y7342D01*
X10025D01*
X10030Y7336D01*
Y7319D01*
Y7331D02*
X10042Y7342D01*
Y7354D02*
Y7377D01*
Y7354D02*
X10019Y7377D01*
X10013D01*
X10007Y7371D01*
Y7360D01*
X10013Y7354D01*
X10036Y7389D02*
X10042Y7395D01*
Y7406D01*
X10036Y7412D01*
X10013D01*
X10007Y7406D01*
Y7395D01*
X10013Y7389D01*
X10019D01*
X10025Y7395D01*
Y7412D01*
X9972Y7319D02*
X9937D01*
Y7336D01*
X9943Y7342D01*
X9955D01*
X9960Y7336D01*
Y7319D01*
Y7331D02*
X9972Y7342D01*
X9943Y7354D02*
X9937Y7360D01*
Y7371D01*
X9943Y7377D01*
X9949D01*
X9950D01*
X9949D02*
X9950D01*
X9949D02*
X9950D01*
X9949D02*
X9955Y7371D01*
Y7366D01*
Y7371D01*
X9960Y7377D01*
X9966D01*
X9972Y7371D01*
Y7360D01*
X9966Y7354D01*
X9943Y7389D02*
X9937Y7395D01*
Y7406D01*
X9943Y7412D01*
X9966D01*
X9972Y7406D01*
Y7395D01*
X9966Y7389D01*
X9943D01*
X10002Y7564D02*
X10037D01*
X10002D02*
Y7581D01*
X10008Y7587D01*
X10020D01*
X10025Y7581D01*
Y7564D01*
Y7576D02*
X10037Y7587D01*
X10002Y7599D02*
Y7622D01*
X10008D01*
X10031Y7599D01*
X10037D01*
X10047Y7514D02*
Y7479D01*
Y7514D02*
X10064D01*
X10070Y7508D01*
Y7496D01*
X10064Y7491D01*
X10047D01*
X10059D02*
X10070Y7479D01*
X10094Y7508D02*
X10105Y7514D01*
X10094Y7508D02*
X10082Y7496D01*
Y7485D01*
X10088Y7479D01*
X10099D01*
X10105Y7485D01*
Y7491D01*
X10099Y7496D01*
X10082D01*
X10332Y7534D02*
Y7569D01*
X10349D01*
X10355Y7563D01*
Y7551D01*
X10349Y7546D01*
X10332D01*
X10344D02*
X10355Y7534D01*
X10367Y7563D02*
X10373Y7569D01*
X10384D01*
X10390Y7563D01*
Y7557D01*
X10391D01*
X10390D02*
X10391D01*
X10390D02*
X10391D01*
X10390D02*
X10384Y7551D01*
X10379D01*
X10384D01*
X10390Y7546D01*
Y7540D01*
X10384Y7534D01*
X10373D01*
X10367Y7540D01*
X10402Y7563D02*
X10408Y7569D01*
X10419D01*
X10425Y7563D01*
Y7557D01*
X10426D01*
X10425D02*
X10426D01*
X10425D02*
X10426D01*
X10425D02*
X10419Y7551D01*
X10414D01*
X10419D01*
X10425Y7546D01*
Y7540D01*
X10419Y7534D01*
X10408D01*
X10402Y7540D01*
X10229Y7387D02*
X10223Y7393D01*
X10212D01*
X10206Y7387D01*
Y7364D01*
X10212Y7358D01*
X10223D01*
X10229Y7364D01*
X10241Y7358D02*
X10253D01*
X10247D01*
Y7393D01*
X10248D01*
X10247D02*
X10241Y7387D01*
X10270Y7358D02*
X10282D01*
X10276D01*
Y7393D01*
X10277D01*
X10276D02*
X10270Y7387D01*
X10392Y7480D02*
Y7509D01*
Y7480D02*
X10398Y7474D01*
X10409D01*
X10415Y7480D01*
Y7509D01*
X10427Y7480D02*
X10433Y7474D01*
X10444D01*
X10450Y7480D01*
Y7503D01*
X10444Y7509D01*
X10433D01*
X10427Y7503D01*
Y7497D01*
X10433Y7491D01*
X10450D01*
X10477Y7574D02*
Y7609D01*
Y7574D02*
X10500D01*
X10512D02*
X10524D01*
X10518D01*
Y7609D01*
X10519D01*
X10518D02*
X10512Y7603D01*
X10310Y7943D02*
X10304Y7949D01*
X10293D01*
X10287Y7943D01*
Y7920D01*
X10293Y7914D01*
X10304D01*
X10310Y7920D01*
X10322Y7914D02*
X10334D01*
X10328D01*
Y7949D01*
X10329D01*
X10328D02*
X10322Y7943D01*
X10351D02*
X10357Y7949D01*
X10369D01*
X10374Y7943D01*
Y7920D01*
X10369Y7914D01*
X10357D01*
X10351Y7920D01*
Y7943D01*
X10207Y7649D02*
Y7620D01*
X10213Y7614D01*
X10224D01*
X10230Y7620D01*
Y7649D01*
X10259D02*
Y7614D01*
X10242Y7631D02*
X10259Y7649D01*
X10265Y7631D02*
X10242D01*
X8686Y8093D02*
Y8128D01*
X8703D01*
X8709Y8122D01*
Y8110D01*
X8703Y8105D01*
X8686D01*
X8698D02*
X8709Y8093D01*
X8721D02*
X8733D01*
X8727D01*
Y8128D01*
X8728D01*
X8727D02*
X8721Y8122D01*
X8750Y8093D02*
X8773D01*
X8750D02*
X8773Y8116D01*
Y8122D01*
X8768Y8128D01*
X8756D01*
X8750Y8122D01*
X8684Y8382D02*
X8678Y8388D01*
X8667D01*
X8661Y8382D01*
Y8359D01*
X8667Y8353D01*
X8678D01*
X8684Y8359D01*
X8696Y8353D02*
X8708D01*
X8702D01*
Y8388D01*
X8703D01*
X8702D02*
X8696Y8382D01*
X8871Y8148D02*
Y8113D01*
Y8148D02*
X8888D01*
X8894Y8142D01*
Y8130D01*
X8888Y8125D01*
X8871D01*
X8883D02*
X8894Y8113D01*
X8906D02*
X8918D01*
X8912D01*
Y8148D01*
X8913D01*
X8912D02*
X8906Y8142D01*
X8935D02*
X8941Y8148D01*
X8953D01*
X8958Y8142D01*
Y8136D01*
X8959D01*
X8958D02*
X8959D01*
X8958D02*
X8959D01*
X8958D02*
X8953Y8130D01*
X8947D01*
X8953D01*
X8958Y8125D01*
Y8119D01*
X8953Y8113D01*
X8941D01*
X8935Y8119D01*
X9101Y8213D02*
Y8248D01*
X9118D01*
X9124Y8242D01*
Y8230D01*
X9118Y8225D01*
X9101D01*
X9113D02*
X9124Y8213D01*
X9136D02*
X9148D01*
X9142D01*
Y8248D01*
X9143D01*
X9142D02*
X9136Y8242D01*
X9165Y8213D02*
X9177D01*
X9171D01*
Y8248D01*
X9172D01*
X9171D02*
X9165Y8242D01*
X9293Y8148D02*
X9299Y8142D01*
X9293Y8148D02*
X9282D01*
X9276Y8142D01*
Y8119D01*
X9282Y8113D01*
X9293D01*
X9299Y8119D01*
X9311Y8113D02*
X9334D01*
X9311D02*
X9334Y8136D01*
Y8142D01*
X9328Y8148D01*
X9317D01*
X9311Y8142D01*
X9346Y8148D02*
X9369D01*
X9346D02*
Y8130D01*
X9358Y8136D01*
X9363D01*
X9369Y8130D01*
Y8119D01*
X9363Y8113D01*
X9352D01*
X9346Y8119D01*
X9827Y7854D02*
X9862D01*
X9827D02*
Y7871D01*
X9833Y7877D01*
X9845D01*
X9850Y7871D01*
Y7854D01*
Y7866D02*
X9862Y7877D01*
X9856Y7889D02*
X9862Y7895D01*
Y7906D01*
X9856Y7912D01*
X9833D01*
X9827Y7906D01*
Y7895D01*
X9833Y7889D01*
X9839D01*
X9845Y7895D01*
Y7912D01*
X10102Y7899D02*
X10137D01*
X10102D02*
Y7916D01*
X10108Y7922D01*
X10120D01*
X10125Y7916D01*
Y7899D01*
Y7911D02*
X10137Y7922D01*
X10108Y7934D02*
X10102Y7940D01*
Y7951D01*
X10108Y7957D01*
X10114D01*
X10120Y7951D01*
X10125Y7957D01*
X10131D01*
X10137Y7951D01*
Y7940D01*
X10131Y7934D01*
X10125D01*
X10120Y7940D01*
X10114Y7934D01*
X10108D01*
X10120Y7940D02*
Y7951D01*
X9852Y7964D02*
Y7929D01*
Y7964D02*
X9869D01*
X9875Y7958D01*
Y7946D01*
X9869Y7941D01*
X9852D01*
X9864D02*
X9875Y7929D01*
X9887D02*
X9910D01*
X9887D02*
X9910Y7952D01*
Y7958D01*
X9904Y7964D01*
X9893D01*
X9887Y7958D01*
X9922Y7964D02*
X9945D01*
X9922D02*
Y7946D01*
X9934Y7952D01*
X9939D01*
X9945Y7946D01*
Y7935D01*
X9939Y7929D01*
X9928D01*
X9922Y7935D01*
X9995Y8813D02*
X9989Y8819D01*
X9978D01*
X9972Y8813D01*
Y8790D01*
X9978Y8784D01*
X9989D01*
X9995Y8790D01*
X10007Y8813D02*
X10013Y8819D01*
X10024D01*
X10030Y8813D01*
Y8807D01*
X10031D01*
X10030D02*
X10031D01*
X10030D02*
X10031D01*
X10030D02*
X10024Y8801D01*
X10019D01*
X10024D01*
X10030Y8796D01*
Y8790D01*
X10024Y8784D01*
X10013D01*
X10007Y8790D01*
X10042Y8813D02*
X10048Y8819D01*
X10059D01*
X10065Y8813D01*
Y8790D01*
X10059Y8784D01*
X10048D01*
X10042Y8790D01*
Y8813D01*
X10104Y8819D02*
X10110Y8813D01*
X10104Y8819D02*
X10093D01*
X10087Y8813D01*
Y8790D01*
X10093Y8784D01*
X10104D01*
X10110Y8790D01*
X10122Y8784D02*
X10145D01*
X10122D02*
X10145Y8807D01*
Y8813D01*
X10139Y8819D01*
X10128D01*
X10122Y8813D01*
X10157Y8790D02*
X10163Y8784D01*
X10174D01*
X10180Y8790D01*
Y8813D01*
X10174Y8819D01*
X10163D01*
X10157Y8813D01*
Y8807D01*
X10163Y8801D01*
X10180D01*
X10732Y8791D02*
Y8814D01*
Y8791D02*
X10744Y8779D01*
X10755Y8791D01*
Y8814D01*
X10767Y8779D02*
X10779D01*
X10773D01*
Y8814D01*
X10774D01*
X10773D02*
X10767Y8808D01*
X10830Y8798D02*
Y8775D01*
Y8798D02*
X10824Y8804D01*
X10813D01*
X10807Y8798D01*
Y8775D01*
X10813Y8769D01*
X10824D01*
X10830D02*
X10819Y8781D01*
X10824Y8769D02*
X10830Y8775D01*
X10842Y8798D02*
X10848Y8804D01*
X10859D01*
X10865Y8798D01*
Y8792D01*
X10866D01*
X10865D02*
X10866D01*
X10865D02*
X10866D01*
X10865D02*
X10859Y8786D01*
X10854D01*
X10859D01*
X10865Y8781D01*
Y8775D01*
X10859Y8769D01*
X10848D01*
X10842Y8775D01*
X11137Y8779D02*
Y8744D01*
Y8779D02*
X11154D01*
X11160Y8773D01*
Y8761D01*
X11154Y8756D01*
X11137D01*
X11149D02*
X11160Y8744D01*
X11172Y8779D02*
X11195D01*
X11172D02*
Y8761D01*
X11184Y8767D01*
X11189D01*
X11195Y8761D01*
Y8750D01*
X11189Y8744D01*
X11178D01*
X11172Y8750D01*
X11170Y8689D02*
X11147D01*
Y8671D01*
X11159D01*
X11147D01*
Y8654D01*
X11182D02*
X11194D01*
X11188D01*
Y8689D01*
X11189D01*
X11188D02*
X11182Y8683D01*
X8950Y8784D02*
X8939D01*
X8944D01*
Y8755D01*
X8939Y8749D01*
X8933D01*
X8927Y8755D01*
X8962Y8749D02*
X8974D01*
X8968D01*
Y8784D01*
X8969D01*
X8968D02*
X8962Y8778D01*
X10492Y8344D02*
Y8309D01*
Y8344D02*
X10509D01*
X10515Y8338D01*
Y8326D01*
X10509Y8321D01*
X10492D01*
X10504D02*
X10515Y8309D01*
X10527D02*
X10550D01*
X10527D02*
X10550Y8332D01*
Y8338D01*
X10544Y8344D01*
X10533D01*
X10527Y8338D01*
X10562D02*
X10568Y8344D01*
X10579D01*
X10585Y8338D01*
Y8315D01*
X10579Y8309D01*
X10568D01*
X10562Y8315D01*
Y8338D01*
X10904Y8284D02*
X10910Y8278D01*
X10904Y8284D02*
X10893D01*
X10887Y8278D01*
Y8255D01*
X10893Y8249D01*
X10904D01*
X10910Y8255D01*
X10922Y8278D02*
X10928Y8284D01*
X10939D01*
X10945Y8278D01*
Y8272D01*
X10946D01*
X10945D02*
X10946D01*
X10945D02*
X10946D01*
X10945D02*
X10939Y8266D01*
X10934D01*
X10939D01*
X10945Y8261D01*
Y8255D01*
X10939Y8249D01*
X10928D01*
X10922Y8255D01*
X10861Y8309D02*
Y8338D01*
Y8309D02*
X10867Y8303D01*
X10878D01*
X10884Y8309D01*
Y8338D01*
X10896Y8303D02*
X10908D01*
X10902D01*
Y8338D01*
X10903D01*
X10902D02*
X10896Y8332D01*
X10953Y8202D02*
X10947Y8196D01*
Y8185D01*
X10953Y8179D01*
X10976D01*
X10982Y8185D01*
Y8196D01*
X10976Y8202D01*
X10982Y8231D02*
X10947D01*
X10965Y8214D01*
Y8237D01*
X10814Y8147D02*
X10808Y8153D01*
X10797D01*
X10791Y8147D01*
Y8124D01*
X10797Y8118D01*
X10808D01*
X10814Y8124D01*
X10826Y8147D02*
X10832Y8153D01*
X10843D01*
X10849Y8147D01*
Y8141D01*
X10843Y8135D01*
X10849Y8130D01*
Y8124D01*
X10843Y8118D01*
X10832D01*
X10826Y8124D01*
Y8130D01*
X10832Y8135D01*
X10826Y8141D01*
Y8147D01*
X10832Y8135D02*
X10843D01*
X10749Y7954D02*
X10755Y7948D01*
X10749Y7954D02*
X10738D01*
X10732Y7948D01*
Y7925D01*
X10738Y7919D01*
X10749D01*
X10755Y7925D01*
X10767D02*
X10773Y7919D01*
X10784D01*
X10790Y7925D01*
Y7948D01*
X10784Y7954D01*
X10773D01*
X10767Y7948D01*
Y7942D01*
X10773Y7936D01*
X10790D01*
X10635Y7925D02*
Y7948D01*
X10629Y7954D01*
X10618D01*
X10612Y7948D01*
Y7925D01*
X10618Y7919D01*
X10629D01*
X10635D02*
X10624Y7931D01*
X10629Y7919D02*
X10635Y7925D01*
X10647Y7919D02*
X10659D01*
X10653D01*
Y7954D01*
X10654D01*
X10653D02*
X10647Y7948D01*
X10467Y7969D02*
X10432D01*
Y7986D01*
X10438Y7992D01*
X10450D01*
X10455Y7986D01*
Y7969D01*
Y7981D02*
X10467Y7992D01*
Y8021D02*
X10432D01*
X10450Y8004D01*
Y8027D01*
X10252Y8009D02*
Y7974D01*
Y8009D02*
X10269D01*
X10275Y8003D01*
Y7991D01*
X10269Y7986D01*
X10252D01*
X10264D02*
X10275Y7974D01*
X10287D02*
X10310D01*
X10287D02*
X10310Y7997D01*
Y8003D01*
X10304Y8009D01*
X10293D01*
X10287Y8003D01*
X10427Y8110D02*
Y8139D01*
Y8110D02*
X10433Y8104D01*
X10444D01*
X10450Y8110D01*
Y8139D01*
X10462Y8104D02*
X10485D01*
X10462D02*
X10485Y8127D01*
Y8133D01*
X10479Y8139D01*
X10468D01*
X10462Y8133D01*
X10397Y8241D02*
X10403Y8247D01*
X10397Y8241D02*
Y8230D01*
X10403Y8224D01*
X10426D01*
X10432Y8230D01*
Y8241D01*
X10426Y8247D01*
X10432Y8259D02*
Y8282D01*
Y8259D02*
X10409Y8282D01*
X10403D01*
X10397Y8276D01*
Y8265D01*
X10403Y8259D01*
X10327Y8329D02*
Y8364D01*
X10344D01*
X10350Y8358D01*
Y8346D01*
X10344Y8341D01*
X10327D01*
X10339D02*
X10350Y8329D01*
X10362D02*
X10374D01*
X10368D01*
Y8364D01*
X10369D01*
X10368D02*
X10362Y8358D01*
X10167Y7959D02*
Y7924D01*
Y7959D02*
X10184D01*
X10190Y7953D01*
Y7941D01*
X10184Y7936D01*
X10167D01*
X10179D02*
X10190Y7924D01*
X10202Y7953D02*
X10208Y7959D01*
X10219D01*
X10225Y7953D01*
Y7947D01*
X10226D01*
X10225D02*
X10226D01*
X10225D02*
X10226D01*
X10225D02*
X10219Y7941D01*
X10214D01*
X10219D01*
X10225Y7936D01*
Y7930D01*
X10219Y7924D01*
X10208D01*
X10202Y7930D01*
X10122Y7969D02*
Y8004D01*
X10139D01*
X10145Y7998D01*
Y7986D01*
X10139Y7981D01*
X10122D01*
X10134D02*
X10145Y7969D01*
X10157D02*
X10169D01*
X10163D01*
Y8004D01*
X10164D01*
X10163D02*
X10157Y7998D01*
X10186Y7975D02*
X10192Y7969D01*
X10204D01*
X10209Y7975D01*
Y7998D01*
X10204Y8004D01*
X10192D01*
X10186Y7998D01*
Y7992D01*
X10192Y7986D01*
X10209D01*
X10137Y8019D02*
Y8054D01*
X10154D01*
X10160Y8048D01*
Y8036D01*
X10154Y8031D01*
X10137D01*
X10149D02*
X10160Y8019D01*
X10172D02*
X10184D01*
X10178D01*
Y8054D01*
X10179D01*
X10178D02*
X10172Y8048D01*
X10201D02*
X10207Y8054D01*
X10219D01*
X10224Y8048D01*
Y8042D01*
X10219Y8036D01*
X10224Y8031D01*
Y8025D01*
X10219Y8019D01*
X10207D01*
X10201Y8025D01*
Y8031D01*
X10207Y8036D01*
X10201Y8042D01*
Y8048D01*
X10207Y8036D02*
X10219D01*
X9747Y8304D02*
Y8339D01*
X9764D01*
X9770Y8333D01*
Y8321D01*
X9764Y8316D01*
X9747D01*
X9759D02*
X9770Y8304D01*
X9782D02*
X9794D01*
X9788D01*
Y8339D01*
X9789D01*
X9788D02*
X9782Y8333D01*
X9811Y8339D02*
X9834D01*
Y8333D01*
X9811Y8310D01*
Y8304D01*
X9754Y8189D02*
X9760Y8183D01*
X9754Y8189D02*
X9743D01*
X9737Y8183D01*
Y8160D01*
X9743Y8154D01*
X9754D01*
X9760Y8160D01*
X9772Y8154D02*
X9795D01*
X9772D02*
X9795Y8177D01*
Y8183D01*
X9789Y8189D01*
X9778D01*
X9772Y8183D01*
X9807Y8154D02*
X9830D01*
X9807D02*
X9830Y8177D01*
Y8183D01*
X9824Y8189D01*
X9813D01*
X9807Y8183D01*
X9782Y8216D02*
X9788Y8222D01*
X9782Y8216D02*
Y8205D01*
X9788Y8199D01*
X9811D01*
X9817Y8205D01*
Y8216D01*
X9811Y8222D01*
X9817Y8234D02*
Y8257D01*
Y8234D02*
X9794Y8257D01*
X9788D01*
X9782Y8251D01*
Y8240D01*
X9788Y8234D01*
Y8281D02*
X9782Y8292D01*
X9788Y8281D02*
X9800Y8269D01*
X9811D01*
X9817Y8275D01*
Y8286D01*
X9811Y8292D01*
X9805D01*
X9800Y8286D01*
Y8269D01*
X9782Y8124D02*
Y8095D01*
X9788Y8089D01*
X9799D01*
X9805Y8095D01*
Y8124D01*
X9817D02*
X9840D01*
Y8118D01*
X9817Y8095D01*
Y8089D01*
X9647Y7889D02*
Y7854D01*
Y7889D02*
X9664D01*
X9670Y7883D01*
Y7871D01*
X9664Y7866D01*
X9647D01*
X9659D02*
X9670Y7854D01*
X9682D02*
X9705D01*
X9682D02*
X9705Y7877D01*
Y7883D01*
X9699Y7889D01*
X9688D01*
X9682Y7883D01*
X9717Y7854D02*
X9729D01*
X9723D01*
Y7889D01*
X9724D01*
X9723D02*
X9717Y7883D01*
X9981Y7690D02*
X9987Y7696D01*
X9981Y7690D02*
Y7679D01*
X9987Y7673D01*
X10010D01*
X10016Y7679D01*
Y7690D01*
X10010Y7696D01*
X10016Y7708D02*
Y7731D01*
Y7708D02*
X9993Y7731D01*
X9987D01*
X9981Y7725D01*
Y7714D01*
X9987Y7708D01*
X10016Y7743D02*
Y7755D01*
Y7749D01*
X9981D01*
X9982D01*
X9981D02*
X9987Y7743D01*
X9877Y7549D02*
Y7520D01*
X9883Y7514D01*
X9894D01*
X9900Y7520D01*
Y7549D01*
X9912Y7543D02*
X9918Y7549D01*
X9929D01*
X9935Y7543D01*
Y7537D01*
X9929Y7531D01*
X9935Y7526D01*
Y7520D01*
X9929Y7514D01*
X9918D01*
X9912Y7520D01*
Y7526D01*
X9918Y7531D01*
X9912Y7537D01*
Y7543D01*
X9918Y7531D02*
X9929D01*
X9717Y7649D02*
X9682D01*
Y7666D01*
X9688Y7672D01*
X9700D01*
X9705Y7666D01*
Y7649D01*
Y7661D02*
X9717Y7672D01*
Y7684D02*
Y7707D01*
Y7684D02*
X9694Y7707D01*
X9688D01*
X9682Y7701D01*
Y7690D01*
X9688Y7684D01*
X9717Y7719D02*
Y7742D01*
Y7719D02*
X9694Y7742D01*
X9688D01*
X9682Y7736D01*
Y7725D01*
X9688Y7719D01*
X9742Y7439D02*
Y7404D01*
Y7439D02*
X9759D01*
X9765Y7433D01*
Y7421D01*
X9759Y7416D01*
X9742D01*
X9754D02*
X9765Y7404D01*
X9777D02*
X9800D01*
X9777D02*
X9800Y7427D01*
Y7433D01*
X9794Y7439D01*
X9783D01*
X9777Y7433D01*
X9812D02*
X9818Y7439D01*
X9829D01*
X9835Y7433D01*
Y7427D01*
X9836D01*
X9835D02*
X9836D01*
X9835D02*
X9836D01*
X9835D02*
X9829Y7421D01*
X9824D01*
X9829D01*
X9835Y7416D01*
Y7410D01*
X9829Y7404D01*
X9818D01*
X9812Y7410D01*
X9244Y7982D02*
X9238Y7988D01*
X9227D01*
X9221Y7982D01*
Y7959D01*
X9227Y7953D01*
X9238D01*
X9244Y7959D01*
X9256Y7953D02*
X9268D01*
X9262D01*
Y7988D01*
X9263D01*
X9262D02*
X9256Y7982D01*
X9285Y7988D02*
X9308D01*
Y7982D01*
X9285Y7959D01*
Y7953D01*
X9348Y7838D02*
X9354Y7832D01*
X9348Y7838D02*
X9337D01*
X9331Y7832D01*
Y7809D01*
X9337Y7803D01*
X9348D01*
X9354Y7809D01*
X9366Y7803D02*
X9378D01*
X9372D01*
Y7838D01*
X9373D01*
X9372D02*
X9366Y7832D01*
X9407D02*
X9418Y7838D01*
X9407Y7832D02*
X9395Y7820D01*
Y7809D01*
X9401Y7803D01*
X9413D01*
X9418Y7809D01*
Y7815D01*
X9413Y7820D01*
X9395D01*
D18*
X10222Y7697D02*
Y7689D01*
Y7697D02*
X10230D01*
Y7689D01*
X10222D01*
X10771Y8163D02*
Y8172D01*
X10780D01*
Y8163D01*
X10771D01*
X10837Y7829D02*
X10870D01*
X10854Y7846D02*
Y7812D01*
X11173Y8199D02*
Y8311D01*
X11212D02*
Y8200D01*
X11204Y8199D02*
Y8311D01*
X11198Y8310D02*
Y8199D01*
X11190Y8201D02*
Y8310D01*
X11182Y8311D02*
Y8201D01*
X11165Y8199D02*
Y8311D01*
X11157D02*
Y8196D01*
X11149D02*
Y8314D01*
X11222D02*
Y8196D01*
X11135Y8385D02*
Y8432D01*
Y8122D02*
Y8078D01*
X10997Y8384D02*
Y8432D01*
Y8122D02*
Y8078D01*
X11204Y8311D02*
X11212D01*
X11204Y8199D02*
X11198D01*
Y8310D02*
X11190D01*
Y8201D02*
X11182D01*
Y8311D02*
X11173D01*
Y8199D02*
X11165D01*
Y8311D02*
X11157D01*
Y8196D02*
X11149D01*
Y8314D02*
X11222D01*
Y8196D02*
X11149D01*
X11135Y8432D02*
X10997D01*
Y8078D02*
X11135D01*
X10887Y8069D02*
Y7984D01*
Y7839D02*
Y7754D01*
Y8069D02*
X11222D01*
Y7754D02*
X10887D01*
X11009Y7221D02*
X11017D01*
X11009D02*
Y7229D01*
X11017D01*
Y7221D01*
X10992Y7339D02*
X10887D01*
Y7234D02*
X10992D01*
X10397Y7119D02*
X10357Y7159D01*
X10397Y7199D01*
X10357D02*
Y7119D01*
X10317D01*
X10672Y7629D02*
Y7679D01*
X10377D02*
Y7629D01*
X10672Y7844D02*
Y7899D01*
X10377D02*
Y7844D01*
Y7629D02*
X10672D01*
Y7899D02*
X10377D01*
X8837Y8434D02*
Y8679D01*
X10837D02*
Y8434D01*
X8857D02*
X8837D01*
Y8679D02*
X8857D01*
X10817D02*
X10837D01*
Y8434D02*
X10817D01*
X10844Y8291D02*
Y8220D01*
X10766D02*
Y8291D01*
X10021Y8196D02*
X10021Y8193D01*
X10020Y8190D01*
X10019Y8187D01*
X10018Y8184D01*
X10016Y8181D01*
X10014Y8179D01*
X10011Y8177D01*
X10008Y8175D01*
X10006Y8173D01*
X10002Y8172D01*
X9999Y8172D01*
X9996Y8171D01*
X9993Y8172D01*
X9989Y8172D01*
X9986Y8173D01*
X9983Y8175D01*
X9981Y8177D01*
X9978Y8179D01*
X9976Y8181D01*
X9974Y8184D01*
X9973Y8187D01*
X9972Y8190D01*
X9971Y8193D01*
X9971Y8196D01*
X10046D02*
Y7996D01*
X9946D02*
Y8196D01*
X9971D01*
X10021D02*
X10046D01*
Y7996D02*
X9946D01*
D19*
X10967Y7219D02*
Y7149D01*
X10842D02*
Y7219D01*
X10917D02*
X10967D01*
Y7149D02*
X10917D01*
X10887D02*
X10842D01*
Y7219D02*
X10887D01*
X10967Y7149D02*
Y7079D01*
X10842D02*
Y7149D01*
X10922Y7079D02*
X10967D01*
Y7149D02*
X10922D01*
X10892D02*
X10842D01*
Y7079D02*
X10892D01*
X11022Y7154D02*
Y7204D01*
X11092D02*
Y7154D01*
Y7124D02*
Y7079D01*
X11022D02*
Y7124D01*
Y7204D02*
X11092D01*
Y7079D02*
X11022D01*
X11092Y7154D02*
Y7204D01*
X11162D02*
Y7154D01*
Y7124D02*
Y7079D01*
X11092D02*
Y7124D01*
Y7204D02*
X11162D01*
Y7079D02*
X11092D01*
X11117Y7559D02*
Y7604D01*
X11187D02*
Y7559D01*
Y7634D02*
Y7684D01*
X11117D02*
Y7634D01*
Y7559D02*
X11187D01*
Y7684D02*
X11117D01*
X11097Y7514D02*
Y7494D01*
X11187Y7459D02*
Y7454D01*
X11097Y7419D02*
Y7399D01*
Y7514D02*
X11142D01*
Y7399D02*
X11097D01*
X11132Y7284D02*
Y7239D01*
X11202D02*
Y7284D01*
Y7314D02*
Y7364D01*
X11132D02*
Y7314D01*
Y7239D02*
X11202D01*
Y7364D02*
X11132D01*
X10962Y7429D02*
Y7444D01*
X10942Y7489D02*
X10912D01*
Y7384D02*
X10942D01*
X10697Y7389D02*
Y7344D01*
X10767D02*
Y7389D01*
Y7419D02*
Y7469D01*
X10697D02*
Y7419D01*
Y7344D02*
X10767D01*
Y7469D02*
X10697D01*
X10802Y7099D02*
Y7079D01*
X10712Y7134D02*
Y7139D01*
X10802Y7174D02*
Y7194D01*
Y7079D02*
X10757D01*
Y7194D02*
X10802D01*
X9857Y7154D02*
Y7104D01*
X9787D02*
Y7154D01*
Y7184D02*
Y7229D01*
X9857D02*
Y7184D01*
Y7104D02*
X9787D01*
Y7229D02*
X9857D01*
Y7149D02*
Y7104D01*
X9927D02*
Y7149D01*
Y7179D02*
Y7229D01*
X9857D02*
Y7179D01*
Y7104D02*
X9927D01*
Y7229D02*
X9857D01*
X10067Y7149D02*
Y7104D01*
X10137D02*
Y7149D01*
Y7179D02*
Y7229D01*
X10067D02*
Y7179D01*
Y7104D02*
X10137D01*
Y7229D02*
X10067D01*
X9997Y7149D02*
Y7104D01*
X10067D02*
Y7149D01*
Y7179D02*
Y7229D01*
X9997D02*
Y7179D01*
Y7104D02*
X10067D01*
Y7229D02*
X9997D01*
X9927Y7149D02*
Y7104D01*
X9997D02*
Y7149D01*
Y7179D02*
Y7229D01*
X9927D02*
Y7179D01*
Y7104D02*
X9997D01*
Y7229D02*
X9927D01*
X10052Y7524D02*
Y7569D01*
X10122D02*
Y7524D01*
Y7599D02*
Y7649D01*
X10052D02*
Y7599D01*
Y7524D02*
X10122D01*
Y7649D02*
X10052D01*
X10122Y7569D02*
Y7524D01*
X10192D02*
Y7569D01*
Y7599D02*
Y7649D01*
X10122D02*
Y7599D01*
Y7524D02*
X10192D01*
Y7649D02*
X10122D01*
X10192Y7579D02*
Y7509D01*
X10317D02*
Y7579D01*
X10237D02*
X10192D01*
Y7509D02*
X10237D01*
X10267D02*
X10317D01*
Y7579D02*
X10267D01*
X10362Y7509D02*
Y7409D01*
X10127D02*
Y7509D01*
X10287Y7409D02*
X10362D01*
Y7509D02*
X10287D01*
X10202D02*
X10127D01*
Y7409D02*
X10202D01*
X10590Y7444D02*
Y7459D01*
X10552Y7399D02*
X10522D01*
Y7504D02*
X10552D01*
X10252Y7659D02*
Y7734D01*
X10352D02*
Y7659D01*
Y7819D02*
Y7894D01*
X10252D02*
Y7819D01*
Y7659D02*
X10352D01*
Y7894D02*
X10252D01*
X8696Y8143D02*
Y8188D01*
X8766D02*
Y8143D01*
Y8218D02*
Y8268D01*
X8696D02*
Y8218D01*
Y8143D02*
X8766D01*
Y8268D02*
X8696D01*
X8721Y8293D02*
Y8363D01*
X8846D02*
Y8293D01*
X8766Y8363D02*
X8721D01*
Y8293D02*
X8766D01*
X8796D02*
X8846D01*
Y8363D02*
X8796D01*
X8881Y8213D02*
Y8168D01*
X8951D02*
Y8213D01*
Y8243D02*
Y8293D01*
X8881D02*
Y8243D01*
Y8168D02*
X8951D01*
Y8293D02*
X8881D01*
X9191Y8208D02*
Y8163D01*
X9261D02*
Y8208D01*
Y8238D02*
Y8288D01*
X9191D02*
Y8238D01*
Y8163D02*
X9261D01*
Y8288D02*
X9191D01*
X9286Y8208D02*
Y8163D01*
X9356D02*
Y8208D01*
Y8238D02*
Y8288D01*
X9286D02*
Y8238D01*
Y8163D02*
X9356D01*
Y8288D02*
X9286D01*
X9947Y7894D02*
Y7849D01*
X9877D02*
Y7894D01*
Y7819D02*
Y7769D01*
X9947D02*
Y7819D01*
Y7894D02*
X9877D01*
Y7769D02*
X9947D01*
X9962D02*
Y7814D01*
X10032D02*
Y7769D01*
Y7844D02*
Y7894D01*
X9962D02*
Y7844D01*
Y7769D02*
X10032D01*
Y7894D02*
X9962D01*
Y7964D01*
X10087D02*
Y7894D01*
X10007Y7964D02*
X9962D01*
Y7894D02*
X10007D01*
X10037D02*
X10087D01*
Y7964D02*
X10037D01*
X10197Y8744D02*
Y8814D01*
X10322D02*
Y8744D01*
X10242Y8814D02*
X10197D01*
Y8744D02*
X10242D01*
X10272D02*
X10322D01*
Y8814D02*
X10272D01*
X10352D02*
Y8744D01*
X10477D02*
Y8814D01*
X10397D02*
X10352D01*
Y8744D02*
X10397D01*
X10427D02*
X10477D01*
Y8814D02*
X10427D01*
X10712Y8819D02*
Y8719D01*
X10477D02*
Y8819D01*
X10637D02*
X10712D01*
Y8719D02*
X10637D01*
X10552D02*
X10477D01*
Y8819D02*
X10552D01*
X10992Y8774D02*
Y8754D01*
X10902Y8719D02*
Y8714D01*
X10992Y8679D02*
Y8659D01*
Y8774D02*
X10947D01*
Y8659D02*
X10992D01*
X11122Y8739D02*
Y8784D01*
X11052D02*
Y8739D01*
Y8709D02*
Y8659D01*
X11122D02*
Y8709D01*
Y8784D02*
X11052D01*
Y8659D02*
X11122D01*
X11112Y8524D02*
Y8449D01*
X11202D02*
Y8524D01*
Y8564D02*
Y8639D01*
X11112D02*
Y8564D01*
Y8449D02*
X11202D01*
Y8639D02*
X11112D01*
X10627Y8349D02*
Y8279D01*
X10752D02*
Y8349D01*
X10672D02*
X10627D01*
Y8279D02*
X10672D01*
X10702D02*
X10752D01*
Y8349D02*
X10702D01*
X10681Y8153D02*
Y8108D01*
X10751D02*
Y8153D01*
Y8183D02*
Y8233D01*
X10681D02*
Y8183D01*
Y8108D02*
X10751D01*
Y8233D02*
X10681D01*
X10866Y8153D02*
Y8108D01*
X10936D02*
Y8153D01*
Y8183D02*
Y8233D01*
X10866D02*
Y8183D01*
Y8108D02*
X10936D01*
Y8233D02*
X10866D01*
X10871Y8093D02*
Y8048D01*
X10801D02*
Y8093D01*
Y8018D02*
Y7968D01*
X10871D02*
Y8018D01*
Y8093D02*
X10801D01*
Y7968D02*
X10871D01*
X10801Y8048D02*
Y8093D01*
X10731D02*
Y8048D01*
Y8018D02*
Y7968D01*
X10801D02*
Y8018D01*
Y8093D02*
X10731D01*
Y7968D02*
X10801D01*
X10687Y8034D02*
Y8079D01*
X10572D02*
Y8034D01*
X10667Y8079D02*
X10687D01*
X10632Y7989D02*
X10627D01*
X10592Y8079D02*
X10572D01*
X10551Y8083D02*
Y8038D01*
X10481D02*
Y8083D01*
Y8008D02*
Y7958D01*
X10551D02*
Y8008D01*
Y8083D02*
X10481D01*
Y7958D02*
X10551D01*
X10237Y8024D02*
Y8069D01*
X10307D02*
Y8024D01*
Y8099D02*
Y8149D01*
X10237D02*
Y8099D01*
Y8024D02*
X10307D01*
Y8149D02*
X10237D01*
X10407Y8139D02*
Y8109D01*
X10327D02*
Y8139D01*
X10360Y8153D02*
X10375D01*
X10312Y8194D02*
Y8239D01*
X10382D02*
Y8194D01*
Y8269D02*
Y8319D01*
X10312D02*
Y8269D01*
Y8194D02*
X10382D01*
Y8319D02*
X10312D01*
X10222Y8224D02*
Y8149D01*
X10312D02*
Y8224D01*
Y8264D02*
Y8339D01*
X10222D02*
Y8264D01*
Y8149D02*
X10312D01*
Y8339D02*
X10222D01*
X10221Y8193D02*
Y8148D01*
X10151D02*
Y8193D01*
Y8118D02*
Y8068D01*
X10221D02*
Y8118D01*
Y8193D02*
X10151D01*
Y8068D02*
X10221D01*
X10186Y8218D02*
Y8288D01*
X10061D02*
Y8218D01*
X10141D02*
X10186D01*
Y8288D02*
X10141D01*
X10111D02*
X10061D01*
Y8218D02*
X10111D01*
X10186Y8288D02*
Y8358D01*
X10061D02*
Y8288D01*
X10141D02*
X10186D01*
Y8358D02*
X10141D01*
X10111D02*
X10061D01*
Y8288D02*
X10111D01*
X10056D02*
Y8358D01*
X9931D02*
Y8288D01*
X10011D02*
X10056D01*
Y8358D02*
X10011D01*
X9981D02*
X9931D01*
Y8288D02*
X9981D01*
X9931D02*
Y8218D01*
X10056D02*
Y8288D01*
X9976D02*
X9931D01*
Y8218D02*
X9976D01*
X10006D02*
X10056D01*
Y8288D02*
X10006D01*
X9846Y8263D02*
Y8218D01*
X9916D02*
Y8263D01*
Y8293D02*
Y8343D01*
X9846D02*
Y8293D01*
Y8218D02*
X9916D01*
Y8343D02*
X9846D01*
X9747Y7824D02*
Y7779D01*
X9817D02*
Y7824D01*
Y7854D02*
Y7904D01*
X9747D02*
Y7854D01*
Y7779D02*
X9817D01*
Y7904D02*
X9747D01*
X9842Y7749D02*
Y7679D01*
X9967D02*
Y7749D01*
X9887D02*
X9842D01*
Y7679D02*
X9887D01*
X9917D02*
X9967D01*
Y7749D02*
X9917D01*
X9931Y7626D02*
Y7611D01*
X9917Y7579D02*
X9887D01*
Y7659D02*
X9917D01*
X9737Y7664D02*
Y7589D01*
X9827D02*
Y7664D01*
Y7704D02*
Y7779D01*
X9737D02*
Y7704D01*
Y7589D02*
X9827D01*
Y7779D02*
X9737D01*
X9752Y7509D02*
Y7464D01*
X9822D02*
Y7509D01*
Y7539D02*
Y7589D01*
X9752D02*
Y7539D01*
Y7464D02*
X9822D01*
Y7589D02*
X9752D01*
X9318Y7878D02*
Y7938D01*
X9201D02*
Y7878D01*
X9276Y7938D02*
X9318D01*
Y7878D02*
X9276D01*
X9246D02*
X9201D01*
Y7938D02*
X9246D01*
X9318Y7878D02*
Y7818D01*
X9201D02*
Y7878D01*
X9276D02*
X9318D01*
Y7818D02*
X9276D01*
X9246D02*
X9201D01*
Y7878D02*
X9246D01*
D02*
M02*
