*%FSLAX23Y23*%
*%MOIN*%
G01*
%ADD11C,0.000*%
%ADD12C,0.001*%
%ADD13C,0.002*%
%ADD14C,0.006*%
%ADD15C,0.007*%
%ADD16C,0.007*%
%ADD17C,0.008*%
%ADD18C,0.010*%
%ADD19C,0.012*%
%ADD20C,0.015*%
%ADD21C,0.015*%
%ADD22C,0.018*%
%ADD23C,0.022*%
%ADD24C,0.024*%
%ADD25C,0.025*%
%ADD26C,0.029*%
%ADD27C,0.031*%
%ADD28C,0.031*%
%ADD29C,0.035*%
%ADD30C,0.035*%
%ADD31C,0.039*%
%ADD32C,0.039*%
%ADD33C,0.046*%
%ADD34C,0.050*%
%ADD35C,0.051*%
%ADD36C,0.051*%
%ADD37C,0.054*%
%ADD38C,0.055*%
%ADD39C,0.059*%
%ADD40C,0.059*%
%ADD41C,0.070*%
%ADD42C,0.074*%
%ADD43C,0.115*%
%ADD44C,0.135*%
%ADD45C,0.138*%
%ADD46C,0.138*%
%ADD47C,0.158*%
%ADD48C,0.158*%
%ADD49C,0.190*%
%ADD50C,0.194*%
%ADD51C,0.236*%
%ADD52C,0.240*%
%ADD53R,0.011X0.030*%
%ADD54R,0.012X0.030*%
%ADD55R,0.014X0.033*%
%ADD56R,0.014X0.037*%
%ADD57R,0.015X0.034*%
%ADD58R,0.016X0.034*%
%ADD59R,0.018X0.037*%
%ADD60R,0.018X0.041*%
%ADD61R,0.020X0.025*%
%ADD62R,0.021X0.021*%
%ADD63R,0.024X0.029*%
%ADD64R,0.025X0.020*%
%ADD65R,0.029X0.024*%
%ADD66R,0.030X0.011*%
%ADD67R,0.030X0.030*%
%ADD68R,0.031X0.031*%
%ADD69R,0.033X0.014*%
%ADD70R,0.034X0.015*%
%ADD71R,0.034X0.034*%
%ADD72R,0.035X0.035*%
%ADD73R,0.037X0.014*%
%ADD74R,0.037X0.018*%
%ADD75R,0.039X0.055*%
%ADD76R,0.039X0.014*%
%ADD77R,0.041X0.018*%
%ADD78R,0.043X0.059*%
%ADD79R,0.043X0.018*%
%ADD80R,0.047X0.055*%
%ADD81R,0.048X0.024*%
%ADD82R,0.050X0.023*%
%ADD83R,0.050X0.060*%
%ADD84R,0.050X0.135*%
%ADD85R,0.051X0.071*%
%ADD86R,0.051X0.059*%
%ADD87R,0.052X0.028*%
%ADD88R,0.054X0.027*%
%ADD89R,0.054X0.064*%
%ADD90R,0.054X0.139*%
%ADD91R,0.055X0.039*%
%ADD92R,0.055X0.075*%
%ADD93R,0.057X0.012*%
%ADD94R,0.057X0.067*%
%ADD95R,0.059X0.043*%
%ADD96R,0.060X0.060*%
%ADD97R,0.061X0.024*%
%ADD98R,0.061X0.051*%
%ADD99R,0.061X0.016*%
%ADD100R,0.061X0.071*%
%ADD101R,0.063X0.039*%
%ADD102R,0.064X0.064*%
%ADD103R,0.065X0.028*%
%ADD104R,0.065X0.055*%
%ADD105R,0.067X0.043*%
%ADD106R,0.085X0.030*%
%ADD107R,0.089X0.034*%
%ADD108R,0.094X0.030*%
%ADD109R,0.098X0.034*%
%ADD110R,0.104X0.104*%
%ADD111R,0.108X0.108*%
%ADD112R,0.116X0.138*%
%ADD113R,0.120X0.142*%
%ADD114R,0.134X0.059*%
%ADD115R,0.138X0.039*%
%ADD116R,0.138X0.063*%
%ADD117R,0.142X0.043*%
%ADD118R,0.169X0.169*%
%ADD119R,0.173X0.173*%
%ADD120R,0.250X0.250*%
D11*
X10953Y8513D02*
Y8546D01*
X10970Y8563D01*
X10987Y8546D01*
Y8513D01*
Y8538D01*
X10953D01*
X10536Y8229D02*
Y8179D01*
X10561D01*
X10569Y8187D01*
Y8196D01*
X10561Y8204D01*
X10536D01*
X10537D01*
X10536D02*
X10537D01*
X10536D02*
X10537D01*
X10536D02*
X10561D01*
X10569Y8212D01*
Y8221D01*
X10561Y8229D01*
X10536D01*
X10953Y7641D02*
Y7608D01*
Y7641D02*
X10970Y7658D01*
X10987Y7641D01*
Y7608D01*
Y7633D01*
X10953D01*
X10536Y7316D02*
Y7266D01*
X10561D01*
X10569Y7274D01*
Y7282D01*
X10561Y7291D01*
X10536D01*
X10537D01*
X10536D02*
X10537D01*
X10536D02*
X10537D01*
X10536D02*
X10561D01*
X10569Y7299D01*
Y7307D01*
X10561Y7316D01*
X10536D01*
X9599Y8179D02*
Y8229D01*
Y8179D02*
X9624D01*
X9632Y8187D01*
Y8196D01*
X9624Y8204D01*
X9599D01*
X9600D01*
X9599D02*
X9600D01*
X9599D02*
X9600D01*
X9599D02*
X9624D01*
X9632Y8212D01*
Y8221D01*
X9624Y8229D01*
X9599D01*
X10397Y8019D02*
X10405Y8011D01*
X10397Y8019D02*
X10380D01*
X10372Y8011D01*
Y7977D01*
X10380Y7969D01*
X10397D01*
X10405Y7977D01*
X9599Y7316D02*
Y7266D01*
X9624D01*
X9632Y7274D01*
Y7282D01*
X9624Y7291D01*
X9599D01*
X9600D01*
X9599D02*
X9600D01*
X9599D02*
X9600D01*
X9599D02*
X9624D01*
X9632Y7299D01*
Y7307D01*
X9624Y7316D01*
X9599D01*
X8670Y8513D02*
Y8546D01*
X8686Y8563D01*
X8703Y8546D01*
Y8513D01*
Y8538D01*
X8670D01*
Y7641D02*
Y7608D01*
Y7641D02*
X8686Y7658D01*
X8703Y7641D01*
Y7608D01*
Y7633D01*
X8670D01*
X11157Y8139D02*
X11165Y8131D01*
X11157Y8139D02*
X11140D01*
X11132Y8131D01*
Y8097D01*
X11140Y8089D01*
X11157D01*
X11165Y8097D01*
X11050Y8771D02*
X11042Y8779D01*
X11025D01*
X11017Y8771D01*
Y8737D01*
X11025Y8729D01*
X11042D01*
X11050Y8737D01*
X10985Y8776D02*
X10977Y8784D01*
X10960D01*
X10952Y8776D01*
Y8742D01*
X10960Y8734D01*
X10977D01*
X10985Y8742D01*
X11042Y8694D02*
X11050Y8686D01*
X11042Y8694D02*
X11025D01*
X11017Y8686D01*
Y8652D01*
X11025Y8644D01*
X11042D01*
X11050Y8652D01*
X11122Y8139D02*
X11130Y8131D01*
X11122Y8139D02*
X11105D01*
X11097Y8131D01*
Y8097D01*
X11105Y8089D01*
X11122D01*
X11130Y8097D01*
X10977Y7254D02*
X10985Y7246D01*
X10977Y7254D02*
X10960D01*
X10952Y7246D01*
Y7212D01*
X10960Y7204D01*
X10977D01*
X10985Y7212D01*
X11040Y7896D02*
X11032Y7904D01*
X11015D01*
X11007Y7896D01*
Y7862D01*
X11015Y7854D01*
X11032D01*
X11040Y7862D01*
X11006Y7143D02*
X11014Y7135D01*
X11006Y7143D02*
X10989D01*
X10981Y7135D01*
Y7101D01*
X10989Y7093D01*
X11006D01*
X11014Y7101D01*
X11105Y7351D02*
X11097Y7359D01*
X11080D01*
X11072Y7351D01*
Y7317D01*
X11080Y7309D01*
X11097D01*
X11105Y7317D01*
Y7421D02*
X11097Y7429D01*
X11080D01*
X11072Y7421D01*
Y7387D01*
X11080Y7379D01*
X11097D01*
X11105Y7387D01*
X11080Y8091D02*
X11072Y8099D01*
X11055D01*
X11047Y8091D01*
Y8057D01*
X11055Y8049D01*
X11072D01*
X11080Y8057D01*
X11122Y8104D02*
X11130Y8096D01*
X11122Y8104D02*
X11105D01*
X11097Y8096D01*
Y8062D01*
X11105Y8054D01*
X11122D01*
X11130Y8062D01*
X11102Y7754D02*
X11110Y7746D01*
X11102Y7754D02*
X11085D01*
X11077Y7746D01*
Y7712D01*
X11085Y7704D01*
X11102D01*
X11110Y7712D01*
X10760Y8776D02*
X10752Y8784D01*
X10735D01*
X10727Y8776D01*
Y8742D01*
X10735Y8734D01*
X10752D01*
X10760Y8742D01*
X10852Y8769D02*
X10860Y8761D01*
X10852Y8769D02*
X10835D01*
X10827Y8761D01*
Y8727D01*
X10835Y8719D01*
X10852D01*
X10860Y8727D01*
X10852Y8704D02*
X10860Y8696D01*
X10852Y8704D02*
X10835D01*
X10827Y8696D01*
Y8662D01*
X10835Y8654D01*
X10852D01*
X10860Y8662D01*
X10792Y8259D02*
X10800Y8251D01*
X10792Y8259D02*
X10775D01*
X10767Y8251D01*
Y8217D01*
X10775Y8209D01*
X10792D01*
X10800Y8217D01*
Y8291D02*
X10792Y8299D01*
X10775D01*
X10767Y8291D01*
Y8257D01*
X10775Y8249D01*
X10792D01*
X10800Y8257D01*
X10814Y8271D02*
X10806Y8279D01*
X10789D01*
X10781Y8271D01*
Y8237D01*
X10789Y8229D01*
X10806D01*
X10814Y8237D01*
X10829Y8251D02*
X10821Y8259D01*
X10804D01*
X10796Y8251D01*
Y8217D01*
X10804Y8209D01*
X10821D01*
X10829Y8217D01*
Y8291D02*
X10821Y8299D01*
X10804D01*
X10796Y8291D01*
Y8257D01*
X10804Y8249D01*
X10821D01*
X10829Y8257D01*
X10861Y8263D02*
X10869Y8255D01*
X10861Y8263D02*
X10844D01*
X10836Y8255D01*
Y8221D01*
X10844Y8213D01*
X10861D01*
X10869Y8221D01*
Y8295D02*
X10861Y8303D01*
X10844D01*
X10836Y8295D01*
Y8261D01*
X10844Y8253D01*
X10861D01*
X10869Y8261D01*
X10864Y8395D02*
X10856Y8403D01*
X10839D01*
X10831Y8395D01*
Y8361D01*
X10839Y8353D01*
X10856D01*
X10864Y8361D01*
X10796Y8128D02*
X10804Y8120D01*
X10796Y8128D02*
X10779D01*
X10771Y8120D01*
Y8086D01*
X10779Y8078D01*
X10796D01*
X10804Y8086D01*
X10931Y8128D02*
X10939Y8120D01*
X10931Y8128D02*
X10914D01*
X10906Y8120D01*
Y8086D01*
X10914Y8078D01*
X10931D01*
X10939Y8086D01*
X10792Y7399D02*
X10800Y7391D01*
X10792Y7399D02*
X10775D01*
X10767Y7391D01*
Y7357D01*
X10775Y7349D01*
X10792D01*
X10800Y7357D01*
X10785Y7556D02*
X10777Y7564D01*
X10760D01*
X10752Y7556D01*
Y7522D01*
X10760Y7514D01*
X10777D01*
X10785Y7522D01*
X10792Y7479D02*
X10800Y7471D01*
X10792Y7479D02*
X10775D01*
X10767Y7471D01*
Y7437D01*
X10775Y7429D01*
X10792D01*
X10800Y7437D01*
X10840Y7786D02*
X10832Y7794D01*
X10815D01*
X10807Y7786D01*
Y7752D01*
X10815Y7744D01*
X10832D01*
X10840Y7752D01*
X10796Y7078D02*
X10804Y7070D01*
X10796Y7078D02*
X10779D01*
X10771Y7070D01*
Y7036D01*
X10779Y7028D01*
X10796D01*
X10804Y7036D01*
X10819Y7965D02*
X10811Y7973D01*
X10794D01*
X10786Y7965D01*
Y7931D01*
X10794Y7923D01*
X10811D01*
X10819Y7931D01*
X10854Y7965D02*
X10846Y7973D01*
X10829D01*
X10821Y7965D01*
Y7931D01*
X10829Y7923D01*
X10846D01*
X10854Y7931D01*
X10932Y7354D02*
X10940Y7346D01*
X10932Y7354D02*
X10915D01*
X10907Y7346D01*
Y7312D01*
X10915Y7304D01*
X10932D01*
X10940Y7312D01*
X10896Y7078D02*
X10904Y7070D01*
X10896Y7078D02*
X10879D01*
X10871Y7070D01*
Y7036D01*
X10879Y7028D01*
X10896D01*
X10904Y7036D01*
X10680Y8261D02*
X10672Y8269D01*
X10655D01*
X10647Y8261D01*
Y8227D01*
X10655Y8219D01*
X10672D01*
X10680Y8227D01*
X10620Y8331D02*
X10612Y8339D01*
X10595D01*
X10587Y8331D01*
Y8297D01*
X10595Y8289D01*
X10612D01*
X10620Y8297D01*
X10595Y8556D02*
X10587Y8564D01*
X10570D01*
X10562Y8556D01*
Y8522D01*
X10570Y8514D01*
X10587D01*
X10595Y8522D01*
X10687Y8564D02*
X10695Y8556D01*
X10687Y8564D02*
X10670D01*
X10662Y8556D01*
Y8522D01*
X10670Y8514D01*
X10687D01*
X10695Y8522D01*
X10740Y8746D02*
X10732Y8754D01*
X10715D01*
X10707Y8746D01*
Y8712D01*
X10715Y8704D01*
X10732D01*
X10740Y8712D01*
X10595Y8776D02*
X10587Y8784D01*
X10570D01*
X10562Y8776D01*
Y8742D01*
X10570Y8734D01*
X10587D01*
X10595Y8742D01*
X10746Y8303D02*
X10754Y8295D01*
X10746Y8303D02*
X10729D01*
X10721Y8295D01*
Y8261D01*
X10729Y8253D01*
X10746D01*
X10754Y8261D01*
Y8255D02*
X10746Y8263D01*
X10729D01*
X10721Y8255D01*
Y8221D01*
X10729Y8213D01*
X10746D01*
X10754Y8221D01*
X10577Y7564D02*
X10585Y7556D01*
X10577Y7564D02*
X10560D01*
X10552Y7556D01*
Y7522D01*
X10560Y7514D01*
X10577D01*
X10585Y7522D01*
X10596Y7078D02*
X10604Y7070D01*
X10596Y7078D02*
X10579D01*
X10571Y7070D01*
Y7036D01*
X10579Y7028D01*
X10596D01*
X10604Y7036D01*
X10696Y7078D02*
X10704Y7070D01*
X10696Y7078D02*
X10679D01*
X10671Y7070D01*
Y7036D01*
X10679Y7028D01*
X10696D01*
X10704Y7036D01*
X10714Y7615D02*
X10706Y7623D01*
X10689D01*
X10681Y7615D01*
Y7581D01*
X10689Y7573D01*
X10706D01*
X10714Y7581D01*
X10734Y8090D02*
X10726Y8098D01*
X10709D01*
X10701Y8090D01*
Y8056D01*
X10709Y8048D01*
X10726D01*
X10734Y8056D01*
X10572Y7174D02*
X10580Y7166D01*
X10572Y7174D02*
X10555D01*
X10547Y7166D01*
Y7132D01*
X10555Y7124D01*
X10572D01*
X10580Y7132D01*
X10610Y7616D02*
X10602Y7624D01*
X10585D01*
X10577Y7616D01*
Y7582D01*
X10585Y7574D01*
X10602D01*
X10610Y7582D01*
X10495Y8556D02*
X10487Y8564D01*
X10470D01*
X10462Y8556D01*
Y8522D01*
X10470Y8514D01*
X10487D01*
X10495Y8522D01*
X10445Y8556D02*
X10437Y8564D01*
X10420D01*
X10412Y8556D01*
Y8522D01*
X10420Y8514D01*
X10437D01*
X10445Y8522D01*
X10437Y8409D02*
X10445Y8401D01*
X10437Y8409D02*
X10420D01*
X10412Y8401D01*
Y8367D01*
X10420Y8359D01*
X10437D01*
X10445Y8367D01*
X10432Y7474D02*
X10440Y7466D01*
X10432Y7474D02*
X10415D01*
X10407Y7466D01*
Y7432D01*
X10415Y7424D01*
X10432D01*
X10440Y7432D01*
Y7431D02*
X10432Y7439D01*
X10415D01*
X10407Y7431D01*
Y7397D01*
X10415Y7389D01*
X10432D01*
X10440Y7397D01*
X10542Y7474D02*
X10550Y7466D01*
X10542Y7474D02*
X10525D01*
X10517Y7466D01*
Y7432D01*
X10525Y7424D01*
X10542D01*
X10550Y7432D01*
Y7431D02*
X10542Y7439D01*
X10525D01*
X10517Y7431D01*
Y7397D01*
X10525Y7389D01*
X10542D01*
X10550Y7397D01*
X10496Y7078D02*
X10504Y7070D01*
X10496Y7078D02*
X10479D01*
X10471Y7070D01*
Y7036D01*
X10479Y7028D01*
X10496D01*
X10504Y7036D01*
X10515Y7141D02*
X10507Y7149D01*
X10490D01*
X10482Y7141D01*
Y7107D01*
X10490Y7099D01*
X10507D01*
X10515Y7107D01*
X10455Y8071D02*
X10447Y8079D01*
X10430D01*
X10422Y8071D01*
Y8037D01*
X10430Y8029D01*
X10447D01*
X10455Y8037D01*
X10400Y8361D02*
X10392Y8369D01*
X10375D01*
X10367Y8361D01*
Y8327D01*
X10375Y8319D01*
X10392D01*
X10400Y8327D01*
X10392Y8234D02*
X10400Y8226D01*
X10392Y8234D02*
X10375D01*
X10367Y8226D01*
Y8192D01*
X10375Y8184D01*
X10392D01*
X10400Y8192D01*
X10402Y7474D02*
X10410Y7466D01*
X10402Y7474D02*
X10385D01*
X10377Y7466D01*
Y7432D01*
X10385Y7424D01*
X10402D01*
X10410Y7432D01*
Y7431D02*
X10402Y7439D01*
X10385D01*
X10377Y7431D01*
Y7397D01*
X10385Y7389D01*
X10402D01*
X10410Y7397D01*
X10397Y7254D02*
X10405Y7246D01*
X10397Y7254D02*
X10380D01*
X10372Y7246D01*
Y7212D01*
X10380Y7204D01*
X10397D01*
X10405Y7212D01*
X10396Y7078D02*
X10404Y7070D01*
X10396Y7078D02*
X10379D01*
X10371Y7070D01*
Y7036D01*
X10379Y7028D01*
X10396D01*
X10404Y7036D01*
X10369Y8030D02*
X10361Y8038D01*
X10344D01*
X10336Y8030D01*
Y7996D01*
X10344Y7988D01*
X10361D01*
X10369Y7996D01*
X10245Y8556D02*
X10237Y8564D01*
X10220D01*
X10212Y8556D01*
Y8522D01*
X10220Y8514D01*
X10237D01*
X10245Y8522D01*
X10287Y8564D02*
X10295Y8556D01*
X10287Y8564D02*
X10270D01*
X10262Y8556D01*
Y8522D01*
X10270Y8514D01*
X10287D01*
X10295Y8522D01*
X10195Y8556D02*
X10187Y8564D01*
X10170D01*
X10162Y8556D01*
Y8522D01*
X10170Y8514D01*
X10187D01*
X10195Y8522D01*
X10345Y8776D02*
X10337Y8784D01*
X10320D01*
X10312Y8776D01*
Y8742D01*
X10320Y8734D01*
X10337D01*
X10345Y8742D01*
X10195Y8776D02*
X10187Y8784D01*
X10170D01*
X10162Y8776D01*
Y8742D01*
X10170Y8734D01*
X10187D01*
X10195Y8742D01*
X10227Y8154D02*
X10235Y8146D01*
X10227Y8154D02*
X10210D01*
X10202Y8146D01*
Y8112D01*
X10210Y8104D01*
X10227D01*
X10235Y8112D01*
X10296Y7078D02*
X10304Y7070D01*
X10296Y7078D02*
X10279D01*
X10271Y7070D01*
Y7036D01*
X10279Y7028D01*
X10296D01*
X10304Y7036D01*
X10204Y7070D02*
X10196Y7078D01*
X10179D01*
X10171Y7070D01*
Y7036D01*
X10179Y7028D01*
X10196D01*
X10204Y7036D01*
X10180Y7801D02*
X10172Y7809D01*
X10155D01*
X10147Y7801D01*
Y7767D01*
X10155Y7759D01*
X10172D01*
X10180Y7767D01*
X10172Y7759D02*
X10180Y7751D01*
X10172Y7759D02*
X10155D01*
X10147Y7751D01*
Y7717D01*
X10155Y7709D01*
X10172D01*
X10180Y7717D01*
X10195Y7901D02*
X10187Y7909D01*
X10170D01*
X10162Y7901D01*
Y7867D01*
X10170Y7859D01*
X10187D01*
X10195Y7867D01*
X10235Y7901D02*
X10227Y7909D01*
X10210D01*
X10202Y7901D01*
Y7867D01*
X10210Y7859D01*
X10227D01*
X10235Y7867D01*
X10317Y7254D02*
X10325Y7246D01*
X10317Y7254D02*
X10300D01*
X10292Y7246D01*
Y7212D01*
X10300Y7204D01*
X10317D01*
X10325Y7212D01*
X10235Y8016D02*
X10227Y8024D01*
X10210D01*
X10202Y8016D01*
Y7982D01*
X10210Y7974D01*
X10227D01*
X10235Y7982D01*
X10145Y8556D02*
X10137Y8564D01*
X10120D01*
X10112Y8556D01*
Y8522D01*
X10120Y8514D01*
X10137D01*
X10145Y8522D01*
Y8746D02*
X10137Y8754D01*
X10120D01*
X10112Y8746D01*
Y8712D01*
X10120Y8704D01*
X10137D01*
X10145Y8712D01*
X10090Y8756D02*
X10082Y8764D01*
X10065D01*
X10057Y8756D01*
Y8722D01*
X10065Y8714D01*
X10082D01*
X10090Y8722D01*
X10066Y8243D02*
X10074Y8235D01*
X10066Y8243D02*
X10049D01*
X10041Y8235D01*
Y8201D01*
X10049Y8193D01*
X10066D01*
X10074Y8201D01*
X10032Y7119D02*
X10040Y7111D01*
X10032Y7119D02*
X10015D01*
X10007Y7111D01*
Y7077D01*
X10015Y7069D01*
X10032D01*
X10040Y7077D01*
X10096Y7078D02*
X10104Y7070D01*
X10096Y7078D02*
X10079D01*
X10071Y7070D01*
Y7036D01*
X10079Y7028D01*
X10096D01*
X10104Y7036D01*
X10004Y7070D02*
X9996Y7078D01*
X9979D01*
X9971Y7070D01*
Y7036D01*
X9979Y7028D01*
X9996D01*
X10004Y7036D01*
X10110Y7476D02*
X10102Y7484D01*
X10085D01*
X10077Y7476D01*
Y7442D01*
X10085Y7434D01*
X10102D01*
X10110Y7442D01*
X10105Y7801D02*
X10097Y7809D01*
X10080D01*
X10072Y7801D01*
Y7767D01*
X10080Y7759D01*
X10097D01*
X10105Y7767D01*
X10097Y7759D02*
X10105Y7751D01*
X10097Y7759D02*
X10080D01*
X10072Y7751D01*
Y7717D01*
X10080Y7709D01*
X10097D01*
X10105Y7717D01*
X10150Y7901D02*
X10142Y7909D01*
X10125D01*
X10117Y7901D01*
Y7867D01*
X10125Y7859D01*
X10142D01*
X10150Y7867D01*
X10137Y7809D02*
X10145Y7801D01*
X10137Y7809D02*
X10120D01*
X10112Y7801D01*
Y7767D01*
X10120Y7759D01*
X10137D01*
X10145Y7767D01*
X10137Y7759D02*
X10145Y7751D01*
X10137Y7759D02*
X10120D01*
X10112Y7751D01*
Y7717D01*
X10120Y7709D01*
X10137D01*
X10145Y7717D01*
X9845Y8556D02*
X9837Y8564D01*
X9820D01*
X9812Y8556D01*
Y8522D01*
X9820Y8514D01*
X9837D01*
X9845Y8522D01*
X9887Y8564D02*
X9895Y8556D01*
X9887Y8564D02*
X9870D01*
X9862Y8556D01*
Y8522D01*
X9870Y8514D01*
X9887D01*
X9895Y8522D01*
X9795Y8556D02*
X9787Y8564D01*
X9770D01*
X9762Y8556D01*
Y8522D01*
X9770Y8514D01*
X9787D01*
X9795Y8522D01*
X9945Y8691D02*
X9937Y8699D01*
X9920D01*
X9912Y8691D01*
Y8657D01*
X9920Y8649D01*
X9937D01*
X9945Y8657D01*
X9922Y8369D02*
X9930Y8361D01*
X9922Y8369D02*
X9905D01*
X9897Y8361D01*
Y8327D01*
X9905Y8319D01*
X9922D01*
X9930Y8327D01*
X9895Y8776D02*
X9887Y8784D01*
X9870D01*
X9862Y8776D01*
Y8742D01*
X9870Y8734D01*
X9887D01*
X9895Y8742D01*
X9837Y8409D02*
X9845Y8401D01*
X9837Y8409D02*
X9820D01*
X9812Y8401D01*
Y8367D01*
X9820Y8359D01*
X9837D01*
X9845Y8367D01*
X9966Y8048D02*
X9974Y8040D01*
X9966Y8048D02*
X9949D01*
X9941Y8040D01*
Y8006D01*
X9949Y7998D01*
X9966D01*
X9974Y8006D01*
X9877Y7379D02*
X9885Y7371D01*
X9877Y7379D02*
X9860D01*
X9852Y7371D01*
Y7337D01*
X9860Y7329D01*
X9877D01*
X9885Y7337D01*
X9777Y7219D02*
X9785Y7211D01*
X9777Y7219D02*
X9760D01*
X9752Y7211D01*
Y7177D01*
X9760Y7169D01*
X9777D01*
X9785Y7177D01*
X9892Y7119D02*
X9900Y7111D01*
X9892Y7119D02*
X9875D01*
X9867Y7111D01*
Y7077D01*
X9875Y7069D01*
X9892D01*
X9900Y7077D01*
X9896Y7078D02*
X9904Y7070D01*
X9896Y7078D02*
X9879D01*
X9871Y7070D01*
Y7036D01*
X9879Y7028D01*
X9896D01*
X9904Y7036D01*
X9804Y7070D02*
X9796Y7078D01*
X9779D01*
X9771Y7070D01*
Y7036D01*
X9779Y7028D01*
X9796D01*
X9804Y7036D01*
X9834Y7850D02*
X9826Y7858D01*
X9809D01*
X9801Y7850D01*
Y7816D01*
X9809Y7808D01*
X9826D01*
X9834Y7816D01*
X9846Y7708D02*
X9854Y7700D01*
X9846Y7708D02*
X9829D01*
X9821Y7700D01*
Y7666D01*
X9829Y7658D01*
X9846D01*
X9854Y7666D01*
X9784Y8070D02*
X9776Y8078D01*
X9759D01*
X9751Y8070D01*
Y8036D01*
X9759Y8028D01*
X9776D01*
X9784Y8036D01*
X9786Y7933D02*
X9794Y7925D01*
X9786Y7933D02*
X9769D01*
X9761Y7925D01*
Y7891D01*
X9769Y7883D01*
X9786D01*
X9794Y7891D01*
X9834Y7970D02*
X9826Y7978D01*
X9809D01*
X9801Y7970D01*
Y7936D01*
X9809Y7928D01*
X9826D01*
X9834Y7936D01*
X9809Y7995D02*
X9801Y8003D01*
X9784D01*
X9776Y7995D01*
Y7961D01*
X9784Y7953D01*
X9801D01*
X9809Y7961D01*
X9946Y7933D02*
X9954Y7925D01*
X9946Y7933D02*
X9929D01*
X9921Y7925D01*
Y7891D01*
X9929Y7883D01*
X9946D01*
X9954Y7891D01*
X9885Y8001D02*
X9877Y8009D01*
X9860D01*
X9852Y8001D01*
Y7967D01*
X9860Y7959D01*
X9877D01*
X9885Y7967D01*
X9735Y8361D02*
X9727Y8369D01*
X9710D01*
X9702Y8361D01*
Y8327D01*
X9710Y8319D01*
X9727D01*
X9735Y8327D01*
X9745Y8746D02*
X9737Y8754D01*
X9720D01*
X9712Y8746D01*
Y8712D01*
X9720Y8704D01*
X9737D01*
X9745Y8712D01*
X9737Y8564D02*
X9745Y8556D01*
X9737Y8564D02*
X9720D01*
X9712Y8556D01*
Y8522D01*
X9720Y8514D01*
X9737D01*
X9745Y8522D01*
X9695Y8556D02*
X9687Y8564D01*
X9670D01*
X9662Y8556D01*
Y8522D01*
X9670Y8514D01*
X9687D01*
X9695Y8522D01*
X9645Y8666D02*
X9637Y8674D01*
X9620D01*
X9612Y8666D01*
Y8632D01*
X9620Y8624D01*
X9637D01*
X9645Y8632D01*
X9737Y8410D02*
X9745Y8402D01*
X9737Y8410D02*
X9720D01*
X9712Y8402D01*
Y8368D01*
X9720Y8360D01*
X9737D01*
X9745Y8368D01*
X9696Y7078D02*
X9704Y7070D01*
X9696Y7078D02*
X9679D01*
X9671Y7070D01*
Y7036D01*
X9679Y7028D01*
X9696D01*
X9704Y7036D01*
X9604Y7070D02*
X9596Y7078D01*
X9579D01*
X9571Y7070D01*
Y7036D01*
X9579Y7028D01*
X9596D01*
X9604Y7036D01*
Y7665D02*
X9596Y7673D01*
X9579D01*
X9571Y7665D01*
Y7631D01*
X9579Y7623D01*
X9596D01*
X9604Y7631D01*
X9639Y7735D02*
X9631Y7743D01*
X9614D01*
X9606Y7735D01*
Y7701D01*
X9614Y7693D01*
X9631D01*
X9639Y7701D01*
Y7855D02*
X9631Y7863D01*
X9614D01*
X9606Y7855D01*
Y7821D01*
X9614Y7813D01*
X9631D01*
X9639Y7821D01*
X9646Y7438D02*
X9654Y7430D01*
X9646Y7438D02*
X9629D01*
X9621Y7430D01*
Y7396D01*
X9629Y7388D01*
X9646D01*
X9654Y7396D01*
X9715Y7976D02*
X9707Y7984D01*
X9690D01*
X9682Y7976D01*
Y7942D01*
X9690Y7934D01*
X9707D01*
X9715Y7942D01*
X9746Y7613D02*
X9754Y7605D01*
X9746Y7613D02*
X9729D01*
X9721Y7605D01*
Y7571D01*
X9729Y7563D01*
X9746D01*
X9754Y7571D01*
X9750Y7976D02*
X9742Y7984D01*
X9725D01*
X9717Y7976D01*
Y7942D01*
X9725Y7934D01*
X9742D01*
X9750Y7942D01*
X9545Y8776D02*
X9537Y8784D01*
X9520D01*
X9512Y8776D01*
Y8742D01*
X9520Y8734D01*
X9537D01*
X9545Y8742D01*
X9537Y8444D02*
X9545Y8436D01*
X9537Y8444D02*
X9520D01*
X9512Y8436D01*
Y8402D01*
X9520Y8394D01*
X9537D01*
X9545Y8402D01*
X9515Y8556D02*
X9507Y8564D01*
X9490D01*
X9482Y8556D01*
Y8522D01*
X9490Y8514D01*
X9507D01*
X9515Y8522D01*
X9480Y8556D02*
X9472Y8564D01*
X9455D01*
X9447Y8556D01*
Y8522D01*
X9455Y8514D01*
X9472D01*
X9480Y8522D01*
X9437Y8404D02*
X9445Y8396D01*
X9437Y8404D02*
X9420D01*
X9412Y8396D01*
Y8362D01*
X9420Y8354D01*
X9437D01*
X9445Y8362D01*
Y8691D02*
X9437Y8699D01*
X9420D01*
X9412Y8691D01*
Y8657D01*
X9420Y8649D01*
X9437D01*
X9445Y8657D01*
X9497Y8369D02*
X9505Y8361D01*
X9497Y8369D02*
X9480D01*
X9472Y8361D01*
Y8327D01*
X9480Y8319D01*
X9497D01*
X9505Y8327D01*
X9395Y8776D02*
X9387Y8784D01*
X9370D01*
X9362Y8776D01*
Y8742D01*
X9370Y8734D01*
X9387D01*
X9395Y8742D01*
X9411Y8198D02*
X9419Y8190D01*
X9411Y8198D02*
X9394D01*
X9386Y8190D01*
Y8156D01*
X9394Y8148D01*
X9411D01*
X9419Y8156D01*
X9531Y7518D02*
X9539Y7510D01*
X9531Y7518D02*
X9514D01*
X9506Y7510D01*
Y7476D01*
X9514Y7468D01*
X9531D01*
X9539Y7476D01*
X9440Y7511D02*
X9432Y7519D01*
X9415D01*
X9407Y7511D01*
Y7477D01*
X9415Y7469D01*
X9432D01*
X9440Y7477D01*
X9524Y7960D02*
X9516Y7968D01*
X9499D01*
X9491Y7960D01*
Y7926D01*
X9499Y7918D01*
X9516D01*
X9524Y7926D01*
X9516Y7913D02*
X9524Y7905D01*
X9516Y7913D02*
X9499D01*
X9491Y7905D01*
Y7871D01*
X9499Y7863D01*
X9516D01*
X9524Y7871D01*
Y8020D02*
X9516Y8028D01*
X9499D01*
X9491Y8020D01*
Y7986D01*
X9499Y7978D01*
X9516D01*
X9524Y7986D01*
X9396Y7783D02*
X9404Y7775D01*
X9396Y7783D02*
X9379D01*
X9371Y7775D01*
Y7741D01*
X9379Y7733D01*
X9396D01*
X9404Y7741D01*
X9474Y7905D02*
X9466Y7913D01*
X9449D01*
X9441Y7905D01*
Y7871D01*
X9449Y7863D01*
X9466D01*
X9474Y7871D01*
Y7960D02*
X9466Y7968D01*
X9449D01*
X9441Y7960D01*
Y7926D01*
X9449Y7918D01*
X9466D01*
X9474Y7926D01*
Y8020D02*
X9466Y8028D01*
X9449D01*
X9441Y8020D01*
Y7986D01*
X9449Y7978D01*
X9466D01*
X9474Y7986D01*
X9531Y7093D02*
X9539Y7085D01*
X9531Y7093D02*
X9514D01*
X9506Y7085D01*
Y7051D01*
X9514Y7043D01*
X9531D01*
X9539Y7051D01*
Y7185D02*
X9531Y7193D01*
X9514D01*
X9506Y7185D01*
Y7151D01*
X9514Y7143D01*
X9531D01*
X9539Y7151D01*
Y7385D02*
X9531Y7393D01*
X9514D01*
X9506Y7385D01*
Y7351D01*
X9514Y7343D01*
X9531D01*
X9539Y7351D01*
X9574Y7905D02*
X9566Y7913D01*
X9549D01*
X9541Y7905D01*
Y7871D01*
X9549Y7863D01*
X9566D01*
X9574Y7871D01*
Y7960D02*
X9566Y7968D01*
X9549D01*
X9541Y7960D01*
Y7926D01*
X9549Y7918D01*
X9566D01*
X9574Y7926D01*
Y8020D02*
X9566Y8028D01*
X9549D01*
X9541Y8020D01*
Y7986D01*
X9549Y7978D01*
X9566D01*
X9574Y7986D01*
X9522Y7714D02*
X9530Y7706D01*
X9522Y7714D02*
X9505D01*
X9497Y7706D01*
Y7672D01*
X9505Y7664D01*
X9522D01*
X9530Y7672D01*
X9235Y8326D02*
X9227Y8334D01*
X9210D01*
X9202Y8326D01*
Y8292D01*
X9210Y8284D01*
X9227D01*
X9235Y8292D01*
X9205Y8301D02*
X9197Y8309D01*
X9180D01*
X9172Y8301D01*
Y8267D01*
X9180Y8259D01*
X9197D01*
X9205Y8267D01*
X9245Y8666D02*
X9237Y8674D01*
X9220D01*
X9212Y8666D01*
Y8632D01*
X9220Y8624D01*
X9237D01*
X9245Y8632D01*
X9337Y8404D02*
X9345Y8396D01*
X9337Y8404D02*
X9320D01*
X9312Y8396D01*
Y8362D01*
X9320Y8354D01*
X9337D01*
X9345Y8362D01*
Y8716D02*
X9337Y8724D01*
X9320D01*
X9312Y8716D01*
Y8682D01*
X9320Y8674D01*
X9337D01*
X9345Y8682D01*
X9277Y8369D02*
X9285Y8361D01*
X9277Y8369D02*
X9260D01*
X9252Y8361D01*
Y8327D01*
X9260Y8319D01*
X9277D01*
X9285Y8327D01*
X9195Y8776D02*
X9187Y8784D01*
X9170D01*
X9162Y8776D01*
Y8742D01*
X9170Y8734D01*
X9187D01*
X9195Y8742D01*
X9276Y8278D02*
X9284Y8270D01*
X9276Y8278D02*
X9259D01*
X9251Y8270D01*
Y8236D01*
X9259Y8228D01*
X9276D01*
X9284Y8236D01*
X9186Y8138D02*
X9194Y8130D01*
X9186Y8138D02*
X9169D01*
X9161Y8130D01*
Y8096D01*
X9169Y8088D01*
X9186D01*
X9194Y8096D01*
X9302Y7519D02*
X9310Y7511D01*
X9302Y7519D02*
X9285D01*
X9277Y7511D01*
Y7477D01*
X9285Y7469D01*
X9302D01*
X9310Y7477D01*
X9204Y7510D02*
X9196Y7518D01*
X9179D01*
X9171Y7510D01*
Y7476D01*
X9179Y7468D01*
X9196D01*
X9204Y7476D01*
X9244Y7830D02*
X9236Y7838D01*
X9219D01*
X9211Y7830D01*
Y7796D01*
X9219Y7788D01*
X9236D01*
X9244Y7796D01*
Y7790D02*
X9236Y7798D01*
X9219D01*
X9211Y7790D01*
Y7756D01*
X9219Y7748D01*
X9236D01*
X9244Y7756D01*
X9194Y7915D02*
X9186Y7923D01*
X9169D01*
X9161Y7915D01*
Y7881D01*
X9169Y7873D01*
X9186D01*
X9194Y7881D01*
X9326Y7758D02*
X9334Y7750D01*
X9326Y7758D02*
X9309D01*
X9301Y7750D01*
Y7716D01*
X9309Y7708D01*
X9326D01*
X9334Y7716D01*
X9374Y7900D02*
X9366Y7908D01*
X9349D01*
X9341Y7900D01*
Y7866D01*
X9349Y7858D01*
X9366D01*
X9374Y7866D01*
X9349Y7880D02*
X9341Y7888D01*
X9324D01*
X9316Y7880D01*
Y7846D01*
X9324Y7838D01*
X9341D01*
X9349Y7846D01*
X9344Y8105D02*
X9336Y8113D01*
X9319D01*
X9311Y8105D01*
Y8071D01*
X9319Y8063D01*
X9336D01*
X9344Y8071D01*
X9371Y8088D02*
X9379Y8080D01*
X9371Y8088D02*
X9354D01*
X9346Y8080D01*
Y8046D01*
X9354Y8038D01*
X9371D01*
X9379Y8046D01*
X9085Y8326D02*
X9077Y8334D01*
X9060D01*
X9052Y8326D01*
Y8292D01*
X9060Y8284D01*
X9077D01*
X9085Y8292D01*
X9112Y8309D02*
X9120Y8301D01*
X9112Y8309D02*
X9095D01*
X9087Y8301D01*
Y8267D01*
X9095Y8259D01*
X9112D01*
X9120Y8267D01*
X9145Y8746D02*
X9137Y8754D01*
X9120D01*
X9112Y8746D01*
Y8712D01*
X9120Y8704D01*
X9137D01*
X9145Y8712D01*
X9087Y8569D02*
X9095Y8561D01*
X9087Y8569D02*
X9070D01*
X9062Y8561D01*
Y8527D01*
X9070Y8519D01*
X9087D01*
X9095Y8527D01*
X9145Y8601D02*
X9137Y8609D01*
X9120D01*
X9112Y8601D01*
Y8567D01*
X9120Y8559D01*
X9137D01*
X9145Y8567D01*
X9045Y8641D02*
X9037Y8649D01*
X9020D01*
X9012Y8641D01*
Y8607D01*
X9020Y8599D01*
X9037D01*
X9045Y8607D01*
X8992Y8329D02*
X9000Y8321D01*
X8992Y8329D02*
X8975D01*
X8967Y8321D01*
Y8287D01*
X8975Y8279D01*
X8992D01*
X9000Y8287D01*
X9151Y8173D02*
X9159Y8165D01*
X9151Y8173D02*
X9134D01*
X9126Y8165D01*
Y8131D01*
X9134Y8123D01*
X9151D01*
X9159Y8131D01*
X9096Y7518D02*
X9104Y7510D01*
X9096Y7518D02*
X9079D01*
X9071Y7510D01*
Y7476D01*
X9079Y7468D01*
X9096D01*
X9104Y7476D01*
X9004Y7510D02*
X8996Y7518D01*
X8979D01*
X8971Y7510D01*
Y7476D01*
X8979Y7468D01*
X8996D01*
X9004Y7476D01*
X9109Y7840D02*
X9101Y7848D01*
X9084D01*
X9076Y7840D01*
Y7806D01*
X9084Y7798D01*
X9101D01*
X9109Y7806D01*
X9059Y7865D02*
X9051Y7873D01*
X9034D01*
X9026Y7865D01*
Y7831D01*
X9034Y7823D01*
X9051D01*
X9059Y7831D01*
X9029Y7945D02*
X9021Y7953D01*
X9004D01*
X8996Y7945D01*
Y7911D01*
X9004Y7903D01*
X9021D01*
X9029Y7911D01*
Y7995D02*
X9021Y8003D01*
X9004D01*
X8996Y7995D01*
Y7961D01*
X9004Y7953D01*
X9021D01*
X9029Y7961D01*
X9051Y7928D02*
X9059Y7920D01*
X9051Y7928D02*
X9034D01*
X9026Y7920D01*
Y7886D01*
X9034Y7878D01*
X9051D01*
X9059Y7886D01*
Y7970D02*
X9051Y7978D01*
X9034D01*
X9026Y7970D01*
Y7936D01*
X9034Y7928D01*
X9051D01*
X9059Y7936D01*
X9000Y8081D02*
X8992Y8089D01*
X8975D01*
X8967Y8081D01*
Y8047D01*
X8975Y8039D01*
X8992D01*
X9000Y8047D01*
X9151Y8033D02*
X9159Y8025D01*
X9151Y8033D02*
X9134D01*
X9126Y8025D01*
Y7991D01*
X9134Y7983D01*
X9151D01*
X9159Y7991D01*
X9134Y7995D02*
X9126Y8003D01*
X9109D01*
X9101Y7995D01*
Y7961D01*
X9109Y7953D01*
X9126D01*
X9134Y7961D01*
X9126Y7903D02*
X9134Y7895D01*
X9126Y7903D02*
X9109D01*
X9101Y7895D01*
Y7861D01*
X9109Y7853D01*
X9126D01*
X9134Y7861D01*
X8945Y8561D02*
X8937Y8569D01*
X8920D01*
X8912Y8561D01*
Y8527D01*
X8920Y8519D01*
X8937D01*
X8945Y8527D01*
X8917Y8369D02*
X8925Y8361D01*
X8917Y8369D02*
X8900D01*
X8892Y8361D01*
Y8327D01*
X8900Y8319D01*
X8917D01*
X8925Y8327D01*
X8896Y7518D02*
X8904Y7510D01*
X8896Y7518D02*
X8879D01*
X8871Y7510D01*
Y7476D01*
X8879Y7468D01*
X8896D01*
X8904Y7476D01*
Y8025D02*
X8896Y8033D01*
X8879D01*
X8871Y8025D01*
Y7991D01*
X8879Y7983D01*
X8896D01*
X8904Y7991D01*
X8830Y8406D02*
X8822Y8414D01*
X8805D01*
X8797Y8406D01*
Y8372D01*
X8805Y8364D01*
X8822D01*
X8830Y8372D01*
X8811Y8293D02*
X8819Y8285D01*
X8811Y8293D02*
X8794D01*
X8786Y8285D01*
Y8251D01*
X8794Y8243D01*
X8811D01*
X8819Y8251D01*
X8821Y8198D02*
X8829Y8190D01*
X8821Y8198D02*
X8804D01*
X8796Y8190D01*
Y8156D01*
X8804Y8148D01*
X8821D01*
X8829Y8156D01*
X8796Y7518D02*
X8804Y7510D01*
X8796Y7518D02*
X8779D01*
X8771Y7510D01*
Y7476D01*
X8779Y7468D01*
X8796D01*
X8804Y7476D01*
X8639Y8310D02*
X8631Y8318D01*
X8614D01*
X8606Y8310D01*
Y8276D01*
X8614Y8268D01*
X8631D01*
X8639Y8276D01*
X8709Y8345D02*
X8701Y8353D01*
X8684D01*
X8676Y8345D01*
Y8311D01*
X8684Y8303D01*
X8701D01*
X8709Y8311D01*
X8746Y8318D02*
X8754Y8310D01*
X8746Y8318D02*
X8729D01*
X8721Y8310D01*
Y8276D01*
X8729Y8268D01*
X8746D01*
X8754Y8276D01*
X8696Y7518D02*
X8704Y7510D01*
X8696Y7518D02*
X8679D01*
X8671Y7510D01*
Y7476D01*
X8679Y7468D01*
X8696D01*
X8704Y7476D01*
X8599Y8385D02*
X8591Y8393D01*
X8574D01*
X8566Y8385D01*
Y8351D01*
X8574Y8343D01*
X8591D01*
X8599Y8351D01*
X8591Y8293D02*
X8599Y8285D01*
X8591Y8293D02*
X8574D01*
X8566Y8285D01*
Y8251D01*
X8574Y8243D01*
X8591D01*
X8599Y8251D01*
X8591Y8193D02*
X8599Y8185D01*
X8591Y8193D02*
X8574D01*
X8566Y8185D01*
Y8151D01*
X8574Y8143D01*
X8591D01*
X8599Y8151D01*
X8592Y7519D02*
X8600Y7511D01*
X8592Y7519D02*
X8575D01*
X8567Y7511D01*
Y7477D01*
X8575Y7469D01*
X8592D01*
X8600Y7477D01*
X8599Y8085D02*
X8591Y8093D01*
X8574D01*
X8566Y8085D01*
Y8051D01*
X8574Y8043D01*
X8591D01*
X8599Y8051D01*
X8591Y7993D02*
X8599Y7985D01*
X8591Y7993D02*
X8574D01*
X8566Y7985D01*
Y7951D01*
X8574Y7943D01*
X8591D01*
X8599Y7951D01*
X8591Y7893D02*
X8599Y7885D01*
X8591Y7893D02*
X8574D01*
X8566Y7885D01*
Y7851D01*
X8574Y7843D01*
X8591D01*
X8599Y7851D01*
X8591Y7793D02*
X8599Y7785D01*
X8591Y7793D02*
X8574D01*
X8566Y7785D01*
Y7751D01*
X8574Y7743D01*
X8591D01*
X8599Y7751D01*
X11041Y8364D02*
Y8414D01*
Y8364D02*
X11066D01*
X11074Y8372D01*
Y8405D01*
X11066Y8414D01*
X11041D01*
X11041Y8146D02*
Y8096D01*
X11066D01*
X11074Y8104D01*
Y8138D01*
X11066Y8146D01*
X11041D01*
X9954Y7303D02*
X9921D01*
Y7253D01*
X9954D01*
X9938Y7278D02*
X9921D01*
X10021Y7303D02*
X10054D01*
X10021D02*
Y7253D01*
X10054D01*
X10038Y7278D02*
X10021D01*
X10121Y7303D02*
X10154D01*
X10121D02*
Y7253D01*
X10154D01*
X10138Y7278D02*
X10121D01*
X10221Y7303D02*
X10254D01*
X10221D02*
Y7253D01*
X10254D01*
X10238Y7278D02*
X10221D01*
X8827Y8246D02*
X8794D01*
Y8221D01*
X8810D01*
X8794D01*
Y8196D01*
X8794Y8096D02*
X8827D01*
X8794D02*
Y8071D01*
X8810D01*
X8794D01*
Y8046D01*
X10036Y8773D02*
X10044Y8764D01*
X10036Y8773D02*
X10019D01*
X10011Y8764D01*
Y8731D01*
X10019Y8723D01*
X10036D01*
X10044Y8731D01*
Y8748D01*
X10027D01*
X9965Y8764D02*
X9957Y8773D01*
X9940D01*
X9932Y8764D01*
Y8731D01*
X9940Y8723D01*
X9957D01*
X9965Y8731D01*
Y8748D01*
X9948D01*
X11346Y7353D02*
X11354Y7345D01*
X11346Y7353D02*
X11329D01*
X11321Y7345D01*
Y7311D01*
X11329Y7303D01*
X11346D01*
X11354Y7311D01*
Y7465D02*
X11346Y7473D01*
X11329D01*
X11321Y7465D01*
Y7431D01*
X11329Y7423D01*
X11346D01*
X11354Y7431D01*
Y7448D01*
X11338D01*
X11321Y7543D02*
Y7593D01*
Y7543D02*
X11346D01*
X11354Y7551D01*
Y7585D01*
X11346Y7593D01*
X11321D01*
Y7713D02*
X11354D01*
X11321D02*
Y7688D01*
X11338D01*
X11321D01*
Y7663D01*
Y7833D02*
X11354D01*
X11321D02*
Y7783D01*
X11354D01*
X11338Y7808D02*
X11321D01*
Y7903D02*
Y7936D01*
X11338Y7953D01*
X11354Y7936D01*
Y7903D01*
Y7928D01*
X11321D01*
Y8023D02*
Y8073D01*
Y8023D02*
X11346D01*
X11354Y8031D01*
Y8040D01*
X11346Y8048D01*
X11321D01*
X11322D01*
X11321D02*
X11322D01*
X11321D02*
X11322D01*
X11321D02*
X11346D01*
X11354Y8056D01*
Y8065D01*
X11346Y8073D01*
X11321D01*
D13*
X11536Y7347D02*
Y7344D01*
Y7347D02*
X11539Y7352D01*
X11542Y7355D01*
X11548Y7358D01*
X11559D01*
X11565Y7355D01*
X11568Y7352D01*
X11571Y7347D01*
Y7341D01*
X11568Y7335D01*
X11562Y7327D01*
X11534Y7298D01*
X11573D01*
X11587Y7347D02*
X11593Y7349D01*
X11601Y7358D01*
Y7298D01*
X11637Y7358D02*
X11665D01*
X11637D02*
X11634Y7332D01*
X11637Y7335D01*
X11645Y7338D01*
X11654D01*
X11662Y7335D01*
X11668Y7329D01*
X11671Y7321D01*
Y7315D01*
X11668Y7307D01*
X11662Y7301D01*
X11654Y7298D01*
X11645D01*
X11637Y7301D01*
X11634Y7304D01*
X11631Y7309D01*
X12002Y7347D02*
X12008Y7349D01*
X12017Y7358D01*
Y7298D01*
X12052Y7358D02*
X12081D01*
X12052D02*
X12049Y7332D01*
X12052Y7335D01*
X12061Y7338D01*
X12069D01*
X12078Y7335D01*
X12083Y7329D01*
X12086Y7321D01*
Y7315D01*
X12083Y7307D01*
X12078Y7301D01*
X12069Y7298D01*
X12061D01*
X12052Y7301D01*
X12049Y7304D01*
X12046Y7309D01*
X12100Y7298D02*
Y7338D01*
X12108Y7335D02*
X12100Y7327D01*
X12108Y7335D02*
X12114Y7338D01*
X12123D01*
X12128Y7335D01*
X12131Y7327D01*
Y7298D01*
Y7327D02*
X12140Y7335D01*
X12145Y7338D01*
X12154D01*
X12160Y7335D01*
X12163Y7327D01*
Y7298D01*
X12190Y7355D02*
X12187Y7358D01*
X12190Y7355D02*
X12193Y7358D01*
X12190Y7361D01*
X12187Y7358D01*
X12190Y7338D02*
Y7298D01*
X12203D02*
Y7358D01*
X12667Y7355D02*
X12676Y7358D01*
X12667Y7355D02*
X12661Y7347D01*
X12658Y7332D01*
Y7324D01*
X12661Y7309D01*
X12667Y7301D01*
X12676Y7298D01*
X12681D01*
X12690Y7301D01*
X12696Y7309D01*
X12698Y7324D01*
Y7332D01*
X12696Y7347D01*
X12690Y7355D01*
X12681Y7358D01*
X12676D01*
X12715Y7304D02*
X12712Y7301D01*
X12715Y7298D01*
X12718Y7301D01*
X12715Y7304D01*
X12736Y7358D02*
X12768D01*
X12751Y7335D01*
X12759D01*
X12765Y7332D01*
X12768Y7329D01*
X12771Y7321D01*
Y7315D01*
X12768Y7307D01*
X12762Y7301D01*
X12754Y7298D01*
X12745D01*
X12736Y7301D01*
X12734Y7304D01*
X12731Y7309D01*
X12790Y7355D02*
X12798Y7358D01*
X12790Y7355D02*
X12787Y7349D01*
Y7344D01*
X12790Y7338D01*
X12796Y7335D01*
X12807Y7332D01*
X12816Y7329D01*
X12821Y7324D01*
X12824Y7318D01*
Y7309D01*
X12821Y7304D01*
X12818Y7301D01*
X12810Y7298D01*
X12798D01*
X12790Y7301D01*
X12787Y7304D01*
X12784Y7309D01*
Y7318D01*
X12787Y7324D01*
X12793Y7329D01*
X12801Y7332D01*
X12813Y7335D01*
X12818Y7338D01*
X12821Y7344D01*
Y7349D01*
X12818Y7355D01*
X12810Y7358D01*
X12798D01*
X12838Y7347D02*
X12843Y7349D01*
X12852Y7358D01*
Y7298D01*
X12882D02*
Y7338D01*
X12890Y7335D02*
X12882Y7327D01*
X12890Y7335D02*
X12896Y7338D01*
X12904D01*
X12910Y7335D01*
X12913Y7327D01*
Y7298D01*
Y7327D02*
X12922Y7335D01*
X12927Y7338D01*
X12936D01*
X12942Y7335D01*
X12944Y7327D01*
Y7298D01*
X12963D02*
Y7338D01*
X12972Y7335D02*
X12963Y7327D01*
X12972Y7335D02*
X12978Y7338D01*
X12986D01*
X12992Y7335D01*
X12995Y7327D01*
Y7298D01*
Y7327D02*
X13003Y7335D01*
X13009Y7338D01*
X13018D01*
X13023Y7335D01*
X13026Y7327D01*
Y7298D01*
X11536Y7464D02*
Y7467D01*
X11539Y7472D01*
X11542Y7475D01*
X11548Y7478D01*
X11559D01*
X11565Y7475D01*
X11568Y7472D01*
X11571Y7467D01*
Y7461D01*
X11568Y7455D01*
X11562Y7447D01*
X11534Y7418D01*
X11573D01*
X12008Y7478D02*
X12039D01*
X12022Y7455D01*
X12031D01*
X12037Y7452D01*
X12039Y7449D01*
X12042Y7441D01*
Y7435D01*
X12039Y7427D01*
X12034Y7421D01*
X12025Y7418D01*
X12017D01*
X12008Y7421D01*
X12005Y7424D01*
X12002Y7429D01*
X12056Y7467D02*
X12061Y7469D01*
X12070Y7478D01*
Y7418D01*
X12100Y7421D02*
X12103Y7424D01*
X12100Y7421D02*
X12103Y7418D01*
X12105Y7421D01*
X12103Y7424D01*
X12119Y7438D02*
X12147Y7478D01*
X12161Y7438D02*
X12119D01*
X12147Y7418D02*
Y7478D01*
X12209Y7458D02*
X12206Y7449D01*
X12200Y7444D01*
X12192Y7441D01*
X12189D01*
X12180Y7444D01*
X12175Y7449D01*
X12172Y7458D01*
Y7461D01*
X12175Y7469D01*
X12180Y7475D01*
X12189Y7478D01*
X12192D01*
X12200Y7475D01*
X12206Y7469D01*
X12209Y7458D01*
Y7444D01*
X12206Y7429D01*
X12200Y7421D01*
X12192Y7418D01*
X12186D01*
X12178Y7421D01*
X12175Y7427D01*
X12260Y7469D02*
X12257Y7475D01*
X12248Y7478D01*
X12242D01*
X12234Y7475D01*
X12228Y7467D01*
X12225Y7452D01*
Y7438D01*
X12228Y7427D01*
X12234Y7421D01*
X12242Y7418D01*
X12245D01*
X12254Y7421D01*
X12260Y7427D01*
X12262Y7435D01*
Y7438D01*
X12260Y7447D01*
X12254Y7452D01*
X12245Y7455D01*
X12242D01*
X12234Y7452D01*
X12228Y7447D01*
X12225Y7438D01*
X12276Y7458D02*
Y7418D01*
Y7447D02*
X12284Y7455D01*
X12290Y7458D01*
X12298D01*
X12304Y7455D01*
X12307Y7447D01*
Y7418D01*
Y7447D02*
X12316Y7455D01*
X12321Y7458D01*
X12330D01*
X12336Y7455D01*
X12338Y7447D01*
Y7418D01*
X12366Y7475D02*
X12363Y7478D01*
X12366Y7475D02*
X12369Y7478D01*
X12366Y7481D01*
X12363Y7478D01*
X12366Y7458D02*
Y7418D01*
X12379D02*
Y7478D01*
X12667Y7475D02*
X12676Y7478D01*
X12667Y7475D02*
X12661Y7467D01*
X12658Y7452D01*
Y7444D01*
X12661Y7429D01*
X12667Y7421D01*
X12676Y7418D01*
X12681D01*
X12690Y7421D01*
X12696Y7429D01*
X12698Y7444D01*
Y7452D01*
X12696Y7467D01*
X12690Y7475D01*
X12681Y7478D01*
X12676D01*
X12715Y7424D02*
X12712Y7421D01*
X12715Y7418D01*
X12718Y7421D01*
X12715Y7424D01*
X12736Y7475D02*
X12745Y7478D01*
X12736Y7475D02*
X12734Y7469D01*
Y7464D01*
X12736Y7458D01*
X12742Y7455D01*
X12754Y7452D01*
X12762Y7449D01*
X12768Y7444D01*
X12771Y7438D01*
Y7429D01*
X12768Y7424D01*
X12765Y7421D01*
X12756Y7418D01*
X12745D01*
X12736Y7421D01*
X12734Y7424D01*
X12731Y7429D01*
Y7438D01*
X12734Y7444D01*
X12739Y7449D01*
X12748Y7452D01*
X12759Y7455D01*
X12765Y7458D01*
X12768Y7464D01*
Y7469D01*
X12765Y7475D01*
X12756Y7478D01*
X12745D01*
X12784Y7458D02*
Y7418D01*
Y7447D02*
X12793Y7455D01*
X12798Y7458D01*
X12807D01*
X12813Y7455D01*
X12816Y7447D01*
Y7418D01*
Y7447D02*
X12824Y7455D01*
X12830Y7458D01*
X12838D01*
X12844Y7455D01*
X12847Y7447D01*
Y7418D01*
X12866D02*
Y7458D01*
X12874Y7455D02*
X12866Y7447D01*
X12874Y7455D02*
X12880Y7458D01*
X12889D01*
X12894Y7455D01*
X12897Y7447D01*
Y7418D01*
Y7447D02*
X12906Y7455D01*
X12912Y7458D01*
X12920D01*
X12926Y7455D01*
X12929Y7447D01*
Y7418D01*
X11536Y7584D02*
Y7587D01*
X11539Y7592D01*
X11542Y7595D01*
X11548Y7598D01*
X11559D01*
X11565Y7595D01*
X11568Y7592D01*
X11571Y7587D01*
Y7581D01*
X11568Y7575D01*
X11562Y7567D01*
X11534Y7538D01*
X11573D01*
X12008Y7598D02*
X12039D01*
X12022Y7575D01*
X12031D01*
X12037Y7572D01*
X12039Y7569D01*
X12042Y7561D01*
Y7555D01*
X12039Y7547D01*
X12034Y7541D01*
X12025Y7538D01*
X12017D01*
X12008Y7541D01*
X12005Y7544D01*
X12002Y7549D01*
X12061Y7598D02*
X12090D01*
X12061D02*
X12059Y7572D01*
X12061Y7575D01*
X12070Y7578D01*
X12079D01*
X12087Y7575D01*
X12093Y7569D01*
X12096Y7561D01*
Y7555D01*
X12093Y7547D01*
X12087Y7541D01*
X12079Y7538D01*
X12070D01*
X12061Y7541D01*
X12059Y7544D01*
X12056Y7549D01*
X12109Y7541D02*
X12112Y7544D01*
X12109Y7541D02*
X12112Y7538D01*
X12115Y7541D01*
X12112Y7544D01*
X12128Y7558D02*
X12157Y7598D01*
X12171Y7558D02*
X12128D01*
X12157Y7538D02*
Y7598D01*
X12187D02*
X12218D01*
X12201Y7575D01*
X12210D01*
X12216Y7572D01*
X12218Y7569D01*
X12221Y7561D01*
Y7555D01*
X12218Y7547D01*
X12213Y7541D01*
X12204Y7538D01*
X12196D01*
X12187Y7541D01*
X12184Y7544D01*
X12181Y7549D01*
X12240Y7598D02*
X12272D01*
X12255Y7575D01*
X12263D01*
X12269Y7572D01*
X12272Y7569D01*
X12275Y7561D01*
Y7555D01*
X12272Y7547D01*
X12266Y7541D01*
X12258Y7538D01*
X12249D01*
X12240Y7541D01*
X12238Y7544D01*
X12235Y7549D01*
X12288Y7538D02*
Y7578D01*
X12297Y7575D02*
X12288Y7567D01*
X12297Y7575D02*
X12302Y7578D01*
X12311D01*
X12317Y7575D01*
X12320Y7567D01*
Y7538D01*
Y7567D02*
X12328Y7575D01*
X12334Y7578D01*
X12342D01*
X12348Y7575D01*
X12351Y7567D01*
Y7538D01*
X12378Y7595D02*
X12376Y7598D01*
X12378Y7595D02*
X12381Y7598D01*
X12378Y7601D01*
X12376Y7598D01*
X12378Y7578D02*
Y7538D01*
X12392D02*
Y7598D01*
X12667Y7595D02*
X12676Y7598D01*
X12667Y7595D02*
X12661Y7587D01*
X12658Y7572D01*
Y7564D01*
X12661Y7549D01*
X12667Y7541D01*
X12676Y7538D01*
X12681D01*
X12690Y7541D01*
X12696Y7549D01*
X12698Y7564D01*
Y7572D01*
X12696Y7587D01*
X12690Y7595D01*
X12681Y7598D01*
X12676D01*
X12715Y7544D02*
X12712Y7541D01*
X12715Y7538D01*
X12718Y7541D01*
X12715Y7544D01*
X12765Y7569D02*
X12768Y7578D01*
X12765Y7569D02*
X12759Y7564D01*
X12751Y7561D01*
X12748D01*
X12739Y7564D01*
X12734Y7569D01*
X12731Y7578D01*
Y7581D01*
X12734Y7589D01*
X12739Y7595D01*
X12748Y7598D01*
X12751D01*
X12759Y7595D01*
X12765Y7589D01*
X12768Y7578D01*
Y7564D01*
X12765Y7549D01*
X12759Y7541D01*
X12751Y7538D01*
X12745D01*
X12736Y7541D01*
X12734Y7547D01*
X12784Y7538D02*
Y7578D01*
X12793Y7575D02*
X12784Y7567D01*
X12793Y7575D02*
X12798Y7578D01*
X12807D01*
X12813Y7575D01*
X12816Y7567D01*
Y7538D01*
Y7567D02*
X12824Y7575D01*
X12830Y7578D01*
X12838D01*
X12844Y7575D01*
X12847Y7567D01*
Y7538D01*
X12866D02*
Y7578D01*
X12874Y7575D02*
X12866Y7567D01*
X12874Y7575D02*
X12880Y7578D01*
X12889D01*
X12894Y7575D01*
X12897Y7567D01*
Y7538D01*
Y7567D02*
X12906Y7575D01*
X12912Y7578D01*
X12920D01*
X12926Y7575D01*
X12929Y7567D01*
Y7538D01*
X11536Y7704D02*
Y7707D01*
X11539Y7712D01*
X11542Y7715D01*
X11548Y7718D01*
X11559D01*
X11565Y7715D01*
X11568Y7712D01*
X11571Y7707D01*
Y7701D01*
X11568Y7695D01*
X11562Y7687D01*
X11534Y7658D01*
X11573D01*
X12008Y7718D02*
X12039D01*
X12022Y7695D01*
X12031D01*
X12037Y7692D01*
X12039Y7689D01*
X12042Y7681D01*
Y7675D01*
X12039Y7667D01*
X12034Y7661D01*
X12025Y7658D01*
X12017D01*
X12008Y7661D01*
X12005Y7664D01*
X12002Y7669D01*
X12090Y7689D02*
X12093Y7698D01*
X12090Y7689D02*
X12084Y7684D01*
X12076Y7681D01*
X12073D01*
X12064Y7684D01*
X12059Y7689D01*
X12056Y7698D01*
Y7701D01*
X12059Y7709D01*
X12064Y7715D01*
X12073Y7718D01*
X12076D01*
X12084Y7715D01*
X12090Y7709D01*
X12093Y7698D01*
Y7684D01*
X12090Y7669D01*
X12084Y7661D01*
X12076Y7658D01*
X12070D01*
X12061Y7661D01*
X12059Y7667D01*
X12109Y7661D02*
X12112Y7664D01*
X12109Y7661D02*
X12112Y7658D01*
X12115Y7661D01*
X12112Y7664D01*
X12134Y7718D02*
X12165D01*
X12148Y7695D01*
X12157D01*
X12162Y7692D01*
X12165Y7689D01*
X12168Y7681D01*
Y7675D01*
X12165Y7667D01*
X12159Y7661D01*
X12151Y7658D01*
X12142D01*
X12134Y7661D01*
X12131Y7664D01*
X12128Y7669D01*
X12193Y7658D02*
X12221Y7718D01*
X12181D01*
X12235Y7698D02*
Y7658D01*
Y7687D02*
X12243Y7695D01*
X12249Y7698D01*
X12258D01*
X12263Y7695D01*
X12266Y7687D01*
Y7658D01*
Y7687D02*
X12275Y7695D01*
X12280Y7698D01*
X12289D01*
X12295Y7695D01*
X12298Y7687D01*
Y7658D01*
X12325Y7715D02*
X12322Y7718D01*
X12325Y7715D02*
X12328Y7718D01*
X12325Y7721D01*
X12322Y7718D01*
X12325Y7698D02*
Y7658D01*
X12338D02*
Y7718D01*
X12658Y7707D02*
X12664Y7709D01*
X12673Y7718D01*
Y7658D01*
X12702D02*
Y7698D01*
X12711Y7695D02*
X12702Y7687D01*
X12711Y7695D02*
X12717Y7698D01*
X12725D01*
X12731Y7695D01*
X12734Y7687D01*
Y7658D01*
Y7687D02*
X12742Y7695D01*
X12748Y7698D01*
X12757D01*
X12762Y7695D01*
X12765Y7687D01*
Y7658D01*
X12784D02*
Y7698D01*
X12793Y7695D02*
X12784Y7687D01*
X12793Y7695D02*
X12798Y7698D01*
X12807D01*
X12813Y7695D01*
X12816Y7687D01*
Y7658D01*
Y7687D02*
X12824Y7695D01*
X12830Y7698D01*
X12838D01*
X12844Y7695D01*
X12847Y7687D01*
Y7658D01*
X11562Y7838D02*
X11534Y7798D01*
X11576D01*
X11562Y7778D02*
Y7838D01*
X12008D02*
X12037D01*
X12008D02*
X12005Y7812D01*
X12008Y7815D01*
X12017Y7818D01*
X12025D01*
X12034Y7815D01*
X12039Y7809D01*
X12042Y7801D01*
Y7795D01*
X12039Y7787D01*
X12034Y7781D01*
X12025Y7778D01*
X12017D01*
X12008Y7781D01*
X12005Y7784D01*
X12002Y7789D01*
X12064Y7835D02*
X12073Y7838D01*
X12064Y7835D02*
X12059Y7827D01*
X12056Y7812D01*
Y7804D01*
X12059Y7789D01*
X12064Y7781D01*
X12073Y7778D01*
X12079D01*
X12087Y7781D01*
X12093Y7789D01*
X12096Y7804D01*
Y7812D01*
X12093Y7827D01*
X12087Y7835D01*
X12079Y7838D01*
X12073D01*
X12109Y7818D02*
Y7778D01*
Y7807D02*
X12118Y7815D01*
X12123Y7818D01*
X12132D01*
X12138Y7815D01*
X12141Y7807D01*
Y7778D01*
Y7807D02*
X12149Y7815D01*
X12155Y7818D01*
X12163D01*
X12169Y7815D01*
X12172Y7807D01*
Y7778D01*
X12199Y7835D02*
X12196Y7838D01*
X12199Y7835D02*
X12202Y7838D01*
X12199Y7841D01*
X12196Y7838D01*
X12199Y7818D02*
Y7778D01*
X12213D02*
Y7838D01*
X12658Y7827D02*
X12664Y7829D01*
X12673Y7838D01*
Y7778D01*
X12702Y7781D02*
X12705Y7784D01*
X12702Y7781D02*
X12705Y7778D01*
X12708Y7781D01*
X12705Y7784D01*
X12724Y7824D02*
Y7827D01*
X12727Y7832D01*
X12730Y7835D01*
X12736Y7838D01*
X12747D01*
X12753Y7835D01*
X12756Y7832D01*
X12758Y7827D01*
Y7821D01*
X12756Y7815D01*
X12750Y7807D01*
X12721Y7778D01*
X12761D01*
X12786D02*
X12815Y7838D01*
X12775D01*
X12828Y7818D02*
Y7778D01*
Y7807D02*
X12837Y7815D01*
X12842Y7818D01*
X12851D01*
X12857Y7815D01*
X12860Y7807D01*
Y7778D01*
Y7807D02*
X12868Y7815D01*
X12874Y7818D01*
X12882D01*
X12888Y7815D01*
X12891Y7807D01*
Y7778D01*
X12910D02*
Y7818D01*
X12918Y7815D02*
X12910Y7807D01*
X12918Y7815D02*
X12924Y7818D01*
X12933D01*
X12938Y7815D01*
X12941Y7807D01*
Y7778D01*
Y7807D02*
X12950Y7815D01*
X12956Y7818D01*
X12964D01*
X12970Y7815D01*
X12973Y7807D01*
Y7778D01*
X11562Y7958D02*
X11534Y7918D01*
X11576D01*
X11562Y7898D02*
Y7958D01*
X12002Y7947D02*
X12008Y7949D01*
X12017Y7958D01*
Y7898D01*
X12046Y7947D02*
X12052Y7949D01*
X12061Y7958D01*
Y7898D01*
X12096Y7958D02*
X12125D01*
X12096D02*
X12093Y7932D01*
X12096Y7935D01*
X12105Y7938D01*
X12113D01*
X12122Y7935D01*
X12127Y7929D01*
X12130Y7921D01*
Y7915D01*
X12127Y7907D01*
X12122Y7901D01*
X12113Y7898D01*
X12105D01*
X12096Y7901D01*
X12093Y7904D01*
X12090Y7909D01*
X12144Y7898D02*
Y7938D01*
X12152Y7935D02*
X12144Y7927D01*
X12152Y7935D02*
X12158Y7938D01*
X12167D01*
X12172Y7935D01*
X12175Y7927D01*
Y7898D01*
Y7927D02*
X12184Y7935D01*
X12189Y7938D01*
X12198D01*
X12204Y7935D01*
X12206Y7927D01*
Y7898D01*
X12234Y7955D02*
X12231Y7958D01*
X12234Y7955D02*
X12237Y7958D01*
X12234Y7961D01*
X12231Y7958D01*
X12234Y7938D02*
Y7898D01*
X12247D02*
Y7958D01*
X12661Y7947D02*
Y7944D01*
Y7947D02*
X12664Y7952D01*
X12667Y7955D01*
X12673Y7958D01*
X12684D01*
X12690Y7955D01*
X12693Y7952D01*
X12696Y7947D01*
Y7941D01*
X12693Y7935D01*
X12687Y7927D01*
X12658Y7898D01*
X12698D01*
X12712Y7901D02*
X12715Y7904D01*
X12712Y7901D02*
X12715Y7898D01*
X12718Y7901D01*
X12715Y7904D01*
X12765Y7929D02*
X12768Y7938D01*
X12765Y7929D02*
X12759Y7924D01*
X12751Y7921D01*
X12748D01*
X12739Y7924D01*
X12734Y7929D01*
X12731Y7938D01*
Y7941D01*
X12734Y7949D01*
X12739Y7955D01*
X12748Y7958D01*
X12751D01*
X12759Y7955D01*
X12765Y7949D01*
X12768Y7938D01*
Y7924D01*
X12765Y7909D01*
X12759Y7901D01*
X12751Y7898D01*
X12745D01*
X12736Y7901D01*
X12734Y7907D01*
X12787Y7944D02*
Y7947D01*
X12790Y7952D01*
X12793Y7955D01*
X12798Y7958D01*
X12810D01*
X12816Y7955D01*
X12818Y7952D01*
X12821Y7947D01*
Y7941D01*
X12818Y7935D01*
X12813Y7927D01*
X12784Y7898D01*
X12824D01*
X12838Y7947D02*
X12843Y7949D01*
X12852Y7958D01*
Y7898D01*
X12882D02*
Y7938D01*
X12890Y7935D02*
X12882Y7927D01*
X12890Y7935D02*
X12896Y7938D01*
X12904D01*
X12910Y7935D01*
X12913Y7927D01*
Y7898D01*
Y7927D02*
X12922Y7935D01*
X12927Y7938D01*
X12936D01*
X12942Y7935D01*
X12944Y7927D01*
Y7898D01*
X12963D02*
Y7938D01*
X12972Y7935D02*
X12963Y7927D01*
X12972Y7935D02*
X12978Y7938D01*
X12986D01*
X12992Y7935D01*
X12995Y7927D01*
Y7898D01*
Y7927D02*
X13003Y7935D01*
X13009Y7938D01*
X13018D01*
X13023Y7935D01*
X13026Y7927D01*
Y7898D01*
X11562Y8078D02*
X11534Y8038D01*
X11576D01*
X11562Y8018D02*
Y8078D01*
X12002Y8067D02*
X12008Y8069D01*
X12017Y8078D01*
Y8018D01*
X12052Y8078D02*
X12083D01*
X12066Y8055D01*
X12075D01*
X12081Y8052D01*
X12083Y8049D01*
X12086Y8041D01*
Y8035D01*
X12083Y8027D01*
X12078Y8021D01*
X12069Y8018D01*
X12061D01*
X12052Y8021D01*
X12049Y8024D01*
X12046Y8029D01*
X12111Y8018D02*
X12140Y8078D01*
X12100D01*
X12156Y8024D02*
X12153Y8021D01*
X12156Y8018D01*
X12159Y8021D01*
X12156Y8024D01*
X12183Y8018D02*
X12212Y8078D01*
X12172D01*
X12260Y8049D02*
X12262Y8058D01*
X12260Y8049D02*
X12254Y8044D01*
X12245Y8041D01*
X12242D01*
X12234Y8044D01*
X12228Y8049D01*
X12225Y8058D01*
Y8061D01*
X12228Y8069D01*
X12234Y8075D01*
X12242Y8078D01*
X12245D01*
X12254Y8075D01*
X12260Y8069D01*
X12262Y8058D01*
Y8044D01*
X12260Y8029D01*
X12254Y8021D01*
X12245Y8018D01*
X12240D01*
X12231Y8021D01*
X12228Y8027D01*
X12284Y8078D02*
X12313D01*
X12284D02*
X12282Y8052D01*
X12284Y8055D01*
X12293Y8058D01*
X12302D01*
X12310Y8055D01*
X12316Y8049D01*
X12319Y8041D01*
Y8035D01*
X12316Y8027D01*
X12310Y8021D01*
X12302Y8018D01*
X12293D01*
X12284Y8021D01*
X12282Y8024D01*
X12279Y8029D01*
X12332Y8018D02*
Y8058D01*
X12341Y8055D02*
X12332Y8047D01*
X12341Y8055D02*
X12346Y8058D01*
X12355D01*
X12361Y8055D01*
X12364Y8047D01*
Y8018D01*
Y8047D02*
X12372Y8055D01*
X12378Y8058D01*
X12386D01*
X12392Y8055D01*
X12395Y8047D01*
Y8018D01*
X12422Y8075D02*
X12420Y8078D01*
X12422Y8075D02*
X12425Y8078D01*
X12422Y8081D01*
X12420Y8078D01*
X12422Y8058D02*
Y8018D01*
X12436D02*
Y8078D01*
X12664D02*
X12696D01*
X12678Y8055D01*
X12687D01*
X12693Y8052D01*
X12696Y8049D01*
X12698Y8041D01*
Y8035D01*
X12696Y8027D01*
X12690Y8021D01*
X12681Y8018D01*
X12673D01*
X12664Y8021D01*
X12661Y8024D01*
X12658Y8029D01*
X12712Y8021D02*
X12715Y8024D01*
X12712Y8021D02*
X12715Y8018D01*
X12718Y8021D01*
X12715Y8024D01*
X12731Y8038D02*
X12759Y8078D01*
X12774Y8038D02*
X12731D01*
X12759Y8018D02*
Y8078D01*
X12821Y8058D02*
X12818Y8049D01*
X12813Y8044D01*
X12804Y8041D01*
X12801D01*
X12793Y8044D01*
X12787Y8049D01*
X12784Y8058D01*
Y8061D01*
X12787Y8069D01*
X12793Y8075D01*
X12801Y8078D01*
X12804D01*
X12813Y8075D01*
X12818Y8069D01*
X12821Y8058D01*
Y8044D01*
X12818Y8029D01*
X12813Y8021D01*
X12804Y8018D01*
X12798D01*
X12790Y8021D01*
X12787Y8027D01*
X12872Y8049D02*
X12875Y8058D01*
X12872Y8049D02*
X12866Y8044D01*
X12858Y8041D01*
X12855D01*
X12846Y8044D01*
X12840Y8049D01*
X12838Y8058D01*
Y8061D01*
X12840Y8069D01*
X12846Y8075D01*
X12855Y8078D01*
X12858D01*
X12866Y8075D01*
X12872Y8069D01*
X12875Y8058D01*
Y8044D01*
X12872Y8029D01*
X12866Y8021D01*
X12858Y8018D01*
X12852D01*
X12843Y8021D01*
X12840Y8027D01*
X12925Y8049D02*
X12928Y8058D01*
X12925Y8049D02*
X12920Y8044D01*
X12911Y8041D01*
X12908D01*
X12900Y8044D01*
X12894Y8049D01*
X12891Y8058D01*
Y8061D01*
X12894Y8069D01*
X12900Y8075D01*
X12908Y8078D01*
X12911D01*
X12920Y8075D01*
X12925Y8069D01*
X12928Y8058D01*
Y8044D01*
X12925Y8029D01*
X12920Y8021D01*
X12911Y8018D01*
X12905D01*
X12897Y8021D01*
X12894Y8027D01*
X12979Y8049D02*
X12982Y8058D01*
X12979Y8049D02*
X12973Y8044D01*
X12964Y8041D01*
X12962D01*
X12953Y8044D01*
X12947Y8049D01*
X12944Y8058D01*
Y8061D01*
X12947Y8069D01*
X12953Y8075D01*
X12962Y8078D01*
X12964D01*
X12973Y8075D01*
X12979Y8069D01*
X12982Y8058D01*
Y8044D01*
X12979Y8029D01*
X12973Y8021D01*
X12964Y8018D01*
X12959D01*
X12950Y8021D01*
X12947Y8027D01*
X12998Y8018D02*
Y8058D01*
X13006Y8055D02*
X12998Y8047D01*
X13006Y8055D02*
X13012Y8058D01*
X13021D01*
X13026Y8055D01*
X13029Y8047D01*
Y8018D01*
Y8047D02*
X13038Y8055D01*
X13044Y8058D01*
X13052D01*
X13058Y8055D01*
X13061Y8047D01*
Y8018D01*
X13080D02*
Y8058D01*
X13088Y8055D02*
X13080Y8047D01*
X13088Y8055D02*
X13094Y8058D01*
X13102D01*
X13108Y8055D01*
X13111Y8047D01*
Y8018D01*
Y8047D02*
X13120Y8055D01*
X13125Y8058D01*
X13134D01*
X13140Y8055D01*
X13142Y8047D01*
Y8018D01*
X11536Y7227D02*
Y7224D01*
Y7227D02*
X11539Y7232D01*
X11542Y7235D01*
X11548Y7238D01*
X11559D01*
X11565Y7235D01*
X11568Y7232D01*
X11571Y7227D01*
Y7221D01*
X11568Y7215D01*
X11562Y7207D01*
X11534Y7178D01*
X11573D01*
X11593Y7238D02*
X11624D01*
X11607Y7215D01*
X11615D01*
X11621Y7212D01*
X11624Y7209D01*
X11627Y7201D01*
Y7195D01*
X11624Y7187D01*
X11618Y7181D01*
X11610Y7178D01*
X11601D01*
X11593Y7181D01*
X11590Y7184D01*
X11587Y7189D01*
X11646Y7238D02*
X11677D01*
X11660Y7215D01*
X11669D01*
X11675Y7212D01*
X11677Y7209D01*
X11680Y7201D01*
Y7195D01*
X11677Y7187D01*
X11672Y7181D01*
X11663Y7178D01*
X11655D01*
X11646Y7181D01*
X11643Y7184D01*
X11640Y7189D01*
X12022Y7178D02*
Y7238D01*
X12002D02*
X12042D01*
X12058Y7215D02*
X12064Y7218D01*
X12058Y7215D02*
X12052Y7209D01*
X12049Y7201D01*
Y7195D01*
X12052Y7187D01*
X12058Y7181D01*
X12064Y7178D01*
X12072D01*
X12078Y7181D01*
X12084Y7187D01*
X12087Y7195D01*
Y7201D01*
X12084Y7209D01*
X12078Y7215D01*
X12072Y7218D01*
X12064D01*
X12108Y7238D02*
Y7189D01*
X12111Y7181D01*
X12117Y7178D01*
X12123D01*
X12120Y7218D02*
X12100D01*
X12165D02*
Y7178D01*
Y7209D02*
X12160Y7215D01*
X12154Y7218D01*
X12145D01*
X12140Y7215D01*
X12134Y7209D01*
X12131Y7201D01*
Y7195D01*
X12134Y7187D01*
X12140Y7181D01*
X12145Y7178D01*
X12154D01*
X12160Y7181D01*
X12165Y7187D01*
X12181Y7178D02*
Y7238D01*
D02*
M02*
