M71
M48
T1F00S00C0.015
T2F00S00C0.031
T3F00S00C0.035
T4F00S00C0.039
T5F00S00C0.050
T6F00S00C0.115
T7F00S00C0.138
%
T01
X01939Y00034
X0195Y00105
X02015Y0013
X02039Y00034
X02139
X02239
X02339
X02449Y00099
X0242Y0021
X02375Y0031
X0254Y00315
Y00385
X02545Y0071
X02475Y0086
X02515Y01055
X02565Y0106
X02169Y01054
X02254Y00929
X02289
X02275Y0075
X0222Y0052
X02235Y00435
Y00355
X01985Y00395
Y0043
X01875
Y00395
X0202Y0052
X02045Y0058
X02149Y00579
X0189Y01035
X0184Y00975
X01804Y00994
X0167Y0098
Y00865
X0163
X01585
X0158Y00765
X01615
Y00715
X0158
X0154
Y00765
X01389Y00889
X01409Y01004
X0132Y00965
X01244Y00959
X01269Y00934
X01229Y00889
X01185Y0094
X0115
X01009Y00924
X00959
X00909
Y00869
X00959
X01009
X01074Y00819
Y00699
X01039Y00629
X00965Y0067
X00839Y00739
X00769Y00714
X00679Y00754
Y00794
X00629Y00879
X00569Y00859
X00544Y00804
X00494Y00829
Y00884
Y00934
X00464Y00959
Y00909
X00569Y00959
X00594Y00989
X00435Y01045
X00339Y00989
Y00474
X00439
X00539
X00639
X00745Y00475
X00875
X00974Y00474
Y00349
X01089Y00394
X01189Y00569
X01289Y00664
X01269Y00814
X01219Y01034
X01009Y00984
X00959
X00909
X00814Y01044
X00779Y01069
X00784Y00844
X00809Y00864
X00974Y00149
Y00049
X01039Y00034
X01139
X01239
X01339
X01335Y00075
X01475
X01439Y00034
X01539
X01639
X01739
X01839
X0184Y0021
X0176
X01845Y00395
Y0043
X01545Y0044
X0132Y00335
X0122Y00175
X00239Y00474
X00139
X00035Y00475
X00034Y00749
Y00849
Y00949
Y01049
Y01149
Y01249
X00074Y01274
X00144Y01309
X00189Y01274
X00254Y01249
X00264Y01154
X00265Y0137
X00034Y01349
X0036Y01325
X00435Y01285
X0052Y0129
X00555Y01265
X0064
X0067Y0129
X0072Y01325
X00719Y01234
X0078Y0136
X0088
X0094Y01325
X0098Y014
X0095Y0152
X00915
X0088Y01655
X0078Y0168
X0083Y0174
X0098
X0108Y0163
X0113Y0152
X0118
X0123
X0128
X0133
X0138Y01655
X0133Y0174
X0118Y0171
Y01366
X0117Y01325
X0128Y01365
X01365Y01325
X01509Y01199
X0167Y0111
X01835Y0119
Y01325
X0173Y0152
X0168
X0163
X0158
Y0171
X01525Y0172
X0163Y0174
X0178
X0063
X0058Y0171
Y01565
X0053Y01525
X0048Y01605
X0038Y01525
X0068Y0163
X00629Y01094
X00594Y01129
X00854Y01154
X0188Y01365
Y0152
X0193
X0203
X0213
X02175Y0171
X02195Y0174
X02295Y01725
Y0166
X02485Y0165
Y01735
X0242Y0174
X0203
X02055Y01295
X02115Y01225
X02189Y01219
Y01259
X02235Y01255
X02264
X02249Y01235
X02235Y01215
X02264
X02304Y01219
Y01259
X02299Y01359
X02239Y01084
X02374
X02565Y01095
X026
T02
X014Y01729
X01479
T03
X02509Y01102
X02509Y0137
T04
X00262Y01052
X00262Y01202
T05
X01389Y00259
X01489
X01589
X01689
T06
X02421Y00614
X00138
Y01519
X02421
T07
X02004Y00272
X01067
Y01185
X02004Y01185
M30
