*%FSLAX23Y23*%
*%MOIN*%
G01*
%ADD11C,0.000*%
%ADD12C,0.001*%
%ADD13C,0.002*%
%ADD14C,0.006*%
%ADD15C,0.007*%
%ADD16C,0.007*%
%ADD17C,0.008*%
%ADD18C,0.010*%
%ADD19C,0.012*%
%ADD20C,0.015*%
%ADD21C,0.018*%
%ADD22C,0.022*%
%ADD23C,0.024*%
%ADD24C,0.025*%
%ADD25C,0.029*%
%ADD26C,0.031*%
%ADD27C,0.031*%
%ADD28C,0.035*%
%ADD29C,0.035*%
%ADD30C,0.039*%
%ADD31C,0.039*%
%ADD32C,0.046*%
%ADD33C,0.047*%
%ADD34C,0.050*%
%ADD35C,0.051*%
%ADD36C,0.051*%
%ADD37C,0.054*%
%ADD38C,0.055*%
%ADD39C,0.058*%
%ADD40C,0.059*%
%ADD41C,0.059*%
%ADD42C,0.062*%
%ADD43C,0.067*%
%ADD44C,0.070*%
%ADD45C,0.074*%
%ADD46C,0.100*%
%ADD47C,0.108*%
%ADD48C,0.108*%
%ADD49C,0.120*%
%ADD50C,0.128*%
%ADD51C,0.128*%
%ADD52C,0.190*%
%ADD53C,0.194*%
%ADD54C,0.236*%
%ADD55C,0.240*%
%ADD56R,0.011X0.030*%
%ADD57R,0.012X0.030*%
%ADD58R,0.012X0.057*%
%ADD59R,0.014X0.033*%
%ADD60R,0.015X0.034*%
%ADD61R,0.016X0.034*%
%ADD62R,0.016X0.061*%
%ADD63R,0.018X0.037*%
%ADD64R,0.020X0.025*%
%ADD65R,0.021X0.021*%
%ADD66R,0.024X0.029*%
%ADD67R,0.025X0.020*%
%ADD68R,0.029X0.024*%
%ADD69R,0.030X0.011*%
%ADD70R,0.030X0.030*%
%ADD71R,0.031X0.031*%
%ADD72R,0.033X0.014*%
%ADD73R,0.034X0.015*%
%ADD74R,0.034X0.034*%
%ADD75R,0.035X0.035*%
%ADD76R,0.037X0.014*%
%ADD77R,0.037X0.018*%
%ADD78R,0.039X0.055*%
%ADD79R,0.039X0.014*%
%ADD80R,0.040X0.083*%
%ADD81R,0.041X0.018*%
%ADD82R,0.043X0.059*%
%ADD83R,0.043X0.018*%
%ADD84R,0.044X0.087*%
%ADD85R,0.047X0.055*%
%ADD86R,0.050X0.060*%
%ADD87R,0.051X0.071*%
%ADD88R,0.051X0.059*%
%ADD89R,0.054X0.064*%
%ADD90R,0.055X0.039*%
%ADD91R,0.055X0.075*%
%ADD92R,0.057X0.067*%
%ADD93R,0.059X0.043*%
%ADD94R,0.060X0.060*%
%ADD95R,0.061X0.024*%
%ADD96R,0.061X0.051*%
%ADD97R,0.061X0.071*%
%ADD98R,0.063X0.039*%
%ADD99R,0.063X0.126*%
%ADD100R,0.064X0.064*%
%ADD101R,0.065X0.028*%
%ADD102R,0.065X0.055*%
%ADD103R,0.067X0.043*%
%ADD104R,0.067X0.130*%
%ADD105R,0.085X0.030*%
%ADD106R,0.089X0.034*%
%ADD107R,0.094X0.030*%
%ADD108R,0.098X0.070*%
%ADD109R,0.098X0.034*%
%ADD110R,0.102X0.074*%
%ADD111R,0.104X0.104*%
%ADD112R,0.108X0.108*%
%ADD113R,0.134X0.059*%
%ADD114R,0.138X0.039*%
%ADD115R,0.138X0.063*%
%ADD116R,0.142X0.043*%
%ADD117R,0.169X0.169*%
%ADD118R,0.173X0.173*%
%ADD119R,0.250X0.250*%
D11*
X10963Y8538D02*
X10993D01*
X10978Y8523D02*
Y8553D01*
X10520Y8205D02*
X10490D01*
X10505Y8190D02*
Y8220D01*
X10963Y7633D02*
X10993D01*
X10978Y7618D02*
Y7648D01*
X10521Y7293D02*
X10491D01*
X10506Y7278D02*
Y7308D01*
X9705Y8205D02*
X9675D01*
X9690Y8190D02*
Y8220D01*
X9675Y7292D02*
X9705D01*
X9690Y7277D02*
Y7307D01*
X8710Y8538D02*
X8680D01*
X8695Y8523D02*
Y8553D01*
X8680Y7633D02*
X8710D01*
X8695Y7618D02*
Y7648D01*
X11147Y8114D02*
X11167D01*
X11157Y8104D02*
Y8124D01*
X11161Y7388D02*
X11141D01*
X11151Y7378D02*
Y7398D01*
X10962Y8759D02*
X10942D01*
X10952Y8749D02*
Y8769D01*
X11032Y8669D02*
X11052D01*
X11042Y8659D02*
Y8679D01*
X11112Y8114D02*
X11132D01*
X11122Y8104D02*
Y8124D01*
X11042Y7879D02*
X11022D01*
X11032Y7869D02*
Y7889D01*
X11126Y7768D02*
X11146D01*
X11136Y7758D02*
Y7778D01*
X11111Y7388D02*
X11091D01*
X11101Y7378D02*
Y7398D01*
X11111Y8073D02*
X11131D01*
X11121Y8063D02*
Y8083D01*
X11091Y8073D02*
X11071D01*
X11081Y8063D02*
Y8083D01*
X11016Y7118D02*
X10996D01*
X11006Y7108D02*
Y7128D01*
X11046Y7493D02*
X11066D01*
X11056Y7483D02*
Y7503D01*
X10862Y8624D02*
X10842D01*
X10852Y8614D02*
Y8634D01*
X10921Y8103D02*
X10941D01*
X10931Y8093D02*
Y8113D01*
X10802Y8234D02*
X10782D01*
X10792Y8224D02*
Y8244D01*
X10782Y8274D02*
X10802D01*
X10792Y8264D02*
Y8284D01*
X10796Y8254D02*
X10816D01*
X10806Y8244D02*
Y8264D01*
X10811Y8234D02*
X10831D01*
X10821Y8224D02*
Y8244D01*
X10811Y8274D02*
X10831D01*
X10821Y8264D02*
Y8284D01*
X10851Y8238D02*
X10871D01*
X10861Y8228D02*
Y8248D01*
X10851Y8278D02*
X10871D01*
X10861Y8268D02*
Y8288D01*
X10866Y8378D02*
X10846D01*
X10856Y8368D02*
Y8388D01*
X10786Y8493D02*
X10766D01*
X10776Y8483D02*
Y8503D01*
X10786Y8103D02*
X10806D01*
X10796Y8093D02*
Y8113D01*
X10822Y7769D02*
X10842D01*
X10832Y7759D02*
Y7779D01*
X10886Y7053D02*
X10906D01*
X10896Y7043D02*
Y7063D01*
X10806Y7053D02*
X10786D01*
X10796Y7043D02*
Y7063D01*
X10801Y7948D02*
X10821D01*
X10811Y7938D02*
Y7958D01*
X10836Y7948D02*
X10856D01*
X10846Y7938D02*
Y7958D01*
X10756Y8278D02*
X10736D01*
X10746Y8268D02*
Y8288D01*
X10736Y8238D02*
X10756D01*
X10746Y8228D02*
Y8248D01*
X10586Y8323D02*
X10566D01*
X10576Y8313D02*
Y8333D01*
X10686Y7053D02*
X10706D01*
X10696Y7043D02*
Y7063D01*
X10606Y7053D02*
X10586D01*
X10596Y7043D02*
Y7063D01*
X10696Y7598D02*
X10716D01*
X10706Y7588D02*
Y7608D01*
X10716Y8073D02*
X10736D01*
X10726Y8063D02*
Y8083D01*
X10611Y7853D02*
X10591D01*
X10601Y7843D02*
Y7863D01*
X10571Y8053D02*
X10551D01*
X10561Y8043D02*
Y8063D01*
X10586Y7133D02*
X10606D01*
X10596Y7123D02*
Y7143D01*
X10601Y7173D02*
X10581D01*
X10591Y7163D02*
Y7183D01*
X10496Y8748D02*
X10476D01*
X10486Y8738D02*
Y8758D01*
Y7053D02*
X10506D01*
X10496Y7043D02*
Y7063D01*
X10406Y7053D02*
X10386D01*
X10396Y7043D02*
Y7063D01*
X10371Y8013D02*
X10351D01*
X10361Y8003D02*
Y8023D01*
X10296Y8748D02*
X10276D01*
X10286Y8738D02*
Y8758D01*
Y7053D02*
X10306D01*
X10296Y7043D02*
Y7063D01*
X10206Y7053D02*
X10186D01*
X10196Y7043D02*
Y7063D01*
X10182Y7784D02*
X10162D01*
X10172Y7774D02*
Y7794D01*
X10162Y7734D02*
X10182D01*
X10172Y7724D02*
Y7744D01*
X10177Y7884D02*
X10197D01*
X10187Y7874D02*
Y7894D01*
X10217Y7884D02*
X10237D01*
X10227Y7874D02*
Y7894D01*
X10096Y8563D02*
X10076D01*
X10086Y8553D02*
Y8573D01*
X10076Y8218D02*
X10056D01*
X10066Y8208D02*
Y8228D01*
X9996Y8598D02*
X9976D01*
X9986Y8588D02*
Y8608D01*
X10086Y7053D02*
X10106D01*
X10096Y7043D02*
Y7063D01*
X10006Y7053D02*
X9986D01*
X9996Y7043D02*
Y7063D01*
X10132Y7884D02*
X10152D01*
X10142Y7874D02*
Y7894D01*
X10147Y7784D02*
X10127D01*
X10137Y7774D02*
Y7794D01*
X10127Y7734D02*
X10147D01*
X10137Y7724D02*
Y7744D01*
X10112Y7459D02*
X10092D01*
X10102Y7449D02*
Y7469D01*
X10107Y7784D02*
X10087D01*
X10097Y7774D02*
Y7794D01*
X10087Y7734D02*
X10107D01*
X10097Y7724D02*
Y7744D01*
X9976Y8573D02*
X9956D01*
X9966Y8563D02*
Y8583D01*
X9796Y8748D02*
X9776D01*
X9786Y8738D02*
Y8758D01*
X9876Y8533D02*
X9896D01*
X9886Y8523D02*
Y8543D01*
X9796Y8558D02*
X9776D01*
X9786Y8548D02*
Y8568D01*
X9912Y8354D02*
X9932D01*
X9922Y8344D02*
Y8364D01*
X9847Y8454D02*
X9827D01*
X9837Y8444D02*
Y8464D01*
X9827Y8724D02*
X9847D01*
X9837Y8714D02*
Y8734D01*
X9886Y7053D02*
X9906D01*
X9896Y7043D02*
Y7063D01*
X9806Y7053D02*
X9786D01*
X9796Y7043D02*
Y7063D01*
X9936Y7093D02*
X9956D01*
X9946Y7083D02*
Y7103D01*
X9936Y7908D02*
X9956D01*
X9946Y7898D02*
Y7918D01*
X9956Y8023D02*
X9976D01*
X9966Y8013D02*
Y8033D01*
X9836Y7833D02*
X9816D01*
X9826Y7823D02*
Y7843D01*
X9836Y7683D02*
X9856D01*
X9846Y7673D02*
Y7693D01*
X9786Y8053D02*
X9766D01*
X9776Y8043D02*
Y8063D01*
Y7908D02*
X9796D01*
X9786Y7898D02*
Y7918D01*
X9816Y7953D02*
X9836D01*
X9826Y7943D02*
Y7963D01*
X9811Y7978D02*
X9791D01*
X9801Y7968D02*
Y7988D01*
X9697Y8354D02*
X9677D01*
X9687Y8344D02*
Y8364D01*
X9727Y8454D02*
X9747D01*
X9737Y8444D02*
Y8464D01*
X9727Y8699D02*
X9747D01*
X9737Y8689D02*
Y8709D01*
X9706Y7053D02*
X9686D01*
X9696Y7043D02*
Y7063D01*
X9606Y7053D02*
X9586D01*
X9596Y7043D02*
Y7063D01*
X9736Y7588D02*
X9756D01*
X9746Y7578D02*
Y7598D01*
X9606Y7648D02*
X9586D01*
X9596Y7638D02*
Y7658D01*
X9621Y7718D02*
X9641D01*
X9631Y7708D02*
Y7728D01*
X9621Y7838D02*
X9641D01*
X9631Y7828D02*
Y7848D01*
X9636Y7413D02*
X9656D01*
X9646Y7403D02*
Y7423D01*
X9697Y7959D02*
X9717D01*
X9707Y7949D02*
Y7969D01*
X9732Y7959D02*
X9752D01*
X9742Y7949D02*
Y7969D01*
X9546Y8223D02*
X9526D01*
X9536Y8213D02*
Y8233D01*
X9396Y8483D02*
X9376D01*
X9386Y8473D02*
Y8493D01*
X9476Y8508D02*
X9496D01*
X9486Y8498D02*
Y8518D01*
X9421Y8173D02*
X9401D01*
X9411Y8163D02*
Y8183D01*
X9476Y8748D02*
X9496D01*
X9486Y8738D02*
Y8758D01*
X9487Y8354D02*
X9507D01*
X9497Y8344D02*
Y8364D01*
X9521Y7493D02*
X9541D01*
X9531Y7483D02*
Y7503D01*
X9521Y7068D02*
X9541D01*
X9531Y7058D02*
Y7078D01*
X9521Y7168D02*
X9541D01*
X9531Y7158D02*
Y7178D01*
X9521Y7268D02*
X9541D01*
X9531Y7258D02*
Y7278D01*
X9521Y7368D02*
X9541D01*
X9531Y7358D02*
Y7378D01*
X9406Y7493D02*
X9386D01*
X9396Y7483D02*
Y7503D01*
X9506Y7943D02*
X9526D01*
X9516Y7933D02*
Y7953D01*
X9556Y7888D02*
X9576D01*
X9566Y7878D02*
Y7898D01*
X9556Y7943D02*
X9576D01*
X9566Y7933D02*
Y7953D01*
X9556Y8003D02*
X9576D01*
X9566Y7993D02*
Y8013D01*
X9526Y7888D02*
X9506D01*
X9516Y7878D02*
Y7898D01*
X9506Y8003D02*
X9526D01*
X9516Y7993D02*
Y8013D01*
X9406Y7758D02*
X9386D01*
X9396Y7748D02*
Y7768D01*
X9456Y7888D02*
X9476D01*
X9466Y7878D02*
Y7898D01*
X9456Y7943D02*
X9476D01*
X9466Y7933D02*
Y7953D01*
X9456Y8003D02*
X9476D01*
X9466Y7993D02*
Y8013D01*
X9512Y7689D02*
X9532D01*
X9522Y7679D02*
Y7699D01*
X9251Y8298D02*
X9231D01*
X9241Y8288D02*
Y8308D01*
X9266Y8253D02*
X9286D01*
X9276Y8243D02*
Y8263D01*
X9226Y8323D02*
X9206D01*
X9216Y8313D02*
Y8333D01*
X9226Y8748D02*
X9246D01*
X9236Y8738D02*
Y8758D01*
X9196Y8113D02*
X9176D01*
X9186Y8103D02*
Y8123D01*
X9267Y8354D02*
X9287D01*
X9277Y8344D02*
Y8364D01*
X9312Y8504D02*
X9332D01*
X9322Y8494D02*
Y8514D01*
X9347Y8504D02*
X9367D01*
X9357Y8494D02*
Y8514D01*
X9306Y7493D02*
X9286D01*
X9296Y7483D02*
Y7503D01*
X9206Y7493D02*
X9186D01*
X9196Y7483D02*
Y7503D01*
X9316Y7733D02*
X9336D01*
X9326Y7723D02*
Y7743D01*
X9356Y7883D02*
X9376D01*
X9366Y7873D02*
Y7893D01*
X9351Y7863D02*
X9331D01*
X9341Y7853D02*
Y7873D01*
X9346Y8088D02*
X9326D01*
X9336Y8078D02*
Y8098D01*
X9361Y8063D02*
X9381D01*
X9371Y8053D02*
Y8073D01*
X9246Y7813D02*
X9226D01*
X9236Y7803D02*
Y7823D01*
X9226Y7773D02*
X9246D01*
X9236Y7763D02*
Y7783D01*
X9196Y7898D02*
X9176D01*
X9186Y7888D02*
Y7908D01*
X9161Y8598D02*
X9141D01*
X9151Y8588D02*
Y8608D01*
X9136Y8573D02*
X9116D01*
X9126Y8563D02*
Y8583D01*
X9141Y8148D02*
X9161D01*
X9151Y8138D02*
Y8158D01*
X9121Y8298D02*
X9101D01*
X9111Y8288D02*
Y8308D01*
X9071Y8323D02*
X9051D01*
X9061Y8313D02*
Y8333D01*
X9056Y8548D02*
X9036D01*
X9046Y8538D02*
Y8558D01*
X9076Y8748D02*
X9096D01*
X9086Y8738D02*
Y8758D01*
X9031Y8523D02*
X9011D01*
X9021Y8513D02*
Y8533D01*
X9132Y8699D02*
X9152D01*
X9142Y8689D02*
Y8709D01*
X9047Y8724D02*
X9027D01*
X9037Y8714D02*
Y8734D01*
X9002Y8304D02*
X8982D01*
X8992Y8294D02*
Y8314D01*
X9086Y7493D02*
X9106D01*
X9096Y7483D02*
Y7503D01*
X9006Y7493D02*
X8986D01*
X8996Y7483D02*
Y7503D01*
X9141Y8008D02*
X9161D01*
X9151Y7998D02*
Y8018D01*
X9136Y7978D02*
X9116D01*
X9126Y7968D02*
Y7988D01*
X9116Y7878D02*
X9136D01*
X9126Y7868D02*
Y7888D01*
X9111Y7823D02*
X9091D01*
X9101Y7813D02*
Y7833D01*
X9061Y7848D02*
X9041D01*
X9051Y7838D02*
Y7858D01*
X9031Y7928D02*
X9011D01*
X9021Y7918D02*
Y7938D01*
X9011Y7978D02*
X9031D01*
X9021Y7968D02*
Y7988D01*
X9041Y7903D02*
X9061D01*
X9051Y7893D02*
Y7913D01*
X9041Y7953D02*
X9061D01*
X9051Y7943D02*
Y7963D01*
X9002Y8064D02*
X8982D01*
X8992Y8054D02*
Y8074D01*
X8896Y8353D02*
X8876D01*
X8886Y8343D02*
Y8363D01*
Y7493D02*
X8906D01*
X8896Y7483D02*
Y7503D01*
X8886Y8008D02*
X8906D01*
X8896Y7998D02*
Y8018D01*
X8821Y8268D02*
X8801D01*
X8811Y8258D02*
Y8278D01*
Y8173D02*
X8831D01*
X8821Y8163D02*
Y8183D01*
X8806Y7493D02*
X8786D01*
X8796Y7483D02*
Y7503D01*
X8756Y8293D02*
X8736D01*
X8746Y8283D02*
Y8303D01*
Y8728D02*
X8726D01*
X8736Y8718D02*
Y8738D01*
X8641Y8293D02*
X8621D01*
X8631Y8283D02*
Y8303D01*
X8691Y8328D02*
X8711D01*
X8701Y8318D02*
Y8338D01*
X8706Y7493D02*
X8686D01*
X8696Y7483D02*
Y7503D01*
X8601Y8368D02*
X8581D01*
X8591Y8358D02*
Y8378D01*
X8581Y8268D02*
X8601D01*
X8591Y8258D02*
Y8278D01*
X8581Y8168D02*
X8601D01*
X8591Y8158D02*
Y8178D01*
X8581Y8068D02*
X8601D01*
X8591Y8058D02*
Y8078D01*
X8581Y7968D02*
X8601D01*
X8591Y7958D02*
Y7978D01*
X8581Y7868D02*
X8601D01*
X8591Y7858D02*
Y7878D01*
X8581Y7768D02*
X8601D01*
X8591Y7758D02*
Y7778D01*
X8586Y7493D02*
X8606D01*
X8596Y7483D02*
Y7503D01*
X10721Y8538D02*
X10751D01*
X10736Y8523D02*
Y8553D01*
X8951Y8538D02*
X8921D01*
X8936Y8523D02*
Y8553D01*
X8834Y8221D02*
X8804D01*
X8819Y8206D02*
Y8236D01*
X8804Y8071D02*
X8834D01*
X8819Y8056D02*
Y8086D01*
X10021Y8748D02*
X10051D01*
X10036Y8733D02*
Y8763D01*
X9972Y8748D02*
X9942D01*
X9957Y8733D02*
Y8763D01*
X11051Y8389D02*
X11081D01*
X11066Y8374D02*
Y8404D01*
X11081Y8121D02*
X11051D01*
X11066Y8106D02*
Y8136D01*
X9961Y7278D02*
X9931D01*
X9946Y7263D02*
Y7293D01*
X10031Y7278D02*
X10061D01*
X10046Y7263D02*
Y7293D01*
X10131Y7278D02*
X10161D01*
X10146Y7263D02*
Y7293D01*
X10231Y7278D02*
X10261D01*
X10246Y7263D02*
Y7293D01*
D02*
M02*
