*%FSLAX23Y23*%
*%MOIN*%
G01*
%ADD11C,0.000*%
%ADD12C,0.001*%
%ADD13C,0.002*%
%ADD14C,0.006*%
%ADD15C,0.007*%
%ADD16C,0.007*%
%ADD17C,0.008*%
%ADD18C,0.010*%
%ADD19C,0.012*%
%ADD20C,0.015*%
%ADD21C,0.018*%
%ADD22C,0.022*%
%ADD23C,0.024*%
%ADD24C,0.025*%
%ADD25C,0.029*%
%ADD26C,0.031*%
%ADD27C,0.031*%
%ADD28C,0.035*%
%ADD29C,0.035*%
%ADD30C,0.039*%
%ADD31C,0.039*%
%ADD32C,0.046*%
%ADD33C,0.047*%
%ADD34C,0.050*%
%ADD35C,0.051*%
%ADD36C,0.051*%
%ADD37C,0.054*%
%ADD38C,0.055*%
%ADD39C,0.058*%
%ADD40C,0.059*%
%ADD41C,0.059*%
%ADD42C,0.062*%
%ADD43C,0.067*%
%ADD44C,0.070*%
%ADD45C,0.074*%
%ADD46C,0.100*%
%ADD47C,0.108*%
%ADD48C,0.108*%
%ADD49C,0.120*%
%ADD50C,0.128*%
%ADD51C,0.128*%
%ADD52C,0.190*%
%ADD53C,0.194*%
%ADD54C,0.236*%
%ADD55C,0.240*%
%ADD56R,0.011X0.030*%
%ADD57R,0.012X0.030*%
%ADD58R,0.012X0.057*%
%ADD59R,0.014X0.033*%
%ADD60R,0.015X0.034*%
%ADD61R,0.016X0.034*%
%ADD62R,0.016X0.061*%
%ADD63R,0.018X0.037*%
%ADD64R,0.020X0.025*%
%ADD65R,0.021X0.021*%
%ADD66R,0.024X0.029*%
%ADD67R,0.025X0.020*%
%ADD68R,0.029X0.024*%
%ADD69R,0.030X0.011*%
%ADD70R,0.030X0.030*%
%ADD71R,0.031X0.031*%
%ADD72R,0.033X0.014*%
%ADD73R,0.034X0.015*%
%ADD74R,0.034X0.034*%
%ADD75R,0.035X0.035*%
%ADD76R,0.037X0.014*%
%ADD77R,0.037X0.018*%
%ADD78R,0.039X0.055*%
%ADD79R,0.039X0.014*%
%ADD80R,0.040X0.083*%
%ADD81R,0.041X0.018*%
%ADD82R,0.043X0.059*%
%ADD83R,0.043X0.018*%
%ADD84R,0.044X0.087*%
%ADD85R,0.047X0.055*%
%ADD86R,0.050X0.060*%
%ADD87R,0.051X0.071*%
%ADD88R,0.051X0.059*%
%ADD89R,0.054X0.064*%
%ADD90R,0.055X0.039*%
%ADD91R,0.055X0.075*%
%ADD92R,0.057X0.067*%
%ADD93R,0.059X0.043*%
%ADD94R,0.060X0.060*%
%ADD95R,0.061X0.024*%
%ADD96R,0.061X0.051*%
%ADD97R,0.061X0.071*%
%ADD98R,0.063X0.039*%
%ADD99R,0.063X0.126*%
%ADD100R,0.064X0.064*%
%ADD101R,0.065X0.028*%
%ADD102R,0.065X0.055*%
%ADD103R,0.067X0.043*%
%ADD104R,0.067X0.130*%
%ADD105R,0.085X0.030*%
%ADD106R,0.089X0.034*%
%ADD107R,0.094X0.030*%
%ADD108R,0.098X0.070*%
%ADD109R,0.098X0.034*%
%ADD110R,0.102X0.074*%
%ADD111R,0.104X0.104*%
%ADD112R,0.108X0.108*%
%ADD113R,0.134X0.059*%
%ADD114R,0.138X0.039*%
%ADD115R,0.138X0.063*%
%ADD116R,0.142X0.043*%
%ADD117R,0.169X0.169*%
%ADD118R,0.173X0.173*%
%ADD119R,0.250X0.250*%
D11*
X10953Y8513D02*
Y8546D01*
X10970Y8563D01*
X10987Y8546D01*
Y8513D01*
Y8538D01*
X10953D01*
X10480Y8230D02*
Y8180D01*
X10505D01*
X10513Y8188D01*
Y8197D01*
X10505Y8205D01*
X10480D01*
X10481D01*
X10480D02*
X10481D01*
X10480D02*
X10481D01*
X10480D02*
X10505D01*
X10513Y8213D01*
Y8222D01*
X10505Y8230D01*
X10480D01*
X10978Y7658D02*
X10987Y7649D01*
X10978Y7658D02*
X10962D01*
X10953Y7649D01*
Y7616D01*
X10962Y7608D01*
X10978D01*
X10987Y7616D01*
X10481Y7318D02*
Y7268D01*
X10506D01*
X10514Y7276D01*
Y7285D01*
X10506Y7293D01*
X10481D01*
X10482D01*
X10481D02*
X10482D01*
X10481D02*
X10482D01*
X10481D02*
X10506D01*
X10514Y7301D01*
Y7310D01*
X10506Y7318D01*
X10481D01*
X9665Y8180D02*
Y8230D01*
Y8180D02*
X9690D01*
X9698Y8188D01*
Y8197D01*
X9690Y8205D01*
X9665D01*
X9666D01*
X9665D02*
X9666D01*
X9665D02*
X9666D01*
X9665D02*
X9690D01*
X9698Y8213D01*
Y8222D01*
X9690Y8230D01*
X9665D01*
Y7317D02*
Y7267D01*
X9690D01*
X9698Y7275D01*
Y7284D01*
X9690Y7292D01*
X9665D01*
X9666D01*
X9665D02*
X9666D01*
X9665D02*
X9666D01*
X9665D02*
X9690D01*
X9698Y7300D01*
Y7309D01*
X9690Y7317D01*
X9665D01*
X8703Y8555D02*
X8695Y8563D01*
X8678D01*
X8670Y8555D01*
Y8521D01*
X8678Y8513D01*
X8695D01*
X8703Y8521D01*
X8695Y7658D02*
X8703Y7649D01*
X8695Y7658D02*
X8678D01*
X8670Y7649D01*
Y7616D01*
X8678Y7608D01*
X8695D01*
X8703Y7616D01*
X11132Y8089D02*
Y8139D01*
Y8089D02*
X11157D01*
X11165Y8097D01*
Y8131D01*
X11157Y8139D01*
X11132D01*
X11126Y7413D02*
Y7363D01*
X11151D01*
X11159Y7371D01*
Y7405D01*
X11151Y7413D01*
X11126D01*
X10927Y8734D02*
Y8784D01*
Y8734D02*
X10952D01*
X10960Y8742D01*
Y8776D01*
X10952Y8784D01*
X10927D01*
X11017Y8694D02*
Y8644D01*
X11042D01*
X11050Y8652D01*
Y8686D01*
X11042Y8694D01*
X11017D01*
X11097Y8139D02*
Y8089D01*
X11122D01*
X11130Y8097D01*
Y8131D01*
X11122Y8139D01*
X11097D01*
X11007Y7904D02*
Y7854D01*
X11032D01*
X11040Y7862D01*
Y7896D01*
X11032Y7904D01*
X11007D01*
X11111Y7793D02*
Y7743D01*
X11136D01*
X11144Y7751D01*
Y7785D01*
X11136Y7793D01*
X11111D01*
X11076Y7413D02*
Y7363D01*
X11101D01*
X11109Y7371D01*
Y7405D01*
X11101Y7413D01*
X11076D01*
X11096Y8048D02*
Y8098D01*
Y8048D02*
X11121D01*
X11129Y8056D01*
Y8090D01*
X11121Y8098D01*
X11096D01*
X11056D02*
Y8048D01*
X11081D01*
X11089Y8056D01*
Y8090D01*
X11081Y8098D01*
X11056D01*
X10981Y7143D02*
Y7093D01*
X11006D01*
X11014Y7101D01*
Y7135D01*
X11006Y7143D01*
X10981D01*
X11031Y7468D02*
Y7518D01*
Y7468D02*
X11056D01*
X11064Y7476D01*
Y7510D01*
X11056Y7518D01*
X11031D01*
X10827Y8599D02*
Y8649D01*
Y8599D02*
X10852D01*
X10860Y8607D01*
Y8641D01*
X10852Y8649D01*
X10827D01*
X10906Y8128D02*
Y8078D01*
X10931D01*
X10939Y8086D01*
Y8120D01*
X10931Y8128D01*
X10906D01*
X10767Y8209D02*
Y8259D01*
Y8209D02*
X10792D01*
X10800Y8217D01*
Y8251D01*
X10792Y8259D01*
X10767D01*
Y8249D02*
Y8299D01*
Y8249D02*
X10792D01*
X10800Y8257D01*
Y8291D01*
X10792Y8299D01*
X10767D01*
X10781Y8279D02*
Y8229D01*
X10806D01*
X10814Y8237D01*
Y8271D01*
X10806Y8279D01*
X10781D01*
X10796Y8259D02*
Y8209D01*
X10821D01*
X10829Y8217D01*
Y8251D01*
X10821Y8259D01*
X10796D01*
Y8249D02*
Y8299D01*
Y8249D02*
X10821D01*
X10829Y8257D01*
Y8291D01*
X10821Y8299D01*
X10796D01*
X10836Y8263D02*
Y8213D01*
X10861D01*
X10869Y8221D01*
Y8255D01*
X10861Y8263D01*
X10836D01*
Y8253D02*
Y8303D01*
Y8253D02*
X10861D01*
X10869Y8261D01*
Y8295D01*
X10861Y8303D01*
X10836D01*
X10831Y8353D02*
Y8403D01*
Y8353D02*
X10856D01*
X10864Y8361D01*
Y8395D01*
X10856Y8403D01*
X10831D01*
X10751Y8468D02*
Y8518D01*
Y8468D02*
X10776D01*
X10784Y8476D01*
Y8510D01*
X10776Y8518D01*
X10751D01*
X10771Y8128D02*
Y8078D01*
X10796D01*
X10804Y8086D01*
Y8120D01*
X10796Y8128D01*
X10771D01*
X10807Y7794D02*
Y7744D01*
X10832D01*
X10840Y7752D01*
Y7786D01*
X10832Y7794D01*
X10807D01*
X10871Y7078D02*
Y7028D01*
X10896D01*
X10904Y7036D01*
Y7070D01*
X10896Y7078D01*
X10871D01*
X10771D02*
Y7028D01*
X10796D01*
X10804Y7036D01*
Y7070D01*
X10796Y7078D01*
X10771D01*
X10786Y7923D02*
Y7973D01*
Y7923D02*
X10811D01*
X10819Y7931D01*
Y7965D01*
X10811Y7973D01*
X10786D01*
X10821D02*
Y7923D01*
X10846D01*
X10854Y7931D01*
Y7965D01*
X10846Y7973D01*
X10821D01*
X10721Y8253D02*
Y8303D01*
Y8253D02*
X10746D01*
X10754Y8261D01*
Y8295D01*
X10746Y8303D01*
X10721D01*
Y8263D02*
Y8213D01*
X10746D01*
X10754Y8221D01*
Y8255D01*
X10746Y8263D01*
X10721D01*
X10551Y8298D02*
Y8348D01*
Y8298D02*
X10576D01*
X10584Y8306D01*
Y8340D01*
X10576Y8348D01*
X10551D01*
X10671Y7078D02*
Y7028D01*
X10696D01*
X10704Y7036D01*
Y7070D01*
X10696Y7078D01*
X10671D01*
X10571D02*
Y7028D01*
X10596D01*
X10604Y7036D01*
Y7070D01*
X10596Y7078D01*
X10571D01*
X10681Y7573D02*
Y7623D01*
Y7573D02*
X10706D01*
X10714Y7581D01*
Y7615D01*
X10706Y7623D01*
X10681D01*
X10701Y8048D02*
Y8098D01*
Y8048D02*
X10726D01*
X10734Y8056D01*
Y8090D01*
X10726Y8098D01*
X10701D01*
X10576Y7878D02*
Y7828D01*
X10601D01*
X10609Y7836D01*
Y7870D01*
X10601Y7878D01*
X10576D01*
X10536Y8028D02*
Y8078D01*
Y8028D02*
X10561D01*
X10569Y8036D01*
Y8070D01*
X10561Y8078D01*
X10536D01*
X10571Y7158D02*
Y7108D01*
X10596D01*
X10604Y7116D01*
Y7150D01*
X10596Y7158D01*
X10571D01*
X10566Y7148D02*
Y7198D01*
Y7148D02*
X10591D01*
X10599Y7156D01*
Y7190D01*
X10591Y7198D01*
X10566D01*
X10461Y8723D02*
Y8773D01*
Y8723D02*
X10486D01*
X10494Y8731D01*
Y8765D01*
X10486Y8773D01*
X10461D01*
X10471Y7078D02*
Y7028D01*
X10496D01*
X10504Y7036D01*
Y7070D01*
X10496Y7078D01*
X10471D01*
X10371D02*
Y7028D01*
X10396D01*
X10404Y7036D01*
Y7070D01*
X10396Y7078D01*
X10371D01*
X10336Y7988D02*
Y8038D01*
Y7988D02*
X10361D01*
X10369Y7996D01*
Y8030D01*
X10361Y8038D01*
X10336D01*
X10261Y8723D02*
Y8773D01*
Y8723D02*
X10286D01*
X10294Y8731D01*
Y8765D01*
X10286Y8773D01*
X10261D01*
X10271Y7078D02*
Y7028D01*
X10296D01*
X10304Y7036D01*
Y7070D01*
X10296Y7078D01*
X10271D01*
X10171D02*
Y7028D01*
X10196D01*
X10204Y7036D01*
Y7070D01*
X10196Y7078D01*
X10171D01*
X10147Y7759D02*
Y7809D01*
Y7759D02*
X10172D01*
X10180Y7767D01*
Y7801D01*
X10172Y7809D01*
X10147D01*
Y7759D02*
Y7709D01*
X10172D01*
X10180Y7717D01*
Y7751D01*
X10172Y7759D01*
X10147D01*
X10162Y7859D02*
Y7909D01*
Y7859D02*
X10187D01*
X10195Y7867D01*
Y7901D01*
X10187Y7909D01*
X10162D01*
X10202D02*
Y7859D01*
X10227D01*
X10235Y7867D01*
Y7901D01*
X10227Y7909D01*
X10202D01*
X10061Y8538D02*
Y8588D01*
Y8538D02*
X10086D01*
X10094Y8546D01*
Y8580D01*
X10086Y8588D01*
X10061D01*
X10041Y8243D02*
Y8193D01*
X10066D01*
X10074Y8201D01*
Y8235D01*
X10066Y8243D01*
X10041D01*
X9961Y8573D02*
Y8623D01*
Y8573D02*
X9986D01*
X9994Y8581D01*
Y8615D01*
X9986Y8623D01*
X9961D01*
X10071Y7078D02*
Y7028D01*
X10096D01*
X10104Y7036D01*
Y7070D01*
X10096Y7078D01*
X10071D01*
X9971D02*
Y7028D01*
X9996D01*
X10004Y7036D01*
Y7070D01*
X9996Y7078D01*
X9971D01*
X10117Y7859D02*
Y7909D01*
Y7859D02*
X10142D01*
X10150Y7867D01*
Y7901D01*
X10142Y7909D01*
X10117D01*
X10112Y7809D02*
Y7759D01*
X10137D01*
X10145Y7767D01*
Y7801D01*
X10137Y7809D01*
X10112D01*
Y7759D02*
Y7709D01*
X10137D01*
X10145Y7717D01*
Y7751D01*
X10137Y7759D01*
X10112D01*
X10077Y7484D02*
Y7434D01*
X10102D01*
X10110Y7442D01*
Y7476D01*
X10102Y7484D01*
X10077D01*
X10072Y7759D02*
Y7809D01*
Y7759D02*
X10097D01*
X10105Y7767D01*
Y7801D01*
X10097Y7809D01*
X10072D01*
Y7759D02*
Y7709D01*
X10097D01*
X10105Y7717D01*
Y7751D01*
X10097Y7759D01*
X10072D01*
X9941Y8548D02*
Y8598D01*
Y8548D02*
X9966D01*
X9974Y8556D01*
Y8590D01*
X9966Y8598D01*
X9941D01*
X9761Y8723D02*
Y8773D01*
Y8723D02*
X9786D01*
X9794Y8731D01*
Y8765D01*
X9786Y8773D01*
X9761D01*
X9861Y8558D02*
Y8508D01*
X9886D01*
X9894Y8516D01*
Y8550D01*
X9886Y8558D01*
X9861D01*
X9761Y8533D02*
Y8583D01*
Y8533D02*
X9786D01*
X9794Y8541D01*
Y8575D01*
X9786Y8583D01*
X9761D01*
X9897Y8379D02*
Y8329D01*
X9922D01*
X9930Y8337D01*
Y8371D01*
X9922Y8379D01*
X9897D01*
X9812Y8429D02*
Y8479D01*
Y8429D02*
X9837D01*
X9845Y8437D01*
Y8471D01*
X9837Y8479D01*
X9812D01*
Y8699D02*
Y8749D01*
Y8699D02*
X9837D01*
X9845Y8707D01*
Y8741D01*
X9837Y8749D01*
X9812D01*
X9871Y7078D02*
Y7028D01*
X9896D01*
X9904Y7036D01*
Y7070D01*
X9896Y7078D01*
X9871D01*
X9771D02*
Y7028D01*
X9796D01*
X9804Y7036D01*
Y7070D01*
X9796Y7078D01*
X9771D01*
X9921Y7068D02*
Y7118D01*
Y7068D02*
X9946D01*
X9954Y7076D01*
Y7110D01*
X9946Y7118D01*
X9921D01*
Y7883D02*
Y7933D01*
Y7883D02*
X9946D01*
X9954Y7891D01*
Y7925D01*
X9946Y7933D01*
X9921D01*
X9941Y7998D02*
Y8048D01*
Y7998D02*
X9966D01*
X9974Y8006D01*
Y8040D01*
X9966Y8048D01*
X9941D01*
X9801Y7858D02*
Y7808D01*
X9826D01*
X9834Y7816D01*
Y7850D01*
X9826Y7858D01*
X9801D01*
X9821Y7708D02*
Y7658D01*
X9846D01*
X9854Y7666D01*
Y7700D01*
X9846Y7708D01*
X9821D01*
X9751Y8028D02*
Y8078D01*
Y8028D02*
X9776D01*
X9784Y8036D01*
Y8070D01*
X9776Y8078D01*
X9751D01*
X9761Y7933D02*
Y7883D01*
X9786D01*
X9794Y7891D01*
Y7925D01*
X9786Y7933D01*
X9761D01*
X9801Y7928D02*
Y7978D01*
Y7928D02*
X9826D01*
X9834Y7936D01*
Y7970D01*
X9826Y7978D01*
X9801D01*
X9776Y7953D02*
Y8003D01*
Y7953D02*
X9801D01*
X9809Y7961D01*
Y7995D01*
X9801Y8003D01*
X9776D01*
X9662Y8329D02*
Y8379D01*
Y8329D02*
X9687D01*
X9695Y8337D01*
Y8371D01*
X9687Y8379D01*
X9662D01*
X9712Y8429D02*
Y8479D01*
Y8429D02*
X9737D01*
X9745Y8437D01*
Y8471D01*
X9737Y8479D01*
X9712D01*
Y8674D02*
Y8724D01*
Y8674D02*
X9737D01*
X9745Y8682D01*
Y8716D01*
X9737Y8724D01*
X9712D01*
X9671Y7078D02*
Y7028D01*
X9696D01*
X9704Y7036D01*
Y7070D01*
X9696Y7078D01*
X9671D01*
X9571D02*
Y7028D01*
X9596D01*
X9604Y7036D01*
Y7070D01*
X9596Y7078D01*
X9571D01*
X9721Y7563D02*
Y7613D01*
Y7563D02*
X9746D01*
X9754Y7571D01*
Y7605D01*
X9746Y7613D01*
X9721D01*
X9571Y7623D02*
Y7673D01*
Y7623D02*
X9596D01*
X9604Y7631D01*
Y7665D01*
X9596Y7673D01*
X9571D01*
X9606Y7693D02*
Y7743D01*
Y7693D02*
X9631D01*
X9639Y7701D01*
Y7735D01*
X9631Y7743D01*
X9606D01*
Y7813D02*
Y7863D01*
Y7813D02*
X9631D01*
X9639Y7821D01*
Y7855D01*
X9631Y7863D01*
X9606D01*
X9621Y7438D02*
Y7388D01*
X9646D01*
X9654Y7396D01*
Y7430D01*
X9646Y7438D01*
X9621D01*
X9682Y7934D02*
Y7984D01*
Y7934D02*
X9707D01*
X9715Y7942D01*
Y7976D01*
X9707Y7984D01*
X9682D01*
X9717D02*
Y7934D01*
X9742D01*
X9750Y7942D01*
Y7976D01*
X9742Y7984D01*
X9717D01*
X9511Y8198D02*
Y8248D01*
Y8198D02*
X9536D01*
X9544Y8206D01*
Y8240D01*
X9536Y8248D01*
X9511D01*
X9361Y8458D02*
Y8508D01*
Y8458D02*
X9386D01*
X9394Y8466D01*
Y8500D01*
X9386Y8508D01*
X9361D01*
X9461Y8483D02*
Y8533D01*
Y8483D02*
X9486D01*
X9494Y8491D01*
Y8525D01*
X9486Y8533D01*
X9461D01*
X9386Y8198D02*
Y8148D01*
X9411D01*
X9419Y8156D01*
Y8190D01*
X9411Y8198D01*
X9386D01*
X9461Y8723D02*
Y8773D01*
Y8723D02*
X9486D01*
X9494Y8731D01*
Y8765D01*
X9486Y8773D01*
X9461D01*
X9472Y8379D02*
Y8329D01*
X9497D01*
X9505Y8337D01*
Y8371D01*
X9497Y8379D01*
X9472D01*
X9506Y7518D02*
Y7468D01*
X9531D01*
X9539Y7476D01*
Y7510D01*
X9531Y7518D01*
X9506D01*
Y7093D02*
Y7043D01*
X9531D01*
X9539Y7051D01*
Y7085D01*
X9531Y7093D01*
X9506D01*
Y7143D02*
Y7193D01*
Y7143D02*
X9531D01*
X9539Y7151D01*
Y7185D01*
X9531Y7193D01*
X9506D01*
Y7243D02*
Y7293D01*
Y7243D02*
X9531D01*
X9539Y7251D01*
Y7285D01*
X9531Y7293D01*
X9506D01*
Y7343D02*
Y7393D01*
Y7343D02*
X9531D01*
X9539Y7351D01*
Y7385D01*
X9531Y7393D01*
X9506D01*
X9371Y7468D02*
Y7518D01*
Y7468D02*
X9396D01*
X9404Y7476D01*
Y7510D01*
X9396Y7518D01*
X9371D01*
X9491Y7918D02*
Y7968D01*
Y7918D02*
X9516D01*
X9524Y7926D01*
Y7960D01*
X9516Y7968D01*
X9491D01*
X9541Y7913D02*
Y7863D01*
X9566D01*
X9574Y7871D01*
Y7905D01*
X9566Y7913D01*
X9541D01*
Y7918D02*
Y7968D01*
Y7918D02*
X9566D01*
X9574Y7926D01*
Y7960D01*
X9566Y7968D01*
X9541D01*
Y7978D02*
Y8028D01*
Y7978D02*
X9566D01*
X9574Y7986D01*
Y8020D01*
X9566Y8028D01*
X9541D01*
X9491Y7913D02*
Y7863D01*
X9516D01*
X9524Y7871D01*
Y7905D01*
X9516Y7913D01*
X9491D01*
Y7978D02*
Y8028D01*
Y7978D02*
X9516D01*
X9524Y7986D01*
Y8020D01*
X9516Y8028D01*
X9491D01*
X9371Y7783D02*
Y7733D01*
X9396D01*
X9404Y7741D01*
Y7775D01*
X9396Y7783D01*
X9371D01*
X9441Y7863D02*
Y7913D01*
Y7863D02*
X9466D01*
X9474Y7871D01*
Y7905D01*
X9466Y7913D01*
X9441D01*
Y7918D02*
Y7968D01*
Y7918D02*
X9466D01*
X9474Y7926D01*
Y7960D01*
X9466Y7968D01*
X9441D01*
Y7978D02*
Y8028D01*
Y7978D02*
X9466D01*
X9474Y7986D01*
Y8020D01*
X9466Y8028D01*
X9441D01*
X9497Y7714D02*
Y7664D01*
X9522D01*
X9530Y7672D01*
Y7706D01*
X9522Y7714D01*
X9497D01*
X9216Y8273D02*
Y8323D01*
Y8273D02*
X9241D01*
X9249Y8281D01*
Y8315D01*
X9241Y8323D01*
X9216D01*
X9251Y8278D02*
Y8228D01*
X9276D01*
X9284Y8236D01*
Y8270D01*
X9276Y8278D01*
X9251D01*
X9191Y8298D02*
Y8348D01*
Y8298D02*
X9216D01*
X9224Y8306D01*
Y8340D01*
X9216Y8348D01*
X9191D01*
X9211Y8723D02*
Y8773D01*
Y8723D02*
X9236D01*
X9244Y8731D01*
Y8765D01*
X9236Y8773D01*
X9211D01*
X9161Y8138D02*
Y8088D01*
X9186D01*
X9194Y8096D01*
Y8130D01*
X9186Y8138D01*
X9161D01*
X9252Y8329D02*
Y8379D01*
Y8329D02*
X9277D01*
X9285Y8337D01*
Y8371D01*
X9277Y8379D01*
X9252D01*
X9297Y8479D02*
Y8529D01*
Y8479D02*
X9322D01*
X9330Y8487D01*
Y8521D01*
X9322Y8529D01*
X9297D01*
X9332D02*
Y8479D01*
X9357D01*
X9365Y8487D01*
Y8521D01*
X9357Y8529D01*
X9332D01*
X9271Y7518D02*
Y7468D01*
X9296D01*
X9304Y7476D01*
Y7510D01*
X9296Y7518D01*
X9271D01*
X9171D02*
Y7468D01*
X9196D01*
X9204Y7476D01*
Y7510D01*
X9196Y7518D01*
X9171D01*
X9301Y7708D02*
Y7758D01*
Y7708D02*
X9326D01*
X9334Y7716D01*
Y7750D01*
X9326Y7758D01*
X9301D01*
X9341Y7858D02*
Y7908D01*
Y7858D02*
X9366D01*
X9374Y7866D01*
Y7900D01*
X9366Y7908D01*
X9341D01*
X9316Y7888D02*
Y7838D01*
X9341D01*
X9349Y7846D01*
Y7880D01*
X9341Y7888D01*
X9316D01*
X9311Y8063D02*
Y8113D01*
Y8063D02*
X9336D01*
X9344Y8071D01*
Y8105D01*
X9336Y8113D01*
X9311D01*
X9346Y8088D02*
Y8038D01*
X9371D01*
X9379Y8046D01*
Y8080D01*
X9371Y8088D01*
X9346D01*
X9211Y7838D02*
Y7788D01*
X9236D01*
X9244Y7796D01*
Y7830D01*
X9236Y7838D01*
X9211D01*
Y7798D02*
Y7748D01*
X9236D01*
X9244Y7756D01*
Y7790D01*
X9236Y7798D01*
X9211D01*
X9161Y7873D02*
Y7923D01*
Y7873D02*
X9186D01*
X9194Y7881D01*
Y7915D01*
X9186Y7923D01*
X9161D01*
X9126Y8573D02*
Y8623D01*
Y8573D02*
X9151D01*
X9159Y8581D01*
Y8615D01*
X9151Y8623D01*
X9126D01*
X9101Y8598D02*
Y8548D01*
X9126D01*
X9134Y8556D01*
Y8590D01*
X9126Y8598D01*
X9101D01*
X9126Y8173D02*
Y8123D01*
X9151D01*
X9159Y8131D01*
Y8165D01*
X9151Y8173D01*
X9126D01*
X9086Y8273D02*
Y8323D01*
Y8273D02*
X9111D01*
X9119Y8281D01*
Y8315D01*
X9111Y8323D01*
X9086D01*
X9036Y8298D02*
Y8348D01*
Y8298D02*
X9061D01*
X9069Y8306D01*
Y8340D01*
X9061Y8348D01*
X9036D01*
X9021Y8523D02*
Y8573D01*
Y8523D02*
X9046D01*
X9054Y8531D01*
Y8565D01*
X9046Y8573D01*
X9021D01*
X9061Y8723D02*
Y8773D01*
Y8723D02*
X9086D01*
X9094Y8731D01*
Y8765D01*
X9086Y8773D01*
X9061D01*
X8996Y8548D02*
Y8498D01*
X9021D01*
X9029Y8506D01*
Y8540D01*
X9021Y8548D01*
X8996D01*
X9117Y8674D02*
Y8724D01*
Y8674D02*
X9142D01*
X9150Y8682D01*
Y8716D01*
X9142Y8724D01*
X9117D01*
X9012Y8699D02*
Y8749D01*
Y8699D02*
X9037D01*
X9045Y8707D01*
Y8741D01*
X9037Y8749D01*
X9012D01*
X8967Y8329D02*
Y8279D01*
X8992D01*
X9000Y8287D01*
Y8321D01*
X8992Y8329D01*
X8967D01*
X9071Y7518D02*
Y7468D01*
X9096D01*
X9104Y7476D01*
Y7510D01*
X9096Y7518D01*
X9071D01*
X8971D02*
Y7468D01*
X8996D01*
X9004Y7476D01*
Y7510D01*
X8996Y7518D01*
X8971D01*
X9126Y7983D02*
Y8033D01*
Y7983D02*
X9151D01*
X9159Y7991D01*
Y8025D01*
X9151Y8033D01*
X9126D01*
X9101Y8003D02*
Y7953D01*
X9126D01*
X9134Y7961D01*
Y7995D01*
X9126Y8003D01*
X9101D01*
Y7903D02*
Y7853D01*
X9126D01*
X9134Y7861D01*
Y7895D01*
X9126Y7903D01*
X9101D01*
X9076Y7848D02*
Y7798D01*
X9101D01*
X9109Y7806D01*
Y7840D01*
X9101Y7848D01*
X9076D01*
X9026Y7823D02*
Y7873D01*
Y7823D02*
X9051D01*
X9059Y7831D01*
Y7865D01*
X9051Y7873D01*
X9026D01*
X8996Y7903D02*
Y7953D01*
Y7903D02*
X9021D01*
X9029Y7911D01*
Y7945D01*
X9021Y7953D01*
X8996D01*
Y7953D02*
Y8003D01*
Y7953D02*
X9021D01*
X9029Y7961D01*
Y7995D01*
X9021Y8003D01*
X8996D01*
X9026Y7928D02*
Y7878D01*
X9051D01*
X9059Y7886D01*
Y7920D01*
X9051Y7928D01*
X9026D01*
Y7928D02*
Y7978D01*
Y7928D02*
X9051D01*
X9059Y7936D01*
Y7970D01*
X9051Y7978D01*
X9026D01*
X8967Y8039D02*
Y8089D01*
Y8039D02*
X8992D01*
X9000Y8047D01*
Y8081D01*
X8992Y8089D01*
X8967D01*
X8861Y8328D02*
Y8378D01*
Y8328D02*
X8886D01*
X8894Y8336D01*
Y8370D01*
X8886Y8378D01*
X8861D01*
X8871Y7518D02*
Y7468D01*
X8896D01*
X8904Y7476D01*
Y7510D01*
X8896Y7518D01*
X8871D01*
Y7983D02*
Y8033D01*
Y7983D02*
X8896D01*
X8904Y7991D01*
Y8025D01*
X8896Y8033D01*
X8871D01*
X8786Y8243D02*
Y8293D01*
Y8243D02*
X8811D01*
X8819Y8251D01*
Y8285D01*
X8811Y8293D01*
X8786D01*
X8796Y8198D02*
Y8148D01*
X8821D01*
X8829Y8156D01*
Y8190D01*
X8821Y8198D01*
X8796D01*
X8771Y7518D02*
Y7468D01*
X8796D01*
X8804Y7476D01*
Y7510D01*
X8796Y7518D01*
X8771D01*
X8721Y8268D02*
Y8318D01*
Y8268D02*
X8746D01*
X8754Y8276D01*
Y8310D01*
X8746Y8318D01*
X8721D01*
X8711Y8703D02*
Y8753D01*
Y8703D02*
X8736D01*
X8744Y8711D01*
Y8745D01*
X8736Y8753D01*
X8711D01*
X8606Y8318D02*
Y8268D01*
X8631D01*
X8639Y8276D01*
Y8310D01*
X8631Y8318D01*
X8606D01*
X8676Y8303D02*
Y8353D01*
Y8303D02*
X8701D01*
X8709Y8311D01*
Y8345D01*
X8701Y8353D01*
X8676D01*
X8671Y7518D02*
Y7468D01*
X8696D01*
X8704Y7476D01*
Y7510D01*
X8696Y7518D01*
X8671D01*
X8566Y8343D02*
Y8393D01*
Y8343D02*
X8591D01*
X8599Y8351D01*
Y8385D01*
X8591Y8393D01*
X8566D01*
Y8293D02*
Y8243D01*
X8591D01*
X8599Y8251D01*
Y8285D01*
X8591Y8293D01*
X8566D01*
Y8193D02*
Y8143D01*
X8591D01*
X8599Y8151D01*
Y8185D01*
X8591Y8193D01*
X8566D01*
Y8093D02*
Y8043D01*
X8591D01*
X8599Y8051D01*
Y8085D01*
X8591Y8093D01*
X8566D01*
Y7993D02*
Y7943D01*
X8591D01*
X8599Y7951D01*
Y7985D01*
X8591Y7993D01*
X8566D01*
Y7893D02*
Y7843D01*
X8591D01*
X8599Y7851D01*
Y7885D01*
X8591Y7893D01*
X8566D01*
Y7793D02*
Y7743D01*
X8591D01*
X8599Y7751D01*
Y7785D01*
X8591Y7793D01*
X8566D01*
X8571Y7518D02*
Y7468D01*
X8596D01*
X8604Y7476D01*
Y7510D01*
X8596Y7518D01*
X8571D01*
X10711Y8563D02*
X10744D01*
X10711D02*
Y8513D01*
X10744D01*
X10728Y8538D02*
X10711D01*
X8944Y8563D02*
X8911D01*
Y8513D01*
X8944D01*
X8928Y8538D02*
X8911D01*
X8827Y8246D02*
X8794D01*
Y8221D01*
X8810D01*
X8794D01*
Y8196D01*
X8794Y8096D02*
X8827D01*
X8794D02*
Y8071D01*
X8810D01*
X8794D01*
Y8046D01*
X10036Y8773D02*
X10044Y8764D01*
X10036Y8773D02*
X10019D01*
X10011Y8764D01*
Y8731D01*
X10019Y8723D01*
X10036D01*
X10044Y8731D01*
Y8748D01*
X10027D01*
X9965Y8764D02*
X9957Y8773D01*
X9940D01*
X9932Y8764D01*
Y8731D01*
X9940Y8723D01*
X9957D01*
X9965Y8731D01*
Y8748D01*
X9948D01*
X11041Y8414D02*
Y8364D01*
Y8389D01*
X11074D01*
Y8414D01*
Y8364D01*
X11041Y8146D02*
Y8096D01*
Y8121D01*
X11074D01*
Y8146D01*
Y8096D01*
X9938Y7303D02*
X9921D01*
X9929D02*
X9938D01*
X9929D02*
Y7253D01*
X9921D01*
X9938D01*
X10021Y7303D02*
X10038D01*
X10029D01*
Y7253D01*
X10021D01*
X10038D01*
X10121Y7303D02*
X10138D01*
X10129D01*
Y7253D01*
X10121D01*
X10138D01*
X10221Y7303D02*
X10238D01*
X10229D01*
Y7253D01*
X10221D01*
X10238D01*
X11321Y7303D02*
Y7353D01*
Y7303D02*
X11346D01*
X11354Y7311D01*
Y7345D01*
X11346Y7353D01*
X11321D01*
X11354Y7465D02*
X11346Y7473D01*
X11329D01*
X11321Y7465D01*
Y7431D01*
X11329Y7423D01*
X11346D01*
X11354Y7431D01*
Y7448D01*
X11338D01*
X11321Y7543D02*
Y7593D01*
Y7568D02*
Y7543D01*
Y7568D02*
X11354D01*
Y7593D01*
Y7543D01*
Y7713D02*
X11321D01*
Y7688D01*
X11338D01*
X11321D01*
Y7663D01*
Y7833D02*
X11354D01*
X11321D02*
Y7783D01*
X11354D01*
X11338Y7808D02*
X11321D01*
Y7953D02*
X11338D01*
X11329D01*
Y7903D01*
X11321D01*
X11338D01*
X11321Y8023D02*
Y8073D01*
Y8023D02*
X11346D01*
X11354Y8031D01*
Y8040D01*
X11346Y8048D01*
X11321D01*
X11322D01*
X11321D02*
X11322D01*
X11321D02*
X11322D01*
X11321D02*
X11346D01*
X11354Y8056D01*
Y8065D01*
X11346Y8073D01*
X11321D01*
X11354Y8185D02*
X11346Y8193D01*
X11329D01*
X11321Y8185D01*
Y8151D01*
X11329Y8143D01*
X11346D01*
X11354Y8151D01*
X11321Y8263D02*
Y8296D01*
X11338Y8313D01*
X11354Y8296D01*
Y8263D01*
Y8288D01*
X11321D01*
D13*
X11539Y7349D02*
X11534Y7347D01*
X11539Y7349D02*
X11548Y7358D01*
Y7298D01*
X11589D02*
X11617Y7358D01*
X11577D01*
X11637D02*
X11665D01*
X11637D02*
X11634Y7332D01*
X11637Y7335D01*
X11645Y7338D01*
X11654D01*
X11662Y7335D01*
X11668Y7329D01*
X11671Y7321D01*
Y7315D01*
X11668Y7307D01*
X11662Y7301D01*
X11654Y7298D01*
X11645D01*
X11637Y7301D01*
X11634Y7304D01*
X11631Y7309D01*
X12002Y7347D02*
X12008Y7349D01*
X12017Y7358D01*
Y7298D01*
X12052Y7358D02*
X12081D01*
X12052D02*
X12049Y7332D01*
X12052Y7335D01*
X12061Y7338D01*
X12069D01*
X12078Y7335D01*
X12083Y7329D01*
X12086Y7321D01*
Y7315D01*
X12083Y7307D01*
X12078Y7301D01*
X12069Y7298D01*
X12061D01*
X12052Y7301D01*
X12049Y7304D01*
X12046Y7309D01*
X12100Y7298D02*
Y7338D01*
X12108Y7335D02*
X12100Y7327D01*
X12108Y7335D02*
X12114Y7338D01*
X12123D01*
X12128Y7335D01*
X12131Y7327D01*
Y7298D01*
Y7327D02*
X12140Y7335D01*
X12145Y7338D01*
X12154D01*
X12160Y7335D01*
X12163Y7327D01*
Y7298D01*
X12190Y7355D02*
X12187Y7358D01*
X12190Y7355D02*
X12193Y7358D01*
X12190Y7361D01*
X12187Y7358D01*
X12190Y7338D02*
Y7298D01*
X12203D02*
Y7358D01*
X12667Y7355D02*
X12676Y7358D01*
X12667Y7355D02*
X12661Y7347D01*
X12658Y7332D01*
Y7324D01*
X12661Y7309D01*
X12667Y7301D01*
X12676Y7298D01*
X12681D01*
X12690Y7301D01*
X12696Y7309D01*
X12698Y7324D01*
Y7332D01*
X12696Y7347D01*
X12690Y7355D01*
X12681Y7358D01*
X12676D01*
X12715Y7304D02*
X12712Y7301D01*
X12715Y7298D01*
X12718Y7301D01*
X12715Y7304D01*
X12736Y7358D02*
X12768D01*
X12751Y7335D01*
X12759D01*
X12765Y7332D01*
X12768Y7329D01*
X12771Y7321D01*
Y7315D01*
X12768Y7307D01*
X12762Y7301D01*
X12754Y7298D01*
X12745D01*
X12736Y7301D01*
X12734Y7304D01*
X12731Y7309D01*
X12790Y7355D02*
X12798Y7358D01*
X12790Y7355D02*
X12787Y7349D01*
Y7344D01*
X12790Y7338D01*
X12796Y7335D01*
X12807Y7332D01*
X12816Y7329D01*
X12821Y7324D01*
X12824Y7318D01*
Y7309D01*
X12821Y7304D01*
X12818Y7301D01*
X12810Y7298D01*
X12798D01*
X12790Y7301D01*
X12787Y7304D01*
X12784Y7309D01*
Y7318D01*
X12787Y7324D01*
X12793Y7329D01*
X12801Y7332D01*
X12813Y7335D01*
X12818Y7338D01*
X12821Y7344D01*
Y7349D01*
X12818Y7355D01*
X12810Y7358D01*
X12798D01*
X12838Y7347D02*
X12843Y7349D01*
X12852Y7358D01*
Y7298D01*
X12882D02*
Y7338D01*
X12890Y7335D02*
X12882Y7327D01*
X12890Y7335D02*
X12896Y7338D01*
X12904D01*
X12910Y7335D01*
X12913Y7327D01*
Y7298D01*
Y7327D02*
X12922Y7335D01*
X12927Y7338D01*
X12936D01*
X12942Y7335D01*
X12944Y7327D01*
Y7298D01*
X12963D02*
Y7338D01*
X12972Y7335D02*
X12963Y7327D01*
X12972Y7335D02*
X12978Y7338D01*
X12986D01*
X12992Y7335D01*
X12995Y7327D01*
Y7298D01*
Y7327D02*
X13003Y7335D01*
X13009Y7338D01*
X13018D01*
X13023Y7335D01*
X13026Y7327D01*
Y7298D01*
X11536Y7464D02*
Y7467D01*
X11539Y7472D01*
X11542Y7475D01*
X11548Y7478D01*
X11559D01*
X11565Y7475D01*
X11568Y7472D01*
X11571Y7467D01*
Y7461D01*
X11568Y7455D01*
X11562Y7447D01*
X11534Y7418D01*
X11573D01*
X12008Y7478D02*
X12039D01*
X12022Y7455D01*
X12031D01*
X12037Y7452D01*
X12039Y7449D01*
X12042Y7441D01*
Y7435D01*
X12039Y7427D01*
X12034Y7421D01*
X12025Y7418D01*
X12017D01*
X12008Y7421D01*
X12005Y7424D01*
X12002Y7429D01*
X12056Y7467D02*
X12061Y7469D01*
X12070Y7478D01*
Y7418D01*
X12100Y7421D02*
X12103Y7424D01*
X12100Y7421D02*
X12103Y7418D01*
X12105Y7421D01*
X12103Y7424D01*
X12119Y7438D02*
X12147Y7478D01*
X12161Y7438D02*
X12119D01*
X12147Y7418D02*
Y7478D01*
X12209Y7458D02*
X12206Y7449D01*
X12200Y7444D01*
X12192Y7441D01*
X12189D01*
X12180Y7444D01*
X12175Y7449D01*
X12172Y7458D01*
Y7461D01*
X12175Y7469D01*
X12180Y7475D01*
X12189Y7478D01*
X12192D01*
X12200Y7475D01*
X12206Y7469D01*
X12209Y7458D01*
Y7444D01*
X12206Y7429D01*
X12200Y7421D01*
X12192Y7418D01*
X12186D01*
X12178Y7421D01*
X12175Y7427D01*
X12260Y7469D02*
X12257Y7475D01*
X12248Y7478D01*
X12242D01*
X12234Y7475D01*
X12228Y7467D01*
X12225Y7452D01*
Y7438D01*
X12228Y7427D01*
X12234Y7421D01*
X12242Y7418D01*
X12245D01*
X12254Y7421D01*
X12260Y7427D01*
X12262Y7435D01*
Y7438D01*
X12260Y7447D01*
X12254Y7452D01*
X12245Y7455D01*
X12242D01*
X12234Y7452D01*
X12228Y7447D01*
X12225Y7438D01*
X12276Y7458D02*
Y7418D01*
Y7447D02*
X12284Y7455D01*
X12290Y7458D01*
X12298D01*
X12304Y7455D01*
X12307Y7447D01*
Y7418D01*
Y7447D02*
X12316Y7455D01*
X12321Y7458D01*
X12330D01*
X12336Y7455D01*
X12338Y7447D01*
Y7418D01*
X12366Y7475D02*
X12363Y7478D01*
X12366Y7475D02*
X12369Y7478D01*
X12366Y7481D01*
X12363Y7478D01*
X12366Y7458D02*
Y7418D01*
X12379D02*
Y7478D01*
X12667Y7475D02*
X12676Y7478D01*
X12667Y7475D02*
X12661Y7467D01*
X12658Y7452D01*
Y7444D01*
X12661Y7429D01*
X12667Y7421D01*
X12676Y7418D01*
X12681D01*
X12690Y7421D01*
X12696Y7429D01*
X12698Y7444D01*
Y7452D01*
X12696Y7467D01*
X12690Y7475D01*
X12681Y7478D01*
X12676D01*
X12715Y7424D02*
X12712Y7421D01*
X12715Y7418D01*
X12718Y7421D01*
X12715Y7424D01*
X12736Y7475D02*
X12745Y7478D01*
X12736Y7475D02*
X12734Y7469D01*
Y7464D01*
X12736Y7458D01*
X12742Y7455D01*
X12754Y7452D01*
X12762Y7449D01*
X12768Y7444D01*
X12771Y7438D01*
Y7429D01*
X12768Y7424D01*
X12765Y7421D01*
X12756Y7418D01*
X12745D01*
X12736Y7421D01*
X12734Y7424D01*
X12731Y7429D01*
Y7438D01*
X12734Y7444D01*
X12739Y7449D01*
X12748Y7452D01*
X12759Y7455D01*
X12765Y7458D01*
X12768Y7464D01*
Y7469D01*
X12765Y7475D01*
X12756Y7478D01*
X12745D01*
X12784Y7458D02*
Y7418D01*
Y7447D02*
X12793Y7455D01*
X12798Y7458D01*
X12807D01*
X12813Y7455D01*
X12816Y7447D01*
Y7418D01*
Y7447D02*
X12824Y7455D01*
X12830Y7458D01*
X12838D01*
X12844Y7455D01*
X12847Y7447D01*
Y7418D01*
X12866D02*
Y7458D01*
X12874Y7455D02*
X12866Y7447D01*
X12874Y7455D02*
X12880Y7458D01*
X12889D01*
X12894Y7455D01*
X12897Y7447D01*
Y7418D01*
Y7447D02*
X12906Y7455D01*
X12912Y7458D01*
X12920D01*
X12926Y7455D01*
X12929Y7447D01*
Y7418D01*
X11536Y7584D02*
Y7587D01*
X11539Y7592D01*
X11542Y7595D01*
X11548Y7598D01*
X11559D01*
X11565Y7595D01*
X11568Y7592D01*
X11571Y7587D01*
Y7581D01*
X11568Y7575D01*
X11562Y7567D01*
X11534Y7538D01*
X11573D01*
X12008Y7598D02*
X12039D01*
X12022Y7575D01*
X12031D01*
X12037Y7572D01*
X12039Y7569D01*
X12042Y7561D01*
Y7555D01*
X12039Y7547D01*
X12034Y7541D01*
X12025Y7538D01*
X12017D01*
X12008Y7541D01*
X12005Y7544D01*
X12002Y7549D01*
X12061Y7598D02*
X12090D01*
X12061D02*
X12059Y7572D01*
X12061Y7575D01*
X12070Y7578D01*
X12079D01*
X12087Y7575D01*
X12093Y7569D01*
X12096Y7561D01*
Y7555D01*
X12093Y7547D01*
X12087Y7541D01*
X12079Y7538D01*
X12070D01*
X12061Y7541D01*
X12059Y7544D01*
X12056Y7549D01*
X12109Y7541D02*
X12112Y7544D01*
X12109Y7541D02*
X12112Y7538D01*
X12115Y7541D01*
X12112Y7544D01*
X12128Y7558D02*
X12157Y7598D01*
X12171Y7558D02*
X12128D01*
X12157Y7538D02*
Y7598D01*
X12187D02*
X12218D01*
X12201Y7575D01*
X12210D01*
X12216Y7572D01*
X12218Y7569D01*
X12221Y7561D01*
Y7555D01*
X12218Y7547D01*
X12213Y7541D01*
X12204Y7538D01*
X12196D01*
X12187Y7541D01*
X12184Y7544D01*
X12181Y7549D01*
X12240Y7598D02*
X12272D01*
X12255Y7575D01*
X12263D01*
X12269Y7572D01*
X12272Y7569D01*
X12275Y7561D01*
Y7555D01*
X12272Y7547D01*
X12266Y7541D01*
X12258Y7538D01*
X12249D01*
X12240Y7541D01*
X12238Y7544D01*
X12235Y7549D01*
X12288Y7538D02*
Y7578D01*
X12297Y7575D02*
X12288Y7567D01*
X12297Y7575D02*
X12302Y7578D01*
X12311D01*
X12317Y7575D01*
X12320Y7567D01*
Y7538D01*
Y7567D02*
X12328Y7575D01*
X12334Y7578D01*
X12342D01*
X12348Y7575D01*
X12351Y7567D01*
Y7538D01*
X12378Y7595D02*
X12376Y7598D01*
X12378Y7595D02*
X12381Y7598D01*
X12378Y7601D01*
X12376Y7598D01*
X12378Y7578D02*
Y7538D01*
X12392D02*
Y7598D01*
X12667Y7595D02*
X12676Y7598D01*
X12667Y7595D02*
X12661Y7587D01*
X12658Y7572D01*
Y7564D01*
X12661Y7549D01*
X12667Y7541D01*
X12676Y7538D01*
X12681D01*
X12690Y7541D01*
X12696Y7549D01*
X12698Y7564D01*
Y7572D01*
X12696Y7587D01*
X12690Y7595D01*
X12681Y7598D01*
X12676D01*
X12715Y7544D02*
X12712Y7541D01*
X12715Y7538D01*
X12718Y7541D01*
X12715Y7544D01*
X12765Y7569D02*
X12768Y7578D01*
X12765Y7569D02*
X12759Y7564D01*
X12751Y7561D01*
X12748D01*
X12739Y7564D01*
X12734Y7569D01*
X12731Y7578D01*
Y7581D01*
X12734Y7589D01*
X12739Y7595D01*
X12748Y7598D01*
X12751D01*
X12759Y7595D01*
X12765Y7589D01*
X12768Y7578D01*
Y7564D01*
X12765Y7549D01*
X12759Y7541D01*
X12751Y7538D01*
X12745D01*
X12736Y7541D01*
X12734Y7547D01*
X12784Y7538D02*
Y7578D01*
X12793Y7575D02*
X12784Y7567D01*
X12793Y7575D02*
X12798Y7578D01*
X12807D01*
X12813Y7575D01*
X12816Y7567D01*
Y7538D01*
Y7567D02*
X12824Y7575D01*
X12830Y7578D01*
X12838D01*
X12844Y7575D01*
X12847Y7567D01*
Y7538D01*
X12866D02*
Y7578D01*
X12874Y7575D02*
X12866Y7567D01*
X12874Y7575D02*
X12880Y7578D01*
X12889D01*
X12894Y7575D01*
X12897Y7567D01*
Y7538D01*
Y7567D02*
X12906Y7575D01*
X12912Y7578D01*
X12920D01*
X12926Y7575D01*
X12929Y7567D01*
Y7538D01*
X11536Y7704D02*
Y7707D01*
X11539Y7712D01*
X11542Y7715D01*
X11548Y7718D01*
X11559D01*
X11565Y7715D01*
X11568Y7712D01*
X11571Y7707D01*
Y7701D01*
X11568Y7695D01*
X11562Y7687D01*
X11534Y7658D01*
X11573D01*
X12008Y7718D02*
X12039D01*
X12022Y7695D01*
X12031D01*
X12037Y7692D01*
X12039Y7689D01*
X12042Y7681D01*
Y7675D01*
X12039Y7667D01*
X12034Y7661D01*
X12025Y7658D01*
X12017D01*
X12008Y7661D01*
X12005Y7664D01*
X12002Y7669D01*
X12090Y7689D02*
X12093Y7698D01*
X12090Y7689D02*
X12084Y7684D01*
X12076Y7681D01*
X12073D01*
X12064Y7684D01*
X12059Y7689D01*
X12056Y7698D01*
Y7701D01*
X12059Y7709D01*
X12064Y7715D01*
X12073Y7718D01*
X12076D01*
X12084Y7715D01*
X12090Y7709D01*
X12093Y7698D01*
Y7684D01*
X12090Y7669D01*
X12084Y7661D01*
X12076Y7658D01*
X12070D01*
X12061Y7661D01*
X12059Y7667D01*
X12109Y7661D02*
X12112Y7664D01*
X12109Y7661D02*
X12112Y7658D01*
X12115Y7661D01*
X12112Y7664D01*
X12134Y7718D02*
X12165D01*
X12148Y7695D01*
X12157D01*
X12162Y7692D01*
X12165Y7689D01*
X12168Y7681D01*
Y7675D01*
X12165Y7667D01*
X12159Y7661D01*
X12151Y7658D01*
X12142D01*
X12134Y7661D01*
X12131Y7664D01*
X12128Y7669D01*
X12193Y7658D02*
X12221Y7718D01*
X12181D01*
X12235Y7698D02*
Y7658D01*
Y7687D02*
X12243Y7695D01*
X12249Y7698D01*
X12258D01*
X12263Y7695D01*
X12266Y7687D01*
Y7658D01*
Y7687D02*
X12275Y7695D01*
X12280Y7698D01*
X12289D01*
X12295Y7695D01*
X12298Y7687D01*
Y7658D01*
X12325Y7715D02*
X12322Y7718D01*
X12325Y7715D02*
X12328Y7718D01*
X12325Y7721D01*
X12322Y7718D01*
X12325Y7698D02*
Y7658D01*
X12338D02*
Y7718D01*
X12658Y7707D02*
X12664Y7709D01*
X12673Y7718D01*
Y7658D01*
X12702D02*
Y7698D01*
X12711Y7695D02*
X12702Y7687D01*
X12711Y7695D02*
X12717Y7698D01*
X12725D01*
X12731Y7695D01*
X12734Y7687D01*
Y7658D01*
Y7687D02*
X12742Y7695D01*
X12748Y7698D01*
X12757D01*
X12762Y7695D01*
X12765Y7687D01*
Y7658D01*
X12784D02*
Y7698D01*
X12793Y7695D02*
X12784Y7687D01*
X12793Y7695D02*
X12798Y7698D01*
X12807D01*
X12813Y7695D01*
X12816Y7687D01*
Y7658D01*
Y7687D02*
X12824Y7695D01*
X12830Y7698D01*
X12838D01*
X12844Y7695D01*
X12847Y7687D01*
Y7658D01*
X11536Y7824D02*
Y7827D01*
X11539Y7832D01*
X11542Y7835D01*
X11548Y7838D01*
X11559D01*
X11565Y7835D01*
X11568Y7832D01*
X11571Y7827D01*
Y7821D01*
X11568Y7815D01*
X11562Y7807D01*
X11534Y7778D01*
X11573D01*
X12002Y7798D02*
X12031Y7838D01*
X12045Y7798D02*
X12002D01*
X12031Y7778D02*
Y7838D01*
X12096D02*
X12067Y7778D01*
X12056Y7838D02*
X12096D01*
X12112Y7784D02*
X12109Y7781D01*
X12112Y7778D01*
X12115Y7781D01*
X12112Y7784D01*
X12131Y7824D02*
Y7827D01*
X12134Y7832D01*
X12137Y7835D01*
X12142Y7838D01*
X12154D01*
X12159Y7835D01*
X12162Y7832D01*
X12165Y7827D01*
Y7821D01*
X12162Y7815D01*
X12157Y7807D01*
X12128Y7778D01*
X12168D01*
X12181Y7798D02*
X12210Y7838D01*
X12224Y7798D02*
X12181D01*
X12210Y7778D02*
Y7838D01*
X12235Y7798D02*
X12263Y7838D01*
X12278Y7798D02*
X12235D01*
X12263Y7778D02*
Y7838D01*
X12288Y7818D02*
Y7778D01*
Y7807D02*
X12297Y7815D01*
X12302Y7818D01*
X12311D01*
X12317Y7815D01*
X12320Y7807D01*
Y7778D01*
Y7807D02*
X12328Y7815D01*
X12334Y7818D01*
X12342D01*
X12348Y7815D01*
X12351Y7807D01*
Y7778D01*
X12378Y7835D02*
X12376Y7838D01*
X12378Y7835D02*
X12381Y7838D01*
X12378Y7841D01*
X12376Y7838D01*
X12378Y7818D02*
Y7778D01*
X12392D02*
Y7838D01*
X12658Y7827D02*
X12664Y7829D01*
X12673Y7838D01*
Y7778D01*
X12702Y7781D02*
X12705Y7784D01*
X12702Y7781D02*
X12705Y7778D01*
X12708Y7781D01*
X12705Y7784D01*
X12724Y7824D02*
Y7827D01*
X12727Y7832D01*
X12730Y7835D01*
X12736Y7838D01*
X12747D01*
X12753Y7835D01*
X12756Y7832D01*
X12758Y7827D01*
Y7821D01*
X12756Y7815D01*
X12750Y7807D01*
X12721Y7778D01*
X12761D01*
X12775D02*
Y7818D01*
X12783Y7815D02*
X12775Y7807D01*
X12783Y7815D02*
X12789Y7818D01*
X12798D01*
X12803Y7815D01*
X12806Y7807D01*
Y7778D01*
Y7807D02*
X12815Y7815D01*
X12820Y7818D01*
X12829D01*
X12835Y7815D01*
X12838Y7807D01*
Y7778D01*
X12856D02*
Y7818D01*
X12865Y7815D02*
X12856Y7807D01*
X12865Y7815D02*
X12871Y7818D01*
X12879D01*
X12885Y7815D01*
X12888Y7807D01*
Y7778D01*
Y7807D02*
X12896Y7815D01*
X12902Y7818D01*
X12911D01*
X12916Y7815D01*
X12919Y7807D01*
Y7778D01*
X11562Y7958D02*
X11534Y7918D01*
X11576D01*
X11562Y7898D02*
Y7958D01*
X12008D02*
X12037D01*
X12008D02*
X12005Y7932D01*
X12008Y7935D01*
X12017Y7938D01*
X12025D01*
X12034Y7935D01*
X12039Y7929D01*
X12042Y7921D01*
Y7915D01*
X12039Y7907D01*
X12034Y7901D01*
X12025Y7898D01*
X12017D01*
X12008Y7901D01*
X12005Y7904D01*
X12002Y7909D01*
X12064Y7955D02*
X12073Y7958D01*
X12064Y7955D02*
X12059Y7947D01*
X12056Y7932D01*
Y7924D01*
X12059Y7909D01*
X12064Y7901D01*
X12073Y7898D01*
X12079D01*
X12087Y7901D01*
X12093Y7909D01*
X12096Y7924D01*
Y7932D01*
X12093Y7947D01*
X12087Y7955D01*
X12079Y7958D01*
X12073D01*
X12109Y7938D02*
Y7898D01*
Y7927D02*
X12118Y7935D01*
X12123Y7938D01*
X12132D01*
X12138Y7935D01*
X12141Y7927D01*
Y7898D01*
Y7927D02*
X12149Y7935D01*
X12155Y7938D01*
X12163D01*
X12169Y7935D01*
X12172Y7927D01*
Y7898D01*
X12199Y7955D02*
X12196Y7958D01*
X12199Y7955D02*
X12202Y7958D01*
X12199Y7961D01*
X12196Y7958D01*
X12199Y7938D02*
Y7898D01*
X12213D02*
Y7958D01*
X12658Y7947D02*
X12664Y7949D01*
X12673Y7958D01*
Y7898D01*
X12702Y7901D02*
X12705Y7904D01*
X12702Y7901D02*
X12705Y7898D01*
X12708Y7901D01*
X12705Y7904D01*
X12724Y7944D02*
Y7947D01*
X12727Y7952D01*
X12730Y7955D01*
X12736Y7958D01*
X12747D01*
X12753Y7955D01*
X12756Y7952D01*
X12758Y7947D01*
Y7941D01*
X12756Y7935D01*
X12750Y7927D01*
X12721Y7898D01*
X12761D01*
X12786D02*
X12815Y7958D01*
X12775D01*
X12828Y7938D02*
Y7898D01*
Y7927D02*
X12837Y7935D01*
X12842Y7938D01*
X12851D01*
X12857Y7935D01*
X12860Y7927D01*
Y7898D01*
Y7927D02*
X12868Y7935D01*
X12874Y7938D01*
X12882D01*
X12888Y7935D01*
X12891Y7927D01*
Y7898D01*
X12910D02*
Y7938D01*
X12918Y7935D02*
X12910Y7927D01*
X12918Y7935D02*
X12924Y7938D01*
X12933D01*
X12938Y7935D01*
X12941Y7927D01*
Y7898D01*
Y7927D02*
X12950Y7935D01*
X12956Y7938D01*
X12964D01*
X12970Y7935D01*
X12973Y7927D01*
Y7898D01*
X11562Y8078D02*
X11534Y8038D01*
X11576D01*
X11562Y8018D02*
Y8078D01*
X12002Y8067D02*
X12008Y8069D01*
X12017Y8078D01*
Y8018D01*
X12055Y8075D02*
X12063Y8078D01*
X12055Y8075D02*
X12049Y8067D01*
X12046Y8052D01*
Y8044D01*
X12049Y8029D01*
X12055Y8021D01*
X12063Y8018D01*
X12069D01*
X12078Y8021D01*
X12083Y8029D01*
X12086Y8044D01*
Y8052D01*
X12083Y8067D01*
X12078Y8075D01*
X12069Y8078D01*
X12063D01*
X12108Y8075D02*
X12117Y8078D01*
X12108Y8075D02*
X12103Y8067D01*
X12100Y8052D01*
Y8044D01*
X12103Y8029D01*
X12108Y8021D01*
X12117Y8018D01*
X12123D01*
X12131Y8021D01*
X12137Y8029D01*
X12140Y8044D01*
Y8052D01*
X12137Y8067D01*
X12131Y8075D01*
X12123Y8078D01*
X12117D01*
X12153Y8058D02*
Y8018D01*
Y8047D02*
X12162Y8055D01*
X12167Y8058D01*
X12176D01*
X12182Y8055D01*
X12184Y8047D01*
Y8018D01*
Y8047D02*
X12193Y8055D01*
X12199Y8058D01*
X12207D01*
X12213Y8055D01*
X12216Y8047D01*
Y8018D01*
X12243Y8075D02*
X12240Y8078D01*
X12243Y8075D02*
X12246Y8078D01*
X12243Y8081D01*
X12240Y8078D01*
X12243Y8058D02*
Y8018D01*
X12257D02*
Y8078D01*
X12661Y8067D02*
Y8064D01*
Y8067D02*
X12664Y8072D01*
X12667Y8075D01*
X12673Y8078D01*
X12684D01*
X12690Y8075D01*
X12693Y8072D01*
X12696Y8067D01*
Y8061D01*
X12693Y8055D01*
X12687Y8047D01*
X12658Y8018D01*
X12698D01*
X12712Y8021D02*
X12715Y8024D01*
X12712Y8021D02*
X12715Y8018D01*
X12718Y8021D01*
X12715Y8024D01*
X12736Y8078D02*
X12765D01*
X12736D02*
X12734Y8052D01*
X12736Y8055D01*
X12745Y8058D01*
X12754D01*
X12762Y8055D01*
X12768Y8049D01*
X12771Y8041D01*
Y8035D01*
X12768Y8027D01*
X12762Y8021D01*
X12754Y8018D01*
X12745D01*
X12736Y8021D01*
X12734Y8024D01*
X12731Y8029D01*
X12784Y8038D02*
X12813Y8078D01*
X12827Y8038D02*
X12784D01*
X12813Y8018D02*
Y8078D01*
X12838Y8058D02*
Y8018D01*
Y8047D02*
X12846Y8055D01*
X12852Y8058D01*
X12860D01*
X12866Y8055D01*
X12869Y8047D01*
Y8018D01*
Y8047D02*
X12878Y8055D01*
X12883Y8058D01*
X12892D01*
X12898Y8055D01*
X12900Y8047D01*
Y8018D01*
X12919D02*
Y8058D01*
X12928Y8055D02*
X12919Y8047D01*
X12928Y8055D02*
X12934Y8058D01*
X12942D01*
X12948Y8055D01*
X12951Y8047D01*
Y8018D01*
Y8047D02*
X12959Y8055D01*
X12965Y8058D01*
X12974D01*
X12979Y8055D01*
X12982Y8047D01*
Y8018D01*
X11571Y8198D02*
X11539D01*
X11553Y8175D02*
X11571Y8198D01*
X11562Y8175D02*
X11553D01*
X11562D02*
X11568Y8172D01*
X11571Y8169D01*
X11573Y8161D01*
Y8155D01*
X11571Y8147D01*
X11565Y8141D01*
X11556Y8138D01*
X11548D01*
X11539Y8141D01*
X11536Y8144D01*
X11534Y8149D01*
X12002Y8187D02*
X12008Y8189D01*
X12017Y8198D01*
Y8138D01*
X12055Y8195D02*
X12063Y8198D01*
X12055Y8195D02*
X12049Y8187D01*
X12046Y8172D01*
Y8164D01*
X12049Y8149D01*
X12055Y8141D01*
X12063Y8138D01*
X12069D01*
X12078Y8141D01*
X12083Y8149D01*
X12086Y8164D01*
Y8172D01*
X12083Y8187D01*
X12078Y8195D01*
X12069Y8198D01*
X12063D01*
X12105Y8195D02*
X12114Y8198D01*
X12105Y8195D02*
X12103Y8189D01*
Y8184D01*
X12105Y8178D01*
X12111Y8175D01*
X12123Y8172D01*
X12131Y8169D01*
X12137Y8164D01*
X12140Y8158D01*
Y8149D01*
X12137Y8144D01*
X12134Y8141D01*
X12125Y8138D01*
X12114D01*
X12105Y8141D01*
X12103Y8144D01*
X12100Y8149D01*
Y8158D01*
X12103Y8164D01*
X12108Y8169D01*
X12117Y8172D01*
X12128Y8175D01*
X12134Y8178D01*
X12137Y8184D01*
Y8189D01*
X12134Y8195D01*
X12125Y8198D01*
X12114D01*
X12156Y8144D02*
X12153Y8141D01*
X12156Y8138D01*
X12159Y8141D01*
X12156Y8144D01*
X12175Y8184D02*
Y8187D01*
X12178Y8192D01*
X12180Y8195D01*
X12186Y8198D01*
X12198D01*
X12203Y8195D01*
X12206Y8192D01*
X12209Y8187D01*
Y8181D01*
X12206Y8175D01*
X12200Y8167D01*
X12172Y8138D01*
X12212D01*
X12260Y8189D02*
X12257Y8195D01*
X12248Y8198D01*
X12242D01*
X12234Y8195D01*
X12228Y8187D01*
X12225Y8172D01*
Y8158D01*
X12228Y8147D01*
X12234Y8141D01*
X12242Y8138D01*
X12245D01*
X12254Y8141D01*
X12260Y8147D01*
X12262Y8155D01*
Y8158D01*
X12260Y8167D01*
X12254Y8172D01*
X12245Y8175D01*
X12242D01*
X12234Y8172D01*
X12228Y8167D01*
X12225Y8158D01*
X12281Y8195D02*
X12290Y8198D01*
X12281Y8195D02*
X12278Y8189D01*
Y8184D01*
X12281Y8178D01*
X12287Y8175D01*
X12298Y8172D01*
X12307Y8169D01*
X12313Y8164D01*
X12316Y8158D01*
Y8149D01*
X12313Y8144D01*
X12310Y8141D01*
X12301Y8138D01*
X12290D01*
X12281Y8141D01*
X12278Y8144D01*
X12276Y8149D01*
Y8158D01*
X12278Y8164D01*
X12284Y8169D01*
X12293Y8172D01*
X12304Y8175D01*
X12310Y8178D01*
X12313Y8184D01*
Y8189D01*
X12310Y8195D01*
X12301Y8198D01*
X12290D01*
X12329Y8178D02*
Y8138D01*
Y8167D02*
X12338Y8175D01*
X12343Y8178D01*
X12352D01*
X12358Y8175D01*
X12360Y8167D01*
Y8138D01*
Y8167D02*
X12369Y8175D01*
X12375Y8178D01*
X12383D01*
X12389Y8175D01*
X12392Y8167D01*
Y8138D01*
X12419Y8195D02*
X12416Y8198D01*
X12419Y8195D02*
X12422Y8198D01*
X12419Y8201D01*
X12416Y8198D01*
X12419Y8178D02*
Y8138D01*
X12433D02*
Y8198D01*
X12661Y8187D02*
Y8184D01*
Y8187D02*
X12664Y8192D01*
X12667Y8195D01*
X12673Y8198D01*
X12684D01*
X12690Y8195D01*
X12693Y8192D01*
X12696Y8187D01*
Y8181D01*
X12693Y8175D01*
X12687Y8167D01*
X12658Y8138D01*
X12698D01*
X12712Y8141D02*
X12715Y8144D01*
X12712Y8141D02*
X12715Y8138D01*
X12718Y8141D01*
X12715Y8144D01*
X12742Y8138D02*
X12771Y8198D01*
X12731D01*
X12790D02*
X12818D01*
X12790D02*
X12787Y8172D01*
X12790Y8175D01*
X12798Y8178D01*
X12807D01*
X12816Y8175D01*
X12821Y8169D01*
X12824Y8161D01*
Y8155D01*
X12821Y8147D01*
X12816Y8141D01*
X12807Y8138D01*
X12798D01*
X12790Y8141D01*
X12787Y8144D01*
X12784Y8149D01*
X12838Y8138D02*
Y8178D01*
X12846Y8175D02*
X12838Y8167D01*
X12846Y8175D02*
X12852Y8178D01*
X12860D01*
X12866Y8175D01*
X12869Y8167D01*
Y8138D01*
Y8167D02*
X12878Y8175D01*
X12883Y8178D01*
X12892D01*
X12898Y8175D01*
X12900Y8167D01*
Y8138D01*
X12919D02*
Y8178D01*
X12928Y8175D02*
X12919Y8167D01*
X12928Y8175D02*
X12934Y8178D01*
X12942D01*
X12948Y8175D01*
X12951Y8167D01*
Y8138D01*
Y8167D02*
X12959Y8175D01*
X12965Y8178D01*
X12974D01*
X12979Y8175D01*
X12982Y8167D01*
Y8138D01*
X11539Y8309D02*
X11534Y8307D01*
X11539Y8309D02*
X11548Y8318D01*
Y8258D01*
X12002Y8307D02*
X12008Y8309D01*
X12017Y8318D01*
Y8258D01*
X12055Y8315D02*
X12063Y8318D01*
X12055Y8315D02*
X12049Y8307D01*
X12046Y8292D01*
Y8284D01*
X12049Y8269D01*
X12055Y8261D01*
X12063Y8258D01*
X12069D01*
X12078Y8261D01*
X12083Y8269D01*
X12086Y8284D01*
Y8292D01*
X12083Y8307D01*
X12078Y8315D01*
X12069Y8318D01*
X12063D01*
X12105Y8315D02*
X12114Y8318D01*
X12105Y8315D02*
X12103Y8309D01*
Y8304D01*
X12105Y8298D01*
X12111Y8295D01*
X12123Y8292D01*
X12131Y8289D01*
X12137Y8284D01*
X12140Y8278D01*
Y8269D01*
X12137Y8264D01*
X12134Y8261D01*
X12125Y8258D01*
X12114D01*
X12105Y8261D01*
X12103Y8264D01*
X12100Y8269D01*
Y8278D01*
X12103Y8284D01*
X12108Y8289D01*
X12117Y8292D01*
X12128Y8295D01*
X12134Y8298D01*
X12137Y8304D01*
Y8309D01*
X12134Y8315D01*
X12125Y8318D01*
X12114D01*
X12156Y8264D02*
X12153Y8261D01*
X12156Y8258D01*
X12159Y8261D01*
X12156Y8264D01*
X12175Y8304D02*
Y8307D01*
X12178Y8312D01*
X12180Y8315D01*
X12186Y8318D01*
X12198D01*
X12203Y8315D01*
X12206Y8312D01*
X12209Y8307D01*
Y8301D01*
X12206Y8295D01*
X12200Y8287D01*
X12172Y8258D01*
X12212D01*
X12260Y8309D02*
X12257Y8315D01*
X12248Y8318D01*
X12242D01*
X12234Y8315D01*
X12228Y8307D01*
X12225Y8292D01*
Y8278D01*
X12228Y8267D01*
X12234Y8261D01*
X12242Y8258D01*
X12245D01*
X12254Y8261D01*
X12260Y8267D01*
X12262Y8275D01*
Y8278D01*
X12260Y8287D01*
X12254Y8292D01*
X12245Y8295D01*
X12242D01*
X12234Y8292D01*
X12228Y8287D01*
X12225Y8278D01*
X12281Y8315D02*
X12290Y8318D01*
X12281Y8315D02*
X12278Y8309D01*
Y8304D01*
X12281Y8298D01*
X12287Y8295D01*
X12298Y8292D01*
X12307Y8289D01*
X12313Y8284D01*
X12316Y8278D01*
Y8269D01*
X12313Y8264D01*
X12310Y8261D01*
X12301Y8258D01*
X12290D01*
X12281Y8261D01*
X12278Y8264D01*
X12276Y8269D01*
Y8278D01*
X12278Y8284D01*
X12284Y8289D01*
X12293Y8292D01*
X12304Y8295D01*
X12310Y8298D01*
X12313Y8304D01*
Y8309D01*
X12310Y8315D01*
X12301Y8318D01*
X12290D01*
X12329Y8298D02*
Y8258D01*
Y8287D02*
X12338Y8295D01*
X12343Y8298D01*
X12352D01*
X12358Y8295D01*
X12360Y8287D01*
Y8258D01*
Y8287D02*
X12369Y8295D01*
X12375Y8298D01*
X12383D01*
X12389Y8295D01*
X12392Y8287D01*
Y8258D01*
X12419Y8315D02*
X12416Y8318D01*
X12419Y8315D02*
X12422Y8318D01*
X12419Y8321D01*
X12416Y8318D01*
X12419Y8298D02*
Y8258D01*
X12433D02*
Y8318D01*
X12661Y8307D02*
Y8304D01*
Y8307D02*
X12664Y8312D01*
X12667Y8315D01*
X12673Y8318D01*
X12684D01*
X12690Y8315D01*
X12693Y8312D01*
X12696Y8307D01*
Y8301D01*
X12693Y8295D01*
X12687Y8287D01*
X12658Y8258D01*
X12698D01*
X12712Y8261D02*
X12715Y8264D01*
X12712Y8261D02*
X12715Y8258D01*
X12718Y8261D01*
X12715Y8264D01*
X12742Y8258D02*
X12771Y8318D01*
X12731D01*
X12790D02*
X12818D01*
X12790D02*
X12787Y8292D01*
X12790Y8295D01*
X12798Y8298D01*
X12807D01*
X12816Y8295D01*
X12821Y8289D01*
X12824Y8281D01*
Y8275D01*
X12821Y8267D01*
X12816Y8261D01*
X12807Y8258D01*
X12798D01*
X12790Y8261D01*
X12787Y8264D01*
X12784Y8269D01*
X12846Y8315D02*
X12855Y8318D01*
X12846Y8315D02*
X12840Y8307D01*
X12838Y8292D01*
Y8284D01*
X12840Y8269D01*
X12846Y8261D01*
X12855Y8258D01*
X12860D01*
X12869Y8261D01*
X12875Y8269D01*
X12878Y8284D01*
Y8292D01*
X12875Y8307D01*
X12869Y8315D01*
X12860Y8318D01*
X12855D01*
X12900Y8315D02*
X12908Y8318D01*
X12900Y8315D02*
X12894Y8307D01*
X12891Y8292D01*
Y8284D01*
X12894Y8269D01*
X12900Y8261D01*
X12908Y8258D01*
X12914D01*
X12922Y8261D01*
X12928Y8269D01*
X12931Y8284D01*
Y8292D01*
X12928Y8307D01*
X12922Y8315D01*
X12914Y8318D01*
X12908D01*
X12944Y8307D02*
X12950Y8309D01*
X12959Y8318D01*
Y8258D01*
X12988D02*
Y8298D01*
X12997Y8295D02*
X12988Y8287D01*
X12997Y8295D02*
X13003Y8298D01*
X13011D01*
X13017Y8295D01*
X13020Y8287D01*
Y8258D01*
Y8287D02*
X13028Y8295D01*
X13034Y8298D01*
X13043D01*
X13048Y8295D01*
X13051Y8287D01*
Y8258D01*
X13070D02*
Y8298D01*
X13079Y8295D02*
X13070Y8287D01*
X13079Y8295D02*
X13084Y8298D01*
X13093D01*
X13099Y8295D01*
X13102Y8287D01*
Y8258D01*
Y8287D02*
X13110Y8295D01*
X13116Y8298D01*
X13124D01*
X13130Y8295D01*
X13133Y8287D01*
Y8258D01*
X11539Y7229D02*
X11534Y7227D01*
X11539Y7229D02*
X11548Y7238D01*
Y7178D01*
X11612Y7209D02*
X11615Y7218D01*
X11612Y7209D02*
X11606Y7204D01*
X11597Y7201D01*
X11595D01*
X11586Y7204D01*
X11580Y7209D01*
X11577Y7218D01*
Y7221D01*
X11580Y7229D01*
X11586Y7235D01*
X11595Y7238D01*
X11597D01*
X11606Y7235D01*
X11612Y7229D01*
X11615Y7218D01*
Y7204D01*
X11612Y7189D01*
X11606Y7181D01*
X11597Y7178D01*
X11592D01*
X11583Y7181D01*
X11580Y7187D01*
X11637Y7238D02*
X11665D01*
X11637D02*
X11634Y7212D01*
X11637Y7215D01*
X11645Y7218D01*
X11654D01*
X11662Y7215D01*
X11668Y7209D01*
X11671Y7201D01*
Y7195D01*
X11668Y7187D01*
X11662Y7181D01*
X11654Y7178D01*
X11645D01*
X11637Y7181D01*
X11634Y7184D01*
X11631Y7189D01*
X12022Y7178D02*
Y7238D01*
X12002D02*
X12042D01*
X12058Y7215D02*
X12064Y7218D01*
X12058Y7215D02*
X12052Y7209D01*
X12049Y7201D01*
Y7195D01*
X12052Y7187D01*
X12058Y7181D01*
X12064Y7178D01*
X12072D01*
X12078Y7181D01*
X12084Y7187D01*
X12087Y7195D01*
Y7201D01*
X12084Y7209D01*
X12078Y7215D01*
X12072Y7218D01*
X12064D01*
X12108Y7238D02*
Y7189D01*
X12111Y7181D01*
X12117Y7178D01*
X12123D01*
X12120Y7218D02*
X12100D01*
X12165D02*
Y7178D01*
Y7209D02*
X12160Y7215D01*
X12154Y7218D01*
X12145D01*
X12140Y7215D01*
X12134Y7209D01*
X12131Y7201D01*
Y7195D01*
X12134Y7187D01*
X12140Y7181D01*
X12145Y7178D01*
X12154D01*
X12160Y7181D01*
X12165Y7187D01*
X12181Y7178D02*
Y7238D01*
D02*
M02*
