*%FSLAX23Y23*%
*%MOIN*%
G01*
%ADD11C,0.000*%
%ADD12C,0.001*%
%ADD13C,0.002*%
%ADD14C,0.006*%
%ADD15C,0.007*%
%ADD16C,0.007*%
%ADD17C,0.008*%
%ADD18C,0.010*%
%ADD19C,0.012*%
%ADD20C,0.015*%
%ADD21C,0.018*%
%ADD22C,0.022*%
%ADD23C,0.024*%
%ADD24C,0.025*%
%ADD25C,0.029*%
%ADD26C,0.031*%
%ADD27C,0.031*%
%ADD28C,0.035*%
%ADD29C,0.035*%
%ADD30C,0.039*%
%ADD31C,0.039*%
%ADD32C,0.046*%
%ADD33C,0.047*%
%ADD34C,0.050*%
%ADD35C,0.051*%
%ADD36C,0.051*%
%ADD37C,0.054*%
%ADD38C,0.055*%
%ADD39C,0.058*%
%ADD40C,0.059*%
%ADD41C,0.059*%
%ADD42C,0.062*%
%ADD43C,0.067*%
%ADD44C,0.070*%
%ADD45C,0.074*%
%ADD46C,0.100*%
%ADD47C,0.108*%
%ADD48C,0.108*%
%ADD49C,0.120*%
%ADD50C,0.128*%
%ADD51C,0.128*%
%ADD52C,0.190*%
%ADD53C,0.194*%
%ADD54C,0.236*%
%ADD55C,0.240*%
%ADD56R,0.011X0.030*%
%ADD57R,0.012X0.030*%
%ADD58R,0.012X0.057*%
%ADD59R,0.014X0.033*%
%ADD60R,0.015X0.034*%
%ADD61R,0.016X0.034*%
%ADD62R,0.016X0.061*%
%ADD63R,0.018X0.037*%
%ADD64R,0.020X0.025*%
%ADD65R,0.021X0.021*%
%ADD66R,0.024X0.029*%
%ADD67R,0.025X0.020*%
%ADD68R,0.029X0.024*%
%ADD69R,0.030X0.011*%
%ADD70R,0.030X0.030*%
%ADD71R,0.031X0.031*%
%ADD72R,0.033X0.014*%
%ADD73R,0.034X0.015*%
%ADD74R,0.034X0.034*%
%ADD75R,0.035X0.035*%
%ADD76R,0.037X0.014*%
%ADD77R,0.037X0.018*%
%ADD78R,0.039X0.055*%
%ADD79R,0.039X0.014*%
%ADD80R,0.040X0.083*%
%ADD81R,0.041X0.018*%
%ADD82R,0.043X0.059*%
%ADD83R,0.043X0.018*%
%ADD84R,0.044X0.087*%
%ADD85R,0.047X0.055*%
%ADD86R,0.050X0.060*%
%ADD87R,0.051X0.071*%
%ADD88R,0.051X0.059*%
%ADD89R,0.054X0.064*%
%ADD90R,0.055X0.039*%
%ADD91R,0.055X0.075*%
%ADD92R,0.057X0.067*%
%ADD93R,0.059X0.043*%
%ADD94R,0.060X0.060*%
%ADD95R,0.061X0.024*%
%ADD96R,0.061X0.051*%
%ADD97R,0.061X0.071*%
%ADD98R,0.063X0.039*%
%ADD99R,0.063X0.126*%
%ADD100R,0.064X0.064*%
%ADD101R,0.065X0.028*%
%ADD102R,0.065X0.055*%
%ADD103R,0.067X0.043*%
%ADD104R,0.067X0.130*%
%ADD105R,0.085X0.030*%
%ADD106R,0.089X0.034*%
%ADD107R,0.094X0.030*%
%ADD108R,0.098X0.070*%
%ADD109R,0.098X0.034*%
%ADD110R,0.102X0.074*%
%ADD111R,0.104X0.104*%
%ADD112R,0.108X0.108*%
%ADD113R,0.134X0.059*%
%ADD114R,0.138X0.039*%
%ADD115R,0.138X0.063*%
%ADD116R,0.142X0.043*%
%ADD117R,0.169X0.169*%
%ADD118R,0.173X0.173*%
%ADD119R,0.250X0.250*%
D13*
X10356Y6933D02*
X10396D01*
X10376D01*
Y6873D01*
X10426D02*
X10446D01*
X10456Y6883D01*
Y6903D01*
X10446Y6913D01*
X10426D01*
X10416Y6903D01*
Y6883D01*
X10426Y6873D01*
X10476Y6853D02*
Y6913D01*
X10506D01*
X10516Y6903D01*
Y6883D01*
X10506Y6873D01*
X10476D01*
X10596D02*
Y6933D01*
Y6873D02*
X10636D01*
X10666Y6913D02*
X10686D01*
X10696Y6903D01*
Y6873D01*
X10666D01*
X10656Y6883D01*
X10666Y6893D01*
X10696D01*
X10716Y6883D02*
Y6913D01*
Y6883D02*
X10726Y6873D01*
X10756D01*
Y6863D01*
X10746Y6853D01*
X10736D01*
X10756Y6873D02*
Y6913D01*
X10786Y6873D02*
X10806D01*
X10786D02*
X10776Y6883D01*
Y6903D01*
X10786Y6913D01*
X10806D01*
X10816Y6903D01*
Y6893D01*
X10776D01*
X10836Y6873D02*
Y6913D01*
Y6893D02*
Y6873D01*
Y6893D02*
X10846Y6903D01*
X10856Y6913D01*
X10866D01*
D15*
X10654Y7248D02*
X11149Y7248D01*
X9976Y7138D02*
X9946D01*
X9916D01*
Y7108D02*
X9976D01*
X10900Y7052D02*
X10950D01*
X10962D01*
X10916Y7168D02*
X10900D01*
X10916D02*
X10942D01*
X10962D01*
X10809Y7138D02*
X10754D01*
X10809D02*
X10810D01*
X10809Y7133D02*
X10749D01*
X10809D02*
X10810D01*
X10770Y7063D02*
X10723D01*
X10770D02*
X10809D01*
Y7171D02*
X10810D01*
X10896D01*
X10810Y7101D02*
X10809D01*
X10810D02*
X10864D01*
X10338Y7188D02*
X10326D01*
Y7194D02*
X10333D01*
X10809Y7188D02*
X11170D01*
X11185D01*
X11196D01*
X10458Y7068D02*
X10446D01*
X10458D02*
X10474D01*
X10723D01*
X10569Y7128D02*
X10489D01*
X10876Y7064D02*
X10885D01*
X10900D01*
X10962Y7124D02*
X10973D01*
Y7162D02*
X10962D01*
X10973D02*
X10986D01*
X10989D01*
X11000D01*
X11117Y7039D02*
X9515D01*
Y7040D02*
X11118D01*
X10900Y7046D02*
X9515D01*
X10900D02*
X10962D01*
X11124D01*
X10723Y7052D02*
X9515D01*
X10723D02*
X10809D01*
X10876D01*
X10900D01*
X10950D01*
X10962D01*
X11130D01*
X10446Y7058D02*
X9515D01*
X10446D02*
X10723D01*
X10770D01*
X10809D01*
X10876D01*
X10888D01*
X10891D02*
X10900D01*
X10962D02*
X11136D01*
X10446Y7064D02*
X9515D01*
X10446D02*
X10462D01*
X10470D01*
X10723D01*
X10809D02*
X10876D01*
X10884D01*
X10962D02*
X11142D01*
X10446Y7070D02*
X9515D01*
X10446D02*
X10456D01*
X10809D02*
X10876D01*
X10962D02*
X11148D01*
X10446Y7076D02*
X9515D01*
X10809D02*
X10876D01*
X10962D02*
X11154D01*
X10444Y7082D02*
X9515D01*
X10809D02*
X10874D01*
X10962D02*
X11160D01*
X10438Y7088D02*
X9515D01*
X10810D02*
X10871D01*
X10962D02*
X11166D01*
X10432Y7094D02*
X9515D01*
X10810D02*
X10868D01*
X10962D02*
X10992D01*
X11020D02*
X11172D01*
X9916Y7100D02*
X9515D01*
X9916D02*
X9976D01*
X10426D01*
X10810D02*
X10864D01*
X10962D02*
X10985D01*
X11027D02*
X11178D01*
X9916Y7106D02*
X9515D01*
X9916D02*
X9976D01*
X10420D01*
X10962D02*
X10981D01*
X11031D02*
X11184D01*
X9916Y7112D02*
X9515D01*
X9976D02*
X10414D01*
X10962D02*
X10979D01*
X11033D02*
X11190D01*
X9916Y7118D02*
X9515D01*
X9976D02*
X10408D01*
X10962D02*
X10978D01*
X11034D02*
X11196D01*
X9916Y7124D02*
X9515D01*
X9976D02*
X10402D01*
X11033D02*
X11202D01*
X9916Y7130D02*
X9515D01*
X9976D02*
X10396D01*
X10487D02*
X10568D01*
X11031D02*
X11208D01*
X9916Y7136D02*
X9515D01*
X9976D02*
X10390D01*
X10481D02*
X10568D01*
X10752D02*
X10809D01*
X11027D02*
X11214D01*
X9916Y7142D02*
X9515D01*
X9976D02*
X10384D01*
X10475D02*
X10569D01*
X11020D02*
X11217D01*
X9916Y7148D02*
X9515D01*
X9976D02*
X10378D01*
X10469D02*
X10572D01*
X11004D02*
X11217D01*
X9916Y7154D02*
X9515D01*
X9976D02*
X10372D01*
X10463D02*
X10570D01*
X11000D02*
X11217D01*
X9916Y7160D02*
X9515D01*
X9976D02*
X10366D01*
X10457D02*
X10566D01*
X10992D02*
X11000D01*
X11217D01*
X9916Y7166D02*
X9515D01*
X9976D02*
X10360D01*
X10451D02*
X10564D01*
X10962D02*
X10976D01*
X10986D01*
X10986D02*
X11000D01*
X11217D01*
X9916Y7172D02*
X9515D01*
X9976D02*
X10354D01*
X10445D02*
X10563D01*
X10810D02*
X10896D01*
X10900D02*
X10916D01*
X10942D01*
X10962D01*
X10986D01*
X11000D01*
X11217D01*
X9916Y7178D02*
X9515D01*
X9976D02*
X10326D01*
X10348D01*
X10439D02*
X10563D01*
X10810D02*
X10896D01*
X10900D02*
X10962D01*
X11196D01*
X11217D01*
X9667Y7184D02*
X9515D01*
X9713D02*
X9916D01*
X9976D02*
X10326D01*
X10342D01*
X10433D02*
X10488D01*
X10524D02*
X10565D01*
X10809D02*
X11175D01*
X11180D02*
X11196D01*
X11217D01*
X9648Y7190D02*
X9515D01*
X9732D02*
X9916D01*
X9976D02*
X10326D01*
X10336D01*
X10427D02*
X10466D01*
X10546D02*
X10569D01*
X11186D02*
X11196D01*
X11217D01*
X9635Y7196D02*
X9515D01*
X9745D02*
X9916D01*
X9976D02*
X10326D01*
X10421D02*
X10453D01*
X10559D02*
X10575D01*
X11196D02*
X11217D01*
X9626Y7202D02*
X9515D01*
X9754D02*
X9916D01*
X9976D02*
X10324D01*
X10415D02*
X10443D01*
X10569D02*
X10592D01*
X11197D02*
X11217D01*
X9618Y7208D02*
X9515D01*
X9762D02*
X9916D01*
X9976D02*
X10318D01*
X10326D01*
X10409D02*
X10435D01*
X10577D02*
X10598D01*
X11203D02*
X11217D01*
X9612Y7214D02*
X9515D01*
X9768D02*
X9916D01*
X9976D02*
X10324D01*
X10403D02*
X10429D01*
X10583D02*
X10604D01*
X11208D02*
X11217D01*
X10679Y7408D02*
X10550D01*
X10522D02*
X10392D01*
X9924Y7224D02*
X9916D01*
X9968D02*
X9976D01*
X11122Y7408D02*
X11126D01*
X11070D02*
X11067D01*
X11070D02*
X11126D01*
X11131D01*
X11214Y7220D02*
X11217D01*
X10390Y7382D02*
X10379D01*
X10093Y7358D02*
X10082D01*
X10093D02*
X10109D01*
X10318D01*
X9606Y7220D02*
X9515D01*
X9774D02*
X9916D01*
X9976D02*
X10326D01*
X10397D02*
X10423D01*
X10589D02*
X10610D01*
X9601Y7226D02*
X9515D01*
X9779D02*
X9916D01*
X9924D01*
X9968D02*
X9976D01*
X10326D01*
X10391D02*
X10418D01*
X10594D02*
X10616D01*
X9597Y7232D02*
X9515D01*
X9783D02*
X9916D01*
X9924D01*
X9968D02*
X9976D01*
X10025D01*
X10067D02*
X10125D01*
X10167D02*
X10225D01*
X10267D02*
X10326D01*
X10390D02*
X10414D01*
X10598D02*
X10622D01*
X9594Y7238D02*
X9515D01*
X9786D02*
X9915D01*
X9977D02*
X10015D01*
X10077D02*
X10115D01*
X10177D02*
X10215D01*
X10277D02*
X10326D01*
X10390D02*
X10410D01*
X10602D02*
X10626D01*
X9590Y7244D02*
X9515D01*
X9790D02*
X9909D01*
X9983D02*
X10009D01*
X10083D02*
X10109D01*
X10183D02*
X10209D01*
X10283D02*
X10326D01*
X10390D02*
X10407D01*
X10605D02*
X10626D01*
X10634D01*
X9588Y7250D02*
X9515D01*
X9792D02*
X9904D01*
X9988D02*
X10004D01*
X10088D02*
X10104D01*
X10188D02*
X10204D01*
X10288D02*
X10326D01*
X10390D02*
X10404D01*
X10608D02*
X10640D01*
X10652D01*
X11151D01*
X9586Y7256D02*
X9515D01*
X9794D02*
X9901D01*
X9991D02*
X10001D01*
X10091D02*
X10101D01*
X10191D02*
X10201D01*
X10291D02*
X10326D01*
X10390D02*
X10402D01*
X10610D02*
X11157D01*
X9584Y7262D02*
X9515D01*
X9796D02*
X9898D01*
X10294D02*
X10326D01*
X10390D02*
X10400D01*
X10612D02*
X11163D01*
X9582Y7268D02*
X9515D01*
X9798D02*
X9896D01*
X10296D02*
X10326D01*
X10390D02*
X10398D01*
X10614D02*
X11166D01*
X9581Y7274D02*
X9515D01*
X9799D02*
X9896D01*
X10296D02*
X10326D01*
X10615D02*
X11166D01*
X9580Y7280D02*
X9515D01*
X9800D02*
X9896D01*
X10296D02*
X10326D01*
X10616D02*
X11166D01*
X9580Y7286D02*
X9515D01*
X9800D02*
X9896D01*
X10296D02*
X10326D01*
X10616D02*
X11166D01*
X9580Y7292D02*
X9515D01*
X9800D02*
X9897D01*
X10295D02*
X10326D01*
X10616D02*
X11166D01*
X9580Y7298D02*
X9515D01*
X9800D02*
X9900D01*
X9992D02*
X10000D01*
X10092D02*
X10100D01*
X10192D02*
X10200D01*
X10292D02*
X10326D01*
X10616D02*
X11166D01*
X9580Y7304D02*
X9515D01*
X9800D02*
X9903D01*
X9989D02*
X10003D01*
X10089D02*
X10103D01*
X10189D02*
X10203D01*
X10289D02*
X10326D01*
X10616D02*
X11166D01*
X9581Y7310D02*
X9515D01*
X9799D02*
X9907D01*
X9985D02*
X10007D01*
X10085D02*
X10107D01*
X10185D02*
X10207D01*
X10285D02*
X10326D01*
X10615D02*
X11166D01*
X9582Y7316D02*
X9515D01*
X9798D02*
X9913D01*
X9979D02*
X10013D01*
X10079D02*
X10113D01*
X10179D02*
X10213D01*
X10279D02*
X10326D01*
X10390D02*
X10398D01*
X10614D02*
X11166D01*
X9584Y7322D02*
X9515D01*
X9796D02*
X9921D01*
X9971D02*
X10021D01*
X10071D02*
X10121D01*
X10171D02*
X10221D01*
X10271D02*
X10326D01*
X10390D02*
X10399D01*
X10613D02*
X11166D01*
X9586Y7328D02*
X9515D01*
X9794D02*
X9939D01*
X9953D02*
X10039D01*
X10053D02*
X10139D01*
X10153D02*
X10239D01*
X10253D02*
X10326D01*
X10390D02*
X10401D01*
X10611D02*
X11166D01*
X9588Y7334D02*
X9515D01*
X9792D02*
X10326D01*
X10390D02*
X10403D01*
X10609D02*
X11166D01*
X9590Y7340D02*
X9515D01*
X9790D02*
X10326D01*
X10390D02*
X10406D01*
X10606D02*
X11166D01*
X9594Y7346D02*
X9515D01*
X9786D02*
X10082D01*
X10326D01*
X10390D02*
X10409D01*
X10603D02*
X11166D01*
X9597Y7352D02*
X9515D01*
X9783D02*
X10082D01*
X10099D01*
X10103D02*
X10324D01*
X10390D02*
X10413D01*
X10599D02*
X11166D01*
X9601Y7358D02*
X9515D01*
X9779D02*
X10082D01*
X10093D01*
X10109D01*
X10318D01*
X10394D02*
X10417D01*
X10595D02*
X11132D01*
X11166D01*
X9606Y7364D02*
X9515D01*
X9774D02*
X10082D01*
X10390D02*
X10398D01*
X10421D01*
X10591D02*
X11132D01*
X9612Y7370D02*
X9515D01*
X9768D02*
X10078D01*
X10392D02*
X10427D01*
X10585D02*
X11130D01*
X9618Y7376D02*
X9515D01*
X9762D02*
X10072D01*
X10390D02*
X10433D01*
X10579D02*
X11126D01*
X9626Y7382D02*
X9515D01*
X9754D02*
X10066D01*
X10380D02*
X10390D01*
X10441D01*
X10571D02*
X11124D01*
X9635Y7388D02*
X9515D01*
X9745D02*
X10060D01*
X10374D02*
X10390D01*
X10450D01*
X10562D02*
X11123D01*
X9648Y7394D02*
X9515D01*
X9732D02*
X10054D01*
X10368D02*
X10390D01*
X10461D01*
X10551D02*
X11124D01*
X9667Y7400D02*
X9515D01*
X9713D02*
X10048D01*
X10362D02*
X10392D01*
X10478D01*
X10534D02*
X10550D01*
X10679D01*
X11070D01*
X11126D01*
X10042Y7406D02*
X9515D01*
X10358D02*
X10392D01*
X10522D01*
X10550D01*
X10679D01*
X11070D01*
X11126D01*
X10036Y7412D02*
X9515D01*
X10358D02*
X10392D01*
X10522D02*
X10550D01*
X10679D02*
X11070D01*
Y7438D02*
X11101D01*
X10222Y7459D02*
X10177D01*
X10132D01*
X9812Y7564D02*
X9782D01*
X9752D01*
Y7534D02*
X9812D01*
X9824Y7572D02*
X9828D01*
X9892D01*
X9846Y7554D02*
X9843D01*
X9846D02*
X9875D01*
X9846Y7494D02*
X9843D01*
X9846D02*
X9880D01*
X10053Y7584D02*
X10056D01*
Y7590D02*
X10053D01*
Y7528D02*
X10056D01*
X10118D01*
X10123D02*
X10126D01*
X10188D01*
X10550Y7510D02*
X10679D01*
X10522D02*
X10420D01*
X10222Y7504D02*
X10132D01*
X10266D02*
X10348D01*
X10348Y7414D02*
X10356D01*
X10358D01*
X11098Y7574D02*
X11116D01*
X11096Y7486D02*
X11093D01*
X11096D02*
X11116D01*
Y7574D02*
X11112D01*
X11116D02*
X11136D01*
X11116Y7486D02*
X11112D01*
X11116D02*
X11136D01*
Y7574D02*
X11132D01*
X11136D02*
X11139D01*
X11155D01*
X11136Y7486D02*
X11132D01*
X11136D02*
X11136D01*
X11152Y7574D02*
X11155D01*
X11159D01*
X11175D01*
X11171D01*
X11175D02*
X11178D01*
X11198D01*
X11217D01*
X11126Y7468D02*
X11122D01*
X11132D02*
X11136D01*
X11076D02*
X11070D01*
X11076D02*
X11126D01*
X11132D01*
X9515Y7480D02*
X8577D01*
X10679Y7432D02*
X10827D01*
X10800Y7486D02*
X10679D01*
X10126Y7542D02*
X10118D01*
X10622Y7578D02*
X10633D01*
X10649D01*
X10686D01*
X10854Y7474D02*
X11036D01*
X10378Y7438D02*
X10358D01*
X10378D02*
X10386D01*
X10388D01*
X10392D01*
X9934Y7440D02*
X9922D01*
X9934D02*
X9950D01*
X10009D01*
X10116Y7418D02*
X10132D01*
X10222D02*
X10266D01*
X10356D02*
X10358D01*
X10030Y7418D02*
X9515D01*
X10116D02*
X10132D01*
X10222D02*
X10266D01*
X10358D02*
X10392D01*
X10522D02*
X10550D01*
X10679D02*
X11070D01*
X10024Y7424D02*
X9515D01*
X10110D02*
X10132D01*
X10222D02*
X10266D01*
X10358D02*
X10392D01*
X10522D02*
X10550D01*
X10679D02*
X11070D01*
X9922Y7430D02*
X9515D01*
X9922D02*
X10018D01*
X10104D02*
X10132D01*
X10222D02*
X10266D01*
X10358D02*
X10386D01*
X10522D02*
X10550D01*
X10679D02*
X11070D01*
X9922Y7436D02*
X9515D01*
X9922D02*
X9937D01*
X9947D01*
X10012D01*
X10098D02*
X10132D01*
X10222D02*
X10266D01*
X10358D02*
X10380D01*
X10522D02*
X10550D01*
X10842D02*
X11070D01*
X9922Y7442D02*
X9515D01*
X9922D02*
X9931D01*
X10092D02*
X10132D01*
X10222D02*
X10266D01*
X10522D02*
X10550D01*
X10849D02*
X11070D01*
X9922Y7448D02*
X9515D01*
X10086D02*
X10132D01*
X10222D02*
X10266D01*
X10522D02*
X10550D01*
X10854D02*
X11070D01*
X9919Y7454D02*
X9515D01*
X10080D02*
X10132D01*
X10222D02*
X10266D01*
X10522D02*
X10550D01*
X10854D02*
X11070D01*
X9913Y7460D02*
X9515D01*
X10074D02*
X10132D01*
X10222D02*
X10266D01*
X10522D02*
X10550D01*
X10854D02*
X11070D01*
X9907Y7466D02*
X9515D01*
X10068D02*
X10132D01*
X10222D02*
X10266D01*
X10522D02*
X10550D01*
X10854D02*
X11049D01*
X11063D02*
X11070D01*
X9901Y7472D02*
X9515D01*
X10062D02*
X10132D01*
X10222D02*
X10266D01*
X10522D02*
X10550D01*
X10854D02*
X11037D01*
X11076D02*
X11126D01*
X9895Y7478D02*
X9515D01*
X10056D02*
X10132D01*
X10222D02*
X10266D01*
X10522D02*
X10550D01*
X11080D02*
X11096D01*
X11116D01*
X11126D01*
X9515Y7484D02*
X8577D01*
X9515D02*
X9846D01*
X9889D01*
X10050D02*
X10132D01*
X10222D02*
X10266D01*
X10522D02*
X10550D01*
X11083D02*
X11096D01*
X11116D01*
X11136D01*
X9515Y7490D02*
X8577D01*
X9515D02*
X9846D01*
X9883D01*
X10044D02*
X10132D01*
X10222D02*
X10266D01*
X10522D02*
X10550D01*
X10679D02*
X10800D01*
X11084D02*
X11096D01*
X9846Y7496D02*
X8577D01*
X10038D02*
X10132D01*
X10222D02*
X10266D01*
X10522D02*
X10550D01*
X10679D02*
X10800D01*
X11084D02*
X11096D01*
X8666Y7502D02*
X8577D01*
X8723D02*
X9846D01*
X10032D02*
X10132D01*
X10222D02*
X10266D01*
X10522D02*
X10550D01*
X10679D02*
X10800D01*
X11083D02*
X11096D01*
X8646Y7508D02*
X8577D01*
X8743D02*
X9846D01*
X10032D02*
X10132D01*
X10222D01*
X10266D01*
X10344D01*
X10522D02*
X10550D01*
X10679D02*
X10800D01*
X11080D02*
X11096D01*
X8633Y7514D02*
X8577D01*
X8756D02*
X9846D01*
X10032D02*
X10132D01*
X10222D01*
X10266D01*
X10338D01*
X10416D02*
X10522D01*
X10550D01*
X10679D01*
X10800D01*
X11076D02*
X11096D01*
X8623Y7520D02*
X8577D01*
X8767D02*
X9846D01*
X10032D02*
X10056D01*
X10118D01*
X10126D01*
X10188D01*
X10332D01*
X10410D02*
X10522D01*
X10550D01*
X10679D01*
X10800D01*
X11063D02*
X11076D01*
X11096D01*
X8614Y7526D02*
X8577D01*
X8775D02*
X9752D01*
X9812D01*
X9846D01*
X10032D02*
X10056D01*
X10118D01*
X10126D01*
X10188D01*
X10326D01*
X10404D02*
X10800D01*
X11059D02*
X11096D01*
X8607Y7532D02*
X8577D01*
X8783D02*
X9752D01*
X9812D01*
X9846D01*
X10032D02*
X10056D01*
X10118D02*
X10126D01*
X10188D02*
X10320D01*
X10398D02*
X10800D01*
X11066D02*
X11096D01*
X8600Y7538D02*
X8577D01*
X8789D02*
X9752D01*
X9812D02*
X9846D01*
X10032D02*
X10056D01*
X10118D02*
X10126D01*
X10188D02*
X10314D01*
X10392D02*
X10800D01*
X11073D02*
X11096D01*
X8595Y7544D02*
X8577D01*
X8795D02*
X9752D01*
X9812D02*
X9846D01*
X10032D02*
X10056D01*
X10188D02*
X10308D01*
X10386D02*
X10800D01*
X11078D02*
X11096D01*
X8590Y7550D02*
X8577D01*
X8800D02*
X9752D01*
X9812D02*
X9846D01*
X10032D02*
X10056D01*
X10188D02*
X10302D01*
X10380D02*
X10800D01*
X11083D02*
X11096D01*
X8585Y7556D02*
X8577D01*
X8804D02*
X9752D01*
X9812D02*
X9846D01*
X9876D01*
X10032D02*
X10056D01*
X10188D02*
X10296D01*
X10374D02*
X10800D01*
X11088D02*
X11096D01*
X9752Y7562D02*
X8808D01*
X9812D02*
X9828D01*
X9846D01*
X9882D01*
X10032D02*
X10056D01*
X10188D02*
X10290D01*
X10368D02*
X10800D01*
X9752Y7568D02*
X8812D01*
X9812D02*
X9828D01*
X9888D01*
X10032D02*
X10056D01*
X10188D02*
X10284D01*
X10362D02*
X10622D01*
X10726D01*
X10800D01*
X9752Y7574D02*
X8815D01*
X9812D02*
X9828D01*
X10032D02*
X10056D01*
X10188D02*
X10278D01*
X10356D02*
X10622D01*
X10637D01*
X10645D01*
X10692D01*
X10726D02*
X10800D01*
X9752Y7580D02*
X8818D01*
X9812D02*
X9828D01*
X10032D02*
X10056D01*
X10188D02*
X10272D01*
X10350D02*
X10622D01*
X10631D01*
X10727D02*
X10800D01*
X11101D02*
X11116D01*
X11136D01*
X11139D02*
X11155D01*
X11159D02*
X11175D01*
X11178D02*
X11198D01*
X11217D01*
X9752Y7586D02*
X8820D01*
X9812D02*
X9828D01*
X10032D02*
X10056D01*
X10188D02*
X10266D01*
X10344D02*
X10622D01*
X10731D02*
X10800D01*
X11104D02*
X11116D01*
X11136D01*
X11139D02*
X11155D01*
X11159D02*
X11175D01*
X11178D02*
X11198D01*
X11217D01*
X9752Y7592D02*
X8822D01*
X9812D02*
X9828D01*
X10032D02*
X10056D01*
X10188D02*
X10260D01*
X10338D02*
X10619D01*
X10733D02*
X10800D01*
X11106D02*
X11217D01*
X9752Y7598D02*
X8824D01*
X9812D02*
X9828D01*
X10032D02*
X10056D01*
X10188D02*
X10254D01*
X10332D02*
X10613D01*
X10734D02*
X10800D01*
X11107D02*
X11217D01*
X9752Y7604D02*
X8825D01*
X9812D02*
X9828D01*
X10032D02*
X10056D01*
X10188D02*
X10248D01*
X10326D02*
X10607D01*
X10733D02*
X10800D01*
X11109D02*
X11217D01*
X10096Y7680D02*
X10073D01*
X10089Y7770D02*
X10056D01*
X10024D01*
X10056Y7614D02*
X10087D01*
X9884Y7619D02*
X9862D01*
X9840D01*
X9846Y7714D02*
X9877D01*
X9762Y7650D02*
X9752D01*
Y7774D02*
X9762D01*
X9802D02*
X9812D01*
X9762Y7658D02*
X9752D01*
X9929Y7744D02*
X9956D01*
X9962D01*
Y7684D02*
X9956D01*
X9846Y7744D02*
X9843D01*
X9846D02*
X9874D01*
X9846Y7684D02*
X9843D01*
X9846D02*
X9892D01*
X9828Y7616D02*
X9824D01*
X9956Y7666D02*
X9972D01*
X9828D02*
X9824D01*
X9828D02*
X9836D01*
X9872D01*
X9892D01*
X9828Y7622D02*
X9824D01*
X10053Y7644D02*
X10056D01*
X10073D01*
X10099D01*
X10100D01*
X10024Y7767D02*
X10022D01*
X10032Y7697D02*
X10067D01*
X10070Y7647D02*
X10073D01*
X10099D01*
X10096D01*
X10099D02*
X10100D01*
X10072Y7691D02*
X10067D01*
X10072D02*
X10073D01*
X10278Y7664D02*
X10348D01*
X10719Y7661D02*
X10800D01*
X10463D02*
X10369D01*
X9972Y7774D02*
X9966D01*
X9972D02*
X9998D01*
X10016D01*
X10024D01*
X9942D02*
X9900D01*
X9762Y7784D02*
X9752D01*
X9802D02*
X9812D01*
X11171Y7659D02*
X11175D01*
X11178D02*
X11198D01*
X11217D01*
X11178Y7659D02*
X11175D01*
X11135Y7659D02*
X11132D01*
X11158D02*
X11175D01*
X11178D01*
X11116D02*
X11112D01*
X11116D02*
X11135D01*
X11139D01*
X11155D01*
X11158D01*
X11116Y7659D02*
X11109D01*
X10593Y7618D02*
X10582D01*
X9972Y7738D02*
X9969D01*
X9972D02*
X9984D01*
X9855Y7764D02*
X9842D01*
X9277Y7752D02*
X9264D01*
X9942Y7784D02*
X9966D01*
X10348Y7750D02*
X10369D01*
X10009Y7764D02*
X9998D01*
X10009D02*
X10024D01*
X10188Y7618D02*
X10192D01*
X10222D01*
X10226D01*
X10235D01*
X9828Y7624D02*
X9815D01*
Y7664D02*
X9812D01*
X9815D02*
X9828D01*
X10649Y7618D02*
X10686D01*
X9752Y7610D02*
X8827D01*
X9812D02*
X9828D01*
X10032D02*
X10056D01*
X10188D02*
X10226D01*
X10236D01*
X10320D02*
X10582D01*
X10601D01*
X10731D02*
X10800D01*
X11110D02*
X11217D01*
X9752Y7616D02*
X8827D01*
X9812D02*
X9828D01*
X10032D02*
X10056D01*
X10192D02*
X10222D01*
X10226D02*
X10236D01*
X10314D02*
X10582D01*
X10595D01*
X10727D02*
X10800D01*
X11111D02*
X11217D01*
X9752Y7622D02*
X8828D01*
X9813D02*
X9828D01*
X10032D02*
X10056D01*
X10308D02*
X10582D01*
X10589D01*
X10645D02*
X10692D01*
X10726D02*
X10800D01*
X11111D02*
X11217D01*
X9752Y7628D02*
X8828D01*
X10032D02*
X10056D01*
X10302D02*
X10582D01*
X10639D02*
X10726D01*
X10800D01*
X11112D02*
X11217D01*
X9752Y7634D02*
X8828D01*
X10032D02*
X10056D01*
X10296D02*
X10577D01*
X10633D02*
X10800D01*
X11112D02*
X11217D01*
X9752Y7640D02*
X8828D01*
X10032D02*
X10056D01*
X10290D02*
X10575D01*
X10627D02*
X10800D01*
X11112D02*
X11217D01*
X9752Y7646D02*
X8828D01*
X10032D02*
X10056D01*
X10073D01*
X10099D01*
X10284D02*
X10581D01*
X10621D02*
X10800D01*
X11116D02*
X11135D01*
X11158D01*
X11175D01*
X11178D02*
X11217D01*
X9752Y7652D02*
X8827D01*
X9752D02*
X9762D01*
X10032D02*
X10056D01*
X10073D01*
X10278D02*
X10348D01*
X10369D01*
X10463D01*
X10582D01*
X10620D02*
X10719D01*
X10800D01*
X11116D02*
X11135D01*
X11139D02*
X11155D01*
X11158D02*
X11175D01*
X11178D02*
X11198D01*
X11217D01*
X9752Y7658D02*
X8826D01*
X9752D02*
X9762D01*
X10032D02*
X10073D01*
X10278D02*
X10348D01*
X10369D01*
X10463D01*
X10582D01*
X10620D02*
X10719D01*
X10800D01*
X11116D02*
X11135D01*
X11139D02*
X11155D01*
X11158D02*
X11175D01*
X11178D02*
X11198D01*
X11217D01*
X9752Y7664D02*
X8825D01*
X9815D02*
X9828D01*
X10032D02*
X10073D01*
X10348D02*
X10369D01*
X10463D02*
X10582D01*
X10620D02*
X10719D01*
X9752Y7670D02*
X8823D01*
X9812D02*
X9828D01*
X9836D01*
X9872D01*
X9892D01*
X9956D02*
X9972D01*
X10032D02*
X10073D01*
X10348D02*
X10369D01*
X10463D02*
X10582D01*
X10620D02*
X10719D01*
X9752Y7676D02*
X8821D01*
X9812D02*
X9828D01*
X9836D01*
X9846D01*
X9872D01*
X9892D01*
X9962D02*
X9972D01*
X10032D02*
X10073D01*
X10348D02*
X10369D01*
X10463D02*
X10582D01*
X10620D02*
X10719D01*
X9752Y7682D02*
X8819D01*
X9812D02*
X9846D01*
X9892D01*
X9962D02*
X9972D01*
X10032D02*
X10067D01*
X10348D02*
X10369D01*
X10463D02*
X10582D01*
X10620D02*
X10719D01*
X9612Y7688D02*
X8816D01*
X9612D02*
X9650D01*
X9752D01*
X9812D02*
X9846D01*
X9962D02*
X9972D01*
X10032D02*
X10067D01*
X10348D02*
X10369D01*
X10463D02*
X10582D01*
X10620D02*
X10719D01*
X9612Y7694D02*
X8813D01*
X9650D02*
X9752D01*
X9812D02*
X9846D01*
X9962D02*
X9972D01*
X10032D02*
X10067D01*
X10348D02*
X10369D01*
X10463D02*
X10582D01*
X10620D02*
X10719D01*
X9610Y7700D02*
X8810D01*
X9652D02*
X9752D01*
X9812D02*
X9846D01*
X9962D02*
X9972D01*
X10348D02*
X10369D01*
X10463D02*
X10582D01*
X10620D02*
X10719D01*
X9319Y7706D02*
X8806D01*
X9333D02*
X9606D01*
X9656D02*
X9752D01*
X9812D02*
X9846D01*
X9962D02*
X9972D01*
X10348D02*
X10369D01*
X10463D02*
X10582D01*
X10620D02*
X10719D01*
X8587Y7712D02*
X8577D01*
X8802D02*
X9307D01*
X9345D02*
X9604D01*
X9658D02*
X9752D01*
X9812D02*
X9846D01*
X9962D02*
X9971D01*
X10348D02*
X10369D01*
X10463D02*
X10582D01*
X10620D02*
X10719D01*
X8592Y7718D02*
X8577D01*
X8798D02*
X9302D01*
X9350D02*
X9603D01*
X9659D02*
X9752D01*
X9812D02*
X9846D01*
X9965D02*
X9972D01*
X10348D02*
X10369D01*
X10463D02*
X10582D01*
X10620D02*
X10719D01*
X8597Y7724D02*
X8577D01*
X8792D02*
X9299D01*
X9353D02*
X9604D01*
X9658D02*
X9752D01*
X9812D02*
X9846D01*
X10348D02*
X10369D01*
X10463D02*
X10582D01*
X10620D02*
X10719D01*
X8603Y7730D02*
X8577D01*
X8786D02*
X9298D01*
X9354D02*
X9606D01*
X9656D02*
X9752D01*
X9812D02*
X9846D01*
X9962D02*
X9972D01*
X10348D02*
X10369D01*
X10463D02*
X10582D01*
X10620D02*
X10719D01*
X8610Y7736D02*
X8577D01*
X8779D02*
X9293D01*
X9354D02*
X9610D01*
X9652D02*
X9752D01*
X9812D02*
X9846D01*
X9962D02*
X9972D01*
X9981D01*
X10348D02*
X10369D01*
X10463D02*
X10582D01*
X10620D02*
X10719D01*
X8618Y7742D02*
X8577D01*
X8771D02*
X9264D01*
X9287D01*
X9353D02*
X9612D01*
X9650D02*
X9752D01*
X9812D02*
X9846D01*
X9962D02*
X9972D01*
X9987D01*
X10348D02*
X10369D01*
X10463D02*
X10582D01*
X10620D02*
X10719D01*
X8628Y7748D02*
X8577D01*
X8762D02*
X9264D01*
X9281D01*
X9350D02*
X9612D01*
X9650D02*
X9752D01*
X9812D02*
X9846D01*
X9870D01*
X9926D02*
X9962D01*
X9972D01*
X9993D01*
X10348D02*
X10369D01*
X10463D02*
X10582D01*
X10620D02*
X10719D01*
X8639Y7754D02*
X8577D01*
X8751D02*
X9264D01*
X9275D01*
X9345D02*
X9612D01*
X9650D02*
X9752D01*
X9812D02*
X9842D01*
X9846D02*
X9864D01*
X9920D02*
X9962D01*
X9998D01*
X10463D02*
X10582D01*
X10620D02*
X10719D01*
X8655Y7760D02*
X8577D01*
X8735D02*
X9264D01*
X9333D02*
X9612D01*
X9650D02*
X9752D01*
X9812D02*
X9842D01*
X9858D01*
X9914D02*
X9998D01*
X10005D01*
X10463D02*
X10582D01*
X10620D02*
X10719D01*
X8688Y7766D02*
X8577D01*
X8702D02*
X9263D01*
X9323D02*
X9612D01*
X9650D02*
X9752D01*
X9812D02*
X9842D01*
X9908D02*
X9942D01*
X9966D01*
X9998D01*
X10011D01*
X10023D01*
X10463D02*
X10582D01*
X10620D02*
X10719D01*
X9257Y7772D02*
X8577D01*
X9257D02*
X9264D01*
X9317D02*
X9612D01*
X9650D02*
X9752D01*
X9812D02*
X9842D01*
X9902D02*
X9942D01*
X9966D01*
X9972D02*
X9998D01*
X10016D01*
X10024D01*
X10463D02*
X10582D01*
X10620D02*
X10719D01*
X9261Y7778D02*
X8577D01*
X9311D02*
X9612D01*
X9650D02*
X9752D01*
X9762D01*
X9802D02*
X9812D01*
X9840D01*
X9942D02*
X9966D01*
X10463D02*
X10582D01*
X10620D02*
X10719D01*
X9264Y7784D02*
X8577D01*
X9308D02*
X9612D01*
X9650D02*
X9752D01*
X9812D02*
X9834D01*
X9842D01*
X9942D02*
X9966D01*
X10463D02*
X10582D01*
X10620D02*
X10719D01*
X9264Y7790D02*
X8577D01*
X9308D02*
X9612D01*
X9650D02*
X9752D01*
X9812D02*
X9840D01*
X10463D02*
X10582D01*
X10620D02*
X10719D01*
X9082Y7796D02*
X8577D01*
X9082D02*
X9094D01*
X9108D02*
X9120D01*
X9264D01*
X9308D02*
X9612D01*
X9650D02*
X9752D01*
X9812D02*
X9842D01*
X10463D02*
X10582D01*
X10620D02*
X10719D01*
X9082Y7802D02*
X8577D01*
X9120D02*
X9264D01*
X9308D02*
X9612D01*
X9650D02*
X9752D01*
X9812D02*
X9842D01*
X10463D02*
X10582D01*
X10620D02*
X10719D01*
X10943Y7948D02*
X10978D01*
X10943D02*
X10908D01*
X9942Y7859D02*
X9912D01*
X9882D01*
X10302Y7844D02*
X10348D01*
X10302D02*
X10256D01*
X10144Y7835D02*
X10121D01*
X10147D02*
X10169D01*
X10147D02*
X10125D01*
X10173D02*
X10195D01*
X10173D02*
X10150D01*
X9236Y7848D02*
X9208D01*
X9206Y7874D02*
X9204D01*
X9206D02*
X9208D01*
X9258D01*
X9208Y7822D02*
X9204D01*
X9208D02*
X9258D01*
Y7874D02*
X9254D01*
X9258D02*
X9264D01*
X9264D01*
X9258Y7822D02*
X9254D01*
X9258D02*
X9264D01*
X9264D01*
X9308D02*
X9314D01*
X9208Y7934D02*
X9206D01*
X9208D02*
X9254D01*
Y7882D02*
X9209D01*
X9298Y7934D02*
X9308D01*
X9314D01*
X9258Y7882D02*
X9254D01*
X9258D02*
X9264D01*
X9264D01*
X10202Y7818D02*
X10208D01*
X10228D01*
X10244D01*
X10150Y7867D02*
X10147D01*
X10169D02*
X10195D01*
X10125D02*
X10121D01*
X10144D02*
X10150D01*
X10169D01*
X10125D02*
X10118D01*
X10125D02*
X10144D01*
X10118D02*
X10112D01*
X10195Y7826D02*
X10202D01*
X10256Y7890D02*
X10348D01*
X10719Y7818D02*
X10734D01*
X10412D02*
X10369D01*
X10412D02*
X10463D01*
X9978Y7890D02*
X9966D01*
Y7898D02*
X9963D01*
X9966D02*
X9978D01*
X9882Y7834D02*
X9880D01*
Y7890D02*
X9882D01*
X9942D01*
X9882Y7828D02*
X9880D01*
X9759Y7900D02*
X9752D01*
X9872Y7995D02*
X9879D01*
X9908D01*
X9926D01*
X9926D01*
X9932D01*
X10052D02*
X10071D01*
X10073D01*
X10092D01*
X10096D01*
X10144D01*
X10866Y7983D02*
X11010D01*
X9873Y7984D02*
X9872D01*
X9686Y7938D02*
X9683D01*
X9686D02*
X9688D01*
X9264Y7874D02*
X9264D01*
X8742Y7988D02*
X8738D01*
X8742D02*
X8753D01*
X8769D01*
X8782D01*
X8778D01*
X8782D02*
X8836D01*
X8876D01*
X10626Y7988D02*
X10628D01*
X10418Y7974D02*
X10406D01*
X10418D02*
X10434D01*
X10486D01*
X10136Y7911D02*
X10122D01*
X10136D02*
X10734D01*
X10406Y7966D02*
X10102D01*
X10406D02*
X10425D01*
X10427D01*
X10486D01*
X9966Y7950D02*
X9935D01*
X9919Y7988D02*
X9908D01*
X9919D02*
X9932D01*
X9933D01*
X10052D01*
X10064D01*
X10080D01*
X10092D01*
X9842Y7850D02*
X9812D01*
X9880D02*
X9882D01*
Y7888D02*
X9880D01*
X9942Y7824D02*
X9966D01*
X9333Y7928D02*
X9314D01*
X9333D02*
X9349D01*
X9360D01*
X9318Y7828D02*
X9314D01*
X9318D02*
X9334D01*
X9346D01*
X9764Y7930D02*
X9768D01*
X9804D02*
X9806D01*
X9811D01*
X10244Y7814D02*
X10256D01*
X10348D02*
X10369D01*
X9077Y7808D02*
X8577D01*
X9125D02*
X9264D01*
X9308D02*
X9612D01*
X9650D02*
X9752D01*
X9812D02*
X9842D01*
X10463D02*
X10582D01*
X10620D02*
X10719D01*
X9074Y7814D02*
X8577D01*
X9128D02*
X9208D01*
X9258D01*
X9314D02*
X9612D01*
X9650D02*
X9752D01*
X9812D02*
X9842D01*
X10244D02*
X10256D01*
X10348D02*
X10369D01*
X10463D02*
X10582D01*
X10620D02*
X10719D01*
X9051Y7820D02*
X8577D01*
X9051D02*
X9073D01*
X9129D02*
X9208D01*
X9258D01*
X9314D02*
X9346D01*
X9610D01*
X9652D02*
X9752D01*
X9812D02*
X9842D01*
X10208D02*
X10228D01*
X10244D01*
X10256D01*
X10348D02*
X10369D01*
X10412D01*
X10463D01*
X10582D01*
X10620D02*
X10719D01*
X10734D01*
X9034Y7826D02*
X8577D01*
X9129D02*
X9208D01*
X9320D02*
X9332D01*
X9346D01*
X9606D01*
X9656D02*
X9752D01*
X9812D02*
X9842D01*
X9942D02*
X9966D01*
X10208D02*
X10228D01*
X10244D01*
X10256D01*
X10348D02*
X10369D01*
X10412D01*
X10463D01*
X10582D01*
X10620D02*
X10719D01*
X10734D01*
X9028Y7832D02*
X8577D01*
X9128D02*
X9208D01*
X9338D02*
X9346D01*
X9604D01*
X9658D02*
X9752D01*
X9812D02*
X9842D01*
X9942D02*
X9966D01*
X10202D02*
X10256D01*
X10348D02*
X10582D01*
X10620D02*
X10734D01*
X9025Y7838D02*
X8577D01*
X9125D02*
X9208D01*
X9354D02*
X9603D01*
X9659D02*
X9752D01*
X9812D02*
X9842D01*
X9942D02*
X9966D01*
X10202D02*
X10256D01*
X10348D02*
X10577D01*
X10625D02*
X10734D01*
X9023Y7844D02*
X8577D01*
X9120D02*
X9208D01*
X9362D02*
X9604D01*
X9658D02*
X9752D01*
X9812D02*
X9842D01*
X9942D02*
X9966D01*
X10195D02*
X10256D01*
X10348D02*
X10574D01*
X10628D02*
X10734D01*
X9023Y7850D02*
X8577D01*
X9126D02*
X9146D01*
X9208D01*
X9366D02*
X9606D01*
X9656D02*
X9752D01*
X9942D02*
X9966D01*
X10195D02*
X10256D01*
X10348D02*
X10573D01*
X10629D02*
X10734D01*
X9024Y7856D02*
X8577D01*
X9146D02*
X9208D01*
X9373D02*
X9610D01*
X9652D02*
X9752D01*
X9942D02*
X9966D01*
X10195D02*
X10256D01*
X10348D02*
X10573D01*
X10629D02*
X10734D01*
X9027Y7862D02*
X8577D01*
X9149D02*
X9208D01*
X9385D02*
X9612D01*
X9650D02*
X9752D01*
X9942D02*
X9966D01*
X10195D02*
X10256D01*
X10348D02*
X10574D01*
X10628D02*
X10734D01*
X9031Y7868D02*
X8577D01*
X9152D02*
X9166D01*
X9206D01*
X9390D02*
X9612D01*
X9650D01*
X9752D01*
X9942D02*
X9966D01*
X10125D02*
X10144D01*
X10150D02*
X10169D01*
X10195D01*
X10256D01*
X10348D02*
X10577D01*
X10625D02*
X10734D01*
X9032Y7874D02*
X8577D01*
X9032D02*
X9041D01*
X9154D02*
X9166D01*
X9208D02*
X9258D01*
X9393D02*
X9752D01*
X9942D02*
X9966D01*
X10125D02*
X10144D01*
X10150D02*
X10169D01*
X10195D01*
X10256D01*
X10348D02*
X10582D01*
X10620D02*
X10734D01*
X9032Y7880D02*
X8577D01*
X9154D02*
X9165D01*
X9208D02*
X9254D01*
X9394D02*
X9752D01*
X9942D02*
X9966D01*
X10125D02*
X10144D01*
X10150D02*
X10169D01*
X10195D01*
X10256D01*
X10348D02*
X10582D01*
X10594D01*
X10608D02*
X10620D01*
X10734D01*
X9029Y7886D02*
X8577D01*
X9153D02*
X9161D01*
X9394D02*
X9752D01*
X9942D02*
X9966D01*
X10112D02*
X10256D01*
X10348D02*
X10734D01*
X9025Y7892D02*
X8577D01*
X9150D02*
X9159D01*
X9393D02*
X9752D01*
X9882D02*
X9942D01*
X9966D01*
X9978D01*
X10112D02*
X10256D01*
X10348D01*
X10734D01*
X9002Y7898D02*
X8577D01*
X9002D02*
X9023D01*
X9146D02*
X9158D01*
X9390D02*
X9752D01*
X9760D01*
X9884D02*
X9942D01*
X9966D01*
X9978D01*
X10116D02*
X10256D01*
X10348D01*
X10734D01*
X9002Y7904D02*
X8577D01*
X9146D02*
X9159D01*
X9385D02*
X9752D01*
X9890D02*
X9966D01*
X10116D02*
X10136D01*
X10734D01*
X9000Y7910D02*
X8577D01*
X9146D02*
X9161D01*
X9373D02*
X9752D01*
X9896D02*
X9966D01*
X10121D02*
X10136D01*
X10734D01*
X8996Y7916D02*
X8577D01*
X9146D02*
X9165D01*
X9361D02*
X9759D01*
X9902D02*
X9966D01*
X8994Y7922D02*
X8577D01*
X9146D02*
X9166D01*
X9360D02*
X9762D01*
X9908D02*
X9966D01*
X8993Y7928D02*
X8577D01*
X9146D02*
X9166D01*
X9314D02*
X9333D01*
X9349D01*
X9360D01*
X9686D01*
X9722D01*
X9726D02*
X9760D01*
X9914D02*
X9966D01*
X8994Y7934D02*
X8577D01*
X9146D02*
X9166D01*
X9208D02*
X9254D01*
X9298D02*
X9308D01*
X9314D02*
X9339D01*
X9343D02*
X9360D01*
X9686D01*
X9694D01*
X9764D02*
X9776D01*
X9796D02*
X9805D01*
X9920D02*
X9966D01*
X8996Y7940D02*
X8577D01*
X9146D02*
X9166D01*
X9208D02*
X9254D01*
X9298D02*
X9308D01*
X9314D02*
X9360D01*
X9686D01*
X9764D02*
X9801D01*
X9926D02*
X9966D01*
X9000Y7946D02*
X8577D01*
X9146D02*
X9166D01*
X9208D02*
X9254D01*
X9298D02*
X9314D01*
X9682D01*
X9767D02*
X9782D01*
X9799D01*
X9932D02*
X9966D01*
X9002Y7952D02*
X8577D01*
X9146D02*
X9166D01*
X9206D02*
X9254D01*
X9298D02*
X9680D01*
X9769D02*
X9782D01*
X9791D01*
X9872D02*
X9882D01*
X9001Y7958D02*
X8577D01*
X9146D02*
X9166D01*
X9206D02*
X9254D01*
X9298D02*
X9679D01*
X9770D02*
X9781D01*
X9872D02*
X9888D01*
X8997Y7964D02*
X8577D01*
X9150D02*
X9166D01*
X9206D02*
X9254D01*
X9298D02*
X9679D01*
X9770D02*
X9777D01*
X9872D02*
X9894D01*
X8994Y7970D02*
X8577D01*
X9153D02*
X9166D01*
X9206D02*
X9254D01*
X9298D02*
X9681D01*
X9872D02*
X9900D01*
X10099D02*
X10406D01*
X10421D01*
X10431D01*
X10486D01*
X8742Y7976D02*
X8577D01*
X8742D02*
X8782D01*
X8836D01*
X8916D01*
X8993D01*
X9154D02*
X9166D01*
X9206D02*
X9254D01*
X9298D02*
X9685D01*
X9764D02*
X9773D01*
X9872D02*
X9906D01*
X10093D02*
X10406D01*
X10415D01*
X8742Y7982D02*
X8577D01*
X8742D02*
X8759D01*
X8763D02*
X8782D01*
X8836D01*
X8886D01*
X8906D02*
X8916D01*
X8993D01*
X9206D02*
X9254D01*
X9298D02*
X9686D01*
X9760D02*
X9773D01*
X9872D02*
X9908D01*
X10092D02*
X10406D01*
X8742Y7988D02*
X8577D01*
X8742D02*
X8753D01*
X8769D01*
X8782D01*
X8836D01*
X8876D01*
X8916D02*
X8995D01*
X9206D02*
X9254D01*
X9298D02*
X9686D01*
X9760D02*
X9775D01*
X9876D02*
X9908D01*
X9918D01*
X10081D02*
X10092D01*
X10144D01*
X10403D01*
X10866D02*
X11005D01*
X8742Y7994D02*
X8577D01*
X8920D02*
X8998D01*
X9206D02*
X9254D01*
X9298D02*
X9686D01*
X9760D02*
X9778D01*
X9872D02*
X9880D01*
X9908D01*
X9924D01*
X9932D02*
X10052D01*
X10069D01*
X10075D02*
X10092D01*
X10096D02*
X10144D01*
X10166D01*
X10376D01*
X10397D01*
X10866D02*
X10999D01*
X10716Y8143D02*
X10686D01*
X10901D02*
X10932D01*
X10866Y8058D02*
X10836D01*
X10806D01*
X10796D02*
X10766D01*
X10368Y8073D02*
X10346D01*
X10324D01*
X10216Y8158D02*
X10186D01*
X9932Y8022D02*
X9886D01*
Y8072D02*
X9932D01*
Y8122D02*
X9886D01*
Y8172D02*
X9932D01*
X10176Y8072D02*
X10216D01*
Y8188D02*
X10176D01*
X10240D02*
X10252D01*
X10290D02*
X10302D01*
X10290Y8072D02*
X10240D01*
X10290D02*
X10302D01*
X10308Y8070D02*
X10312D01*
Y8026D02*
X10308D01*
X10312D02*
X10371D01*
X10376D01*
X10416Y8070D02*
X10416D01*
X10460D01*
Y8076D02*
X10421D01*
X10312Y8120D02*
X10308D01*
X10312D02*
X10326D01*
X10312Y8076D02*
X10308D01*
X10486Y8078D02*
X10536D01*
X10546D01*
X10552Y8051D02*
X10556D01*
X10593D01*
X10626D01*
X10628D02*
X10631D01*
X10663D01*
X10626Y8052D02*
X10593D01*
X10626D02*
X10631D01*
X10663D01*
X10664D01*
X10749Y8088D02*
X10796D01*
X10802Y8034D02*
X10806D01*
Y8088D02*
X10802D01*
X10806D02*
X10866D01*
X10806Y8028D02*
X10802D01*
X10870Y8112D02*
X10932D01*
X10746D02*
X10686D01*
X9352Y8168D02*
X9298D01*
X9250D02*
X9206D01*
X9250D02*
X9254D01*
X8946Y8172D02*
X8892D01*
X8712Y8148D02*
X8700D01*
X8750D02*
X8762D01*
X10376Y8004D02*
X10388D01*
X10166Y8014D02*
X10164D01*
X10166D02*
X10176D01*
X9985Y8128D02*
X9974D01*
X9760Y8082D02*
X9749D01*
X8723Y8018D02*
X8712D01*
X10932Y8176D02*
X10944D01*
X10686Y8175D02*
X10661D01*
X10308Y8138D02*
X10302D01*
Y8178D02*
X10308D01*
X10324D01*
X10326D01*
X10793Y8138D02*
X10796D01*
X10816D02*
X10832D01*
X10836D01*
X10836D01*
X10842D01*
X10846D01*
X10852D01*
X10856D01*
X10856D01*
X10870D01*
X10756D02*
X10746D01*
X10756D02*
X10760D01*
X10770D01*
X10776D01*
X10780D01*
X10796D01*
X10796D01*
X10816D01*
X10816D01*
X8782Y8028D02*
X8769D01*
X8778D02*
X8782D01*
X8836D01*
X8876D01*
X9996Y8104D02*
X10007D01*
X10023D01*
X10052D01*
X10144Y8004D02*
X10154D01*
X10166D01*
X10216Y8084D02*
X10240D01*
Y8122D02*
X10216D01*
X10460Y8068D02*
X10486D01*
X9683Y8044D02*
X9391D01*
X9356Y8108D02*
X9612D01*
X9613D01*
X9629D01*
X9638D01*
X9639Y8098D02*
X9640D01*
X9664D01*
X9716D02*
X9718D01*
X9734D01*
X9746D01*
X8741Y8000D02*
X8577D01*
X8923D02*
X9002D01*
X9206D02*
X9254D01*
X9298D02*
X9686D01*
X9760D02*
X9782D01*
X9932D02*
X10052D01*
X10151D02*
X10166D01*
X10376D01*
X10391D01*
X10866D02*
X10993D01*
X8712Y8006D02*
X8577D01*
X8712D02*
X8735D01*
X8924D02*
X9002D01*
X9206D02*
X9254D01*
X9298D02*
X9686D01*
X9760D02*
X9782D01*
X9932D02*
X10052D01*
X10157D02*
X10166D01*
X10176D01*
X10376D01*
X10385D01*
X10796D02*
X10806D01*
X10866D02*
X10987D01*
X8712Y8012D02*
X8577D01*
X8712D02*
X8729D01*
X8924D02*
X9002D01*
X9206D02*
X9254D01*
X9298D02*
X9686D01*
X9760D02*
X9782D01*
X9932D02*
X10052D01*
X10166D02*
X10176D01*
X10376D01*
X10796D02*
X10806D01*
X10866D02*
X10981D01*
X8712Y8018D02*
X8577D01*
X8712D02*
X8723D01*
X8922D02*
X9002D01*
X9206D02*
X9254D01*
X9298D02*
X9686D01*
X9760D02*
X9782D01*
X9932D02*
X10052D01*
X10176D02*
X10312D01*
X10373D01*
X10796D02*
X10806D01*
X10866D02*
X10975D01*
X8712Y8024D02*
X8577D01*
X8919D02*
X9002D01*
X9206D02*
X9254D01*
X9298D02*
X9686D01*
X9760D02*
X9782D01*
X9932D02*
X10052D01*
X10176D02*
X10312D01*
X10369D01*
X10376D01*
X10796D02*
X10806D01*
X10866D02*
X10969D01*
X8711Y8030D02*
X8577D01*
X8767D02*
X8782D01*
X8836D01*
X8879D01*
X8916D02*
X9002D01*
X9206D02*
X9254D01*
X9298D02*
X9686D01*
X9760D02*
X9782D01*
X9932D02*
X10052D01*
X10181D02*
X10312D01*
X10796D02*
X10806D01*
X10866D02*
X10963D01*
X8705Y8036D02*
X8577D01*
X8761D02*
X8782D01*
X8798D01*
X8839D02*
X8896D01*
X8916D01*
X8972D01*
X8992D01*
X9002D01*
X9206D02*
X9254D01*
X9298D02*
X9352D01*
X9364D01*
X9378D02*
X9686D01*
X9760D02*
X9782D01*
X9932D02*
X10052D01*
X10181D02*
X10312D01*
X10796D02*
X10806D01*
X10866D02*
X10957D01*
X8707Y8042D02*
X8577D01*
X8755D02*
X8790D01*
X8847D02*
X8972D01*
X9206D02*
X9254D01*
X9298D02*
X9352D01*
X9390D02*
X9684D01*
X9760D02*
X9782D01*
X9932D02*
X10052D01*
X10176D02*
X10312D01*
X10796D02*
X10806D01*
X10866D02*
X10951D01*
X8712Y8048D02*
X8577D01*
X8750D02*
X8785D01*
X8852D02*
X8969D01*
X9206D02*
X9254D01*
X9298D02*
X9347D01*
X9760D02*
X9782D01*
X9932D02*
X10052D01*
X10176D02*
X10312D01*
X10546D02*
X10556D01*
X10796D02*
X10806D01*
X10866D02*
X10944D01*
X8712Y8054D02*
X8577D01*
X8750D02*
X8782D01*
X8855D02*
X8966D01*
X9206D02*
X9254D01*
X9298D02*
X9344D01*
X9760D02*
X9782D01*
X9932D02*
X10052D01*
X10176D02*
X10312D01*
X10546D02*
X10556D01*
X10593D01*
X10796D02*
X10806D01*
X10866D02*
X10944D01*
X8712Y8060D02*
X8577D01*
X8750D02*
X8780D01*
X8858D02*
X8964D01*
X9206D02*
X9254D01*
X9298D02*
X9316D01*
X9336D01*
X9343D01*
X9766D02*
X9782D01*
X9932D02*
X10052D01*
X10176D02*
X10216D01*
X10240D01*
X10302D01*
X10312D01*
X10546D02*
X10556D01*
X10593D01*
X10663D02*
X10674D01*
X10796D02*
X10806D01*
X10866D02*
X10944D01*
X8712Y8066D02*
X8577D01*
X8750D02*
X8778D01*
X8859D02*
X8964D01*
X9206D02*
X9254D01*
X9298D02*
X9316D01*
X9766D02*
X9782D01*
X9932D02*
X10052D01*
X10176D02*
X10216D01*
X10240D01*
X10302D01*
X10312D01*
X10546D02*
X10593D01*
X10663D02*
X10681D01*
X10796D02*
X10806D01*
X10866D02*
X10944D01*
X8712Y8072D02*
X8577D01*
X8750D02*
X8778D01*
X8859D02*
X8965D01*
X9206D02*
X9254D01*
X9298D02*
X9313D01*
X9760D02*
X9782D01*
X9932D02*
X10052D01*
X10176D02*
X10216D01*
X10240D01*
X10290D01*
X10302D01*
X10312D01*
X10418D02*
X10460D01*
X10486D01*
X10546D02*
X10593D01*
X10663D02*
X10688D01*
X10796D02*
X10806D01*
X10866D02*
X10944D01*
X8712Y8078D02*
X8577D01*
X8750D02*
X8779D01*
X8858D02*
X8968D01*
X9206D02*
X9254D01*
X9298D02*
X9310D01*
X9760D02*
X9782D01*
X9932D02*
X10052D01*
X10216D02*
X10240D01*
X10302D02*
X10312D01*
X10460D02*
X10486D01*
X10546D02*
X10593D01*
X10663D02*
X10696D01*
X10796D02*
X10806D01*
X10866D02*
X10944D01*
X8712Y8084D02*
X8577D01*
X8750D02*
X8780D01*
X8857D02*
X8972D01*
X9206D02*
X9254D01*
X9298D02*
X9308D01*
X9748D02*
X9760D01*
X9782D01*
X9932D02*
X10052D01*
X10302D02*
X10312D01*
X10460D02*
X10486D01*
X10546D01*
X10593D01*
X10663D02*
X10700D01*
X10796D02*
X10806D01*
X10866D02*
X10944D01*
X8712Y8090D02*
X8577D01*
X8750D02*
X8783D01*
X8854D02*
X8972D01*
X9206D02*
X9254D01*
X9298D02*
X9308D01*
X9746D02*
X9760D01*
X9782D01*
X9932D02*
X10052D01*
X10302D02*
X10312D01*
X10460D02*
X10486D01*
X10546D01*
X10593D01*
X10663D02*
X10704D01*
X10748D02*
X10796D01*
X10806D01*
X10866D01*
X10944D01*
X8712Y8096D02*
X8577D01*
X8750D02*
X8787D01*
X8850D02*
X8972D01*
X9208D02*
X9254D01*
X9298D02*
X9309D01*
X9736D02*
X9746D01*
X9782D01*
X9932D02*
X9996D01*
X10014D01*
X10015D02*
X10052D01*
X10302D02*
X10312D01*
X10460D02*
X10487D01*
X10523D02*
X10593D01*
X10663D02*
X10710D01*
X10742D02*
X10796D01*
X10806D01*
X10866D01*
X10944D01*
X8712Y8102D02*
X8577D01*
X8750D02*
X8793D01*
X8845D02*
X8972D01*
X9212D02*
X9254D01*
X9298D02*
X9312D01*
X9640D02*
X9650D01*
X9730D02*
X9746D01*
X9782D01*
X9932D02*
X9996D01*
X10009D01*
X10022D01*
X10052D01*
X10302D02*
X10312D01*
X10545D02*
X10593D01*
X10663D02*
X10686D01*
X10746D01*
X10870D01*
X10932D01*
X10944D01*
X8712Y8108D02*
X8577D01*
X8750D02*
X8802D01*
X8835D02*
X8972D01*
X9214D02*
X9254D01*
X9298D02*
X9316D01*
X9356D02*
X9612D01*
X9613D02*
X9629D01*
X9637D01*
X9746D02*
X9782D01*
X9932D02*
X9996D01*
X10302D02*
X10312D01*
X10558D02*
X10593D01*
X10663D02*
X10686D01*
X10746D01*
X10870D01*
X10932D01*
X10944D01*
X8712Y8114D02*
X8577D01*
X8750D02*
X8972D01*
X9214D02*
X9254D01*
X9298D02*
X9316D01*
X9326D01*
X9346D02*
X9619D01*
X9753D02*
X9782D01*
X9932D02*
X9996D01*
X10302D02*
X10312D01*
X10568D02*
X10593D01*
X10663D02*
X10686D01*
X10746D02*
X10870D01*
X10932D02*
X10944D01*
X8712Y8120D02*
X8577D01*
X8750D02*
X8972D01*
X9213D02*
X9254D01*
X9298D02*
X9316D01*
X9619D01*
X9761D02*
X9782D01*
X9932D02*
X9974D01*
X9993D01*
X10302D02*
X10312D01*
X10576D02*
X10593D01*
X10663D02*
X10686D01*
X10746D02*
X10870D01*
X10932D02*
X10944D01*
X8712Y8126D02*
X8577D01*
X8750D02*
X8972D01*
X9211D02*
X9254D01*
X9298D02*
X9613D01*
X9767D02*
X9782D01*
X9932D02*
X9974D01*
X9987D01*
X10216D02*
X10240D01*
X10302D02*
X10312D01*
X10320D01*
X10582D02*
X10593D01*
X10663D02*
X10686D01*
X10746D02*
X10796D01*
X10816D01*
X10870D01*
X10932D02*
X10944D01*
X8712Y8132D02*
X8577D01*
X8750D02*
X8972D01*
X9207D02*
X9254D01*
X9298D02*
X9607D01*
X9773D02*
X9782D01*
X9932D02*
X9974D01*
X9982D01*
X10216D02*
X10240D01*
X10302D02*
X10312D01*
X10663D02*
X10686D01*
X10746D02*
X10796D01*
X10816D01*
X10870D01*
X10932D02*
X10944D01*
X8700Y8138D02*
X8577D01*
X8700D02*
X8712D01*
X8750D02*
X8762D01*
X8972D01*
X9206D02*
X9254D01*
X9298D02*
X9602D01*
X9932D02*
X9974D01*
X10216D02*
X10240D01*
X10593D02*
X10608D01*
X10654D02*
X10663D01*
X10686D01*
X10746D02*
X10756D01*
X10760D02*
X10770D01*
X10780D02*
X10796D01*
X10796D02*
X10816D01*
X10816D02*
X10832D01*
X10856D02*
X10870D01*
X10932D02*
X10944D01*
X8700Y8144D02*
X8577D01*
X8700D02*
X8712D01*
X8750D02*
X8762D01*
X8972D01*
X9206D02*
X9254D01*
X9298D02*
X9598D01*
X9932D02*
X9972D01*
X10216D02*
X10240D01*
X10597D02*
X10608D01*
X10654D02*
X10663D01*
X10686D01*
X10932D02*
X10944D01*
X8700Y8150D02*
X8577D01*
X8762D02*
X8805D01*
X8837D02*
X8972D01*
X9206D02*
X9254D01*
X9298D02*
X9594D01*
X9932D02*
X9967D01*
X9974D01*
X10216D02*
X10240D01*
X10601D02*
X10608D01*
X10654D02*
X10663D01*
X10686D01*
X10932D02*
X10944D01*
X8700Y8156D02*
X8577D01*
X8762D02*
X8799D01*
X8843D02*
X8972D01*
X9206D02*
X9254D01*
X9298D02*
X9352D01*
X9591D01*
X9932D02*
X9974D01*
X10216D02*
X10240D01*
X10654D02*
X10686D01*
X10932D02*
X10944D01*
X8700Y8162D02*
X8577D01*
X8762D02*
X8795D01*
X8854D02*
X8886D01*
X8946D01*
X8972D01*
X9206D02*
X9254D01*
X9298D02*
X9352D01*
X9588D01*
X9932D02*
X9974D01*
X10216D02*
X10240D01*
X10654D02*
X10686D01*
X10932D02*
X10944D01*
X8700Y8168D02*
X8577D01*
X8762D02*
X8793D01*
X8876D02*
X8886D01*
X8946D01*
X8972D01*
X9352D02*
X9586D01*
X9932D02*
X9974D01*
X10216D02*
X10240D01*
X10654D02*
X10686D01*
X10932D02*
X10944D01*
X8700Y8174D02*
X8577D01*
X8762D02*
X8793D01*
X8946D02*
X8972D01*
X9352D02*
X9584D01*
X9932D02*
X9974D01*
X10216D02*
X10240D01*
X10660D02*
X10686D01*
X10932D02*
X10944D01*
X8700Y8180D02*
X8577D01*
X8762D02*
X8794D01*
X8946D02*
X8972D01*
X9352D02*
X9582D01*
X9932D02*
X9974D01*
X10216D02*
X10240D01*
X10302D02*
X10310D01*
X10322D01*
X8700Y8186D02*
X8577D01*
X8762D02*
X8796D01*
X8946D02*
X8972D01*
X9352D02*
X9581D01*
X9932D02*
X9974D01*
X10216D02*
X10240D01*
X10302D02*
X10326D01*
X8700Y8192D02*
X8577D01*
X8762D02*
X8791D01*
X8946D02*
X8972D01*
X9352D02*
X9580D01*
X9932D02*
X9974D01*
X10176D02*
X10216D01*
X10240D01*
X10252D01*
X10290D02*
X10302D01*
X10326D01*
X8756Y8328D02*
X8726D01*
X9321Y8198D02*
X9352D01*
X10600Y8323D02*
X10631D01*
X10806Y8255D02*
X10850D01*
X10806D02*
X10761D01*
X10356Y8223D02*
X10326D01*
X9966Y8253D02*
X9936D01*
X9912D02*
X9881D01*
X9862Y8200D02*
X9932D01*
X9915Y8284D02*
X9912D01*
Y8222D02*
X9862D01*
X10014Y8284D02*
X10052D01*
X9936D02*
X9932D01*
X9936D02*
X9936D01*
X9974D01*
X9936Y8222D02*
X9932D01*
X9936D02*
X9974D01*
X9951Y8354D02*
X9950D01*
X9951D02*
X9986D01*
X9990D01*
X9936Y8292D02*
X9932D01*
X9936D02*
X9936D01*
X9968D01*
X9974D01*
X9987Y8354D02*
X9990D01*
X9994D01*
X9996D01*
X10002D01*
X10049D02*
X10051D01*
X10052D01*
Y8292D02*
X10019D01*
X10062Y8354D02*
X10066D01*
X10076D01*
X10116D01*
X10116D01*
X10066Y8292D02*
X10062D01*
X10066D02*
X10076D01*
X10066Y8284D02*
X10062D01*
X10066D02*
X10076D01*
X10176Y8222D02*
X10182D01*
X10326Y8254D02*
X10358D01*
X10252Y8314D02*
X10240D01*
X10252D02*
X10302D01*
X10252Y8198D02*
X10240D01*
X10290D02*
X10302D01*
X10870Y8228D02*
X10922D01*
X10932D01*
X10760Y8228D02*
X10755D01*
X10760D02*
X10761D01*
X10850Y8228D02*
X10856D01*
X10814Y8342D02*
X10810D01*
X10856D02*
X10856D01*
Y8282D02*
X10850D01*
X10794Y8342D02*
X10790D01*
X10774D02*
X10771D01*
X10797D02*
X10814D01*
X10816D01*
X10755D02*
X10751D01*
X10755D02*
X10774D01*
X10794D01*
X10796D01*
X10797D01*
X10755Y8282D02*
X10751D01*
X10755D02*
X10761D01*
X10694Y8228D02*
X10686D01*
X10694D02*
X10722D01*
X10726D01*
X10732D01*
X10736D01*
X10742D01*
X10746D01*
X10656Y8354D02*
X10652D01*
X10662D02*
X10716D01*
X10656Y8292D02*
X10652D01*
X10662D02*
X10672D01*
X10716D01*
X10600Y8354D02*
X10597D01*
X10600D02*
X10622D01*
X10651D01*
X10656D01*
X10662D01*
X10600Y8292D02*
X10597D01*
X10600D02*
X10656D01*
X10662D01*
X9290Y8284D02*
X9289D01*
X9290D02*
X9296D01*
X9298D01*
X9340D01*
X9352D01*
X8946Y8288D02*
X8936D01*
X10751Y8359D02*
X10810D01*
X10816D01*
X10656D02*
X10651D01*
X10656D02*
X10662D01*
X10716D01*
X10722D01*
X10600D02*
X10551D01*
X10600D02*
X10622D01*
X10522D02*
X10451D01*
X10422D02*
X10351D01*
X10322D02*
X10251D01*
X10222D02*
X10206D01*
X10056D02*
X10055D01*
X10056D02*
X10066D01*
X10116D01*
X9990D02*
X9951D01*
X9990D02*
X9996D01*
X10000D01*
X10002D01*
X9222D02*
X9206D01*
X9002D02*
X8950D01*
X8922D02*
X8913D01*
X8780Y8358D02*
X8777D01*
X8786D02*
X8814D01*
X8726D02*
X8722D01*
X8726D02*
X8780D01*
X8786D01*
X8726Y8298D02*
X8722D01*
X8726D02*
X8760D01*
X8728Y8264D02*
X8700D01*
X10822Y8378D02*
X10828D01*
X10410Y8268D02*
X10399D01*
X10206Y8274D02*
X10194D01*
X10052Y8348D02*
X10051D01*
X10052D02*
X10056D01*
X8936Y8342D02*
X8924D01*
X9912Y8290D02*
X9925D01*
X9936D01*
X9936D01*
X9350Y8377D02*
X9322D01*
X8826Y8372D02*
X8823D01*
X8816D02*
X8813D01*
X8816D02*
X8826D01*
X8828D01*
X8844D01*
X8850D01*
X9233Y8348D02*
X9236D01*
X9230D01*
X9236D02*
X9238D01*
X9250D01*
X10052Y8272D02*
X10066D01*
X10302Y8264D02*
X10326D01*
X10348D01*
Y8302D02*
X10302D01*
X10348D02*
X10364D01*
X10376D01*
X10631Y8221D02*
X10686D01*
X10716Y8298D02*
X10755D01*
Y8338D02*
X10716D01*
X10856Y8220D02*
X10856D01*
X10856D01*
X10870D01*
X10755D02*
X10746D01*
X9532Y8294D02*
X9528D01*
X9570D02*
X9624D01*
X9352D02*
X9299D01*
X9352D02*
X9532D01*
X9570D01*
X9290Y8278D02*
X9288D01*
X8700Y8198D02*
X8577D01*
X8762D02*
X8785D01*
X8946D02*
X8972D01*
X9352D02*
X9580D01*
X9932D02*
X9974D01*
X10176D02*
X10216D01*
X10240D01*
X10302D02*
X10326D01*
X8700Y8204D02*
X8577D01*
X8762D02*
X8782D01*
X8946D02*
X8972D01*
X9352D02*
X9580D01*
X9862D02*
X9932D01*
X9974D01*
X10176D02*
X10240D01*
X10302D02*
X10326D01*
X8700Y8210D02*
X8577D01*
X8762D02*
X8780D01*
X8946D02*
X8972D01*
X9352D02*
X9580D01*
X9862D02*
X9912D01*
X9932D01*
X9936D02*
X9974D01*
X10182D02*
X10240D01*
X10302D02*
X10326D01*
X8700Y8216D02*
X8577D01*
X8762D02*
X8778D01*
X8946D02*
X8972D01*
X9352D02*
X9580D01*
X9862D02*
X9912D01*
X9936D01*
X9974D01*
X10182D02*
X10240D01*
X10302D02*
X10326D01*
X8700Y8222D02*
X8577D01*
X8762D02*
X8778D01*
X8946D02*
X8972D01*
X9352D02*
X9581D01*
X9862D02*
X9912D01*
X9936D01*
X9974D01*
X10182D02*
X10240D01*
X10302D02*
X10326D01*
X10614D02*
X10686D01*
X10746D02*
X10755D01*
X10856D02*
X10870D01*
X10932D02*
X10942D01*
X8700Y8228D02*
X8577D01*
X8762D02*
X8779D01*
X8946D02*
X8972D01*
X9352D02*
X9582D01*
X9912D02*
X9936D01*
X10182D02*
X10240D01*
X10302D02*
X10326D01*
X10613D02*
X10686D01*
X10694D01*
X10746D02*
X10755D01*
X10856D02*
X10870D01*
X10922D02*
X10932D01*
X10944D01*
X8700Y8234D02*
X8577D01*
X8762D02*
X8780D01*
X8946D02*
X8972D01*
X9352D02*
X9583D01*
X9912D02*
X9936D01*
X10182D02*
X10240D01*
X10302D02*
X10326D01*
X10612D02*
X10686D01*
X10746D01*
X10755D01*
X10856D02*
X10870D01*
X10932D01*
X10944D01*
X8700Y8240D02*
X8577D01*
X8762D02*
X8783D01*
X8946D02*
X8972D01*
X9352D02*
X9585D01*
X9912D02*
X9936D01*
X10182D02*
X10240D01*
X10302D02*
X10326D01*
X10610D02*
X10686D01*
X10746D01*
X10755D01*
X10856D02*
X10870D01*
X10932D01*
X10944D01*
X8700Y8246D02*
X8577D01*
X8765D02*
X8786D01*
X8946D02*
X8972D01*
X9352D02*
X9587D01*
X9912D02*
X9936D01*
X10182D02*
X10240D01*
X10302D02*
X10326D01*
X10608D02*
X10761D01*
X10850D02*
X10944D01*
X8700Y8252D02*
X8577D01*
X8771D02*
X8788D01*
X8946D02*
X8972D01*
X9352D02*
X9590D01*
X9912D02*
X9936D01*
X10182D02*
X10240D01*
X10302D02*
X10326D01*
X10605D02*
X10761D01*
X10850D02*
X10944D01*
X8700Y8258D02*
X8577D01*
X8777D02*
X8785D01*
X8946D02*
X8972D01*
X9352D02*
X9593D01*
X9912D02*
X9936D01*
X10182D02*
X10240D01*
X10302D02*
X10326D01*
X10353D01*
X10602D02*
X10761D01*
X10850D02*
X10944D01*
X8700Y8264D02*
X8577D01*
X8700D02*
X8729D01*
X8946D02*
X8972D01*
X9352D02*
X9597D01*
X9912D02*
X9936D01*
X10185D02*
X10206D01*
X10240D01*
X10403D02*
X10410D01*
X10598D02*
X10761D01*
X10850D02*
X10944D01*
X8700Y8270D02*
X8577D01*
X8700D02*
X8735D01*
X8946D02*
X8972D01*
X9352D02*
X9601D01*
X9912D02*
X9936D01*
X10191D02*
X10206D01*
X10240D01*
X10397D02*
X10410D01*
X10594D02*
X10755D01*
X10856D02*
X10944D01*
X8700Y8276D02*
X8577D01*
X8700D02*
X8740D01*
X8946D02*
X8972D01*
X9352D02*
X9605D01*
X9912D02*
X9936D01*
X10052D02*
X10066D01*
X10197D02*
X10206D01*
X10240D01*
X10391D02*
X10410D01*
X10420D01*
X10590D02*
X10755D01*
X10856D02*
X10944D01*
X8746Y8282D02*
X8577D01*
X8946D02*
X8972D01*
X9352D02*
X9532D01*
X9570D01*
X9611D01*
X9918D02*
X9936D01*
X10052D02*
X10066D01*
X10206D02*
X10240D01*
X10385D02*
X10426D01*
X10584D02*
X10600D01*
X10656D01*
X10662D02*
X10716D01*
X10755D01*
X10856D02*
X10944D01*
X8726Y8288D02*
X8577D01*
X8726D02*
X8751D01*
X8946D02*
X8969D01*
X9296D02*
X9352D01*
X9532D01*
X9570D01*
X9617D01*
X9912D02*
X9924D01*
X9936D01*
X9936D02*
X9970D01*
X10015D02*
X10052D01*
X10066D01*
X10076D01*
X10209D02*
X10240D01*
X10379D02*
X10432D01*
X10578D02*
X10600D01*
X10656D01*
X10662D02*
X10672D01*
X10716D01*
X10755D01*
X10856D02*
X10944D01*
X8726Y8294D02*
X8577D01*
X8726D02*
X8757D01*
X8936D02*
X8946D01*
X8966D01*
X10052D02*
X10066D01*
X10206D02*
X10213D01*
X10240D01*
X10376D02*
X10440D01*
X10570D02*
X10600D01*
X10716D02*
X10755D01*
X10856D02*
X10944D01*
X8726Y8300D02*
X8577D01*
X8936D02*
X8946D01*
X8964D01*
X10052D02*
X10066D01*
X10207D02*
X10240D01*
X10367D02*
X10376D01*
X10449D01*
X10561D02*
X10600D01*
X10856D02*
X10944D01*
X8726Y8306D02*
X8577D01*
X8936D02*
X8964D01*
X10052D02*
X10066D01*
X10206D02*
X10240D01*
X10302D02*
X10351D01*
X10361D01*
X10376D01*
X10460D01*
X10550D02*
X10600D01*
X10856D02*
X10944D01*
X8726Y8312D02*
X8577D01*
X8936D02*
X8965D01*
X10052D02*
X10066D01*
X10206D02*
X10240D01*
X10302D02*
X10376D01*
X10477D01*
X10533D02*
X10600D01*
X10856D02*
X10944D01*
X8726Y8318D02*
X8577D01*
X8939D02*
X8968D01*
X10052D02*
X10066D01*
X10206D02*
X10240D01*
X10302D01*
X10600D01*
X10856D02*
X10944D01*
X8726Y8324D02*
X8577D01*
X8936D02*
X8943D01*
X8972D01*
X10052D02*
X10066D01*
X10206D02*
X10240D01*
X10302D01*
X10600D01*
X10856D02*
X10944D01*
X8726Y8330D02*
X8577D01*
X8937D02*
X8972D01*
X8982D01*
X10052D02*
X10066D01*
X10206D02*
X10600D01*
X10856D02*
X10944D01*
X8726Y8336D02*
X8577D01*
X8936D02*
X8972D01*
X9002D01*
X10056D02*
X10066D01*
X10206D02*
X10600D01*
X10856D02*
X10944D01*
X8726Y8342D02*
X8577D01*
X8925D02*
X8936D01*
X9002D01*
X10056D02*
X10066D01*
X10206D02*
X10600D01*
X10716D02*
X10755D01*
X10856D02*
X10944D01*
X8726Y8348D02*
X8577D01*
X8922D02*
X8936D01*
X8950D01*
X9002D01*
X9229D02*
X9236D01*
X9238D02*
X9250D01*
X10056D02*
X10066D01*
X10206D02*
X10222D01*
X10251D01*
X10322D01*
X10351D01*
X10422D01*
X10451D01*
X10522D01*
X10551D01*
X10600D01*
X10722D02*
X10751D01*
X10755D02*
X10774D01*
X10794D01*
X10797D02*
X10814D01*
X10856D02*
X10944D01*
X8726Y8354D02*
X8577D01*
X8914D02*
X8922D01*
X8936D01*
X8950D01*
X9002D01*
X9206D02*
X9222D01*
X9226D02*
X9236D01*
X9244D01*
X9951D02*
X9986D01*
X10056D02*
X10066D01*
X10076D01*
X10116D01*
X10206D02*
X10222D01*
X10251D01*
X10322D01*
X10351D01*
X10422D01*
X10451D01*
X10522D01*
X10551D01*
X10600D01*
X10622D01*
X10651D01*
X10662D02*
X10716D01*
X10722D02*
X10751D01*
X10755D02*
X10774D01*
X10794D01*
X10797D02*
X10812D01*
X10870D02*
X10944D01*
X8726Y8360D02*
X8577D01*
X8726D02*
X8780D01*
X8786D02*
X8815D01*
X8913D02*
X8922D01*
X8950D01*
X9226D02*
X9236D01*
X9250D01*
X10222D02*
X10251D01*
X10322D02*
X10351D01*
X10422D02*
X10451D01*
X10522D02*
X10551D01*
X10622D02*
X10651D01*
X10722D02*
X10751D01*
X10877D02*
X10944D01*
X8726Y8366D02*
X8577D01*
X8726D02*
X8780D01*
X8786D02*
X8816D01*
X8922D02*
X8950D01*
X9222D02*
X9250D01*
X10222D02*
X10251D01*
X10322D02*
X10351D01*
X10422D02*
X10451D01*
X10522D02*
X10551D01*
X10622D02*
X10651D01*
X10722D02*
X10751D01*
X10881D02*
X10944D01*
X8816Y8372D02*
X8577D01*
X8816D02*
X8826D01*
X8922D02*
X8950D01*
X9222D02*
X9250D01*
X9943D02*
X9951D01*
X10222D02*
X10251D01*
X10322D02*
X10351D01*
X10422D02*
X10451D01*
X10522D02*
X10551D01*
X10622D02*
X10651D01*
X10722D02*
X10751D01*
X10883D02*
X10944D01*
X8816Y8378D02*
X8577D01*
X8816D02*
X8826D01*
X8839D02*
X8850D01*
X8922D02*
X8950D01*
X9222D02*
X9250D01*
X9322D02*
X9350D01*
X9936D02*
X9951D01*
X10222D02*
X10251D01*
X10322D02*
X10351D01*
X10422D02*
X10451D01*
X10522D02*
X10551D01*
X10622D02*
X10651D01*
X10722D02*
X10751D01*
X10884D02*
X10944D01*
X8816Y8384D02*
X8577D01*
X8816D02*
X8826D01*
X8850D01*
X8922D02*
X8950D01*
X9222D02*
X9250D01*
X9322D02*
X9350D01*
X9922D02*
X9951D01*
X10222D02*
X10251D01*
X10322D02*
X10351D01*
X10422D02*
X10451D01*
X10522D02*
X10551D01*
X10622D02*
X10651D01*
X10722D02*
X10751D01*
X10883D02*
X10944D01*
X8850Y8390D02*
X8577D01*
X8922D02*
X8950D01*
X9222D02*
X9250D01*
X9322D02*
X9350D01*
X9922D02*
X9951D01*
X10222D02*
X10251D01*
X10322D02*
X10351D01*
X10422D02*
X10451D01*
X10522D02*
X10551D01*
X10622D02*
X10651D01*
X10722D02*
X10751D01*
X10822D02*
X10831D01*
X10881D02*
X10944D01*
X9322Y8416D02*
X9286D01*
X9250D01*
X10786D02*
X10822D01*
X10786D02*
X10751D01*
X10751Y8473D02*
X10822D01*
X10722D02*
X10651D01*
X10622D02*
X10551D01*
X10522D02*
X10451D01*
X10422D02*
X10351D01*
X10322D02*
X10251D01*
X10222D02*
X10156D01*
X10116D02*
X10056D01*
X9966D02*
X9951D01*
X9866D02*
X9858D01*
X9906D02*
X9922D01*
X9766D02*
X9758D01*
X9806D02*
X9816D01*
X9360D02*
X9350D01*
X9302D02*
X9250D01*
X9302D02*
X9322D01*
X9222D02*
X9170D01*
X8968D02*
X8950D01*
X8922D02*
X8850D01*
X10194Y8538D02*
X10206D01*
X10128Y8528D02*
X10116D01*
X9606Y8570D02*
X9595D01*
X9314Y8564D02*
X9302D01*
X8979Y8568D02*
X8968D01*
X9589Y8564D02*
X9606D01*
X9649D01*
X8850Y8396D02*
X8577D01*
X8922D02*
X8950D01*
X9222D02*
X9250D01*
X9322D02*
X9350D01*
X9922D02*
X9951D01*
X10222D02*
X10251D01*
X10322D02*
X10351D01*
X10422D02*
X10451D01*
X10522D02*
X10551D01*
X10622D02*
X10651D01*
X10722D02*
X10751D01*
X10822D02*
X10835D01*
X10877D02*
X10944D01*
X8850Y8402D02*
X8577D01*
X8922D02*
X8950D01*
X9222D02*
X9250D01*
X9322D02*
X9350D01*
X9922D02*
X9951D01*
X10222D02*
X10251D01*
X10322D02*
X10351D01*
X10422D02*
X10451D01*
X10522D02*
X10551D01*
X10622D02*
X10651D01*
X10722D02*
X10751D01*
X10822D02*
X10842D01*
X10870D02*
X10944D01*
X8664Y8408D02*
X8577D01*
X8725D02*
X8850D01*
X8922D02*
X8950D01*
X9222D02*
X9250D01*
X9322D02*
X9350D01*
X9922D02*
X9951D01*
X10222D02*
X10251D01*
X10322D02*
X10351D01*
X10422D02*
X10451D01*
X10522D02*
X10551D01*
X10622D02*
X10651D01*
X10722D02*
X10751D01*
X10822D02*
X10944D01*
X8645Y8414D02*
X8577D01*
X8744D02*
X8850D01*
X8922D02*
X8950D01*
X9222D02*
X9250D01*
X9322D02*
X9350D01*
X9922D02*
X9951D01*
X10222D02*
X10251D01*
X10322D02*
X10351D01*
X10422D02*
X10451D01*
X10522D02*
X10551D01*
X10622D02*
X10651D01*
X10722D02*
X10751D01*
X10822D02*
X10929D01*
X8632Y8420D02*
X8577D01*
X8757D02*
X8850D01*
X8922D02*
X8950D01*
X9222D02*
X9250D01*
X9322D02*
X9350D01*
X9922D02*
X9951D01*
X10222D02*
X10251D01*
X10322D02*
X10351D01*
X10422D02*
X10451D01*
X10522D02*
X10551D01*
X10622D02*
X10651D01*
X10722D02*
X10751D01*
X10822D02*
X10916D01*
X8622Y8426D02*
X8577D01*
X8768D02*
X8850D01*
X8922D02*
X8950D01*
X9222D02*
X9250D01*
X9322D02*
X9350D01*
X9922D02*
X9951D01*
X10222D02*
X10251D01*
X10322D02*
X10351D01*
X10422D02*
X10451D01*
X10522D02*
X10551D01*
X10622D02*
X10651D01*
X10722D02*
X10751D01*
X10822D02*
X10906D01*
X8614Y8432D02*
X8577D01*
X8776D02*
X8850D01*
X8922D02*
X8950D01*
X9222D02*
X9250D01*
X9322D02*
X9350D01*
X9922D02*
X9951D01*
X10222D02*
X10251D01*
X10322D02*
X10351D01*
X10422D02*
X10451D01*
X10522D02*
X10551D01*
X10622D02*
X10651D01*
X10722D02*
X10751D01*
X10822D02*
X10897D01*
X8606Y8438D02*
X8577D01*
X8783D02*
X8850D01*
X8922D02*
X8950D01*
X9222D02*
X9250D01*
X9322D02*
X9350D01*
X9922D02*
X9951D01*
X10222D02*
X10251D01*
X10322D02*
X10351D01*
X10422D02*
X10451D01*
X10522D02*
X10551D01*
X10622D02*
X10651D01*
X10722D02*
X10751D01*
X10822D02*
X10890D01*
X8600Y8444D02*
X8577D01*
X8790D02*
X8850D01*
X8922D02*
X8950D01*
X9222D02*
X9250D01*
X9322D02*
X9350D01*
X9922D02*
X9951D01*
X10222D02*
X10251D01*
X10322D02*
X10351D01*
X10422D02*
X10451D01*
X10522D02*
X10551D01*
X10622D02*
X10651D01*
X10722D02*
X10751D01*
X10822D02*
X10883D01*
X8594Y8450D02*
X8577D01*
X8795D02*
X8850D01*
X8922D02*
X8950D01*
X9222D02*
X9250D01*
X9322D02*
X9350D01*
X9922D02*
X9951D01*
X10222D02*
X10251D01*
X10322D02*
X10351D01*
X10422D02*
X10451D01*
X10522D02*
X10551D01*
X10622D02*
X10651D01*
X10722D02*
X10751D01*
X10822D02*
X10878D01*
X8589Y8456D02*
X8577D01*
X8800D02*
X8850D01*
X8922D02*
X8950D01*
X9222D02*
X9250D01*
X9322D02*
X9350D01*
X9922D02*
X9951D01*
X10222D02*
X10251D01*
X10322D02*
X10351D01*
X10422D02*
X10451D01*
X10522D02*
X10551D01*
X10622D02*
X10651D01*
X10722D02*
X10751D01*
X10822D02*
X10873D01*
X8585Y8462D02*
X8577D01*
X8805D02*
X8850D01*
X8922D02*
X8950D01*
X9222D02*
X9250D01*
X9322D02*
X9350D01*
X9922D02*
X9951D01*
X10222D02*
X10251D01*
X10322D02*
X10351D01*
X10422D02*
X10451D01*
X10522D02*
X10551D01*
X10622D02*
X10651D01*
X10722D02*
X10751D01*
X10822D02*
X10868D01*
X8850Y8468D02*
X8809D01*
X8922D02*
X8950D01*
X9222D02*
X9250D01*
X9322D02*
X9350D01*
X9922D02*
X9951D01*
X10222D02*
X10251D01*
X10322D02*
X10351D01*
X10422D02*
X10451D01*
X10522D02*
X10551D01*
X10622D02*
X10651D01*
X10722D02*
X10751D01*
X10822D02*
X10865D01*
X8850Y8474D02*
X8812D01*
X8850D02*
X8922D01*
X8950D01*
X8968D01*
X9170D02*
X9222D01*
X9250D01*
X9302D01*
X9322D01*
X9338D01*
X9342D02*
X9350D01*
X9359D01*
X9757D02*
X9766D01*
X9806D02*
X9817D01*
X9857D02*
X9866D01*
X9906D02*
X9922D01*
X9951D01*
X9966D01*
X10056D02*
X10116D01*
X10156D02*
X10222D01*
X10251D01*
X10322D01*
X10351D01*
X10422D01*
X10451D01*
X10522D01*
X10551D01*
X10622D01*
X10651D01*
X10722D01*
X10751D01*
X10822D01*
X10861D01*
X8850Y8480D02*
X8815D01*
X8850D02*
X8922D01*
X8950D01*
X8968D01*
X9170D02*
X9222D01*
X9250D01*
X9302D01*
X9756D02*
X9766D01*
X9806D02*
X9818D01*
X9856D02*
X9866D01*
X9906D02*
X9922D01*
X9951D01*
X9966D01*
X10056D02*
X10116D01*
X10156D02*
X10222D01*
X10251D01*
X10322D01*
X10351D01*
X10422D01*
X10451D01*
X10522D01*
X10551D01*
X10622D01*
X10651D01*
X10722D01*
X10751D01*
X10822D01*
X10858D01*
X8968Y8486D02*
X8818D01*
X9170D02*
X9301D01*
X9756D02*
X9766D01*
X9806D02*
X9818D01*
X9856D02*
X9866D01*
X9906D02*
X9966D01*
X10056D02*
X10116D01*
X10156D02*
X10855D01*
X8968Y8492D02*
X8820D01*
X9170D02*
X9297D01*
X9756D02*
X9766D01*
X9806D02*
X9818D01*
X9856D02*
X9866D01*
X9906D02*
X9966D01*
X10056D02*
X10116D01*
X10156D02*
X10853D01*
X8916Y8498D02*
X8822D01*
X8956D02*
X8968D01*
X9170D02*
X9295D01*
X9756D02*
X9766D01*
X9806D02*
X9818D01*
X9856D02*
X9866D01*
X9906D02*
X9966D01*
X10056D02*
X10116D01*
X10156D02*
X10716D01*
X10756D02*
X10851D01*
X8907Y8504D02*
X8824D01*
X9170D02*
X9294D01*
X9756D02*
X9766D01*
X9806D02*
X9818D01*
X9856D02*
X9866D01*
X9906D02*
X9966D01*
X10056D02*
X10112D01*
X10160D02*
X10707D01*
X10765D02*
X10849D01*
X8901Y8510D02*
X8825D01*
X9170D02*
X9295D01*
X9756D02*
X9766D01*
X9806D02*
X9818D01*
X9856D02*
X9866D01*
X9906D02*
X9966D01*
X10056D02*
X10110D01*
X10166D02*
X10701D01*
X10771D02*
X10848D01*
X8897Y8516D02*
X8827D01*
X9170D02*
X9297D01*
X9756D02*
X9766D01*
X9806D02*
X9818D01*
X9856D02*
X9864D01*
X9908D02*
X9966D01*
X10056D02*
X10116D01*
X10172D02*
X10697D01*
X10775D02*
X10847D01*
X8894Y8522D02*
X8827D01*
X9170D02*
X9301D01*
X9756D02*
X9766D01*
X9806D02*
X9818D01*
X9912D02*
X9966D01*
X10056D02*
X10116D01*
X10178D02*
X10695D01*
X10778D02*
X10846D01*
X8892Y8528D02*
X8828D01*
X9170D02*
X9302D01*
X9756D02*
X9766D01*
X9806D02*
X9818D01*
X9914D02*
X9966D01*
X10056D02*
X10116D01*
X10128D01*
X10184D02*
X10206D01*
X10693D01*
X10780D02*
X10845D01*
X8892Y8534D02*
X8828D01*
X9170D02*
X9302D01*
X9756D02*
X9766D01*
X9806D02*
X9818D01*
X9914D02*
X9966D01*
X10056D02*
X10116D01*
X10134D01*
X10190D02*
X10206D01*
X10692D01*
X10781D02*
X10845D01*
X8891Y8540D02*
X8828D01*
X9170D02*
X9298D01*
X9756D02*
X9765D01*
X9807D02*
X9818D01*
X9913D02*
X9966D01*
X10056D02*
X10116D01*
X10140D01*
X10196D02*
X10206D01*
X10692D01*
X10781D02*
X10845D01*
X8892Y8546D02*
X8828D01*
X9170D02*
X9296D01*
X9911D02*
X9959D01*
X10056D02*
X10146D01*
X10206D02*
X10692D01*
X10780D02*
X10845D01*
X8894Y8552D02*
X8828D01*
X9170D02*
X9302D01*
X9856D02*
X9865D01*
X9907D02*
X9947D01*
X10056D02*
X10152D01*
X10208D02*
X10694D01*
X10778D02*
X10845D01*
X8896Y8558D02*
X8827D01*
X9170D02*
X9302D01*
X9856D02*
X9866D01*
X9906D02*
X9942D01*
X10056D02*
X10158D01*
X10206D02*
X10214D01*
X10697D01*
X10776D02*
X10846D01*
X8900Y8564D02*
X8826D01*
X9170D02*
X9302D01*
X9314D01*
X9590D02*
X9606D01*
X9649D01*
X9856D02*
X9866D01*
X9906D01*
X9939D01*
X10056D02*
X10164D01*
X10208D02*
X10700D01*
X10772D02*
X10847D01*
X8905Y8570D02*
X8825D01*
X8968D02*
X8980D01*
X9170D02*
X9302D01*
X9320D01*
X9596D02*
X9606D01*
X9655D01*
X9856D02*
X9938D01*
X10056D02*
X10166D01*
X10206D02*
X10705D01*
X10767D02*
X10849D01*
X8913Y8576D02*
X8823D01*
X8959D02*
X8968D01*
X8986D01*
X9170D02*
X9302D01*
X9326D01*
X9606D02*
X9661D01*
X9756D02*
X9765D01*
X9807D02*
X9818D01*
X9856D02*
X9938D01*
X10056D02*
X10166D01*
X10206D02*
X10713D01*
X10759D02*
X10850D01*
X8930Y8582D02*
X8821D01*
X8942D02*
X8992D01*
X9174D02*
X9328D01*
X9608D02*
X9662D01*
X9756D02*
X9766D01*
X9806D02*
X9818D01*
X9856D02*
X9939D01*
X10056D02*
X10166D01*
X10206D02*
X10731D01*
X10741D02*
X10852D01*
X10887Y8679D02*
X10922D01*
X10887D02*
X10852D01*
X9957Y8748D02*
X9916D01*
X8712Y8728D02*
X8666D01*
X8620D01*
X9086Y8661D02*
X9122D01*
X9486D02*
X9521D01*
X9486D02*
X9450D01*
X10286D02*
X10321D01*
X10286D02*
X10250D01*
X10486D02*
X10521D01*
X10486D02*
X10450D01*
X10750Y8718D02*
X10793D01*
X10821Y8604D02*
X10750D01*
X10722Y8718D02*
X10651D01*
Y8604D02*
X10722D01*
X10622Y8718D02*
X10550D01*
Y8604D02*
X10622D01*
X10521Y8718D02*
X10450D01*
Y8604D02*
X10521D01*
X10422Y8718D02*
X10351D01*
Y8604D02*
X10422D01*
X10321Y8718D02*
X10250D01*
Y8604D02*
X10321D01*
X10222Y8718D02*
X10151D01*
Y8604D02*
X10166D01*
X10206D02*
X10222D01*
X10122Y8718D02*
X10063D01*
X10056Y8604D02*
X10122D01*
X9959D02*
X9950D01*
X9922Y8718D02*
X9864D01*
X9856Y8604D02*
X9922D01*
X9810Y8718D02*
X9758D01*
X9756Y8604D02*
X9818D01*
X9716Y8718D02*
X9650D01*
Y8604D02*
X9662D01*
X9622Y8718D02*
X9550D01*
Y8604D02*
X9568D01*
X9606D02*
X9622D01*
X9521Y8718D02*
X9450D01*
Y8604D02*
X9521D01*
X9421Y8718D02*
X9350D01*
Y8604D02*
X9421D01*
X9321Y8718D02*
X9250D01*
Y8604D02*
X9321D01*
X9221Y8718D02*
X9163D01*
X9178Y8604D02*
X9221D01*
X9121Y8718D02*
X9064D01*
X9010D02*
X9009D01*
X9014Y8604D02*
X8950D01*
X8850Y8718D02*
X8846D01*
X8850D02*
X8863D01*
X8850Y8604D02*
X8921D01*
X8712Y8774D02*
X8642D01*
X8620Y8682D02*
X8712D01*
X8756Y8774D02*
X8809D01*
X8846Y8682D02*
X8756D01*
X8846D02*
X8850D01*
X10844Y8644D02*
X10897D01*
X10817Y8766D02*
X10814D01*
X10831D02*
X10844D01*
X9920D02*
X9009D01*
X10072D02*
X10817D01*
X10831D01*
X8950Y8640D02*
X8921D01*
X10814Y8738D02*
X10818D01*
X10830Y8700D02*
X10844D01*
X10802Y8738D02*
X10799D01*
X10802D02*
X10814D01*
X10818D01*
X10830D01*
X10844D01*
X9339Y8588D02*
X9328D01*
X9339D02*
X9355D01*
X9559D01*
X8998Y8588D02*
X8819D01*
X9177D02*
X9328D01*
X9338D01*
X9606D02*
X9614D01*
X9662D01*
X9756D02*
X9766D01*
X9806D01*
X9818D01*
X9856D02*
X9942D01*
X10056D02*
X10166D01*
X10206D02*
X10854D01*
X8850Y8594D02*
X8816D01*
X8850D02*
X8921D01*
X8950D01*
X9004D01*
X9179D02*
X9221D01*
X9250D01*
X9321D01*
X9328D02*
X9344D01*
X9350D02*
X9421D01*
X9450D01*
X9521D01*
X9550D01*
X9564D01*
X9610D02*
X9622D01*
X9650D01*
X9662D01*
X9756D02*
X9818D01*
X9856D02*
X9922D01*
X9947D01*
X10056D02*
X10122D01*
X10151D01*
X10166D01*
X10206D02*
X10222D01*
X10250D01*
X10321D01*
X10351D01*
X10422D01*
X10450D01*
X10521D01*
X10550D01*
X10622D01*
X10651D01*
X10722D01*
X10750D01*
X10821D01*
X10857D01*
X8850Y8600D02*
X8813D01*
X8850D02*
X8921D01*
X8950D01*
X9010D01*
X9179D02*
X9221D01*
X9250D01*
X9321D01*
X9328D02*
X9350D01*
X9421D01*
X9450D01*
X9521D01*
X9550D01*
X9568D01*
X9606D02*
X9622D01*
X9650D01*
X9662D01*
X9756D02*
X9818D01*
X9856D02*
X9922D01*
X9950D01*
X9958D01*
X10056D02*
X10122D01*
X10151D01*
X10166D01*
X10206D02*
X10222D01*
X10250D01*
X10321D01*
X10351D01*
X10422D01*
X10450D01*
X10521D01*
X10550D01*
X10622D01*
X10651D01*
X10722D01*
X10750D01*
X10821D01*
X10860D01*
X8850Y8606D02*
X8810D01*
X8921D02*
X8950D01*
X9221D02*
X9250D01*
X9321D02*
X9350D01*
X9421D02*
X9450D01*
X9521D02*
X9550D01*
X9622D02*
X9650D01*
X9922D02*
X9950D01*
X10122D02*
X10151D01*
X10222D02*
X10250D01*
X10321D02*
X10351D01*
X10422D02*
X10450D01*
X10521D02*
X10550D01*
X10622D02*
X10651D01*
X10722D02*
X10750D01*
X10821D02*
X10863D01*
X8850Y8612D02*
X8806D01*
X8921D02*
X8950D01*
X9221D02*
X9250D01*
X9321D02*
X9350D01*
X9421D02*
X9450D01*
X9521D02*
X9550D01*
X9622D02*
X9650D01*
X9922D02*
X9950D01*
X10122D02*
X10151D01*
X10222D02*
X10250D01*
X10321D02*
X10351D01*
X10422D02*
X10450D01*
X10521D02*
X10550D01*
X10622D02*
X10651D01*
X10722D02*
X10750D01*
X10821D02*
X10867D01*
X8588Y8618D02*
X8577D01*
X8802D02*
X8850D01*
X8921D02*
X8950D01*
X9221D02*
X9250D01*
X9321D02*
X9350D01*
X9421D02*
X9450D01*
X9521D02*
X9550D01*
X9622D02*
X9650D01*
X9922D02*
X9950D01*
X10122D02*
X10151D01*
X10222D02*
X10250D01*
X10321D02*
X10351D01*
X10422D02*
X10450D01*
X10521D02*
X10550D01*
X10622D02*
X10651D01*
X10722D02*
X10750D01*
X10821D02*
X10871D01*
X8592Y8624D02*
X8577D01*
X8797D02*
X8850D01*
X8921D02*
X8950D01*
X9221D02*
X9250D01*
X9321D02*
X9350D01*
X9421D02*
X9450D01*
X9521D02*
X9550D01*
X9622D02*
X9650D01*
X9922D02*
X9950D01*
X10122D02*
X10151D01*
X10222D02*
X10250D01*
X10321D02*
X10351D01*
X10422D02*
X10450D01*
X10521D02*
X10550D01*
X10622D02*
X10651D01*
X10722D02*
X10750D01*
X10821D02*
X10876D01*
X8598Y8630D02*
X8577D01*
X8792D02*
X8850D01*
X8921D02*
X8950D01*
X9221D02*
X9250D01*
X9321D02*
X9350D01*
X9421D02*
X9450D01*
X9521D02*
X9550D01*
X9622D02*
X9650D01*
X9922D02*
X9950D01*
X10122D02*
X10151D01*
X10222D02*
X10250D01*
X10321D02*
X10351D01*
X10422D02*
X10450D01*
X10521D02*
X10550D01*
X10622D02*
X10651D01*
X10722D02*
X10750D01*
X10821D02*
X10881D01*
X8604Y8636D02*
X8577D01*
X8786D02*
X8850D01*
X8921D02*
X8950D01*
X9221D02*
X9250D01*
X9321D02*
X9350D01*
X9421D02*
X9450D01*
X9521D02*
X9550D01*
X9622D02*
X9650D01*
X9922D02*
X9950D01*
X10122D02*
X10151D01*
X10222D02*
X10250D01*
X10321D02*
X10351D01*
X10422D02*
X10450D01*
X10521D02*
X10550D01*
X10622D02*
X10651D01*
X10722D02*
X10750D01*
X10821D02*
X10844D01*
X10887D01*
X8611Y8642D02*
X8577D01*
X8779D02*
X8850D01*
X9221D02*
X9250D01*
X9321D02*
X9350D01*
X9421D02*
X9450D01*
X9521D02*
X9550D01*
X9622D02*
X9650D01*
X9922D02*
X9950D01*
X10122D02*
X10151D01*
X10222D02*
X10250D01*
X10321D02*
X10351D01*
X10422D02*
X10450D01*
X10521D02*
X10550D01*
X10622D02*
X10651D01*
X10722D02*
X10750D01*
X10821D02*
X10844D01*
X10894D01*
X8619Y8648D02*
X8577D01*
X8771D02*
X8850D01*
X9221D02*
X9250D01*
X9321D02*
X9350D01*
X9421D02*
X9450D01*
X9521D02*
X9550D01*
X9622D02*
X9650D01*
X9922D02*
X9950D01*
X10122D02*
X10151D01*
X10222D02*
X10250D01*
X10321D02*
X10351D01*
X10422D02*
X10450D01*
X10521D02*
X10550D01*
X10622D02*
X10651D01*
X10722D02*
X10750D01*
X10821D02*
X10844D01*
X8628Y8654D02*
X8577D01*
X8761D02*
X8850D01*
X9221D02*
X9250D01*
X9321D02*
X9350D01*
X9421D02*
X9450D01*
X9521D02*
X9550D01*
X9622D02*
X9650D01*
X9922D02*
X9950D01*
X10122D02*
X10151D01*
X10222D02*
X10250D01*
X10321D02*
X10351D01*
X10422D02*
X10450D01*
X10521D02*
X10550D01*
X10622D02*
X10651D01*
X10722D02*
X10750D01*
X10821D02*
X10844D01*
X8640Y8660D02*
X8577D01*
X8749D02*
X8850D01*
X9221D02*
X9250D01*
X9321D02*
X9350D01*
X9421D02*
X9450D01*
X9521D02*
X9550D01*
X9622D02*
X9650D01*
X9922D02*
X9950D01*
X10122D02*
X10151D01*
X10222D02*
X10250D01*
X10321D02*
X10351D01*
X10422D02*
X10450D01*
X10521D02*
X10550D01*
X10622D02*
X10651D01*
X10722D02*
X10750D01*
X10821D02*
X10844D01*
X8656Y8666D02*
X8577D01*
X8733D02*
X8850D01*
X9221D02*
X9250D01*
X9321D02*
X9350D01*
X9421D02*
X9450D01*
X9521D02*
X9550D01*
X9622D02*
X9650D01*
X9922D02*
X9950D01*
X10122D02*
X10151D01*
X10222D02*
X10250D01*
X10321D02*
X10351D01*
X10422D02*
X10450D01*
X10521D02*
X10550D01*
X10622D02*
X10651D01*
X10722D02*
X10750D01*
X10821D02*
X10844D01*
X8620Y8672D02*
X8577D01*
X8620D02*
X8712D01*
X8756D01*
X8846D01*
X9221D02*
X9250D01*
X9321D02*
X9350D01*
X9421D02*
X9450D01*
X9521D02*
X9550D01*
X9622D02*
X9650D01*
X9922D02*
X9950D01*
X10122D02*
X10151D01*
X10222D02*
X10250D01*
X10321D02*
X10351D01*
X10422D02*
X10450D01*
X10521D02*
X10550D01*
X10622D02*
X10651D01*
X10722D02*
X10750D01*
X10821D02*
X10844D01*
X8620Y8678D02*
X8577D01*
X8620D02*
X8712D01*
X8756D01*
X8846D01*
X9221D02*
X9250D01*
X9321D02*
X9350D01*
X9421D02*
X9450D01*
X9521D02*
X9550D01*
X9622D02*
X9650D01*
X9922D02*
X9950D01*
X10122D02*
X10151D01*
X10222D02*
X10250D01*
X10321D02*
X10351D01*
X10422D02*
X10450D01*
X10521D02*
X10550D01*
X10622D02*
X10651D01*
X10722D02*
X10750D01*
X10821D02*
X10844D01*
X8620Y8684D02*
X8577D01*
X8712D02*
X8756D01*
X9221D02*
X9250D01*
X9321D02*
X9350D01*
X9421D02*
X9450D01*
X9521D02*
X9550D01*
X9622D02*
X9650D01*
X9922D02*
X9950D01*
X10122D02*
X10151D01*
X10222D02*
X10250D01*
X10321D02*
X10351D01*
X10422D02*
X10450D01*
X10521D02*
X10550D01*
X10622D02*
X10651D01*
X10722D02*
X10750D01*
X10821D02*
X10844D01*
X8620Y8690D02*
X8577D01*
X8712D02*
X8756D01*
X9221D02*
X9250D01*
X9321D02*
X9350D01*
X9421D02*
X9450D01*
X9521D02*
X9550D01*
X9622D02*
X9650D01*
X9922D02*
X9950D01*
X10122D02*
X10151D01*
X10222D02*
X10250D01*
X10321D02*
X10351D01*
X10422D02*
X10450D01*
X10521D02*
X10550D01*
X10622D02*
X10651D01*
X10722D02*
X10750D01*
X10821D02*
X10844D01*
X8620Y8696D02*
X8577D01*
X8712D02*
X8756D01*
X9221D02*
X9250D01*
X9321D02*
X9350D01*
X9421D02*
X9450D01*
X9521D02*
X9550D01*
X9622D02*
X9650D01*
X9922D02*
X9950D01*
X10122D02*
X10151D01*
X10222D02*
X10250D01*
X10321D02*
X10351D01*
X10422D02*
X10450D01*
X10521D02*
X10550D01*
X10622D02*
X10651D01*
X10722D02*
X10750D01*
X10827D02*
X10844D01*
X8620Y8702D02*
X8577D01*
X8712D02*
X8756D01*
X9221D02*
X9250D01*
X9321D02*
X9350D01*
X9421D02*
X9450D01*
X9521D02*
X9550D01*
X9622D02*
X9650D01*
X9922D02*
X9950D01*
X10122D02*
X10151D01*
X10222D02*
X10250D01*
X10321D02*
X10351D01*
X10422D02*
X10450D01*
X10521D02*
X10550D01*
X10622D02*
X10651D01*
X10722D02*
X10750D01*
X8620Y8708D02*
X8577D01*
X8712D02*
X8756D01*
X9221D02*
X9250D01*
X9321D02*
X9350D01*
X9421D02*
X9450D01*
X9521D02*
X9550D01*
X9622D02*
X9650D01*
X9922D02*
X9948D01*
X10122D02*
X10151D01*
X10222D02*
X10250D01*
X10321D02*
X10351D01*
X10422D02*
X10450D01*
X10521D02*
X10550D01*
X10622D02*
X10651D01*
X10722D02*
X10750D01*
X8620Y8714D02*
X8582D01*
X8712D02*
X8756D01*
X9221D02*
X9250D01*
X9321D02*
X9350D01*
X9421D02*
X9450D01*
X9521D02*
X9550D01*
X9622D02*
X9650D01*
X9922D02*
X9934D01*
X10122D02*
X10151D01*
X10222D02*
X10250D01*
X10321D02*
X10351D01*
X10422D02*
X10450D01*
X10521D02*
X10550D01*
X10622D02*
X10651D01*
X10722D02*
X10750D01*
X8620Y8720D02*
X8588D01*
X8712D02*
X8756D01*
X8850D02*
X8863D01*
X9065D02*
X9122D01*
X9162D02*
X9221D01*
X9250D01*
X9321D01*
X9350D01*
X9421D01*
X9450D01*
X9521D01*
X9550D01*
X9622D01*
X9650D01*
X9718D01*
X9756D02*
X9809D01*
X9865D02*
X9922D01*
X10065D02*
X10122D01*
X10151D01*
X10222D01*
X10250D01*
X10321D01*
X10351D01*
X10422D01*
X10450D01*
X10521D01*
X10550D01*
X10622D01*
X10651D01*
X10722D01*
X10750D01*
X10795D01*
X8620Y8726D02*
X8594D01*
X8712D02*
X8756D01*
X8850D02*
X8863D01*
X9065D02*
X9122D01*
X9122D02*
X9135D01*
X9150D02*
X9162D01*
X9221D01*
X9250D01*
X9321D01*
X9350D01*
X9421D01*
X9450D01*
X9521D01*
X9550D01*
X9622D01*
X9650D01*
X9718D01*
X9721D02*
X9730D01*
X9756D02*
X9809D01*
X9865D02*
X9922D01*
X10070D02*
X10122D01*
X10151D01*
X10222D01*
X10250D01*
X10321D01*
X10351D01*
X10422D01*
X10450D01*
X10521D01*
X10550D01*
X10622D01*
X10651D01*
X10722D01*
X10750D01*
X10801D01*
X8620Y8732D02*
X8600D01*
X8712D02*
X8756D01*
X8846D02*
X8863D01*
X9064D02*
X9810D01*
X9864D02*
X9919D01*
X10073D02*
X10802D01*
X8620Y8738D02*
X8606D01*
X8712D02*
X8756D01*
X8846D02*
X8863D01*
X9061D02*
X9813D01*
X9861D02*
X9917D01*
X10075D02*
X10802D01*
X10813D01*
X8620Y8744D02*
X8612D01*
X8712D02*
X8756D01*
X8846D02*
X8863D01*
X9009D02*
X9017D01*
X9057D02*
X9817D01*
X9857D02*
X9916D01*
X10076D02*
X10802D01*
X10818D01*
X10825D02*
X10844D01*
X8756Y8750D02*
X8712D01*
X8851D02*
X8863D01*
X9009D02*
X9018D01*
X9027D01*
X9047D02*
X9056D01*
X9818D01*
X9827D01*
X9847D02*
X9856D01*
X9916D01*
X10076D02*
X10802D01*
X10818D01*
X10844D01*
X8756Y8756D02*
X8712D01*
X9009D02*
X9018D01*
X9056D01*
X9818D01*
X9856D01*
X9917D01*
X10075D02*
X10844D01*
X8756Y8762D02*
X8712D01*
X9009D02*
X9919D01*
X10073D02*
X10844D01*
X8756Y8768D02*
X8712D01*
Y8774D02*
X8642D01*
X8712D02*
X8756D01*
X8809D01*
X8712Y8780D02*
X8648D01*
X8712D02*
X8756D01*
X8815D01*
X8839Y8804D02*
X8672D01*
X8654Y8786D02*
X8712D01*
X8756D01*
X8821D01*
X8827Y8792D02*
X8660D01*
X8666Y8798D02*
X8833D01*
X8577Y7570D02*
Y7480D01*
Y7696D02*
Y8475D01*
Y8601D02*
Y8709D01*
X8620Y8752D01*
X8666Y8774D02*
Y8728D01*
Y8682D01*
X8756Y8358D02*
Y8328D01*
Y8298D01*
X8726D02*
Y8358D01*
X8700Y8202D02*
Y8199D01*
Y8208D02*
Y8264D01*
X8762Y8202D02*
Y8199D01*
Y8208D02*
Y8242D01*
X8700Y8148D02*
Y8144D01*
Y8148D02*
Y8192D01*
Y8202D01*
Y8208D01*
X8762Y8148D02*
Y8144D01*
Y8148D02*
Y8192D01*
Y8202D01*
Y8208D01*
X8620Y8682D02*
Y8752D01*
X8712Y8774D02*
Y8682D01*
X8756D02*
Y8774D01*
X8712Y8030D02*
Y8018D01*
Y8030D02*
Y8046D01*
Y8148D01*
X8750D02*
Y8046D01*
X8742Y8000D02*
Y7988D01*
X8769Y8028D02*
X8750Y8046D01*
X8753Y7988D02*
X8761Y7980D01*
X8753Y7988D02*
X8750Y7991D01*
X8742Y8000D01*
X8723Y8018D01*
X8714Y8028D01*
X8712Y8030D01*
X8703Y8038D01*
X8712Y8046D01*
X8769Y7988D02*
X8761Y7980D01*
X8728Y8264D02*
X8752Y8288D01*
X8760Y8298D01*
X8768Y8248D02*
X8762Y8242D01*
X8768Y8248D02*
X8780Y8262D01*
X8782Y8263D01*
X8782Y8264D01*
X8783Y8265D01*
X8642Y8774D02*
X8672Y8804D01*
X8946Y8228D02*
Y8224D01*
Y8234D02*
Y8244D01*
Y8288D01*
X8886Y8171D02*
Y8169D01*
X8946D02*
Y8172D01*
Y8228D01*
Y8234D01*
X8950Y8604D02*
Y8640D01*
X8850Y8604D02*
Y8682D01*
Y8718D01*
X8921Y8640D02*
Y8604D01*
X8950Y8473D02*
Y8359D01*
X8850Y8372D02*
Y8473D01*
X8922D02*
Y8359D01*
X8846Y8682D02*
Y8718D01*
Y8746D01*
X8972Y8284D02*
Y8084D01*
X8968Y8473D02*
Y8507D01*
X8863Y8718D02*
Y8762D01*
X8936Y8315D02*
Y8288D01*
Y8315D02*
Y8331D01*
Y8342D01*
X8826Y8371D02*
Y8372D01*
X8816D02*
Y8361D01*
X8973Y8563D02*
X8978Y8568D01*
X8979Y8568D01*
X8990Y8580D01*
X8809Y8774D02*
X8839Y8804D01*
X8863Y8762D02*
X8846Y8746D01*
X8816Y8361D02*
X8814Y8358D01*
X8816Y8361D02*
X8826Y8371D01*
X8828Y8372D01*
X8830Y8375D01*
X8836Y8381D01*
X8842Y8375D02*
X8844Y8372D01*
X8842Y8375D02*
X8836Y8381D01*
X8936Y8331D02*
X8944Y8323D01*
X8936Y8331D02*
X8933Y8334D01*
X8924Y8342D01*
X8922Y8345D01*
X8914Y8353D01*
X8944Y8323D02*
X8936Y8315D01*
X8886Y8171D02*
X8846Y8160D01*
X8886Y8171D02*
X8892Y8172D01*
X9086Y8661D02*
Y8718D01*
X9122Y8680D02*
Y8641D01*
X9166Y7985D02*
Y7918D01*
X9122Y8642D02*
Y8679D01*
X9146Y7958D02*
Y7898D01*
X9170Y8473D02*
Y8578D01*
X9002Y7958D02*
Y7948D01*
Y7998D02*
Y8038D01*
Y8330D02*
Y8359D01*
X9082Y7851D02*
Y7843D01*
X9120D02*
Y7851D01*
X9009Y8718D02*
Y8724D01*
Y8744D01*
Y8766D01*
X9122Y8642D02*
X9122Y8641D01*
X9082Y7851D02*
X9079Y7848D01*
X8990Y8580D02*
X9002Y8591D01*
X9006Y8596D01*
X9014Y8604D01*
X9018Y8607D01*
X9286Y8473D02*
Y8416D01*
X9321Y8198D02*
Y8168D01*
X9236Y7934D02*
Y7908D01*
Y7882D01*
Y7874D02*
Y7848D01*
Y7822D01*
X9208D02*
Y7819D01*
Y7822D02*
Y7874D01*
X9264Y7822D02*
Y7819D01*
Y7874D02*
Y7874D01*
X9258Y7822D02*
Y7819D01*
Y7874D02*
Y7874D01*
X9314Y7822D02*
Y7819D01*
Y7822D02*
Y7826D01*
Y7828D01*
X9208Y7915D02*
Y7934D01*
X9264Y7882D02*
Y7879D01*
X9258D02*
Y7882D01*
X9314Y7928D02*
Y7930D01*
Y7934D01*
X9290Y8277D02*
Y8278D01*
Y8284D01*
Y8285D01*
X9352Y8222D02*
Y8219D01*
Y8228D02*
Y8234D01*
Y8272D01*
Y8284D01*
Y8168D02*
Y8164D01*
Y8168D02*
Y8222D01*
Y8228D01*
X9350Y8604D02*
Y8718D01*
X9250D02*
Y8604D01*
X9321D02*
Y8718D01*
X9221D02*
Y8604D01*
X9350Y8473D02*
Y8377D01*
X9250Y8363D02*
Y8473D01*
X9322D02*
Y8377D01*
X9222Y8359D02*
Y8473D01*
X9302Y8524D02*
Y8536D01*
Y8552D01*
Y8564D01*
X9206Y7934D02*
Y7918D01*
Y7934D02*
Y8093D01*
Y8133D02*
Y8168D01*
Y8349D02*
Y8359D01*
X9264Y7882D02*
Y7874D01*
Y7752D02*
Y7748D01*
Y7752D02*
Y7764D01*
Y7782D01*
Y7822D01*
Y7874D02*
Y7874D01*
X9308Y7822D02*
Y7782D01*
X9254Y7934D02*
Y7974D01*
Y8168D01*
X9298Y7974D02*
Y7934D01*
Y7974D02*
Y8168D01*
X9328Y8577D02*
Y8588D01*
X9236Y8348D02*
Y8346D01*
X9296Y8290D02*
Y8284D01*
X9360Y7928D02*
Y7916D01*
X9346Y7835D02*
Y7828D01*
X9294Y8544D02*
X9300Y8550D01*
X9302Y8552D01*
X9314Y8564D01*
X9321Y8571D01*
X9328Y8577D01*
X9338Y8587D01*
X9339Y8588D01*
X9342Y8591D01*
X9347Y8597D01*
X9294Y8544D02*
X9302Y8536D01*
X9355Y8588D02*
X9347Y8597D01*
X9328Y7822D02*
X9326Y7820D01*
X9328Y7822D02*
X9334Y7828D01*
X9341Y7835D01*
X9326Y7820D02*
X9324Y7822D01*
X9320Y7826D01*
X9318Y7828D01*
X9234Y8344D02*
X9236Y8346D01*
X9238Y8348D01*
X9246Y8356D01*
X9249Y8353D01*
X9289Y8284D02*
X9285Y8279D01*
X9289Y8284D02*
X9290Y8285D01*
X9296Y8290D01*
X9298Y8292D01*
X9299Y8294D01*
X9360Y7916D02*
X9366Y7911D01*
X9360Y7916D02*
X9349Y7928D01*
X9341Y7936D01*
X9335Y7930D02*
X9333Y7928D01*
X9335Y7930D02*
X9341Y7936D01*
X9354Y7736D02*
X9356Y7733D01*
X9329Y7761D02*
X9308Y7782D01*
X9323Y7705D02*
X9326Y7703D01*
X9298Y7730D02*
X9277Y7752D01*
X9264Y7764D01*
X9256Y7773D01*
X9264Y7782D01*
X9329Y7705D02*
X9326Y7703D01*
X9354Y7730D02*
X9356Y7733D01*
X9486Y8661D02*
Y8718D01*
Y8661D02*
Y8604D01*
X9550D02*
Y8718D01*
X9450D02*
Y8604D01*
X9521D02*
Y8718D01*
X9421D02*
Y8604D01*
X9515Y7477D02*
Y7039D01*
Y7477D02*
Y7480D01*
X9568Y8597D02*
Y8604D01*
Y8597D02*
X9559Y8588D01*
X9752Y7588D02*
Y7585D01*
Y7594D02*
Y7600D01*
Y7650D01*
Y7534D02*
Y7530D01*
Y7534D02*
Y7588D01*
Y7594D01*
Y7710D02*
Y7714D01*
Y7720D02*
Y7724D01*
Y7774D01*
Y7658D02*
Y7655D01*
Y7658D02*
Y7708D01*
Y7714D01*
Y7720D01*
Y7835D02*
Y7838D01*
Y7844D02*
Y7850D01*
Y7886D01*
Y7888D01*
Y7900D01*
Y7784D02*
Y7780D01*
Y7784D02*
Y7828D01*
Y7838D01*
Y7844D01*
X9650Y8604D02*
Y8648D01*
Y8718D01*
X9622D02*
Y8604D01*
X9766Y8538D02*
Y8473D01*
X9762Y7784D02*
Y7774D01*
Y7658D02*
Y7650D01*
X9756Y8474D02*
Y8578D01*
Y8604D01*
X9662D02*
Y8577D01*
X9606Y8581D02*
Y8570D01*
Y8581D02*
Y8597D01*
Y8604D01*
X9760Y8055D02*
Y7980D01*
Y8055D02*
Y8071D01*
Y8082D01*
X9686Y7940D02*
Y7938D01*
Y7978D02*
Y8040D01*
X9612Y7818D02*
Y7738D01*
X9650D02*
Y7818D01*
X9640Y8098D02*
Y8106D01*
X9746Y8098D02*
Y8086D01*
X9764Y7930D02*
Y7926D01*
X9649Y8564D02*
X9650Y8564D01*
X9662Y8577D01*
X9764Y8068D02*
X9769Y8063D01*
X9764Y8068D02*
X9760Y8071D01*
X9749Y8082D01*
X9746Y8086D01*
X9734Y8098D01*
X9730Y8102D01*
X9719Y8098D02*
X9718Y8098D01*
X9760Y8055D02*
X9764Y8058D01*
X9769Y8063D01*
X9686Y8040D02*
X9683Y8044D01*
X9639Y8098D02*
X9629Y8108D01*
X9621Y8116D01*
X9613Y8108D01*
X9589Y8564D02*
X9595Y8570D01*
X9606Y8581D01*
X9614Y8588D01*
X9615Y8589D01*
X9606Y8597D01*
X9786Y8661D02*
Y8718D01*
Y8661D02*
Y8604D01*
X9966Y8284D02*
Y8253D01*
Y8222D01*
X9881D02*
Y8253D01*
X9886Y8050D02*
Y8022D01*
Y7995D01*
Y8072D02*
Y8100D01*
Y8072D02*
Y8045D01*
Y8122D02*
Y8150D01*
Y8122D02*
Y8095D01*
Y8172D02*
Y8200D01*
Y8172D02*
Y8145D01*
X9912Y7890D02*
Y7859D01*
X9946Y7138D02*
Y7108D01*
X9877Y7684D02*
Y7714D01*
X9782Y7564D02*
Y7534D01*
X9812Y7585D02*
Y7588D01*
Y7594D02*
Y7600D01*
Y7622D01*
Y7534D02*
Y7530D01*
Y7534D02*
Y7588D01*
Y7594D01*
Y7710D02*
Y7714D01*
Y7720D02*
Y7724D01*
Y7774D01*
Y7666D02*
Y7664D01*
Y7666D02*
Y7708D01*
Y7714D01*
Y7720D01*
X9962Y7734D02*
Y7684D01*
Y7734D02*
Y7738D01*
Y7744D01*
X9846D02*
Y7684D01*
X9828Y7596D02*
Y7593D01*
Y7616D02*
Y7622D01*
Y7572D02*
Y7568D01*
Y7572D02*
Y7596D01*
Y7616D01*
Y7618D02*
Y7622D01*
Y7624D01*
Y7664D02*
Y7666D01*
X9846Y7554D02*
Y7494D01*
X9916Y7108D02*
Y7104D01*
Y7108D02*
Y7162D01*
Y7159D01*
Y7162D02*
Y7168D01*
Y7172D01*
Y7224D01*
X9966Y7825D02*
Y7828D01*
Y7834D02*
Y7844D01*
Y7890D01*
Y7774D02*
Y7770D01*
Y7774D02*
Y7780D01*
Y7784D01*
Y7824D02*
Y7828D01*
Y7834D01*
Y7895D02*
Y7898D01*
Y7944D01*
Y7950D01*
X9882Y7824D02*
Y7792D01*
Y7824D02*
Y7828D01*
X9942Y7774D02*
Y7770D01*
Y7774D02*
Y7784D01*
Y7824D02*
Y7828D01*
X9882D02*
Y7825D01*
Y7828D02*
Y7834D01*
Y7850D01*
X9942Y7828D02*
Y7825D01*
Y7828D02*
Y7834D01*
Y7890D01*
X9812Y7838D02*
Y7835D01*
Y7844D02*
Y7850D01*
Y7784D02*
Y7780D01*
Y7784D02*
Y7828D01*
Y7838D01*
Y7844D01*
X9932Y8142D02*
Y8145D01*
Y8150D02*
Y8200D01*
Y8095D02*
Y8092D01*
Y8100D02*
Y8145D01*
Y8150D01*
Y8045D02*
Y8042D01*
Y8050D02*
Y8095D01*
Y8100D01*
Y7995D02*
Y7992D01*
Y7995D02*
Y8045D01*
Y8050D01*
X9912Y8274D02*
Y8278D01*
Y8287D02*
Y8290D01*
Y8222D02*
Y8219D01*
Y8222D02*
Y8278D01*
Y8284D01*
Y8287D01*
X9936Y8222D02*
Y8219D01*
Y8222D02*
Y8284D01*
Y8289D02*
Y8290D01*
Y8292D01*
Y8300D01*
X9950Y8604D02*
Y8708D01*
X9922Y8718D02*
Y8604D01*
X9951Y8473D02*
Y8359D01*
X9922Y8382D02*
Y8473D01*
X9966Y8495D02*
Y8498D01*
Y8473D01*
Y8498D02*
Y8545D01*
X9818Y8490D02*
Y8486D01*
Y8534D02*
Y8578D01*
Y8604D01*
X9856Y8490D02*
Y8486D01*
Y8534D02*
Y8552D01*
Y8604D01*
X9818Y8490D02*
Y8474D01*
Y8490D02*
Y8534D01*
X9856Y8490D02*
Y8474D01*
Y8490D02*
Y8534D01*
X9862Y8222D02*
Y8200D01*
X9892Y7684D02*
Y7666D01*
X9956D02*
Y7684D01*
X9924Y7232D02*
Y7224D01*
X9806Y8473D02*
Y8490D01*
Y8534D01*
Y8538D01*
X9866Y8490D02*
Y8473D01*
Y8490D02*
Y8513D01*
X9906D02*
Y8473D01*
X9802Y7784D02*
Y7774D01*
X9782Y7998D02*
Y8143D01*
X9842Y7777D02*
Y7764D01*
Y7777D02*
Y7791D01*
Y7850D01*
X9880Y7824D02*
Y7793D01*
Y7824D02*
Y7828D01*
Y7834D01*
Y7850D01*
Y7850D01*
Y7888D02*
Y7888D01*
Y7890D01*
Y7895D01*
X9872Y7942D02*
Y7982D01*
Y7984D01*
Y7984D01*
Y7995D01*
X9936Y8290D02*
Y8292D01*
Y8301D01*
X9908Y7988D02*
Y7978D01*
X9882Y7850D02*
Y7846D01*
Y7850D02*
Y7851D01*
Y7867D01*
Y7871D01*
Y7887D01*
Y7888D01*
Y7890D01*
X9922Y7451D02*
Y7440D01*
X9964Y7719D02*
X9966Y7721D01*
X9968Y7722D01*
X9964Y7719D02*
X9972Y7711D01*
X9967Y8291D02*
X9968Y8292D01*
X9967Y8291D02*
X9974Y8284D01*
X9966Y8150D02*
X9973Y8142D01*
X9966Y8150D02*
X9974Y8157D01*
X9917Y8281D02*
X9919Y8284D01*
X9925Y8290D01*
X9928Y8292D01*
X9936Y8300D01*
X9936Y8301D01*
X9917Y8281D02*
X9915Y8284D01*
X9912Y8286D01*
X9912Y8286D01*
X9912Y8287D01*
X9882Y7887D02*
X9882Y7886D01*
X9882Y7887D02*
X9880Y7888D01*
X9892Y7572D02*
X9875Y7554D01*
X9892Y7572D02*
X9892Y7572D01*
X9815Y7624D02*
X9812Y7622D01*
X9815Y7664D02*
X9812Y7666D01*
X9812Y7666D01*
X9872Y7942D02*
X9880Y7950D01*
X9880Y7950D01*
X9889Y7958D01*
X9908Y7978D01*
X9909Y7978D01*
X9912Y7982D01*
X9915Y7984D01*
X9919Y7988D01*
X9926Y7995D01*
X9926Y7996D01*
X9882Y7896D02*
X9880Y7895D01*
X9882Y7896D02*
X9884Y7898D01*
X9892Y7906D01*
X9908Y7922D01*
X9908Y7923D01*
X9915Y7930D01*
X9927Y7942D01*
X9935Y7950D01*
X9933Y7988D02*
X9932Y7990D01*
X9926Y7995D01*
X9926Y7996D01*
X9966Y8545D02*
X9966Y8545D01*
X9934Y7440D02*
X9942Y7431D01*
X9934Y7440D02*
X9922Y7451D01*
X9918Y7456D01*
X9908Y7466D01*
X9902Y7472D01*
X9895Y7478D01*
X9880Y7494D01*
X9942Y7431D02*
X9950Y7440D01*
X9910Y7764D02*
X9900Y7774D01*
X9882Y7792D02*
X9880Y7793D01*
X9842Y7777D02*
X9834Y7784D01*
X9842Y7791D01*
X9880Y7850D02*
X9882Y7851D01*
X9918Y7756D02*
X9929Y7744D01*
X9918Y7756D02*
X9910Y7764D01*
X9910Y7764D01*
X9908Y7766D01*
X9902Y7772D01*
X9900Y7774D01*
X9874Y7744D02*
X9855Y7764D01*
X9854Y7764D01*
X9881Y7993D02*
X9879Y7995D01*
X9873Y7984D02*
X9872Y7984D01*
X9873Y7984D02*
X9881Y7993D01*
X10086Y8416D02*
Y8473D01*
Y8416D02*
Y8359D01*
X10046Y7328D02*
Y7278D01*
Y7228D01*
X10134Y7758D02*
Y7826D01*
X10096Y7712D02*
Y7680D01*
Y7647D01*
X10121Y7835D02*
Y7867D01*
Y7835D02*
Y7803D01*
X10147Y7835D02*
Y7867D01*
Y7835D02*
Y7803D01*
X10087Y7644D02*
Y7614D01*
X10056Y7584D02*
Y7580D01*
Y7590D02*
Y7644D01*
Y7528D02*
Y7525D01*
Y7528D02*
Y7584D01*
Y7590D01*
X10118Y7528D02*
Y7525D01*
Y7528D02*
Y7542D01*
X10126Y7528D02*
Y7525D01*
Y7528D02*
Y7542D01*
X10024Y7770D02*
Y7773D01*
Y7767D01*
Y7773D02*
Y7774D01*
Y7780D01*
Y7764D02*
Y7764D01*
Y7764D02*
Y7767D01*
X10073Y7647D02*
Y7644D01*
Y7647D02*
Y7691D01*
X10099Y7647D02*
Y7644D01*
X10067Y7691D02*
Y7697D01*
X10132Y7504D02*
Y7418D01*
X9976Y7108D02*
Y7104D01*
Y7108D02*
Y7162D01*
Y7159D01*
Y7162D02*
Y7168D01*
Y7172D01*
Y7224D01*
X10052Y8092D02*
Y8095D01*
Y8100D02*
Y8104D01*
Y8045D02*
Y8042D01*
Y8050D02*
Y8095D01*
Y8100D01*
Y7995D02*
Y7992D01*
Y7995D02*
Y8045D01*
Y8050D01*
X10144Y7995D02*
Y7992D01*
Y7995D02*
Y7998D01*
Y8004D01*
X10052Y8272D02*
Y8284D01*
X9996Y8354D02*
Y8356D01*
X10052Y8292D02*
Y8289D01*
Y8292D02*
Y8314D01*
Y8348D01*
Y8354D01*
Y8356D01*
X10066Y8292D02*
Y8289D01*
Y8292D02*
Y8342D01*
Y8348D01*
Y8354D01*
Y8284D02*
Y8272D01*
X10151Y8604D02*
Y8718D01*
X10122D02*
Y8604D01*
X10116Y8500D02*
Y8482D01*
Y8500D02*
Y8516D01*
Y8528D01*
X10156Y8500D02*
Y8482D01*
X10116Y8359D02*
Y8354D01*
Y8473D02*
Y8482D01*
X10156D02*
Y8473D01*
X10100Y7647D02*
Y7644D01*
X10056Y8348D02*
Y8354D01*
Y8359D01*
Y8360D01*
Y8473D02*
Y8604D01*
X10002Y8359D02*
Y8354D01*
X9974Y8141D02*
Y8128D01*
Y8141D02*
Y8157D01*
Y8222D01*
Y8284D02*
Y8284D01*
Y8292D01*
X10014Y8286D02*
Y8284D01*
X10076D02*
Y8292D01*
X10112Y7901D02*
Y7867D01*
X9978Y7890D02*
Y7898D01*
X9972Y7684D02*
Y7666D01*
Y7684D02*
Y7711D01*
Y7727D01*
Y7738D01*
X10032Y7696D02*
Y7502D01*
X9968Y7232D02*
Y7224D01*
X9996Y8104D02*
Y8116D01*
X10092Y7988D02*
Y7977D01*
X9998Y7764D02*
Y7752D01*
X10082Y7367D02*
Y7358D01*
Y7367D02*
Y7370D01*
X10146Y7995D02*
X10154Y8004D01*
X10164Y8014D01*
X10108Y8508D02*
X10116Y8516D01*
X10128Y8528D01*
X10139Y8538D01*
X10156Y8555D01*
X10166Y8566D01*
Y8511D02*
X10156Y8500D01*
X10116D02*
X10108Y8508D01*
X9994Y8354D02*
X9993Y8353D01*
X9994Y8354D02*
X9996Y8356D01*
X10000Y8359D01*
X10049Y8354D02*
X10051Y8355D01*
X10052Y8356D01*
X10055Y8359D01*
X10056Y8360D01*
X10116Y7906D02*
X10112Y7901D01*
X10116Y7906D02*
X10120Y7910D01*
X10122Y7911D01*
X10032Y7697D02*
X10032Y7696D01*
X9969Y7724D02*
X9968Y7722D01*
X9969Y7724D02*
X9970Y7724D01*
X9972Y7727D01*
X9979Y7734D01*
X9984Y7738D01*
X9987Y7741D01*
X9990Y7744D01*
X9992Y7747D01*
X9993Y7748D01*
X9998Y7752D01*
X10008Y7762D01*
X10009Y7764D01*
X10012Y7766D01*
X10012Y7767D01*
X10016Y7771D01*
X10017Y7772D01*
X10022Y7767D02*
X10024Y7764D01*
X10022Y7767D02*
X10017Y7772D01*
X10093Y7358D02*
X10101Y7350D01*
X10093Y7358D02*
X10088Y7363D01*
X10086Y7365D01*
X10082Y7370D01*
X10101Y7350D02*
X10109Y7358D01*
X10102Y7966D02*
X10096Y7972D01*
X10092Y7976D01*
X10092Y7977D01*
X10082Y7986D01*
X10080Y7988D01*
X10073Y7995D01*
X10082Y7367D02*
X10087Y7361D01*
X10082Y7367D02*
X10070Y7378D01*
X10051Y7398D01*
X10036Y7412D01*
X10031Y7418D01*
X10009Y7440D01*
X10087Y7361D02*
X10088Y7363D01*
X10116Y7418D02*
X10094Y7440D01*
X10086Y7447D01*
X10082Y7452D01*
X10059Y7474D01*
X10056Y7477D01*
X10055Y7478D01*
X10036Y7497D01*
X10032Y7502D01*
X10014Y8286D02*
X10019Y8292D01*
X10007Y8104D02*
X10014Y8095D01*
X10007Y8104D02*
X9996Y8116D01*
X9985Y8128D01*
X9974Y8141D01*
X9973Y8142D01*
X10014Y8095D02*
X10019Y8100D01*
X10023Y8104D01*
X10286Y8661D02*
Y8718D01*
Y8661D02*
Y8604D01*
X10356Y8254D02*
Y8223D01*
X10186Y8188D02*
Y8158D01*
X10177Y7504D02*
Y7459D01*
X10302Y7844D02*
Y7890D01*
X10173Y7867D02*
Y7835D01*
Y7803D01*
X10188Y7584D02*
Y7580D01*
Y7592D02*
Y7618D01*
Y7528D02*
Y7525D01*
Y7528D02*
Y7542D01*
Y7584D01*
Y7586D01*
Y7590D01*
Y7592D01*
X10244Y7814D02*
Y7818D01*
X10195Y7826D02*
Y7867D01*
X10202Y7826D02*
Y7818D01*
X10256D02*
Y7814D01*
Y7818D02*
Y7890D01*
X10348D02*
Y7814D01*
Y7750D02*
Y7664D01*
X10222Y7504D02*
Y7418D01*
X10266D02*
Y7504D01*
X10358Y7418D02*
Y7414D01*
Y7418D02*
Y7438D01*
X10182Y8219D02*
Y8222D01*
Y8261D01*
X10216Y8072D02*
Y8069D01*
Y8072D02*
Y8084D01*
Y8122D02*
Y8128D01*
Y8124D01*
Y8128D02*
Y8134D01*
Y8188D01*
X10240Y8128D02*
Y8124D01*
Y8134D02*
Y8138D01*
Y8188D01*
X10302Y8128D02*
Y8124D01*
Y8134D02*
Y8138D01*
Y8178D02*
Y8188D01*
X10240Y8072D02*
Y8069D01*
Y8072D02*
Y8084D01*
Y8122D02*
Y8128D01*
Y8134D01*
X10302Y8070D02*
Y8069D01*
Y8070D02*
Y8072D01*
Y8076D01*
Y8084D01*
Y8096D01*
Y8120D01*
Y8122D01*
Y8128D01*
Y8134D01*
X10312Y8050D02*
Y8047D01*
Y8026D02*
Y8022D01*
Y8026D02*
Y8050D01*
Y8070D01*
Y8072D01*
Y8072D01*
Y8072D02*
Y8076D01*
Y8096D01*
Y8120D01*
X10326Y8189D02*
Y8192D01*
Y8198D02*
Y8254D01*
Y8178D02*
Y8176D01*
Y8178D02*
Y8192D01*
Y8198D01*
X10240Y8249D02*
Y8252D01*
Y8258D02*
Y8264D01*
Y8302D01*
Y8314D01*
X10302Y8252D02*
Y8249D01*
Y8258D02*
Y8264D01*
Y8302D02*
Y8314D01*
X10240Y8198D02*
Y8194D01*
Y8198D02*
Y8248D01*
Y8252D01*
Y8258D01*
X10302Y8198D02*
Y8194D01*
Y8198D02*
Y8248D01*
Y8252D01*
Y8258D01*
X10351Y8604D02*
Y8718D01*
X10250D02*
Y8604D01*
X10321D02*
Y8718D01*
X10222D02*
Y8604D01*
X10351Y8473D02*
Y8359D01*
X10251D02*
Y8473D01*
X10322D02*
Y8359D01*
X10222D02*
Y8473D01*
X10326Y7188D02*
Y7185D01*
Y7188D02*
Y7194D01*
Y7190D01*
Y7194D02*
Y7200D01*
Y7216D01*
Y7232D01*
Y7350D01*
X10206Y8270D02*
Y8274D01*
Y8285D01*
Y8301D01*
Y8338D01*
X10252Y8198D02*
Y8188D01*
X10290D02*
Y8198D01*
X10166Y8566D02*
Y8604D01*
X10206Y8550D02*
Y8538D01*
Y8550D02*
Y8566D01*
Y8604D01*
Y8338D02*
Y8335D01*
Y8338D02*
Y8359D01*
X10176Y8025D02*
Y8014D01*
Y8025D02*
Y8041D01*
Y8042D01*
Y8072D01*
Y8188D02*
Y8222D01*
X10166Y8014D02*
Y8004D01*
Y8014D02*
Y8015D01*
X10278Y7660D02*
Y7651D01*
Y7660D02*
Y7664D01*
X10356Y7414D02*
Y7406D01*
Y7414D02*
Y7418D01*
X10352Y7175D02*
X10366Y7161D01*
X10352Y7175D02*
X10338Y7188D01*
X10333Y7194D01*
X10328Y7198D01*
X10326Y7200D01*
X10318Y7208D01*
X10326Y7216D01*
X10369Y7561D02*
X10358Y7572D01*
X10348Y7582D01*
X10312Y7618D01*
X10307Y7622D01*
X10305Y7624D01*
X10302Y7628D01*
X10297Y7632D01*
X10290Y7639D01*
X10278Y7651D01*
X10343Y7510D02*
X10348Y7504D01*
X10343Y7510D02*
X10290Y7562D01*
X10278Y7574D01*
X10268Y7584D01*
X10266Y7586D01*
X10264Y7589D01*
X10262Y7591D01*
X10258Y7594D01*
X10235Y7618D01*
X10318Y7358D02*
X10326Y7350D01*
X10364Y7398D02*
X10358Y7404D01*
X10356Y7406D01*
X10353Y7408D01*
X10352Y7410D01*
X10348Y7414D01*
X10326Y8176D02*
X10324Y8178D01*
X10316Y8186D01*
X10326Y8121D02*
X10326Y8120D01*
X10326Y8121D02*
X10324Y8122D01*
X10319Y8128D01*
X10313Y8134D01*
X10312Y8134D01*
X10309Y8138D01*
X10308Y8138D01*
Y8178D02*
X10316Y8186D01*
X10364Y8302D02*
X10356Y8311D01*
X10348Y8264D02*
X10358Y8254D01*
X10348Y8302D02*
X10356Y8311D01*
X10188Y8268D02*
X10182Y8261D01*
X10188Y8268D02*
X10194Y8274D01*
X10204Y8284D01*
X10206Y8285D01*
X10213Y8292D01*
X10214Y8293D01*
X10206Y8301D01*
X10166Y8015D02*
X10164Y8014D01*
X10166Y8015D02*
X10176Y8025D01*
X10184Y8033D01*
X10176Y8041D01*
X10166Y8511D02*
X10183Y8528D01*
X10194Y8538D01*
X10206Y8550D01*
X10214Y8558D01*
X10206Y8566D01*
X10486Y8661D02*
Y8718D01*
Y8661D02*
Y8604D01*
X10369Y7750D02*
Y7661D01*
Y7814D02*
Y7818D01*
X10463D02*
Y7661D01*
X10550Y7510D02*
Y7408D01*
X10392D02*
Y7433D01*
Y7434D01*
Y7438D01*
X10522Y7408D02*
Y7510D01*
X10460Y8068D02*
Y8070D01*
Y8072D02*
Y8076D01*
Y8104D01*
X10486Y7974D02*
Y7966D01*
Y8068D02*
Y8078D01*
X10546Y8051D02*
Y8045D01*
Y8051D02*
Y8068D01*
Y8078D01*
X10550Y8604D02*
Y8718D01*
X10450D02*
Y8604D01*
X10521D02*
Y8718D01*
X10422D02*
Y8604D01*
X10551Y8473D02*
Y8359D01*
X10451D02*
Y8473D01*
X10522D02*
Y8359D01*
X10422D02*
Y8473D01*
X10390Y7355D02*
Y7226D01*
Y7355D02*
Y7371D01*
Y7382D01*
X10410Y8262D02*
Y8268D01*
X10376Y8015D02*
Y8004D01*
Y8015D02*
Y8026D01*
Y8031D01*
X10376Y8291D02*
Y8302D01*
X10416Y8071D02*
Y8070D01*
X10406Y7985D02*
Y7974D01*
X10446Y7080D02*
Y7068D01*
X10462Y7065D02*
X10466Y7060D01*
X10462Y7065D02*
X10458Y7068D01*
X10446Y7080D01*
X10438Y7088D01*
X10419Y7108D01*
X10399Y7128D01*
X10390Y7136D01*
X10366Y7161D01*
X10466Y7060D02*
X10474Y7068D01*
X10420Y7510D02*
X10392Y7537D01*
X10369Y7561D01*
X10416Y8070D02*
X10416Y8071D01*
X10421Y8076D01*
X10392Y7434D02*
X10392Y7433D01*
X10392Y7434D02*
X10388Y7438D01*
X10386D02*
X10382Y7434D01*
X10387Y7429D02*
X10392Y7434D01*
X10392Y7434D01*
X10387Y7429D02*
X10382Y7434D01*
X10378Y7438D01*
X10469Y7148D02*
X10489Y7128D01*
X10469Y7148D02*
X10462Y7155D01*
X10446Y7170D01*
X10441Y7176D01*
X10556Y8036D02*
X10546Y8045D01*
X10441Y7176D02*
X10469Y7148D01*
X10441Y7176D02*
X10428Y7188D01*
X10423Y7194D01*
X10418Y7198D01*
X10390Y7226D01*
X10425Y7966D02*
X10418Y7974D01*
X10416Y7975D01*
X10416Y7976D01*
X10406Y7985D01*
X10392Y7999D01*
X10388Y8004D01*
X10380Y8011D01*
X10379Y8012D01*
X10376Y8015D01*
X10368Y8023D01*
X10376Y8031D01*
X10392Y7369D02*
X10399Y7363D01*
X10392Y7369D02*
X10390Y7371D01*
X10384Y7378D01*
X10383Y7378D01*
X10379Y7382D01*
X10366Y7396D01*
X10364Y7398D01*
X10399Y7363D02*
X10390Y7355D01*
X10408Y8258D02*
X10403Y8264D01*
X10399Y8268D01*
X10386Y8280D01*
X10376Y8291D01*
X10372Y8295D01*
X10364Y8302D01*
X10631Y8323D02*
Y8354D01*
Y8323D02*
Y8292D01*
X10716Y8143D02*
Y8112D01*
X10719Y7818D02*
Y7661D01*
X10679Y7432D02*
Y7408D01*
Y7486D02*
Y7510D01*
X10556Y8036D02*
Y8051D01*
X10626D02*
Y7988D01*
Y8051D02*
Y8052D01*
X10631Y8051D02*
Y7991D01*
Y8051D02*
Y8052D01*
X10593D02*
Y8051D01*
Y8052D02*
Y8138D01*
X10663Y8052D02*
Y8051D01*
Y8052D02*
Y8138D01*
X10686Y8164D02*
Y8168D01*
Y8221D02*
Y8228D01*
X10746Y8228D02*
Y8220D01*
Y8228D02*
Y8228D01*
X10686Y8112D02*
Y8109D01*
Y8112D02*
Y8168D01*
Y8174D01*
Y8175D01*
X10746Y8112D02*
Y8109D01*
Y8112D02*
Y8138D01*
X10716Y8292D02*
Y8298D01*
Y8338D02*
Y8354D01*
X10600D02*
Y8292D01*
X10723Y7063D02*
Y7060D01*
Y7063D02*
Y7068D01*
X10651Y8604D02*
Y8718D01*
X10722D02*
Y8604D01*
X10622D02*
Y8718D01*
X10651Y8473D02*
Y8359D01*
X10722D02*
Y8473D01*
X10622D02*
Y8359D01*
X10734Y7911D02*
Y7818D01*
X10608Y8138D02*
Y8165D01*
X10654Y8168D02*
Y8138D01*
X10582Y7630D02*
Y7618D01*
Y7630D02*
Y7646D01*
Y7833D01*
X10620D02*
Y7646D01*
X10622Y7590D02*
Y7578D01*
X10626Y7247D02*
X10638Y7247D01*
X10654Y7248D01*
X10626Y7247D02*
X10626Y7236D01*
X10618Y7228D02*
X10591Y7201D01*
X10618Y7228D02*
X10626Y7236D01*
X10638Y7247D01*
X10646Y7256D01*
X10654Y7248D01*
X10754Y7138D02*
X10749Y7133D01*
X10628Y7988D02*
X10631Y7991D01*
X10654Y8168D02*
X10661Y8175D01*
X10648Y7618D02*
X10649Y7618D01*
X10648Y7618D02*
X10622Y7645D01*
X10620Y7646D01*
X10633Y7578D02*
X10641Y7570D01*
X10633Y7578D02*
X10622Y7590D01*
X10620Y7591D01*
X10594Y7618D01*
X10593Y7618D01*
X10582Y7630D01*
X10573Y7638D01*
X10582Y7646D01*
X10649Y7578D02*
X10641Y7570D01*
X10663Y8051D02*
X10663Y8051D01*
X10664Y8052D01*
X10699Y8081D01*
X10887Y8636D02*
Y8679D01*
X10786Y8473D02*
Y8416D01*
Y8359D01*
X10943Y8033D02*
Y7948D01*
X10901Y8112D02*
Y8143D01*
X10836Y8088D02*
Y8058D01*
X10766D02*
Y8088D01*
X10796Y8028D02*
Y7996D01*
Y8024D02*
Y8028D01*
Y8034D01*
Y8088D01*
X10806Y8028D02*
Y8004D01*
X10866Y7983D02*
Y8028D01*
X10806D02*
Y8024D01*
Y8028D02*
Y8034D01*
Y8088D01*
X10866Y8028D02*
Y8024D01*
Y8028D02*
Y8034D01*
Y8088D01*
X10870Y8220D02*
Y8228D01*
X10932Y8168D02*
Y8164D01*
Y8222D02*
Y8228D01*
X10870Y8112D02*
Y8109D01*
Y8112D02*
Y8138D01*
X10932Y8112D02*
Y8109D01*
Y8112D02*
Y8168D01*
Y8174D01*
Y8176D01*
X10755Y8220D02*
Y8228D01*
Y8228D01*
X10856Y8228D02*
Y8220D01*
Y8282D02*
Y8298D01*
Y8304D01*
Y8328D01*
Y8342D01*
X10755Y8298D02*
Y8282D01*
Y8338D02*
Y8342D01*
X10761Y8228D02*
Y8228D01*
Y8228D02*
Y8282D01*
X10850D02*
Y8228D01*
X10900Y7052D02*
Y7049D01*
Y7052D02*
Y7063D01*
Y7064D01*
Y7115D02*
Y7168D01*
Y7171D01*
X10809Y7138D02*
Y7134D01*
Y7138D02*
Y7171D01*
Y7188D01*
Y7063D02*
Y7060D01*
Y7063D02*
Y7101D01*
Y7133D01*
X10810D02*
Y7101D01*
Y7133D02*
Y7138D01*
Y7171D01*
X10896Y7168D02*
Y7123D01*
Y7168D02*
Y7171D01*
X10750Y8604D02*
Y8718D01*
X10821Y8691D02*
Y8604D01*
X10751Y8473D02*
Y8359D01*
X10822Y8371D02*
Y8378D01*
Y8473D01*
X10844Y8640D02*
Y8644D01*
Y8700D01*
Y8738D02*
Y8766D01*
X10944Y8239D02*
Y8236D01*
Y8244D02*
Y8399D01*
Y8059D02*
Y8056D01*
Y8059D02*
Y8112D01*
Y8168D01*
Y8174D01*
Y8176D01*
Y8224D02*
Y8228D01*
Y8239D01*
Y8244D01*
X10800Y7661D02*
Y7486D01*
X10854Y7474D02*
Y7459D01*
X10816Y8342D02*
Y8350D01*
Y8359D01*
X10856Y8350D02*
Y8342D01*
X10802Y8727D02*
Y8738D01*
X10796Y8138D02*
Y8135D01*
X10816D02*
Y8138D01*
X10876Y7078D02*
Y7064D01*
X10942Y8222D02*
X10944Y8224D01*
X10808Y8358D02*
X10810Y8359D01*
X10822Y8371D02*
X10828Y8378D01*
X10828Y8378D01*
X10856Y8350D02*
X10856Y8350D01*
X10816D02*
X10814Y8353D01*
X10808Y8358D01*
X10793Y8718D02*
X10802Y8727D01*
X10814Y8738D01*
X10818Y8742D01*
X10821Y8746D01*
X10822Y8747D01*
X10830Y8700D02*
X10821Y8691D01*
X10830Y8738D02*
X10822Y8747D01*
X10900Y7115D02*
X10901Y7114D01*
X10900Y7115D02*
X10896Y7123D01*
X10885Y7064D02*
X10888Y7056D01*
X10885Y7064D02*
X10876Y7078D01*
X10864Y7101D01*
X10888Y7056D02*
X10900Y7063D01*
X10901Y7064D01*
X10796Y7996D02*
X10806Y8004D01*
X11101Y7468D02*
Y7438D01*
Y7408D01*
X11116Y7659D02*
Y7659D01*
X11096Y7570D02*
Y7486D01*
X11070Y7468D02*
Y7408D01*
X10962Y7052D02*
Y7049D01*
Y7052D02*
Y7064D01*
Y7102D01*
Y7108D01*
Y7104D01*
Y7108D02*
Y7114D01*
Y7124D01*
Y7162D02*
Y7168D01*
X11136Y7468D02*
Y7486D01*
X11000Y7162D02*
Y7151D01*
X11010Y7983D02*
X10951Y8043D01*
X11000Y7151D02*
X11006Y7146D01*
X11000Y7151D02*
X10989Y7162D01*
X10986Y7166D01*
X10981Y7171D01*
X10973Y7124D02*
X10978Y7118D01*
X10973Y7162D02*
X10981Y7171D01*
X11117Y7039D02*
X11217Y7139D01*
X11175Y7659D02*
Y7659D01*
X11178D02*
Y7659D01*
X11166Y7354D02*
Y7265D01*
Y7350D02*
Y7354D01*
Y7365D01*
X11196Y7200D02*
Y7188D01*
X11217Y7220D02*
Y7139D01*
Y7574D02*
Y7659D01*
X11185Y7188D02*
X11178Y7181D01*
X11185Y7188D02*
X11186Y7191D01*
X11196Y7200D01*
X11206Y7211D01*
X11214Y7220D01*
X11178Y7181D02*
X11170Y7188D01*
X11149Y7248D02*
X11166Y7265D01*
X10854Y7459D02*
X10854Y7455D01*
X10854Y7452D01*
X10852Y7448D01*
X10851Y7445D01*
X10849Y7442D01*
X10846Y7440D01*
X10844Y7437D01*
X10841Y7435D01*
X10838Y7434D01*
X10834Y7432D01*
X10831Y7432D01*
X10827Y7432D01*
X10615Y8215D02*
X10617Y8216D01*
X10620Y8218D01*
X10622Y8219D01*
X10625Y8220D01*
X10628Y8221D01*
X10631Y8221D01*
X10944Y8399D02*
X10944Y8402D01*
X10945Y8405D01*
X10946Y8408D01*
X10854Y7459D02*
X10854Y7455D01*
X10854Y7452D01*
X10852Y7448D01*
X10851Y7445D01*
X10849Y7442D01*
X10846Y7440D01*
X10844Y7437D01*
X10841Y7435D01*
X10838Y7434D01*
X10834Y7432D01*
X10831Y7432D01*
X10827Y7432D01*
X10951Y8043D02*
X10949Y8045D01*
X10947Y8048D01*
X10946Y8050D01*
X10945Y8053D01*
X10944Y8056D01*
X10944Y8059D01*
X8924Y8008D02*
X8924Y8005D01*
X8923Y8002D01*
X8922Y7999D01*
X8921Y7996D01*
X8920Y7993D01*
X8918Y7990D01*
X8916Y7988D01*
X8913Y7986D01*
X8911Y7984D01*
X8908Y7983D01*
X8905Y7981D01*
X8902Y7981D01*
X8899Y7980D01*
X8896Y7980D01*
X8893Y7980D01*
X8889Y7981D01*
X8886Y7982D01*
X8884Y7983D01*
X8881Y7984D01*
X8878Y7986D01*
X8876Y7988D01*
Y8028D02*
X8878Y8030D01*
X8881Y8032D01*
X8884Y8033D01*
X8886Y8034D01*
X8889Y8035D01*
X8893Y8036D01*
X8896Y8036D01*
X8899Y8036D01*
X8902Y8035D01*
X8905Y8035D01*
X8908Y8033D01*
X8911Y8032D01*
X8913Y8030D01*
X8916Y8028D01*
X8918Y8026D01*
X8920Y8023D01*
X8921Y8020D01*
X8922Y8017D01*
X8923Y8014D01*
X8924Y8011D01*
X8924Y8008D01*
X8790Y8250D02*
X8788Y8252D01*
X8787Y8254D01*
X8785Y8257D01*
X8784Y8259D01*
X8784Y8262D01*
X8783Y8265D01*
X8797Y8187D02*
X8795Y8184D01*
X8794Y8181D01*
X8793Y8178D01*
X8793Y8175D01*
X8793Y8171D01*
X8793Y8168D01*
X8794Y8165D01*
X8795Y8162D01*
X8797Y8159D01*
X8799Y8156D01*
X8801Y8154D01*
X8803Y8151D01*
X8806Y8149D01*
X8809Y8148D01*
X8812Y8147D01*
X8815Y8146D01*
X8818Y8145D01*
X8821Y8145D01*
X8825Y8145D01*
X8828Y8146D01*
X8831Y8147D01*
X8834Y8148D01*
X8837Y8150D01*
X8839Y8152D01*
X8842Y8154D01*
X8844Y8157D01*
X8846Y8160D01*
X9170Y8578D02*
X9173Y8581D01*
X9175Y8584D01*
X9177Y8587D01*
X9178Y8591D01*
X9179Y8594D01*
X9179Y8598D01*
X9166Y7985D02*
X9163Y7983D01*
X9158Y7981D01*
X9154Y7980D01*
X9154Y7978D02*
X9154Y7974D01*
X9153Y7971D01*
X9152Y7967D01*
X9150Y7964D01*
X9148Y7961D01*
X9146Y7958D01*
X9154Y7878D02*
X9154Y7875D01*
X9153Y7871D01*
X9152Y7868D01*
X9151Y7865D01*
X9149Y7862D01*
X9147Y7860D01*
X9145Y7857D01*
X9142Y7855D01*
X9140Y7854D01*
X9137Y7852D01*
X9134Y7851D01*
X9130Y7850D01*
X9127Y7850D01*
X9124Y7850D01*
X9120Y7851D01*
X9154Y7878D02*
X9154Y7882D01*
X9153Y7885D01*
X9152Y7889D01*
X9150Y7892D01*
X9148Y7895D01*
X9146Y7898D01*
X9129Y7823D02*
X9129Y7820D01*
X9128Y7816D01*
X9127Y7813D01*
X9126Y7810D01*
X9124Y7807D01*
X9122Y7805D01*
X9120Y7802D01*
X9117Y7800D01*
X9115Y7799D01*
X9112Y7797D01*
X9108Y7796D01*
X9105Y7795D01*
X9102Y7795D01*
X9099Y7795D01*
X9095Y7796D01*
X9092Y7796D01*
X9089Y7798D01*
X9086Y7799D01*
X9084Y7801D01*
X9081Y7803D01*
X9079Y7806D01*
X9077Y7809D01*
X9075Y7812D01*
X9074Y7815D01*
X9073Y7818D01*
X9073Y7821D01*
X9073Y7824D01*
X9073Y7828D01*
X9074Y7831D01*
X9075Y7834D01*
X9077Y7837D02*
X9078Y7839D01*
X9080Y7841D01*
X9082Y7843D01*
X9120D02*
X9123Y7840D01*
X9125Y7837D01*
X9127Y7834D01*
X9128Y7830D01*
X9129Y7827D01*
X9129Y7823D01*
X9077Y7837D02*
X9078Y7841D01*
X9079Y7844D01*
X9079Y7848D01*
X9075Y7834D02*
X9073Y7831D01*
X9071Y7829D01*
X9069Y7826D01*
X9066Y7824D01*
X9063Y7823D01*
X9060Y7821D01*
X9057Y7821D01*
X9053Y7820D01*
X9050Y7820D01*
X9046Y7820D01*
X9043Y7821D01*
X9040Y7822D01*
X9037Y7824D01*
X9034Y7826D01*
X9032Y7828D01*
X9029Y7830D01*
X9027Y7833D01*
X9026Y7836D01*
X9024Y7839D01*
X9024Y7843D01*
X9023Y7846D01*
X9023Y7849D01*
X9023Y7853D01*
X9024Y7856D01*
X9025Y7859D01*
X9027Y7862D01*
X9029Y7865D01*
X9031Y7868D01*
X9034Y7870D01*
X9036Y7872D01*
X9039Y7873D01*
X9042Y7875D01*
X9046Y7876D01*
X9023Y7900D02*
X9020Y7900D01*
X9017Y7900D01*
X9013Y7901D01*
X9010Y7902D01*
X9007Y7904D01*
X9005Y7905D01*
X9002Y7907D01*
X9000Y7910D01*
X8998Y7912D01*
X8996Y7915D01*
X8995Y7918D01*
X8994Y7921D01*
X8993Y7924D01*
X8993Y7928D01*
X8993Y7931D01*
X8994Y7934D01*
X8995Y7937D01*
X8996Y7940D01*
X8997Y7943D01*
X8999Y7946D01*
X9002Y7948D01*
Y7958D02*
X8999Y7961D01*
X8997Y7964D01*
X8995Y7967D01*
X8994Y7971D01*
X8993Y7974D01*
X8993Y7978D01*
X8993Y7982D01*
X8994Y7985D01*
X8995Y7989D01*
X8997Y7992D01*
X8999Y7995D01*
X9002Y7998D01*
X9023Y7900D02*
X9024Y7897D01*
X9024Y7894D01*
X9025Y7891D01*
X9027Y7889D01*
X9028Y7886D01*
X9030Y7884D01*
X9033Y7882D01*
X9035Y7880D01*
X9037Y7879D01*
X9040Y7877D01*
X9043Y7876D01*
X9046Y7876D01*
X9121Y8718D02*
X9123Y8720D01*
X9126Y8722D01*
X9128Y8724D01*
X9131Y8725D01*
X9134Y8726D01*
X9137Y8727D01*
X9140Y8727D01*
X9144D01*
X9147Y8727D01*
X9150Y8726D01*
X9153Y8725D01*
X9156Y8724D01*
X9158Y8722D01*
X9161Y8720D01*
X9163Y8718D01*
X9065Y8724D02*
X9065Y8727D01*
X9064Y8730D01*
X9063Y8734D01*
X9062Y8737D01*
X9060Y8739D01*
X9058Y8742D01*
X9056Y8744D01*
X9054Y8746D01*
X9051Y8748D01*
X9048Y8750D01*
X9045Y8751D01*
X9042Y8752D01*
X9039Y8752D01*
X9035D01*
X9032Y8752D01*
X9029Y8751D01*
X9026Y8750D01*
X9023Y8748D01*
X9020Y8746D01*
X9018Y8744D01*
X9016Y8742D01*
X9014Y8739D01*
X9012Y8737D01*
X9011Y8734D01*
X9010Y8730D01*
X9009Y8727D01*
X9009Y8724D01*
X8972Y8084D02*
X8970Y8082D01*
X8968Y8079D01*
X8967Y8076D01*
X8966Y8074D01*
X8965Y8070D01*
X8964Y8067D01*
X8964Y8064D01*
X8964Y8061D01*
X8965Y8058D01*
X8966Y8055D01*
X8967Y8052D01*
X8968Y8049D01*
X8970Y8047D01*
X8972Y8044D01*
X8975Y8042D01*
X8977Y8040D01*
X8980Y8039D01*
X8983Y8038D01*
X8986Y8037D01*
X8989Y8036D01*
X8992Y8036D01*
X8995Y8036D01*
X8998Y8037D01*
X9002Y8038D01*
X8972Y8284D02*
X8970Y8286D01*
X8968Y8289D01*
X8967Y8292D01*
X8966Y8294D01*
X8965Y8298D01*
X8964Y8301D01*
X8964Y8304D01*
X8964Y8307D01*
X8965Y8310D01*
X8966Y8313D01*
X8967Y8316D01*
X8968Y8319D01*
X8970Y8321D01*
X8972Y8324D01*
X8975Y8326D01*
X8977Y8328D01*
X8980Y8329D01*
X8983Y8330D01*
X8986Y8331D01*
X8989Y8332D01*
X8992Y8332D01*
X8995Y8332D01*
X8998Y8331D01*
X9002Y8330D01*
X9206Y8349D02*
X9209Y8350D01*
X9214Y8351D01*
X9218Y8351D01*
X9222Y8350D01*
X9226Y8349D01*
X9230Y8348D01*
X9214Y8113D02*
X9214Y8109D01*
X9213Y8106D01*
X9212Y8102D01*
X9210Y8099D01*
X9208Y8096D01*
X9206Y8093D01*
X9214Y8113D02*
X9214Y8117D01*
X9213Y8120D01*
X9212Y8124D01*
X9210Y8127D01*
X9208Y8130D01*
X9206Y8133D01*
X9354Y7730D02*
X9353Y7727D01*
X9353Y7724D01*
X9351Y7721D01*
X9350Y7718D01*
X9348Y7716D01*
X9346Y7713D01*
X9343Y7711D01*
X9341Y7709D01*
X9338Y7708D01*
X9335Y7706D01*
X9332Y7706D01*
X9329Y7705D01*
X9323D02*
X9320Y7706D01*
X9317Y7706D01*
X9314Y7708D01*
X9311Y7709D01*
X9309Y7711D01*
X9306Y7713D01*
X9304Y7716D01*
X9302Y7718D01*
X9301Y7721D01*
X9299Y7724D01*
X9299Y7727D01*
X9298Y7730D01*
X9329Y7761D02*
X9332Y7760D01*
X9335Y7760D01*
X9338Y7758D01*
X9341Y7757D01*
X9343Y7755D01*
X9346Y7753D01*
X9348Y7750D01*
X9350Y7748D01*
X9351Y7745D01*
X9353Y7742D01*
X9353Y7739D01*
X9354Y7736D01*
X9368Y7855D02*
X9371Y7856D01*
X9375Y7856D01*
X9378Y7858D01*
X9381Y7859D01*
X9384Y7861D01*
X9386Y7864D01*
X9389Y7867D01*
X9391Y7870D01*
X9392Y7873D01*
X9393Y7876D01*
X9394Y7879D01*
X9394Y7883D01*
X9394Y7887D01*
X9393Y7890D01*
X9392Y7894D01*
X9390Y7897D01*
X9388Y7900D01*
X9386Y7903D01*
X9383Y7905D01*
X9380Y7907D01*
X9376Y7909D01*
X9373Y7910D01*
X9369Y7911D01*
X9366Y7911D01*
X9368Y7855D02*
X9367Y7852D01*
X9365Y7849D01*
X9363Y7846D01*
X9361Y7843D01*
X9358Y7841D01*
X9355Y7839D01*
X9352Y7837D01*
X9349Y7836D01*
X9346Y7835D01*
X9343Y8061D02*
X9340Y8060D01*
X9337Y8060D01*
X9333Y8060D01*
X9330Y8061D01*
X9327Y8061D01*
X9324Y8063D01*
X9321Y8064D01*
X9318Y8066D01*
X9316Y8068D01*
X9314Y8071D01*
X9312Y8074D01*
X9311Y8076D01*
X9309Y8079D01*
X9309Y8083D01*
X9308Y8086D01*
X9308Y8089D01*
X9308Y8092D01*
X9309Y8096D01*
X9310Y8099D01*
X9312Y8102D01*
X9313Y8104D01*
X9315Y8107D01*
X9318Y8109D01*
X9320Y8111D01*
X9323Y8113D01*
X9326Y8114D01*
X9329Y8115D01*
X9332Y8116D01*
X9336Y8116D01*
X9339Y8116D01*
X9342Y8115D01*
X9345Y8114D01*
X9348Y8113D01*
X9351Y8112D01*
X9354Y8110D01*
X9356Y8108D01*
X9343Y8061D02*
X9344Y8057D01*
X9345Y8054D01*
X9346Y8051D01*
X9348Y8048D01*
X9350Y8045D01*
X9352Y8042D01*
X9355Y8040D01*
X9358Y8038D01*
X9361Y8037D01*
X9365Y8036D01*
X9368Y8035D01*
X9372Y8035D01*
X9376Y8035D01*
X9379Y8036D01*
X9382Y8037D01*
X9386Y8039D01*
X9388Y8041D01*
X9391Y8044D01*
X9209Y7882D02*
X9207Y7880D01*
X9205Y7877D01*
X9202Y7875D01*
X9199Y7873D01*
X9196Y7872D01*
X9193Y7871D01*
X9189Y7870D01*
X9186Y7870D01*
X9182Y7870D01*
X9179Y7871D01*
X9176Y7872D01*
X9172Y7874D01*
X9169Y7875D01*
X9167Y7878D01*
X9164Y7880D01*
X9162Y7883D01*
X9161Y7886D01*
X9159Y7889D01*
X9159Y7893D01*
X9158Y7896D01*
X9158Y7900D01*
X9158Y7903D01*
X9159Y7906D01*
X9161Y7910D01*
X9162Y7913D01*
X9164Y7916D01*
X9166Y7918D01*
X9249Y8353D02*
X9249Y8356D01*
X9250Y8359D01*
X9250Y8363D01*
X9340Y8482D02*
X9337Y8480D01*
X9334Y8479D01*
X9331Y8478D01*
X9328Y8477D01*
X9325Y8476D01*
X9322Y8476D01*
X9319Y8476D01*
X9316Y8477D01*
X9313Y8478D01*
X9310Y8479D01*
X9307Y8480D01*
X9304Y8482D01*
X9302Y8484D01*
X9300Y8487D01*
X9298Y8489D01*
X9297Y8492D01*
X9295Y8495D01*
X9295Y8498D01*
X9294Y8501D01*
X9294Y8504D01*
X9294Y8507D01*
X9295Y8511D01*
X9296Y8514D01*
X9297Y8516D01*
X9298Y8519D01*
X9300Y8522D01*
X9302Y8524D01*
X9340Y8482D02*
X9342Y8480D01*
X9345Y8479D01*
X9349Y8477D01*
X9352Y8476D01*
X9355Y8476D01*
X9359Y8476D01*
X9612Y7738D02*
X9609Y7736D01*
X9607Y7733D01*
X9606Y7730D01*
X9604Y7727D01*
X9604Y7724D01*
X9603Y7720D01*
X9603Y7717D01*
X9603Y7714D01*
X9604Y7710D01*
X9605Y7707D01*
X9607Y7704D01*
X9608Y7701D01*
X9611Y7699D01*
X9613Y7697D01*
X9616Y7695D01*
X9619Y7693D01*
X9622Y7692D01*
X9625Y7691D01*
X9628Y7690D01*
X9632Y7690D01*
X9635Y7690D01*
X9638Y7691D01*
X9641Y7692D01*
X9644Y7693D01*
X9647Y7695D01*
X9650Y7697D01*
X9652Y7700D01*
X9654Y7702D01*
X9656Y7705D01*
X9657Y7708D01*
X9658Y7711D01*
X9659Y7715D01*
X9659Y7718D01*
X9659Y7722D01*
X9658Y7725D01*
X9657Y7729D01*
X9655Y7732D01*
X9653Y7735D01*
X9650Y7738D01*
Y7818D02*
X9653Y7821D01*
X9655Y7824D01*
X9657Y7827D01*
X9658Y7831D01*
X9659Y7834D01*
X9659Y7838D01*
X9659Y7841D01*
X9658Y7845D01*
X9657Y7848D01*
X9656Y7851D01*
X9654Y7854D01*
X9652Y7856D01*
X9650Y7859D01*
X9647Y7861D01*
X9644Y7863D01*
X9641Y7864D01*
X9638Y7865D01*
X9635Y7866D01*
X9632Y7866D01*
X9628Y7866D01*
X9625Y7865D01*
X9622Y7864D01*
X9619Y7863D01*
X9616Y7861D01*
X9613Y7859D01*
X9611Y7857D01*
X9608Y7855D01*
X9607Y7852D01*
X9605Y7849D01*
X9604Y7846D01*
X9603Y7842D01*
X9603Y7839D01*
X9603Y7836D01*
X9604Y7832D01*
X9604Y7829D01*
X9606Y7826D01*
X9607Y7823D01*
X9609Y7820D01*
X9612Y7818D01*
X9688Y7938D02*
X9690Y7936D01*
X9693Y7935D01*
X9696Y7933D01*
X9699Y7932D01*
X9703Y7931D01*
X9706Y7931D01*
X9709Y7931D01*
X9713Y7932D01*
X9716Y7932D01*
X9719Y7934D01*
X9722Y7935D01*
X9724Y7937D01*
X9686Y7940D02*
X9684Y7943D01*
X9682Y7946D01*
X9681Y7949D01*
X9680Y7952D01*
X9679Y7956D01*
X9679Y7959D01*
X9679Y7962D01*
X9680Y7966D01*
X9681Y7969D01*
X9682Y7972D01*
X9684Y7975D01*
X9686Y7978D01*
X9724Y7937D02*
X9727Y7935D01*
X9730Y7933D01*
X9734Y7932D01*
X9737Y7931D01*
X9741Y7931D01*
X9744Y7931D01*
X9748Y7932D01*
X9751Y7932D01*
X9754Y7934D01*
X9757Y7935D01*
X9760Y7938D01*
X9763Y7940D01*
X9765Y7943D01*
X9767Y7946D01*
X9768Y7949D01*
X9769Y7952D01*
X9770Y7956D01*
X9770Y7959D01*
X9770Y7963D01*
X9769Y7967D01*
X9768Y7971D01*
X9766Y7974D01*
X9763Y7977D01*
X9760Y7980D01*
X9758Y8718D02*
X9756Y8720D01*
X9753Y8722D01*
X9751Y8724D01*
X9748Y8725D01*
X9745Y8726D01*
X9742Y8727D01*
X9739Y8727D01*
X9735D01*
X9732Y8727D01*
X9729Y8726D01*
X9726Y8725D01*
X9723Y8724D01*
X9721Y8722D01*
X9718Y8720D01*
X9716Y8718D01*
X9958Y8600D02*
X9955Y8599D01*
X9952Y8597D01*
X9949Y8595D01*
X9947Y8593D01*
X9944Y8591D01*
X9942Y8588D01*
X9941Y8585D01*
X9939Y8582D01*
X9939Y8579D01*
X9938Y8575D01*
X9938Y8572D01*
X9938Y8569D01*
X9939Y8566D01*
X9940Y8562D01*
X9942Y8559D01*
X9943Y8557D01*
X9945Y8554D01*
X9948Y8552D01*
X9951Y8550D01*
X9953Y8548D01*
X9957Y8547D01*
X9960Y8546D01*
X9963Y8545D01*
X9966Y8545D01*
X9914Y8533D02*
X9914Y8529D01*
X9913Y8526D01*
X9912Y8522D01*
X9910Y8519D01*
X9908Y8516D01*
X9906Y8513D01*
X9914Y8533D02*
X9914Y8536D01*
X9913Y8540D01*
X9912Y8543D01*
X9911Y8546D01*
X9909Y8549D01*
X9907Y8551D01*
X9905Y8554D01*
X9902Y8556D01*
X9899Y8558D01*
X9896Y8559D01*
X9893Y8560D01*
X9890Y8561D01*
X9887Y8561D01*
X9883Y8561D01*
X9880Y8560D01*
X9877Y8559D01*
X9874Y8558D01*
X9871Y8556D01*
X9868Y8554D01*
X9866Y8552D01*
X9863Y8550D01*
X9862Y8547D01*
X9860Y8544D01*
X9859Y8541D01*
X9858Y8537D01*
X9858Y8534D01*
X9858Y8531D01*
X9859Y8527D01*
X9859Y8524D01*
X9861Y8521D01*
X9862Y8518D01*
X9864Y8515D01*
X9866Y8513D01*
X9806Y8538D02*
X9808Y8541D01*
X9810Y8544D01*
X9812Y8547D01*
X9813Y8551D01*
X9814Y8554D01*
X9814Y8558D01*
X9814Y8561D01*
X9813Y8565D01*
X9812Y8568D01*
X9811Y8571D01*
X9809Y8574D01*
X9807Y8576D01*
X9805Y8579D01*
X9802Y8581D01*
X9799Y8583D01*
X9796Y8584D01*
X9793Y8585D01*
X9790Y8586D01*
X9787Y8586D01*
X9783Y8586D01*
X9780Y8585D01*
X9777Y8584D01*
X9774Y8583D01*
X9771Y8581D01*
X9768Y8579D01*
X9766Y8577D01*
X9763Y8575D01*
X9762Y8572D01*
X9760Y8569D01*
X9759Y8566D01*
X9758Y8562D01*
X9758Y8559D01*
X9758Y8556D01*
X9759Y8552D01*
X9759Y8549D01*
X9761Y8546D01*
X9762Y8543D01*
X9764Y8540D01*
X9766Y8538D01*
X9764Y7926D02*
X9763Y7923D01*
X9761Y7921D01*
X9760Y7918D01*
X9759Y7915D01*
X9758Y7912D01*
X9758Y7909D01*
X9758Y7906D01*
X9759Y7903D01*
X9759Y7900D01*
X9768Y7930D02*
X9771Y7931D01*
X9773Y7933D01*
X9776Y7934D01*
X9780Y7935D01*
X9783Y7936D01*
X9786Y7936D01*
X9789Y7936D01*
X9792Y7935D01*
X9796Y7934D01*
X9799Y7933D01*
X9801Y7931D01*
X9804Y7930D01*
X9811D02*
X9809Y7931D01*
X9806Y7933D01*
X9805Y7935D01*
X9803Y7937D01*
X9801Y7940D01*
X9800Y7942D01*
X9799Y7945D01*
X9799Y7947D01*
X9798Y7950D01*
X9795Y7951D01*
X9791Y7952D01*
X9788Y7953D01*
X9785Y7955D01*
X9782Y7957D01*
X9780Y7960D01*
X9778Y7963D01*
X9776Y7966D01*
X9775Y7969D01*
X9774Y7972D01*
X9773Y7976D01*
X9773Y7979D01*
X9773Y7983D01*
X9774Y7986D01*
X9775Y7989D01*
X9777Y7993D01*
X9779Y7995D01*
X9782Y7998D01*
X9950Y8354D02*
X9950Y8358D01*
X9949Y8361D01*
X9948Y8365D01*
X9946Y8368D01*
X9944Y8371D01*
X9942Y8374D01*
X9939Y8376D01*
X9936Y8378D01*
X9933Y8380D01*
X9929Y8381D01*
X9926Y8382D01*
X9922Y8382D01*
X9865Y8724D02*
X9865Y8727D01*
X9864Y8731D01*
X9863Y8734D01*
X9862Y8737D01*
X9860Y8740D01*
X9858Y8743D01*
X9855Y8745D01*
X9852Y8748D01*
X9849Y8749D01*
X9846Y8751D01*
X9842Y8751D01*
X9839Y8752D01*
X9836Y8752D01*
X9832Y8752D01*
X9829Y8751D01*
X9825Y8749D01*
X9822Y8748D01*
X9819Y8746D01*
X9817Y8743D01*
X9815Y8741D01*
X9813Y8738D01*
X9811Y8735D01*
X9810Y8731D01*
X9809Y8728D01*
X9809Y8725D01*
X9809Y8721D01*
X9810Y8718D01*
X10686Y7578D02*
X10688Y7576D01*
X10691Y7574D01*
X10694Y7573D01*
X10696Y7572D01*
X10699Y7571D01*
X10703Y7570D01*
X10706Y7570D01*
X10709Y7570D01*
X10712Y7571D01*
X10715Y7571D01*
X10718Y7573D01*
X10721Y7574D01*
X10723Y7576D01*
X10726Y7578D01*
X10728Y7580D01*
X10730Y7583D01*
X10731Y7586D01*
X10732Y7589D01*
X10733Y7592D01*
X10734Y7595D01*
X10734Y7598D01*
X10734Y7601D01*
X10733Y7604D01*
X10732Y7607D01*
X10731Y7610D01*
X10730Y7613D01*
X10728Y7616D01*
X10726Y7618D01*
X10723Y7620D01*
X10721Y7622D01*
X10718Y7623D01*
X10715Y7625D01*
X10712Y7625D01*
X10709Y7626D01*
X10706Y7626D01*
X10703Y7626D01*
X10699Y7625D01*
X10696Y7624D01*
X10694Y7623D01*
X10691Y7622D01*
X10688Y7620D01*
X10686Y7618D01*
X10699Y8081D02*
X10700Y8084D01*
X10702Y8087D01*
X10704Y8090D01*
X10706Y8093D01*
X10709Y8095D01*
X10712Y8097D01*
X10715Y8099D01*
X10718Y8100D01*
X10722Y8101D01*
X10725Y8101D01*
X10729Y8101D01*
X10732Y8100D01*
X10736Y8099D01*
X10739Y8098D01*
X10742Y8096D01*
X10745Y8094D01*
X10747Y8091D01*
X10749Y8088D01*
X10629Y7853D02*
X10629Y7849D01*
X10628Y7846D01*
X10627Y7842D01*
X10625Y7839D01*
X10623Y7836D01*
X10620Y7833D01*
X10629Y7853D02*
X10629Y7856D01*
X10628Y7860D01*
X10627Y7863D01*
X10626Y7866D01*
X10624Y7869D01*
X10622Y7871D01*
X10620Y7874D01*
X10617Y7876D01*
X10614Y7878D01*
X10611Y7879D01*
X10608Y7880D01*
X10605Y7881D01*
X10602Y7881D01*
X10598Y7881D01*
X10595Y7880D01*
X10592Y7879D01*
X10589Y7878D01*
X10586Y7876D01*
X10583Y7874D01*
X10581Y7872D01*
X10578Y7870D01*
X10577Y7867D01*
X10575Y7864D01*
X10574Y7861D01*
X10573Y7857D01*
X10573Y7854D01*
X10573Y7851D01*
X10574Y7847D01*
X10574Y7844D01*
X10576Y7841D01*
X10577Y7838D01*
X10579Y7835D01*
X10582Y7833D01*
X10574Y7151D02*
X10572Y7147D01*
X10570Y7144D01*
X10569Y7140D01*
X10568Y7136D01*
X10568Y7132D01*
X10569Y7128D01*
X10574Y7151D02*
X10572Y7153D01*
X10569Y7155D01*
X10567Y7158D01*
X10566Y7161D01*
X10565Y7164D01*
X10564Y7167D01*
X10563Y7170D01*
X10563Y7174D01*
X10563Y7177D01*
X10564Y7180D01*
X10565Y7184D01*
X10567Y7187D01*
X10568Y7189D01*
X10570Y7192D01*
X10573Y7194D01*
X10576Y7196D01*
X10578Y7198D01*
X10582Y7199D01*
X10585Y7200D01*
X10588Y7201D01*
X10591Y7201D01*
X10856Y8350D02*
X10859Y8350D01*
X10863Y8351D01*
X10866Y8352D01*
X10870Y8354D01*
X10873Y8356D01*
X10876Y8358D01*
X10878Y8361D01*
X10880Y8364D01*
X10882Y8367D01*
X10883Y8371D01*
X10884Y8374D01*
X10884Y8378D01*
X10884Y8381D01*
X10883Y8384D01*
X10882Y8388D01*
X10881Y8391D01*
X10879Y8393D01*
X10877Y8396D01*
X10875Y8398D01*
X10873Y8401D01*
X10870Y8402D01*
X10867Y8404D01*
X10864Y8405D01*
X10861Y8406D01*
X10857Y8406D01*
X10854Y8406D01*
X10851Y8406D01*
X10848Y8405D01*
X10845Y8404D01*
X10842Y8402D01*
X10839Y8400D01*
X10837Y8398D01*
X10834Y8396D01*
X10832Y8393D01*
X10831Y8390D01*
X10830Y8387D01*
X10829Y8384D01*
X10828Y8381D01*
X10828Y8378D01*
X10978Y7118D02*
X10978Y7115D01*
X10979Y7112D01*
X10980Y7109D01*
X10981Y7106D01*
X10982Y7103D01*
X10984Y7100D01*
X10987Y7098D01*
X10989Y7096D01*
X10992Y7094D01*
X10995Y7092D01*
X10998Y7091D01*
X11001Y7090D01*
X11004Y7090D01*
X11007Y7090D01*
X11011Y7090D01*
X11014Y7091D01*
X11017Y7092D01*
X11020Y7094D01*
X11023Y7095D01*
X11025Y7098D01*
X11027Y7100D01*
X11029Y7103D01*
X11031Y7105D01*
X11032Y7108D01*
X11033Y7112D01*
X11034Y7115D01*
X11034Y7118D01*
X11034Y7122D01*
X11033Y7125D01*
X11032Y7129D01*
X11030Y7132D01*
X11028Y7135D01*
X11026Y7138D01*
X11023Y7140D01*
X11020Y7142D01*
X11016Y7144D01*
X11013Y7145D01*
X11009Y7146D01*
X11006Y7146D01*
X11036Y7474D02*
X11038Y7471D01*
X11041Y7469D01*
X11044Y7468D01*
X11046Y7467D01*
X11049Y7466D01*
X11053Y7465D01*
X11056Y7465D01*
X11059Y7465D01*
X11062Y7466D01*
X11065Y7466D01*
X11068Y7468D01*
X11071Y7469D01*
X11073Y7471D01*
X11076Y7473D01*
X11078Y7475D01*
X11080Y7478D01*
X11081Y7481D01*
X11082Y7484D01*
X11083Y7487D01*
X11084Y7490D01*
X11084Y7493D01*
X11084Y7496D01*
X11083Y7499D01*
X11082Y7503D01*
X11081Y7506D01*
X11079Y7508D01*
X11077Y7511D01*
X11075Y7513D01*
X11073Y7515D01*
X11070Y7517D01*
X11067Y7519D01*
X11064Y7520D01*
X11061Y7521D01*
X11058Y7521D01*
X11054Y7521D01*
X11051Y7521D01*
X11131Y7408D02*
X11129Y7405D01*
X11127Y7402D01*
X11125Y7399D01*
X11124Y7396D01*
X11123Y7392D01*
X11123Y7389D01*
X11123Y7386D01*
X11124Y7382D01*
X11124Y7379D01*
X11126Y7376D01*
X11127Y7373D01*
X11129Y7370D01*
X11132Y7368D01*
X11134Y7365D01*
X11137Y7364D01*
X11140Y7362D01*
X11144Y7361D01*
X11147Y7360D01*
X11150Y7360D01*
X11154Y7360D01*
X11157Y7361D01*
X11160Y7362D01*
X11164Y7363D01*
X11166Y7365D01*
X10946Y8408D02*
X10943Y8409D01*
X10940Y8410D01*
X10936Y8411D01*
X10933Y8412D01*
X10930Y8413D01*
X10927Y8415D01*
X10924Y8416D01*
X10921Y8417D01*
X10918Y8419D01*
X10915Y8420D01*
X10912Y8422D01*
X10909Y8424D01*
X10906Y8425D01*
X10904Y8427D01*
X10901Y8429D01*
X10898Y8431D01*
X10896Y8433D01*
X10893Y8435D01*
X10890Y8437D01*
X10888Y8440D01*
X10886Y8442D01*
X10883Y8444D01*
X10881Y8447D01*
X10879Y8449D01*
X10876Y8452D01*
X10874Y8454D01*
X10872Y8457D01*
X10870Y8459D01*
X10868Y8462D01*
X10866Y8465D01*
X10865Y8468D01*
X10863Y8471D01*
X10861Y8473D01*
X10860Y8476D01*
X10858Y8479D01*
X10857Y8482D01*
X10855Y8485D01*
X10854Y8488D01*
X10853Y8492D01*
X10852Y8495D01*
X10851Y8498D01*
X10850Y8501D01*
X10849Y8504D01*
X10848Y8508D01*
X10847Y8511D01*
X10847Y8514D01*
X10846Y8517D01*
X10846Y8521D01*
X10845Y8524D01*
X10845Y8527D01*
X10845Y8531D01*
X10845Y8534D01*
X10845Y8537D01*
X10845Y8541D01*
X10845Y8544D01*
X10845Y8547D01*
X10845Y8551D01*
X10846Y8554D01*
X10846Y8557D01*
X10847Y8560D01*
X10847Y8564D01*
X10848Y8567D01*
X10849Y8570D01*
X10849Y8573D01*
X10850Y8577D01*
X10851Y8580D01*
X10852Y8583D01*
X10854Y8586D01*
X10855Y8589D01*
X10856Y8592D01*
X10858Y8595D01*
X10859Y8598D01*
X10861Y8601D01*
X10862Y8604D01*
X10864Y8607D01*
X10866Y8610D01*
X10867Y8613D01*
X10869Y8615D01*
X10871Y8618D01*
X10873Y8621D01*
X10875Y8623D01*
X10877Y8626D01*
X10880Y8628D01*
X10882Y8631D01*
X10884Y8633D01*
X10887Y8635D01*
X10889Y8638D01*
X10892Y8640D01*
X10894Y8642D01*
X10897Y8644D01*
X8828Y7633D02*
X8828Y7629D01*
X8828Y7626D01*
X8828Y7622D01*
X8828Y7619D01*
X8827Y7616D01*
X8827Y7612D01*
X8826Y7609D01*
X8826Y7606D01*
X8825Y7602D01*
X8824Y7599D01*
X8823Y7596D01*
X8822Y7593D01*
X8821Y7590D01*
X8820Y7586D01*
X8819Y7583D01*
X8818Y7580D01*
X8816Y7577D01*
X8815Y7574D01*
X8813Y7571D01*
X8812Y7568D01*
X8810Y7565D01*
X8808Y7562D01*
X8807Y7559D01*
X8805Y7556D01*
X8803Y7554D01*
X8801Y7551D01*
X8799Y7548D01*
X8796Y7546D01*
X8794Y7543D01*
X8792Y7541D01*
X8790Y7538D01*
X8787Y7536D01*
X8785Y7534D01*
X8782Y7531D01*
X8780Y7529D01*
X8777Y7527D01*
X8774Y7525D01*
X8772Y7523D01*
X8769Y7521D01*
X8766Y7519D01*
X8763Y7518D01*
X8760Y7516D01*
X8757Y7514D01*
X8754Y7513D01*
X8751Y7511D01*
X8748Y7510D01*
X8745Y7509D01*
X8742Y7507D01*
X8739Y7506D01*
X8735Y7505D01*
X8732Y7504D01*
X8729Y7503D01*
X8726Y7503D01*
X8722Y7502D01*
X8719Y7501D01*
X8716Y7501D01*
X8712Y7500D01*
X8709Y7500D01*
X8706Y7499D01*
X8702Y7499D01*
X8699Y7499D01*
X8696Y7499D01*
X8692Y7499D01*
X8689Y7499D01*
X8685Y7499D01*
X8682Y7500D01*
X8679Y7500D01*
X8675Y7500D01*
X8672Y7501D01*
X8669Y7502D01*
X8665Y7502D01*
X8662Y7503D01*
X8659Y7504D01*
X8656Y7505D01*
X8652Y7506D01*
X8649Y7507D01*
X8646Y7508D01*
X8643Y7509D01*
X8640Y7511D01*
X8637Y7512D01*
X8634Y7514D01*
X8631Y7515D01*
X8628Y7517D01*
X8625Y7519D01*
X8622Y7520D01*
X8619Y7522D01*
X8617Y7524D01*
X8614Y7526D01*
X8611Y7528D01*
X8609Y7530D01*
X8606Y7533D01*
X8604Y7535D01*
X8601Y7537D01*
X8599Y7540D01*
X8596Y7542D01*
X8594Y7545D01*
X8592Y7547D01*
X8590Y7550D01*
X8588Y7553D01*
X8586Y7555D01*
X8584Y7558D01*
X8582Y7561D01*
X8580Y7564D01*
X8579Y7567D01*
X8577Y7570D01*
Y7696D02*
X8579Y7699D01*
X8580Y7701D01*
X8582Y7704D01*
X8584Y7707D01*
X8586Y7710D01*
X8588Y7713D01*
X8590Y7715D01*
X8592Y7718D01*
X8594Y7720D01*
X8596Y7723D01*
X8599Y7725D01*
X8601Y7728D01*
X8604Y7730D01*
X8606Y7732D01*
X8609Y7735D01*
X8611Y7737D01*
X8614Y7739D01*
X8617Y7741D01*
X8619Y7743D01*
X8622Y7745D01*
X8625Y7747D01*
X8628Y7748D01*
X8631Y7750D01*
X8634Y7751D01*
X8637Y7753D01*
X8640Y7754D01*
X8643Y7756D01*
X8646Y7757D01*
X8649Y7758D01*
X8652Y7759D01*
X8656Y7760D01*
X8659Y7761D01*
X8662Y7762D01*
X8665Y7763D01*
X8669Y7764D01*
X8672Y7764D01*
X8675Y7765D01*
X8679Y7765D01*
X8682Y7766D01*
X8685Y7766D01*
X8689Y7766D01*
X8692Y7766D01*
X8696Y7766D01*
X8699Y7766D01*
X8702Y7766D01*
X8706Y7766D01*
X8709Y7765D01*
X8712Y7765D01*
X8716Y7765D01*
X8719Y7764D01*
X8722Y7763D01*
X8726Y7763D01*
X8729Y7762D01*
X8732Y7761D01*
X8735Y7760D01*
X8739Y7759D01*
X8742Y7758D01*
X8745Y7756D01*
X8748Y7755D01*
X8751Y7754D01*
X8754Y7752D01*
X8757Y7751D01*
X8760Y7749D01*
X8763Y7747D01*
X8766Y7746D01*
X8769Y7744D01*
X8772Y7742D01*
X8774Y7740D01*
X8777Y7738D01*
X8780Y7736D01*
X8782Y7734D01*
X8785Y7731D01*
X8787Y7729D01*
X8790Y7727D01*
X8792Y7724D01*
X8794Y7722D01*
X8796Y7719D01*
X8799Y7717D01*
X8801Y7714D01*
X8803Y7711D01*
X8805Y7709D01*
X8807Y7706D01*
X8808Y7703D01*
X8810Y7700D01*
X8812Y7697D01*
X8813Y7694D01*
X8815Y7691D01*
X8816Y7688D01*
X8818Y7685D01*
X8819Y7682D01*
X8820Y7679D01*
X8821Y7676D01*
X8822Y7672D01*
X8823Y7669D01*
X8824Y7666D01*
X8825Y7663D01*
X8826Y7659D01*
X8826Y7656D01*
X8827Y7653D01*
X8827Y7649D01*
X8828Y7646D01*
X8828Y7643D01*
X8828Y7639D01*
X8828Y7636D01*
X8828Y7633D01*
X8577Y8475D02*
X8579Y8472D01*
X8580Y8469D01*
X8582Y8466D01*
X8584Y8464D01*
X8586Y8461D01*
X8588Y8458D01*
X8590Y8455D01*
X8592Y8453D01*
X8594Y8450D01*
X8596Y8448D01*
X8599Y8445D01*
X8601Y8443D01*
X8604Y8440D01*
X8606Y8438D01*
X8609Y8436D01*
X8611Y8434D01*
X8614Y8432D01*
X8617Y8430D01*
X8619Y8428D01*
X8622Y8426D01*
X8625Y8424D01*
X8628Y8422D01*
X8631Y8421D01*
X8634Y8419D01*
X8637Y8418D01*
X8640Y8416D01*
X8643Y8415D01*
X8646Y8414D01*
X8649Y8412D01*
X8652Y8411D01*
X8656Y8410D01*
X8659Y8409D01*
X8662Y8409D01*
X8665Y8408D01*
X8669Y8407D01*
X8672Y8406D01*
X8675Y8406D01*
X8679Y8405D01*
X8682Y8405D01*
X8685Y8405D01*
X8689Y8405D01*
X8692Y8404D01*
X8696Y8404D01*
X8699Y8405D01*
X8702Y8405D01*
X8706Y8405D01*
X8709Y8405D01*
X8712Y8406D01*
X8716Y8406D01*
X8719Y8407D01*
X8722Y8407D01*
X8726Y8408D01*
X8729Y8409D01*
X8732Y8410D01*
X8735Y8411D01*
X8739Y8412D01*
X8742Y8413D01*
X8745Y8414D01*
X8748Y8416D01*
X8751Y8417D01*
X8754Y8418D01*
X8757Y8420D01*
X8760Y8422D01*
X8763Y8423D01*
X8766Y8425D01*
X8769Y8427D01*
X8772Y8429D01*
X8774Y8431D01*
X8777Y8433D01*
X8780Y8435D01*
X8782Y8437D01*
X8785Y8439D01*
X8787Y8442D01*
X8790Y8444D01*
X8792Y8446D01*
X8794Y8449D01*
X8796Y8451D01*
X8799Y8454D01*
X8801Y8457D01*
X8803Y8459D01*
X8805Y8462D01*
X8807Y8465D01*
X8808Y8468D01*
X8810Y8471D01*
X8812Y8473D01*
X8813Y8476D01*
X8815Y8479D01*
X8816Y8482D01*
X8818Y8486D01*
X8819Y8489D01*
X8820Y8492D01*
X8821Y8495D01*
X8822Y8498D01*
X8823Y8501D01*
X8824Y8505D01*
X8825Y8508D01*
X8826Y8511D01*
X8826Y8515D01*
X8827Y8518D01*
X8827Y8521D01*
X8828Y8525D01*
X8828Y8528D01*
X8828Y8531D01*
X8828Y8535D01*
X8828Y8538D01*
X8828Y8541D01*
X8828Y8545D01*
X8828Y8548D01*
X8828Y8552D01*
X8827Y8555D01*
X8827Y8558D01*
X8826Y8562D01*
X8826Y8565D01*
X8825Y8568D01*
X8824Y8571D01*
X8823Y8575D01*
X8822Y8578D01*
X8821Y8581D01*
X8820Y8584D01*
X8819Y8587D01*
X8818Y8591D01*
X8816Y8594D01*
X8815Y8597D01*
X8813Y8600D01*
X8812Y8603D01*
X8810Y8606D01*
X8808Y8609D01*
X8807Y8611D01*
X8805Y8614D01*
X8803Y8617D01*
X8801Y8620D01*
X8799Y8622D01*
X8796Y8625D01*
X8794Y8627D01*
X8792Y8630D01*
X8790Y8632D01*
X8787Y8635D01*
X8785Y8637D01*
X8782Y8639D01*
X8780Y8641D01*
X8777Y8643D01*
X8774Y8646D01*
X8772Y8647D01*
X8769Y8649D01*
X8766Y8651D01*
X8763Y8653D01*
X8760Y8655D01*
X8757Y8656D01*
X8754Y8658D01*
X8751Y8659D01*
X8748Y8661D01*
X8745Y8662D01*
X8742Y8663D01*
X8739Y8664D01*
X8735Y8665D01*
X8732Y8666D01*
X8729Y8667D01*
X8726Y8668D01*
X8722Y8669D01*
X8719Y8669D01*
X8716Y8670D01*
X8712Y8671D01*
X8709Y8671D01*
X8706Y8671D01*
X8702Y8671D01*
X8699Y8672D01*
X8696Y8672D01*
X8692Y8672D01*
X8689Y8672D01*
X8685Y8671D01*
X8682Y8671D01*
X8679Y8671D01*
X8675Y8670D01*
X8672Y8670D01*
X8669Y8669D01*
X8665Y8668D01*
X8662Y8668D01*
X8659Y8667D01*
X8656Y8666D01*
X8652Y8665D01*
X8649Y8664D01*
X8646Y8663D01*
X8643Y8661D01*
X8640Y8660D01*
X8637Y8658D01*
X8634Y8657D01*
X8631Y8655D01*
X8628Y8654D01*
X8625Y8652D01*
X8622Y8650D01*
X8619Y8648D01*
X8617Y8646D01*
X8614Y8644D01*
X8611Y8642D01*
X8609Y8640D01*
X8606Y8638D01*
X8604Y8636D01*
X8601Y8633D01*
X8599Y8631D01*
X8596Y8629D01*
X8594Y8626D01*
X8592Y8623D01*
X8590Y8621D01*
X8588Y8618D01*
X8586Y8615D01*
X8584Y8613D01*
X8582Y8610D01*
X8580Y8607D01*
X8579Y8604D01*
X8577Y8601D01*
X9800Y7292D02*
X9800Y7289D01*
X9800Y7285D01*
X9800Y7282D01*
X9800Y7279D01*
X9799Y7275D01*
X9799Y7272D01*
X9798Y7269D01*
X9797Y7265D01*
X9796Y7262D01*
X9795Y7259D01*
X9794Y7256D01*
X9793Y7253D01*
X9792Y7250D01*
X9791Y7246D01*
X9789Y7243D01*
X9788Y7240D01*
X9786Y7237D01*
X9784Y7235D01*
X9783Y7232D01*
X9781Y7229D01*
X9779Y7226D01*
X9777Y7224D01*
X9775Y7221D01*
X9772Y7218D01*
X9770Y7216D01*
X9768Y7214D01*
X9765Y7211D01*
X9763Y7209D01*
X9760Y7207D01*
X9758Y7205D01*
X9755Y7203D01*
X9752Y7201D01*
X9750Y7199D01*
X9747Y7197D01*
X9744Y7195D01*
X9741Y7194D01*
X9738Y7192D01*
X9735Y7191D01*
X9732Y7190D01*
X9729Y7188D01*
X9725Y7187D01*
X9722Y7186D01*
X9719Y7185D01*
X9716Y7185D01*
X9712Y7184D01*
X9709Y7183D01*
X9706Y7183D01*
X9703Y7182D01*
X9699Y7182D01*
X9696Y7182D01*
X9693Y7182D01*
X9689Y7182D01*
X9686Y7182D01*
X9682Y7182D01*
X9679Y7182D01*
X9676Y7182D01*
X9672Y7183D01*
X9669Y7183D01*
X9666Y7184D01*
X9663Y7185D01*
X9659Y7186D01*
X9656Y7187D01*
X9653Y7188D01*
X9650Y7189D01*
X9647Y7190D01*
X9644Y7192D01*
X9641Y7193D01*
X9638Y7195D01*
X9635Y7196D01*
X9632Y7198D01*
X9629Y7200D01*
X9626Y7202D01*
X9624Y7204D01*
X9621Y7206D01*
X9618Y7208D01*
X9616Y7210D01*
X9613Y7212D01*
X9611Y7215D01*
X9609Y7217D01*
X9606Y7220D01*
X9604Y7222D01*
X9602Y7225D01*
X9600Y7228D01*
X9598Y7230D01*
X9596Y7233D01*
X9595Y7236D01*
X9593Y7239D01*
X9592Y7242D01*
X9590Y7245D01*
X9589Y7248D01*
X9587Y7251D01*
X9586Y7254D01*
X9585Y7257D01*
X9584Y7261D01*
X9583Y7264D01*
X9582Y7267D01*
X9582Y7270D01*
X9581Y7274D01*
X9581Y7277D01*
X9580Y7280D01*
X9580Y7284D01*
X9580Y7287D01*
X9580Y7290D01*
Y7294D01*
X9580Y7297D01*
X9580Y7300D01*
X9580Y7304D01*
X9581Y7307D01*
X9581Y7310D01*
X9582Y7314D01*
X9582Y7317D01*
X9583Y7320D01*
X9584Y7323D01*
X9585Y7327D01*
X9586Y7330D01*
X9587Y7333D01*
X9589Y7336D01*
X9590Y7339D01*
X9592Y7342D01*
X9593Y7345D01*
X9595Y7348D01*
X9596Y7351D01*
X9598Y7354D01*
X9600Y7356D01*
X9602Y7359D01*
X9604Y7362D01*
X9606Y7364D01*
X9609Y7367D01*
X9611Y7369D01*
X9613Y7372D01*
X9616Y7374D01*
X9618Y7376D01*
X9621Y7378D01*
X9624Y7380D01*
X9626Y7382D01*
X9629Y7384D01*
X9632Y7386D01*
X9635Y7388D01*
X9638Y7389D01*
X9641Y7391D01*
X9644Y7392D01*
X9647Y7394D01*
X9650Y7395D01*
X9653Y7396D01*
X9656Y7397D01*
X9659Y7398D01*
X9663Y7399D01*
X9666Y7400D01*
X9669Y7401D01*
X9672Y7401D01*
X9676Y7402D01*
X9679Y7402D01*
X9682Y7402D01*
X9686Y7402D01*
X9689Y7402D01*
X9693Y7402D01*
X9696Y7402D01*
X9699Y7402D01*
X9703Y7402D01*
X9706Y7401D01*
X9709Y7401D01*
X9712Y7400D01*
X9716Y7399D01*
X9719Y7399D01*
X9722Y7398D01*
X9725Y7397D01*
X9729Y7396D01*
X9732Y7394D01*
X9735Y7393D01*
X9738Y7392D01*
X9741Y7390D01*
X9744Y7389D01*
X9747Y7387D01*
X9750Y7385D01*
X9752Y7383D01*
X9755Y7381D01*
X9758Y7379D01*
X9760Y7377D01*
X9763Y7375D01*
X9765Y7373D01*
X9768Y7370D01*
X9770Y7368D01*
X9772Y7366D01*
X9775Y7363D01*
X9777Y7360D01*
X9779Y7358D01*
X9781Y7355D01*
X9783Y7352D01*
X9784Y7349D01*
X9786Y7347D01*
X9788Y7344D01*
X9789Y7341D01*
X9791Y7338D01*
X9792Y7334D01*
X9793Y7331D01*
X9794Y7328D01*
X9795Y7325D01*
X9796Y7322D01*
X9797Y7319D01*
X9798Y7315D01*
X9799Y7312D01*
X9799Y7309D01*
X9800Y7305D01*
X9800Y7302D01*
X9800Y7299D01*
X9800Y7295D01*
X9800Y7292D01*
X9730Y8102D02*
X9733Y8103D01*
X9736Y8104D01*
X9738Y8106D01*
X9741Y8107D01*
X9744Y8109D01*
X9747Y8110D01*
X9750Y8112D01*
X9752Y8114D01*
X9755Y8116D01*
X9757Y8118D01*
X9760Y8119D01*
X9762Y8122D01*
X9765Y8124D01*
X9767Y8126D01*
X9769Y8128D01*
X9772Y8130D01*
X9774Y8133D01*
X9776Y8135D01*
X9778Y8138D01*
X9780Y8140D01*
X9782Y8143D01*
X9730Y8102D02*
X9726Y8101D01*
X9722Y8099D01*
X9719Y8098D01*
X9664Y8098D02*
X9662Y8098D01*
X9659Y8099D01*
X9656Y8100D01*
X9654Y8101D01*
X9651Y8102D01*
X9648Y8103D01*
X9646Y8104D01*
X9643Y8105D01*
X9640Y8106D01*
X9638Y8108D02*
X9635Y8109D01*
X9632Y8111D01*
X9629Y8113D01*
X9627Y8115D01*
X9624Y8117D01*
X9621Y8119D01*
X9619Y8121D01*
X9616Y8123D01*
X9614Y8125D01*
X9611Y8128D01*
X9609Y8130D01*
X9607Y8133D01*
X9604Y8135D01*
X9602Y8138D01*
X9600Y8140D01*
X9598Y8143D01*
X9597Y8146D01*
X9595Y8149D01*
X9593Y8152D01*
X9592Y8155D01*
X9590Y8158D01*
X9589Y8161D01*
X9587Y8164D01*
X9586Y8167D01*
X9585Y8170D01*
X9584Y8173D01*
X9583Y8177D01*
X9582Y8180D01*
X9582Y8183D01*
X9581Y8187D01*
X9581Y8190D01*
X9580Y8193D01*
X9580Y8197D01*
X9580Y8200D01*
X9580Y8203D01*
X9580Y8207D01*
X9580Y8210D01*
X9580Y8213D01*
X9580Y8217D01*
X9581Y8220D01*
X9581Y8223D01*
X9582Y8227D01*
X9582Y8230D01*
X9583Y8233D01*
X9584Y8237D01*
X9585Y8240D01*
X9586Y8243D01*
X9587Y8246D01*
X9589Y8249D01*
X9590Y8252D01*
X9592Y8255D01*
X9593Y8258D01*
X9595Y8261D01*
X9597Y8264D01*
X9598Y8267D01*
X9600Y8270D01*
X9602Y8272D01*
X9604Y8275D01*
X9607Y8278D01*
X9609Y8280D01*
X9611Y8282D01*
X9614Y8285D01*
X9616Y8287D01*
X9619Y8289D01*
X9621Y8291D01*
X9624Y8294D01*
X11112Y7633D02*
X11112Y7629D01*
X11112Y7626D01*
X11112Y7622D01*
X11111Y7619D01*
X11111Y7616D01*
X11110Y7612D01*
X11110Y7609D01*
X11109Y7606D01*
X11108Y7603D01*
X11108Y7599D01*
X11107Y7596D01*
X11106Y7593D01*
X11105Y7590D01*
X11104Y7586D01*
X11102Y7583D01*
X11101Y7580D01*
X11100Y7577D01*
X11098Y7574D01*
X11096Y7570D02*
X11095Y7567D01*
X11093Y7564D01*
X11091Y7561D01*
X11090Y7559D01*
X11088Y7556D01*
X11086Y7553D01*
X11084Y7551D01*
X11082Y7548D01*
X11080Y7546D01*
X11078Y7543D01*
X11076Y7541D01*
X11073Y7539D01*
X11071Y7537D01*
X11069Y7534D01*
X11066Y7532D01*
X11064Y7530D01*
X11062Y7528D01*
X11059Y7526D01*
X11056Y7524D01*
X11054Y7522D01*
X11051Y7521D01*
X11112Y7633D02*
X11112Y7636D01*
X11112Y7639D01*
X11112Y7641D01*
X11111Y7644D01*
X11111Y7647D01*
X11111Y7650D01*
X11110Y7653D01*
X11110Y7656D01*
X11109Y7659D01*
X10616Y7293D02*
X10616Y7290D01*
X10616Y7286D01*
X10616Y7283D01*
X10616Y7280D01*
X10615Y7276D01*
X10615Y7273D01*
X10614Y7270D01*
X10613Y7266D01*
X10612Y7263D01*
X10611Y7260D01*
X10610Y7257D01*
X10609Y7254D01*
X10608Y7251D01*
X10607Y7247D01*
X10605Y7244D01*
X10604Y7241D01*
X10602Y7238D01*
X10600Y7236D01*
X10599Y7233D01*
X10597Y7230D01*
X10595Y7227D01*
X10593Y7225D01*
X10591Y7222D01*
X10588Y7219D01*
X10586Y7217D01*
X10584Y7215D01*
X10581Y7212D01*
X10579Y7210D01*
X10576Y7208D01*
X10574Y7206D01*
X10571Y7204D01*
X10568Y7202D01*
X10566Y7200D01*
X10563Y7198D01*
X10560Y7196D01*
X10557Y7195D01*
X10554Y7193D01*
X10551Y7192D01*
X10548Y7191D01*
X10545Y7189D01*
X10541Y7188D01*
X10538Y7187D01*
X10535Y7186D01*
X10532Y7186D01*
X10528Y7185D01*
X10525Y7184D01*
X10522Y7184D01*
X10519Y7183D01*
X10515Y7183D01*
X10512Y7183D01*
X10509Y7183D01*
X10505Y7183D01*
X10502Y7183D01*
X10498Y7183D01*
X10495Y7183D01*
X10492Y7183D01*
X10488Y7184D01*
X10485Y7184D01*
X10482Y7185D01*
X10479Y7186D01*
X10475Y7187D01*
X10472Y7188D01*
X10469Y7189D01*
X10466Y7190D01*
X10463Y7191D01*
X10460Y7193D01*
X10457Y7194D01*
X10454Y7196D01*
X10451Y7197D01*
X10448Y7199D01*
X10445Y7201D01*
X10442Y7203D01*
X10440Y7205D01*
X10437Y7207D01*
X10434Y7209D01*
X10432Y7211D01*
X10429Y7213D01*
X10427Y7216D01*
X10425Y7218D01*
X10422Y7221D01*
X10420Y7223D01*
X10418Y7226D01*
X10416Y7229D01*
X10414Y7231D01*
X10412Y7234D01*
X10411Y7237D01*
X10409Y7240D01*
X10408Y7243D01*
X10406Y7246D01*
X10405Y7249D01*
X10403Y7252D01*
X10402Y7255D01*
X10401Y7258D01*
X10400Y7262D01*
X10399Y7265D01*
X10398Y7268D01*
X10398Y7271D01*
X10397Y7275D01*
X10397Y7278D01*
X10396Y7281D01*
X10396Y7285D01*
X10396Y7288D01*
X10396Y7291D01*
Y7295D01*
X10396Y7298D01*
X10396Y7301D01*
X10396Y7305D01*
X10397Y7308D01*
X10397Y7311D01*
X10398Y7315D01*
X10398Y7318D01*
X10399Y7321D01*
X10400Y7324D01*
X10401Y7328D01*
X10402Y7331D01*
X10403Y7334D01*
X10405Y7337D01*
X10406Y7340D01*
X10408Y7343D01*
X10409Y7346D01*
X10411Y7349D01*
X10412Y7352D01*
X10414Y7355D01*
X10416Y7357D01*
X10418Y7360D01*
X10420Y7363D01*
X10422Y7365D01*
X10425Y7368D01*
X10427Y7370D01*
X10429Y7373D01*
X10432Y7375D01*
X10434Y7377D01*
X10437Y7379D01*
X10440Y7381D01*
X10442Y7383D01*
X10445Y7385D01*
X10448Y7387D01*
X10451Y7389D01*
X10454Y7390D01*
X10457Y7392D01*
X10460Y7393D01*
X10463Y7395D01*
X10466Y7396D01*
X10469Y7397D01*
X10472Y7398D01*
X10475Y7399D01*
X10479Y7400D01*
X10482Y7401D01*
X10485Y7402D01*
X10488Y7402D01*
X10492Y7403D01*
X10495Y7403D01*
X10498Y7403D01*
X10502Y7403D01*
X10505Y7403D01*
X10509Y7403D01*
X10512Y7403D01*
X10515Y7403D01*
X10519Y7403D01*
X10522Y7402D01*
X10525Y7402D01*
X10528Y7401D01*
X10532Y7400D01*
X10535Y7400D01*
X10538Y7399D01*
X10541Y7398D01*
X10545Y7397D01*
X10548Y7395D01*
X10551Y7394D01*
X10554Y7393D01*
X10557Y7391D01*
X10560Y7390D01*
X10563Y7388D01*
X10566Y7386D01*
X10568Y7384D01*
X10571Y7382D01*
X10574Y7380D01*
X10576Y7378D01*
X10579Y7376D01*
X10581Y7374D01*
X10584Y7371D01*
X10586Y7369D01*
X10588Y7367D01*
X10591Y7364D01*
X10593Y7361D01*
X10595Y7359D01*
X10597Y7356D01*
X10599Y7353D01*
X10600Y7350D01*
X10602Y7348D01*
X10604Y7345D01*
X10605Y7342D01*
X10607Y7339D01*
X10608Y7335D01*
X10609Y7332D01*
X10610Y7329D01*
X10611Y7326D01*
X10612Y7323D01*
X10613Y7320D01*
X10614Y7316D01*
X10615Y7313D01*
X10615Y7310D01*
X10616Y7306D01*
X10616Y7303D01*
X10616Y7300D01*
X10616Y7296D01*
X10616Y7293D01*
X10460Y8104D02*
X10463Y8103D01*
X10466Y8102D01*
X10469Y8100D01*
X10472Y8099D01*
X10476Y8098D01*
X10479Y8098D01*
X10482Y8097D01*
X10485Y8096D01*
X10489Y8096D01*
X10492Y8095D01*
X10495Y8095D01*
X10498Y8095D01*
X10502Y8095D01*
X10505Y8094D01*
X10508Y8095D01*
X10512Y8095D01*
X10515Y8095D01*
X10518Y8095D01*
X10522Y8096D01*
X10525Y8096D01*
X10528Y8097D01*
X10531Y8098D01*
X10535Y8099D01*
X10538Y8099D01*
X10541Y8100D01*
X10544Y8102D01*
X10547Y8103D01*
X10550Y8104D01*
X10553Y8106D01*
X10556Y8107D01*
X10559Y8109D01*
X10562Y8110D01*
X10565Y8112D01*
X10567Y8114D01*
X10570Y8116D01*
X10573Y8118D01*
X10575Y8120D01*
X10578Y8122D01*
X10580Y8124D01*
X10583Y8126D01*
X10585Y8129D01*
X10587Y8131D01*
X10589Y8134D01*
X10592Y8136D01*
X10594Y8139D01*
X10596Y8142D01*
X10597Y8144D01*
X10599Y8147D01*
X10601Y8150D01*
X10602Y8153D01*
X10604Y8156D01*
X10605Y8159D01*
X10607Y8162D01*
X10608Y8165D01*
X10615Y8215D02*
X10615Y8218D01*
X10614Y8221D01*
X10614Y8224D01*
X10613Y8228D01*
X10612Y8231D01*
X10612Y8234D01*
X10611Y8237D01*
X10610Y8240D01*
X10609Y8244D01*
X10607Y8247D01*
X10606Y8250D01*
X10605Y8253D01*
X10603Y8256D01*
X10602Y8258D01*
X10600Y8261D01*
X10598Y8264D01*
X10597Y8267D01*
X10595Y8270D01*
X10593Y8272D01*
X10591Y8275D01*
X10588Y8277D01*
X10586Y8280D01*
X10584Y8282D01*
X10582Y8285D01*
X10579Y8287D01*
X10577Y8289D01*
X10574Y8291D01*
X10572Y8293D01*
X10569Y8295D01*
X10566Y8297D01*
X10563Y8299D01*
X10561Y8300D01*
X10558Y8302D01*
X10555Y8304D01*
X10552Y8305D01*
X10549Y8306D01*
X10546Y8308D01*
X10543Y8309D01*
X10540Y8310D01*
X10536Y8311D01*
X10533Y8312D01*
X10530Y8313D01*
X10527Y8313D01*
X10524Y8314D01*
X10520Y8314D01*
X10517Y8315D01*
X10514Y8315D01*
X10510Y8315D01*
X10507Y8315D01*
X10504Y8315D01*
X10501Y8315D01*
X10497Y8315D01*
X10494Y8315D01*
X10491Y8315D01*
X10487Y8314D01*
X10484Y8314D01*
X10481Y8313D01*
X10478Y8312D01*
X10475Y8311D01*
X10471Y8310D01*
X10468Y8309D01*
X10465Y8308D01*
X10462Y8307D01*
X10459Y8306D01*
X10456Y8304D01*
X10453Y8303D01*
X10450Y8301D01*
X10447Y8299D01*
X10445Y8298D01*
X10442Y8296D01*
X10439Y8294D01*
X10437Y8292D01*
X10434Y8290D01*
X10432Y8288D01*
X10429Y8285D01*
X10427Y8283D01*
X10424Y8281D01*
X10422Y8278D01*
X10420Y8276D01*
X10418Y8273D01*
X10416Y8270D01*
X10414Y8268D01*
X10412Y8265D01*
X10410Y8262D01*
X10063Y8718D02*
X10065Y8720D01*
X10068Y8723D01*
X10070Y8726D01*
X10072Y8730D01*
X10073Y8733D01*
X10074Y8736D01*
X10075Y8740D01*
X10076Y8744D01*
X10076Y8748D01*
X10076Y8751D01*
X10076Y8754D01*
X10075Y8757D01*
X10074Y8760D01*
X10073Y8763D01*
X10072Y8766D01*
X9950Y8708D02*
X9947Y8708D01*
X9944Y8709D01*
X9941Y8710D01*
X9938Y8712D01*
X9935Y8713D01*
X9933Y8715D01*
X9930Y8717D01*
X9928Y8719D01*
X9926Y8721D01*
X9924Y8724D01*
X9922Y8726D01*
X9921Y8729D01*
X9919Y8732D01*
X9918Y8735D01*
X9917Y8738D01*
X9917Y8741D01*
X9916Y8744D01*
X9916Y8747D01*
X9916Y8750D01*
X9917Y8754D01*
X9917Y8757D01*
X9918Y8760D01*
X9919Y8763D01*
X9920Y8766D01*
X10781Y8538D02*
X10781Y8534D01*
X10780Y8531D01*
X10780Y8528D01*
X10779Y8525D01*
X10778Y8522D01*
X10776Y8518D01*
X10775Y8516D01*
X10773Y8513D01*
X10771Y8510D01*
X10769Y8508D01*
X10766Y8505D01*
X10764Y8503D01*
X10761Y8501D01*
X10758Y8499D01*
X10755Y8498D01*
X10752Y8496D01*
X10749Y8495D01*
X10746Y8494D01*
X10743Y8494D01*
X10740Y8493D01*
X10736Y8493D01*
X10733Y8493D01*
X10730Y8494D01*
X10726Y8494D01*
X10723Y8495D01*
X10720Y8496D01*
X10717Y8498D01*
X10714Y8499D01*
X10711Y8501D01*
X10708Y8503D01*
X10706Y8505D01*
X10704Y8508D01*
X10701Y8510D01*
X10699Y8513D01*
X10698Y8516D01*
X10696Y8518D01*
X10695Y8522D01*
X10694Y8525D01*
X10693Y8528D01*
X10692Y8531D01*
X10692Y8534D01*
X10692Y8538D01*
X10692Y8541D01*
X10692Y8544D01*
X10693Y8548D01*
X10694Y8551D01*
X10695Y8554D01*
X10696Y8557D01*
X10698Y8560D01*
X10699Y8563D01*
X10701Y8566D01*
X10704Y8568D01*
X10706Y8570D01*
X10708Y8573D01*
X10711Y8575D01*
X10714Y8576D01*
X10717Y8578D01*
X10720Y8579D01*
X10723Y8580D01*
X10726Y8581D01*
X10730Y8582D01*
X10733Y8582D01*
X10736Y8582D01*
X10740Y8582D01*
X10743Y8582D01*
X10746Y8581D01*
X10749Y8580D01*
X10752Y8579D01*
X10755Y8578D01*
X10758Y8576D01*
X10761Y8575D01*
X10764Y8573D01*
X10766Y8570D01*
X10769Y8568D01*
X10771Y8566D01*
X10773Y8563D01*
X10775Y8560D01*
X10776Y8557D01*
X10778Y8554D01*
X10779Y8551D01*
X10780Y8548D01*
X10780Y8544D01*
X10781Y8541D01*
X10781Y8538D01*
X8968Y8568D02*
X8966Y8571D01*
X8963Y8573D01*
X8960Y8575D01*
X8958Y8577D01*
X8955Y8578D01*
X8952Y8580D01*
X8948Y8581D01*
X8945Y8581D01*
X8942Y8582D01*
X8938Y8582D01*
X8935Y8582D01*
X8932Y8582D01*
X8928Y8582D01*
X8925Y8581D01*
X8922Y8580D01*
X8919Y8579D01*
X8916Y8578D01*
X8913Y8576D01*
X8910Y8574D01*
X8907Y8572D01*
X8905Y8570D01*
X8903Y8567D01*
X8900Y8565D01*
X8899Y8562D01*
X8897Y8559D01*
X8895Y8556D01*
X8894Y8553D01*
X8893Y8550D01*
X8892Y8547D01*
X8892Y8543D01*
X8891Y8540D01*
X8891Y8537D01*
X8892Y8533D01*
X8892Y8530D01*
X8893Y8527D01*
X8894Y8524D01*
X8895Y8520D01*
X8896Y8517D01*
X8898Y8514D01*
X8900Y8512D01*
X8902Y8509D01*
X8904Y8507D01*
X8907Y8504D01*
X8909Y8502D01*
X8912Y8500D01*
X8915Y8499D01*
X8918Y8497D01*
X8921Y8496D01*
X8924Y8495D01*
X8928Y8494D01*
X8931Y8494D01*
X8934Y8493D01*
X8938Y8493D01*
X8941Y8494D01*
X8944Y8494D01*
X8947Y8495D01*
X8951Y8496D01*
X8954Y8497D01*
X8957Y8499D01*
X8960Y8500D01*
X8962Y8502D01*
X8965Y8504D01*
X8968Y8507D01*
X8973Y8563D02*
X8971Y8565D01*
X8970Y8567D01*
X8968Y8568D01*
X8790Y8250D02*
X8787Y8247D01*
X8785Y8245D01*
X8783Y8242D01*
X8782Y8239D01*
X8781Y8235D01*
X8780Y8232D01*
X8779Y8229D01*
X8778Y8225D01*
X8778Y8222D01*
X8778Y8218D01*
X8779Y8215D01*
X8779Y8212D01*
X8780Y8208D01*
X8781Y8205D01*
X8783Y8202D01*
X8785Y8199D01*
X8787Y8196D01*
X8789Y8194D01*
X8791Y8191D01*
X8794Y8189D01*
X8797Y8187D01*
X8859Y8071D02*
X8859Y8068D01*
X8858Y8064D01*
X8858Y8061D01*
X8857Y8058D01*
X8856Y8054D01*
X8854Y8051D01*
X8852Y8049D01*
X8850Y8046D01*
X8848Y8043D01*
X8846Y8041D01*
X8843Y8039D01*
X8840Y8037D01*
X8837Y8035D01*
X8834Y8034D01*
X8831Y8032D01*
X8828Y8032D01*
X8824Y8031D01*
X8821Y8031D01*
X8818Y8030D01*
X8814Y8031D01*
X8811Y8031D01*
X8808Y8032D01*
X8804Y8033D01*
X8801Y8034D01*
X8798Y8036D01*
X8795Y8038D01*
X8793Y8040D01*
X8790Y8042D01*
X8788Y8044D01*
X8786Y8047D01*
X8784Y8050D01*
X8782Y8053D01*
X8781Y8056D01*
X8780Y8059D01*
X8779Y8063D01*
X8778Y8066D01*
X8778Y8069D01*
Y8073D01*
X8778Y8076D01*
X8779Y8079D01*
X8780Y8083D01*
X8781Y8086D01*
X8782Y8089D01*
X8784Y8092D01*
X8786Y8095D01*
X8788Y8097D01*
X8790Y8100D01*
X8793Y8102D01*
X8795Y8104D01*
X8798Y8106D01*
X8801Y8108D01*
X8804Y8109D01*
X8808Y8110D01*
X8811Y8111D01*
X8814Y8111D01*
X8818Y8111D01*
X8821Y8111D01*
X8824Y8111D01*
X8828Y8110D01*
X8831Y8109D01*
X8834Y8108D01*
X8837Y8107D01*
X8840Y8105D01*
X8843Y8103D01*
X8846Y8101D01*
X8848Y8099D01*
X8850Y8096D01*
X8852Y8093D01*
X8854Y8090D01*
X8856Y8087D01*
X8857Y8084D01*
X8858Y8081D01*
X8858Y8078D01*
X8859Y8074D01*
X8859Y8071D01*
X9968Y7232D02*
X9970Y7234D01*
X9973Y7236D01*
X9976Y7237D01*
X9979Y7240D01*
X9981Y7242D01*
X9983Y7244D01*
X9986Y7247D01*
X9988Y7249D01*
X9989Y7252D01*
X9991Y7255D01*
X9992Y7258D01*
X9994Y7261D01*
X9995Y7264D01*
X9995Y7268D01*
X9996Y7271D01*
Y7285D02*
X9995Y7288D01*
X9995Y7292D01*
X9994Y7295D01*
X9992Y7298D01*
X9991Y7301D01*
X9989Y7304D01*
X9988Y7307D01*
X9986Y7309D01*
X9984Y7312D01*
X9981Y7314D01*
X9979Y7316D01*
X9976Y7318D01*
X9974Y7320D01*
X9971Y7322D01*
X9968Y7324D01*
X9965Y7325D01*
X9962Y7326D01*
X9958Y7327D01*
X9955Y7328D01*
X9952Y7328D01*
X9949Y7328D01*
X9945Y7328D01*
X9942Y7328D01*
X9939Y7328D01*
X9935Y7327D01*
X9932Y7327D01*
X9929Y7326D01*
X9926Y7324D01*
X9923Y7323D01*
X9920Y7321D01*
X9917Y7320D01*
X9915Y7318D01*
X9912Y7315D01*
X9910Y7313D01*
X9908Y7311D01*
X9905Y7308D01*
X9904Y7305D01*
X9902Y7303D01*
X9900Y7300D01*
X9899Y7297D01*
X9898Y7293D01*
X9897Y7290D01*
X9896Y7287D01*
X9896Y7284D01*
X9896Y7280D01*
X9896Y7277D01*
X9896Y7274D01*
X9896Y7271D01*
X9897Y7267D01*
X9897Y7264D01*
X9898Y7261D01*
X9900Y7258D01*
X9901Y7255D01*
X9903Y7252D01*
X9905Y7249D01*
X9906Y7247D01*
X9909Y7244D01*
X9911Y7242D01*
X9913Y7239D01*
X9916Y7237D01*
X9919Y7236D01*
X9922Y7234D01*
X9924Y7232D01*
X9996Y7271D02*
X9997Y7268D01*
X9997Y7264D01*
X9998Y7261D01*
X10000Y7258D01*
X10001Y7255D01*
X10003Y7252D01*
X10005Y7249D01*
X10007Y7246D01*
X10009Y7243D01*
X10012Y7241D01*
X10014Y7239D01*
X10017Y7237D01*
X10020Y7235D01*
X10023Y7233D01*
X10026Y7232D01*
X10029Y7230D01*
X10032Y7229D01*
X10036Y7229D01*
X10039Y7228D01*
X10043Y7228D01*
X10046Y7228D01*
X10049Y7228D01*
X10053Y7228D01*
X10056Y7229D01*
X10060Y7229D01*
X10063Y7230D01*
X10066Y7232D01*
X10069Y7233D01*
X10072Y7235D01*
X10075Y7237D01*
X10078Y7239D01*
X10080Y7241D01*
X10083Y7243D01*
X10085Y7246D01*
X10087Y7249D01*
X10089Y7252D01*
X10091Y7255D01*
X10092Y7258D01*
X10094Y7261D01*
X10095Y7264D01*
X10095Y7268D01*
X10096Y7271D01*
Y7285D02*
X10095Y7288D01*
X10095Y7292D01*
X10094Y7295D01*
X10092Y7298D01*
X10091Y7301D01*
X10089Y7304D01*
X10087Y7307D01*
X10085Y7310D01*
X10083Y7313D01*
X10080Y7315D01*
X10078Y7317D01*
X10075Y7319D01*
X10072Y7321D01*
X10069Y7323D01*
X10066Y7324D01*
X10063Y7326D01*
X10060Y7327D01*
X10056Y7327D01*
X10053Y7328D01*
X10049Y7328D01*
X10046Y7328D01*
X10043Y7328D01*
X10039Y7328D01*
X10036Y7327D01*
X10032Y7327D01*
X10029Y7326D01*
X10026Y7324D01*
X10023Y7323D01*
X10020Y7321D01*
X10017Y7319D01*
X10014Y7317D01*
X10012Y7315D01*
X10009Y7313D01*
X10007Y7310D01*
X10005Y7307D01*
X10003Y7304D01*
X10001Y7301D01*
X10000Y7298D01*
X9998Y7295D01*
X9997Y7292D01*
X9997Y7288D01*
X9996Y7285D01*
X10096Y7271D02*
X10097Y7268D01*
X10097Y7264D01*
X10098Y7261D01*
X10100Y7258D01*
X10101Y7255D01*
X10103Y7252D01*
X10105Y7249D01*
X10107Y7246D01*
X10109Y7243D01*
X10112Y7241D01*
X10114Y7239D01*
X10117Y7237D01*
X10120Y7235D01*
X10123Y7233D01*
X10126Y7232D01*
X10129Y7230D01*
X10132Y7229D01*
X10136Y7229D01*
X10139Y7228D01*
X10143Y7228D01*
X10146Y7228D01*
X10149Y7228D01*
X10153Y7228D01*
X10156Y7229D01*
X10160Y7229D01*
X10163Y7230D01*
X10166Y7232D01*
X10169Y7233D01*
X10172Y7235D01*
X10175Y7237D01*
X10178Y7239D01*
X10180Y7241D01*
X10183Y7243D01*
X10185Y7246D01*
X10187Y7249D01*
X10189Y7252D01*
X10191Y7255D01*
X10192Y7258D01*
X10194Y7261D01*
X10195Y7264D01*
X10195Y7268D01*
X10196Y7271D01*
Y7285D02*
X10195Y7288D01*
X10195Y7292D01*
X10194Y7295D01*
X10192Y7298D01*
X10191Y7301D01*
X10189Y7304D01*
X10187Y7307D01*
X10185Y7310D01*
X10183Y7313D01*
X10180Y7315D01*
X10178Y7317D01*
X10175Y7319D01*
X10172Y7321D01*
X10169Y7323D01*
X10166Y7324D01*
X10163Y7326D01*
X10160Y7327D01*
X10156Y7327D01*
X10153Y7328D01*
X10149Y7328D01*
X10146Y7328D01*
X10143Y7328D01*
X10139Y7328D01*
X10136Y7327D01*
X10132Y7327D01*
X10129Y7326D01*
X10126Y7324D01*
X10123Y7323D01*
X10120Y7321D01*
X10117Y7319D01*
X10114Y7317D01*
X10112Y7315D01*
X10109Y7313D01*
X10107Y7310D01*
X10105Y7307D01*
X10103Y7304D01*
X10101Y7301D01*
X10100Y7298D01*
X10098Y7295D01*
X10097Y7292D01*
X10097Y7288D01*
X10096Y7285D01*
X10196Y7271D02*
X10197Y7268D01*
X10197Y7264D01*
X10198Y7261D01*
X10200Y7258D01*
X10201Y7255D01*
X10203Y7252D01*
X10205Y7249D01*
X10207Y7246D01*
X10209Y7244D01*
X10211Y7242D01*
X10214Y7239D01*
X10216Y7237D01*
X10219Y7235D01*
X10222Y7234D01*
X10225Y7232D01*
X10228Y7231D01*
X10231Y7230D01*
X10235Y7229D01*
X10238Y7228D01*
X10241Y7228D01*
X10245Y7228D01*
X10248Y7228D01*
X10251Y7228D01*
X10255Y7228D01*
X10258Y7229D01*
X10261Y7230D01*
X10264Y7231D01*
X10267Y7232D01*
X10270Y7234D01*
X10273Y7235D01*
X10276Y7237D01*
X10279Y7240D01*
X10281Y7242D01*
X10284Y7244D01*
X10286Y7247D01*
X10288Y7249D01*
X10289Y7252D01*
X10291Y7255D01*
X10293Y7258D01*
X10294Y7261D01*
X10295Y7265D01*
X10295Y7268D01*
X10296Y7271D01*
X10296Y7275D01*
X10296Y7278D01*
X10296Y7281D01*
X10296Y7285D01*
X10295Y7288D01*
X10295Y7291D01*
X10294Y7295D01*
X10293Y7298D01*
X10291Y7301D01*
X10289Y7304D01*
X10288Y7307D01*
X10286Y7309D01*
X10284Y7312D01*
X10281Y7314D01*
X10279Y7316D01*
X10276Y7319D01*
X10273Y7321D01*
X10270Y7322D01*
X10267Y7324D01*
X10264Y7325D01*
X10261Y7326D01*
X10258Y7327D01*
X10255Y7328D01*
X10251Y7328D01*
X10248Y7328D01*
X10245Y7328D01*
X10241Y7328D01*
X10238Y7328D01*
X10235Y7327D01*
X10231Y7326D01*
X10228Y7325D01*
X10225Y7324D01*
X10222Y7322D01*
X10219Y7321D01*
X10216Y7319D01*
X10214Y7317D01*
X10211Y7314D01*
X10209Y7312D01*
X10207Y7310D01*
X10205Y7307D01*
X10203Y7304D01*
X10201Y7301D01*
X10200Y7298D01*
X10198Y7295D01*
X10197Y7292D01*
X10197Y7288D01*
X10196Y7285D01*
D17*
X10346Y7208D02*
X10466Y7088D01*
X10646Y7228D02*
X11157Y7229D01*
X11176Y7208D02*
X10666D01*
X10751Y7088D02*
X10466D01*
X10681Y7108D02*
X10696D01*
X10481D01*
X10936Y7143D02*
X10966D01*
X10931Y7083D02*
X10896D01*
X10961Y7143D02*
X10981D01*
X10326Y7378D02*
X10101D01*
X10106Y7398D02*
X10336D01*
X9977Y7594D02*
X9952D01*
X10641Y7598D02*
X10706D01*
X9746Y7588D02*
X9656D01*
X10836Y7493D02*
X11056D01*
X10017Y7459D02*
X9942D01*
X10782Y7769D02*
X10832D01*
X10256Y7773D02*
X10246D01*
X10247Y7769D02*
X10227D01*
X10247D02*
X10387D01*
X10092D02*
X10057D01*
X10227Y7794D02*
X10247D01*
X10392D01*
X10047Y7799D02*
X9992D01*
X9997D01*
X10017Y7744D02*
X10052D01*
X10242Y7714D02*
X10282D01*
X11156Y7648D02*
X11196D01*
X11156D02*
X11116D01*
X10242Y7719D02*
X10222D01*
X10242Y7704D02*
X10287D01*
Y7709D02*
X10242D01*
Y7719D02*
X10297D01*
X10052D02*
X10027D01*
X10172Y7644D02*
X10242D01*
X10172D02*
X10147D01*
X9852D02*
X9812D01*
X9807D02*
X9817D01*
X9867Y7619D02*
X9887D01*
X9852D02*
X9832D01*
X9396Y7703D02*
X9236D01*
X9522Y7689D02*
X9567D01*
X10762Y7954D02*
X10772D01*
X10777Y7959D02*
X10762D01*
X10636Y7968D02*
X10631D01*
X10541D01*
X10516Y7993D02*
X10426D01*
X10117Y7934D02*
X10112D01*
X9571Y7943D02*
X9466D01*
X10056Y7998D02*
X10246D01*
X10072Y7969D02*
X9928D01*
X10147Y7869D02*
X10172D01*
X10147D02*
X10122D01*
X10167D02*
X10292D01*
X10097Y7929D02*
X10052D01*
X9862Y7869D02*
X9782D01*
X9907Y7804D02*
X9997D01*
X9566Y7888D02*
X9466D01*
X9341Y7908D02*
X9286D01*
Y7848D02*
X9326D01*
X9306Y8143D02*
X9411D01*
X10226Y8131D02*
X10296D01*
X10281Y8158D02*
X10316D01*
X10816Y8168D02*
X10836D01*
X10856Y8193D02*
X10876D01*
X10856Y8168D02*
X10836D01*
X10856Y8193D02*
X10861D01*
Y8168D02*
X10866D01*
Y8193D02*
X10876D01*
Y8168D02*
X10856D01*
X10871D01*
X10796D02*
X10776D01*
X10761D02*
X10751D01*
X10746Y8173D02*
X10756D01*
X10741Y8163D02*
X10796D01*
X10816D02*
X10876D01*
X10871Y8158D02*
X10816D01*
X10796D02*
X10746D01*
X10741Y8168D02*
X10776D01*
X8816Y8008D02*
X8761D01*
X8801D02*
X8896D01*
X9891Y8023D02*
X9966D01*
X10016Y8123D02*
X10076D01*
X10116Y8023D02*
X10146D01*
X10896Y8103D02*
X10931D01*
X10901D02*
X10796D01*
X10716D01*
X10766Y8058D02*
X10836D01*
X10336Y8073D02*
X10321D01*
X10271Y8103D02*
X10186D01*
X10436Y8048D02*
X10516D01*
X10551Y8013D02*
X10591D01*
X9566Y8003D02*
X9466D01*
X9966Y8023D02*
X10031D01*
X10261Y8013D02*
X10361D01*
X9691Y8063D02*
X9371D01*
X9306Y8003D02*
X9466D01*
X9636Y8098D02*
X9756D01*
X9621Y8088D02*
X9336D01*
X9631Y8078D02*
X9726D01*
X10706Y8103D02*
X10716D01*
X10651Y8053D02*
X10561D01*
X9967Y8324D02*
X9932D01*
X9917Y8309D02*
X9882D01*
X9321Y8253D02*
X9276D01*
X10661Y8353D02*
X10776D01*
X8756Y8328D02*
X8701D01*
X9566D02*
X9706D01*
X8886Y8353D02*
X8846D01*
X8851D02*
X8836D01*
X9256Y8328D02*
X9566D01*
X9256D02*
X9246D01*
X9701D02*
X9791D01*
X10066Y8218D02*
X10096D01*
Y8253D02*
X10021D01*
X10576Y8323D02*
X10631D01*
X10314Y8255D02*
X10249D01*
X10271Y8283D02*
X10356D01*
X10691Y8318D02*
X10776D01*
X10781Y8283D02*
X10746D01*
X10826D02*
X10861D01*
X10786Y8258D02*
X10746D01*
X10826D02*
X10861D01*
X10781Y8228D02*
X10746D01*
X10831D02*
X10861D01*
X10751Y8198D02*
X10746D01*
X8746Y8293D02*
X8631D01*
X8801Y8308D02*
X8811D01*
X9551Y8313D02*
X9776D01*
X9241Y8323D02*
X9216D01*
X9231Y8253D02*
X9276D01*
X9231Y8198D02*
X9186D01*
X9291Y8313D02*
X9551D01*
X9276Y8298D02*
X9241D01*
X9411Y8223D02*
X9536D01*
X9657Y8544D02*
X9377D01*
X9347Y8569D02*
X9567D01*
X10837Y8719D02*
X10972D01*
X10852D02*
X10822D01*
X10902Y8759D02*
X10952D01*
X8731Y8173D02*
Y8038D01*
X8761Y8008D01*
X8736Y8243D02*
X8806Y8318D01*
X8987Y8449D02*
Y8549D01*
X8811Y8323D02*
Y8268D01*
X8916Y8263D02*
Y8323D01*
X8807Y8314D02*
X8802Y8309D01*
X8987Y8549D02*
X9037Y8599D01*
X8986Y8773D02*
X9001Y8788D01*
X8901D02*
X8886Y8773D01*
X8836Y8353D02*
X8821Y8338D01*
X8986Y8773D02*
X8966Y8793D01*
X8886Y8773D02*
X8866Y8793D01*
X8886Y8353D02*
X8916Y8323D01*
X8911Y8198D02*
X8821Y8173D01*
X8992Y8064D02*
Y8304D01*
X9037Y8599D02*
Y8724D01*
X9142Y8699D02*
Y8634D01*
X9087Y8579D02*
Y8569D01*
Y8449D01*
X9126Y7978D02*
Y7878D01*
Y7978D02*
Y8168D01*
X9151Y8008D02*
Y8603D01*
Y8598D01*
X9126Y8573D02*
Y8323D01*
X9136Y8313D02*
Y8208D01*
X9126Y8188D02*
Y8168D01*
X9136Y8198D02*
Y8218D01*
X9051Y7953D02*
Y7903D01*
X9021Y7928D02*
Y8083D01*
Y8078D02*
Y8523D01*
X9111Y8248D02*
Y8003D01*
X9061Y7993D02*
Y8278D01*
X9046Y8083D02*
Y7983D01*
X9051Y7978D02*
Y7953D01*
X9046Y8353D02*
Y8548D01*
X9036Y8343D02*
Y8308D01*
X9046Y8298D02*
Y8078D01*
X9061Y8273D02*
Y8323D01*
X9111Y8298D02*
Y8243D01*
X9076Y7978D02*
Y7873D01*
Y7878D01*
X9101Y7823D02*
Y7993D01*
X9087Y8579D02*
X9142Y8634D01*
X9136Y8198D02*
X9126Y8188D01*
X9111Y8003D02*
X9101Y7993D01*
X9036Y8343D02*
X9046Y8353D01*
X9076Y7873D02*
X9051Y7848D01*
X9136Y8313D02*
X9126Y8323D01*
X9046Y7983D02*
X9051Y7978D01*
X9061Y7993D02*
X9076Y7978D01*
X9046Y8298D02*
X9036Y8308D01*
X9357Y8504D02*
Y8524D01*
X9322Y8504D02*
Y8544D01*
X9321Y8193D02*
Y8143D01*
X9306D02*
Y8003D01*
X9186Y7898D02*
Y8393D01*
X9236Y7908D02*
Y7848D01*
Y7788D01*
Y7798D02*
Y7773D01*
Y7703D01*
X9357Y8524D02*
X9377Y8544D01*
X9347Y8569D02*
X9322Y8544D01*
X9341Y7863D02*
X9326Y7848D01*
X9241Y8323D02*
X9246Y8328D01*
X9196Y8198D02*
X9186Y8188D01*
X9276Y8298D02*
X9291Y8313D01*
X9341Y7908D02*
X9366Y7883D01*
X9196Y8198D02*
X9186Y8208D01*
X9411Y8173D02*
Y8143D01*
X9566Y8003D02*
Y7888D01*
X9516D02*
Y8003D01*
X9536Y8198D02*
Y8223D01*
X9566Y7888D02*
Y7693D01*
Y7698D02*
Y7678D01*
X9466Y7888D02*
Y8003D01*
X9411Y8173D02*
Y8223D01*
X9396Y7758D02*
Y7703D01*
X9486Y8428D02*
Y8508D01*
X9386Y8483D02*
Y8438D01*
X9567Y8569D02*
X9587Y8589D01*
X9567Y7699D02*
X9557Y7689D01*
X9636Y8098D02*
X9536Y8198D01*
X9566Y7678D02*
X9596Y7648D01*
X9567Y7679D02*
X9557Y7689D01*
X9737Y8454D02*
Y8699D01*
X9682Y8629D02*
Y8569D01*
X9587Y8589D02*
Y8629D01*
X9741Y8063D02*
Y7958D01*
X9706D02*
Y8048D01*
X9631Y7838D02*
Y7718D01*
X9657Y8544D02*
X9682Y8569D01*
X9756Y8098D02*
X9776Y8078D01*
X9741Y8063D02*
X9726Y8078D01*
X9706Y8048D02*
X9691Y8063D01*
X9631Y8078D02*
X9621Y8088D01*
X9596Y7648D02*
X9656Y7588D01*
X9746D02*
X9781Y7568D01*
X9837Y8509D02*
Y8724D01*
Y8514D02*
Y8454D01*
X9881Y8248D02*
Y8173D01*
X9912Y7694D02*
Y7569D01*
Y7564D02*
Y7579D01*
X9937Y7594D02*
Y7529D01*
Y7644D02*
Y7714D01*
X9786Y8443D02*
Y8558D01*
X9886Y8533D02*
Y8433D01*
Y8173D02*
Y8023D01*
X9897Y7689D02*
Y7629D01*
X9782Y7744D02*
Y7809D01*
Y7689D02*
Y7619D01*
X9801Y7978D02*
Y8288D01*
X9861Y7903D02*
Y7783D01*
X9826Y7958D02*
Y7988D01*
X9816Y7998D02*
Y8303D01*
X9776Y8078D02*
Y8053D01*
X9826Y7833D02*
Y7723D01*
Y7733D02*
Y7703D01*
X9882Y8339D02*
X9892Y8349D01*
X9917Y8309D02*
X9932Y8324D01*
X9922Y7704D02*
X9912Y7694D01*
X9897Y7629D02*
X9887Y7619D01*
X9852Y7869D02*
X9862Y7879D01*
X9912Y7564D02*
X9882Y7534D01*
X9792Y7629D02*
X9807Y7644D01*
X9832Y7619D02*
X9787Y7574D01*
X9861Y7903D02*
X9926Y7968D01*
X9871Y7708D02*
X9846Y7683D01*
X9882Y8339D02*
X9867Y8354D01*
X9986Y8553D02*
X9966Y8573D01*
X9887Y7514D02*
X9942Y7459D01*
X9882Y7764D02*
X9862Y7784D01*
Y7859D02*
X9852Y7869D01*
X9877Y7709D02*
X9897Y7689D01*
X9922Y7724D02*
X9882Y7764D01*
X9801Y8288D02*
X9776Y8313D01*
X9816Y7998D02*
X9826Y7988D01*
X9816Y8303D02*
X9791Y8328D01*
X9826Y7703D02*
X9846Y7683D01*
X9906Y8178D02*
X9956Y8243D01*
X9946Y7908D02*
X9912Y7859D01*
X10136Y8343D02*
Y8368D01*
X10125Y8293D02*
Y8223D01*
X10141Y8203D02*
Y8143D01*
Y8093D01*
X10156Y8033D02*
Y8248D01*
X10136Y8458D02*
Y8508D01*
Y8463D02*
Y8363D01*
X10122Y7869D02*
Y7844D01*
Y7829D02*
Y7799D01*
X10117Y7874D02*
Y7904D01*
X10147Y7869D02*
Y7844D01*
Y7829D02*
Y7799D01*
Y7674D02*
Y7644D01*
X9986Y8518D02*
Y8553D01*
Y8528D02*
Y8433D01*
Y8598D02*
Y8633D01*
X10036Y8748D02*
Y8368D01*
X10021Y8353D02*
Y8333D01*
X9994Y8293D02*
Y8148D01*
X10096Y8258D02*
Y8323D01*
Y8253D02*
Y8173D01*
X10097Y7729D02*
Y7689D01*
X10092Y7844D02*
Y7934D01*
Y7669D02*
Y7614D01*
X9997Y7864D02*
Y7924D01*
X9992Y7719D02*
Y7609D01*
X10012Y7704D02*
Y7494D01*
X10156Y8263D02*
X10186Y8293D01*
X10156Y8033D02*
X10146Y8023D01*
X10136Y8508D02*
X10186Y8558D01*
X10096Y8228D02*
X10086Y8218D01*
X10021Y8353D02*
X10036Y8368D01*
X10117Y7934D02*
X10097Y7914D01*
Y7919D02*
X10112Y7934D01*
X10102D02*
X10092Y7924D01*
X10077Y7929D02*
X10087Y7939D01*
X10027Y7719D02*
X10012Y7704D01*
X9992Y7719D02*
X10017Y7744D01*
X9992Y7609D02*
X9977Y7594D01*
X10146Y8333D02*
X10136Y8343D01*
X10086Y8218D02*
X10096Y8208D01*
X10086Y7393D02*
X10101Y7378D01*
X10097Y7919D02*
X10092Y7924D01*
X10087Y7919D02*
X10077Y7929D01*
X10092Y7949D02*
X10072Y7969D01*
X10017Y7459D02*
X10087Y7389D01*
X10107Y7399D02*
X10012Y7494D01*
X10056Y7998D02*
X10031Y8023D01*
X10125Y8293D02*
X10141Y8313D01*
X10125Y8223D02*
X10141Y8203D01*
Y8093D02*
X10121Y8078D01*
X9994Y8293D02*
X10011Y8313D01*
X9994Y8148D02*
X10016Y8123D01*
X10346Y7213D02*
Y7208D01*
Y7213D02*
Y7358D01*
X10311Y8083D02*
Y8113D01*
X10346Y8098D02*
Y8128D01*
X10186Y8293D02*
Y8358D01*
Y8198D02*
Y8168D01*
X10271Y8158D02*
Y8228D01*
X10186Y8558D02*
Y8648D01*
Y8383D02*
Y8358D01*
X10287Y7714D02*
Y7704D01*
Y7709D02*
Y7714D01*
X10247Y7769D02*
Y7794D01*
X10242Y7719D02*
Y7644D01*
X10262Y7874D02*
Y7904D01*
X10172Y7869D02*
Y7844D01*
Y7834D02*
Y7799D01*
Y7669D02*
Y7644D01*
X10356Y8013D02*
X10381Y8038D01*
X10261Y8013D02*
X10246Y7998D01*
X10326Y7378D02*
X10346Y7358D01*
X10371Y7363D02*
X10336Y7398D01*
X10321Y8073D02*
X10311Y8083D01*
X10346Y8128D02*
X10316Y8158D01*
X10391Y8248D02*
X10356Y8283D01*
X10296Y8131D02*
X10311Y8113D01*
X10343Y8232D02*
X10314Y8255D01*
X10226Y8131D02*
X10196Y8148D01*
X10186Y8198D02*
X10248Y8255D01*
X10371Y7363D02*
Y7218D01*
X10391Y8208D02*
Y8248D01*
X10381Y8058D02*
Y8038D01*
X10396Y8023D02*
Y8078D01*
X10361Y8178D02*
X10391Y8208D01*
X10411Y8093D02*
X10396Y8078D01*
X10441Y7148D02*
X10481Y7108D01*
X10541Y7968D02*
X10526Y7983D01*
X10516Y7993D01*
X10551Y8013D02*
X10521Y8043D01*
X10371Y7218D02*
X10441Y7148D01*
X10426Y7993D02*
X10396Y8023D01*
X10381Y8058D02*
X10361Y8073D01*
X10416Y8098D02*
X10366Y8158D01*
X10741Y8168D02*
Y8198D01*
X10746D02*
Y8173D01*
Y8258D02*
Y8278D01*
Y8258D02*
Y8233D01*
X10716Y8143D02*
Y8103D01*
X10601Y7853D02*
Y7638D01*
X10646Y7228D02*
X10591Y7173D01*
X10696Y7108D02*
X10746Y7158D01*
X10641Y8333D02*
X10661Y8353D01*
X10651Y7983D02*
X10636Y7968D01*
X10601Y7638D02*
X10641Y7598D01*
X10666Y7208D02*
X10596Y7133D01*
X10651Y8053D02*
X10706Y8103D01*
X10772Y7954D02*
Y7919D01*
X10901Y8103D02*
Y8143D01*
X10796Y8103D02*
Y8058D01*
X10761Y8003D02*
Y7943D01*
X10786Y8363D02*
Y8383D01*
X10836Y8358D02*
Y8348D01*
Y8358D02*
Y8318D01*
X10856Y8193D02*
Y8168D01*
X10861D02*
Y8193D01*
X10866D02*
Y8168D01*
X10876D02*
Y8193D01*
X10871D02*
Y8168D01*
X10851D02*
Y8198D01*
X10861Y8238D02*
Y8278D01*
X10836Y8188D02*
Y8168D01*
X10816D02*
Y8193D01*
Y8278D02*
Y8308D01*
X10796Y8193D02*
Y8168D01*
X10776D02*
Y8188D01*
X10761Y8198D02*
Y8168D01*
X10751D02*
Y8198D01*
X10756D02*
Y8173D01*
X10782Y7909D02*
X10767Y7894D01*
X10846Y7493D02*
X10836Y7483D01*
X10891Y8103D02*
X10901Y8113D01*
X10776Y8353D02*
X10786Y8363D01*
X10836Y8358D02*
X10856Y8378D01*
X10797Y8694D02*
X10822Y8719D01*
X10767Y7929D02*
X10782Y7914D01*
X10831Y7508D02*
X10846Y7493D01*
X10911Y8103D02*
X10901Y8113D01*
X10871Y7128D02*
X10896Y7083D01*
X10761Y7943D02*
X10836Y8003D01*
X10852Y8624D02*
X10862Y8669D01*
X11081Y8073D02*
Y8058D01*
X11121Y8053D02*
Y8078D01*
X11101Y7438D02*
Y7388D01*
X11096Y7443D02*
Y7563D01*
X11116Y7583D02*
Y7648D01*
Y7683D01*
X11136Y7723D02*
Y7768D01*
X11087Y8749D02*
Y8789D01*
X10967Y8219D02*
X10952Y8204D01*
X11126Y7648D02*
X11116Y7638D01*
Y7583D02*
X11096Y7563D01*
X10967Y8184D02*
X10952Y8199D01*
X11116Y7658D02*
X11126Y7648D01*
X10981Y7143D02*
X11006Y7118D01*
X11042Y8669D02*
X11077Y8684D01*
X11206Y7373D02*
Y7239D01*
X11186Y7257D02*
Y7378D01*
X11151Y7388D02*
Y7438D01*
X11206Y7463D02*
Y7368D01*
X11196Y7473D02*
Y7508D01*
X11186Y7458D02*
Y7373D01*
X11176Y7468D02*
Y7508D01*
X11156Y7523D02*
Y7438D01*
X11196Y7648D02*
Y7683D01*
X11156Y7678D02*
Y7648D01*
X11146D02*
X11156Y7658D01*
X11186Y7648D02*
X11196Y7658D01*
Y7473D02*
X11206Y7463D01*
X11186Y7458D02*
X11176Y7468D01*
X11166Y7648D02*
X11156Y7658D01*
X11206Y7240D02*
X11177Y7209D01*
X11157Y7229D02*
X11186Y7257D01*
D19*
X10157Y7564D02*
X10092D01*
X10312Y7459D02*
X10432D01*
X10177D02*
X10102D01*
X10147Y7649D02*
X10237D01*
X10242Y7644D02*
X10147D01*
X10182Y7639D02*
X10257D01*
X10242Y7654D02*
X10232D01*
X9831Y7908D02*
X9786D01*
X9856Y8308D02*
X9871D01*
X10836Y8198D02*
X10901D01*
X10771D02*
X10716D01*
X9086Y8663D02*
Y8748D01*
X9286Y8498D02*
Y8438D01*
Y8493D02*
Y8538D01*
X9236Y8588D02*
Y8748D01*
X9276Y7953D02*
Y7913D01*
X9286Y7908D02*
Y7848D01*
Y7853D02*
Y7773D01*
X9276Y7943D02*
Y8253D01*
X9286Y8538D02*
X9236Y8588D01*
X9286Y7773D02*
X9326Y7733D01*
X9486Y8673D02*
Y8748D01*
X9882Y8354D02*
Y8314D01*
X9841Y8288D02*
Y8203D01*
X9786Y8678D02*
Y8748D01*
X9841Y8213D02*
Y8078D01*
X9946Y7278D02*
Y7193D01*
Y7138D02*
Y7098D01*
X9851Y7928D02*
Y7963D01*
Y7993D01*
X9841Y8003D02*
Y8088D01*
X9851Y7928D02*
X9831Y7908D01*
X9851Y7993D02*
X9841Y8003D01*
Y8288D02*
X9856Y8308D01*
X10086Y8443D02*
Y8563D01*
X10122Y7674D02*
Y7564D01*
X10157Y7614D02*
Y7644D01*
X10286Y8683D02*
Y8748D01*
X10247Y7704D02*
Y7644D01*
X10257Y7639D02*
Y7704D01*
X10247Y7674D02*
X10227Y7654D01*
X10237Y7664D02*
X10247Y7674D01*
X10242Y7684D02*
X10212Y7654D01*
X10202D02*
X10242Y7694D01*
X10486Y8668D02*
Y8748D01*
X10412Y7474D02*
X10397Y7459D01*
X10382Y7464D02*
X10402Y7484D01*
X10407Y7479D02*
X10387Y7459D01*
X10776Y8428D02*
Y8493D01*
D20*
X11002Y8399D02*
X11117Y8464D01*
X11037Y7909D02*
X10762D01*
X11001Y7878D02*
X11037D01*
X10886Y7948D02*
X10811D01*
X10767Y7934D02*
X10092D01*
X10122Y7884D02*
X10257D01*
Y7874D02*
X10122D01*
Y7899D02*
X10257D01*
X11122Y8114D02*
X11157D01*
X11122Y8074D02*
X11077D01*
X9922Y8354D02*
X9687D01*
X9497D02*
X9277D01*
X10902Y8199D02*
X10962D01*
X11122Y8254D02*
X11162D01*
X10716Y8198D02*
X10631D01*
X10967Y8399D02*
X11002D01*
X8986Y8663D02*
X8886D01*
X8736Y8728D02*
X8666D01*
X8861Y8793D02*
X8881D01*
X8886D02*
Y8673D01*
X8986Y8668D02*
Y8793D01*
X8886Y8403D02*
Y8353D01*
X8816Y8748D02*
X8861Y8793D01*
X9686Y8398D02*
X9687Y8354D01*
X10122Y7899D02*
Y7884D01*
X10087Y7869D02*
Y7934D01*
X10257Y7884D02*
Y7874D01*
X10631Y8103D02*
Y8198D01*
X10636Y8183D02*
X10646Y8193D01*
X10726Y8073D02*
X10671Y8028D01*
X10767Y7934D02*
Y7764D01*
X10967Y8239D02*
Y8399D01*
X11117Y8464D02*
Y8474D01*
Y8469D02*
Y8544D01*
X10967Y8244D02*
Y8059D01*
X11037Y7989D02*
Y7909D01*
X11122Y8109D02*
Y8154D01*
X11117Y8544D02*
X11142Y8569D01*
X10967Y8059D02*
X11037Y7989D01*
X11162Y8254D02*
Y8484D01*
D21*
X10792Y8234D02*
D03*
Y8274D02*
D03*
X10806Y8254D02*
D03*
X10821Y8234D02*
D03*
Y8274D02*
D03*
X10172Y7784D02*
D03*
Y7734D02*
D03*
X10137Y7784D02*
D03*
Y7734D02*
D03*
X10097Y7784D02*
D03*
Y7734D02*
D03*
D23*
X10832Y7704D02*
X10902Y7774D01*
X10427Y7464D02*
X10252Y7639D01*
X11207Y8694D02*
X11107Y8793D01*
X11070Y7863D02*
X11070Y7778D01*
X10827Y7459D02*
X10632D01*
X10907Y7778D02*
X11070D01*
X10397Y7784D02*
X10257D01*
X10092Y7939D02*
X10762D01*
X11070Y8058D02*
X11207D01*
X11107Y8793D02*
X10817D01*
X10831D02*
X8886D01*
X10827Y7704D02*
Y7459D01*
X10762Y7800D02*
Y7939D01*
X11071Y7865D02*
Y8060D01*
X11207Y8058D02*
Y8308D01*
Y8304D02*
Y8694D01*
D24*
X11157Y8114D02*
D03*
X11151Y7388D02*
D03*
X10952Y8759D02*
D03*
X11042Y8669D02*
D03*
X11122Y8114D02*
D03*
X11032Y7879D02*
D03*
X11136Y7768D02*
D03*
X11101Y7388D02*
D03*
X11121Y8073D02*
D03*
X11081D02*
D03*
X11006Y7118D02*
D03*
X11056Y7493D02*
D03*
X10852Y8624D02*
D03*
X10931Y8103D02*
D03*
X10861Y8238D02*
D03*
Y8278D02*
D03*
X10856Y8378D02*
D03*
X10776Y8493D02*
D03*
X10796Y8103D02*
D03*
X10832Y7769D02*
D03*
X10896Y7053D02*
D03*
X10796D02*
D03*
X10811Y7948D02*
D03*
X10846D02*
D03*
X10746Y8278D02*
D03*
Y8238D02*
D03*
X10576Y8323D02*
D03*
X10696Y7053D02*
D03*
X10596D02*
D03*
X10706Y7598D02*
D03*
X10726Y8073D02*
D03*
X10601Y7853D02*
D03*
X10561Y8053D02*
D03*
X10596Y7133D02*
D03*
X10591Y7173D02*
D03*
X10486Y8748D02*
D03*
X10496Y7053D02*
D03*
X10396D02*
D03*
X10361Y8013D02*
D03*
X10286Y8748D02*
D03*
X10296Y7053D02*
D03*
X10196D02*
D03*
X10187Y7884D02*
D03*
X10227D02*
D03*
X10086Y8563D02*
D03*
X10066Y8218D02*
D03*
X9986Y8598D02*
D03*
X10096Y7053D02*
D03*
X9996D02*
D03*
X10142Y7884D02*
D03*
X10102Y7459D02*
D03*
X9966Y8573D02*
D03*
X9786Y8748D02*
D03*
X9886Y8533D02*
D03*
X9786Y8558D02*
D03*
X9922Y8354D02*
D03*
X9837Y8454D02*
D03*
Y8724D02*
D03*
X9896Y7053D02*
D03*
X9796D02*
D03*
X9946Y7093D02*
D03*
Y7908D02*
D03*
X9966Y8023D02*
D03*
X9826Y7833D02*
D03*
X9846Y7683D02*
D03*
X9776Y8053D02*
D03*
X9786Y7908D02*
D03*
X9826Y7953D02*
D03*
X9801Y7978D02*
D03*
X9687Y8354D02*
D03*
X9737Y8454D02*
D03*
Y8699D02*
D03*
X9696Y7053D02*
D03*
X9596D02*
D03*
X9746Y7588D02*
D03*
X9596Y7648D02*
D03*
X9631Y7718D02*
D03*
Y7838D02*
D03*
X9646Y7413D02*
D03*
X9707Y7959D02*
D03*
X9742D02*
D03*
X9536Y8223D02*
D03*
X9386Y8483D02*
D03*
X9486Y8508D02*
D03*
X9411Y8173D02*
D03*
X9486Y8748D02*
D03*
X9497Y8354D02*
D03*
X9531Y7493D02*
D03*
Y7068D02*
D03*
Y7168D02*
D03*
Y7268D02*
D03*
Y7368D02*
D03*
X9396Y7493D02*
D03*
X9516Y7943D02*
D03*
X9566Y7888D02*
D03*
Y7943D02*
D03*
Y8003D02*
D03*
X9516Y7888D02*
D03*
Y8003D02*
D03*
X9396Y7758D02*
D03*
X9466Y7888D02*
D03*
Y7943D02*
D03*
Y8003D02*
D03*
X9522Y7689D02*
D03*
X9241Y8298D02*
D03*
X9276Y8253D02*
D03*
X9216Y8323D02*
D03*
X9236Y8748D02*
D03*
X9186Y8113D02*
D03*
X9277Y8354D02*
D03*
X9322Y8504D02*
D03*
X9357D02*
D03*
X9296Y7493D02*
D03*
X9196D02*
D03*
X9326Y7733D02*
D03*
X9366Y7883D02*
D03*
X9341Y7863D02*
D03*
X9336Y8088D02*
D03*
X9371Y8063D02*
D03*
X9236Y7813D02*
D03*
Y7773D02*
D03*
X9186Y7898D02*
D03*
X9151Y8598D02*
D03*
X9126Y8573D02*
D03*
X9151Y8148D02*
D03*
X9111Y8298D02*
D03*
X9061Y8323D02*
D03*
X9046Y8548D02*
D03*
X9086Y8748D02*
D03*
X9021Y8523D02*
D03*
X9142Y8699D02*
D03*
X9037Y8724D02*
D03*
X8992Y8304D02*
D03*
X9096Y7493D02*
D03*
X8996D02*
D03*
X9151Y8008D02*
D03*
X9126Y7978D02*
D03*
Y7878D02*
D03*
X9101Y7823D02*
D03*
X9051Y7848D02*
D03*
X9021Y7928D02*
D03*
Y7978D02*
D03*
X9051Y7903D02*
D03*
Y7953D02*
D03*
X8992Y8064D02*
D03*
X8886Y8353D02*
D03*
X8896Y7493D02*
D03*
Y8008D02*
D03*
X8811Y8268D02*
D03*
X8821Y8173D02*
D03*
X8796Y7493D02*
D03*
X8746Y8293D02*
D03*
X8736Y8728D02*
D03*
X8631Y8293D02*
D03*
X8701Y8328D02*
D03*
X8696Y7493D02*
D03*
X8591Y8368D02*
D03*
Y8268D02*
D03*
Y8168D02*
D03*
Y8068D02*
D03*
Y7968D02*
D03*
Y7868D02*
D03*
Y7768D02*
D03*
X8596Y7493D02*
D03*
D32*
X11066Y8389D02*
D03*
X11066Y8121D02*
D03*
D34*
X8819Y8221D02*
D03*
X8819Y8071D02*
D03*
X10036Y8748D02*
D03*
X9957D02*
D03*
D39*
X10736Y8538D02*
D03*
X8936Y8538D02*
D03*
D44*
X9946Y7278D02*
D03*
X10046D02*
D03*
X10146D02*
D03*
X10246D02*
D03*
D52*
X10505Y8205D02*
D03*
X10506Y7293D02*
D03*
X9690Y8205D02*
D03*
Y7292D02*
D03*
D54*
X10978Y8538D02*
D03*
X10978Y7633D02*
D03*
X8695Y8538D02*
D03*
Y7633D02*
D03*
D57*
X10776Y8312D02*
D03*
X10796D02*
D03*
X10815D02*
D03*
X10835D02*
D03*
Y8198D02*
D03*
X10815D02*
D03*
X10796D02*
D03*
X10776Y8198D02*
D03*
D58*
X11196Y7530D02*
D03*
X11177D02*
D03*
X11157D02*
D03*
X11137D02*
D03*
X11118D02*
D03*
Y7703D02*
D03*
X11137Y7703D02*
D03*
X11157D02*
D03*
X11177Y7703D02*
D03*
X11196Y7703D02*
D03*
D59*
X10173Y7680D02*
D03*
X10147D02*
D03*
X10121D02*
D03*
X10096D02*
D03*
Y7835D02*
D03*
X10121D02*
D03*
X10147D02*
D03*
X10173D02*
D03*
D67*
X9286Y7908D02*
D03*
X9236D02*
D03*
X9286Y7848D02*
D03*
X9236D02*
D03*
D70*
X10931Y7138D02*
D03*
Y7083D02*
D03*
X11101Y7438D02*
D03*
X11156D02*
D03*
X8731Y8178D02*
D03*
Y8233D02*
D03*
X8756Y8328D02*
D03*
X8811D02*
D03*
X8916Y8203D02*
D03*
Y8258D02*
D03*
X9226Y8198D02*
D03*
Y8253D02*
D03*
X9321Y8198D02*
D03*
Y8253D02*
D03*
X11087Y8749D02*
D03*
Y8694D02*
D03*
X10631Y8323D02*
D03*
X10686D02*
D03*
X10716Y8143D02*
D03*
Y8198D02*
D03*
X10901Y8143D02*
D03*
Y8198D02*
D03*
X10836Y8058D02*
D03*
Y8003D02*
D03*
X10766Y8058D02*
D03*
Y8003D02*
D03*
X10516Y8048D02*
D03*
Y7993D02*
D03*
X10271Y8228D02*
D03*
Y8283D02*
D03*
X10356Y8168D02*
D03*
Y8223D02*
D03*
X10271Y8103D02*
D03*
Y8158D02*
D03*
X10186D02*
D03*
Y8103D02*
D03*
X10151Y8253D02*
D03*
X10096D02*
D03*
X10151Y8323D02*
D03*
X10096D02*
D03*
X10021D02*
D03*
X9966D02*
D03*
Y8253D02*
D03*
X10021D02*
D03*
X9881D02*
D03*
Y8308D02*
D03*
X9782Y7814D02*
D03*
Y7869D02*
D03*
X9912Y7859D02*
D03*
Y7804D02*
D03*
X9997Y7929D02*
D03*
X10052D02*
D03*
X9997Y7804D02*
D03*
Y7859D02*
D03*
X9946Y7193D02*
D03*
Y7138D02*
D03*
X10157Y7559D02*
D03*
Y7614D02*
D03*
X10087Y7559D02*
D03*
Y7614D02*
D03*
X9877Y7524D02*
D03*
X9932D02*
D03*
X9877Y7714D02*
D03*
X9932D02*
D03*
X9782Y7689D02*
D03*
Y7744D02*
D03*
Y7564D02*
D03*
Y7619D02*
D03*
D72*
X10056Y7719D02*
D03*
Y7745D02*
D03*
Y7770D02*
D03*
Y7796D02*
D03*
X10212D02*
D03*
Y7770D02*
D03*
Y7745D02*
D03*
X10212Y7719D02*
D03*
D76*
X10346Y8098D02*
D03*
X10426D02*
D03*
Y8048D02*
D03*
X10346D02*
D03*
Y8073D02*
D03*
X9862Y7644D02*
D03*
X9942D02*
D03*
Y7594D02*
D03*
X9862D02*
D03*
Y7619D02*
D03*
D78*
X10628Y8095D02*
D03*
X10666Y8008D02*
D03*
X10591D02*
D03*
D80*
X8886Y8416D02*
D03*
X8986D02*
D03*
X9086D02*
D03*
X9186D02*
D03*
X9286D02*
D03*
X9386D02*
D03*
X9486D02*
D03*
X9586D02*
D03*
X9686D02*
D03*
X9786D02*
D03*
X9886D02*
D03*
X9986D02*
D03*
X10086D02*
D03*
X10186D02*
D03*
X10286D02*
D03*
X10386D02*
D03*
X10486D02*
D03*
X10586D02*
D03*
X10686D02*
D03*
X10786D02*
D03*
X8885Y8661D02*
D03*
X8986D02*
D03*
X9086D02*
D03*
X9185D02*
D03*
X9286D02*
D03*
X9385D02*
D03*
X9486D02*
D03*
X9586D02*
D03*
X9685D02*
D03*
X9786D02*
D03*
X9886D02*
D03*
X9986D02*
D03*
X10086D02*
D03*
X10186D02*
D03*
X10286D02*
D03*
X10386D02*
D03*
X10486D02*
D03*
X10586D02*
D03*
X10686D02*
D03*
X10786D02*
D03*
D86*
X11157Y8499D02*
D03*
Y8589D02*
D03*
D90*
X10853Y7136D02*
D03*
X10766Y7098D02*
D03*
Y7173D02*
D03*
X10887Y8754D02*
D03*
Y8679D02*
D03*
X10974Y8717D02*
D03*
D92*
X10806Y8255D02*
D03*
D94*
X8801Y8728D02*
D03*
X8666D02*
D03*
X10312Y7459D02*
D03*
X10177D02*
D03*
X10302Y7709D02*
D03*
Y7844D02*
D03*
D95*
X10098Y8022D02*
D03*
Y8072D02*
D03*
Y8122D02*
D03*
Y8172D02*
D03*
X9886Y8022D02*
D03*
Y8072D02*
D03*
Y8122D02*
D03*
Y8172D02*
D03*
D98*
X11112Y8353D02*
D03*
X11065D02*
D03*
X11018D02*
D03*
X11112Y8255D02*
D03*
X11061D02*
D03*
X11018D02*
D03*
X11112Y8157D02*
D03*
X11066D02*
D03*
X11018D02*
D03*
D99*
X10416Y7740D02*
D03*
X10766D02*
D03*
D108*
X10457Y7459D02*
D03*
X10614D02*
D03*
D111*
X10134Y7758D02*
D03*
D113*
X11161Y7840D02*
D03*
Y7978D02*
D03*
D114*
X10943Y7948D02*
D03*
Y7870D02*
D03*
M02*
