*%FSLAX23Y23*%
*%MOIN*%
G01*
%ADD11C,0.000*%
%ADD12C,0.001*%
%ADD13C,0.002*%
%ADD14C,0.006*%
%ADD15C,0.007*%
%ADD16C,0.007*%
%ADD17C,0.008*%
%ADD18C,0.010*%
%ADD19C,0.012*%
%ADD20C,0.015*%
%ADD21C,0.018*%
%ADD22C,0.022*%
%ADD23C,0.024*%
%ADD24C,0.025*%
%ADD25C,0.029*%
%ADD26C,0.031*%
%ADD27C,0.031*%
%ADD28C,0.035*%
%ADD29C,0.035*%
%ADD30C,0.039*%
%ADD31C,0.039*%
%ADD32C,0.046*%
%ADD33C,0.047*%
%ADD34C,0.050*%
%ADD35C,0.051*%
%ADD36C,0.051*%
%ADD37C,0.054*%
%ADD38C,0.055*%
%ADD39C,0.058*%
%ADD40C,0.059*%
%ADD41C,0.059*%
%ADD42C,0.062*%
%ADD43C,0.067*%
%ADD44C,0.070*%
%ADD45C,0.074*%
%ADD46C,0.100*%
%ADD47C,0.108*%
%ADD48C,0.108*%
%ADD49C,0.120*%
%ADD50C,0.128*%
%ADD51C,0.128*%
%ADD52C,0.190*%
%ADD53C,0.194*%
%ADD54C,0.236*%
%ADD55C,0.240*%
%ADD56R,0.011X0.030*%
%ADD57R,0.012X0.030*%
%ADD58R,0.012X0.057*%
%ADD59R,0.014X0.033*%
%ADD60R,0.015X0.034*%
%ADD61R,0.016X0.034*%
%ADD62R,0.016X0.061*%
%ADD63R,0.018X0.037*%
%ADD64R,0.020X0.025*%
%ADD65R,0.021X0.021*%
%ADD66R,0.024X0.029*%
%ADD67R,0.025X0.020*%
%ADD68R,0.029X0.024*%
%ADD69R,0.030X0.011*%
%ADD70R,0.030X0.030*%
%ADD71R,0.031X0.031*%
%ADD72R,0.033X0.014*%
%ADD73R,0.034X0.015*%
%ADD74R,0.034X0.034*%
%ADD75R,0.035X0.035*%
%ADD76R,0.037X0.014*%
%ADD77R,0.037X0.018*%
%ADD78R,0.039X0.055*%
%ADD79R,0.039X0.014*%
%ADD80R,0.040X0.083*%
%ADD81R,0.041X0.018*%
%ADD82R,0.043X0.059*%
%ADD83R,0.043X0.018*%
%ADD84R,0.044X0.087*%
%ADD85R,0.047X0.055*%
%ADD86R,0.050X0.060*%
%ADD87R,0.051X0.071*%
%ADD88R,0.051X0.059*%
%ADD89R,0.054X0.064*%
%ADD90R,0.055X0.039*%
%ADD91R,0.055X0.075*%
%ADD92R,0.057X0.067*%
%ADD93R,0.059X0.043*%
%ADD94R,0.060X0.060*%
%ADD95R,0.061X0.024*%
%ADD96R,0.061X0.051*%
%ADD97R,0.061X0.071*%
%ADD98R,0.063X0.039*%
%ADD99R,0.063X0.126*%
%ADD100R,0.064X0.064*%
%ADD101R,0.065X0.028*%
%ADD102R,0.065X0.055*%
%ADD103R,0.067X0.043*%
%ADD104R,0.067X0.130*%
%ADD105R,0.085X0.030*%
%ADD106R,0.089X0.034*%
%ADD107R,0.094X0.030*%
%ADD108R,0.098X0.070*%
%ADD109R,0.098X0.034*%
%ADD110R,0.102X0.074*%
%ADD111R,0.104X0.104*%
%ADD112R,0.108X0.108*%
%ADD113R,0.134X0.059*%
%ADD114R,0.138X0.039*%
%ADD115R,0.138X0.063*%
%ADD116R,0.142X0.043*%
%ADD117R,0.169X0.169*%
%ADD118R,0.173X0.173*%
%ADD119R,0.250X0.250*%
D56*
X9436Y7840D02*
D03*
X9455D02*
D03*
X9475D02*
D03*
X9495D02*
D03*
X9514D02*
D03*
X9534D02*
D03*
X9554D02*
D03*
Y8054D02*
D03*
X9534D02*
D03*
X9514D02*
D03*
X9495D02*
D03*
X9475D02*
D03*
X9455D02*
D03*
X9436D02*
D03*
X9573Y7840D02*
D03*
X9593D02*
D03*
Y8054D02*
D03*
X9573D02*
D03*
D64*
X9456Y8123D02*
D03*
Y8173D02*
D03*
X9846Y7733D02*
D03*
Y7783D02*
D03*
X9596Y7743D02*
D03*
Y7693D02*
D03*
X9466Y7498D02*
D03*
Y7548D02*
D03*
Y7618D02*
D03*
Y7668D02*
D03*
D67*
X9738Y8023D02*
D03*
X9688D02*
D03*
X9796Y7868D02*
D03*
X9746D02*
D03*
X9711Y7623D02*
D03*
X9761D02*
D03*
X9541Y7413D02*
D03*
X9591D02*
D03*
X9278Y7773D02*
D03*
X9328D02*
D03*
X9331Y7833D02*
D03*
X9281D02*
D03*
X9331Y7903D02*
D03*
X9281D02*
D03*
D69*
X9407Y7907D02*
D03*
Y7927D02*
D03*
Y7947D02*
D03*
Y7966D02*
D03*
Y7986D02*
D03*
Y8006D02*
D03*
Y8025D02*
D03*
X9621Y7907D02*
D03*
Y7927D02*
D03*
Y7947D02*
D03*
Y7966D02*
D03*
Y7986D02*
D03*
Y8006D02*
D03*
Y8025D02*
D03*
X9407Y7888D02*
D03*
Y7868D02*
D03*
X9621D02*
D03*
Y7888D02*
D03*
D70*
X9536Y8178D02*
D03*
Y8123D02*
D03*
X8856Y7843D02*
D03*
X8911D02*
D03*
X8856Y7913D02*
D03*
X8911D02*
D03*
D71*
X11131Y7118D02*
D03*
X11071D02*
D03*
X11102Y8709D02*
D03*
X11042D02*
D03*
X8721Y7923D02*
D03*
X8781D02*
D03*
X8721Y7853D02*
D03*
X8781D02*
D03*
D79*
X9524Y7730D02*
D03*
Y7756D02*
D03*
Y7781D02*
D03*
X9453D02*
D03*
Y7756D02*
D03*
Y7730D02*
D03*
D85*
X9770Y7703D02*
D03*
X9703D02*
D03*
X9770Y7790D02*
D03*
X9703D02*
D03*
D87*
X9465Y7416D02*
D03*
X9370D02*
D03*
X9197D02*
D03*
X8929D02*
D03*
X8662D02*
D03*
Y7077D02*
D03*
X8929D02*
D03*
X9197D02*
D03*
X9465D02*
D03*
D96*
X11022Y7441D02*
D03*
X10707D02*
D03*
X11022Y7264D02*
D03*
X10707D02*
D03*
X11022Y8196D02*
D03*
X10707D02*
D03*
X11022Y8019D02*
D03*
X10707D02*
D03*
D105*
X8896Y8046D02*
D03*
X8895Y8096D02*
D03*
X8742Y8046D02*
D03*
Y8096D02*
D03*
X8896Y8196D02*
D03*
X8895Y8246D02*
D03*
X8742Y8196D02*
D03*
Y8246D02*
D03*
D107*
X8896Y8146D02*
D03*
X8742D02*
D03*
D117*
X9514Y7947D02*
D03*
M02*
