*%FSLAX23Y23*%
*%MOIN*%
G01*
%ADD11C,0.000*%
%ADD12C,0.001*%
%ADD13C,0.002*%
%ADD14C,0.006*%
%ADD15C,0.007*%
%ADD16C,0.007*%
%ADD17C,0.008*%
%ADD18C,0.010*%
%ADD19C,0.012*%
%ADD20C,0.015*%
%ADD21C,0.018*%
%ADD22C,0.022*%
%ADD23C,0.024*%
%ADD24C,0.025*%
%ADD25C,0.029*%
%ADD26C,0.031*%
%ADD27C,0.031*%
%ADD28C,0.035*%
%ADD29C,0.035*%
%ADD30C,0.039*%
%ADD31C,0.039*%
%ADD32C,0.046*%
%ADD33C,0.047*%
%ADD34C,0.050*%
%ADD35C,0.051*%
%ADD36C,0.051*%
%ADD37C,0.054*%
%ADD38C,0.055*%
%ADD39C,0.058*%
%ADD40C,0.059*%
%ADD41C,0.059*%
%ADD42C,0.062*%
%ADD43C,0.067*%
%ADD44C,0.070*%
%ADD45C,0.074*%
%ADD46C,0.100*%
%ADD47C,0.108*%
%ADD48C,0.108*%
%ADD49C,0.120*%
%ADD50C,0.128*%
%ADD51C,0.128*%
%ADD52C,0.190*%
%ADD53C,0.194*%
%ADD54C,0.236*%
%ADD55C,0.240*%
%ADD56R,0.011X0.030*%
%ADD57R,0.012X0.030*%
%ADD58R,0.012X0.057*%
%ADD59R,0.014X0.033*%
%ADD60R,0.015X0.034*%
%ADD61R,0.016X0.034*%
%ADD62R,0.016X0.061*%
%ADD63R,0.018X0.037*%
%ADD64R,0.020X0.025*%
%ADD65R,0.021X0.021*%
%ADD66R,0.024X0.029*%
%ADD67R,0.025X0.020*%
%ADD68R,0.029X0.024*%
%ADD69R,0.030X0.011*%
%ADD70R,0.030X0.030*%
%ADD71R,0.031X0.031*%
%ADD72R,0.033X0.014*%
%ADD73R,0.034X0.015*%
%ADD74R,0.034X0.034*%
%ADD75R,0.035X0.035*%
%ADD76R,0.037X0.014*%
%ADD77R,0.037X0.018*%
%ADD78R,0.039X0.055*%
%ADD79R,0.039X0.014*%
%ADD80R,0.040X0.083*%
%ADD81R,0.041X0.018*%
%ADD82R,0.043X0.059*%
%ADD83R,0.043X0.018*%
%ADD84R,0.044X0.087*%
%ADD85R,0.047X0.055*%
%ADD86R,0.050X0.060*%
%ADD87R,0.051X0.071*%
%ADD88R,0.051X0.059*%
%ADD89R,0.054X0.064*%
%ADD90R,0.055X0.039*%
%ADD91R,0.055X0.075*%
%ADD92R,0.057X0.067*%
%ADD93R,0.059X0.043*%
%ADD94R,0.060X0.060*%
%ADD95R,0.061X0.024*%
%ADD96R,0.061X0.051*%
%ADD97R,0.061X0.071*%
%ADD98R,0.063X0.039*%
%ADD99R,0.063X0.126*%
%ADD100R,0.064X0.064*%
%ADD101R,0.065X0.028*%
%ADD102R,0.065X0.055*%
%ADD103R,0.067X0.043*%
%ADD104R,0.067X0.130*%
%ADD105R,0.085X0.030*%
%ADD106R,0.089X0.034*%
%ADD107R,0.094X0.030*%
%ADD108R,0.098X0.070*%
%ADD109R,0.098X0.034*%
%ADD110R,0.102X0.074*%
%ADD111R,0.104X0.104*%
%ADD112R,0.108X0.108*%
%ADD113R,0.134X0.059*%
%ADD114R,0.138X0.039*%
%ADD115R,0.138X0.063*%
%ADD116R,0.142X0.043*%
%ADD117R,0.169X0.169*%
%ADD118R,0.173X0.173*%
%ADD119R,0.250X0.250*%
D22*
X10792Y8234D02*
D03*
Y8274D02*
D03*
X10806Y8254D02*
D03*
X10821Y8234D02*
D03*
Y8274D02*
D03*
X10172Y7784D02*
D03*
Y7734D02*
D03*
X10137Y7784D02*
D03*
Y7734D02*
D03*
X10097Y7784D02*
D03*
Y7734D02*
D03*
D25*
X11157Y8114D02*
D03*
X11151Y7388D02*
D03*
X10952Y8759D02*
D03*
X11042Y8669D02*
D03*
X11122Y8114D02*
D03*
X11032Y7879D02*
D03*
X11136Y7768D02*
D03*
X11101Y7388D02*
D03*
X11121Y8073D02*
D03*
X11081D02*
D03*
X11006Y7118D02*
D03*
X11056Y7493D02*
D03*
X10852Y8624D02*
D03*
X10931Y8103D02*
D03*
X10861Y8238D02*
D03*
Y8278D02*
D03*
X10856Y8378D02*
D03*
X10776Y8493D02*
D03*
X10796Y8103D02*
D03*
X10832Y7769D02*
D03*
X10896Y7053D02*
D03*
X10796D02*
D03*
X10811Y7948D02*
D03*
X10846D02*
D03*
X10746Y8278D02*
D03*
Y8238D02*
D03*
X10576Y8323D02*
D03*
X10696Y7053D02*
D03*
X10596D02*
D03*
X10706Y7598D02*
D03*
X10726Y8073D02*
D03*
X10601Y7853D02*
D03*
X10561Y8053D02*
D03*
X10596Y7133D02*
D03*
X10591Y7173D02*
D03*
X10486Y8748D02*
D03*
X10496Y7053D02*
D03*
X10396D02*
D03*
X10361Y8013D02*
D03*
X10286Y8748D02*
D03*
X10296Y7053D02*
D03*
X10196D02*
D03*
X10187Y7884D02*
D03*
X10227D02*
D03*
X10086Y8563D02*
D03*
X10066Y8218D02*
D03*
X9986Y8598D02*
D03*
X10096Y7053D02*
D03*
X9996D02*
D03*
X10142Y7884D02*
D03*
X10102Y7459D02*
D03*
X9966Y8573D02*
D03*
X9786Y8748D02*
D03*
X9886Y8533D02*
D03*
X9786Y8558D02*
D03*
X9922Y8354D02*
D03*
X9837Y8454D02*
D03*
Y8724D02*
D03*
X9896Y7053D02*
D03*
X9796D02*
D03*
X9946Y7093D02*
D03*
Y7908D02*
D03*
X9966Y8023D02*
D03*
X9826Y7833D02*
D03*
X9846Y7683D02*
D03*
X9776Y8053D02*
D03*
X9786Y7908D02*
D03*
X9826Y7953D02*
D03*
X9801Y7978D02*
D03*
X9687Y8354D02*
D03*
X9737Y8454D02*
D03*
Y8699D02*
D03*
X9696Y7053D02*
D03*
X9596D02*
D03*
X9746Y7588D02*
D03*
X9596Y7648D02*
D03*
X9631Y7718D02*
D03*
Y7838D02*
D03*
X9646Y7413D02*
D03*
X9707Y7959D02*
D03*
X9742D02*
D03*
X9536Y8223D02*
D03*
X9386Y8483D02*
D03*
X9486Y8508D02*
D03*
X9411Y8173D02*
D03*
X9486Y8748D02*
D03*
X9497Y8354D02*
D03*
X9531Y7493D02*
D03*
Y7068D02*
D03*
Y7168D02*
D03*
Y7268D02*
D03*
Y7368D02*
D03*
X9396Y7493D02*
D03*
X9516Y7943D02*
D03*
X9566Y7888D02*
D03*
Y7943D02*
D03*
Y8003D02*
D03*
X9516Y7888D02*
D03*
Y8003D02*
D03*
X9396Y7758D02*
D03*
X9466Y7888D02*
D03*
Y7943D02*
D03*
Y8003D02*
D03*
X9522Y7689D02*
D03*
X9241Y8298D02*
D03*
X9276Y8253D02*
D03*
X9216Y8323D02*
D03*
X9236Y8748D02*
D03*
X9186Y8113D02*
D03*
X9277Y8354D02*
D03*
X9322Y8504D02*
D03*
X9357D02*
D03*
X9296Y7493D02*
D03*
X9196D02*
D03*
X9326Y7733D02*
D03*
X9366Y7883D02*
D03*
X9341Y7863D02*
D03*
X9336Y8088D02*
D03*
X9371Y8063D02*
D03*
X9236Y7813D02*
D03*
Y7773D02*
D03*
X9186Y7898D02*
D03*
X9151Y8598D02*
D03*
X9126Y8573D02*
D03*
X9151Y8148D02*
D03*
X9111Y8298D02*
D03*
X9061Y8323D02*
D03*
X9046Y8548D02*
D03*
X9086Y8748D02*
D03*
X9021Y8523D02*
D03*
X9142Y8699D02*
D03*
X9037Y8724D02*
D03*
X8992Y8304D02*
D03*
X9096Y7493D02*
D03*
X8996D02*
D03*
X9151Y8008D02*
D03*
X9126Y7978D02*
D03*
Y7878D02*
D03*
X9101Y7823D02*
D03*
X9051Y7848D02*
D03*
X9021Y7928D02*
D03*
Y7978D02*
D03*
X9051Y7903D02*
D03*
Y7953D02*
D03*
X8992Y8064D02*
D03*
X8886Y8353D02*
D03*
X8896Y7493D02*
D03*
Y8008D02*
D03*
X8811Y8268D02*
D03*
X8821Y8173D02*
D03*
X8796Y7493D02*
D03*
X8746Y8293D02*
D03*
X8736Y8728D02*
D03*
X8631Y8293D02*
D03*
X8701Y8328D02*
D03*
X8696Y7493D02*
D03*
X8591Y8368D02*
D03*
Y8268D02*
D03*
Y8168D02*
D03*
Y8068D02*
D03*
Y7968D02*
D03*
Y7868D02*
D03*
Y7768D02*
D03*
X8596Y7493D02*
D03*
D34*
X11066Y8389D02*
D03*
X11066Y8121D02*
D03*
D37*
X8819Y8221D02*
D03*
X8819Y8071D02*
D03*
X10036Y8748D02*
D03*
X9957D02*
D03*
D42*
X10736Y8538D02*
D03*
X8936Y8538D02*
D03*
D45*
X9946Y7278D02*
D03*
X10046D02*
D03*
X10146D02*
D03*
X10246D02*
D03*
D53*
X10505Y8205D02*
D03*
X10506Y7293D02*
D03*
X9690Y8205D02*
D03*
Y7292D02*
D03*
D55*
X10978Y8538D02*
D03*
X10978Y7633D02*
D03*
X8695Y8538D02*
D03*
Y7633D02*
D03*
D60*
X9436Y7840D02*
D03*
X9455D02*
D03*
X9475D02*
D03*
X9495D02*
D03*
X9514D02*
D03*
X9534D02*
D03*
X9554D02*
D03*
Y8054D02*
D03*
X9534D02*
D03*
X9514D02*
D03*
X9495D02*
D03*
X9475D02*
D03*
X9455D02*
D03*
X9436D02*
D03*
X9573Y7840D02*
D03*
X9593D02*
D03*
Y8054D02*
D03*
X9573D02*
D03*
D66*
X9456Y8123D02*
D03*
Y8173D02*
D03*
X9846Y7733D02*
D03*
Y7783D02*
D03*
X9596Y7743D02*
D03*
Y7693D02*
D03*
X9466Y7498D02*
D03*
Y7548D02*
D03*
Y7618D02*
D03*
Y7668D02*
D03*
D68*
X9738Y8023D02*
D03*
X9688D02*
D03*
X9796Y7868D02*
D03*
X9746D02*
D03*
X9711Y7623D02*
D03*
X9761D02*
D03*
X9541Y7413D02*
D03*
X9591D02*
D03*
X9278Y7773D02*
D03*
X9328D02*
D03*
X9331Y7833D02*
D03*
X9281D02*
D03*
X9331Y7903D02*
D03*
X9281D02*
D03*
D73*
X9407Y7907D02*
D03*
Y7927D02*
D03*
Y7947D02*
D03*
Y7966D02*
D03*
Y7986D02*
D03*
Y8006D02*
D03*
Y8025D02*
D03*
X9621Y7907D02*
D03*
Y7927D02*
D03*
Y7947D02*
D03*
Y7966D02*
D03*
Y7986D02*
D03*
Y8006D02*
D03*
Y8025D02*
D03*
X9407Y7888D02*
D03*
Y7868D02*
D03*
X9621D02*
D03*
Y7888D02*
D03*
D74*
X9536Y8178D02*
D03*
Y8123D02*
D03*
X8856Y7843D02*
D03*
X8911D02*
D03*
X8856Y7913D02*
D03*
X8911D02*
D03*
D75*
X11131Y7118D02*
D03*
X11071D02*
D03*
X11102Y8709D02*
D03*
X11042D02*
D03*
X8721Y7923D02*
D03*
X8781D02*
D03*
X8721Y7853D02*
D03*
X8781D02*
D03*
D83*
X9524Y7730D02*
D03*
Y7756D02*
D03*
Y7781D02*
D03*
X9453D02*
D03*
Y7756D02*
D03*
Y7730D02*
D03*
D88*
X9770Y7703D02*
D03*
X9703D02*
D03*
X9770Y7790D02*
D03*
X9703D02*
D03*
D91*
X9465Y7416D02*
D03*
X9370D02*
D03*
X9197D02*
D03*
X8929D02*
D03*
X8662D02*
D03*
Y7077D02*
D03*
X8929D02*
D03*
X9197D02*
D03*
X9465D02*
D03*
D102*
X11022Y7441D02*
D03*
X10707D02*
D03*
X11022Y7264D02*
D03*
X10707D02*
D03*
X11022Y8196D02*
D03*
X10707D02*
D03*
X11022Y8019D02*
D03*
X10707D02*
D03*
D106*
X8896Y8046D02*
D03*
X8895Y8096D02*
D03*
X8742Y8046D02*
D03*
Y8096D02*
D03*
X8896Y8196D02*
D03*
X8895Y8246D02*
D03*
X8742Y8196D02*
D03*
Y8246D02*
D03*
D109*
X8896Y8146D02*
D03*
X8742D02*
D03*
D118*
X9514Y7947D02*
D03*
M02*
