*%FSLAX23Y23*%
*%MOIN*%
G01*
%ADD11C,0.000*%
%ADD12C,0.001*%
%ADD13C,0.002*%
%ADD14C,0.006*%
%ADD15C,0.007*%
%ADD16C,0.007*%
%ADD17C,0.008*%
%ADD18C,0.010*%
%ADD19C,0.012*%
%ADD20C,0.015*%
%ADD21C,0.018*%
%ADD22C,0.022*%
%ADD23C,0.024*%
%ADD24C,0.025*%
%ADD25C,0.029*%
%ADD26C,0.031*%
%ADD27C,0.031*%
%ADD28C,0.035*%
%ADD29C,0.035*%
%ADD30C,0.039*%
%ADD31C,0.039*%
%ADD32C,0.046*%
%ADD33C,0.047*%
%ADD34C,0.050*%
%ADD35C,0.051*%
%ADD36C,0.051*%
%ADD37C,0.054*%
%ADD38C,0.055*%
%ADD39C,0.058*%
%ADD40C,0.059*%
%ADD41C,0.059*%
%ADD42C,0.062*%
%ADD43C,0.067*%
%ADD44C,0.070*%
%ADD45C,0.074*%
%ADD46C,0.100*%
%ADD47C,0.108*%
%ADD48C,0.108*%
%ADD49C,0.120*%
%ADD50C,0.128*%
%ADD51C,0.128*%
%ADD52C,0.190*%
%ADD53C,0.194*%
%ADD54C,0.236*%
%ADD55C,0.240*%
%ADD56R,0.011X0.030*%
%ADD57R,0.012X0.030*%
%ADD58R,0.012X0.057*%
%ADD59R,0.014X0.033*%
%ADD60R,0.015X0.034*%
%ADD61R,0.016X0.034*%
%ADD62R,0.016X0.061*%
%ADD63R,0.018X0.037*%
%ADD64R,0.020X0.025*%
%ADD65R,0.021X0.021*%
%ADD66R,0.024X0.029*%
%ADD67R,0.025X0.020*%
%ADD68R,0.029X0.024*%
%ADD69R,0.030X0.011*%
%ADD70R,0.030X0.030*%
%ADD71R,0.031X0.031*%
%ADD72R,0.033X0.014*%
%ADD73R,0.034X0.015*%
%ADD74R,0.034X0.034*%
%ADD75R,0.035X0.035*%
%ADD76R,0.037X0.014*%
%ADD77R,0.037X0.018*%
%ADD78R,0.039X0.055*%
%ADD79R,0.039X0.014*%
%ADD80R,0.040X0.083*%
%ADD81R,0.041X0.018*%
%ADD82R,0.043X0.059*%
%ADD83R,0.043X0.018*%
%ADD84R,0.044X0.087*%
%ADD85R,0.047X0.055*%
%ADD86R,0.050X0.060*%
%ADD87R,0.051X0.071*%
%ADD88R,0.051X0.059*%
%ADD89R,0.054X0.064*%
%ADD90R,0.055X0.039*%
%ADD91R,0.055X0.075*%
%ADD92R,0.057X0.067*%
%ADD93R,0.059X0.043*%
%ADD94R,0.060X0.060*%
%ADD95R,0.061X0.024*%
%ADD96R,0.061X0.051*%
%ADD97R,0.061X0.071*%
%ADD98R,0.063X0.039*%
%ADD99R,0.063X0.126*%
%ADD100R,0.064X0.064*%
%ADD101R,0.065X0.028*%
%ADD102R,0.065X0.055*%
%ADD103R,0.067X0.043*%
%ADD104R,0.067X0.130*%
%ADD105R,0.085X0.030*%
%ADD106R,0.089X0.034*%
%ADD107R,0.094X0.030*%
%ADD108R,0.098X0.070*%
%ADD109R,0.098X0.034*%
%ADD110R,0.102X0.074*%
%ADD111R,0.104X0.104*%
%ADD112R,0.108X0.108*%
%ADD113R,0.134X0.059*%
%ADD114R,0.138X0.039*%
%ADD115R,0.138X0.063*%
%ADD116R,0.142X0.043*%
%ADD117R,0.169X0.169*%
%ADD118R,0.173X0.173*%
%ADD119R,0.250X0.250*%
D14*
X8632Y8039D02*
X8644D01*
X8638D01*
Y8004D01*
X8639D01*
X8638D02*
X8632Y8010D01*
X8661D02*
X8667Y8004D01*
X8679D01*
X8684Y8010D01*
Y8033D01*
X8679Y8039D01*
X8667D01*
X8661Y8033D01*
Y8010D01*
X8952Y8033D02*
X8958Y8039D01*
X8969D01*
X8975Y8033D01*
Y8010D01*
X8969Y8004D01*
X8958D01*
X8952Y8010D01*
Y8016D01*
X8958Y8022D01*
X8975D01*
X10884Y8769D02*
X10890Y8775D01*
X10884Y8769D02*
X10873D01*
X10867Y8775D01*
Y8798D01*
X10873Y8804D01*
X10884D01*
X10890Y8798D01*
X10902Y8804D02*
Y8769D01*
Y8787D02*
Y8804D01*
Y8787D02*
X10908Y8781D01*
X10919D01*
X10925Y8787D01*
Y8804D01*
X10943Y8781D02*
X10954D01*
X10960Y8787D01*
Y8804D01*
X10943D01*
X10937Y8798D01*
X10943Y8792D01*
X10960D01*
X10972Y8781D02*
Y8804D01*
Y8792D01*
X10978Y8787D01*
X10984Y8781D01*
X10989D01*
X11019Y8816D02*
X11024D01*
X11030Y8810D01*
Y8781D01*
X11013D01*
X11007Y8787D01*
Y8798D01*
X11013Y8804D01*
X11030D01*
X11042D02*
X11054D01*
X11048D01*
Y8781D01*
X11042D01*
X11048Y8769D02*
X11049D01*
X11071Y8781D02*
Y8804D01*
Y8781D02*
X11089D01*
X11094Y8787D01*
Y8804D01*
X11118Y8816D02*
X11124D01*
X11129Y8810D01*
Y8781D01*
X11112D01*
X11106Y8787D01*
Y8798D01*
X11112Y8804D01*
X11129D01*
X10921Y7078D02*
Y7043D01*
Y7078D02*
X10944D01*
X10962D02*
X10973D01*
X10979Y7072D01*
Y7061D01*
X10973Y7055D01*
X10962D01*
X10956Y7061D01*
Y7072D01*
X10962Y7078D01*
X10991Y7072D02*
Y7055D01*
Y7072D02*
X10997Y7078D01*
X11003Y7072D01*
X11008Y7078D01*
X11014Y7072D01*
Y7055D01*
X11061Y7043D02*
Y7078D01*
X11078D01*
X11084Y7072D01*
Y7066D01*
X11078Y7061D01*
X11061D01*
X11062D01*
X11061D02*
X11062D01*
X11061D02*
X11062D01*
X11061D02*
X11078D01*
X11084Y7055D01*
Y7049D01*
X11078Y7043D01*
X11061D01*
X11102Y7055D02*
X11113D01*
X11119Y7061D01*
Y7078D01*
X11102D01*
X11096Y7072D01*
X11102Y7066D01*
X11119D01*
X11137Y7055D02*
Y7049D01*
Y7055D02*
X11131D01*
X11143D01*
X11137D01*
Y7072D01*
X11143Y7078D01*
X11166Y7055D02*
Y7049D01*
Y7055D02*
X11160D01*
X11172D01*
X11166D01*
Y7072D01*
X11172Y7078D01*
X10106Y8763D02*
Y8798D01*
X10118Y8786D01*
X10129Y8798D01*
Y8763D01*
X10141Y8775D02*
Y8798D01*
Y8786D01*
X10147Y8781D01*
X10153Y8775D01*
X10158D01*
X10176Y8798D02*
X10188D01*
X10182D01*
Y8775D01*
X10176D01*
X10182Y8763D02*
X10183D01*
X10211Y8769D02*
Y8775D01*
X10205D01*
X10217D01*
X10211D01*
Y8792D01*
X10217Y8798D01*
X10240D02*
X10252D01*
X10240D02*
X10234Y8792D01*
Y8781D01*
X10240Y8775D01*
X10252D01*
X10258Y8781D01*
Y8786D01*
X10234D01*
X10304Y8763D02*
X10328D01*
X10304D02*
Y8798D01*
X10328D01*
X10316Y8781D02*
X10304D01*
X10339Y8763D02*
X10363D01*
X10339D02*
Y8798D01*
X10363D01*
X10351Y8781D02*
X10339D01*
X10374Y8798D02*
Y8763D01*
X10392D01*
X10398Y8769D01*
Y8781D01*
X10392Y8786D01*
X10374D01*
X10409Y8798D02*
Y8763D01*
X10427D01*
X10433Y8769D01*
Y8781D01*
X10427Y8786D01*
X10409D01*
X10421D02*
X10433Y8798D01*
X10444D02*
Y8763D01*
X10456Y8775D01*
X10468Y8763D01*
Y8798D01*
X8978Y8268D02*
X8966D01*
X8972D02*
X8978D01*
X8972D02*
Y8233D01*
X8973D01*
X8972D02*
X8966Y8239D01*
X8664Y8268D02*
X8641D01*
X8664Y8245D01*
Y8239D01*
X8658Y8233D01*
X8647D01*
X8641Y8239D01*
X9766Y8588D02*
Y8623D01*
Y8588D02*
X9783D01*
X9789Y8594D01*
Y8606D01*
X9783Y8611D01*
X9766D01*
X9778D02*
X9789Y8623D01*
X9807D02*
X9818D01*
X9807D02*
X9801Y8617D01*
Y8606D01*
X9807Y8600D01*
X9818D01*
X9824Y8606D01*
Y8611D01*
X9801D01*
X9836Y8600D02*
X9848Y8623D01*
X9859Y8600D01*
X9906Y8588D02*
Y8623D01*
Y8588D02*
X9923D01*
X9929Y8594D01*
Y8606D01*
X9923Y8611D01*
X9906D01*
X9941Y8623D02*
X9953D01*
X9947D01*
Y8588D01*
X9948D01*
X9947D02*
X9941Y8594D01*
X9661Y8468D02*
X9631D01*
Y8513D01*
X9661D01*
X9646Y8491D02*
X9631D01*
X9676Y8483D02*
X9706Y8513D01*
X9691Y8498D01*
X9706Y8483D01*
X9676Y8513D01*
X9721Y8528D02*
Y8483D01*
X9743D01*
X9751Y8491D01*
Y8506D01*
X9743Y8513D01*
X9721D01*
X9766D02*
X9781D01*
X9773D01*
Y8468D01*
X9766D01*
X9811Y8513D02*
X9826D01*
X9833Y8506D01*
Y8491D01*
X9826Y8483D01*
X9811D01*
X9803Y8491D01*
Y8506D01*
X9811Y8513D01*
X9848D02*
Y8483D01*
Y8498D02*
Y8513D01*
Y8498D02*
X9856Y8491D01*
X9863Y8483D01*
X9871D01*
X9901Y8513D02*
X9916D01*
X9901D02*
X9893Y8506D01*
Y8491D01*
X9901Y8483D01*
X9916D01*
X9923Y8491D01*
Y8498D01*
X9893D01*
X9938Y8483D02*
Y8513D01*
Y8498D01*
X9946Y8491D01*
X9953Y8483D01*
X9961D01*
X10028Y8468D02*
Y8513D01*
Y8491D01*
X10058D01*
Y8468D01*
Y8513D01*
X10073D02*
Y8483D01*
X10088Y8468D01*
X10103Y8483D01*
Y8513D01*
Y8491D01*
X10073D01*
X10118Y8468D02*
X10148D01*
X10133D01*
Y8513D01*
X9953Y7378D02*
X9941D01*
X9947D02*
X9953D01*
X9947D02*
Y7343D01*
X9948D01*
X9947D02*
X9941Y7349D01*
X10248Y7343D02*
Y7378D01*
X10231Y7361D02*
X10248Y7343D01*
X10254Y7361D02*
X10231D01*
X11092Y7894D02*
Y7929D01*
X11109D01*
X11115Y7923D01*
Y7917D01*
X11109Y7912D01*
X11092D01*
X11093D01*
X11092D02*
X11093D01*
X11092D02*
X11093D01*
X11092D02*
X11109D01*
X11115Y7906D01*
Y7900D01*
X11109Y7894D01*
X11092D01*
X11133Y7906D02*
X11144D01*
X11150Y7912D01*
Y7929D01*
X11133D01*
X11127Y7923D01*
X11133Y7917D01*
X11150D01*
X11168Y7906D02*
Y7900D01*
Y7906D02*
X11162D01*
X11174D01*
X11168D01*
Y7923D01*
X11174Y7929D01*
X11197Y7906D02*
Y7900D01*
Y7906D02*
X11191D01*
X11203D01*
X11197D01*
Y7923D01*
X11203Y7929D01*
X11174Y8239D02*
X11180Y8245D01*
X11174Y8239D02*
X11163D01*
X11157Y8245D01*
Y8251D01*
X11163Y8257D01*
X11174D01*
X11180Y8262D01*
Y8268D01*
X11174Y8274D01*
X11163D01*
X11157Y8268D01*
X11192Y8274D02*
Y8239D01*
X11204Y8262D02*
X11192Y8274D01*
X11204Y8262D02*
X11215Y8274D01*
Y8239D01*
X10479Y7409D02*
X10473Y7403D01*
X10462D01*
X10456Y7409D01*
Y7415D01*
X10462Y7421D01*
X10473D01*
X10479Y7426D01*
Y7432D01*
X10473Y7438D01*
X10462D01*
X10456Y7432D01*
X10491Y7438D02*
Y7403D01*
X10503Y7426D02*
X10491Y7438D01*
X10503Y7426D02*
X10514Y7438D01*
Y7403D01*
X10526Y7438D02*
X10549D01*
X10526D02*
X10549Y7415D01*
Y7409D01*
X10543Y7403D01*
X10532D01*
X10526Y7409D01*
X10331Y7298D02*
Y7263D01*
Y7298D02*
X10348D01*
X10354Y7292D01*
Y7269D01*
X10348Y7263D01*
X10331D01*
X10366Y7298D02*
X10389D01*
X10366D02*
X10389Y7275D01*
Y7269D01*
X10383Y7263D01*
X10372D01*
X10366Y7269D01*
X8639Y8118D02*
X8628D01*
X8633D01*
Y8147D01*
X8628Y8153D01*
X8622D01*
X8616Y8147D01*
X8651Y8124D02*
X8657Y8118D01*
X8668D01*
X8674Y8124D01*
Y8130D01*
X8675D01*
X8674D02*
X8675D01*
X8674D02*
X8675D01*
X8674D02*
X8668Y8136D01*
X8663D01*
X8668D01*
X8674Y8141D01*
Y8147D01*
X8668Y8153D01*
X8657D01*
X8651Y8147D01*
X9316Y8037D02*
Y8008D01*
Y8037D02*
X9322Y8043D01*
X9333D01*
X9339Y8037D01*
Y8008D01*
X9351D02*
X9374D01*
X9351D02*
Y8026D01*
X9363Y8020D01*
X9368D01*
X9374Y8026D01*
Y8037D01*
X9368Y8043D01*
X9357D01*
X9351Y8037D01*
X9398Y8228D02*
X9404Y8234D01*
X9398Y8228D02*
X9387D01*
X9381Y8234D01*
Y8257D01*
X9387Y8263D01*
X9398D01*
X9404Y8257D01*
X9416Y8263D02*
X9428D01*
X9422D01*
Y8228D01*
X9423D01*
X9422D02*
X9416Y8234D01*
X9445D02*
X9451Y8228D01*
X9463D01*
X9468Y8234D01*
Y8240D01*
X9469D01*
X9468D02*
X9469D01*
X9468D02*
X9469D01*
X9468D02*
X9463Y8246D01*
X9457D01*
X9463D01*
X9468Y8251D01*
Y8257D01*
X9463Y8263D01*
X9451D01*
X9445Y8257D01*
X9518Y8243D02*
X9524Y8249D01*
X9518Y8243D02*
X9507D01*
X9501Y8249D01*
Y8272D01*
X9507Y8278D01*
X9518D01*
X9524Y8272D01*
X9536Y8278D02*
X9548D01*
X9542D01*
Y8243D01*
X9543D01*
X9542D02*
X9536Y8249D01*
X9565D02*
X9571Y8243D01*
X9583D01*
X9588Y8249D01*
Y8255D01*
X9583Y8261D01*
X9588Y8266D01*
Y8272D01*
X9583Y8278D01*
X9571D01*
X9565Y8272D01*
Y8266D01*
X9571Y8261D01*
X9565Y8255D01*
Y8249D01*
X9571Y8261D02*
X9583D01*
X9989Y8158D02*
X10001D01*
X9995D02*
X9989D01*
X9995D02*
Y8187D01*
X9989Y8193D01*
X9983D01*
X9977Y8187D01*
X10012Y8158D02*
X10036D01*
X10012D02*
Y8176D01*
X10024Y8170D01*
X10030D01*
X10036Y8176D01*
Y8187D01*
X10030Y8193D01*
X10018D01*
X10012Y8187D01*
X10337Y8184D02*
Y8149D01*
Y8184D02*
X10354D01*
X10360Y8178D01*
Y8155D01*
X10354Y8149D01*
X10337D01*
X10372Y8184D02*
X10384D01*
X10378D01*
Y8149D01*
X10379D01*
X10378D02*
X10372Y8155D01*
X10464Y8064D02*
X10458Y8058D01*
X10447D01*
X10441Y8064D01*
Y8070D01*
X10447Y8076D01*
X10458D01*
X10464Y8081D01*
Y8087D01*
X10458Y8093D01*
X10447D01*
X10441Y8087D01*
X10476Y8093D02*
Y8058D01*
X10488Y8081D02*
X10476Y8093D01*
X10488Y8081D02*
X10499Y8093D01*
Y8058D01*
X10511Y8064D02*
X10517Y8058D01*
X10528D01*
X10534Y8064D01*
Y8070D01*
X10535D01*
X10534D02*
X10535D01*
X10534D02*
X10535D01*
X10534D02*
X10528Y8076D01*
X10523D01*
X10528D01*
X10534Y8081D01*
Y8087D01*
X10528Y8093D01*
X10517D01*
X10511Y8087D01*
X9819Y8009D02*
X9813Y8003D01*
X9802D01*
X9796Y8009D01*
Y8032D01*
X9802Y8038D01*
X9813D01*
X9819Y8032D01*
X9831Y8038D02*
X9843D01*
X9837D01*
Y8003D01*
X9838D01*
X9837D02*
X9831Y8009D01*
X9860Y8038D02*
X9883D01*
X9860D02*
X9883Y8015D01*
Y8009D01*
X9878Y8003D01*
X9866D01*
X9860Y8009D01*
X9839Y7663D02*
X9816Y7628D01*
X9839D02*
X9816Y7663D01*
X9851D02*
X9863D01*
X9857D01*
Y7628D01*
X9858D01*
X9857D02*
X9851Y7634D01*
X9863Y7848D02*
X9869Y7854D01*
X9863Y7848D02*
X9852D01*
X9846Y7854D01*
Y7877D01*
X9852Y7883D01*
X9863D01*
X9869Y7877D01*
X9881Y7883D02*
X9904D01*
X9881D02*
X9904Y7860D01*
Y7854D01*
X9898Y7848D01*
X9887D01*
X9881Y7854D01*
X9916D02*
X9922Y7848D01*
X9933D01*
X9939Y7854D01*
Y7860D01*
X9940D01*
X9939D02*
X9940D01*
X9939D02*
X9940D01*
X9939D02*
X9933Y7866D01*
X9928D01*
X9933D01*
X9939Y7871D01*
Y7877D01*
X9933Y7883D01*
X9922D01*
X9916Y7877D01*
X10073Y7352D02*
X10084D01*
X10078D02*
X10073D01*
X10078D02*
Y7381D01*
X10073Y7387D01*
X10067D01*
X10061Y7381D01*
X10113Y7387D02*
Y7352D01*
X10096Y7370D01*
X10119D01*
X9913Y7728D02*
X9919Y7734D01*
X9913Y7728D02*
X9902D01*
X9896Y7734D01*
Y7757D01*
X9902Y7763D01*
X9913D01*
X9919Y7757D01*
X9943Y7734D02*
X9954Y7728D01*
X9943Y7734D02*
X9931Y7746D01*
Y7757D01*
X9937Y7763D01*
X9948D01*
X9954Y7757D01*
Y7751D01*
X9948Y7746D01*
X9931D01*
X9744Y7539D02*
X9738Y7533D01*
X9727D01*
X9721Y7539D01*
Y7562D01*
X9727Y7568D01*
X9738D01*
X9744Y7562D01*
X9756Y7533D02*
X9779D01*
Y7539D01*
X9756Y7562D01*
Y7568D01*
X9579Y7599D02*
X9573Y7593D01*
X9562D01*
X9556Y7599D01*
Y7622D01*
X9562Y7628D01*
X9573D01*
X9579Y7622D01*
X9591Y7628D02*
X9603D01*
X9597D01*
Y7593D01*
X9598D01*
X9597D02*
X9591Y7599D01*
X9620Y7593D02*
X9643D01*
X9620D02*
Y7611D01*
X9632Y7605D01*
X9638D01*
X9643Y7611D01*
Y7622D01*
X9638Y7628D01*
X9626D01*
X9620Y7622D01*
X9566Y7493D02*
Y7458D01*
Y7493D02*
X9589D01*
X9601Y7464D02*
X9607Y7458D01*
X9618D01*
X9624Y7464D01*
Y7470D01*
X9625D01*
X9624D02*
X9625D01*
X9624D02*
X9625D01*
X9624D02*
X9618Y7476D01*
X9613D01*
X9618D01*
X9624Y7481D01*
Y7487D01*
X9618Y7493D01*
X9607D01*
X9601Y7487D01*
X9022Y7531D02*
Y7554D01*
Y7531D02*
X9034Y7519D01*
X9045Y7531D01*
Y7554D01*
Y7537D01*
X9022D01*
X9057Y7554D02*
X9069D01*
X9063D01*
Y7519D01*
X9064D01*
X9063D02*
X9057Y7525D01*
X9338Y7523D02*
X9344Y7529D01*
X9338Y7523D02*
X9327D01*
X9321Y7529D01*
Y7552D01*
X9327Y7558D01*
X9338D01*
X9344Y7552D01*
X9356Y7558D02*
X9379D01*
X9356D02*
X9379Y7535D01*
Y7529D01*
X9373Y7523D01*
X9362D01*
X9356Y7529D01*
X9391D02*
X9397Y7523D01*
X9408D01*
X9414Y7529D01*
Y7552D01*
X9408Y7558D01*
X9397D01*
X9391Y7552D01*
Y7529D01*
X9356Y7628D02*
Y7663D01*
X9379D01*
X9391D02*
X9414D01*
X9391D02*
X9414Y7640D01*
Y7634D01*
X9408Y7628D01*
X9397D01*
X9391Y7634D01*
X9366Y7693D02*
Y7722D01*
X9372Y7728D01*
X9383D01*
X9389Y7722D01*
Y7693D01*
X9413Y7699D02*
X9424Y7693D01*
X9413Y7699D02*
X9401Y7711D01*
Y7722D01*
X9407Y7728D01*
X9418D01*
X9424Y7722D01*
Y7716D01*
X9418Y7711D01*
X9401D01*
X9239Y7699D02*
X9233Y7693D01*
X9222D01*
X9216Y7699D01*
Y7722D01*
X9222Y7728D01*
X9233D01*
X9239Y7722D01*
X9251Y7728D02*
X9263D01*
X9257D01*
Y7693D01*
X9258D01*
X9257D02*
X9251Y7699D01*
X9298Y7693D02*
Y7728D01*
X9280Y7711D02*
X9298Y7693D01*
X9303Y7711D02*
X9280D01*
X9146Y7833D02*
Y7868D01*
Y7833D02*
X9163D01*
X9169Y7839D01*
Y7851D01*
X9163Y7856D01*
X9146D01*
X9158D02*
X9169Y7868D01*
X9181D02*
X9193D01*
X9187D01*
Y7833D01*
X9188D01*
X9187D02*
X9181Y7839D01*
X9222D02*
X9233Y7833D01*
X9222Y7839D02*
X9210Y7851D01*
Y7862D01*
X9216Y7868D01*
X9228D01*
X9233Y7862D01*
Y7856D01*
X9228Y7851D01*
X9210D01*
X9283Y7948D02*
X9289Y7954D01*
X9283Y7948D02*
X9272D01*
X9266Y7954D01*
Y7977D01*
X9272Y7983D01*
X9283D01*
X9289Y7977D01*
X9301Y7983D02*
X9313D01*
X9307D01*
Y7948D01*
X9308D01*
X9307D02*
X9301Y7954D01*
X9330Y7977D02*
X9336Y7983D01*
X9348D01*
X9353Y7977D01*
Y7954D01*
X9348Y7948D01*
X9336D01*
X9330Y7954D01*
Y7960D01*
X9336Y7966D01*
X9353D01*
X8966Y7828D02*
Y7793D01*
X8983D01*
X8989Y7799D01*
Y7811D01*
X8983Y7816D01*
X8966D01*
X8978D02*
X8989Y7828D01*
X9001D02*
X9013D01*
X9007D01*
Y7793D01*
X9008D01*
X9007D02*
X9001Y7799D01*
X9048Y7793D02*
Y7828D01*
X9030Y7811D02*
X9048Y7793D01*
X9053Y7811D02*
X9030D01*
X8836Y7958D02*
Y7993D01*
Y7958D02*
X8853D01*
X8859Y7964D01*
Y7976D01*
X8853Y7981D01*
X8836D01*
X8848D02*
X8859Y7993D01*
X8871D02*
X8883D01*
X8877D01*
Y7958D01*
X8878D01*
X8877D02*
X8871Y7964D01*
X8900Y7958D02*
X8923D01*
X8900D02*
Y7976D01*
X8912Y7970D01*
X8918D01*
X8923Y7976D01*
Y7987D01*
X8918Y7993D01*
X8906D01*
X8900Y7987D01*
X8611Y7938D02*
Y7903D01*
Y7938D02*
X8628D01*
X8634Y7932D01*
Y7909D01*
X8628Y7903D01*
X8611D01*
X8663D02*
Y7938D01*
X8646Y7921D02*
X8663Y7903D01*
X8669Y7921D02*
X8646D01*
X8611Y7868D02*
Y7833D01*
Y7868D02*
X8628D01*
X8634Y7862D01*
Y7839D01*
X8628Y7833D01*
X8611D01*
X8646Y7839D02*
X8652Y7833D01*
X8663D01*
X8669Y7839D01*
Y7845D01*
X8670D01*
X8669D02*
X8670D01*
X8669D02*
X8670D01*
X8669D02*
X8663Y7851D01*
X8658D01*
X8663D01*
X8669Y7856D01*
Y7862D01*
X8663Y7868D01*
X8652D01*
X8646Y7862D01*
D17*
X9791Y7824D02*
X9800Y7814D01*
X9800Y7670D01*
X9673D02*
Y7824D01*
Y7670D02*
X9800D01*
X9791Y7824D02*
X9673D01*
X10296Y7328D02*
Y7228D01*
X9896D02*
Y7328D01*
X10296D01*
Y7228D02*
X9896D01*
D18*
X10836Y7180D02*
Y7138D01*
Y7180D02*
X10844Y7188D01*
X10861D01*
X10869Y7180D01*
Y7138D01*
X10886Y7155D02*
Y7205D01*
Y7155D02*
X10911D01*
X10919Y7163D01*
Y7180D01*
X10911Y7188D01*
X10886D01*
X9701Y8383D02*
X9684D01*
X9676Y8391D01*
Y8425D01*
X9684Y8433D01*
X9701D01*
X9709Y8425D01*
Y8391D01*
X9701Y8383D01*
X9726Y8400D02*
Y8450D01*
Y8400D02*
X9751D01*
X9759Y8408D01*
Y8425D01*
X9751Y8433D01*
X9726D01*
X9784D02*
X9801D01*
X9784D02*
X9776Y8425D01*
Y8408D01*
X9784Y8400D01*
X9801D01*
X9809Y8408D01*
Y8416D01*
X9776D01*
X9826Y8433D02*
Y8400D01*
X9851D01*
X9859Y8408D01*
Y8433D01*
X9926D02*
Y8400D01*
X9943Y8383D01*
X9959Y8400D01*
Y8433D01*
Y8408D01*
X9926D01*
X9976Y8433D02*
Y8383D01*
X10001D01*
X10009Y8391D01*
Y8408D01*
X10001Y8416D01*
X9976D01*
X10051Y8383D02*
X10059Y8391D01*
X10051Y8383D02*
X10034D01*
X10026Y8391D01*
Y8400D01*
X10034Y8408D01*
X10051D01*
X10059Y8416D01*
Y8425D01*
X10051Y8433D01*
X10034D01*
X10026Y8425D01*
X10771Y7908D02*
Y7858D01*
Y7908D02*
X10796D01*
X10804Y7900D01*
Y7866D01*
X10796Y7858D01*
X10771D01*
X10829Y7908D02*
X10846D01*
X10854Y7900D01*
Y7883D01*
X10846Y7875D01*
X10829D01*
X10821Y7883D01*
Y7900D01*
X10829Y7908D01*
X10871Y7900D02*
Y7875D01*
Y7900D02*
X10879Y7908D01*
X10888Y7900D01*
X10896Y7908D01*
X10904Y7900D01*
Y7875D01*
X10921D02*
Y7908D01*
Y7875D02*
X10946D01*
X10954Y7883D01*
Y7908D01*
X11147Y7839D02*
X11180D01*
X11164Y7856D02*
Y7822D01*
X11147Y7979D02*
X11180D01*
X10730Y7409D02*
Y7298D01*
X10997D02*
Y7409D01*
X10981Y7473D02*
X10746D01*
Y7233D02*
X10981D01*
X11171Y7143D02*
Y7093D01*
X11046D02*
Y7143D01*
X11156D02*
Y7093D01*
X11051Y7143D02*
X11046D01*
Y7093D02*
X11156D01*
Y7143D02*
X11051D01*
X9413Y8063D02*
X9396Y8045D01*
X9396Y7848D02*
Y7828D01*
X9631D02*
Y7848D01*
Y8043D02*
Y8063D01*
X9416Y7828D02*
X9396D01*
X9611Y8063D02*
X9631D01*
Y7828D02*
X9611D01*
X9922Y8713D02*
Y8783D01*
X10071D02*
Y8713D01*
X9922D01*
Y8783D02*
X10071D01*
X11142Y8734D02*
Y8684D01*
X11017D02*
Y8734D01*
X11127D02*
Y8684D01*
X11022Y8734D02*
X11017D01*
Y8684D02*
X11127D01*
Y8734D02*
X11022D01*
X10730Y8164D02*
Y8053D01*
X10997D02*
Y8164D01*
X10981Y8228D02*
X10746D01*
Y7988D02*
X10981D01*
X9505Y7471D02*
Y7463D01*
X9513D01*
Y7471D01*
X9505D01*
X8634Y7365D02*
Y7129D01*
X9492D02*
Y7365D01*
X9158Y7042D02*
X8973D01*
Y7451D02*
X9158D01*
X9485Y7733D02*
X9491D01*
X9485D02*
Y7727D01*
X9491D01*
Y7733D01*
X9536Y7713D02*
X9441D01*
Y7798D02*
X9536D01*
X8681Y7898D02*
Y7948D01*
X8806D02*
Y7898D01*
X8696D02*
Y7948D01*
X8801Y7898D02*
X8806D01*
Y7948D02*
X8696D01*
Y7898D02*
X8801D01*
X8681Y7878D02*
Y7828D01*
X8806D02*
Y7878D01*
X8696D02*
Y7828D01*
X8801D02*
X8806D01*
Y7878D02*
X8696D01*
Y7828D02*
X8801D01*
D19*
X9486Y8088D02*
Y8133D01*
X9426D02*
Y8088D01*
Y8163D02*
Y8205D01*
X9486D02*
Y8163D01*
Y8088D02*
X9426D01*
Y8205D02*
X9486D01*
X9501Y8213D02*
Y8168D01*
X9571D02*
Y8213D01*
Y8138D02*
Y8088D01*
X9501D02*
Y8138D01*
Y8213D02*
X9571D01*
Y8088D02*
X9501D01*
X9773Y8053D02*
Y7993D01*
X9656D02*
Y8053D01*
X9728D02*
X9773D01*
Y7993D02*
X9728D01*
X9698D02*
X9656D01*
Y8053D02*
X9698D01*
X9828Y7898D02*
Y7838D01*
X9711D02*
Y7898D01*
X9786Y7838D02*
X9828D01*
Y7898D02*
X9786D01*
X9756D02*
X9711D01*
Y7838D02*
X9756D01*
X9876Y7743D02*
Y7698D01*
X9816D02*
Y7743D01*
Y7773D02*
Y7815D01*
X9876D02*
Y7773D01*
Y7698D02*
X9816D01*
Y7815D02*
X9876D01*
X9676Y7653D02*
Y7593D01*
X9793D02*
Y7653D01*
X9721Y7593D02*
X9676D01*
Y7653D02*
X9721D01*
X9751D02*
X9793D01*
Y7593D02*
X9751D01*
X9626Y7733D02*
Y7775D01*
X9566D02*
Y7733D01*
Y7703D02*
Y7658D01*
X9626D02*
Y7703D01*
Y7775D02*
X9566D01*
Y7658D02*
X9626D01*
X9509Y7443D02*
Y7383D01*
X9626D02*
Y7443D01*
X9551D02*
X9509D01*
Y7383D02*
X9551D01*
X9581D02*
X9626D01*
Y7443D02*
X9581D01*
X9436Y7466D02*
Y7508D01*
X9496D02*
Y7466D01*
Y7538D02*
Y7583D01*
X9436D02*
Y7538D01*
Y7466D02*
X9496D01*
Y7583D02*
X9436D01*
Y7586D02*
Y7628D01*
X9496D02*
Y7586D01*
Y7658D02*
Y7703D01*
X9436D02*
Y7658D01*
Y7586D02*
X9496D01*
Y7703D02*
X9436D01*
X9246Y7743D02*
Y7803D01*
X9363D02*
Y7743D01*
X9288Y7803D02*
X9246D01*
Y7743D02*
X9288D01*
X9318D02*
X9363D01*
Y7803D02*
X9318D01*
X9366D02*
Y7863D01*
X9249D02*
Y7803D01*
X9321Y7863D02*
X9366D01*
Y7803D02*
X9321D01*
X9291D02*
X9249D01*
Y7863D02*
X9291D01*
X9366Y7873D02*
Y7933D01*
X9249D02*
Y7873D01*
X9321Y7933D02*
X9366D01*
Y7873D02*
X9321D01*
X9291D02*
X9249D01*
Y7933D02*
X9291D01*
X8821Y7878D02*
Y7808D01*
X8946D02*
Y7878D01*
X8871D02*
X8821D01*
Y7808D02*
X8871D01*
X8901D02*
X8946D01*
Y7878D02*
X8901D01*
X8821D02*
Y7948D01*
X8946D02*
Y7878D01*
X8871Y7948D02*
X8821D01*
Y7878D02*
X8871D01*
X8901D02*
X8946D01*
Y7948D02*
X8901D01*
D02*
M02*
