M71
M48
T1F00S00C0.015
T2F00S00C0.031
T3F00S00C0.035
T4F00S00C0.039
T5F00S00C0.047
T6F00S00C0.050
T7F00S00C0.100
T8F00S00C0.108
%
T01
X01939Y00034
X02039
Y00114
X02034Y00154
X02139Y00034
X02239
X02339
X02449Y00099
X02544Y00369
X02594
X02499Y00474
X02579Y00749
X02475Y0086
X02524Y01054
X02564
X02169
X02004Y01034
X02044Y00834
X02254Y00929
X02289
X02275Y0075
X02149Y00579
X01615Y00715
X0158
X0154
Y00765
X0158
X01615
X0163Y00865
X0167
X01585
X01389Y00889
X01409Y01004
X01244Y00959
X01269Y00934
X01229Y00889
X01185Y0094
X0115
X01009Y00924
X00959
X00909
Y00869
X00959
X01009
X01074Y00819
Y00699
X01039Y00629
X00965Y0067
X00839Y00739
X00769Y00714
X00679Y00754
Y00794
X00629Y00879
X00569Y00859
X00544Y00804
X00494Y00829
Y00884
Y00934
X00464Y00959
Y00909
X00569Y00959
X00594Y00989
X00435Y01045
X00339Y00989
Y00474
X00439
X00539
X00639
X00739
X00839
X00974
Y00349
Y00249
Y00149
Y00049
X01039Y00034
X01139
X01239
X01339
X01389Y00074
X01439Y00034
X01539
X01639
X01739
X01839
X01545Y0044
X01289Y00664
X01269Y00814
X01219Y01034
X01009Y00984
X00959
X00909
X00814Y01044
X00779Y01069
X00784Y00844
X00809Y00864
X01189Y00569
X01089Y00394
X01804Y00994
X00034Y00949
Y00849
Y00749
X00039Y00474
X00139
X00239
X00034Y01049
Y01149
Y01249
X00074Y01274
X00144Y01309
X00189Y01274
X00254Y01249
X00264Y01154
X00034Y01349
X00179Y01709
X0048Y01705
X00529Y01729
X00585Y0168
X00594Y01579
X00569Y01554
X00489Y01529
X00464Y01504
X00504Y01304
X00554Y01279
X00435Y01285
X00329Y01334
X00659Y01304
X00684Y01279
X00719Y01234
X0072Y01335
X00765Y01485
X008
X00829Y01464
X00929Y01489
X0094Y01335
X00979Y01204
X00854Y01154
X00629Y01094
X00594Y01129
X00679Y01729
X00929
X01229
X0128Y01705
X0118Y0168
X01229Y01539
X01329Y01514
X01409Y01554
X01429Y01579
X01529Y01544
X0128Y01435
X0118
X0113Y01335
X01365
X01509Y01199
X01729Y01729
X01929
X02395Y0174
X02485Y0165
X02295Y01605
X02219Y01474
X02299Y01359
X02304Y01259
Y01219
X02264Y01215
X02235
X02249Y01235
X02235Y01255
X02264
X02189Y01259
Y01219
X02239Y01084
X02374
X02565Y01095
X026
X02019Y01304
T02
X014Y01729
X01479
T03
X02509Y01102
X02509Y0137
T04
X00262Y01052
X00262Y01202
T05
X00379Y01519
X02179Y01519
T06
X01389Y00259
X01489
X01589
X01689
T07
X01949Y00274
X01133Y00273
Y01186
X01948
T08
X02421Y00614
X00138
Y01519
X02421Y01519
M30
