*%FSLAX23Y23*%
*%MOIN*%
G01*
%ADD11C,0.000*%
%ADD12C,0.001*%
%ADD13C,0.002*%
%ADD14C,0.006*%
%ADD15C,0.007*%
%ADD16C,0.007*%
%ADD17C,0.008*%
%ADD18C,0.010*%
%ADD19C,0.012*%
%ADD20C,0.015*%
%ADD21C,0.018*%
%ADD22C,0.022*%
%ADD23C,0.024*%
%ADD24C,0.025*%
%ADD25C,0.029*%
%ADD26C,0.031*%
%ADD27C,0.031*%
%ADD28C,0.035*%
%ADD29C,0.035*%
%ADD30C,0.039*%
%ADD31C,0.039*%
%ADD32C,0.046*%
%ADD33C,0.047*%
%ADD34C,0.050*%
%ADD35C,0.051*%
%ADD36C,0.051*%
%ADD37C,0.054*%
%ADD38C,0.055*%
%ADD39C,0.058*%
%ADD40C,0.059*%
%ADD41C,0.059*%
%ADD42C,0.062*%
%ADD43C,0.067*%
%ADD44C,0.070*%
%ADD45C,0.074*%
%ADD46C,0.100*%
%ADD47C,0.108*%
%ADD48C,0.108*%
%ADD49C,0.120*%
%ADD50C,0.128*%
%ADD51C,0.128*%
%ADD52C,0.190*%
%ADD53C,0.194*%
%ADD54C,0.236*%
%ADD55C,0.240*%
%ADD56R,0.011X0.030*%
%ADD57R,0.012X0.030*%
%ADD58R,0.012X0.057*%
%ADD59R,0.014X0.033*%
%ADD60R,0.015X0.034*%
%ADD61R,0.016X0.034*%
%ADD62R,0.016X0.061*%
%ADD63R,0.018X0.037*%
%ADD64R,0.020X0.025*%
%ADD65R,0.021X0.021*%
%ADD66R,0.024X0.029*%
%ADD67R,0.025X0.020*%
%ADD68R,0.029X0.024*%
%ADD69R,0.030X0.011*%
%ADD70R,0.030X0.030*%
%ADD71R,0.031X0.031*%
%ADD72R,0.033X0.014*%
%ADD73R,0.034X0.015*%
%ADD74R,0.034X0.034*%
%ADD75R,0.035X0.035*%
%ADD76R,0.037X0.014*%
%ADD77R,0.037X0.018*%
%ADD78R,0.039X0.055*%
%ADD79R,0.039X0.014*%
%ADD80R,0.040X0.083*%
%ADD81R,0.041X0.018*%
%ADD82R,0.043X0.059*%
%ADD83R,0.043X0.018*%
%ADD84R,0.044X0.087*%
%ADD85R,0.047X0.055*%
%ADD86R,0.050X0.060*%
%ADD87R,0.051X0.071*%
%ADD88R,0.051X0.059*%
%ADD89R,0.054X0.064*%
%ADD90R,0.055X0.039*%
%ADD91R,0.055X0.075*%
%ADD92R,0.057X0.067*%
%ADD93R,0.059X0.043*%
%ADD94R,0.060X0.060*%
%ADD95R,0.061X0.024*%
%ADD96R,0.061X0.051*%
%ADD97R,0.061X0.071*%
%ADD98R,0.063X0.039*%
%ADD99R,0.063X0.126*%
%ADD100R,0.064X0.064*%
%ADD101R,0.065X0.028*%
%ADD102R,0.065X0.055*%
%ADD103R,0.067X0.043*%
%ADD104R,0.067X0.130*%
%ADD105R,0.085X0.030*%
%ADD106R,0.089X0.034*%
%ADD107R,0.094X0.030*%
%ADD108R,0.098X0.070*%
%ADD109R,0.098X0.034*%
%ADD110R,0.102X0.074*%
%ADD111R,0.104X0.104*%
%ADD112R,0.108X0.108*%
%ADD113R,0.134X0.059*%
%ADD114R,0.138X0.039*%
%ADD115R,0.138X0.063*%
%ADD116R,0.142X0.043*%
%ADD117R,0.169X0.169*%
%ADD118R,0.173X0.173*%
%ADD119R,0.250X0.250*%
D13*
X10356Y6873D02*
Y6933D01*
Y6873D02*
X10386D01*
X10396Y6883D01*
Y6893D01*
X10386Y6903D01*
X10356D01*
X10357D01*
X10356D02*
X10357D01*
X10356D02*
X10357D01*
X10356D02*
X10386D01*
X10396Y6913D01*
Y6923D01*
X10386Y6933D01*
X10356D01*
X10426Y6873D02*
X10446D01*
X10456Y6883D01*
Y6903D01*
X10446Y6913D01*
X10426D01*
X10416Y6903D01*
Y6883D01*
X10426Y6873D01*
X10486Y6913D02*
Y6923D01*
Y6913D02*
X10476D01*
X10496D01*
X10486D01*
Y6883D01*
X10496Y6873D01*
X10536Y6913D02*
Y6923D01*
Y6913D02*
X10526D01*
X10546D01*
X10536D01*
Y6883D01*
X10546Y6873D01*
X10586D02*
X10606D01*
X10616Y6883D01*
Y6903D01*
X10606Y6913D01*
X10586D01*
X10576Y6903D01*
Y6883D01*
X10586Y6873D01*
X10636D02*
Y6913D01*
X10646D01*
X10656Y6903D01*
Y6873D01*
Y6903D01*
X10666Y6913D01*
X10676Y6903D01*
Y6873D01*
X10756D02*
Y6933D01*
Y6873D02*
X10796D01*
X10826Y6913D02*
X10846D01*
X10856Y6903D01*
Y6873D01*
X10826D01*
X10816Y6883D01*
X10826Y6893D01*
X10856D01*
X10876Y6883D02*
Y6913D01*
Y6883D02*
X10886Y6873D01*
X10916D01*
Y6863D01*
X10906Y6853D01*
X10896D01*
X10916Y6873D02*
Y6913D01*
X10946Y6873D02*
X10966D01*
X10946D02*
X10936Y6883D01*
Y6903D01*
X10946Y6913D01*
X10966D01*
X10976Y6903D01*
Y6893D01*
X10936D01*
X10996Y6873D02*
Y6913D01*
Y6893D02*
Y6873D01*
Y6893D02*
X11006Y6903D01*
X11016Y6913D01*
X11026D01*
D15*
X11068Y7214D02*
X11217D01*
X11068D02*
X10976D01*
X10753D01*
X10661D01*
X10583D01*
X10429D02*
X10333D01*
X10177D02*
X9768D01*
X9612D02*
X9515D01*
X10577Y7208D02*
X11217D01*
X10435D02*
X10339D01*
X10183D02*
X9762D01*
X9618D02*
X9515D01*
X10610Y7202D02*
X11217D01*
X10610D02*
X10569D01*
X10443D02*
X10345D01*
X10189D02*
X9754D01*
X9626D02*
X9515D01*
X10610Y7196D02*
X11217D01*
X10575D02*
X10559D01*
X10453D02*
X10351D01*
X10195D02*
X9745D01*
X9635D02*
X9515D01*
X10613Y7190D02*
X11217D01*
X10201D02*
X9732D01*
X9648D02*
X9515D01*
X10617Y7184D02*
X11217D01*
X10207D02*
X9713D01*
X9667D02*
X9515D01*
X10619Y7178D02*
X11217D01*
X10213D02*
X9515D01*
X10619Y7172D02*
X11217D01*
X10219D02*
X9515D01*
X10618Y7166D02*
X11217D01*
X10225D02*
X9515D01*
X11162Y7160D02*
X11217D01*
X11162D02*
X11102D01*
X11100D02*
X11040D01*
X10616D01*
X10231D02*
X9515D01*
X11162Y7154D02*
X11217D01*
X11162D02*
X11102D01*
X11100D02*
X11040D01*
X10616D01*
X10237D02*
X9515D01*
X11162Y7148D02*
X11217D01*
X11040D02*
X10986D01*
X10620D01*
X10243D02*
X9515D01*
X11162Y7142D02*
X11215D01*
X11040D02*
X11020D01*
X10986D02*
X10623D01*
X10249D02*
X9515D01*
X11162Y7136D02*
X11209D01*
X10985D02*
X10624D01*
X10255D02*
X9515D01*
X11162Y7130D02*
X11203D01*
X10981D02*
X10624D01*
X10261D02*
X9515D01*
X11162Y7124D02*
X11197D01*
X10979D02*
X10623D01*
X10266D02*
X9515D01*
X11162Y7118D02*
X11191D01*
X10978D02*
X10620D01*
X10266D02*
X9515D01*
X11162Y7112D02*
X11185D01*
X10979D02*
X10616D01*
X10572D02*
X10350D01*
X10302D01*
X10293D01*
X10279D01*
X10266D01*
X9515D01*
X11162Y7106D02*
X11179D01*
X10981D02*
X10616D01*
X10610D02*
X10603D01*
X10589D02*
X10572D01*
X10350D01*
X10302D01*
X10287D01*
X10285D02*
X10266D01*
X9515D01*
X11162Y7100D02*
X11173D01*
X10985D02*
X9515D01*
X11020Y7094D02*
X11040D01*
X10986D02*
X9515D01*
X10986Y7088D02*
X11040D01*
X10986D02*
X9515D01*
X11102Y7082D02*
X11155D01*
X11100D02*
X11040D01*
X9515D01*
X11102Y7076D02*
X11149D01*
X11100D02*
X11040D01*
X9515D01*
Y7070D02*
X11143D01*
X11137Y7064D02*
X9515D01*
Y7058D02*
X11131D01*
X11125Y7052D02*
X9515D01*
Y7046D02*
X11119D01*
X11113Y7040D02*
X9515D01*
Y7039D02*
X11112D01*
X10571Y7192D02*
X10552D01*
X10460D02*
X10354D01*
X10572Y7114D02*
X10576D01*
X10572D02*
X10350D01*
X10302D01*
X10298D01*
X10568D02*
X10572D01*
X10302D02*
X10294D01*
X10278D01*
X10266D01*
X10263D01*
X11026Y7138D02*
X11040D01*
Y7098D02*
X11026D01*
X11102Y7087D02*
X11160D01*
X11102D02*
X11100D01*
X11096D01*
X11102Y7149D02*
X11162D01*
X11102D02*
X11100D01*
X11096D01*
X11100Y7087D02*
X11090D01*
X11040D01*
X11036D01*
X11090Y7149D02*
X11100D01*
X11090D02*
X11040D01*
X11036D01*
X11131Y7118D02*
X11162D01*
X11170Y7412D02*
X11217D01*
X11132D02*
X11068D01*
X10976D02*
X10753D01*
X10661D02*
X9940D01*
X9854D02*
X9619D01*
X11172Y7406D02*
X11217D01*
X11130D02*
X11068D01*
X10976D02*
X10753D01*
X10661D02*
X9946D01*
X9854D02*
X9619D01*
X11176Y7400D02*
X11217D01*
X11126D02*
X11068D01*
X10976D02*
X10753D01*
X10661D02*
X10534D01*
X10478D02*
X9952D01*
X9854D02*
X9713D01*
X9667D02*
X9619D01*
X11178Y7394D02*
X11217D01*
X11124D02*
X11068D01*
X10976D01*
X10753D01*
X10661D01*
X10551D01*
X10461D02*
X10180D01*
X9958D01*
X9854D02*
X9732D01*
X9648D02*
X9619D01*
X11179Y7388D02*
X11217D01*
X11123D02*
X11068D01*
X10976D01*
X10753D01*
X10661D01*
X10562D01*
X10450D02*
X10180D01*
X10164D01*
X10158D02*
X9964D01*
X9854D02*
X9745D01*
X9635D02*
X9619D01*
X11178Y7382D02*
X11217D01*
X11124D02*
X10571D01*
X10441D02*
X10180D01*
X10170D01*
X9854D02*
X9754D01*
X9619D02*
X9569D01*
X9563D02*
X9515D01*
X11176Y7376D02*
X11217D01*
X11126D02*
X10579D01*
X10433D02*
X10180D01*
X9854D02*
X9762D01*
X9618D02*
X9569D01*
X9563D02*
X9515D01*
X11172Y7370D02*
X11217D01*
X11130D02*
X10585D01*
X10427D02*
X10182D01*
X9854D02*
X9768D01*
X9612D02*
X9515D01*
X11170Y7364D02*
X11217D01*
X11132D02*
X10591D01*
X10421D02*
X10188D01*
X9854D02*
X9774D01*
X9606D02*
X9515D01*
X11170Y7358D02*
X11217D01*
X11170D02*
X11132D01*
X10595D01*
X10417D02*
X10194D01*
X9854D02*
X9779D01*
X9601D02*
X9515D01*
X10599Y7352D02*
X11217D01*
X10413D02*
X10200D01*
X9850D02*
X9783D01*
X9597D02*
X9515D01*
X10603Y7346D02*
X11217D01*
X10409D02*
X10206D01*
X9848D02*
X9786D01*
X9594D02*
X9515D01*
X10606Y7340D02*
X11217D01*
X10406D02*
X10212D01*
X9854D02*
X9790D01*
X9590D02*
X9515D01*
X10609Y7334D02*
X11217D01*
X10403D02*
X10218D01*
X9854D02*
X9792D01*
X9588D02*
X9515D01*
X10611Y7328D02*
X11217D01*
X10401D02*
X10253D01*
X10239D02*
X10224D01*
X9866D02*
X9854D01*
X9794D01*
X9586D02*
X9515D01*
X10613Y7322D02*
X11217D01*
X10399D02*
X10271D01*
X9872D02*
X9854D01*
X9796D01*
X9584D02*
X9515D01*
X11068Y7316D02*
X11217D01*
X11068D02*
X10976D01*
X10753D01*
X10661D01*
X10614D01*
X10398D02*
X10279D01*
X9878D02*
X9854D01*
X9798D01*
X9582D02*
X9515D01*
X11068Y7310D02*
X11217D01*
X11068D02*
X10976D01*
X10753D01*
X10661D01*
X10615D01*
X10397D02*
X10285D01*
X9884D02*
X9799D01*
X9581D02*
X9515D01*
X11068Y7304D02*
X11217D01*
X10976D02*
X10753D01*
X10661D02*
X10616D01*
X10396D02*
X10289D01*
X9890D02*
X9800D01*
X9580D02*
X9515D01*
X11068Y7298D02*
X11217D01*
X10976D02*
X10753D01*
X10661D02*
X10616D01*
X10396D02*
X10292D01*
X9896D02*
X9800D01*
X9580D02*
X9515D01*
X11068Y7292D02*
X11217D01*
X10976D02*
X10753D01*
X10661D02*
X10616D01*
X10396D02*
X10295D01*
X9897D02*
X9800D01*
X9580D02*
X9515D01*
X11068Y7286D02*
X11217D01*
X10976D02*
X10753D01*
X10661D02*
X10616D01*
X10396D02*
X10296D01*
X9896D02*
X9800D01*
X9580D02*
X9515D01*
X11068Y7280D02*
X11217D01*
X10976D02*
X10753D01*
X10661D02*
X10616D01*
X10396D02*
X10296D01*
X9896D02*
X9800D01*
X9580D02*
X9515D01*
X11068Y7274D02*
X11217D01*
X10976D02*
X10753D01*
X10661D02*
X10615D01*
X10397D02*
X10296D01*
X9896D02*
X9799D01*
X9581D02*
X9515D01*
X11068Y7268D02*
X11217D01*
X10976D02*
X10753D01*
X10661D02*
X10614D01*
X10398D02*
X10296D01*
X9896D02*
X9798D01*
X9582D02*
X9515D01*
X11068Y7262D02*
X11217D01*
X10976D02*
X10753D01*
X10661D02*
X10612D01*
X10400D02*
X10294D01*
X9898D02*
X9796D01*
X9584D02*
X9515D01*
X11068Y7256D02*
X11217D01*
X10976D02*
X10753D01*
X10661D02*
X10610D01*
X10402D02*
X10291D01*
X10101D02*
X10091D01*
X10001D02*
X9991D01*
X9901D02*
X9794D01*
X9586D02*
X9515D01*
X11068Y7250D02*
X11217D01*
X10976D02*
X10753D01*
X10661D02*
X10608D01*
X10404D02*
X10297D01*
X10104D02*
X10088D01*
X10004D02*
X9988D01*
X9904D02*
X9792D01*
X9588D02*
X9515D01*
X11068Y7244D02*
X11217D01*
X10976D02*
X10753D01*
X10661D02*
X10605D01*
X10407D02*
X10303D01*
X10109D02*
X10083D01*
X10009D02*
X9983D01*
X9909D02*
X9790D01*
X9590D02*
X9515D01*
X11068Y7238D02*
X11217D01*
X10976D02*
X10753D01*
X10661D02*
X10602D01*
X10410D02*
X10309D01*
X10115D02*
X10077D01*
X10015D02*
X9977D01*
X9915D02*
X9786D01*
X9594D02*
X9515D01*
X11068Y7232D02*
X11217D01*
X10976D02*
X10753D01*
X10661D02*
X10598D01*
X10414D02*
X10315D01*
X10125D02*
X10067D01*
X10025D02*
X9967D01*
X9925D02*
X9783D01*
X9597D02*
X9515D01*
X11068Y7226D02*
X11217D01*
X10976D02*
X10753D01*
X10661D02*
X10594D01*
X10418D02*
X10321D01*
X10165D02*
X9779D01*
X9601D02*
X9515D01*
X11068Y7220D02*
X11217D01*
X11068D02*
X10976D01*
X10753D01*
X10661D01*
X10589D01*
X10423D02*
X10327D01*
X10171D02*
X9774D01*
X9606D02*
X9515D01*
X10169Y7382D02*
X10180D01*
X10169D02*
X10153D01*
X9969D01*
X9867Y7326D02*
X9854D01*
X10976Y7400D02*
X11068D01*
X10753D02*
X10661D01*
X10976Y7223D02*
X11068D01*
Y7305D02*
X10976D01*
X10753Y7223D02*
X10661D01*
Y7305D02*
X10753D01*
X9569Y7388D02*
X9566D01*
X9563D01*
X9515D01*
X9569D02*
X9619D01*
X9563D02*
X9560D01*
X10661Y7264D02*
X10707D01*
X10753D01*
X10976D02*
X11022D01*
X11068D01*
X11109Y7604D02*
X11217D01*
X10848D02*
X10733D01*
X10679D02*
X9940D01*
X9854D02*
X9789D01*
X9683D02*
X9492D01*
X9440D02*
X8825D01*
X11107Y7598D02*
X11217D01*
X10849D02*
X10734D01*
X10678D02*
X9940D01*
X9854D02*
X9789D01*
X9692D02*
X9683D01*
X9492D01*
X9440D02*
X8824D01*
X11106Y7592D02*
X11217D01*
X10851D02*
X10733D01*
X10679D02*
X9940D01*
X9854D02*
X9789D01*
X9739D01*
X9730D02*
X9692D01*
X9683D01*
X9492D01*
X9440D02*
X8822D01*
X11104Y7586D02*
X11217D01*
X10853D02*
X10731D01*
X10681D02*
X9940D01*
X9854D02*
X9789D01*
X9739D01*
X9733D02*
X9683D01*
X9492D01*
X9440D02*
X8820D01*
X11101Y7580D02*
X11217D01*
X10855D02*
X10727D01*
X10685D02*
X9940D01*
X9854D02*
X9492D01*
X9440D02*
X8818D01*
X11098Y7574D02*
X11217D01*
X10858D02*
X10726D01*
X10686D02*
X9940D01*
X9854D02*
X9492D01*
X9440D02*
X8815D01*
X11095Y7568D02*
X11217D01*
X10861D02*
X10726D01*
X10686D02*
X9940D01*
X9854D02*
X9492D01*
X9440D02*
X8812D01*
X11092Y7562D02*
X11217D01*
X10865D02*
X10726D01*
X10686D02*
X9940D01*
X9854D02*
X9492D01*
X9440D02*
X8808D01*
X8581D02*
X8572D01*
X11088Y7556D02*
X11217D01*
X10869D02*
X10726D01*
X10686D02*
X9940D01*
X9854D02*
X9492D01*
X9440D02*
X8804D01*
X8585D02*
X8572D01*
X11083Y7550D02*
X11217D01*
X10873D02*
X10726D01*
X10686D02*
X9940D01*
X9854D02*
X9492D01*
X9440D02*
X8800D01*
X8590D02*
X8572D01*
X11078Y7544D02*
X11217D01*
X10878D02*
X10726D01*
X10686D02*
X9940D01*
X9854D02*
X9492D01*
X9440D02*
X8795D01*
X8595D02*
X8572D01*
X11073Y7538D02*
X11217D01*
X10884D02*
X10726D01*
X10686D02*
X9940D01*
X9854D02*
X9492D01*
X9440D02*
X8789D01*
X8600D02*
X8572D01*
X11066Y7532D02*
X11217D01*
X10890D02*
X10726D01*
X10686D02*
X9940D01*
X9854D02*
X9492D01*
X9440D02*
X8783D01*
X8607D02*
X8572D01*
X11059Y7526D02*
X11217D01*
X10898D02*
X10726D01*
X10686D02*
X9940D01*
X9854D02*
X9492D01*
X9440D02*
X8775D01*
X8614D02*
X8572D01*
X11146Y7520D02*
X11217D01*
X11146D02*
X11127D01*
X11125D02*
X11063D01*
X10906D02*
X10726D01*
X10686D02*
X9940D01*
X9854D02*
X9492D01*
X9440D02*
X8767D01*
X8623D02*
X8572D01*
X11146Y7514D02*
X11217D01*
X11146D02*
X11133D01*
X11119D01*
X11075D01*
X10917D02*
X10726D01*
X10686D02*
X9940D01*
X9854D02*
X9492D01*
X9440D02*
X8756D01*
X8633D02*
X8572D01*
X11146Y7508D02*
X11217D01*
X10930D02*
X10726D01*
X10686D02*
X9940D01*
X9854D02*
X9492D01*
X9440D02*
X8743D01*
X8646D02*
X8572D01*
X11146Y7502D02*
X11217D01*
X11029D02*
X11007D01*
X10950D02*
X10726D01*
X10686D02*
X9940D01*
X9854D02*
X9492D01*
X9440D02*
X8723D01*
X8666D02*
X8572D01*
X11170Y7496D02*
X11217D01*
X11170D02*
X11151D01*
X11028D02*
X10726D01*
X10686D02*
X9940D01*
X9854D02*
X9492D01*
X9440D02*
X8572D01*
X11170Y7490D02*
X11217D01*
X11170D02*
X11157D01*
X11028D02*
X10976D01*
X10753D01*
X10726D01*
X10686D02*
X10661D01*
X9940D01*
X9854D02*
X9515D01*
X9492D01*
X9440D02*
X8572D01*
X11170Y7484D02*
X11217D01*
X11170D02*
X11163D01*
X11029D02*
X10976D01*
X10753D01*
X10726D01*
X10686D02*
X10661D01*
X9940D01*
X9854D02*
X9515D01*
X9492D01*
X9440D02*
X8572D01*
X11170Y7478D02*
X11217D01*
X10976D02*
X10753D01*
X10661D02*
X9940D01*
X9854D02*
X9515D01*
X11175Y7472D02*
X11217D01*
X11119D02*
X11075D01*
X10976D02*
X10753D01*
X10661D02*
X9940D01*
X9854D02*
X9515D01*
X11177Y7466D02*
X11217D01*
X11125D02*
X11068D01*
X10976D02*
X10753D01*
X10661D02*
X9940D01*
X9854D02*
X9515D01*
X11171Y7460D02*
X11217D01*
X11131D02*
X11068D01*
X10661D02*
X9940D01*
X9854D02*
X9515D01*
X11170Y7454D02*
X11217D01*
X11132D02*
X11068D01*
X10661D02*
X9940D01*
X9854D02*
X9515D01*
X11170Y7448D02*
X11217D01*
X11132D02*
X11068D01*
X10661D02*
X9940D01*
X9854D02*
X9619D01*
X9569D01*
X9563D02*
X9515D01*
X11170Y7442D02*
X11217D01*
X11132D02*
X11068D01*
X10661D02*
X9940D01*
X9854D02*
X9619D01*
X9569D01*
X9563D02*
X9515D01*
X11170Y7436D02*
X11217D01*
X11132D02*
X11068D01*
X10661D02*
X9940D01*
X9854D02*
X9619D01*
X11170Y7430D02*
X11217D01*
X11132D02*
X11068D01*
X10661D02*
X9940D01*
X9854D02*
X9619D01*
X11170Y7424D02*
X11217D01*
X11132D02*
X11068D01*
X10661D02*
X9940D01*
X9854D02*
X9619D01*
X11170Y7418D02*
X11217D01*
X11132D02*
X11068D01*
X10976D02*
X10753D01*
X10661D02*
X9940D01*
X9854D02*
X9619D01*
X10753Y7462D02*
X10976D01*
Y7424D02*
X10753D01*
X11134Y7512D02*
X11146D01*
X11134D02*
X11118D01*
X11076D01*
Y7474D02*
X11118D01*
X11159Y7488D02*
X11170D01*
X9515Y7480D02*
X9492D01*
X9440D02*
X8572D01*
X10976Y7482D02*
X11030D01*
X10753D02*
X10726D01*
X10686D02*
X10661D01*
X9739Y7598D02*
X9733D01*
X9730D01*
X9692D01*
X9683D01*
X9680D01*
X9739D02*
X9789D01*
X9730D02*
X9730D01*
X9569Y7438D02*
X9566D01*
X9563D01*
X9515D01*
X9569D02*
X9619D01*
X9563D02*
X9560D01*
X9492Y7576D02*
X9486D01*
X9446D02*
X9440D01*
X9486Y7590D02*
X9492D01*
X9446D02*
X9440D01*
X9591Y7413D02*
X9619D01*
X9940Y7802D02*
X11217D01*
X9332D02*
X9309D01*
X9300D02*
X9253D01*
X9250D02*
X9120D01*
X9082D02*
X8978D01*
X8964D01*
X8952D01*
X8942D01*
X8886D01*
X8880D02*
X8826D01*
X8572D01*
X11156Y7796D02*
X11217D01*
X11156D02*
X11136D01*
X10839D01*
X10825D02*
X10812D01*
X9940D01*
X9250D02*
X9120D01*
X9108D01*
X9094D02*
X8972D01*
X8970D02*
X8952D01*
X8572D01*
X11156Y7790D02*
X11217D01*
X11119D02*
X10851D01*
X10812D02*
X9940D01*
X9250D02*
X8572D01*
X11159Y7784D02*
X11217D01*
X10808D02*
X9940D01*
X9250D02*
X8572D01*
X11162Y7778D02*
X11217D01*
X10805D02*
X9940D01*
X9418D02*
X9382D01*
X9364D01*
X9250D02*
X8572D01*
X11164Y7772D02*
X11217D01*
X10804D02*
X9940D01*
X9418D02*
X9382D01*
X9358D01*
X9250D02*
X8572D01*
X11164Y7766D02*
X11217D01*
X10804D02*
X9940D01*
X9418D02*
X9356D01*
X9250D02*
X8702D01*
X8688D02*
X8572D01*
X11163Y7760D02*
X11217D01*
X10805D02*
X9940D01*
X9820D02*
X9809D01*
X9566D02*
X9559D01*
X9418D02*
X9356D01*
X9250D02*
X8735D01*
X8655D02*
X8572D01*
X11160Y7754D02*
X11217D01*
X10808D02*
X9940D01*
X9820D02*
X9809D01*
X9570D02*
X9559D01*
X9418D02*
X9356D01*
X9250D02*
X8751D01*
X8639D02*
X8572D01*
X11156Y7748D02*
X11217D01*
X11116D02*
X11046D01*
X10911D02*
X10851D01*
X10812D02*
X9940D01*
X9820D02*
X9809D01*
X9570D02*
X9559D01*
X9418D02*
X9356D01*
X9250D02*
X8762D01*
X8628D02*
X8572D01*
X11156Y7742D02*
X11217D01*
X11156D02*
X11146D01*
X11126D02*
X11055D01*
X10902D02*
X10839D01*
X10825D02*
X10812D01*
X9940D01*
X9820D02*
X9809D01*
X9570D02*
X9559D01*
X9418D02*
X9356D01*
X9299D02*
X9250D01*
X8771D01*
X8618D02*
X8572D01*
X11063Y7736D02*
X11217D01*
X10894D02*
X9940D01*
X9820D02*
X9809D01*
X9570D02*
X9559D01*
X9418D02*
X9356D01*
X9298D02*
X9250D01*
X8779D01*
X8610D02*
X8572D01*
X11070Y7730D02*
X11217D01*
X10887D02*
X9940D01*
X9820D02*
X9809D01*
X9570D02*
X9559D01*
X9418D02*
X9354D01*
X9298D02*
X8786D01*
X8603D02*
X8572D01*
X11076Y7724D02*
X11217D01*
X10881D02*
X10229D01*
X10176D01*
X9940D01*
X9820D02*
X9809D01*
X9570D02*
X9559D01*
X9418D02*
X9353D01*
X9299D02*
X8792D01*
X8597D02*
X8572D01*
X11081Y7718D02*
X11217D01*
X10876D02*
X10229D01*
X10176D01*
X9940D01*
X9820D02*
X9809D01*
X9570D02*
X9559D01*
X9418D02*
X9350D01*
X9302D02*
X8798D01*
X8592D02*
X8572D01*
X11086Y7712D02*
X11217D01*
X10871D02*
X10229D01*
X10176D02*
X9940D01*
X9820D02*
X9809D01*
X9570D02*
X9559D01*
X9418D02*
X9346D01*
X9306D02*
X8802D01*
X8587D02*
X8572D01*
X11090Y7706D02*
X11217D01*
X10867D02*
X10229D01*
X10176D02*
X9940D01*
X9820D02*
X9809D01*
X9664D02*
X9656D01*
X9570D02*
X9559D01*
X9492D01*
X9440D02*
X9418D01*
X9346D01*
X9333D01*
X9319D02*
X9306D01*
X8806D01*
X8583D02*
X8572D01*
X11094Y7700D02*
X11217D01*
X10863D02*
X10229D01*
X10176D02*
X9940D01*
X9854D02*
X9820D01*
X9809D01*
X9664D02*
X9652D01*
X9570D02*
X9559D01*
X9492D01*
X9440D02*
X9418D01*
X8810D01*
X8579D02*
X8572D01*
X11097Y7694D02*
X11217D01*
X10860D02*
X10229D01*
X10176D02*
X9940D01*
X9854D02*
X9820D01*
X9809D01*
X9664D02*
X9645D01*
X9570D02*
X9492D01*
X9440D02*
X8813D01*
X11100Y7688D02*
X11217D01*
X10857D02*
X10229D01*
X10176D02*
X9940D01*
X9854D02*
X9809D01*
X9664D02*
X9622D01*
X9570D02*
X9492D01*
X9440D02*
X8816D01*
X11102Y7682D02*
X11217D01*
X10854D02*
X10229D01*
X10176D02*
X9940D01*
X9854D02*
X9809D01*
X9664D02*
X9622D01*
X9570D02*
X9492D01*
X9440D02*
X8819D01*
X11105Y7676D02*
X11217D01*
X10852D02*
X10229D01*
X10176D02*
X9940D01*
X9854D02*
X9809D01*
X9664D02*
X9622D01*
X9570D02*
X9492D01*
X9440D02*
X8821D01*
X11107Y7670D02*
X11217D01*
X10850D02*
X10229D01*
X10176D02*
X9940D01*
X9854D02*
X9809D01*
X9664D02*
X9622D01*
X9570D02*
X9492D01*
X9440D02*
X8823D01*
X11108Y7664D02*
X11217D01*
X10848D02*
X10229D01*
X10176D02*
X9940D01*
X9854D02*
X9809D01*
X9664D02*
X9622D01*
X9570D01*
X9492D01*
X9440D02*
X8825D01*
X11109Y7658D02*
X11217D01*
X10847D02*
X10229D01*
X10176D01*
X9940D01*
X9854D02*
X9809D01*
X9789D01*
X9742D01*
X9692D02*
X9683D01*
X9664D01*
X9622D01*
X9570D01*
X9492D01*
X9440D02*
X8826D01*
X11110Y7652D02*
X11217D01*
X10846D02*
X10229D01*
X10176D01*
X9940D01*
X9854D02*
X9809D01*
X9789D01*
X9742D01*
X9692D02*
X9683D01*
X9664D01*
X9622D01*
X9570D01*
X9492D01*
X9440D02*
X8827D01*
X11111Y7646D02*
X11217D01*
X10845D02*
X9940D01*
X9854D02*
X9789D01*
X9683D02*
X9492D01*
X9440D02*
X8828D01*
X11112Y7640D02*
X11217D01*
X10845D02*
X9940D01*
X9854D02*
X9789D01*
X9683D02*
X9492D01*
X9440D02*
X8828D01*
X11112Y7634D02*
X11217D01*
X10845D02*
X9940D01*
X9854D02*
X9789D01*
X9683D02*
X9492D01*
X9440D02*
X8828D01*
X11112Y7628D02*
X11217D01*
X10845D02*
X10726D01*
X10686D01*
X9940D01*
X9854D02*
X9789D01*
X9683D02*
X9492D01*
X9440D02*
X8828D01*
X11111Y7622D02*
X11217D01*
X10845D02*
X10726D01*
X10686D02*
X9940D01*
X9854D02*
X9789D01*
X9683D02*
X9492D01*
X9440D02*
X8828D01*
X11111Y7616D02*
X11217D01*
X10846D02*
X10727D01*
X10685D02*
X9940D01*
X9854D02*
X9789D01*
X9683D02*
X9492D01*
X9440D02*
X8827D01*
X11110Y7610D02*
X11217D01*
X10847D02*
X10731D01*
X10681D02*
X9940D01*
X9854D02*
X9789D01*
X9683D02*
X9492D01*
X9440D02*
X8827D01*
X11155Y7788D02*
X11156D01*
X11117D02*
X10852D01*
X11043Y7750D02*
X11115D01*
X10914D02*
X10852D01*
X9820Y7802D02*
X9809D01*
Y7764D02*
X9820D01*
X9418Y7784D02*
X9382D01*
X9369D01*
X9378D02*
X9382D01*
X9081Y7804D02*
X8979D01*
X8963D01*
X8952D01*
X9488Y7752D02*
X9489D01*
X10176Y7662D02*
X10229D01*
Y7715D02*
X10176D01*
X9809Y7660D02*
X9789D01*
X9742D01*
X9739D01*
X9733D01*
X9731D01*
X9730D01*
X9742Y7746D02*
X9809D01*
X9742D02*
X9731D01*
X9727D01*
X9692Y7660D02*
X9683D01*
X9664D01*
X9660D01*
X9690Y7746D02*
X9731D01*
X9742Y7747D02*
X9809D01*
X9742D02*
X9731D01*
X9727D01*
X9731D02*
X9690D01*
X9820Y7705D02*
X9854D01*
X9742Y7648D02*
X9739D01*
X9733D01*
X9731D01*
X9730D01*
X9692D02*
X9683D01*
X9680D01*
X9742D02*
X9789D01*
X9622Y7665D02*
X9570D01*
Y7721D02*
X9572D01*
X9492Y7696D02*
X9489D01*
X9488D01*
X9486D01*
X9446D02*
X9440D01*
X9492Y7708D02*
X9559D01*
X9492D02*
X9489D01*
X9488D01*
X9486D01*
X9488Y7753D02*
X9489D01*
Y7733D02*
X9488D01*
Y7759D02*
X9489D01*
X9418D02*
X9414D01*
Y7733D02*
X9418D01*
Y7778D02*
X9414D01*
X9440Y7708D02*
X9446D01*
X9440D02*
X9418D01*
X9414D01*
Y7753D02*
X9418D01*
X9302Y7748D02*
X9300D01*
X9250D01*
X9246D01*
X9306Y7798D02*
X9309D01*
X9306D02*
X9306D01*
X9303D01*
X9300D01*
X9253D01*
X9250D01*
X9246D01*
X9350Y7748D02*
X9356D01*
X9300D02*
X9296D01*
X9309Y7798D02*
X9329D01*
X9300D02*
X9296D01*
X9278Y7773D02*
X9250D01*
X9431Y7756D02*
X9453D01*
X9475D01*
X9501D02*
X9524D01*
X9546D01*
X9524Y7730D02*
X9501D01*
X9524D02*
X9546D01*
X9568Y7693D02*
X9596D01*
X9761Y7623D02*
X9789D01*
X9818Y7733D02*
X9846D01*
X11180Y7994D02*
X11217D01*
X11134D02*
X11068D01*
X10976D02*
X10753D01*
X10661D02*
X10620D01*
X10582D02*
X9942D01*
X9882D02*
X9824D01*
X9778D02*
X9766D01*
X9716D01*
X9710D02*
X9660D01*
X9652D01*
X8626D02*
X8572D01*
X11180Y7988D02*
X11217D01*
X11134D02*
X11068D01*
X10976D02*
X10753D01*
X10661D02*
X10620D01*
X10582D02*
X9942D01*
X9882D02*
X9827D01*
X9775D02*
X9766D01*
X9716D01*
X9710D02*
X9660D01*
X9652D01*
X8626D02*
X8572D01*
X11180Y7982D02*
X11217D01*
X11134D02*
X11068D01*
X10976D02*
X10753D01*
X10661D02*
X10620D01*
X10582D02*
X9942D01*
X9882D02*
X9846D01*
X9829D01*
X9772D02*
X9758D01*
X9691D02*
X9652D01*
X8639D02*
X8626D01*
X8572D01*
X11180Y7976D02*
X11217D01*
X11134D02*
X11068D01*
X10976D01*
X10753D01*
X10661D01*
X10620D01*
X10582D02*
X9942D01*
X9882D02*
X9846D01*
X9685D02*
X9652D01*
X8645D02*
X8626D01*
X8572D01*
X11180Y7970D02*
X11217D01*
X11134D02*
X11068D01*
X10976D01*
X10753D01*
X10661D01*
X10620D01*
X10582D02*
X9942D01*
X9882D02*
X9848D01*
X9681D02*
X9652D01*
X8651D02*
X8572D01*
X11180Y7964D02*
X11217D01*
X11134D02*
X10620D01*
X10582D02*
X9942D01*
X9882D02*
X9852D01*
X9679D02*
X9652D01*
X8657D02*
X8572D01*
X11180Y7958D02*
X11217D01*
X11134D02*
X10620D01*
X10582D02*
X9942D01*
X9882D02*
X9854D01*
X9676D02*
X9652D01*
X8663D02*
X8572D01*
X11180Y7952D02*
X11217D01*
X11134D02*
X10620D01*
X10582D02*
X9940D01*
X9882D02*
X9854D01*
X9672D02*
X9652D01*
X8669D02*
X8572D01*
X11180Y7946D02*
X11217D01*
X11134D02*
X10620D01*
X10582D02*
X9940D01*
X9882D02*
X9853D01*
X8675D02*
X8572D01*
X11180Y7940D02*
X11217D01*
X11134D02*
X10620D01*
X10582D02*
X9940D01*
X9882D02*
X9851D01*
X8676D02*
X8572D01*
X11180Y7934D02*
X11217D01*
X11134D02*
X10620D01*
X10582D02*
X9940D01*
X9882D02*
X9847D01*
X8687D02*
X8676D01*
X8572D01*
X11180Y7928D02*
X11217D01*
X11134D02*
X10620D01*
X10582D02*
X9940D01*
X9882D02*
X9846D01*
X9813D02*
X9806D01*
X8690D02*
X8676D01*
X8572D01*
X11180Y7922D02*
X11217D01*
X11134D02*
X10620D01*
X10582D02*
X9940D01*
X9882D02*
X9868D01*
X9847D01*
X9845D02*
X9838D01*
X9810D01*
X8690D02*
X8676D01*
X8572D01*
X11180Y7916D02*
X11217D01*
X11134D02*
X10620D01*
X10582D02*
X9940D01*
X9882D02*
X9868D01*
X9853D01*
X9839D01*
X9838D02*
X9813D01*
X8690D02*
X8572D01*
X11180Y7910D02*
X11217D01*
X11134D02*
X10620D01*
X10582D02*
X9940D01*
X9882D02*
X9868D01*
X9859D01*
X8690D02*
X8572D01*
X11180Y7904D02*
X11217D01*
X11134D02*
X11045D01*
X11019D02*
X10620D01*
X10582D02*
X9940D01*
X9882D02*
X9868D01*
X9252D02*
X9220D01*
X9159D02*
X9146D01*
X9136D01*
X9116D02*
X9079D01*
X8690D02*
X8572D01*
X11180Y7898D02*
X11217D01*
X11011D02*
X10620D01*
X10582D02*
X9940D01*
X9882D02*
X9871D01*
X9252D02*
X9214D01*
X9158D02*
X9146D01*
X9106D02*
X9079D01*
X8826D02*
X8812D01*
X8690D02*
X8572D01*
X11180Y7892D02*
X11217D01*
X11007D02*
X10620D01*
X10582D02*
X9940D01*
X9253D02*
X9213D01*
X9159D02*
X9150D01*
X8826D02*
X8812D01*
X8766D01*
X8752D01*
X8750D02*
X8690D01*
X8572D01*
X11180Y7886D02*
X11217D01*
X11005D02*
X10620D01*
X10582D02*
X9940D01*
X9253D02*
X9211D01*
X9161D02*
X9153D01*
X8826D02*
X8812D01*
X8766D01*
X8752D01*
X8750D02*
X8690D01*
X8572D01*
X11180Y7880D02*
X11217D01*
X11004D02*
X10620D01*
X10582D02*
X9940D01*
X9253D02*
X9207D01*
X9165D02*
X9154D01*
X8916D02*
X8886D01*
X8876D02*
X8826D01*
X8812D01*
X8690D02*
X8572D01*
X11180Y7874D02*
X11217D01*
X11004D02*
X10620D01*
X10582D02*
X9940D01*
X9303D02*
X9253D01*
X9200D01*
X9172D02*
X9154D01*
X8922D02*
X8896D01*
X8886D01*
X8876D02*
X8826D01*
X8812D01*
X8690D02*
X8572D01*
X11180Y7868D02*
X11217D01*
X11006D02*
X10625D01*
X10577D02*
X9940D01*
X9838D02*
X9824D01*
X9303D02*
X9253D01*
X9152D01*
X8826D02*
X8812D01*
X8690D02*
X8572D01*
X11172Y7862D02*
X11217D01*
X11010D02*
X10628D01*
X10574D02*
X9940D01*
X9847D02*
X9838D01*
X9824D01*
X9303D02*
X9253D01*
X9149D01*
X8690D02*
X8572D01*
X11157Y7856D02*
X11217D01*
X11157D02*
X11048D01*
X11016D02*
X10629D01*
X10573D02*
X9940D01*
X9853D02*
X9824D01*
X9253D02*
X9146D01*
X9109D02*
X9078D01*
X8690D02*
X8572D01*
X10629Y7850D02*
X11217D01*
X10573D02*
X9940D01*
X9854D02*
X9824D01*
X9253D02*
X9146D01*
X9126D01*
X9120D02*
X9108D01*
X9094D02*
X9079D01*
X8690D02*
X8572D01*
X10628Y7844D02*
X11217D01*
X10574D02*
X9940D01*
X9854D02*
X9824D01*
X9253D02*
X9120D01*
X8690D02*
X8572D01*
X10625Y7838D02*
X11217D01*
X10577D02*
X9940D01*
X9854D02*
X9824D01*
X9809D01*
X9774D01*
X9768D02*
X9754D01*
X9253D02*
X9125D01*
X8690D02*
X8572D01*
X10620Y7832D02*
X11217D01*
X10582D02*
X9940D01*
X9854D02*
X9824D01*
X9809D01*
X9253D02*
X9128D01*
X8690D02*
X8572D01*
X10620Y7826D02*
X11217D01*
X10620D02*
X10608D01*
X10594D02*
X10582D01*
X9940D01*
X9854D02*
X9809D01*
X9253D02*
X9129D01*
X8826D02*
X8812D01*
X8690D02*
X8572D01*
X9940Y7820D02*
X11217D01*
X9854D02*
X9820D01*
X9809D01*
X9253D02*
X9129D01*
X8826D02*
X8812D01*
X8766D01*
X8752D01*
X8750D02*
X8690D01*
X8572D01*
X9940Y7814D02*
X11217D01*
X9854D02*
X9820D01*
X9809D01*
X9253D02*
X9128D01*
X8952D02*
X8942D01*
X8826D02*
X8812D01*
X8752D01*
X8750D02*
X8690D01*
X8572D01*
X9940Y7808D02*
X11217D01*
X9820D02*
X9809D01*
X9250D02*
X9125D01*
X8952D02*
X8942D01*
X8886D01*
X8880D02*
X8826D01*
X8572D01*
X11048Y7902D02*
X11134D01*
X9806Y7934D02*
X9804D01*
X8690D02*
X8688D01*
X8676D01*
X9855Y7914D02*
X9868D01*
X9855D02*
X9838D01*
X9837D01*
X9813D01*
X9824Y7872D02*
X9837D01*
X9081Y7842D02*
X9078D01*
X8943Y7824D02*
X8942D01*
X8826Y7868D02*
X8812D01*
Y7828D02*
X8826D01*
Y7898D02*
X8812D01*
X9078Y7898D02*
X9106D01*
Y7858D02*
X9077D01*
X9652Y7948D02*
X9668D01*
X9253Y7908D02*
X9252D01*
X9224D01*
X9160D02*
X9146D01*
X9078D01*
X9248D02*
X9252D01*
X10753Y7998D02*
X10976D01*
X8638Y7984D02*
X8626D01*
X8623D01*
X9940Y7972D02*
X9942D01*
X9882Y7992D02*
X9882D01*
X9940Y7970D02*
X9942D01*
X10976Y7978D02*
X11068D01*
X10753D02*
X10661D01*
X9766Y7998D02*
X9716D01*
X9710D01*
X9710D01*
X9706D01*
X9706D02*
X9710D01*
X9706D02*
X9666D01*
X9660D01*
X9656D01*
X9774Y7833D02*
X9809D01*
X9774D02*
X9768D01*
X9759D01*
X9809Y7842D02*
X9824D01*
X9809D02*
X9774D01*
X9768D01*
X9764D01*
X9768D02*
X9749D01*
X9820Y7811D02*
X9854D01*
X9338Y7808D02*
X9316D01*
X9309D01*
X9306D01*
X9303D01*
X9300D01*
X9300D01*
X9309Y7858D02*
X9313D01*
X9309D02*
X9303D01*
X9300D01*
X9300Y7808D02*
X9253D01*
X9250D01*
X9250D01*
X9253Y7858D02*
X9303D01*
X9253D02*
X9250D01*
X9316Y7878D02*
X9317D01*
X9316D02*
X9309D01*
X9303D01*
X9300D01*
X9303D02*
X9253D01*
X9250D01*
X8886Y7812D02*
X8880D01*
X8826D01*
X8822D01*
X8880Y7874D02*
X8886D01*
X8880D02*
X8876D01*
X8826D01*
X8822D01*
X8896Y7812D02*
X8942D01*
X8896D02*
X8886D01*
X8880D02*
X8877D01*
X8896Y7874D02*
X8923D01*
X8896D02*
X8886D01*
X8880D02*
X8877D01*
X8880Y7882D02*
X8886D01*
X8880D02*
X8826D01*
X8822D01*
X8886D02*
X8914D01*
X8880D02*
X8877D01*
X8752Y7892D02*
X8750D01*
X8690D02*
X8686D01*
X8746D02*
X8750D01*
Y7822D02*
X8752D01*
X8750D02*
X8690D01*
X8686D01*
X8750Y7884D02*
X8752D01*
X8750D02*
X8690D01*
X8686D01*
X8766Y7822D02*
X8812D01*
X8766D02*
X8752D01*
X8750D02*
X8746D01*
X8752Y7884D02*
X8812D01*
X8750D02*
X8746D01*
X8721Y7853D02*
X8690D01*
Y7923D02*
X8721D01*
X9253Y7903D02*
X9281D01*
Y7833D02*
X9253D01*
X9796Y7868D02*
X9824D01*
X11068Y8192D02*
X11217D01*
X10976D02*
X10753D01*
X10395D02*
X10088D01*
X10076D01*
X10056D02*
X10044D01*
X9942D01*
X9922D01*
X9826D02*
X9812D01*
X9800D01*
X9580D02*
X9566D01*
X9430D02*
X9392D01*
X8664D02*
X8646D01*
X8572D01*
X11068Y8186D02*
X11217D01*
X10976D02*
X10753D01*
X10396D02*
X10088D01*
X10044D01*
X9942D01*
X9928D01*
X9832D02*
X9812D01*
X9799D01*
X9581D02*
X9566D01*
X9430D02*
X9392D01*
X8666D02*
X8646D01*
X8572D01*
X11068Y8180D02*
X11217D01*
X10976D02*
X10753D01*
X10397D02*
X9942D01*
X9934D01*
X9838D02*
X9798D01*
X9582D02*
X9566D01*
X9430D02*
X9392D01*
X8676D02*
X8666D01*
X8652D01*
X8572D01*
X11068Y8174D02*
X11217D01*
X10976D02*
X10753D01*
X10399D02*
X9942D01*
X9844D02*
X9796D01*
X9584D02*
X9566D01*
X9430D02*
X9392D01*
X8666D02*
X8652D01*
X8572D01*
X11068Y8168D02*
X11217D01*
X10976D02*
X10753D01*
X10401D02*
X9946D01*
X9850D02*
X9794D01*
X9586D02*
X9566D01*
X9430D02*
X9392D01*
X8679D02*
X8666D01*
X8663D02*
X8652D01*
X8572D01*
X11068Y8162D02*
X11217D01*
X10976D02*
X10753D01*
X10403D02*
X9948D01*
X9856D02*
X9792D01*
X9588D02*
X9566D01*
X9430D02*
X9392D01*
X8652D02*
X8572D01*
X11082Y8156D02*
X11217D01*
X10976D02*
X10753D01*
X10406D02*
X9942D01*
X9862D02*
X9789D01*
X9591D02*
X9566D01*
X9430D02*
X9392D01*
X8651D02*
X8572D01*
X11091Y8150D02*
X11217D01*
X11040D02*
X10976D01*
X10753D01*
X10720D01*
X10702D01*
X10646D02*
X10636D01*
X10409D02*
X9942D01*
X9868D02*
X9786D01*
X9594D02*
X9566D01*
X9430D02*
X9392D01*
X8645D02*
X8626D01*
X8572D01*
X11097Y8144D02*
X11217D01*
X11035D02*
X10976D01*
X10753D01*
X10720D01*
X10708D01*
X10652D02*
X10636D01*
X10413D02*
X9942D01*
X9874D02*
X9782D01*
X9430D02*
X9392D01*
X8639D02*
X8626D01*
X8572D01*
X11171Y8138D02*
X11217D01*
X11108D02*
X11100D01*
X11031D02*
X10720D01*
X10658D02*
X10636D01*
X10417D02*
X9942D01*
X9880D02*
X9778D01*
X9430D02*
X9392D01*
X8626D02*
X8572D01*
X11178Y8132D02*
X11217D01*
X11029D02*
X10720D01*
X10664D02*
X10636D01*
X10596D02*
X10588D01*
X10422D02*
X9942D01*
X9882D02*
X9773D01*
X9430D02*
X9392D01*
X8626D02*
X8572D01*
X11182Y8126D02*
X11217D01*
X11027D02*
X10726D01*
X10670D02*
X10636D01*
X10596D02*
X10582D01*
X10428D02*
X9942D01*
X9882D02*
X9767D01*
X9430D02*
X9392D01*
X8621D02*
X8572D01*
X11184Y8120D02*
X11217D01*
X11027D02*
X10726D01*
X10676D02*
X10636D01*
X10596D02*
X10576D01*
X10434D02*
X9942D01*
X9882D02*
X9761D01*
X9430D02*
X9392D01*
X8621D02*
X8572D01*
X11185Y8114D02*
X11217D01*
X11028D02*
X10720D01*
X10682D02*
X10636D01*
X10596D02*
X10568D01*
X10442D02*
X9942D01*
X9882D02*
X9753D01*
X9430D02*
X9392D01*
X8626D02*
X8572D01*
X11184Y8108D02*
X11217D01*
X11029D02*
X10720D01*
X10682D02*
X10636D01*
X10596D02*
X10558D01*
X10452D02*
X9942D01*
X9882D02*
X9743D01*
X9430D02*
X9392D01*
X8626D02*
X8572D01*
X11182Y8102D02*
X11217D01*
X11032D02*
X10720D01*
X10682D02*
X10636D01*
X10596D02*
X10545D01*
X10465D02*
X9942D01*
X9882D02*
X9730D01*
X9430D02*
X9392D01*
X8626D02*
X8572D01*
X11180Y8096D02*
X11217D01*
X11036D02*
X10742D01*
X10682D02*
X10636D01*
X10596D02*
X10582D01*
X10523D01*
X10487D02*
X9942D01*
X9882D02*
X9708D01*
X9430D02*
X9415D01*
X9392D01*
X8626D02*
X8572D01*
X11180Y8090D02*
X11217D01*
X10682D02*
X10637D01*
X10595D02*
X10582D01*
X9942D01*
X9882D02*
X9708D01*
X9430D02*
X9415D01*
X9392D01*
X8626D02*
X8572D01*
X11180Y8084D02*
X11217D01*
X10682D02*
X10643D01*
X10636D01*
X10589D02*
X10582D01*
X9942D01*
X9882D02*
X9708D01*
X9430D02*
X9415D01*
X9392D01*
X8626D02*
X8572D01*
X11180Y8078D02*
X11217D01*
X10682D02*
X10639D01*
X10582D02*
X9942D01*
X9882D02*
X9714D01*
X9415D02*
X9395D01*
X8626D02*
X8572D01*
X11180Y8072D02*
X11217D01*
X10682D02*
X10661D01*
X10636D01*
X10577D02*
X9942D01*
X9882D02*
X9708D01*
X9415D02*
X9398D01*
X8626D02*
X8572D01*
X11180Y8066D02*
X11217D01*
X10682D02*
X10661D01*
X10636D01*
X10627D01*
X10575D02*
X9942D01*
X9882D02*
X9708D01*
X9415D02*
X9399D01*
X8626D02*
X8572D01*
X11180Y8060D02*
X11217D01*
X10682D02*
X10661D01*
X10636D01*
X10621D01*
X10581D02*
X9942D01*
X9882D02*
X9766D01*
X9716D01*
X9414D02*
X9399D01*
X8626D02*
X8572D01*
X11180Y8054D02*
X11217D01*
X10661D02*
X10636D01*
X10620D01*
X10582D02*
X9942D01*
X9882D02*
X9766D01*
X9716D01*
X9414D02*
X9398D01*
X8626D02*
X8572D01*
X11180Y8048D02*
X11217D01*
X11108D02*
X11094D01*
X10661D02*
X10620D01*
X10582D02*
X9942D01*
X9882D02*
X9766D01*
X9414D02*
X9395D01*
X8626D02*
X8572D01*
X11180Y8042D02*
X11217D01*
X11134D02*
X11068D01*
X10661D02*
X10620D01*
X10582D02*
X9942D01*
X9882D02*
X9766D01*
X8626D02*
X8572D01*
X11180Y8036D02*
X11217D01*
X11134D02*
X11068D01*
X10661D02*
X10620D01*
X10582D02*
X9942D01*
X9882D02*
X9766D01*
X8626D02*
X8572D01*
X11180Y8030D02*
X11217D01*
X11134D02*
X11068D01*
X10661D02*
X10620D01*
X10582D02*
X9942D01*
X9882D02*
X9766D01*
X8626D02*
X8572D01*
X11180Y8024D02*
X11217D01*
X11134D02*
X11068D01*
X10661D02*
X10620D01*
X10582D02*
X9942D01*
X9882D02*
X9766D01*
X8626D02*
X8572D01*
X11180Y8018D02*
X11217D01*
X11134D02*
X11068D01*
X10661D02*
X10620D01*
X10582D02*
X9942D01*
X9882D02*
X9766D01*
X8626D02*
X8572D01*
X11180Y8012D02*
X11217D01*
X11134D02*
X11068D01*
X10661D02*
X10620D01*
X10582D02*
X9942D01*
X9882D02*
X9766D01*
X8626D02*
X8572D01*
X11180Y8006D02*
X11217D01*
X11134D02*
X11068D01*
X10661D02*
X10620D01*
X10582D02*
X9942D01*
X9882D02*
X9806D01*
X9796D02*
X9766D01*
X9660D02*
X9652D01*
X8621D02*
X8572D01*
X11180Y8000D02*
X11217D01*
X11134D02*
X11068D01*
X10661D02*
X10620D01*
X10582D02*
X9942D01*
X9882D02*
X9818D01*
X9784D02*
X9766D01*
X9660D02*
X9652D01*
X8621D02*
X8572D01*
X11138Y8137D02*
X11141D01*
X8679Y8168D02*
X8679D01*
X8666D01*
X8663D01*
X8652D01*
X11097Y8050D02*
X11105D01*
X9708Y8066D02*
X9706D01*
X9598Y8144D02*
X9592D01*
X9566D01*
X9710Y8048D02*
X9710D01*
X9660Y8008D02*
X9652D01*
X8684Y8178D02*
X8679D01*
X8678D01*
X8666D01*
X8633Y8138D02*
X8626D01*
Y8142D02*
X8638D01*
X9706Y8058D02*
X9708D01*
X9930Y8184D02*
X9942D01*
X9824Y8194D02*
X9812D01*
X10709Y8142D02*
X10720D01*
X10636Y8064D02*
X10624D01*
X10593Y8088D02*
X10582D01*
X8684Y8177D02*
X8680D01*
X8679D01*
X9564Y8148D02*
X9566D01*
Y8154D02*
X9564D01*
X9436Y8095D02*
X9434D01*
X9434D01*
X9430D01*
X9415Y8047D02*
X9414D01*
Y8046D02*
X9415D01*
X9414D02*
X9394D01*
X9434Y8084D02*
X9436D01*
X9434D02*
X9431D01*
X9430D02*
X9434D01*
X9430D02*
X9415D01*
X9411D01*
X10976Y8155D02*
X11047D01*
X10753D02*
X10720D01*
X10697D01*
X10682Y8060D02*
X10661D01*
X9766Y8048D02*
X9716D01*
X9710D01*
X9710D01*
X9706D01*
X9706D02*
X9710D01*
X9738Y8023D02*
X9766D01*
X9456Y8173D02*
X9428D01*
X9536Y8178D02*
X9566D01*
X11104Y8390D02*
X11217D01*
X10831D02*
X10656D01*
X10596D02*
X9866D01*
X9856D01*
X9718D02*
X9392D01*
X9318D02*
X8572D01*
X11104Y8384D02*
X11217D01*
X10829D02*
X10656D01*
X10596D02*
X10088D01*
X10044D01*
X9866D01*
X9714D02*
X9392D01*
X9318D02*
X9298D01*
X9254D01*
X8572D01*
X11103Y8378D02*
X11217D01*
X11028D02*
X11002D01*
X10884D01*
X10828D02*
X10656D01*
X10596D02*
X10088D01*
X10044D01*
X9936D01*
X9908D02*
X9866D01*
X9718D02*
X9710D01*
X9701D01*
X9673D02*
X9514D01*
X9483D02*
X9392D01*
X9318D02*
X9298D01*
X9254D02*
X8899D01*
X8873D02*
X8572D01*
X11100Y8372D02*
X11217D01*
X11031D02*
X11002D01*
X10883D01*
X10829D02*
X10656D01*
X10596D02*
X10088D01*
X10080D01*
X9901D02*
X9872D01*
X9716D02*
X9708D01*
X9476D02*
X9392D01*
X9318D02*
X9298D01*
X8865D02*
X8572D01*
X11097Y8366D02*
X11217D01*
X11035D02*
X10881D01*
X10831D02*
X10656D01*
X10596D02*
X10088D01*
X9897D02*
X9872D01*
X9472D02*
X9392D01*
X9318D02*
X9302D01*
X8861D02*
X8572D01*
X11091Y8360D02*
X11217D01*
X11040D02*
X10877D01*
X10835D02*
X10656D01*
X10596D02*
X10088D01*
X9895D02*
X9866D01*
X9728D02*
X9718D01*
X9470D02*
X9392D01*
X9318D02*
X9304D01*
X8859D02*
X8722D01*
X8572D01*
X11082Y8354D02*
X11217D01*
X11049D02*
X10870D01*
X10842D02*
X10656D01*
X10596D02*
X10089D01*
X9894D02*
X9866D01*
X9734D02*
X9718D01*
X9469D02*
X9392D01*
X9318D02*
X9305D01*
X8849D02*
X8743D01*
X8739D02*
X8722D01*
X8572D01*
X10656Y8348D02*
X11217D01*
X10596D02*
X10088D01*
X9895D02*
X9866D01*
X9740D02*
X9718D01*
X9470D02*
X9392D01*
X9318D02*
X9304D01*
X8858D02*
X8843D01*
X8749D01*
X8733D01*
X8722D01*
X8572D01*
X10656Y8342D02*
X11217D01*
X10596D02*
X10088D01*
X9897D02*
X9866D01*
X9746D02*
X9712D01*
X9472D02*
X9392D01*
X9318D02*
X9302D01*
X8722D02*
X8572D01*
X10656Y8336D02*
X11217D01*
X10596D02*
X10088D01*
X9901D02*
X9866D01*
X9752D02*
X9708D01*
X9470D02*
X9392D01*
X9318D02*
X9302D01*
X8721D02*
X8572D01*
X10656Y8330D02*
X11217D01*
X10596D02*
X10088D01*
X10043D02*
X9936D01*
X9908D02*
X9866D01*
X9758D02*
X9701D01*
X9673D02*
X9519D01*
X9473D02*
X9392D01*
X9318D02*
X9298D01*
X9034D02*
X9012D01*
X9002D01*
X8715D02*
X8682D01*
X8680D02*
X8662D01*
X8572D01*
X10656Y8324D02*
X11217D01*
X10596D02*
X10088D01*
X10044D02*
X9866D01*
X9764D02*
X9519D01*
X9473D02*
X9392D01*
X9318D02*
X9298D01*
X9033D02*
X9012D01*
X8709D02*
X8688D01*
X8674D01*
X8662D01*
X8572D01*
X10656Y8318D02*
X11217D01*
X10596D02*
X10088D01*
X10044D02*
X9866D01*
X9770D02*
X9519D01*
X9473D02*
X9392D01*
X9318D02*
X9298D01*
X9033D02*
X9016D01*
X8662D02*
X8646D01*
X8572D01*
X10656Y8312D02*
X11217D01*
X10596D02*
X10533D01*
X10477D02*
X10088D01*
X10044D02*
X9866D01*
X9776D02*
X9718D01*
X9662D02*
X9519D01*
X9473D02*
X9392D01*
X9318D02*
X9298D01*
X9035D02*
X9019D01*
X8662D02*
X8646D01*
X8572D01*
X10656Y8306D02*
X11217D01*
X10596D02*
X10550D01*
X10460D02*
X10088D01*
X10044D02*
X9866D01*
X9782D02*
X9735D01*
X9645D02*
X9519D01*
X9473D02*
X9392D01*
X9318D02*
X9298D01*
X9039D02*
X9020D01*
X8845D02*
X8747D01*
X8656D02*
X8646D01*
X8572D01*
X10656Y8300D02*
X11217D01*
X10596D02*
X10561D01*
X10449D02*
X10088D01*
X10044D02*
X9866D01*
X9788D02*
X9746D01*
X9634D02*
X9519D01*
X9473D02*
X9392D01*
X9318D02*
X9298D01*
X9042D02*
X9020D01*
X8851D02*
X8741D01*
X8646D02*
X8572D01*
X10656Y8294D02*
X11217D01*
X10596D02*
X10570D01*
X10440D02*
X10088D01*
X10044D02*
X9866D01*
X9794D02*
X9755D01*
X9625D02*
X9519D01*
X9473D02*
X9392D01*
X9318D02*
X9298D01*
X9083D02*
X9042D01*
X9018D01*
X8857D02*
X8821D01*
X8801D02*
X8736D01*
X8644D02*
X8572D01*
X10656Y8288D02*
X11217D01*
X10596D02*
X10578D01*
X10432D02*
X10088D01*
X10044D02*
X9866D01*
X9800D02*
X9763D01*
X9617D02*
X9519D01*
X9473D02*
X9392D01*
X9318D02*
X9298D01*
X9085D02*
X9015D01*
X8858D02*
X8837D01*
X8791D02*
X8736D01*
X8646D02*
X8638D01*
X8572D01*
X10656Y8282D02*
X11217D01*
X10596D02*
X10584D01*
X10426D02*
X10088D01*
X10044D02*
X9866D01*
X9806D02*
X9769D01*
X9611D02*
X9519D01*
X9473D02*
X9392D01*
X9318D02*
X9298D01*
X9086D02*
X9012D01*
X8975D02*
X8953D01*
X8883D01*
X8869D01*
X8858D01*
X8837D01*
X8787D02*
X8736D01*
X8723D01*
X8709D01*
X8688D01*
X8644D02*
X8572D01*
X10656Y8276D02*
X11217D01*
X10420D02*
X10088D01*
X10044D02*
X9866D01*
X9812D02*
X9775D01*
X9605D02*
X9519D01*
X9473D02*
X9392D01*
X9318D02*
X9298D01*
X9224D02*
X9128D01*
X9094D02*
X9086D01*
X9012D01*
X8992D01*
X8953D01*
X8646D02*
X8572D01*
X10656Y8270D02*
X11217D01*
X10416D02*
X10088D01*
X10044D02*
X9866D01*
X9812D02*
X9779D01*
X9601D02*
X9519D01*
X9473D02*
X9392D01*
X9318D02*
X9298D01*
X9254D02*
X9241D01*
X9111D01*
X9086D01*
X8953D01*
X8646D02*
X8572D01*
X10656Y8264D02*
X11217D01*
X10412D02*
X10088D01*
X10044D02*
X9866D01*
X9812D02*
X9783D01*
X9597D02*
X9519D01*
X9473D02*
X9392D01*
X9318D02*
X9302D01*
X9250D02*
X8953D01*
X8646D02*
X8572D01*
X10656Y8258D02*
X11217D01*
X10408D02*
X10088D01*
X10044D02*
X9866D01*
X9812D02*
X9787D01*
X9593D02*
X9519D01*
X9473D02*
X9392D01*
X9318D02*
X9304D01*
X9248D02*
X8953D01*
X8646D02*
X8572D01*
X10656Y8252D02*
X11217D01*
X10405D02*
X10088D01*
X10044D02*
X9866D01*
X9812D02*
X9790D01*
X9590D02*
X9519D01*
X9473D02*
X9392D01*
X9318D02*
X9304D01*
X9248D02*
X8953D01*
X8646D02*
X8572D01*
X11068Y8246D02*
X11217D01*
X11068D02*
X10976D01*
X10753D01*
X10661D01*
X10402D02*
X10088D01*
X10044D02*
X9868D01*
X9812D02*
X9793D01*
X9587D02*
X9519D01*
X9473D02*
X9392D01*
X9318D02*
X9303D01*
X9249D02*
X8953D01*
X8646D02*
X8572D01*
X11068Y8240D02*
X11217D01*
X11068D02*
X10976D01*
X10753D01*
X10661D01*
X10400D02*
X10088D01*
X10044D02*
X9874D01*
X9812D02*
X9795D01*
X9585D02*
X9519D01*
X9473D02*
X9392D01*
X9318D02*
X9301D01*
X9251D02*
X8953D01*
X8646D02*
X8572D01*
X11068Y8234D02*
X11217D01*
X10976D02*
X10753D01*
X10398D02*
X10089D01*
X10043D02*
X9880D01*
X9812D02*
X9797D01*
X9583D02*
X9519D01*
X9473D02*
X9392D01*
X9318D02*
X9298D01*
X9254D02*
X8954D01*
X8646D02*
X8572D01*
X11068Y8228D02*
X11217D01*
X10976D02*
X10753D01*
X10397D02*
X10092D01*
X10040D02*
X9886D01*
X9812D02*
X9798D01*
X9582D02*
X9519D01*
X9473D02*
X9392D01*
X9318D02*
X9298D01*
X9289D01*
X9263D02*
X9254D01*
X9186D01*
X9142D01*
X8954D01*
X8646D02*
X8572D01*
X11068Y8222D02*
X11217D01*
X10976D02*
X10753D01*
X10396D02*
X10094D01*
X10038D02*
X9892D01*
X9812D02*
X9799D01*
X9581D02*
X9519D01*
X9473D02*
X9392D01*
X9318D02*
X9298D01*
X9254D01*
X9186D01*
X9142D01*
X8954D01*
X8642D02*
X8572D01*
X11068Y8216D02*
X11217D01*
X10976D02*
X10753D01*
X10395D02*
X10094D01*
X10038D02*
X9898D01*
X9580D02*
X9566D01*
X9519D01*
X9473D02*
X9392D01*
X8640D02*
X8572D01*
X11068Y8210D02*
X11217D01*
X10976D02*
X10753D01*
X10395D02*
X10093D01*
X10039D02*
X9904D01*
X9808D02*
X9800D01*
X9580D02*
X9566D01*
X9519D01*
X9473D02*
X9430D01*
X9392D01*
X8646D02*
X8572D01*
X11068Y8204D02*
X11217D01*
X10976D02*
X10753D01*
X10395D02*
X10090D01*
X10042D02*
X9910D01*
X9812D02*
X9800D01*
X9580D02*
X9566D01*
X9473D02*
X9430D01*
X9392D01*
X8646D02*
X8572D01*
X11068Y8198D02*
X11217D01*
X10976D02*
X10753D01*
X10395D02*
X10088D01*
X10044D02*
X9916D01*
X9820D02*
X9812D01*
X9800D01*
X9580D02*
X9566D01*
X9430D02*
X9392D01*
X8658D02*
X8646D01*
X8572D01*
X8843Y8348D02*
X8859D01*
X8843D02*
X8749D01*
X8733D01*
X8722D01*
X8749Y8308D02*
X8843D01*
X9131Y8278D02*
X9221D01*
X9091D02*
X9086D01*
X9084Y8304D02*
X9081D01*
X8708Y8322D02*
X8689D01*
X8673D01*
X8662D01*
X8724Y8284D02*
X8736D01*
X8724D02*
X8708D01*
X8689D01*
X9515Y8377D02*
X9671D01*
X9515D02*
X9513D01*
X9519Y8331D02*
X9671D01*
X9261Y8377D02*
X9257D01*
X9254D01*
X8900D01*
X9012Y8331D02*
X9034D01*
X9012D02*
X8999D01*
X9142Y8218D02*
X9186D01*
X9142D02*
X8954D01*
X8953D01*
X9298D02*
X9318D01*
X9298D02*
X9254D01*
X9186D01*
X9142D02*
X9139D01*
X8972Y8284D02*
X8953D01*
X8885D01*
X8867D02*
X8858D01*
X10044Y8377D02*
X10066D01*
X10044D02*
X9938D01*
Y8331D02*
X10042D01*
X11023Y8384D02*
X11028D01*
X11023D02*
X11002D01*
X10889D01*
X10998D02*
X11002D01*
X8658Y8198D02*
X8646D01*
Y8282D02*
X8644D01*
X8646Y8308D02*
X8658D01*
X9296Y8374D02*
X9298D01*
Y8232D02*
X9294D01*
X9258D02*
X9254D01*
X9718Y8360D02*
X9729D01*
X9856Y8388D02*
X9866D01*
X10074Y8376D02*
X10088D01*
Y8196D02*
X10084D01*
X10048D02*
X10044D01*
X8954Y8227D02*
X8953D01*
Y8277D02*
X8877D01*
X8875D01*
X8858D01*
X8838D01*
X8782D02*
X8736D01*
X8717D01*
X8715D01*
X8686D01*
X9519Y8208D02*
X9566D01*
X9473Y8201D02*
X9430D01*
X10976Y8237D02*
X11068D01*
X10753D02*
X10661D01*
Y8196D02*
X10707D01*
X10753D01*
X10976D02*
X11022D01*
X11068D01*
X8895Y8246D02*
X8865D01*
X8895D02*
X8926D01*
X11146Y8582D02*
X11217D01*
X10852D02*
X10741D01*
X10731D02*
X10009D01*
X9099D02*
X8942D01*
X8930D02*
X8821D01*
X11146Y8576D02*
X11217D01*
X10850D02*
X10759D01*
X10713D02*
X10006D01*
X9098D02*
X9046D01*
X9026D01*
X8959D01*
X8913D02*
X8823D01*
X11146Y8570D02*
X11217D01*
X10849D02*
X10767D01*
X10705D02*
X10006D01*
X9994D01*
X9098D02*
X9063D01*
X9026D02*
X8967D01*
X8905D02*
X8825D01*
X11146Y8564D02*
X11217D01*
X10847D02*
X10772D01*
X10700D02*
X9993D01*
X9023D02*
X8972D01*
X8900D02*
X8826D01*
X11146Y8558D02*
X11217D01*
X10846D02*
X10776D01*
X10697D02*
X9990D01*
X9020D02*
X8976D01*
X8896D02*
X8827D01*
X11146Y8552D02*
X11217D01*
X10845D02*
X10778D01*
X10694D02*
X9986D01*
X9947D02*
X9907D01*
X9018D02*
X8978D01*
X8894D02*
X8828D01*
X11146Y8546D02*
X11217D01*
X10845D02*
X10780D01*
X10692D02*
X9986D01*
X9973D01*
X9959D02*
X9911D01*
X9005D02*
X8980D01*
X8892D02*
X8828D01*
X11146Y8540D02*
X11217D01*
X10845D02*
X10781D01*
X10692D02*
X10626D01*
X10260D01*
X10212D01*
X9913D01*
X8999D02*
X8980D01*
X8891D02*
X8828D01*
X11146Y8534D02*
X11217D01*
X10845D02*
X10781D01*
X10692D02*
X10626D01*
X10608D01*
X10604D02*
X10260D01*
X10212D01*
X9914D01*
X8995D02*
X8980D01*
X8892D02*
X8828D01*
X11146Y8528D02*
X11217D01*
X10845D02*
X10780D01*
X10693D02*
X10626D01*
X10614D01*
X10598D01*
X10260D01*
X10212D01*
X9914D01*
X8993D02*
X8979D01*
X8892D02*
X8828D01*
X11146Y8522D02*
X11217D01*
X10846D02*
X10778D01*
X10695D02*
X10626D01*
X8993D02*
X8977D01*
X8894D02*
X8827D01*
X11146Y8516D02*
X11217D01*
X10847D02*
X10775D01*
X10697D02*
X10626D01*
X8994D02*
X8975D01*
X8897D02*
X8827D01*
X11146Y8510D02*
X11217D01*
X10848D02*
X10771D01*
X10701D02*
X10656D01*
X10632D01*
X9295D02*
X9201D01*
X8996D02*
X8971D01*
X8901D02*
X8825D01*
X11148Y8504D02*
X11217D01*
X10849D02*
X10765D01*
X10707D02*
X10656D01*
X10638D01*
X9294D02*
X9195D01*
X9000D02*
X8965D01*
X8907D02*
X8824D01*
X11154Y8498D02*
X11217D01*
X11154D02*
X11146D01*
X10851D02*
X10756D01*
X10716D02*
X10656D01*
X10644D01*
X9295D02*
X9190D01*
X9008D02*
X8956D01*
X8916D02*
X8822D01*
X11148Y8492D02*
X11217D01*
X10853D02*
X10656D01*
X9297D02*
X9190D01*
X9183D01*
X9024D02*
X9016D01*
X8820D01*
X11146Y8486D02*
X11217D01*
X10855D02*
X10656D01*
X9301D02*
X9190D01*
X9177D01*
X9165D01*
X9110D01*
X9062D01*
X9042D01*
X9030D01*
X9016D01*
X8818D01*
X11146Y8480D02*
X11217D01*
X11146D02*
X11136D01*
X10858D02*
X10662D01*
X9302D02*
X9190D01*
X9110D01*
X9062D01*
X9016D01*
X8815D01*
X11146Y8474D02*
X11217D01*
X11146D02*
X11130D01*
X10861D02*
X10660D01*
X9302D02*
X8812D01*
X11146Y8468D02*
X11217D01*
X11146D02*
X11124D01*
X10865D02*
X10656D01*
X9302D02*
X8809D01*
X8581D02*
X8572D01*
X11118Y8462D02*
X11217D01*
X10868D02*
X10656D01*
X10584D02*
X10066D01*
X10016D01*
X9864D01*
X9710D02*
X9520D01*
X9472D01*
X9405D01*
X9302D02*
X8805D01*
X8585D02*
X8572D01*
X11112Y8456D02*
X11217D01*
X10873D02*
X10656D01*
X10590D02*
X10066D01*
X10016D01*
X9865D01*
X9709D02*
X9520D01*
X9472D01*
X9393D01*
X9296D02*
X8800D01*
X8589D02*
X8572D01*
X11106Y8450D02*
X11217D01*
X10878D02*
X10656D01*
X10596D02*
X9865D01*
X9709D02*
X9399D01*
X9392D01*
X9298D02*
X8795D01*
X8594D02*
X8572D01*
X11100Y8444D02*
X11217D01*
X10883D02*
X10656D01*
X10596D02*
X9863D01*
X9711D02*
X9395D01*
X9302D02*
X8790D01*
X8600D02*
X8572D01*
X11094Y8438D02*
X11217D01*
X10890D02*
X10656D01*
X10596D02*
X9860D01*
X9714D02*
X9392D01*
X9310D02*
X9302D01*
X8783D01*
X8606D02*
X8572D01*
X11088Y8432D02*
X11217D01*
X10897D02*
X10862D01*
X10656D01*
X10596D02*
X9856D01*
X9718D02*
X9392D01*
X9316D02*
X9302D01*
X8776D01*
X8614D02*
X8572D01*
X11082Y8426D02*
X11217D01*
X10906D02*
X10886D01*
X10876D01*
X10862D01*
X10656D01*
X10596D02*
X9856D01*
X9718D02*
X9392D01*
X9318D02*
X9302D01*
X8768D01*
X8622D02*
X8572D01*
X11088Y8420D02*
X11217D01*
X10870D02*
X10862D01*
X10656D01*
X10596D02*
X9856D01*
X9718D02*
X9392D01*
X9318D02*
X8757D01*
X8632D02*
X8572D01*
X11095Y8414D02*
X11217D01*
X10862D02*
X10656D01*
X10596D02*
X9856D01*
X9718D02*
X9392D01*
X9318D02*
X8744D01*
X8645D02*
X8572D01*
X11099Y8408D02*
X11217D01*
X10858D02*
X10656D01*
X10596D02*
X9856D01*
X9718D02*
X9392D01*
X9318D02*
X8725D01*
X8664D02*
X8572D01*
X11102Y8402D02*
X11217D01*
X10842D02*
X10656D01*
X10596D02*
X9856D01*
X9718D02*
X9392D01*
X9318D02*
X8572D01*
X11103Y8396D02*
X11217D01*
X10835D02*
X10656D01*
X10596D02*
X9866D01*
X9856D01*
X9718D02*
X9392D01*
X9318D02*
X8572D01*
X9204Y8514D02*
X9296D01*
X9099Y8568D02*
X9066D01*
X9906Y8554D02*
X9946D01*
X9906D02*
X9905D01*
X9520Y8464D02*
X9472D01*
X9406D01*
X10212Y8528D02*
X10260D01*
X10212D02*
X9913D01*
X10614D02*
X10626D01*
X10614D02*
X10598D01*
X10260D01*
X10212D02*
X10208D01*
X9190Y8488D02*
X9179D01*
X9163D01*
X9110D01*
X9062D01*
X9058D01*
X10066Y8464D02*
X10583D01*
X10066D02*
X10016D01*
X10013D01*
X9062Y8488D02*
X9044D01*
X9028D01*
X9016D01*
X9013D01*
X10889Y8422D02*
X10911D01*
X10889D02*
X10873D01*
X10862D01*
X10858D01*
X10016Y8464D02*
X9863D01*
X9711D02*
X9520D01*
X9472D02*
X9468D01*
X9314Y8434D02*
X9302D01*
X10644Y8498D02*
X10656D01*
Y8472D02*
X10658D01*
X11134Y8478D02*
X11146D01*
X11156Y8780D02*
X11102D01*
X11089D01*
X11075D01*
X10971D01*
X10932D02*
X10060D01*
X10011D02*
X9981D01*
X9933D02*
X8643D01*
X11102Y8774D02*
X11162D01*
X10928D02*
X10066D01*
X10005D02*
X9987D01*
X9926D02*
X8637D01*
X11122Y8768D02*
X11168D01*
X11122D02*
X11102D01*
X10925D02*
X10070D01*
X10001D02*
X9992D01*
X9922D02*
X8631D01*
X11122Y8762D02*
X11174D01*
X11122D02*
X11107D01*
X10924D02*
X10073D01*
X9919D02*
X8625D01*
X11122Y8756D02*
X11180D01*
X11122D02*
X11113D01*
X10924D02*
X10075D01*
X9917D02*
X9856D01*
X9662D01*
X9618D01*
X9018D01*
X8619D01*
X11133Y8750D02*
X11186D01*
X11133D02*
X11122D01*
X10925D02*
X10076D01*
X9916D02*
X9856D01*
X9847D01*
X9827D02*
X9662D01*
X9618D01*
X9047D01*
X9027D02*
X9018D01*
X8613D01*
X11133Y8744D02*
X11192D01*
X11133D02*
X11125D01*
X10928D02*
X10076D01*
X9916D02*
X9857D01*
X9817D02*
X9662D01*
X9618D01*
X9057D01*
X9017D02*
X8607D01*
X11133Y8738D02*
X11198D01*
X11011D02*
X10971D01*
X10932D02*
X10075D01*
X9917D02*
X9861D01*
X9013D02*
X8601D01*
X11133Y8732D02*
X11204D01*
X11011D02*
X10959D01*
X10945D02*
X10932D01*
X10073D01*
X9919D02*
X9864D01*
X9010D02*
X8595D01*
X11133Y8726D02*
X11210D01*
X11011D02*
X10070D01*
X10001D02*
X9991D01*
X9922D02*
X9865D01*
X9009D02*
X8589D01*
X11133Y8720D02*
X11216D01*
X11011D02*
X10065D01*
X10006D02*
X9986D01*
X9927D02*
X9865D01*
X9009D02*
X8583D01*
X11133Y8714D02*
X11217D01*
X11011D02*
X10058D01*
X10013D02*
X9980D01*
X9934D02*
X9863D01*
X9011D02*
X8577D01*
X11133Y8708D02*
X11217D01*
X11011D02*
X10044D01*
X10027D02*
X9966D01*
X9948D02*
X9860D01*
X9014D02*
X8572D01*
X11133Y8702D02*
X11217D01*
X11011D02*
X9856D01*
X9820D02*
X9765D01*
X9114D02*
X9054D01*
X9018D02*
X8572D01*
X11133Y8696D02*
X11217D01*
X11011D02*
X9856D01*
X9837D01*
X9765D01*
X9114D02*
X9037D01*
X9018D01*
X8572D01*
X11133Y8690D02*
X11217D01*
X11011D02*
X9764D01*
X9115D02*
X8572D01*
X11133Y8684D02*
X11217D01*
X11011D02*
X9761D01*
X9118D02*
X8572D01*
X11133Y8678D02*
X11217D01*
X11133D02*
X11122D01*
X11011D02*
X9756D01*
X9718D02*
X9652D01*
X9608D01*
X9161D01*
X9122D02*
X8572D01*
X11133Y8672D02*
X11217D01*
X11133D02*
X11122D01*
X11011D02*
X9756D01*
X9744D01*
X9730D02*
X9652D01*
X9608D01*
X9149D01*
X9135D02*
X9122D01*
X8572D01*
X11146Y8666D02*
X11217D01*
X11146D02*
X11133D01*
X11126D01*
X10940D02*
X8733D01*
X8656D02*
X8572D01*
X11146Y8660D02*
X11217D01*
X11146D02*
X11132D01*
X10924D02*
X8749D01*
X8640D02*
X8572D01*
X11146Y8654D02*
X11217D01*
X11146D02*
X11138D01*
X10912D02*
X8761D01*
X8628D02*
X8572D01*
X11146Y8648D02*
X11217D01*
X10902D02*
X8771D01*
X8619D02*
X8572D01*
X11150Y8642D02*
X11217D01*
X10894D02*
X8779D01*
X8611D02*
X8572D01*
X11152Y8636D02*
X11217D01*
X10887D02*
X8786D01*
X8604D02*
X8572D01*
X11146Y8630D02*
X11217D01*
X10881D02*
X10006D01*
X9566D01*
X9516D01*
X9330D01*
X9286D01*
X9132D01*
X8792D01*
X8598D02*
X8572D01*
X11146Y8624D02*
X11217D01*
X10876D02*
X10006D01*
X9996D01*
X9976D02*
X9566D01*
X9516D01*
X9330D01*
X9286D01*
X9161D01*
X9141D02*
X9132D01*
X8797D01*
X8592D02*
X8572D01*
X11146Y8618D02*
X11217D01*
X10871D02*
X10006D01*
X9966D02*
X9566D01*
X9516D01*
X9330D01*
X9286D01*
X9171D01*
X9131D02*
X8802D01*
X8588D02*
X8572D01*
X11146Y8612D02*
X11217D01*
X10867D02*
X10010D01*
X9127D02*
X8806D01*
X8584D02*
X8572D01*
X11146Y8606D02*
X11217D01*
X10863D02*
X10013D01*
X9124D02*
X8810D01*
X8580D02*
X8572D01*
X11146Y8600D02*
X11217D01*
X10860D02*
X10014D01*
X9119D02*
X9106D01*
X8813D01*
X11146Y8594D02*
X11217D01*
X10857D02*
X10014D01*
X9106D02*
X8816D01*
X11146Y8588D02*
X11217D01*
X10854D02*
X10012D01*
X9102D02*
X8819D01*
X11090Y8778D02*
X11102D01*
X11090D02*
X11074D01*
X10972D01*
Y8740D02*
X11011D01*
X9966Y8618D02*
X9566D01*
X9516D01*
X9513D01*
X9516D02*
X9330D01*
X9286D01*
X9283D01*
X9286D02*
X9171D01*
X9618Y8744D02*
X9662D01*
X9618D02*
X9057D01*
Y8704D02*
X9115D01*
X9608Y8680D02*
X9652D01*
X9608D02*
X9162D01*
X9652D02*
X9717D01*
X9608D02*
X9604D01*
X9662Y8744D02*
X9817D01*
X9618D02*
X9614D01*
X9764Y8704D02*
X9817D01*
X11110Y8758D02*
X11122D01*
X11134Y8658D02*
X11146D01*
X11133Y8740D02*
X11129D01*
X11122D01*
X11015Y8678D02*
X11011D01*
X11008D01*
X9957Y8748D02*
X9916D01*
X11132Y8804D02*
X8667D01*
X8661Y8798D02*
X11138D01*
X11144Y8792D02*
X8655D01*
X11102Y8786D02*
X11150D01*
X11102D02*
X11083D01*
X11081D02*
X10959D01*
X10945D02*
X10932D01*
X10048D01*
X10023D02*
X9969D01*
X9944D02*
X8649D01*
X8672Y8809D02*
X11127D01*
X8572Y8709D02*
Y8591D01*
Y8485D02*
Y7685D01*
Y7580D02*
Y7480D01*
Y8709D02*
X8672Y8809D01*
X8676Y7945D02*
Y7934D01*
X8652Y8156D02*
Y8168D01*
X8722Y8336D02*
Y8348D01*
X8736Y8295D02*
Y8284D01*
X8662Y8311D02*
Y8322D01*
X8666Y8190D02*
Y8178D01*
Y8177D01*
X8626Y8138D02*
Y8131D01*
Y8115D01*
Y8088D01*
Y8011D01*
Y7995D01*
Y7984D01*
Y7980D01*
X8646Y8244D02*
Y8268D01*
Y8244D02*
Y8228D01*
Y8226D01*
Y8210D01*
Y8198D01*
Y8195D01*
X8686Y8277D02*
Y8280D01*
X8646D02*
Y8282D01*
Y8280D02*
Y8268D01*
Y8226D02*
Y8225D01*
X8626Y8142D02*
Y8138D01*
Y8088D02*
Y8085D01*
X8646Y8296D02*
Y8308D01*
Y8296D02*
Y8282D01*
Y8244D02*
Y8240D01*
X8684Y8178D02*
Y8177D01*
Y8173D01*
X8679Y8177D02*
Y8178D01*
Y8177D02*
Y8177D01*
Y8168D01*
Y8168D01*
X8752Y7892D02*
Y7888D01*
X8690Y7931D02*
Y7934D01*
Y7931D02*
Y7892D01*
Y7888D01*
X8750D02*
Y7892D01*
X8752Y7822D02*
Y7818D01*
X8690Y7822D02*
Y7884D01*
Y7822D02*
Y7818D01*
X8750D02*
Y7822D01*
X8721D02*
Y7853D01*
Y7884D01*
Y7892D02*
Y7923D01*
X8782Y8277D02*
X8785Y8278D01*
X8626Y8011D02*
X8618Y8003D01*
X8626Y7995D01*
X8634Y7988D01*
X8638Y7984D01*
X8646Y7975D01*
X8649Y7972D01*
X8666Y7956D01*
X8667Y7954D01*
X8673Y7948D01*
X8676Y7945D01*
X8682Y7940D01*
X8684Y7938D01*
X8686Y7936D01*
X8688Y7934D01*
X8690Y7931D01*
X8638Y8218D02*
X8646Y8226D01*
X8638Y8218D02*
X8639Y8218D01*
X8641Y8216D01*
X8646Y8210D01*
X8652Y8205D01*
X8658Y8198D01*
X8666Y8190D01*
X8678Y8178D01*
X8679Y8177D01*
X8680Y8177D01*
X8749Y8348D02*
X8741Y8356D01*
X8708Y8284D02*
X8709Y8282D01*
X8715Y8277D01*
X8736Y8295D02*
X8749Y8308D01*
X8736Y8295D02*
X8724Y8284D01*
X8722Y8281D01*
X8717Y8277D01*
X8736Y8350D02*
X8741Y8356D01*
X8736Y8350D02*
X8733Y8348D01*
X8722Y8336D01*
X8708Y8322D01*
X8686Y8326D02*
X8681Y8331D01*
X8686Y8326D02*
X8689Y8322D01*
X8643Y8284D02*
X8638Y8288D01*
X8643Y8284D02*
X8644Y8282D01*
X8646Y8280D01*
X8688Y8282D02*
X8689Y8284D01*
X8688Y8282D02*
X8686Y8280D01*
X8673Y8322D02*
X8681Y8331D01*
X8673Y8322D02*
X8662Y8311D01*
X8658Y8308D01*
X8646Y8296D01*
X8638Y8288D01*
X8671Y8176D02*
X8679Y8168D01*
X8679Y8168D01*
X8626Y8115D02*
X8618Y8123D01*
X8666Y8171D02*
X8671Y8176D01*
X8666Y8171D02*
X8666Y8170D01*
X8663Y8168D01*
X8661Y8166D01*
X8652Y8156D01*
X8638Y8142D01*
X8633Y8138D01*
X8626Y8131D01*
X8624Y8128D01*
X8622Y8127D01*
X8618Y8123D01*
X8952Y7815D02*
Y7812D01*
Y7804D01*
X8858Y8284D02*
Y8294D01*
X8954Y8227D02*
Y8218D01*
X8953Y8227D02*
Y8277D01*
Y8227D02*
Y8218D01*
X8886Y7812D02*
Y7809D01*
X8826Y7868D02*
Y7874D01*
Y7828D02*
Y7812D01*
Y7809D01*
X8942Y7812D02*
Y7824D01*
Y7812D02*
Y7809D01*
X8880D02*
Y7812D01*
X8886Y7879D02*
Y7882D01*
X8826D02*
Y7898D01*
Y7882D02*
Y7879D01*
X8880D02*
Y7882D01*
X8812Y7892D02*
Y7898D01*
Y7892D02*
Y7888D01*
Y7884D02*
Y7868D01*
Y7828D02*
Y7822D01*
Y7818D01*
X8971Y7795D02*
X8979Y7804D01*
X8952Y7815D02*
X8943Y7824D01*
X8952Y7815D02*
X8954Y7812D01*
X8956Y7810D01*
X8963Y7804D01*
X8971Y7795D01*
X8923Y7874D02*
X8914Y7882D01*
X8843Y8348D02*
X8851Y8356D01*
X8843Y8308D02*
X8858Y8294D01*
X8867Y8284D01*
X8870Y8281D01*
X8875Y8277D01*
X8858Y8349D02*
X8851Y8356D01*
X8858Y8349D02*
X8858Y8348D01*
X9086Y8284D02*
Y8278D01*
X9016Y8488D02*
Y8495D01*
X9036Y8480D02*
X9044Y8488D01*
X9026Y8490D02*
X9021Y8495D01*
X9026Y8490D02*
X9028Y8488D01*
X9036Y8480D01*
X9163Y8488D02*
X9171Y8480D01*
X9179Y8488D02*
X9190Y8500D01*
X9179Y8488D02*
X9176Y8486D01*
X9171Y8480D01*
X9190Y8488D02*
Y8500D01*
Y8488D02*
Y8485D01*
X9298Y8374D02*
Y8373D01*
Y8335D02*
Y8332D01*
Y8318D01*
Y8271D01*
Y8235D02*
Y8232D01*
X9254Y8271D02*
Y8273D01*
Y8235D02*
Y8232D01*
X9302Y8462D02*
Y8484D01*
Y8462D02*
Y8446D01*
Y8434D01*
X9318Y8431D02*
Y8218D01*
X9250Y7798D02*
Y7748D01*
X9356D02*
Y7770D01*
X9309Y7858D02*
Y7858D01*
X9253D02*
Y7808D01*
Y7878D02*
Y7908D01*
X9281Y7903D02*
Y7878D01*
Y7833D02*
Y7808D01*
Y7833D02*
Y7858D01*
X9278Y7773D02*
Y7748D01*
Y7773D02*
Y7798D01*
X9190Y8500D02*
X9204Y8514D01*
X9304Y8338D02*
X9298Y8332D01*
X9257Y8377D02*
X9261Y8381D01*
X9263Y8378D01*
X9301Y8340D02*
X9304Y8338D01*
X9299Y8458D02*
X9302Y8462D01*
X9299Y8458D02*
X9294Y8454D01*
X9302Y8446D01*
X9304Y8444D01*
X9314Y8434D01*
X9318Y8431D01*
X9369Y7784D02*
X9359Y7773D01*
X9356Y7770D01*
X9329Y7798D02*
X9338Y7808D01*
X9224Y7908D02*
X9214Y7898D01*
X9392Y8082D02*
Y8084D01*
Y8441D02*
Y8456D01*
Y8441D02*
Y8084D01*
X9486Y7708D02*
Y7696D01*
X9446D02*
Y7708D01*
X9519Y8208D02*
Y8331D01*
X9473Y8333D02*
Y8340D01*
Y8333D02*
Y8201D01*
X9436Y8095D02*
Y8084D01*
X9486Y7590D02*
Y7576D01*
X9446D02*
Y7590D01*
X9515Y7480D02*
Y7477D01*
Y7467D01*
Y7438D01*
Y7432D01*
Y7394D02*
Y7388D01*
Y7365D01*
Y7128D01*
Y7039D01*
X9566Y8154D02*
Y8208D01*
Y8154D02*
Y8148D01*
Y8144D01*
X9430Y8145D02*
Y8151D01*
Y8145D02*
Y8144D01*
Y8142D01*
Y8102D01*
Y8095D01*
Y8092D01*
Y8151D02*
Y8201D01*
Y8142D02*
Y8142D01*
X9414Y8047D02*
Y8046D01*
X9415Y8047D02*
Y8084D01*
Y8047D02*
Y8046D01*
X9570Y7756D02*
Y7753D01*
Y7734D01*
Y7733D01*
Y7721D01*
Y7715D01*
Y7712D01*
Y7715D02*
Y7708D01*
Y7665D01*
Y7662D01*
X9492Y7528D02*
Y7526D01*
Y7520D01*
Y7518D01*
Y7480D01*
X9440Y7526D02*
Y7528D01*
Y7526D02*
Y7520D01*
Y7518D01*
Y7480D01*
X9492Y7528D02*
Y7576D01*
Y7518D02*
Y7516D01*
X9440Y7528D02*
Y7576D01*
Y7518D02*
Y7516D01*
X9492Y7646D02*
Y7648D01*
Y7646D02*
Y7640D01*
Y7638D01*
Y7590D01*
Y7586D01*
X9440Y7646D02*
Y7648D01*
Y7646D02*
Y7640D01*
Y7638D01*
Y7590D01*
Y7586D01*
X9492Y7648D02*
Y7696D01*
Y7638D02*
Y7636D01*
X9440Y7648D02*
Y7696D01*
Y7638D02*
Y7636D01*
X9559Y7734D02*
Y7753D01*
Y7734D02*
Y7733D01*
Y7721D01*
Y7715D01*
Y7708D01*
Y7704D01*
X9489Y7752D02*
Y7753D01*
Y7752D02*
Y7733D01*
Y7708D01*
Y7704D01*
X9559Y7759D02*
Y7767D01*
Y7759D02*
Y7753D01*
Y7733D02*
Y7730D01*
X9489Y7759D02*
Y7775D01*
Y7759D02*
Y7753D01*
Y7733D02*
Y7730D01*
X9559Y7755D02*
Y7759D01*
X9489D02*
Y7755D01*
X9488Y7759D02*
Y7774D01*
Y7759D02*
Y7755D01*
X9418Y7778D02*
Y7784D01*
Y7778D02*
Y7759D01*
Y7755D01*
X9488Y7753D02*
Y7759D01*
Y7753D02*
Y7752D01*
Y7733D01*
Y7730D01*
X9418Y7753D02*
Y7759D01*
Y7753D02*
Y7733D01*
Y7730D01*
X9488Y7733D02*
Y7708D01*
Y7704D01*
X9418Y7708D02*
Y7733D01*
Y7708D02*
Y7704D01*
X9524Y7721D02*
Y7756D01*
Y7730D02*
Y7695D01*
X9456Y8173D02*
Y8198D01*
X9536Y8208D02*
Y8178D01*
X9395Y8444D02*
X9400Y8449D01*
X9395Y8444D02*
X9392Y8441D01*
X9400Y8449D02*
X9393Y8456D01*
X9489Y7775D02*
X9488Y7774D01*
X9559Y7767D02*
X9562Y7765D01*
X9566Y7760D01*
X9567Y7759D01*
X9570Y7756D01*
X9515Y8377D02*
X9511Y8381D01*
X9468Y8338D02*
X9473Y8333D01*
X9509Y8379D02*
X9511Y8381D01*
X9472Y8342D02*
X9468Y8338D01*
X9562Y7765D02*
X9567Y7759D01*
X9708Y8084D02*
Y8096D01*
Y8084D02*
Y8072D01*
Y8066D01*
X9710Y8048D02*
Y8048D01*
X9730Y7660D02*
Y7648D01*
X9692D02*
Y7660D01*
X9706Y8066D02*
Y8070D01*
Y8066D02*
Y8058D01*
Y8048D01*
X9718Y8387D02*
Y8434D01*
Y8387D02*
Y8371D01*
Y8360D01*
X9652Y7948D02*
Y7948D01*
Y7965D02*
Y7968D01*
Y7965D02*
Y7948D01*
Y7985D02*
Y7987D01*
Y7985D02*
Y7968D01*
Y8007D02*
Y8008D01*
Y8007D02*
Y8004D01*
Y7998D01*
Y7987D01*
Y7965D02*
Y7961D01*
Y7981D02*
Y7985D01*
Y8001D02*
Y8004D01*
X9766Y7998D02*
Y8048D01*
X9710D02*
Y8048D01*
X9716D02*
Y8048D01*
X9660Y8008D02*
Y8007D01*
Y8004D01*
Y7998D01*
X9731Y7747D02*
Y7746D01*
Y7660D02*
Y7657D01*
X9742Y7746D02*
Y7747D01*
Y7660D02*
Y7657D01*
X9664Y7660D02*
Y7717D01*
Y7660D02*
Y7657D01*
X9683Y7648D02*
Y7604D01*
Y7598D01*
X9622Y7665D02*
Y7692D01*
Y7665D02*
Y7662D01*
X9619Y7438D02*
Y7388D01*
X9591D02*
Y7413D01*
Y7438D01*
X9596Y7668D02*
Y7693D01*
X9761Y7623D02*
Y7598D01*
Y7623D02*
Y7648D01*
X9738Y7998D02*
Y8023D01*
Y8048D01*
X9749Y7842D02*
X9752Y7840D01*
X9758Y7834D01*
X9759Y7833D01*
X9595Y8148D02*
X9595Y8148D01*
X9595Y8148D02*
X9592Y8144D01*
X9710Y8074D02*
X9714Y8078D01*
X9710Y8074D02*
X9708Y8072D01*
X9706Y8070D01*
X9714Y8078D02*
X9708Y8084D01*
X9659Y7723D02*
X9660Y7721D01*
X9664Y7717D01*
X9690Y7746D02*
X9690Y7747D01*
X9709Y8379D02*
X9718Y8387D01*
X9709Y8379D02*
X9718Y8371D01*
X9729Y8360D01*
X9755Y8334D01*
X9756Y8332D01*
X9785Y8304D01*
X9773Y7983D02*
X9770Y7980D01*
X9766Y7976D01*
X9765Y7975D01*
X9679Y7959D02*
X9676Y7955D01*
X9673Y7952D01*
X9670Y7950D01*
X9668Y7948D01*
X9668Y7948D01*
X9868Y7914D02*
Y7902D01*
X9838Y7914D02*
Y7915D01*
X9940Y7482D02*
Y7438D01*
Y7411D01*
Y7970D02*
Y7972D01*
Y7970D02*
Y7934D01*
Y7930D01*
Y7802D02*
Y7764D01*
Y7482D01*
Y7438D02*
Y7435D01*
Y7802D02*
Y7934D01*
Y7764D02*
Y7760D01*
X9854Y7480D02*
Y7426D01*
Y7357D01*
Y7347D01*
Y7339D01*
Y7326D01*
Y7323D01*
X9882Y7958D02*
Y7992D01*
Y7958D02*
Y7950D01*
Y7918D01*
Y7915D01*
X9854Y7705D02*
Y7480D01*
Y7426D02*
Y7423D01*
Y7811D02*
Y7854D01*
X9882Y7888D02*
Y7918D01*
X9882Y7992D02*
Y8136D01*
X9942Y8172D02*
Y8184D01*
Y8172D02*
Y8156D01*
Y8012D01*
Y7972D01*
Y7970D01*
X9866Y8294D02*
Y8334D01*
Y8294D02*
Y8247D01*
X9812Y8222D02*
Y8276D01*
Y8222D02*
Y8206D01*
Y8194D01*
X9866Y8377D02*
Y8388D01*
Y8377D02*
Y8361D01*
Y8360D01*
Y8334D01*
Y8294D02*
Y8291D01*
X9856Y8388D02*
Y8434D01*
Y8388D02*
Y8387D01*
X9809Y7747D02*
Y7746D01*
Y7705D01*
Y7660D01*
Y7657D01*
Y7811D02*
Y7833D01*
Y7811D02*
Y7802D01*
Y7764D02*
Y7761D01*
Y7755D01*
Y7747D01*
Y7746D02*
Y7743D01*
X9824Y7842D02*
Y7872D01*
X9820Y7764D02*
Y7761D01*
Y7755D01*
Y7747D01*
Y7746D01*
Y7705D01*
Y7702D01*
Y7802D02*
Y7811D01*
Y7755D02*
Y7752D01*
X9789Y7648D02*
Y7598D01*
X9846Y7708D02*
Y7733D01*
X9796Y7842D02*
Y7868D01*
X9957Y8707D02*
Y8748D01*
Y8788D01*
X9785Y8304D02*
X9794Y8294D01*
X9812Y8276D01*
X9804Y7934D02*
X9802Y7931D01*
X9806Y8006D02*
X9801Y8011D01*
X9829Y7983D02*
X9829Y7983D01*
X9829Y7983D01*
X9801Y8011D02*
X9799Y8008D01*
X9796Y8006D01*
X9940Y7411D02*
X9942Y7410D01*
X9968Y7384D01*
X9854Y7357D02*
X9846Y7348D01*
X9851Y7343D01*
X9854Y7339D01*
X9867Y7326D01*
X9881Y7313D01*
X9851Y7343D02*
X9854Y7347D01*
X9867Y7326D02*
X9875Y7318D01*
X9881Y7313D01*
X9898Y7296D01*
X9898Y7295D01*
X9838Y7915D02*
X9846Y7923D01*
X9838Y7915D02*
X9837Y7914D01*
Y7872D02*
X9838Y7871D01*
X9854Y7854D01*
X9851Y7918D02*
X9846Y7923D01*
X9851Y7918D02*
X9854Y7915D01*
X9855Y7914D01*
X9861Y7908D01*
X9868Y7902D01*
X9882Y7888D01*
X9810Y8220D02*
X9812Y8222D01*
X9810Y8220D02*
X9804Y8214D01*
X9812Y8206D01*
X9824Y8194D01*
X9828Y8191D01*
X9835Y8184D01*
X9852Y8167D01*
X9855Y8164D01*
X9866Y8152D01*
X9882Y8136D01*
X9942Y8156D02*
X9950Y8164D01*
X9882Y8231D02*
X9866Y8247D01*
X9882Y8231D02*
X9894Y8220D01*
X9902Y8211D01*
X9919Y8194D01*
X9922Y8192D01*
X9930Y8184D01*
X9942Y8172D01*
X9950Y8164D01*
X9866Y8361D02*
X9875Y8369D01*
X9866Y8377D02*
X9856Y8387D01*
X9866Y8377D02*
X9875Y8369D01*
X10088Y8376D02*
Y8362D01*
Y8346D02*
Y8341D01*
Y8337D01*
Y8236D01*
Y8200D02*
Y8196D01*
X10044Y8236D02*
Y8329D01*
Y8200D02*
Y8196D01*
X10046Y7278D02*
Y7228D01*
X9969Y7382D02*
X9968Y7384D01*
X10153Y7382D02*
X10161Y7391D01*
X10169Y7382D01*
X10044Y8329D02*
X10042Y8331D01*
X10161Y7230D02*
X10239Y7152D01*
X10266Y7125D02*
Y7114D01*
X10180Y7371D02*
Y7382D01*
X10229Y7662D02*
Y7715D01*
X10176D02*
Y7662D01*
X10169Y7382D02*
X10180Y7371D01*
X10208Y7344D01*
X10227Y7325D01*
X10291Y7255D02*
X10326Y7220D01*
X10354Y7192D01*
X10294Y7114D02*
X10286Y7105D01*
X10266Y7125D02*
X10239Y7152D01*
X10266Y7125D02*
X10278Y7114D01*
X10286Y7105D01*
X10626Y8516D02*
Y8528D01*
X10726Y7578D02*
Y7542D01*
Y7498D01*
Y7495D01*
X10686Y7542D02*
Y7578D01*
Y7542D02*
Y7498D01*
Y7495D01*
X10720Y8131D02*
Y8142D01*
Y8131D02*
Y8115D01*
Y8100D01*
X10682Y8115D02*
Y8060D01*
X10726Y7498D02*
Y7482D01*
X10686D02*
Y7498D01*
X10620Y7974D02*
Y8012D01*
Y7974D02*
Y7873D01*
X10582Y7974D02*
Y8012D01*
Y7974D02*
Y7873D01*
X10596Y8378D02*
Y8450D01*
Y8378D02*
Y8334D01*
Y8330D01*
X10656Y8486D02*
Y8498D01*
Y8486D02*
Y8472D01*
Y8470D01*
Y8434D01*
Y8430D01*
X10636Y8161D02*
Y8091D01*
Y8075D01*
Y8064D01*
Y8060D01*
X10596Y8267D02*
Y8334D01*
Y8143D02*
Y8091D01*
X10656Y8237D02*
Y8434D01*
Y8237D02*
Y8196D01*
X10620Y8060D02*
Y8012D01*
Y7974D02*
Y7970D01*
X10582Y8076D02*
Y8088D01*
Y8076D02*
Y8060D01*
Y8012D01*
Y7974D02*
Y7970D01*
X10661Y7482D02*
Y7400D01*
Y7305D02*
Y7223D01*
Y8191D02*
Y8237D01*
Y8060D02*
Y7978D01*
X10707Y8155D02*
Y8196D01*
Y8237D01*
Y7264D02*
Y7223D01*
Y7264D02*
Y7305D01*
X10658Y8472D02*
X10664Y8478D01*
X10658Y8472D02*
X10656Y8470D01*
X10598Y8528D02*
X10606Y8536D01*
X10610Y8531D01*
X10614Y8528D01*
X10616Y8525D01*
X10626Y8516D01*
X10636Y8506D01*
X10639Y8502D01*
X10644Y8498D01*
X10653Y8488D01*
X10656Y8486D01*
X10664Y8478D01*
X10596Y8450D02*
X10583Y8464D01*
X10729Y8123D02*
X10720Y8115D01*
X10642Y8155D02*
X10636Y8161D01*
X10642Y8155D02*
X10654Y8142D01*
X10656Y8141D01*
X10661Y8135D01*
X10682Y8115D01*
X10661Y8191D02*
X10656Y8196D01*
X10697Y8155D02*
X10709Y8142D01*
X10720Y8131D01*
X10729Y8123D01*
X10639Y8088D02*
X10636Y8091D01*
X10639Y8088D02*
X10644Y8083D01*
X10578Y8064D02*
X10573Y8068D01*
X10578Y8064D02*
X10582Y8060D01*
X10636Y8075D02*
X10644Y8083D01*
X10636Y8075D02*
X10624Y8064D01*
X10620Y8060D01*
X10593Y8088D02*
X10596Y8091D01*
X10593Y8088D02*
X10582Y8076D01*
X10573Y8068D01*
X10862Y8411D02*
Y8422D01*
X10753Y7482D02*
Y7462D01*
Y7424D02*
Y7400D01*
Y7305D02*
Y7223D01*
Y8155D02*
Y8237D01*
Y7998D02*
Y7978D01*
X10889Y8422D02*
X10881Y8431D01*
X10889Y8384D02*
X10884Y8378D01*
X10873Y8422D02*
X10881Y8431D01*
X10873Y8422D02*
X10862Y8411D01*
X10856Y8406D01*
X11102Y8767D02*
Y8778D01*
X11122Y8758D02*
Y8747D01*
Y8740D01*
Y8678D02*
Y8670D01*
X11134Y8048D02*
Y7902D01*
X11132Y7460D02*
Y7408D01*
X11133Y8728D02*
Y8740D01*
Y8728D02*
Y8694D01*
Y8678D01*
X11011Y8728D02*
Y8740D01*
Y8728D02*
Y8678D01*
X11068Y7468D02*
Y7400D01*
X10976Y7462D02*
Y7482D01*
Y7424D02*
Y7400D01*
X11068Y7305D02*
Y7223D01*
X10976D02*
Y7305D01*
X11040Y7149D02*
Y7138D01*
Y7098D02*
Y7087D01*
X11068Y8160D02*
Y8237D01*
X10976D02*
Y8155D01*
X11068Y8048D02*
Y7978D01*
X10976D02*
Y7998D01*
X11022Y8155D02*
Y8196D01*
Y8237D01*
X11131Y7118D02*
Y7087D01*
Y7118D02*
Y7149D01*
X11022Y7223D02*
Y7264D01*
Y7305D01*
X11133Y8803D02*
X11127Y8809D01*
X11133Y8803D02*
X11178Y8758D01*
X11160Y7087D02*
X11117Y7044D01*
X11112Y7039D01*
X11074Y8778D02*
X11082Y8787D01*
X11090Y8778D01*
X11102Y8767D01*
X11110Y8758D01*
X11122Y8747D01*
X11129Y8740D01*
X11129Y8740D01*
X11130Y8739D01*
X11122Y8670D02*
X11133Y8659D01*
X11134Y8658D01*
X11146Y8646D01*
X11126Y7521D02*
X11118Y7512D01*
Y7474D02*
X11132Y7460D01*
Y7515D02*
X11126Y7521D01*
X11132Y7515D02*
X11134Y7512D01*
X11146Y7501D01*
X11029Y8378D02*
X11023Y8384D01*
X11134Y8478D02*
X11146Y8490D01*
X11134Y8478D02*
X11106Y8451D01*
X11080Y8424D01*
X11217Y8719D02*
Y7144D01*
X11146Y7501D02*
Y7512D01*
X11156Y7787D02*
Y7788D01*
X11146Y8554D02*
Y8602D01*
Y8554D02*
Y8506D01*
Y8490D01*
Y8478D01*
Y8475D01*
Y8646D02*
Y8658D01*
Y8646D02*
Y8630D01*
Y8602D01*
Y8554D02*
Y8550D01*
X11180Y8098D02*
Y7879D01*
X11170Y7488D02*
Y7476D01*
Y7460D01*
Y7408D01*
X11162Y7149D02*
Y7089D01*
X11196Y8740D02*
X11178Y8758D01*
X11196Y8740D02*
X11208Y8728D01*
X11217Y8719D01*
Y7144D02*
X11162Y7089D01*
X11160Y7087D01*
X11146Y8630D02*
X11154Y8638D01*
X11147Y8644D02*
X11146Y8646D01*
X11147Y8644D02*
X11154Y8638D01*
X11179Y7468D02*
X11170Y7460D01*
X11159Y7488D02*
X11146Y7501D01*
X11159Y7488D02*
X11170Y7476D01*
X11173Y7474D01*
X11179Y7468D01*
X11154Y8498D02*
X11146Y8506D01*
X11154Y8498D02*
X11146Y8490D01*
X11180Y7879D02*
X11180Y7876D01*
X11179Y7873D01*
X11178Y7870D01*
X11177Y7868D01*
X11175Y7865D01*
X11173Y7863D01*
X11171Y7861D01*
X11168Y7859D01*
X11166Y7858D01*
X11163Y7857D01*
X11160Y7856D01*
X11157Y7856D01*
X10074Y8376D02*
X10072Y8376D01*
X10069Y8377D01*
X10066Y8377D01*
X10074Y8376D02*
X10077Y8374D01*
X10080Y8372D01*
X10082Y8370D01*
X10084Y8368D01*
X10086Y8365D01*
X10088Y8362D01*
X10088Y8360D01*
X10089Y8357D01*
X10089Y8354D01*
X10089Y8351D01*
X10088Y8348D01*
X10088Y8346D01*
X11157Y7856D02*
X11160Y7856D01*
X11163Y7857D01*
X11166Y7858D01*
X11168Y7859D01*
X11171Y7861D01*
X11173Y7863D01*
X11175Y7865D01*
X11177Y7868D01*
X11178Y7870D01*
X11179Y7873D01*
X11180Y7876D01*
X11180Y7879D01*
X8900Y8377D02*
X8897Y8379D01*
X8894Y8380D01*
X8890Y8381D01*
X8887Y8381D01*
X8883Y8381D01*
X8880Y8380D01*
X8876Y8379D01*
X8873Y8378D01*
X8870Y8376D01*
X8867Y8374D01*
X8865Y8371D01*
X8863Y8369D01*
X8861Y8365D01*
X8860Y8362D01*
X8859Y8359D01*
X8858Y8355D01*
X8858Y8352D01*
X8858Y8348D01*
X8838Y8277D02*
X8836Y8280D01*
X8835Y8283D01*
X8833Y8285D01*
X8831Y8288D01*
X8828Y8290D01*
X8826Y8292D01*
X8823Y8293D01*
X8820Y8295D01*
X8817Y8295D01*
X8813Y8296D01*
X8810Y8296D01*
X8807Y8296D01*
X8804Y8295D01*
X8801Y8294D01*
X8798Y8293D01*
X8795Y8291D01*
X8792Y8289D01*
X8790Y8286D01*
X8788Y8284D01*
X8786Y8281D01*
X8785Y8278D01*
X9123Y8601D02*
X9124Y8604D01*
X9125Y8608D01*
X9126Y8611D01*
X9128Y8614D01*
X9130Y8617D01*
X9133Y8619D01*
X9136Y8621D01*
X9139Y8623D01*
X9142Y8624D01*
X9145Y8625D01*
X9149Y8626D01*
X9152Y8626D01*
X9156Y8626D01*
X9159Y8625D01*
X9162Y8624D01*
X9166Y8622D01*
X9168Y8620D01*
X9171Y8618D01*
X9123Y8601D02*
X9120Y8600D01*
X9117Y8600D01*
X9114Y8598D01*
X9111Y8597D01*
X9109Y8595D01*
X9107Y8593D01*
X9104Y8591D01*
X9103Y8588D01*
X9101Y8586D01*
X9100Y8583D01*
X9099Y8580D01*
X9098Y8577D01*
X9098Y8574D01*
X9098Y8571D01*
X9099Y8568D01*
X9091Y8278D02*
X9094Y8276D01*
X9097Y8274D01*
X9100Y8272D01*
X9104Y8271D01*
X9107Y8270D01*
X9111Y8270D01*
X9115Y8270D01*
X9118Y8271D01*
X9122Y8272D01*
X9125Y8274D01*
X9128Y8276D01*
X9131Y8278D01*
X9091D02*
X9089Y8280D01*
X9088Y8282D01*
X9086Y8284D01*
X9085Y8287D01*
X9084Y8291D01*
X9083Y8294D01*
X9083Y8297D01*
X9083Y8300D01*
X9084Y8304D01*
X9081D02*
X9078Y8301D01*
X9076Y8299D01*
X9072Y8297D01*
X9069Y8296D01*
X9066Y8295D01*
X9062Y8295D01*
X9059Y8295D01*
X9055Y8296D01*
X9052Y8297D01*
X9048Y8298D01*
X9045Y8300D01*
X9043Y8302D01*
X9040Y8304D01*
X9038Y8307D01*
X9036Y8310D01*
X9035Y8314D01*
X9034Y8317D01*
X9033Y8320D01*
X9033Y8324D01*
X9033Y8328D01*
X9034Y8331D01*
X9018Y8551D02*
X9019Y8554D01*
X9020Y8558D01*
X9021Y8561D01*
X9023Y8564D01*
X9025Y8567D01*
X9028Y8569D01*
X9031Y8571D01*
X9034Y8573D01*
X9037Y8574D01*
X9040Y8575D01*
X9044Y8576D01*
X9047Y8576D01*
X9051Y8576D01*
X9054Y8575D01*
X9057Y8574D01*
X9061Y8572D01*
X9063Y8570D01*
X9066Y8568D01*
X9018Y8551D02*
X9015Y8550D01*
X9012Y8549D01*
X9009Y8548D01*
X9006Y8546D01*
X9003Y8544D01*
X9000Y8542D01*
X8998Y8539D01*
X8997Y8537D01*
X8995Y8534D01*
X8994Y8530D01*
X8993Y8527D01*
X8993Y8524D01*
X8993Y8520D01*
X8994Y8517D01*
X8995Y8514D01*
X8996Y8511D01*
X8997Y8508D01*
X8999Y8505D01*
X9002Y8503D01*
X9004Y8501D01*
X9007Y8499D01*
X9010Y8497D01*
X9013Y8496D01*
X9016Y8495D01*
X9154Y7878D02*
X9154Y7875D01*
X9153Y7872D01*
X9152Y7869D01*
X9151Y7866D01*
X9150Y7863D01*
X9148Y7860D01*
X9146Y7858D01*
X9143Y7856D01*
X9141Y7854D01*
X9138Y7853D01*
X9135Y7851D01*
X9132Y7851D01*
X9129Y7850D01*
X9126Y7850D01*
X9123Y7850D01*
X9119Y7851D01*
X9116Y7852D01*
X9114Y7853D01*
X9111Y7854D01*
X9108Y7856D01*
X9106Y7858D01*
Y7898D02*
X9108Y7900D01*
X9111Y7902D01*
X9114Y7903D01*
X9116Y7904D01*
X9119Y7905D01*
X9123Y7906D01*
X9126Y7906D01*
X9129Y7906D01*
X9132Y7905D01*
X9135Y7905D01*
X9138Y7903D01*
X9141Y7902D01*
X9143Y7900D01*
X9146Y7898D01*
X9148Y7896D01*
X9150Y7893D01*
X9151Y7890D01*
X9152Y7887D01*
X9153Y7884D01*
X9154Y7881D01*
X9154Y7878D01*
X9129Y7823D02*
X9129Y7820D01*
X9128Y7817D01*
X9127Y7814D01*
X9126Y7811D01*
X9125Y7808D01*
X9123Y7805D01*
X9121Y7803D01*
X9118Y7801D01*
X9116Y7799D01*
X9113Y7798D01*
X9110Y7796D01*
X9107Y7796D01*
X9104Y7795D01*
X9101Y7795D01*
X9098Y7795D01*
X9094Y7796D01*
X9091Y7797D01*
X9089Y7798D01*
X9086Y7799D01*
X9083Y7801D01*
X9081Y7804D01*
Y7842D02*
X9083Y7845D01*
X9086Y7847D01*
X9089Y7848D01*
X9091Y7849D01*
X9094Y7850D01*
X9098Y7851D01*
X9101Y7851D01*
X9104Y7851D01*
X9107Y7850D01*
X9110Y7850D01*
X9113Y7848D01*
X9116Y7847D01*
X9118Y7845D01*
X9121Y7843D01*
X9123Y7841D01*
X9125Y7838D01*
X9126Y7835D01*
X9127Y7832D01*
X9128Y7829D01*
X9129Y7826D01*
X9129Y7823D01*
X9079Y7848D02*
X9079Y7852D01*
X9078Y7855D01*
X9077Y7858D01*
X9162Y8680D02*
X9160Y8677D01*
X9157Y8675D01*
X9154Y8674D01*
X9151Y8672D01*
X9147Y8671D01*
X9144Y8671D01*
X9140Y8671D01*
X9137Y8671D01*
X9134Y8672D01*
X9131Y8673D01*
X9127Y8675D01*
X9125Y8677D01*
X9122Y8679D01*
X9120Y8682D01*
X9118Y8685D01*
X9116Y8688D01*
X9115Y8691D01*
X9114Y8694D01*
X9114Y8698D01*
X9114Y8701D01*
X9115Y8704D01*
X9057D02*
X9055Y8702D01*
X9052Y8700D01*
X9049Y8699D01*
X9046Y8697D01*
X9042Y8697D01*
X9039Y8696D01*
X9036Y8696D01*
X9032Y8696D01*
X9029Y8697D01*
X9026Y8698D01*
X9023Y8700D01*
X9020Y8702D01*
X9017Y8704D01*
X9015Y8707D01*
X9013Y8709D01*
X9011Y8712D01*
X9010Y8716D01*
X9009Y8719D01*
X9009Y8722D01*
Y8726D01*
X9009Y8729D01*
X9010Y8732D01*
X9011Y8736D01*
X9013Y8739D01*
X9015Y8741D01*
X9017Y8744D01*
X9020Y8746D01*
X9023Y8748D01*
X9026Y8750D01*
X9029Y8751D01*
X9032Y8752D01*
X9036Y8752D01*
X9039Y8752D01*
X9042Y8751D01*
X9046Y8751D01*
X9049Y8749D01*
X9052Y8748D01*
X9055Y8746D01*
X9057Y8744D01*
X9020Y8304D02*
X9020Y8301D01*
X9019Y8298D01*
X9018Y8295D01*
X9017Y8292D01*
X9016Y8289D01*
X9014Y8286D01*
X9012Y8284D01*
X9009Y8282D01*
X9007Y8280D01*
X9004Y8279D01*
X9001Y8277D01*
X8998Y8277D01*
X8995Y8276D01*
X8992Y8276D01*
X8989Y8276D01*
X8985Y8277D01*
X8982Y8278D01*
X8980Y8279D01*
X8977Y8280D01*
X8974Y8282D01*
X8972Y8284D01*
X9020Y8304D02*
X9020Y8307D01*
X9019Y8310D01*
X9019Y8313D01*
X9017Y8316D01*
X9016Y8318D01*
X9014Y8321D01*
X9012Y8323D01*
X9010Y8325D01*
X9008Y8327D01*
X9005Y8329D01*
X9002Y8330D01*
X8999Y8331D01*
X9221Y8278D02*
X9223Y8276D01*
X9226Y8275D01*
X9228Y8273D01*
X9231Y8272D01*
X9234Y8271D01*
X9237Y8270D01*
X9240Y8270D01*
X9243Y8270D01*
X9246Y8270D01*
X9249Y8271D01*
X9252Y8272D01*
X9254Y8273D01*
X9304Y8253D02*
X9304Y8250D01*
X9303Y8247D01*
X9302Y8243D01*
X9301Y8240D01*
X9299Y8238D01*
X9298Y8235D01*
X9294Y8232D02*
X9291Y8230D01*
X9289Y8228D01*
X9286Y8227D01*
X9282Y8226D01*
X9279Y8225D01*
X9276Y8225D01*
X9273Y8225D01*
X9270Y8226D01*
X9266Y8227D01*
X9263Y8228D01*
X9261Y8230D01*
X9258Y8232D01*
X9254Y8235D02*
X9253Y8238D01*
X9251Y8240D01*
X9250Y8243D01*
X9249Y8247D01*
X9248Y8250D01*
X9248Y8253D01*
X9248Y8256D01*
X9249Y8259D01*
X9250Y8263D01*
X9251Y8266D01*
X9253Y8268D01*
X9254Y8271D01*
X9298D02*
X9299Y8268D01*
X9301Y8266D01*
X9302Y8263D01*
X9303Y8259D01*
X9304Y8256D01*
X9304Y8253D01*
X9302Y7748D02*
X9300Y7744D01*
X9299Y7741D01*
X9298Y7738D01*
X9298Y7734D01*
X9298Y7731D01*
X9299Y7728D01*
X9299Y7724D01*
X9301Y7721D01*
X9302Y7718D01*
X9304Y7715D01*
X9307Y7713D01*
X9309Y7711D01*
X9312Y7709D01*
X9315Y7707D01*
X9318Y7706D01*
X9322Y7705D01*
X9325Y7705D01*
X9329Y7705D01*
X9332Y7706D01*
X9335Y7707D01*
X9339Y7708D01*
X9342Y7710D01*
X9344Y7712D01*
X9347Y7714D01*
X9349Y7717D01*
X9351Y7720D01*
X9352Y7723D01*
X9353Y7726D01*
X9354Y7730D01*
X9354Y7733D01*
X9354Y7736D01*
X9354Y7738D01*
X9353Y7741D01*
X9352Y7743D01*
X9351Y7745D01*
X9350Y7748D01*
X9313Y7858D02*
X9313Y7862D01*
X9313Y7865D01*
X9314Y7868D01*
X9314Y7872D01*
X9316Y7875D01*
X9317Y7878D01*
X9394Y8046D02*
X9395Y8049D01*
X9397Y8051D01*
X9398Y8054D01*
X9398Y8057D01*
X9399Y8060D01*
X9399Y8063D01*
X9399Y8066D01*
X9398Y8070D01*
X9397Y8073D01*
X9396Y8076D01*
X9394Y8079D01*
X9392Y8082D01*
X9214Y7898D02*
X9214Y7895D01*
X9213Y7891D01*
X9212Y7888D01*
X9211Y7885D01*
X9209Y7882D01*
X9207Y7880D01*
X9205Y7877D01*
X9203Y7875D01*
X9200Y7874D01*
X9197Y7872D01*
X9194Y7871D01*
X9190Y7870D01*
X9187Y7870D01*
X9184Y7870D01*
X9181Y7871D01*
X9177Y7871D01*
X9174Y7873D01*
X9171Y7874D01*
X9169Y7876D01*
X9166Y7878D01*
X9164Y7881D01*
X9162Y7883D01*
X9161Y7886D01*
X9159Y7889D01*
X9159Y7892D01*
X9158Y7896D01*
X9158Y7899D01*
X9158Y7902D01*
X9159Y7905D01*
X9160Y7908D01*
X9301Y8340D02*
X9303Y8345D01*
X9305Y8349D01*
X9305Y8354D01*
X9296Y8374D02*
X9294Y8376D01*
X9291Y8378D01*
X9289Y8379D01*
X9286Y8381D01*
X9283Y8381D01*
X9280Y8382D01*
X9277Y8382D01*
X9274Y8382D01*
X9271Y8381D01*
X9269Y8381D01*
X9266Y8380D01*
X9263Y8378D01*
X9298Y8373D02*
X9300Y8370D01*
X9302Y8367D01*
X9303Y8364D01*
X9304Y8361D01*
X9305Y8357D01*
X9305Y8354D01*
X9302Y8484D02*
X9300Y8487D01*
X9298Y8489D01*
X9296Y8493D01*
X9295Y8496D01*
X9294Y8499D01*
X9294Y8503D01*
X9294Y8507D01*
X9295Y8510D01*
X9296Y8514D01*
X9393Y8456D02*
X9395Y8457D01*
X9398Y8458D01*
X9400Y8459D01*
X9402Y8460D01*
X9404Y8462D01*
X9406Y8464D01*
X9509Y8379D02*
X9506Y8380D01*
X9503Y8381D01*
X9500Y8382D01*
X9497Y8382D01*
X9493Y8382D01*
X9490Y8381D01*
X9487Y8380D01*
X9484Y8379D01*
X9481Y8377D01*
X9478Y8375D01*
X9476Y8373D01*
X9474Y8370D01*
X9472Y8367D01*
X9471Y8364D01*
X9470Y8361D01*
X9469Y8358D01*
X9469Y8354D01*
X9469Y8351D01*
X9470Y8348D01*
X9471Y8345D01*
X9472Y8342D01*
X9659Y7718D02*
X9659Y7714D01*
X9658Y7711D01*
X9657Y7708D01*
X9655Y7704D01*
X9653Y7701D01*
X9651Y7699D01*
X9649Y7696D01*
X9646Y7694D01*
X9642Y7692D01*
X9639Y7691D01*
X9636Y7690D01*
X9632Y7690D01*
X9628Y7690D01*
X9625Y7691D01*
X9622Y7692D01*
X9679Y7959D02*
X9679Y7962D01*
X9680Y7966D01*
X9681Y7969D01*
X9682Y7972D01*
X9684Y7975D01*
X9686Y7978D01*
X9689Y7980D01*
X9692Y7982D01*
X9695Y7984D01*
X9698Y7985D01*
X9701Y7986D01*
X9705Y7987D01*
X9708Y7987D01*
X9712Y7987D01*
X9715Y7986D01*
X9719Y7985D01*
X9722Y7983D01*
X9724Y7981D01*
X9727Y7983D01*
X9730Y7984D01*
X9733Y7985D01*
X9735Y7986D01*
X9738Y7987D01*
X9742Y7987D01*
X9745Y7987D01*
X9748Y7986D01*
X9751Y7986D01*
X9754Y7985D01*
X9756Y7983D01*
X9759Y7981D01*
X9761Y7979D01*
X9763Y7977D01*
X9765Y7975D01*
X9671Y8331D02*
X9674Y8329D01*
X9677Y8328D01*
X9680Y8327D01*
X9684Y8326D01*
X9687Y8326D01*
X9690Y8326D01*
X9694Y8327D01*
X9697Y8328D01*
X9700Y8329D01*
X9703Y8331D01*
X9706Y8333D01*
X9708Y8335D01*
X9710Y8338D01*
X9712Y8341D01*
X9713Y8344D01*
X9714Y8347D01*
X9715Y8351D01*
X9715Y8354D01*
X9715Y8357D01*
X9714Y8361D01*
X9713Y8364D01*
X9712Y8367D01*
X9710Y8370D01*
X9708Y8373D01*
X9706Y8375D01*
X9703Y8377D01*
X9700Y8379D01*
X9697Y8380D01*
X9694Y8381D01*
X9690Y8382D01*
X9687Y8382D01*
X9684Y8382D01*
X9680Y8381D01*
X9677Y8380D01*
X9674Y8379D01*
X9671Y8377D01*
X9718Y8434D02*
X9715Y8437D01*
X9713Y8439D01*
X9711Y8443D01*
X9710Y8446D01*
X9709Y8449D01*
X9709Y8453D01*
X9709Y8457D01*
X9710Y8460D01*
X9711Y8464D01*
X9717Y8680D02*
X9719Y8677D01*
X9722Y8675D01*
X9725Y8674D01*
X9727Y8673D01*
X9730Y8672D01*
X9734Y8671D01*
X9737Y8671D01*
X9740Y8671D01*
X9743Y8672D01*
X9746Y8672D01*
X9749Y8674D01*
X9752Y8675D01*
X9754Y8677D01*
X9757Y8679D01*
X9759Y8681D01*
X9761Y8684D01*
X9762Y8687D01*
X9763Y8690D01*
X9764Y8693D01*
X9765Y8696D01*
X9765Y8699D01*
X9946Y8554D02*
X9949Y8551D01*
X9952Y8549D01*
X9955Y8547D01*
X9958Y8546D01*
X9962Y8545D01*
X9965Y8545D01*
X9969Y8545D01*
X9972Y8546D01*
X9976Y8547D01*
X9979Y8548D01*
X9982Y8550D01*
X9985Y8552D01*
X9987Y8555D01*
X9989Y8558D01*
X9991Y8561D01*
X9993Y8564D01*
X9993Y8568D01*
X9994Y8571D01*
X9914Y8533D02*
X9914Y8537D01*
X9913Y8541D01*
X9912Y8544D01*
X9910Y8548D01*
X9908Y8551D01*
X9905Y8554D01*
X9802Y7931D02*
X9804Y7929D01*
X9807Y7927D01*
X9809Y7924D01*
X9811Y7921D01*
X9812Y7918D01*
X9813Y7914D01*
X9806Y7934D02*
X9808Y7931D01*
X9811Y7929D01*
X9814Y7928D01*
X9816Y7927D01*
X9819Y7926D01*
X9823Y7925D01*
X9826Y7925D01*
X9829Y7925D01*
X9832Y7926D01*
X9835Y7926D01*
X9838Y7928D01*
X9841Y7929D01*
X9843Y7931D01*
X9846Y7933D01*
X9848Y7935D01*
X9850Y7938D01*
X9851Y7941D01*
X9852Y7944D01*
X9853Y7947D01*
X9854Y7950D01*
X9854Y7953D01*
X9854Y7956D01*
X9853Y7960D01*
X9852Y7963D01*
X9851Y7966D01*
X9849Y7969D01*
X9847Y7972D01*
X9844Y7974D01*
X9842Y7976D01*
X9839Y7978D01*
X9836Y7979D01*
X9832Y7980D01*
X9829Y7981D01*
X9796Y8006D02*
X9792Y8005D01*
X9789Y8003D01*
X9786Y8001D01*
X9783Y7999D01*
X9780Y7996D01*
X9778Y7993D01*
X9776Y7990D01*
X9774Y7987D01*
X9773Y7983D01*
X9796Y8006D02*
X9799Y8006D01*
X9803D01*
X9806Y8006D01*
X9810Y8005D01*
X9813Y8003D01*
X9816Y8001D01*
X9819Y7999D01*
X9822Y7996D01*
X9824Y7993D01*
X9826Y7990D01*
X9828Y7987D01*
X9829Y7983D01*
X9938Y8331D02*
X9935Y8329D01*
X9932Y8328D01*
X9929Y8327D01*
X9925Y8326D01*
X9922Y8326D01*
X9919Y8326D01*
X9915Y8327D01*
X9912Y8328D01*
X9909Y8329D01*
X9906Y8331D01*
X9903Y8333D01*
X9901Y8335D01*
X9899Y8338D01*
X9897Y8341D01*
X9896Y8344D01*
X9895Y8347D01*
X9894Y8351D01*
X9894Y8354D01*
X9894Y8357D01*
X9895Y8361D01*
X9896Y8364D01*
X9897Y8367D01*
X9899Y8370D01*
X9901Y8373D01*
X9903Y8375D01*
X9906Y8377D01*
X9909Y8379D01*
X9912Y8380D01*
X9915Y8381D01*
X9919Y8382D01*
X9922Y8382D01*
X9925Y8382D01*
X9929Y8381D01*
X9932Y8380D01*
X9935Y8379D01*
X9938Y8377D01*
X9856Y8434D02*
X9859Y8437D01*
X9861Y8440D01*
X9863Y8443D01*
X9864Y8447D01*
X9865Y8450D01*
X9865Y8454D01*
X9865Y8457D01*
X9864Y8460D01*
X9863Y8464D01*
X9817Y8704D02*
X9819Y8702D01*
X9822Y8700D01*
X9825Y8699D01*
X9827Y8698D01*
X9830Y8697D01*
X9834Y8696D01*
X9837Y8696D01*
X9840Y8696D01*
X9843Y8697D01*
X9846Y8697D01*
X9849Y8699D01*
X9852Y8700D01*
X9854Y8702D01*
X9857Y8704D01*
X9859Y8706D01*
X9861Y8709D01*
X9862Y8712D01*
X9863Y8715D01*
X9864Y8718D01*
X9865Y8721D01*
X9865Y8724D01*
X9865Y8727D01*
X9864Y8730D01*
X9863Y8733D01*
X9862Y8736D01*
X9861Y8739D01*
X9859Y8742D01*
X9857Y8744D01*
X9854Y8746D01*
X9852Y8748D01*
X9849Y8749D01*
X9846Y8751D01*
X9843Y8751D01*
X9840Y8752D01*
X9837Y8752D01*
X9834Y8752D01*
X9830Y8751D01*
X9827Y8750D01*
X9825Y8749D01*
X9822Y8748D01*
X9819Y8746D01*
X9817Y8744D01*
X10094Y8218D02*
X10094Y8215D01*
X10093Y8212D01*
X10092Y8208D01*
X10091Y8205D01*
X10089Y8203D01*
X10088Y8200D01*
X10084Y8196D02*
X10081Y8195D01*
X10079Y8193D01*
X10076Y8192D01*
X10072Y8191D01*
X10069Y8190D01*
X10066Y8190D01*
X10063Y8190D01*
X10060Y8191D01*
X10056Y8192D01*
X10053Y8193D01*
X10051Y8195D01*
X10048Y8196D01*
X10044Y8200D02*
X10043Y8203D01*
X10041Y8205D01*
X10040Y8208D01*
X10039Y8212D01*
X10038Y8215D01*
X10038Y8218D01*
X10038Y8221D01*
X10039Y8224D01*
X10040Y8228D01*
X10041Y8231D01*
X10043Y8233D01*
X10044Y8236D01*
X10088D02*
X10089Y8233D01*
X10091Y8231D01*
X10092Y8228D01*
X10093Y8224D01*
X10094Y8221D01*
X10094Y8218D01*
X9994Y8571D02*
X9997Y8572D01*
X9999Y8573D01*
X10002Y8575D01*
X10004Y8577D01*
X10007Y8579D01*
X10008Y8581D01*
X10010Y8584D01*
X10011Y8586D01*
X10013Y8589D01*
X10013Y8592D01*
X10014Y8595D01*
X10014Y8598D01*
X10014Y8601D01*
X10013Y8604D01*
X10012Y8607D01*
X10011Y8610D01*
X10010Y8613D01*
X10008Y8616D01*
X10006Y8618D01*
X10003Y8620D01*
X10001Y8622D01*
X9998Y8623D01*
X9995Y8625D01*
X9992Y8625D01*
X9989Y8626D01*
X9986Y8626D01*
X9983Y8626D01*
X9979Y8625D01*
X9976Y8624D01*
X9974Y8623D01*
X9971Y8622D01*
X9968Y8620D01*
X9966Y8618D01*
X10734Y7598D02*
X10734Y7594D01*
X10733Y7591D01*
X10732Y7587D01*
X10730Y7584D01*
X10728Y7581D01*
X10726Y7578D01*
X10734Y7598D02*
X10734Y7601D01*
X10733Y7605D01*
X10732Y7608D01*
X10731Y7611D01*
X10729Y7614D01*
X10727Y7616D01*
X10725Y7619D01*
X10722Y7621D01*
X10719Y7623D01*
X10716Y7624D01*
X10713Y7625D01*
X10710Y7626D01*
X10707Y7626D01*
X10703Y7626D01*
X10700Y7625D01*
X10697Y7624D01*
X10694Y7623D01*
X10691Y7621D01*
X10688Y7619D01*
X10686Y7617D01*
X10683Y7615D01*
X10682Y7612D01*
X10680Y7609D01*
X10679Y7606D01*
X10678Y7602D01*
X10678Y7599D01*
X10678Y7596D01*
X10679Y7592D01*
X10679Y7589D01*
X10681Y7586D01*
X10682Y7583D01*
X10684Y7580D01*
X10686Y7578D01*
X10742Y8096D02*
X10739Y8098D01*
X10735Y8099D01*
X10732Y8100D01*
X10728Y8101D01*
X10724Y8101D01*
X10720Y8100D01*
X10629Y7853D02*
X10629Y7850D01*
X10628Y7846D01*
X10627Y7843D01*
X10626Y7840D01*
X10624Y7837D01*
X10622Y7835D01*
X10620Y7832D01*
X10617Y7830D01*
X10614Y7828D01*
X10611Y7827D01*
X10608Y7826D01*
X10605Y7825D01*
X10602Y7825D01*
X10598Y7825D01*
X10595Y7826D01*
X10592Y7827D01*
X10589Y7828D01*
X10586Y7830D01*
X10583Y7832D01*
X10581Y7834D01*
X10578Y7836D01*
X10577Y7839D01*
X10575Y7842D01*
X10574Y7845D01*
X10573Y7849D01*
X10573Y7852D01*
X10573Y7855D01*
X10574Y7859D01*
X10574Y7862D01*
X10576Y7865D01*
X10577Y7868D01*
X10579Y7871D01*
X10582Y7873D01*
X10620D02*
X10623Y7870D01*
X10625Y7867D01*
X10627Y7864D01*
X10628Y7860D01*
X10629Y7857D01*
X10629Y7853D01*
X10624Y7133D02*
X10624Y7130D01*
X10623Y7127D01*
X10622Y7124D01*
X10621Y7121D01*
X10620Y7118D01*
X10618Y7115D01*
X10616Y7113D01*
X10613Y7111D01*
X10611Y7109D01*
X10608Y7108D01*
X10605Y7106D01*
X10602Y7106D01*
X10599Y7105D01*
X10596Y7105D01*
X10593Y7105D01*
X10589Y7106D01*
X10586Y7107D01*
X10584Y7108D01*
X10581Y7109D01*
X10578Y7111D01*
X10576Y7114D01*
X10624Y7133D02*
X10624Y7136D01*
X10623Y7139D01*
X10623Y7142D01*
X10622Y7144D01*
X10620Y7147D01*
X10619Y7149D01*
X10617Y7151D01*
X10615Y7154D01*
X10613Y7155D01*
X10615Y7158D01*
X10616Y7161D01*
X10617Y7164D01*
X10618Y7167D01*
X10619Y7170D01*
X10619Y7173D01*
X10619Y7176D01*
X10618Y7179D01*
X10617Y7182D01*
X10616Y7185D01*
X10615Y7188D01*
X10613Y7191D01*
X10611Y7193D01*
X10608Y7195D01*
X10606Y7197D01*
X10603Y7198D01*
X10600Y7200D01*
X10597Y7200D01*
X10594Y7201D01*
X10591Y7201D01*
X10588Y7201D01*
X10584Y7200D01*
X10581Y7199D01*
X10579Y7198D01*
X10576Y7197D01*
X10573Y7195D01*
X10571Y7192D01*
X10884Y8378D02*
X10884Y8375D01*
X10883Y8371D01*
X10882Y8368D01*
X10881Y8365D01*
X10879Y8362D01*
X10877Y8359D01*
X10875Y8357D01*
X10872Y8355D01*
X10869Y8353D01*
X10866Y8352D01*
X10863Y8351D01*
X10859Y8350D01*
X10856Y8350D01*
X10852Y8350D01*
X10849Y8351D01*
X10846Y8352D01*
X10843Y8353D01*
X10840Y8355D01*
X10837Y8357D01*
X10835Y8360D01*
X10833Y8362D01*
X10831Y8365D01*
X10830Y8368D01*
X10829Y8372D01*
X10828Y8375D01*
X10828Y8378D01*
X10828Y8382D01*
X10829Y8385D01*
X10830Y8388D01*
X10831Y8391D01*
X10833Y8394D01*
X10835Y8397D01*
X10838Y8399D01*
X10840Y8401D01*
X10843Y8403D01*
X10846Y8404D01*
X10850Y8405D01*
X10853Y8406D01*
X10856Y8406D01*
X10852Y7788D02*
X10850Y7791D01*
X10847Y7793D01*
X10844Y7794D01*
X10841Y7796D01*
X10837Y7796D01*
X10834Y7797D01*
X10831Y7797D01*
X10827Y7797D01*
X10824Y7796D01*
X10821Y7795D01*
X10818Y7793D01*
X10815Y7791D01*
X10812Y7789D01*
X10810Y7786D01*
X10808Y7784D01*
X10806Y7781D01*
X10805Y7777D01*
X10804Y7774D01*
X10804Y7771D01*
Y7767D01*
X10804Y7764D01*
X10805Y7761D01*
X10806Y7757D01*
X10808Y7754D01*
X10810Y7752D01*
X10812Y7749D01*
X10815Y7747D01*
X10818Y7745D01*
X10821Y7743D01*
X10824Y7742D01*
X10827Y7741D01*
X10831Y7741D01*
X10834Y7741D01*
X10837Y7742D01*
X10841Y7742D01*
X10844Y7744D01*
X10847Y7745D01*
X10850Y7747D01*
X10852Y7750D01*
X10972Y8740D02*
X10970Y8737D01*
X10967Y8735D01*
X10964Y8734D01*
X10961Y8732D01*
X10957Y8732D01*
X10954Y8731D01*
X10951Y8731D01*
X10947Y8731D01*
X10944Y8732D01*
X10941Y8733D01*
X10938Y8735D01*
X10935Y8737D01*
X10932Y8739D01*
X10930Y8742D01*
X10928Y8744D01*
X10926Y8747D01*
X10925Y8751D01*
X10924Y8754D01*
X10924Y8757D01*
Y8761D01*
X10924Y8764D01*
X10925Y8767D01*
X10926Y8771D01*
X10928Y8774D01*
X10930Y8776D01*
X10932Y8779D01*
X10935Y8781D01*
X10938Y8783D01*
X10941Y8785D01*
X10944Y8786D01*
X10947Y8787D01*
X10951Y8787D01*
X10954Y8787D01*
X10957Y8786D01*
X10961Y8786D01*
X10964Y8784D01*
X10967Y8783D01*
X10970Y8781D01*
X10972Y8778D01*
X11015Y8678D02*
X11015Y8674D01*
X11014Y8671D01*
X11014Y8667D01*
X11102Y8134D02*
X11104Y8136D01*
X11107Y8138D01*
X11110Y8139D01*
X11113Y8141D01*
X11116Y8141D01*
X11119Y8142D01*
X11123Y8142D01*
X11126Y8142D01*
X11129Y8141D01*
X11132Y8140D01*
X11135Y8139D01*
X11138Y8137D01*
X11048Y7902D02*
X11045Y7904D01*
X11042Y7905D01*
X11039Y7906D01*
X11035Y7907D01*
X11032Y7907D01*
X11029Y7907D01*
X11025Y7906D01*
X11022Y7905D01*
X11019Y7904D01*
X11016Y7902D01*
X11013Y7900D01*
X11011Y7898D01*
X11009Y7895D01*
X11007Y7892D01*
X11006Y7889D01*
X11005Y7886D01*
X11004Y7882D01*
X11004Y7879D01*
X11004Y7876D01*
X11005Y7872D01*
X11006Y7869D01*
X11007Y7866D01*
X11009Y7863D01*
X11011Y7860D01*
X11013Y7858D01*
X11016Y7856D01*
X11019Y7854D01*
X11022Y7853D01*
X11025Y7852D01*
X11029Y7851D01*
X11032Y7851D01*
X11035Y7851D01*
X11039Y7852D01*
X11042Y7853D01*
X11045Y7854D01*
X11048Y7856D01*
X11115Y7750D02*
X11117Y7747D01*
X11120Y7745D01*
X11122Y7743D01*
X11125Y7742D01*
X11128Y7741D01*
X11132Y7740D01*
X11135Y7740D01*
X11138Y7740D01*
X11141Y7740D01*
X11144Y7741D01*
X11147Y7742D01*
X11150Y7744D01*
X11153Y7746D01*
X11155Y7748D01*
X11158Y7750D01*
X11159Y7753D01*
X11161Y7756D01*
X11162Y7759D01*
X11163Y7762D01*
X11164Y7765D01*
X11164Y7768D01*
X11155Y7788D02*
X11152Y7791D01*
X11149Y7793D01*
X11146Y7794D01*
X11143Y7795D01*
X11139Y7796D01*
X11136Y7796D01*
X11133Y7796D01*
X11129Y7795D01*
X11126Y7794D01*
X11123Y7793D01*
X11120Y7791D01*
X11117Y7788D01*
X11156Y7787D02*
X11159Y7784D01*
X11161Y7781D01*
X11162Y7778D01*
X11163Y7775D01*
X11164Y7771D01*
X11164Y7768D01*
X11134Y8048D02*
X11131Y8047D01*
X11128Y8046D01*
X11124Y8045D01*
X11121Y8045D01*
X11118Y8045D01*
X11114Y8046D01*
X11111Y8047D01*
X11108Y8048D01*
X11105Y8050D01*
X11097D02*
X11094Y8048D01*
X11091Y8047D01*
X11088Y8046D01*
X11084Y8045D01*
X11081Y8045D01*
X11078Y8045D01*
X11074Y8046D01*
X11071Y8047D01*
X11068Y8048D01*
X11026Y7138D02*
X11024Y7140D01*
X11021Y7142D01*
X11018Y7143D01*
X11015Y7145D01*
X11011Y7145D01*
X11008Y7146D01*
X11005Y7146D01*
X11001Y7146D01*
X10998Y7145D01*
X10995Y7144D01*
X10992Y7142D01*
X10989Y7140D01*
X10986Y7138D01*
X10984Y7135D01*
X10982Y7133D01*
X10980Y7130D01*
X10979Y7126D01*
X10978Y7123D01*
X10978Y7120D01*
Y7116D01*
X10978Y7113D01*
X10979Y7110D01*
X10980Y7106D01*
X10982Y7103D01*
X10984Y7101D01*
X10986Y7098D01*
X10989Y7096D01*
X10992Y7094D01*
X10995Y7092D01*
X10998Y7091D01*
X11001Y7090D01*
X11005Y7090D01*
X11008Y7090D01*
X11011Y7091D01*
X11015Y7091D01*
X11018Y7093D01*
X11021Y7094D01*
X11024Y7096D01*
X11026Y7098D01*
X11068Y7468D02*
X11071Y7469D01*
X11074Y7471D01*
X11076Y7474D01*
X11030Y7482D02*
X11029Y7485D01*
X11028Y7489D01*
X11028Y7492D01*
X11028Y7496D01*
X11029Y7499D01*
X11030Y7503D01*
X11031Y7506D01*
X11033Y7509D01*
X11035Y7512D01*
X11051Y7521D02*
X11054Y7521D01*
X11057Y7521D01*
X11060Y7521D01*
X11063Y7520D01*
X11066Y7519D01*
X11069Y7518D01*
X11071Y7516D01*
X11074Y7515D01*
X11076Y7512D01*
X11180Y8098D02*
X11181Y8100D01*
X11183Y8103D01*
X11184Y8106D01*
X11184Y8108D01*
X11185Y8111D01*
X11185Y8114D01*
X11185Y8117D01*
X11184Y8121D01*
X11183Y8124D01*
X11182Y8127D01*
X11180Y8130D01*
X11178Y8133D01*
X11176Y8135D01*
X11173Y8137D01*
X11170Y8139D01*
X11167Y8140D01*
X11164Y8141D01*
X11160Y8142D01*
X11157Y8142D01*
X11154Y8142D01*
X11150Y8141D01*
X11147Y8140D01*
X11144Y8139D01*
X11141Y8137D01*
X11132Y7408D02*
X11129Y7406D01*
X11127Y7403D01*
X11126Y7400D01*
X11124Y7397D01*
X11124Y7394D01*
X11123Y7390D01*
X11123Y7387D01*
X11123Y7384D01*
X11124Y7380D01*
X11125Y7377D01*
X11127Y7374D01*
X11128Y7371D01*
X11131Y7369D01*
X11133Y7367D01*
X11136Y7365D01*
X11139Y7363D01*
X11142Y7362D01*
X11145Y7361D01*
X11148Y7360D01*
X11152Y7360D01*
X11155Y7360D01*
X11158Y7361D01*
X11161Y7362D01*
X11164Y7363D01*
X11167Y7365D01*
X11170Y7367D01*
X11172Y7370D01*
X11174Y7372D01*
X11176Y7375D01*
X11177Y7378D01*
X11178Y7381D01*
X11179Y7385D01*
X11179Y7388D01*
X11179Y7392D01*
X11178Y7395D01*
X11177Y7399D01*
X11175Y7402D01*
X11173Y7405D01*
X11170Y7408D01*
X10911Y8422D02*
X10908Y8424D01*
X10906Y8426D01*
X10903Y8428D01*
X10900Y8430D01*
X10898Y8432D01*
X10895Y8434D01*
X10892Y8436D01*
X10890Y8438D01*
X10887Y8440D01*
X10885Y8442D01*
X10883Y8445D01*
X10880Y8447D01*
X10878Y8450D01*
X10876Y8452D01*
X10874Y8455D01*
X10872Y8457D01*
X10870Y8460D01*
X10868Y8463D01*
X10866Y8465D01*
X10864Y8468D01*
X10863Y8471D01*
X10861Y8474D01*
X10860Y8477D01*
X10858Y8480D01*
X10857Y8483D01*
X10855Y8486D01*
X10854Y8489D01*
X10853Y8492D01*
X10852Y8495D01*
X10851Y8498D01*
X10850Y8501D01*
X10849Y8504D01*
X10848Y8508D01*
X10848Y8511D01*
X10847Y8514D01*
X10846Y8517D01*
X10846Y8520D01*
X10845Y8524D01*
X10845Y8527D01*
X10845Y8530D01*
X10845Y8534D01*
X10845Y8537D01*
X10845Y8540D01*
X10845Y8544D01*
X10845Y8547D01*
X10845Y8550D01*
X10846Y8553D01*
X10846Y8557D01*
X10846Y8560D01*
X10847Y8563D01*
X10848Y8566D01*
X10848Y8570D01*
X10849Y8573D01*
X10850Y8576D01*
X10851Y8579D01*
X10852Y8582D01*
X10853Y8585D01*
X10855Y8588D01*
X10856Y8591D01*
X10857Y8594D01*
X10859Y8597D01*
X10860Y8600D01*
X10862Y8603D01*
X10863Y8606D01*
X10865Y8609D01*
X10867Y8612D01*
X10869Y8614D01*
X10871Y8617D01*
X10873Y8620D01*
X10875Y8622D01*
X10877Y8625D01*
X10879Y8627D01*
X10881Y8630D01*
X10883Y8632D01*
X10886Y8634D01*
X10888Y8637D01*
X10891Y8639D01*
X10893Y8641D01*
X10896Y8643D01*
X10898Y8645D01*
X10901Y8647D01*
X10904Y8649D01*
X10906Y8651D01*
X10909Y8652D01*
X10912Y8654D01*
X10915Y8656D01*
X10918Y8657D01*
X10921Y8659D01*
X10924Y8660D01*
X10927Y8661D01*
X10930Y8663D01*
X10933Y8664D01*
X10936Y8665D01*
X10939Y8666D01*
X10942Y8667D01*
X10946Y8668D01*
X10949Y8668D01*
X10952Y8669D01*
X10955Y8670D01*
X10959Y8670D01*
X10962Y8671D01*
X10965Y8671D01*
X10968Y8671D01*
X10972Y8672D01*
X10975Y8672D01*
X10978Y8672D01*
X10982Y8672D01*
X10985Y8672D01*
X10988Y8671D01*
X10991Y8671D01*
X10995Y8671D01*
X10998Y8670D01*
X11001Y8670D01*
X11004Y8669D01*
X11008Y8668D01*
X11011Y8668D01*
X11014Y8667D01*
X8828Y7633D02*
X8828Y7629D01*
X8828Y7626D01*
X8828Y7623D01*
X8828Y7619D01*
X8827Y7616D01*
X8827Y7613D01*
X8826Y7610D01*
X8826Y7606D01*
X8825Y7603D01*
X8824Y7600D01*
X8824Y7597D01*
X8823Y7594D01*
X8822Y7590D01*
X8821Y7587D01*
X8819Y7584D01*
X8818Y7581D01*
X8817Y7578D01*
X8815Y7575D01*
X8814Y7572D01*
X8813Y7569D01*
X8811Y7566D01*
X8809Y7564D01*
X8808Y7561D01*
X8806Y7558D01*
X8804Y7555D01*
X8802Y7553D01*
X8800Y7550D01*
X8798Y7547D01*
X8796Y7545D01*
X8794Y7543D01*
X8791Y7540D01*
X8789Y7538D01*
X8787Y7535D01*
X8784Y7533D01*
X8782Y7531D01*
X8779Y7529D01*
X8777Y7527D01*
X8774Y7525D01*
X8771Y7523D01*
X8769Y7521D01*
X8766Y7519D01*
X8763Y7518D01*
X8760Y7516D01*
X8757Y7514D01*
X8754Y7513D01*
X8751Y7511D01*
X8748Y7510D01*
X8745Y7509D01*
X8742Y7508D01*
X8739Y7507D01*
X8736Y7505D01*
X8733Y7504D01*
X8730Y7504D01*
X8726Y7503D01*
X8723Y7502D01*
X8720Y7501D01*
X8717Y7501D01*
X8714Y7500D01*
X8710Y7500D01*
X8707Y7500D01*
X8704Y7499D01*
X8700Y7499D01*
X8697Y7499D01*
X8694Y7499D01*
X8691Y7499D01*
X8687Y7499D01*
X8684Y7499D01*
X8681Y7500D01*
X8677Y7500D01*
X8674Y7501D01*
X8671Y7501D01*
X8668Y7502D01*
X8664Y7502D01*
X8661Y7503D01*
X8658Y7504D01*
X8655Y7505D01*
X8652Y7506D01*
X8649Y7507D01*
X8646Y7508D01*
X8643Y7510D01*
X8640Y7511D01*
X8637Y7512D01*
X8634Y7514D01*
X8631Y7515D01*
X8628Y7517D01*
X8625Y7519D01*
X8622Y7520D01*
X8619Y7522D01*
X8617Y7524D01*
X8614Y7526D01*
X8612Y7528D01*
X8609Y7530D01*
X8606Y7532D01*
X8604Y7535D01*
X8602Y7537D01*
X8599Y7539D01*
X8597Y7542D01*
X8595Y7544D01*
X8593Y7546D01*
X8591Y7549D01*
X8589Y7552D01*
X8587Y7554D01*
X8585Y7557D01*
X8583Y7560D01*
X8581Y7562D01*
X8579Y7565D01*
X8578Y7568D01*
X8576Y7571D01*
X8575Y7574D01*
X8573Y7577D01*
X8572Y7580D01*
Y7685D02*
X8573Y7688D01*
X8575Y7691D01*
X8576Y7694D01*
X8578Y7697D01*
X8579Y7700D01*
X8581Y7703D01*
X8583Y7705D01*
X8585Y7708D01*
X8587Y7711D01*
X8589Y7714D01*
X8591Y7716D01*
X8593Y7719D01*
X8595Y7721D01*
X8597Y7724D01*
X8599Y7726D01*
X8602Y7728D01*
X8604Y7731D01*
X8606Y7733D01*
X8609Y7735D01*
X8612Y7737D01*
X8614Y7739D01*
X8617Y7741D01*
X8619Y7743D01*
X8622Y7745D01*
X8625Y7746D01*
X8628Y7748D01*
X8631Y7750D01*
X8634Y7751D01*
X8637Y7753D01*
X8640Y7754D01*
X8643Y7756D01*
X8646Y7757D01*
X8649Y7758D01*
X8652Y7759D01*
X8655Y7760D01*
X8658Y7761D01*
X8661Y7762D01*
X8664Y7763D01*
X8668Y7763D01*
X8671Y7764D01*
X8674Y7765D01*
X8677Y7765D01*
X8681Y7765D01*
X8684Y7766D01*
X8687Y7766D01*
X8691Y7766D01*
X8694Y7766D01*
X8697Y7766D01*
X8700Y7766D01*
X8704Y7766D01*
X8707Y7766D01*
X8710Y7765D01*
X8714Y7765D01*
X8717Y7764D01*
X8720Y7764D01*
X8723Y7763D01*
X8726Y7762D01*
X8730Y7762D01*
X8733Y7761D01*
X8736Y7760D01*
X8739Y7759D01*
X8742Y7757D01*
X8745Y7756D01*
X8748Y7755D01*
X8751Y7754D01*
X8754Y7752D01*
X8757Y7751D01*
X8760Y7749D01*
X8763Y7747D01*
X8766Y7746D01*
X8769Y7744D01*
X8771Y7742D01*
X8774Y7740D01*
X8777Y7738D01*
X8779Y7736D01*
X8782Y7734D01*
X8784Y7732D01*
X8787Y7730D01*
X8789Y7727D01*
X8791Y7725D01*
X8794Y7723D01*
X8796Y7720D01*
X8798Y7718D01*
X8800Y7715D01*
X8802Y7712D01*
X8804Y7710D01*
X8806Y7707D01*
X8808Y7704D01*
X8809Y7702D01*
X8811Y7699D01*
X8813Y7696D01*
X8814Y7693D01*
X8815Y7690D01*
X8817Y7687D01*
X8818Y7684D01*
X8819Y7681D01*
X8821Y7678D01*
X8822Y7675D01*
X8823Y7672D01*
X8824Y7668D01*
X8824Y7665D01*
X8825Y7662D01*
X8826Y7659D01*
X8826Y7656D01*
X8827Y7652D01*
X8827Y7649D01*
X8828Y7646D01*
X8828Y7642D01*
X8828Y7639D01*
X8828Y7636D01*
X8828Y7633D01*
X8572Y8485D02*
X8573Y8482D01*
X8575Y8479D01*
X8576Y8477D01*
X8578Y8474D01*
X8579Y8471D01*
X8581Y8468D01*
X8583Y8465D01*
X8585Y8462D01*
X8587Y8460D01*
X8589Y8457D01*
X8591Y8454D01*
X8593Y8452D01*
X8595Y8449D01*
X8597Y8447D01*
X8599Y8445D01*
X8602Y8442D01*
X8604Y8440D01*
X8606Y8438D01*
X8609Y8436D01*
X8612Y8434D01*
X8614Y8432D01*
X8617Y8430D01*
X8619Y8428D01*
X8622Y8426D01*
X8625Y8424D01*
X8628Y8422D01*
X8631Y8421D01*
X8634Y8419D01*
X8637Y8418D01*
X8640Y8416D01*
X8643Y8415D01*
X8646Y8414D01*
X8649Y8413D01*
X8652Y8412D01*
X8655Y8411D01*
X8658Y8410D01*
X8661Y8409D01*
X8664Y8408D01*
X8668Y8407D01*
X8671Y8407D01*
X8674Y8406D01*
X8677Y8406D01*
X8681Y8405D01*
X8684Y8405D01*
X8687Y8405D01*
X8691Y8405D01*
X8694Y8404D01*
X8697Y8404D01*
X8700Y8405D01*
X8704Y8405D01*
X8707Y8405D01*
X8710Y8405D01*
X8714Y8406D01*
X8717Y8406D01*
X8720Y8407D01*
X8723Y8408D01*
X8726Y8408D01*
X8730Y8409D01*
X8733Y8410D01*
X8736Y8411D01*
X8739Y8412D01*
X8742Y8413D01*
X8745Y8414D01*
X8748Y8416D01*
X8751Y8417D01*
X8754Y8418D01*
X8757Y8420D01*
X8760Y8422D01*
X8763Y8423D01*
X8766Y8425D01*
X8769Y8427D01*
X8771Y8429D01*
X8774Y8430D01*
X8777Y8432D01*
X8779Y8434D01*
X8782Y8437D01*
X8784Y8439D01*
X8787Y8441D01*
X8789Y8443D01*
X8791Y8446D01*
X8794Y8448D01*
X8796Y8450D01*
X8798Y8453D01*
X8800Y8456D01*
X8802Y8458D01*
X8804Y8461D01*
X8806Y8464D01*
X8808Y8466D01*
X8809Y8469D01*
X8811Y8472D01*
X8813Y8475D01*
X8814Y8478D01*
X8815Y8481D01*
X8817Y8484D01*
X8818Y8487D01*
X8819Y8490D01*
X8821Y8493D01*
X8822Y8496D01*
X8823Y8499D01*
X8824Y8502D01*
X8824Y8505D01*
X8825Y8509D01*
X8826Y8512D01*
X8826Y8515D01*
X8827Y8518D01*
X8827Y8522D01*
X8828Y8525D01*
X8828Y8528D01*
X8828Y8531D01*
X8828Y8535D01*
X8828Y8538D01*
X8828Y8541D01*
X8828Y8545D01*
X8828Y8548D01*
X8828Y8551D01*
X8827Y8555D01*
X8827Y8558D01*
X8826Y8561D01*
X8826Y8564D01*
X8825Y8567D01*
X8824Y8571D01*
X8824Y8574D01*
X8823Y8577D01*
X8822Y8580D01*
X8821Y8583D01*
X8819Y8586D01*
X8818Y8589D01*
X8817Y8592D01*
X8815Y8595D01*
X8814Y8598D01*
X8813Y8601D01*
X8811Y8604D01*
X8809Y8607D01*
X8808Y8610D01*
X8806Y8613D01*
X8804Y8615D01*
X8802Y8618D01*
X8800Y8621D01*
X8798Y8623D01*
X8796Y8626D01*
X8794Y8628D01*
X8791Y8631D01*
X8789Y8633D01*
X8787Y8635D01*
X8784Y8637D01*
X8782Y8640D01*
X8779Y8642D01*
X8777Y8644D01*
X8774Y8646D01*
X8771Y8648D01*
X8769Y8650D01*
X8766Y8651D01*
X8763Y8653D01*
X8760Y8655D01*
X8757Y8656D01*
X8754Y8658D01*
X8751Y8659D01*
X8748Y8661D01*
X8745Y8662D01*
X8742Y8663D01*
X8739Y8664D01*
X8736Y8665D01*
X8733Y8666D01*
X8730Y8667D01*
X8726Y8668D01*
X8723Y8669D01*
X8720Y8669D01*
X8717Y8670D01*
X8714Y8670D01*
X8710Y8671D01*
X8707Y8671D01*
X8704Y8671D01*
X8700Y8672D01*
X8697Y8672D01*
X8694Y8672D01*
X8691Y8672D01*
X8687Y8671D01*
X8684Y8671D01*
X8681Y8671D01*
X8677Y8671D01*
X8674Y8670D01*
X8671Y8670D01*
X8668Y8669D01*
X8664Y8668D01*
X8661Y8667D01*
X8658Y8667D01*
X8655Y8666D01*
X8652Y8665D01*
X8649Y8663D01*
X8646Y8662D01*
X8643Y8661D01*
X8640Y8660D01*
X8637Y8658D01*
X8634Y8657D01*
X8631Y8655D01*
X8628Y8654D01*
X8625Y8652D01*
X8622Y8650D01*
X8619Y8648D01*
X8617Y8647D01*
X8614Y8645D01*
X8612Y8643D01*
X8609Y8640D01*
X8606Y8638D01*
X8604Y8636D01*
X8602Y8634D01*
X8599Y8632D01*
X8597Y8629D01*
X8595Y8627D01*
X8593Y8624D01*
X8591Y8622D01*
X8589Y8619D01*
X8587Y8616D01*
X8585Y8614D01*
X8583Y8611D01*
X8581Y8608D01*
X8579Y8605D01*
X8578Y8603D01*
X8576Y8600D01*
X8575Y8597D01*
X8573Y8594D01*
X8572Y8591D01*
X9800Y7292D02*
X9800Y7289D01*
X9800Y7285D01*
X9800Y7282D01*
X9800Y7279D01*
X9799Y7275D01*
X9799Y7272D01*
X9798Y7269D01*
X9797Y7265D01*
X9796Y7262D01*
X9795Y7259D01*
X9794Y7256D01*
X9793Y7253D01*
X9792Y7250D01*
X9791Y7246D01*
X9789Y7243D01*
X9788Y7240D01*
X9786Y7237D01*
X9784Y7235D01*
X9783Y7232D01*
X9781Y7229D01*
X9779Y7226D01*
X9777Y7224D01*
X9775Y7221D01*
X9772Y7218D01*
X9770Y7216D01*
X9768Y7214D01*
X9765Y7211D01*
X9763Y7209D01*
X9760Y7207D01*
X9758Y7205D01*
X9755Y7203D01*
X9752Y7201D01*
X9750Y7199D01*
X9747Y7197D01*
X9744Y7195D01*
X9741Y7194D01*
X9738Y7192D01*
X9735Y7191D01*
X9732Y7190D01*
X9729Y7188D01*
X9725Y7187D01*
X9722Y7186D01*
X9719Y7185D01*
X9716Y7185D01*
X9712Y7184D01*
X9709Y7183D01*
X9706Y7183D01*
X9703Y7182D01*
X9699Y7182D01*
X9696Y7182D01*
X9693Y7182D01*
X9689Y7182D01*
X9686Y7182D01*
X9682Y7182D01*
X9679Y7182D01*
X9676Y7182D01*
X9672Y7183D01*
X9669Y7183D01*
X9666Y7184D01*
X9663Y7185D01*
X9659Y7186D01*
X9656Y7187D01*
X9653Y7188D01*
X9650Y7189D01*
X9647Y7190D01*
X9644Y7192D01*
X9641Y7193D01*
X9638Y7195D01*
X9635Y7196D01*
X9632Y7198D01*
X9629Y7200D01*
X9626Y7202D01*
X9624Y7204D01*
X9621Y7206D01*
X9618Y7208D01*
X9616Y7210D01*
X9613Y7212D01*
X9611Y7215D01*
X9609Y7217D01*
X9606Y7220D01*
X9604Y7222D01*
X9602Y7225D01*
X9600Y7228D01*
X9598Y7230D01*
X9596Y7233D01*
X9595Y7236D01*
X9593Y7239D01*
X9592Y7242D01*
X9590Y7245D01*
X9589Y7248D01*
X9587Y7251D01*
X9586Y7254D01*
X9585Y7257D01*
X9584Y7261D01*
X9583Y7264D01*
X9582Y7267D01*
X9582Y7270D01*
X9581Y7274D01*
X9581Y7277D01*
X9580Y7280D01*
X9580Y7284D01*
X9580Y7287D01*
X9580Y7290D01*
Y7294D01*
X9580Y7297D01*
X9580Y7300D01*
X9580Y7304D01*
X9581Y7307D01*
X9581Y7310D01*
X9582Y7314D01*
X9582Y7317D01*
X9583Y7320D01*
X9584Y7323D01*
X9585Y7327D01*
X9586Y7330D01*
X9587Y7333D01*
X9589Y7336D01*
X9590Y7339D01*
X9592Y7342D01*
X9593Y7345D01*
X9595Y7348D01*
X9596Y7351D01*
X9598Y7354D01*
X9600Y7356D01*
X9602Y7359D01*
X9604Y7362D01*
X9606Y7364D01*
X9609Y7367D01*
X9611Y7369D01*
X9613Y7372D01*
X9616Y7374D01*
X9618Y7376D01*
X9621Y7378D01*
X9624Y7380D01*
X9626Y7382D01*
X9629Y7384D01*
X9632Y7386D01*
X9635Y7388D01*
X9638Y7389D01*
X9641Y7391D01*
X9644Y7392D01*
X9647Y7394D01*
X9650Y7395D01*
X9653Y7396D01*
X9656Y7397D01*
X9659Y7398D01*
X9663Y7399D01*
X9666Y7400D01*
X9669Y7401D01*
X9672Y7401D01*
X9676Y7402D01*
X9679Y7402D01*
X9682Y7402D01*
X9686Y7402D01*
X9689Y7402D01*
X9693Y7402D01*
X9696Y7402D01*
X9699Y7402D01*
X9703Y7402D01*
X9706Y7401D01*
X9709Y7401D01*
X9712Y7400D01*
X9716Y7399D01*
X9719Y7399D01*
X9722Y7398D01*
X9725Y7397D01*
X9729Y7396D01*
X9732Y7394D01*
X9735Y7393D01*
X9738Y7392D01*
X9741Y7390D01*
X9744Y7389D01*
X9747Y7387D01*
X9750Y7385D01*
X9752Y7383D01*
X9755Y7381D01*
X9758Y7379D01*
X9760Y7377D01*
X9763Y7375D01*
X9765Y7373D01*
X9768Y7370D01*
X9770Y7368D01*
X9772Y7366D01*
X9775Y7363D01*
X9777Y7360D01*
X9779Y7358D01*
X9781Y7355D01*
X9783Y7352D01*
X9784Y7349D01*
X9786Y7347D01*
X9788Y7344D01*
X9789Y7341D01*
X9791Y7338D01*
X9792Y7334D01*
X9793Y7331D01*
X9794Y7328D01*
X9795Y7325D01*
X9796Y7322D01*
X9797Y7319D01*
X9798Y7315D01*
X9799Y7312D01*
X9799Y7309D01*
X9800Y7305D01*
X9800Y7302D01*
X9800Y7299D01*
X9800Y7295D01*
X9800Y7292D01*
X9708Y8096D02*
X9711Y8096D01*
X9714Y8097D01*
X9717Y8098D01*
X9720Y8099D01*
X9723Y8100D01*
X9726Y8101D01*
X9729Y8102D01*
X9732Y8103D01*
X9735Y8104D01*
X9738Y8106D01*
X9741Y8107D01*
X9744Y8109D01*
X9747Y8110D01*
X9750Y8112D01*
X9752Y8114D01*
X9755Y8116D01*
X9758Y8118D01*
X9760Y8120D01*
X9763Y8122D01*
X9765Y8124D01*
X9767Y8126D01*
X9770Y8128D01*
X9772Y8131D01*
X9774Y8133D01*
X9776Y8136D01*
X9778Y8138D01*
X9780Y8141D01*
X9782Y8144D01*
X9784Y8146D01*
X9785Y8149D01*
X9787Y8152D01*
X9788Y8155D01*
X9790Y8158D01*
X9791Y8161D01*
X9793Y8164D01*
X9794Y8167D01*
X9795Y8170D01*
X9796Y8173D01*
X9797Y8176D01*
X9797Y8179D01*
X9798Y8182D01*
X9799Y8186D01*
X9799Y8189D01*
X9800Y8192D01*
X9800Y8195D01*
X9800Y8199D01*
X9800Y8202D01*
X9800Y8205D01*
X9800Y8208D01*
X9800Y8212D01*
X9800Y8215D01*
X9800Y8218D01*
X9799Y8221D01*
X9799Y8225D01*
X9798Y8228D01*
X9797Y8231D01*
X9797Y8234D01*
X9796Y8238D01*
X9795Y8241D01*
X9793Y8244D01*
X9792Y8247D01*
X9791Y8250D01*
X9790Y8253D01*
X9788Y8256D01*
X9786Y8259D01*
X9785Y8262D01*
X9783Y8265D01*
X9781Y8267D01*
X9779Y8270D01*
X9777Y8273D01*
X9775Y8275D01*
X9773Y8278D01*
X9771Y8280D01*
X9769Y8283D01*
X9766Y8285D01*
X9764Y8287D01*
X9761Y8289D01*
X9759Y8291D01*
X9756Y8294D01*
X9753Y8295D01*
X9751Y8297D01*
X9748Y8299D01*
X9745Y8301D01*
X9742Y8302D01*
X9739Y8304D01*
X9736Y8305D01*
X9733Y8307D01*
X9730Y8308D01*
X9727Y8309D01*
X9724Y8310D01*
X9721Y8311D01*
X9718Y8312D01*
X9714Y8313D01*
X9711Y8313D01*
X9708Y8314D01*
X9705Y8315D01*
X9701Y8315D01*
X9698Y8315D01*
X9695Y8315D01*
X9691Y8315D01*
X9688Y8315D01*
X9685Y8315D01*
X9681Y8315D01*
X9678Y8315D01*
X9675Y8314D01*
X9672Y8314D01*
X9668Y8313D01*
X9665Y8313D01*
X9662Y8312D01*
X9659Y8311D01*
X9656Y8310D01*
X9652Y8309D01*
X9649Y8308D01*
X9646Y8306D01*
X9643Y8305D01*
X9640Y8304D01*
X9637Y8302D01*
X9634Y8301D01*
X9632Y8299D01*
X9629Y8297D01*
X9626Y8295D01*
X9623Y8293D01*
X9621Y8291D01*
X9618Y8289D01*
X9616Y8287D01*
X9613Y8285D01*
X9611Y8282D01*
X9609Y8280D01*
X9607Y8277D01*
X9604Y8275D01*
X9602Y8272D01*
X9600Y8270D01*
X9598Y8267D01*
X9597Y8264D01*
X9595Y8261D01*
X9593Y8258D01*
X9592Y8256D01*
X9590Y8253D01*
X9589Y8250D01*
X9588Y8247D01*
X9586Y8243D01*
X9585Y8240D01*
X9584Y8237D01*
X9583Y8234D01*
X9583Y8231D01*
X9582Y8228D01*
X9581Y8224D01*
X9581Y8221D01*
X9580Y8218D01*
X9580Y8214D01*
X9580Y8211D01*
X9580Y8208D01*
X9580Y8205D01*
X9580Y8201D01*
X9580Y8198D01*
X9580Y8195D01*
X9580Y8191D01*
X9581Y8188D01*
X9581Y8185D01*
X9582Y8182D01*
X9583Y8178D01*
X9584Y8175D01*
X9585Y8172D01*
X9586Y8169D01*
X9587Y8166D01*
X9588Y8163D01*
X9589Y8160D01*
X9591Y8157D01*
X9592Y8154D01*
X9594Y8151D01*
X9595Y8148D01*
X11051Y7521D02*
X11054Y7522D01*
X11057Y7524D01*
X11059Y7526D01*
X11062Y7529D01*
X11065Y7531D01*
X11067Y7533D01*
X11070Y7535D01*
X11072Y7538D01*
X11075Y7540D01*
X11077Y7543D01*
X11079Y7545D01*
X11081Y7548D01*
X11084Y7550D01*
X11086Y7553D01*
X11088Y7556D01*
X11090Y7559D01*
X11091Y7562D01*
X11093Y7564D01*
X11095Y7567D01*
X11097Y7570D01*
X11098Y7573D01*
X11100Y7576D01*
X11101Y7580D01*
X11102Y7583D01*
X11103Y7586D01*
X11105Y7589D01*
X11106Y7592D01*
X11107Y7596D01*
X11108Y7599D01*
X11108Y7602D01*
X11109Y7606D01*
X11110Y7609D01*
X11110Y7612D01*
X11111Y7616D01*
X11111Y7619D01*
X11112Y7622D01*
X11112Y7626D01*
X11112Y7629D01*
X11112Y7633D01*
X11035Y7512D02*
X11032Y7510D01*
X11029Y7509D01*
X11026Y7508D01*
X11023Y7507D01*
X11020Y7506D01*
X11016Y7505D01*
X11013Y7504D01*
X11010Y7503D01*
X11007Y7502D01*
X11003Y7501D01*
X11000Y7501D01*
X10997Y7500D01*
X10994Y7500D01*
X10990Y7499D01*
X10987Y7499D01*
X10984Y7499D01*
X10980Y7499D01*
X10977Y7499D01*
X10973Y7499D01*
X10970Y7499D01*
X10967Y7499D01*
X10964Y7500D01*
X10960Y7500D01*
X10957Y7501D01*
X10954Y7501D01*
X10950Y7502D01*
X10947Y7503D01*
X10944Y7503D01*
X10941Y7504D01*
X10937Y7505D01*
X10934Y7506D01*
X10931Y7508D01*
X10928Y7509D01*
X10925Y7510D01*
X10922Y7511D01*
X10919Y7513D01*
X10916Y7514D01*
X10913Y7516D01*
X10910Y7518D01*
X10907Y7519D01*
X10904Y7521D01*
X10902Y7523D01*
X10899Y7525D01*
X10896Y7527D01*
X10894Y7529D01*
X10891Y7531D01*
X10889Y7534D01*
X10886Y7536D01*
X10884Y7538D01*
X10881Y7541D01*
X10879Y7543D01*
X10877Y7546D01*
X10875Y7548D01*
X10873Y7551D01*
X10871Y7553D01*
X10869Y7556D01*
X10867Y7559D01*
X10865Y7562D01*
X10863Y7564D01*
X10862Y7567D01*
X10860Y7570D01*
X10859Y7573D01*
X10857Y7576D01*
X10856Y7579D01*
X10854Y7582D01*
X10853Y7586D01*
X10852Y7589D01*
X10851Y7592D01*
X10850Y7595D01*
X10849Y7598D01*
X10848Y7602D01*
X10848Y7605D01*
X10847Y7608D01*
X10846Y7611D01*
X10846Y7615D01*
X10845Y7618D01*
X10845Y7621D01*
X10845Y7625D01*
X10845Y7628D01*
X10845Y7631D01*
X10845Y7635D01*
X10845Y7638D01*
X10845Y7641D01*
X10845Y7645D01*
X10846Y7648D01*
X10846Y7651D01*
X10846Y7655D01*
X10847Y7658D01*
X10848Y7661D01*
X10849Y7664D01*
X10849Y7668D01*
X10850Y7671D01*
X10851Y7674D01*
X10852Y7677D01*
X10854Y7680D01*
X10855Y7683D01*
X10856Y7687D01*
X10857Y7690D01*
X10859Y7693D01*
X10860Y7696D01*
X10862Y7698D01*
X10864Y7701D01*
X10865Y7704D01*
X10867Y7707D01*
X10869Y7710D01*
X10871Y7712D01*
X10873Y7715D01*
X10875Y7718D01*
X10877Y7720D01*
X10880Y7723D01*
X10882Y7725D01*
X10884Y7728D01*
X10887Y7730D01*
X10889Y7732D01*
X10892Y7734D01*
X10894Y7736D01*
X10897Y7739D01*
X10900Y7741D01*
X10902Y7742D01*
X10905Y7744D01*
X10908Y7746D01*
X10911Y7748D01*
X10914Y7750D01*
X11043D02*
X11046Y7748D01*
X11049Y7746D01*
X11052Y7744D01*
X11054Y7742D01*
X11057Y7740D01*
X11060Y7738D01*
X11063Y7736D01*
X11065Y7734D01*
X11068Y7732D01*
X11070Y7730D01*
X11073Y7727D01*
X11075Y7725D01*
X11077Y7722D01*
X11080Y7720D01*
X11082Y7717D01*
X11084Y7714D01*
X11086Y7712D01*
X11088Y7709D01*
X11090Y7706D01*
X11092Y7703D01*
X11093Y7700D01*
X11095Y7698D01*
X11097Y7695D01*
X11098Y7691D01*
X11100Y7688D01*
X11101Y7685D01*
X11102Y7682D01*
X11104Y7679D01*
X11105Y7676D01*
X11106Y7673D01*
X11107Y7669D01*
X11108Y7666D01*
X11108Y7663D01*
X11109Y7660D01*
X11110Y7656D01*
X11110Y7653D01*
X11111Y7649D01*
X11111Y7646D01*
X11112Y7643D01*
X11112Y7639D01*
X11112Y7636D01*
X11112Y7633D01*
X10616Y7293D02*
X10616Y7290D01*
X10616Y7287D01*
X10616Y7283D01*
X10616Y7280D01*
X10615Y7277D01*
X10615Y7274D01*
X10614Y7271D01*
X10613Y7267D01*
X10613Y7264D01*
X10612Y7261D01*
X10611Y7258D01*
X10610Y7255D01*
X10609Y7252D01*
X10607Y7249D01*
X10606Y7246D01*
X10605Y7243D01*
X10603Y7240D01*
X10602Y7237D01*
X10600Y7235D01*
X10598Y7232D01*
X10596Y7229D01*
X10594Y7227D01*
X10592Y7224D01*
X10590Y7222D01*
X10588Y7219D01*
X10586Y7217D01*
X10584Y7214D01*
X10581Y7212D01*
X10579Y7210D01*
X10577Y7208D01*
X10574Y7206D01*
X10571Y7204D01*
X10569Y7202D01*
X10566Y7200D01*
X10563Y7199D01*
X10561Y7197D01*
X10558Y7195D01*
X10555Y7194D01*
X10552Y7192D01*
X10460D02*
X10457Y7194D01*
X10454Y7195D01*
X10451Y7197D01*
X10448Y7199D01*
X10445Y7201D01*
X10443Y7202D01*
X10440Y7204D01*
X10437Y7207D01*
X10435Y7209D01*
X10432Y7211D01*
X10430Y7213D01*
X10427Y7215D01*
X10425Y7218D01*
X10423Y7220D01*
X10421Y7223D01*
X10418Y7226D01*
X10416Y7228D01*
X10415Y7231D01*
X10413Y7234D01*
X10411Y7237D01*
X10409Y7240D01*
X10408Y7243D01*
X10406Y7246D01*
X10405Y7249D01*
X10403Y7252D01*
X10402Y7255D01*
X10401Y7258D01*
X10400Y7261D01*
X10399Y7264D01*
X10398Y7268D01*
X10398Y7271D01*
X10397Y7274D01*
X10397Y7278D01*
X10396Y7281D01*
X10396Y7284D01*
X10396Y7288D01*
X10396Y7291D01*
X10396Y7294D01*
X10396Y7298D01*
X10396Y7301D01*
X10396Y7304D01*
X10396Y7308D01*
X10397Y7311D01*
X10398Y7314D01*
X10398Y7318D01*
X10399Y7321D01*
X10400Y7324D01*
X10401Y7327D01*
X10402Y7331D01*
X10403Y7334D01*
X10405Y7337D01*
X10406Y7340D01*
X10407Y7343D01*
X10409Y7346D01*
X10411Y7349D01*
X10412Y7352D01*
X10414Y7354D01*
X10416Y7357D01*
X10418Y7360D01*
X10420Y7363D01*
X10422Y7365D01*
X10425Y7368D01*
X10427Y7370D01*
X10429Y7372D01*
X10432Y7375D01*
X10434Y7377D01*
X10437Y7379D01*
X10439Y7381D01*
X10442Y7383D01*
X10445Y7385D01*
X10448Y7387D01*
X10451Y7389D01*
X10454Y7390D01*
X10456Y7392D01*
X10460Y7393D01*
X10463Y7395D01*
X10466Y7396D01*
X10469Y7397D01*
X10472Y7398D01*
X10475Y7399D01*
X10478Y7400D01*
X10482Y7401D01*
X10485Y7401D01*
X10488Y7402D01*
X10492Y7403D01*
X10495Y7403D01*
X10498Y7403D01*
X10502Y7403D01*
X10505Y7403D01*
X10508Y7403D01*
X10512Y7403D01*
X10515Y7403D01*
X10518Y7403D01*
X10522Y7402D01*
X10525Y7402D01*
X10528Y7401D01*
X10532Y7400D01*
X10535Y7400D01*
X10538Y7399D01*
X10541Y7398D01*
X10544Y7397D01*
X10548Y7395D01*
X10551Y7394D01*
X10554Y7393D01*
X10557Y7391D01*
X10560Y7390D01*
X10563Y7388D01*
X10565Y7386D01*
X10568Y7384D01*
X10571Y7382D01*
X10574Y7380D01*
X10576Y7378D01*
X10579Y7376D01*
X10581Y7374D01*
X10584Y7371D01*
X10586Y7369D01*
X10588Y7367D01*
X10591Y7364D01*
X10593Y7361D01*
X10595Y7359D01*
X10597Y7356D01*
X10599Y7353D01*
X10600Y7350D01*
X10602Y7348D01*
X10604Y7345D01*
X10605Y7342D01*
X10607Y7339D01*
X10608Y7336D01*
X10609Y7332D01*
X10610Y7329D01*
X10611Y7326D01*
X10612Y7323D01*
X10613Y7320D01*
X10614Y7316D01*
X10615Y7313D01*
X10615Y7310D01*
X10616Y7306D01*
X10616Y7303D01*
X10616Y7300D01*
X10616Y7296D01*
X10616Y7293D01*
X10596Y8143D02*
X10595Y8140D01*
X10593Y8138D01*
X10590Y8135D01*
X10588Y8132D01*
X10586Y8130D01*
X10584Y8128D01*
X10581Y8125D01*
X10579Y8123D01*
X10576Y8121D01*
X10574Y8119D01*
X10571Y8117D01*
X10568Y8115D01*
X10566Y8113D01*
X10563Y8111D01*
X10560Y8109D01*
X10557Y8108D01*
X10554Y8106D01*
X10551Y8105D01*
X10548Y8103D01*
X10545Y8102D01*
X10542Y8101D01*
X10539Y8100D01*
X10535Y8099D01*
X10532Y8098D01*
X10529Y8097D01*
X10526Y8096D01*
X10522Y8096D01*
X10519Y8095D01*
X10516Y8095D01*
X10512Y8095D01*
X10509Y8095D01*
X10506Y8095D01*
X10502Y8095D01*
X10499Y8095D01*
X10496Y8095D01*
X10492Y8095D01*
X10489Y8096D01*
X10486Y8096D01*
X10482Y8097D01*
X10479Y8098D01*
X10476Y8098D01*
X10473Y8099D01*
X10469Y8100D01*
X10466Y8102D01*
X10463Y8103D01*
X10460Y8104D01*
X10457Y8105D01*
X10454Y8107D01*
X10451Y8109D01*
X10448Y8110D01*
X10445Y8112D01*
X10443Y8114D01*
X10440Y8116D01*
X10437Y8118D01*
X10435Y8120D01*
X10432Y8122D01*
X10429Y8124D01*
X10427Y8127D01*
X10425Y8129D01*
X10422Y8132D01*
X10420Y8134D01*
X10418Y8137D01*
X10416Y8139D01*
X10414Y8142D01*
X10412Y8145D01*
X10411Y8148D01*
X10409Y8151D01*
X10407Y8153D01*
X10406Y8156D01*
X10404Y8159D01*
X10403Y8163D01*
X10402Y8166D01*
X10401Y8169D01*
X10400Y8172D01*
X10399Y8175D01*
X10398Y8178D01*
X10397Y8182D01*
X10396Y8185D01*
X10396Y8188D01*
X10395Y8192D01*
X10395Y8195D01*
X10395Y8198D01*
X10395Y8202D01*
X10394Y8205D01*
X10395Y8208D01*
X10395Y8212D01*
X10395Y8215D01*
X10395Y8218D01*
X10396Y8222D01*
X10396Y8225D01*
X10397Y8228D01*
X10398Y8232D01*
X10399Y8235D01*
X10400Y8238D01*
X10401Y8241D01*
X10402Y8244D01*
X10403Y8247D01*
X10404Y8251D01*
X10406Y8254D01*
X10407Y8257D01*
X10409Y8259D01*
X10411Y8262D01*
X10412Y8265D01*
X10414Y8268D01*
X10416Y8271D01*
X10418Y8273D01*
X10420Y8276D01*
X10422Y8278D01*
X10425Y8281D01*
X10427Y8283D01*
X10429Y8286D01*
X10432Y8288D01*
X10435Y8290D01*
X10437Y8292D01*
X10440Y8294D01*
X10443Y8296D01*
X10445Y8298D01*
X10448Y8300D01*
X10451Y8301D01*
X10454Y8303D01*
X10457Y8305D01*
X10460Y8306D01*
X10463Y8307D01*
X10466Y8308D01*
X10469Y8310D01*
X10473Y8311D01*
X10476Y8312D01*
X10479Y8312D01*
X10482Y8313D01*
X10486Y8314D01*
X10489Y8314D01*
X10492Y8315D01*
X10496Y8315D01*
X10499Y8315D01*
X10502Y8315D01*
X10506Y8315D01*
X10509Y8315D01*
X10512Y8315D01*
X10516Y8315D01*
X10519Y8315D01*
X10522Y8314D01*
X10526Y8314D01*
X10529Y8313D01*
X10532Y8312D01*
X10535Y8311D01*
X10539Y8310D01*
X10542Y8309D01*
X10545Y8308D01*
X10548Y8307D01*
X10551Y8305D01*
X10554Y8304D01*
X10557Y8302D01*
X10560Y8301D01*
X10563Y8299D01*
X10566Y8297D01*
X10568Y8295D01*
X10571Y8293D01*
X10574Y8291D01*
X10576Y8289D01*
X10579Y8287D01*
X10581Y8285D01*
X10584Y8282D01*
X10586Y8280D01*
X10588Y8278D01*
X10590Y8275D01*
X10593Y8272D01*
X10595Y8270D01*
X10596Y8267D01*
X10076Y8748D02*
X10076Y8744D01*
X10076Y8741D01*
X10075Y8738D01*
X10074Y8735D01*
X10073Y8732D01*
X10071Y8729D01*
X10070Y8726D01*
X10068Y8723D01*
X10066Y8721D01*
X10064Y8718D01*
X10061Y8716D01*
X10058Y8714D01*
X10056Y8712D01*
X10053Y8711D01*
X10050Y8710D01*
X10047Y8709D01*
X10044Y8708D01*
X10040Y8707D01*
X10037Y8707D01*
X10034Y8707D01*
X10031Y8707D01*
X10027Y8708D01*
X10024Y8709D01*
X10021Y8710D01*
X10018Y8711D01*
X10015Y8713D01*
X10012Y8714D01*
X10010Y8716D01*
X10007Y8718D01*
X10005Y8721D01*
X10003Y8723D01*
X10001Y8726D01*
X10000Y8729D01*
X9998Y8732D01*
X9997Y8735D01*
X9996Y8738D01*
Y8757D02*
X9997Y8760D01*
X9998Y8763D01*
X10000Y8766D01*
X10001Y8769D01*
X10003Y8772D01*
X10005Y8774D01*
X10007Y8777D01*
X10010Y8779D01*
X10012Y8781D01*
X10015Y8783D01*
X10018Y8784D01*
X10021Y8785D01*
X10024Y8786D01*
X10027Y8787D01*
X10031Y8788D01*
X10034Y8788D01*
X10037Y8788D01*
X10040Y8788D01*
X10044Y8787D01*
X10047Y8786D01*
X10050Y8785D01*
X10053Y8784D01*
X10056Y8783D01*
X10058Y8781D01*
X10061Y8779D01*
X10064Y8777D01*
X10066Y8774D01*
X10068Y8772D01*
X10070Y8769D01*
X10071Y8766D01*
X10073Y8763D01*
X10074Y8760D01*
X10075Y8757D01*
X10076Y8754D01*
X10076Y8751D01*
X10076Y8748D01*
X9996Y8738D02*
X9995Y8735D01*
X9994Y8732D01*
X9993Y8729D01*
X9991Y8726D01*
X9989Y8723D01*
X9987Y8721D01*
X9985Y8718D01*
X9983Y8716D01*
X9980Y8714D01*
X9977Y8713D01*
X9974Y8711D01*
X9971Y8710D01*
X9968Y8709D01*
X9965Y8708D01*
X9962Y8707D01*
X9959Y8707D01*
X9955Y8707D01*
X9952Y8707D01*
X9949Y8708D01*
X9946Y8709D01*
X9943Y8710D01*
X9939Y8711D01*
X9937Y8712D01*
X9934Y8714D01*
X9931Y8716D01*
X9929Y8718D01*
X9927Y8721D01*
X9924Y8723D01*
X9923Y8726D01*
X9921Y8729D01*
X9920Y8732D01*
X9918Y8735D01*
X9917Y8738D01*
X9917Y8741D01*
X9916Y8744D01*
X9916Y8748D01*
X9916Y8751D01*
X9917Y8754D01*
X9917Y8757D01*
X9918Y8760D01*
X9920Y8763D01*
X9921Y8766D01*
X9923Y8769D01*
X9924Y8772D01*
X9927Y8774D01*
X9929Y8777D01*
X9931Y8779D01*
X9934Y8781D01*
X9937Y8783D01*
X9939Y8784D01*
X9943Y8785D01*
X9946Y8786D01*
X9949Y8787D01*
X9952Y8788D01*
X9955Y8788D01*
X9959Y8788D01*
X9962Y8788D01*
X9965Y8787D01*
X9968Y8786D01*
X9971Y8785D01*
X9974Y8784D01*
X9977Y8783D01*
X9980Y8781D01*
X9983Y8779D01*
X9985Y8777D01*
X9987Y8774D01*
X9989Y8772D01*
X9991Y8769D01*
X9993Y8766D01*
X9994Y8763D01*
X9995Y8760D01*
X9996Y8757D01*
X10781Y8538D02*
X10781Y8534D01*
X10780Y8531D01*
X10780Y8528D01*
X10779Y8525D01*
X10778Y8522D01*
X10776Y8518D01*
X10775Y8516D01*
X10773Y8513D01*
X10771Y8510D01*
X10769Y8508D01*
X10766Y8505D01*
X10764Y8503D01*
X10761Y8501D01*
X10758Y8499D01*
X10755Y8498D01*
X10752Y8496D01*
X10749Y8495D01*
X10746Y8494D01*
X10743Y8494D01*
X10740Y8493D01*
X10736Y8493D01*
X10733Y8493D01*
X10730Y8494D01*
X10726Y8494D01*
X10723Y8495D01*
X10720Y8496D01*
X10717Y8498D01*
X10714Y8499D01*
X10711Y8501D01*
X10708Y8503D01*
X10706Y8505D01*
X10704Y8508D01*
X10701Y8510D01*
X10699Y8513D01*
X10698Y8516D01*
X10696Y8518D01*
X10695Y8522D01*
X10694Y8525D01*
X10693Y8528D01*
X10692Y8531D01*
X10692Y8534D01*
X10692Y8538D01*
X10692Y8541D01*
X10692Y8544D01*
X10693Y8548D01*
X10694Y8551D01*
X10695Y8554D01*
X10696Y8557D01*
X10698Y8560D01*
X10699Y8563D01*
X10701Y8566D01*
X10704Y8568D01*
X10706Y8570D01*
X10708Y8573D01*
X10711Y8575D01*
X10714Y8576D01*
X10717Y8578D01*
X10720Y8579D01*
X10723Y8580D01*
X10726Y8581D01*
X10730Y8582D01*
X10733Y8582D01*
X10736Y8582D01*
X10740Y8582D01*
X10743Y8582D01*
X10746Y8581D01*
X10749Y8580D01*
X10752Y8579D01*
X10755Y8578D01*
X10758Y8576D01*
X10761Y8575D01*
X10764Y8573D01*
X10766Y8570D01*
X10769Y8568D01*
X10771Y8566D01*
X10773Y8563D01*
X10775Y8560D01*
X10776Y8557D01*
X10778Y8554D01*
X10779Y8551D01*
X10780Y8548D01*
X10780Y8544D01*
X10781Y8541D01*
X10781Y8538D01*
X8980Y8538D02*
X8980Y8535D01*
X8980Y8531D01*
X8979Y8528D01*
X8978Y8525D01*
X8977Y8522D01*
X8976Y8519D01*
X8974Y8516D01*
X8973Y8513D01*
X8971Y8510D01*
X8969Y8508D01*
X8966Y8505D01*
X8964Y8503D01*
X8961Y8501D01*
X8958Y8499D01*
X8955Y8498D01*
X8952Y8496D01*
X8949Y8495D01*
X8946Y8494D01*
X8943Y8494D01*
X8939Y8493D01*
X8936Y8493D01*
X8933Y8493D01*
X8929Y8494D01*
X8926Y8494D01*
X8923Y8495D01*
X8920Y8496D01*
X8917Y8498D01*
X8914Y8499D01*
X8911Y8501D01*
X8908Y8503D01*
X8906Y8505D01*
X8903Y8508D01*
X8901Y8510D01*
X8899Y8513D01*
X8897Y8516D01*
X8896Y8519D01*
X8894Y8522D01*
X8893Y8525D01*
X8892Y8528D01*
X8892Y8531D01*
X8892Y8535D01*
X8891Y8538D01*
X8892Y8541D01*
X8892Y8545D01*
X8892Y8548D01*
X8893Y8551D01*
X8894Y8554D01*
X8896Y8557D01*
X8897Y8560D01*
X8899Y8563D01*
X8901Y8566D01*
X8903Y8568D01*
X8906Y8570D01*
X8908Y8573D01*
X8911Y8575D01*
X8914Y8576D01*
X8917Y8578D01*
X8920Y8579D01*
X8923Y8580D01*
X8926Y8581D01*
X8929Y8582D01*
X8933Y8582D01*
X8936Y8582D01*
X8939Y8582D01*
X8943Y8582D01*
X8946Y8581D01*
X8949Y8580D01*
X8952Y8579D01*
X8955Y8578D01*
X8958Y8576D01*
X8961Y8575D01*
X8964Y8573D01*
X8966Y8570D01*
X8969Y8568D01*
X8971Y8566D01*
X8973Y8563D01*
X8974Y8560D01*
X8976Y8557D01*
X8977Y8554D01*
X8978Y8551D01*
X8979Y8548D01*
X8980Y8545D01*
X8980Y8541D01*
X8980Y8538D01*
X11029Y8378D02*
X11030Y8374D01*
X11031Y8371D01*
X11033Y8369D01*
X11035Y8366D01*
X11037Y8363D01*
X11039Y8361D01*
X11042Y8359D01*
X11044Y8357D01*
X11047Y8355D01*
X11050Y8354D01*
X11053Y8352D01*
X11056Y8351D01*
X11060Y8351D01*
X11063Y8350D01*
X11066Y8350D01*
X11070Y8350D01*
X11073Y8351D01*
X11076Y8352D01*
X11079Y8353D01*
X11082Y8354D01*
X11085Y8356D01*
X11088Y8357D01*
X11091Y8360D01*
X11093Y8362D01*
X11095Y8364D01*
X11097Y8367D01*
X11099Y8370D01*
X11101Y8373D01*
X11102Y8376D01*
X11103Y8379D01*
X11104Y8382D01*
X11104Y8385D01*
X11104Y8389D01*
X11104Y8392D01*
X11104Y8395D01*
X11103Y8398D01*
X11102Y8401D01*
X11101Y8404D01*
X11100Y8406D01*
X11098Y8409D01*
X11097Y8412D01*
X11095Y8414D01*
X11093Y8416D01*
X11090Y8418D01*
X11088Y8420D01*
X11086Y8422D01*
X11083Y8423D01*
X11080Y8424D01*
X11047Y8155D02*
X11044Y8153D01*
X11042Y8151D01*
X11039Y8149D01*
X11037Y8147D01*
X11035Y8144D01*
X11033Y8142D01*
X11031Y8139D01*
X11030Y8136D01*
X11029Y8133D01*
X11028Y8130D01*
X11028Y8126D01*
X11027Y8123D01*
X11027Y8120D01*
X11027Y8117D01*
X11028Y8113D01*
X11029Y8110D01*
X11030Y8107D01*
X11031Y8104D01*
X11033Y8101D01*
X11034Y8099D01*
X11036Y8096D01*
X11068Y8160D02*
X11071Y8159D01*
X11074Y8159D01*
X11077Y8158D01*
X11080Y8157D01*
X11082Y8156D01*
X11085Y8154D01*
X11088Y8153D01*
X11090Y8151D01*
X11092Y8149D01*
X11094Y8147D01*
X11096Y8144D01*
X11098Y8142D01*
X11100Y8139D01*
X11101Y8136D01*
X11102Y8134D01*
X9996Y7271D02*
X9995Y7268D01*
X9995Y7264D01*
X9994Y7261D01*
X9992Y7258D01*
X9991Y7255D01*
X9989Y7252D01*
X9988Y7249D01*
X9986Y7247D01*
X9984Y7244D01*
X9981Y7242D01*
X9979Y7240D01*
X9976Y7238D01*
X9974Y7236D01*
X9971Y7234D01*
X9968Y7232D01*
X9965Y7231D01*
X9962Y7230D01*
X9958Y7229D01*
X9955Y7228D01*
X9952Y7228D01*
X9949Y7228D01*
X9945Y7228D01*
X9942Y7228D01*
X9939Y7228D01*
X9935Y7229D01*
X9932Y7229D01*
X9929Y7230D01*
X9926Y7232D01*
X9923Y7233D01*
X9920Y7235D01*
X9917Y7236D01*
X9915Y7238D01*
X9912Y7241D01*
X9910Y7243D01*
X9908Y7245D01*
X9905Y7248D01*
X9904Y7251D01*
X9902Y7253D01*
X9900Y7256D01*
X9899Y7259D01*
X9898Y7263D01*
X9897Y7266D01*
X9896Y7269D01*
X9896Y7272D01*
X9896Y7276D01*
X9896Y7279D01*
X9896Y7282D01*
X9896Y7285D01*
X9897Y7289D01*
X9897Y7292D01*
X9898Y7295D01*
X9996Y7271D02*
X9997Y7268D01*
X9997Y7264D01*
X9998Y7261D01*
X10000Y7258D01*
X10001Y7255D01*
X10003Y7252D01*
X10005Y7249D01*
X10007Y7246D01*
X10009Y7243D01*
X10012Y7241D01*
X10014Y7239D01*
X10017Y7237D01*
X10020Y7235D01*
X10023Y7233D01*
X10026Y7232D01*
X10029Y7230D01*
X10032Y7229D01*
X10036Y7229D01*
X10039Y7228D01*
X10043Y7228D01*
X10046Y7228D01*
X10049Y7228D01*
X10053Y7228D01*
X10056Y7229D01*
X10060Y7229D01*
X10063Y7230D01*
X10066Y7232D01*
X10069Y7233D01*
X10072Y7235D01*
X10075Y7237D01*
X10078Y7239D01*
X10080Y7241D01*
X10083Y7243D01*
X10085Y7246D01*
X10087Y7249D01*
X10089Y7252D01*
X10091Y7255D01*
X10092Y7258D01*
X10094Y7261D01*
X10095Y7264D01*
X10095Y7268D01*
X10096Y7271D01*
X10097Y7268D01*
X10097Y7265D01*
X10098Y7261D01*
X10099Y7258D01*
X10101Y7255D01*
X10102Y7253D01*
X10104Y7250D01*
X10106Y7247D01*
X10108Y7245D01*
X10110Y7242D01*
X10113Y7240D01*
X10115Y7238D01*
X10118Y7236D01*
X10121Y7234D01*
X10123Y7233D01*
X10126Y7231D01*
X10129Y7230D01*
X10133Y7229D01*
X10136Y7229D01*
X10139Y7228D01*
X10142Y7228D01*
X10145Y7228D01*
X10149Y7228D01*
X10152Y7228D01*
X10155Y7228D01*
X10158Y7229D01*
X10161Y7230D01*
X10291Y7255D02*
X10293Y7259D01*
X10294Y7263D01*
X10295Y7266D01*
X10296Y7270D01*
X10296Y7274D01*
X10296Y7278D01*
X10296Y7281D01*
X10296Y7285D01*
X10296Y7288D01*
X10295Y7291D01*
X10294Y7294D01*
X10293Y7297D01*
X10291Y7300D01*
X10290Y7303D01*
X10288Y7306D01*
X10286Y7309D01*
X10284Y7311D01*
X10282Y7314D01*
X10279Y7316D01*
X10277Y7318D01*
X10274Y7320D01*
X10271Y7322D01*
X10268Y7323D01*
X10265Y7325D01*
X10262Y7326D01*
X10259Y7327D01*
X10256Y7328D01*
X10253Y7328D01*
X10249Y7328D01*
X10246Y7328D01*
X10243Y7328D01*
X10240Y7328D01*
X10236Y7328D01*
X10233Y7327D01*
X10230Y7326D01*
X10227Y7325D01*
D17*
X10146Y7273D02*
X10286Y7133D01*
X10346Y7173D02*
X10591D01*
X10951Y7198D02*
X11021D01*
X10591Y7133D02*
X10321D01*
X10591D02*
X10596D01*
X10331D02*
X10286D01*
X11006Y7118D02*
X11071D01*
X10161Y7363D02*
X9961D01*
X9946Y7338D02*
X10086D01*
X10651Y7263D02*
X10706D01*
X11021D02*
X11101D01*
X11096D02*
X11131D01*
X10646Y7413D02*
X10101D01*
X9806D02*
X9646D01*
X9546D02*
X9471D01*
X10706Y7443D02*
X11021D01*
X11056Y7493D02*
X11126D01*
X9646Y7413D02*
X9596D01*
X10832Y7769D02*
X11137D01*
X9276Y7773D02*
X9236D01*
X9396Y7758D02*
X9441D01*
X9771Y7783D02*
X9846D01*
X9401Y7803D02*
X9361D01*
X9621Y7793D02*
X9636D01*
X9431Y7803D02*
X9401D01*
X9456Y7758D02*
X9516D01*
X10096Y7783D02*
X10171D01*
X10186D01*
X10171Y7733D02*
X10096D01*
X9621Y7793D02*
X9581D01*
X9237Y7774D02*
X8857D01*
X9796Y7953D02*
X9826D01*
X8926D02*
X8696D01*
X8701Y7968D02*
X8941D01*
X8836Y7983D02*
X8761D01*
X8831D02*
X8971D01*
X8986Y7978D02*
X9021D01*
X9346Y7988D02*
X9401D01*
X9351D02*
X9181D01*
X9171Y7978D02*
X9126D01*
X9301Y7968D02*
X9406D01*
X9306D02*
X9196D01*
X9211Y7948D02*
X9396D01*
X9181Y7953D02*
X9051D01*
X9946Y7883D02*
X10141D01*
X9761Y7918D02*
X9746D01*
X9741Y7933D02*
X9751D01*
X9726Y7918D02*
X9716D01*
X9721Y7853D02*
X9666D01*
X9651Y7838D02*
X9636D01*
X9681D02*
X9726D01*
X9651Y7808D02*
X9586D01*
X9401Y7888D02*
X9371D01*
X9376Y7858D02*
X9341D01*
X9386Y7868D02*
X9396D01*
X9101Y7823D02*
X8971D01*
X8951Y7843D02*
X8916D01*
X8976Y7848D02*
X9051D01*
X8856D02*
X8786D01*
Y7918D02*
X8856D01*
X8721Y7853D02*
X8591D01*
X8596Y7923D02*
X8721D01*
X9001Y7878D02*
X9126D01*
X9051Y7903D02*
X9006D01*
X9656Y7888D02*
X9686D01*
X9706Y7933D02*
X9716D01*
X9681Y7908D02*
X9676D01*
X9651D01*
Y7928D02*
X9676D01*
X9666Y7868D02*
X9696D01*
X9666D02*
X9626D01*
X9631Y7888D02*
X9656D01*
Y7928D02*
X9626D01*
X9621Y7908D02*
X9651D01*
X9436Y7838D02*
X9336D01*
Y7908D02*
X9406D01*
X9596Y7838D02*
X9631D01*
X9471Y7833D02*
X9456D01*
X10141Y7883D02*
X10226D01*
X9401Y7928D02*
X9356D01*
X9276D02*
X9226D01*
X9216D02*
X9236D01*
X9191D02*
X9021D01*
X9271D02*
X9356D01*
X9416Y8173D02*
X9456D01*
X11026Y8193D02*
X11186D01*
X9151Y8148D02*
X8916D01*
X8716D02*
X8671D01*
X9626Y8028D02*
X9691D01*
X10361Y8013D02*
X10491D01*
X10706Y8018D02*
X11021D01*
X9401Y8008D02*
X9361D01*
X9371D02*
X9151D01*
X9041Y8098D02*
X8916D01*
X9056Y8113D02*
X9186D01*
X8706Y8093D02*
X8686D01*
X8992Y8064D02*
X9207D01*
X9202D02*
X9372D01*
X8851Y8328D02*
X8741D01*
X9106Y8298D02*
X9241D01*
X9216Y8323D02*
X9061D01*
X8631Y8293D02*
X8591D01*
X8746D02*
X8821D01*
X8716Y8303D02*
X8681D01*
X10746Y8278D02*
X10861D01*
Y8238D02*
X10746D01*
X8701Y8198D02*
X8686D01*
X8927Y8199D02*
X9167D01*
X9162D02*
X9337D01*
X8992Y8304D02*
X8877D01*
X9561Y8533D02*
X9886D01*
X9571D02*
X9196D01*
X9171Y8548D02*
X9046D01*
X9821Y8573D02*
X9966D01*
X9811Y8583D02*
X9591D01*
X9571Y8558D02*
X9786D01*
X9576D02*
X9356D01*
X9361Y8583D02*
X9596D01*
X9366D02*
X9181D01*
X9171Y8573D02*
X9126D01*
X9181Y8558D02*
X9366D01*
X9386Y8483D02*
X9501D01*
X9486Y8508D02*
X10241D01*
X10231D02*
X10606D01*
X9171D02*
X9081D01*
X10036Y8483D02*
X10591D01*
X9091Y8508D02*
X9036D01*
X10881Y8403D02*
X11021D01*
X11031D01*
X10046Y8483D02*
X9491D01*
X10952Y8759D02*
X11082D01*
X10852Y8624D02*
X10812D01*
X9986Y8598D02*
X9536D01*
X9546D02*
X9306D01*
X9311D02*
X9151D01*
X9037Y8724D02*
X9642D01*
X9632Y8699D02*
X9142D01*
X9627D02*
X9737D01*
X9637Y8724D02*
X9837D01*
X8741Y8043D02*
Y8003D01*
X8646D02*
Y8118D01*
X8666Y8073D02*
Y8003D01*
X8701Y8328D02*
Y8388D01*
X8666Y8248D02*
Y8218D01*
Y8248D02*
Y8263D01*
X8646Y8123D02*
Y8108D01*
X8666Y8263D02*
Y8288D01*
X8776Y8253D02*
X8811Y8268D01*
X8741Y8003D02*
X8761Y7983D01*
X8696Y7953D02*
X8646Y8003D01*
X8666D02*
X8701Y7968D01*
Y8368D02*
X8686Y8383D01*
X8666Y8218D02*
X8686Y8198D01*
X8716Y8303D02*
X8741Y8328D01*
X8681Y8303D02*
X8666Y8288D01*
X8701Y8368D02*
X8716Y8383D01*
X8686Y8093D02*
X8666Y8073D01*
X8646Y8123D02*
X8671Y8148D01*
X8896Y8043D02*
Y8008D01*
X8971Y7983D02*
X8986Y7978D01*
X8866Y8193D02*
X8816Y8173D01*
X8951Y7843D02*
X8971Y7823D01*
X9001Y7878D02*
X8926Y7953D01*
X8941Y7968D02*
X8956Y7953D01*
X9006Y7903D01*
X8976Y7848D02*
X8916Y7908D01*
X8861Y8253D02*
X8836Y8278D01*
X8821Y8293D01*
X8851Y8328D02*
X8876Y8303D01*
X9036Y8508D02*
X9021Y8523D01*
X9171Y8508D02*
X9196Y8533D01*
X9171Y8573D02*
X9181Y8583D01*
Y7988D02*
X9171Y7978D01*
Y8548D02*
X9181Y8558D01*
X9196Y7968D02*
X9181Y7953D01*
X9041Y8098D02*
X9056Y8113D01*
X9326Y7773D02*
Y7733D01*
X9276Y8338D02*
Y8343D01*
X9372Y8449D02*
Y8064D01*
X9357Y8464D02*
Y8509D01*
X9322Y8504D02*
Y8454D01*
X9337Y8439D02*
Y8089D01*
X9276Y7828D02*
X9236Y7813D01*
X9276Y8338D02*
X9261Y8353D01*
X9357Y8464D02*
X9372Y8449D01*
X9337Y8439D02*
X9322Y8454D01*
X9327Y8199D02*
X9337Y8189D01*
X9361Y7803D02*
X9336Y7778D01*
X9376Y7858D02*
X9386Y7868D01*
X9211Y7948D02*
X9191Y7928D01*
X9216D02*
X9186Y7898D01*
X9327Y8199D02*
X9337Y8209D01*
X9466Y7733D02*
Y7668D01*
X9536Y8178D02*
Y8218D01*
X9516Y7758D02*
Y7733D01*
X9466Y7498D02*
Y7418D01*
X9456Y8058D02*
Y8123D01*
Y7833D02*
Y7818D01*
X9466Y7618D02*
Y7548D01*
X9556Y7818D02*
Y7828D01*
X9536Y7833D02*
Y7818D01*
X9516Y7808D02*
Y7828D01*
X9522Y7729D02*
Y7694D01*
X9456Y7818D02*
X9431Y7803D01*
X9471Y7783D02*
X9496Y7828D01*
X9516Y7808D02*
X9536Y7788D01*
X9556Y7818D02*
X9581Y7793D01*
Y7773D02*
X9536Y7818D01*
X9496Y8338D02*
X9511Y8353D01*
X9711Y7693D02*
Y7623D01*
X9596Y7653D02*
Y7693D01*
X9686Y8038D02*
Y8088D01*
X9651Y7778D02*
Y7758D01*
X9686Y8028D02*
Y8038D01*
X9576Y7828D02*
Y7818D01*
X9591Y7763D02*
Y7753D01*
X9597Y7649D02*
Y7494D01*
X9737Y8379D02*
Y8454D01*
X9756Y7618D02*
X9746Y7588D01*
Y8028D02*
X9776Y8053D01*
X9741Y7863D02*
X9721Y7853D01*
X9631Y7718D02*
X9601Y7738D01*
X9726Y7838D02*
X9756Y7808D01*
X9686Y8078D02*
X9676Y8088D01*
X9636Y7793D02*
X9651Y7778D01*
Y7758D02*
X9686Y7723D01*
X9586Y7808D02*
X9576Y7818D01*
X9581Y7773D02*
X9601Y7753D01*
X9832Y8284D02*
X9737Y8379D01*
X9796Y7953D02*
X9761Y7918D01*
X9746D02*
X9726Y7898D01*
X9751Y7933D02*
X9801Y7983D01*
X9741Y7933D02*
X9726Y7918D01*
X9716D02*
X9711Y7913D01*
X9716Y7933D02*
X9741Y7958D01*
X9726Y7898D02*
X9696Y7868D01*
X9666Y7853D02*
X9651Y7838D01*
Y7808D02*
X9681Y7838D01*
Y7908D02*
X9706Y7933D01*
Y7958D02*
X9676Y7928D01*
X9711Y7913D02*
X9686Y7888D01*
X9921Y7463D02*
Y7403D01*
Y7953D02*
Y7993D01*
Y7783D02*
Y7458D01*
Y7783D02*
Y7953D01*
X9946Y7908D02*
Y7883D01*
X9956Y8748D02*
Y8798D01*
X9846Y7728D02*
Y7683D01*
X9901Y7463D02*
Y7383D01*
Y7458D02*
Y7783D01*
Y7938D02*
Y7973D01*
X9806Y7413D02*
Y7053D01*
X9901Y7778D02*
Y7938D01*
X9902Y7969D02*
Y8144D01*
X9922Y8164D02*
Y7989D01*
X9847Y8239D02*
Y8314D01*
X9832Y8284D02*
Y8214D01*
X9847Y8314D02*
Y8369D01*
X9837Y8379D02*
Y8454D01*
X9801Y7868D02*
X9826Y7833D01*
X9921Y7403D02*
X9961Y7363D01*
X9946Y7338D02*
X9901Y7383D01*
X9821Y8573D02*
X9811Y8583D01*
X9832Y8214D02*
X9902Y8144D01*
X9922Y8164D02*
X9847Y8239D01*
Y8369D02*
X9837Y8379D01*
X10101Y7458D02*
Y7413D01*
X10136Y7733D02*
Y7783D01*
X10141D02*
Y7883D01*
X10101Y7733D02*
Y7458D01*
X10136Y8613D02*
Y8628D01*
X10046Y7273D02*
Y7213D01*
X10096Y7733D02*
Y7783D01*
X10161Y7363D02*
X10241Y7283D01*
X10136Y7288D02*
X10086Y7338D01*
X10062Y8339D02*
X10052Y8349D01*
X10171Y7783D02*
Y7733D01*
X10186Y7783D02*
Y7883D01*
X10246Y7273D02*
X10346Y7173D01*
X10491Y8013D02*
X10561Y8053D01*
X10742Y7859D02*
Y7839D01*
X10706Y7598D02*
Y7518D01*
X10701Y8033D02*
Y8123D01*
X10706Y7523D02*
Y7448D01*
X10601Y7853D02*
Y7993D01*
X10616Y8353D02*
Y8458D01*
X10636Y8453D02*
Y8478D01*
X10616Y8358D02*
Y8083D01*
X10636Y8188D02*
Y8453D01*
X10601Y8068D02*
Y7993D01*
X10796Y8103D02*
X10731Y8178D01*
Y8213D02*
X10746Y8238D01*
X10636Y8478D02*
X10606Y8508D01*
X10591Y8483D02*
X10616Y8458D01*
X10636Y8188D02*
X10701Y8123D01*
X10651Y7273D02*
X10661Y7263D01*
X10656Y7348D02*
X10646Y7358D01*
X10601Y8068D02*
X10616Y8083D01*
X10661Y7263D02*
X10656Y7258D01*
X10816Y8328D02*
Y8338D01*
X10806Y8278D02*
Y8238D01*
X10931Y8103D02*
X11001Y8183D01*
X10856Y8378D02*
X10881Y8403D01*
X11102Y8714D02*
Y8739D01*
Y8709D02*
Y8664D01*
X11042Y8669D02*
Y8709D01*
X11126Y8583D02*
Y8498D01*
Y8573D02*
Y8638D01*
X11101Y7388D02*
Y7263D01*
X11131D02*
Y7118D01*
X11021Y7198D02*
Y7263D01*
X11102Y8739D02*
X11082Y8759D01*
X11101Y8663D02*
X11126Y8638D01*
Y7493D02*
X11151Y7468D01*
X11031Y8403D02*
X11126Y8498D01*
X11151Y7468D02*
Y7388D01*
D19*
X9846Y7893D02*
X9816D01*
X9801D01*
X9686Y8088D02*
X9636D01*
X9601Y8123D02*
X9586D01*
X9541D01*
X9536D02*
X9456D01*
X10776Y8493D02*
X10811D01*
X10806Y8798D02*
X11096D01*
X9086Y8788D02*
Y8748D01*
X9236D02*
Y8793D01*
X9276Y8353D02*
Y8253D01*
X9486Y8748D02*
Y8793D01*
X9786Y7908D02*
X9746Y7873D01*
X9636Y8088D02*
X9601Y8123D01*
X9786Y8748D02*
Y8788D01*
X9946Y7093D02*
Y7053D01*
X9876Y7348D02*
Y7458D01*
Y7448D02*
Y7748D01*
Y7738D02*
Y7863D01*
Y7348D02*
X9881Y7343D01*
X9941Y7283D01*
X9861Y7878D02*
X9846Y7893D01*
X9861Y7878D02*
X9876Y7863D01*
X9801Y7893D02*
X9786Y7908D01*
X10136Y8613D02*
Y8788D01*
X10046Y7218D02*
Y7058D01*
X10066Y8218D02*
Y8354D01*
X10086Y8563D02*
X10136Y8613D01*
X10286Y8748D02*
Y8793D01*
X10486Y8788D02*
Y8748D01*
X11096Y8798D02*
X11191Y8703D01*
Y8343D01*
D20*
X10811Y7948D02*
X10717Y7833D01*
X11032Y7879D02*
X11157D01*
X10847Y7949D02*
X10807D01*
X11122Y8114D02*
X11157D01*
X11126Y8073D02*
X10726D01*
X9687Y8354D02*
X9497D01*
X9277D02*
X8887D01*
X9922D02*
X10066D01*
X8876Y8728D02*
X8736D01*
X9496Y8353D02*
Y8128D01*
X11157Y8114D02*
Y7879D01*
D21*
X10792Y8234D02*
D03*
Y8274D02*
D03*
X10806Y8254D02*
D03*
X10821Y8234D02*
D03*
Y8274D02*
D03*
X10172Y7784D02*
D03*
Y7734D02*
D03*
X10137Y7784D02*
D03*
Y7734D02*
D03*
X10097Y7784D02*
D03*
Y7734D02*
D03*
D23*
X9591Y7053D02*
X9531D01*
X9566D02*
X10516D01*
X10646Y7198D02*
X10961D01*
Y7053D02*
X10511D01*
X9646Y7493D02*
X9531D01*
X8861D02*
X8581D01*
X8856D02*
X9396D01*
X10646Y7648D02*
X10717D01*
X8856Y7803D02*
X8591D01*
X10717Y7833D02*
X11191D01*
X8881Y8388D02*
X8591D01*
X10816Y8338D02*
X11191D01*
X10816Y8793D02*
X8881D01*
X8591Y7808D02*
Y7753D01*
Y8353D02*
Y8388D01*
Y8353D02*
Y7803D01*
X8856Y7528D02*
Y7493D01*
Y7508D02*
Y7803D01*
X8881Y8388D02*
Y8793D01*
X9531Y7358D02*
Y7053D01*
X9646Y7413D02*
Y7493D01*
X10717Y7648D02*
Y7833D01*
X10646Y7648D02*
Y7198D01*
X10816Y8338D02*
Y8793D01*
X10961Y7198D02*
Y7053D01*
X11191Y7833D02*
Y8338D01*
D24*
X11157Y8114D02*
D03*
X11151Y7388D02*
D03*
X10952Y8759D02*
D03*
X11042Y8669D02*
D03*
X11122Y8114D02*
D03*
X11032Y7879D02*
D03*
X11136Y7768D02*
D03*
X11101Y7388D02*
D03*
X11121Y8073D02*
D03*
X11081D02*
D03*
X11006Y7118D02*
D03*
X11056Y7493D02*
D03*
X10852Y8624D02*
D03*
X10931Y8103D02*
D03*
X10861Y8238D02*
D03*
Y8278D02*
D03*
X10856Y8378D02*
D03*
X10776Y8493D02*
D03*
X10796Y8103D02*
D03*
X10832Y7769D02*
D03*
X10896Y7053D02*
D03*
X10796D02*
D03*
X10811Y7948D02*
D03*
X10846D02*
D03*
X10746Y8278D02*
D03*
Y8238D02*
D03*
X10576Y8323D02*
D03*
X10696Y7053D02*
D03*
X10596D02*
D03*
X10706Y7598D02*
D03*
X10726Y8073D02*
D03*
X10601Y7853D02*
D03*
X10561Y8053D02*
D03*
X10596Y7133D02*
D03*
X10591Y7173D02*
D03*
X10486Y8748D02*
D03*
X10496Y7053D02*
D03*
X10396D02*
D03*
X10361Y8013D02*
D03*
X10286Y8748D02*
D03*
X10296Y7053D02*
D03*
X10196D02*
D03*
X10187Y7884D02*
D03*
X10227D02*
D03*
X10086Y8563D02*
D03*
X10066Y8218D02*
D03*
X9986Y8598D02*
D03*
X10096Y7053D02*
D03*
X9996D02*
D03*
X10142Y7884D02*
D03*
X10102Y7459D02*
D03*
X9966Y8573D02*
D03*
X9786Y8748D02*
D03*
X9886Y8533D02*
D03*
X9786Y8558D02*
D03*
X9922Y8354D02*
D03*
X9837Y8454D02*
D03*
Y8724D02*
D03*
X9896Y7053D02*
D03*
X9796D02*
D03*
X9946Y7093D02*
D03*
Y7908D02*
D03*
X9966Y8023D02*
D03*
X9826Y7833D02*
D03*
X9846Y7683D02*
D03*
X9776Y8053D02*
D03*
X9786Y7908D02*
D03*
X9826Y7953D02*
D03*
X9801Y7978D02*
D03*
X9687Y8354D02*
D03*
X9737Y8454D02*
D03*
Y8699D02*
D03*
X9696Y7053D02*
D03*
X9596D02*
D03*
X9746Y7588D02*
D03*
X9596Y7648D02*
D03*
X9631Y7718D02*
D03*
Y7838D02*
D03*
X9646Y7413D02*
D03*
X9707Y7959D02*
D03*
X9742D02*
D03*
X9536Y8223D02*
D03*
X9386Y8483D02*
D03*
X9486Y8508D02*
D03*
X9411Y8173D02*
D03*
X9486Y8748D02*
D03*
X9497Y8354D02*
D03*
X9531Y7493D02*
D03*
Y7068D02*
D03*
Y7168D02*
D03*
Y7268D02*
D03*
Y7368D02*
D03*
X9396Y7493D02*
D03*
X9516Y7943D02*
D03*
X9566Y7888D02*
D03*
Y7943D02*
D03*
Y8003D02*
D03*
X9516Y7888D02*
D03*
Y8003D02*
D03*
X9396Y7758D02*
D03*
X9466Y7888D02*
D03*
Y7943D02*
D03*
Y8003D02*
D03*
X9522Y7689D02*
D03*
X9241Y8298D02*
D03*
X9276Y8253D02*
D03*
X9216Y8323D02*
D03*
X9236Y8748D02*
D03*
X9186Y8113D02*
D03*
X9277Y8354D02*
D03*
X9322Y8504D02*
D03*
X9357D02*
D03*
X9296Y7493D02*
D03*
X9196D02*
D03*
X9326Y7733D02*
D03*
X9366Y7883D02*
D03*
X9341Y7863D02*
D03*
X9336Y8088D02*
D03*
X9371Y8063D02*
D03*
X9236Y7813D02*
D03*
Y7773D02*
D03*
X9186Y7898D02*
D03*
X9151Y8598D02*
D03*
X9126Y8573D02*
D03*
X9151Y8148D02*
D03*
X9111Y8298D02*
D03*
X9061Y8323D02*
D03*
X9046Y8548D02*
D03*
X9086Y8748D02*
D03*
X9021Y8523D02*
D03*
X9142Y8699D02*
D03*
X9037Y8724D02*
D03*
X8992Y8304D02*
D03*
X9096Y7493D02*
D03*
X8996D02*
D03*
X9151Y8008D02*
D03*
X9126Y7978D02*
D03*
Y7878D02*
D03*
X9101Y7823D02*
D03*
X9051Y7848D02*
D03*
X9021Y7928D02*
D03*
Y7978D02*
D03*
X9051Y7903D02*
D03*
Y7953D02*
D03*
X8992Y8064D02*
D03*
X8886Y8353D02*
D03*
X8896Y7493D02*
D03*
Y8008D02*
D03*
X8811Y8268D02*
D03*
X8821Y8173D02*
D03*
X8796Y7493D02*
D03*
X8746Y8293D02*
D03*
X8736Y8728D02*
D03*
X8631Y8293D02*
D03*
X8701Y8328D02*
D03*
X8696Y7493D02*
D03*
X8591Y8368D02*
D03*
Y8268D02*
D03*
Y8168D02*
D03*
Y8068D02*
D03*
Y7968D02*
D03*
Y7868D02*
D03*
Y7768D02*
D03*
X8596Y7493D02*
D03*
D32*
X11066Y8389D02*
D03*
X11066Y8121D02*
D03*
D34*
X8819Y8221D02*
D03*
X8819Y8071D02*
D03*
X10036Y8748D02*
D03*
X9957D02*
D03*
D39*
X10736Y8538D02*
D03*
X8936Y8538D02*
D03*
D44*
X9946Y7278D02*
D03*
X10046D02*
D03*
X10146D02*
D03*
X10246D02*
D03*
D52*
X10505Y8205D02*
D03*
X10506Y7293D02*
D03*
X9690Y8205D02*
D03*
Y7292D02*
D03*
D54*
X10978Y8538D02*
D03*
X10978Y7633D02*
D03*
X8695Y8538D02*
D03*
Y7633D02*
D03*
D56*
X9436Y7840D02*
D03*
X9455D02*
D03*
X9475D02*
D03*
X9495D02*
D03*
X9514D02*
D03*
X9534D02*
D03*
X9554D02*
D03*
Y8054D02*
D03*
X9534D02*
D03*
X9514D02*
D03*
X9495D02*
D03*
X9475D02*
D03*
X9455D02*
D03*
X9436D02*
D03*
X9573Y7840D02*
D03*
X9593D02*
D03*
Y8054D02*
D03*
X9573D02*
D03*
D64*
X9456Y8123D02*
D03*
Y8173D02*
D03*
X9846Y7733D02*
D03*
Y7783D02*
D03*
X9596Y7743D02*
D03*
Y7693D02*
D03*
X9466Y7498D02*
D03*
Y7548D02*
D03*
Y7618D02*
D03*
Y7668D02*
D03*
D67*
X9738Y8023D02*
D03*
X9688D02*
D03*
X9796Y7868D02*
D03*
X9746D02*
D03*
X9711Y7623D02*
D03*
X9761D02*
D03*
X9541Y7413D02*
D03*
X9591D02*
D03*
X9278Y7773D02*
D03*
X9328D02*
D03*
X9331Y7833D02*
D03*
X9281D02*
D03*
X9331Y7903D02*
D03*
X9281D02*
D03*
D69*
X9407Y7907D02*
D03*
Y7927D02*
D03*
Y7947D02*
D03*
Y7966D02*
D03*
Y7986D02*
D03*
Y8006D02*
D03*
Y8025D02*
D03*
X9621Y7907D02*
D03*
Y7927D02*
D03*
Y7947D02*
D03*
Y7966D02*
D03*
Y7986D02*
D03*
Y8006D02*
D03*
Y8025D02*
D03*
X9407Y7888D02*
D03*
Y7868D02*
D03*
X9621D02*
D03*
Y7888D02*
D03*
D70*
X9536Y8178D02*
D03*
Y8123D02*
D03*
X8856Y7843D02*
D03*
X8911D02*
D03*
X8856Y7913D02*
D03*
X8911D02*
D03*
D71*
X11131Y7118D02*
D03*
X11071D02*
D03*
X11102Y8709D02*
D03*
X11042D02*
D03*
X8721Y7923D02*
D03*
X8781D02*
D03*
X8721Y7853D02*
D03*
X8781D02*
D03*
D79*
X9524Y7730D02*
D03*
Y7756D02*
D03*
Y7781D02*
D03*
X9453D02*
D03*
Y7756D02*
D03*
Y7730D02*
D03*
D85*
X9770Y7703D02*
D03*
X9703D02*
D03*
X9770Y7790D02*
D03*
X9703D02*
D03*
D87*
X9465Y7416D02*
D03*
X9370D02*
D03*
X9197D02*
D03*
X8929D02*
D03*
X8662D02*
D03*
Y7077D02*
D03*
X8929D02*
D03*
X9197D02*
D03*
X9465D02*
D03*
D96*
X11022Y7441D02*
D03*
X10707D02*
D03*
X11022Y7264D02*
D03*
X10707D02*
D03*
X11022Y8196D02*
D03*
X10707D02*
D03*
X11022Y8019D02*
D03*
X10707D02*
D03*
D105*
X8896Y8046D02*
D03*
X8895Y8096D02*
D03*
X8742Y8046D02*
D03*
Y8096D02*
D03*
X8896Y8196D02*
D03*
X8895Y8246D02*
D03*
X8742Y8196D02*
D03*
Y8246D02*
D03*
D107*
X8896Y8146D02*
D03*
X8742D02*
D03*
D117*
X9514Y7947D02*
D03*
M02*
